<?xml version="1.0" encoding="utf-8" standalone="no"?>
<!DOCTYPE svg PUBLIC "-//W3C//DTD SVG 1.1//EN"
  "http://www.w3.org/Graphics/SVG/1.1/DTD/svg11.dtd">
<!-- Created with matplotlib (http://matplotlib.org/) -->
<svg height="341pt" version="1.1" viewBox="0 0 483 341" width="483pt" xmlns="http://www.w3.org/2000/svg" xmlns:xlink="http://www.w3.org/1999/xlink">
 <defs>
  <style type="text/css">
*{stroke-linecap:butt;stroke-linejoin:round;}
  </style>
 </defs>
 <g id="figure_1">
  <g id="patch_1">
   <path d="M 0 341.137812 
L 483.265 341.137812 
L 483.265 0 
L 0 0 
z
" style="fill:#ffffff;"/>
  </g>
  <g id="axes_1">
   <g id="patch_2">
    <path d="M 70.992344 285 
L 461.592344 285 
L 461.592344 13.2 
L 70.992344 13.2 
z
" style="fill:#ffffff;"/>
   </g>
   <g id="line2d_1">
    <path clip-path="url(#pb31bfe6e43)" d="M -1 207.342857 
L -0.617656 207.342857 
L 5.892344 207.342857 
L 12.402344 207.342857 
L 18.912344 207.342857 
L 25.422344 207.342857 
L 31.932344 207.342857 
L 38.442344 207.342857 
L 44.952344 207.342857 
L 51.462344 207.342857 
L 57.972344 207.342857 
L 64.482344 207.342857 
L 70.992344 207.342857 
L 77.502344 207.342857 
L 84.012344 207.342857 
L 90.522344 207.342857 
L 97.032344 207.342857 
L 103.542344 207.342857 
L 110.052344 207.342857 
L 116.562344 207.342857 
L 123.072344 207.342857 
L 129.582344 207.342857 
L 136.092344 207.342857 
L 142.602344 207.342857 
L 149.112344 207.342857 
L 155.622344 207.342857 
L 162.132344 207.342857 
L 168.642344 207.342857 
L 175.152344 207.342857 
L 181.662344 207.342857 
L 188.172344 207.342857 
L 194.682344 207.342857 
L 201.192344 207.342857 
L 207.702344 207.342857 
L 214.212344 207.342857 
L 220.722344 207.342857 
L 227.232344 207.342857 
L 233.742344 207.342857 
L 240.252344 207.342857 
L 246.762344 207.342857 
L 253.272344 207.342857 
L 259.782344 207.342857 
L 266.292344 207.342857 
L 272.802344 207.342857 
L 279.312344 207.342857 
L 285.822344 207.342857 
L 292.332344 207.342857 
L 298.842344 207.342857 
L 305.352344 207.342857 
L 311.862344 207.342857 
L 318.372344 207.342857 
L 324.882344 207.342857 
L 331.392344 207.342857 
L 337.902344 207.342857 
L 344.412344 207.342857 
L 350.922344 207.342857 
L 357.432344 207.342857 
L 363.942344 207.342857 
L 370.452344 207.342857 
L 376.962344 207.342857 
L 383.472344 207.342857 
L 389.982344 207.342857 
L 396.492344 207.342857 
L 403.002344 207.342857 
L 409.512344 207.342857 
L 416.022344 207.342857 
L 422.532344 207.342857 
L 429.042344 207.342857 
L 435.552344 207.342857 
L 442.062344 207.342857 
L 448.572344 207.342857 
L 455.082344 207.342857 
L 461.592344 207.342857 
L 468.102344 207.342857 
L 474.612344 207.342857 
L 481.122344 207.342857 
L 484.265 207.342857 
" style="fill:none;stroke:#000000;stroke-dasharray:3.7,1.6;stroke-dashoffset:0;"/>
   </g>
   <g id="PolyCollection_1">
    <path clip-path="url(#pb31bfe6e43)" d="M -7.127656 183.959722 
L -7.127656 315.112812 
L -0.617656 388.31906 
L 5.892344 470.340411 
L 12.402344 522.297862 
L 18.912344 519.597397 
L 25.422344 475.431129 
L 31.932344 411.683755 
L 38.442344 346.108073 
L 44.952344 295.921234 
L 51.462344 269.351363 
L 57.972344 262.851142 
L 64.482344 269.137659 
L 70.992344 278.330128 
L 77.502344 279.67752 
L 84.012344 270.518095 
L 90.522344 259.766505 
L 97.032344 252.513487 
L 103.542344 242.836905 
L 110.052344 230.045383 
L 116.562344 222.031841 
L 123.072344 221.875168 
L 129.582344 228.072112 
L 136.092344 233.1182 
L 142.602344 231.317063 
L 149.112344 224.667501 
L 155.622344 218.91076 
L 162.132344 216.699898 
L 168.642344 217.492295 
L 175.152344 217.937616 
L 181.662344 213.275659 
L 188.172344 207.637747 
L 194.682344 206.762422 
L 201.192344 211.487598 
L 207.702344 218.961698 
L 214.212344 223.088668 
L 220.722344 221.066008 
L 227.232344 216.77828 
L 233.742344 216.508473 
L 240.252344 221.192162 
L 246.762344 227.941209 
L 253.272344 231.65838 
L 259.782344 230.23391 
L 266.292344 229.397497 
L 272.802344 230.154577 
L 279.312344 234.9123 
L 285.822344 249.784584 
L 292.332344 264.381435 
L 298.842344 264.37029 
L 305.352344 257.090111 
L 311.862344 259.48848 
L 318.372344 279.389566 
L 324.882344 308.015931 
L 331.392344 317.389255 
L 337.902344 298.330965 
L 344.412344 275.987764 
L 350.922344 269.532122 
L 357.432344 274.996138 
L 363.942344 277.851375 
L 370.452344 276.979378 
L 376.962344 286.722294 
L 383.472344 322.973608 
L 389.982344 365.439399 
L 396.492344 364.758753 
L 403.002344 327.03479 
L 409.512344 304.152249 
L 416.022344 342.765006 
L 422.532344 421.261357 
L 429.042344 453.958427 
L 435.552344 395.529878 
L 442.062344 286.589555 
L 448.572344 217.39078 
L 455.082344 218.467407 
L 461.592344 272.351616 
L 468.102344 328.707765 
L 474.612344 371.800557 
L 481.122344 445.687071 
L 487.632344 568.25561 
L 494.142344 733.374268 
L 500.652344 1032.219785 
L 507.162344 1326.31748 
L 513.672344 1138.607715 
L 520.182344 739.987704 
L 526.692344 592.035615 
L 533.202344 667.963128 
L 539.712344 824.393511 
L 546.222344 1664.28411 
L 552.732344 6223.282647 
L 559.242344 21040.687476 
L 565.752344 62842.652738 
L 572.262344 10944.836668 
L 578.772344 -189.882144 
L 585.282344 1045.629922 
L 591.792344 1581.395863 
L 598.302344 801.165646 
L 604.812344 530.501241 
L 611.322344 431.674418 
L 617.832344 372.524436 
L 624.342344 328.164191 
L 630.852344 294.004364 
L 637.362344 268.48688 
L 637.362344 3.644538 
L 637.362344 3.644538 
L 630.852344 -82.944013 
L 624.342344 -210.232077 
L 617.832344 -404.5017 
L 611.322344 -721.611913 
L 604.812344 -1296.206323 
L 598.302344 -2553.838223 
L 591.792344 -5591.355827 
L 585.282344 -5335.027356 
L 578.772344 -824.84817 
L 572.262344 -19132.35225 
L 565.752344 -94878.37029 
L 559.242344 -31781.917404 
L 552.732344 -9567.108591 
L 546.222344 -2945.22339 
L 539.712344 -1187.791901 
L 533.202344 -446.586648 
L 526.692344 -117.046075 
L 520.182344 -63.540435 
L 513.672344 -314.616119 
L 507.162344 -636.720964 
L 500.652344 -651.095862 
L 494.142344 -531.739498 
L 487.632344 -329.417391 
L 481.122344 -87.376328 
L 474.612344 8.202346 
L 468.102344 -40.489907 
L 461.592344 -138.145271 
L 455.082344 -192.159394 
L 448.572344 -151.434102 
L 442.062344 -47.803979 
L 435.552344 54.63171 
L 429.042344 113.399967 
L 422.532344 115.777413 
L 416.022344 103.131751 
L 409.512344 92.918184 
L 403.002344 91.414629 
L 396.492344 104.432226 
L 389.982344 106.809145 
L 383.472344 84.343543 
L 376.962344 59.856374 
L 370.452344 64.385548 
L 363.942344 96.568996 
L 357.432344 130.423485 
L 350.922344 157.558081 
L 344.412344 185.095131 
L 337.902344 206.605661 
L 331.392344 205.394267 
L 324.882344 189.234484 
L 318.372344 177.679248 
L 311.862344 179.592952 
L 305.352344 193.855773 
L 298.842344 202.884656 
L 292.332344 194.567588 
L 285.822344 180.796569 
L 279.312344 174.159185 
L 272.802344 176.640527 
L 266.292344 184.122682 
L 259.782344 186.126726 
L 253.272344 179.820039 
L 246.762344 174.334034 
L 240.252344 173.386447 
L 233.742344 175.521863 
L 227.232344 178.561302 
L 220.722344 181.603863 
L 214.212344 186.37653 
L 207.702344 191.251613 
L 201.192344 191.234272 
L 194.682344 186.565279 
L 188.172344 184.819862 
L 181.662344 188.600863 
L 175.152344 194.650425 
L 168.642344 197.832143 
L 162.132344 193.791336 
L 155.622344 189.095248 
L 149.112344 190.395345 
L 142.602344 195.254262 
L 136.092344 198.567833 
L 129.582344 197.656002 
L 123.072344 190.581328 
L 116.562344 179.299432 
L 110.052344 173.383328 
L 103.542344 176.74259 
L 97.032344 186.073008 
L 90.522344 193.214879 
L 84.012344 193.785906 
L 77.502344 193.647037 
L 70.992344 195.16715 
L 64.482344 190.410407 
L 57.972344 176.206287 
L 51.462344 161.899349 
L 44.952344 161.656871 
L 38.442344 173.262255 
L 31.932344 181.17723 
L 25.422344 179.786271 
L 18.912344 173.553505 
L 12.402344 169.003594 
L 5.892344 170.118361 
L -0.617656 176.139923 
L -7.127656 183.959722 
z
" style="fill:#4c72b0;fill-opacity:0.1;stroke:#4c72b0;stroke-opacity:0.1;"/>
   </g>
   <g id="matplotlib.axis_1">
    <g id="xtick_1">
     <g id="line2d_2">
      <defs>
       <path d="M 0 0 
L 0 6 
" id="m931a7490c7" style="stroke:#262626;"/>
      </defs>
      <g>
       <use style="fill:#262626;stroke:#262626;" x="70.992344" xlink:href="#m931a7490c7" y="285"/>
      </g>
     </g>
     <g id="text_1">
      <!-- 0.05 -->
      <defs>
       <path d="M 31.78125 66.40625 
Q 24.171875 66.40625 20.328125 58.90625 
Q 16.5 51.421875 16.5 36.375 
Q 16.5 21.390625 20.328125 13.890625 
Q 24.171875 6.390625 31.78125 6.390625 
Q 39.453125 6.390625 43.28125 13.890625 
Q 47.125 21.390625 47.125 36.375 
Q 47.125 51.421875 43.28125 58.90625 
Q 39.453125 66.40625 31.78125 66.40625 
z
M 31.78125 74.21875 
Q 44.046875 74.21875 50.515625 64.515625 
Q 56.984375 54.828125 56.984375 36.375 
Q 56.984375 17.96875 50.515625 8.265625 
Q 44.046875 -1.421875 31.78125 -1.421875 
Q 19.53125 -1.421875 13.0625 8.265625 
Q 6.59375 17.96875 6.59375 36.375 
Q 6.59375 54.828125 13.0625 64.515625 
Q 19.53125 74.21875 31.78125 74.21875 
z
" id="DejaVuSans-30"/>
       <path d="M 10.6875 12.40625 
L 21 12.40625 
L 21 0 
L 10.6875 0 
z
" id="DejaVuSans-2e"/>
       <path d="M 10.796875 72.90625 
L 49.515625 72.90625 
L 49.515625 64.59375 
L 19.828125 64.59375 
L 19.828125 46.734375 
Q 21.96875 47.46875 24.109375 47.828125 
Q 26.265625 48.1875 28.421875 48.1875 
Q 40.625 48.1875 47.75 41.5 
Q 54.890625 34.8125 54.890625 23.390625 
Q 54.890625 11.625 47.5625 5.09375 
Q 40.234375 -1.421875 26.90625 -1.421875 
Q 22.3125 -1.421875 17.546875 -0.640625 
Q 12.796875 0.140625 7.71875 1.703125 
L 7.71875 11.625 
Q 12.109375 9.234375 16.796875 8.0625 
Q 21.484375 6.890625 26.703125 6.890625 
Q 35.15625 6.890625 40.078125 11.328125 
Q 45.015625 15.765625 45.015625 23.390625 
Q 45.015625 31 40.078125 35.4375 
Q 35.15625 39.890625 26.703125 39.890625 
Q 22.75 39.890625 18.8125 39.015625 
Q 14.890625 38.140625 10.796875 36.28125 
z
" id="DejaVuSans-35"/>
      </defs>
      <g style="fill:#262626;" transform="translate(56.519688 307.877969)scale(0.13 -0.13)">
       <use xlink:href="#DejaVuSans-30"/>
       <use x="63.623047" xlink:href="#DejaVuSans-2e"/>
       <use x="95.410156" xlink:href="#DejaVuSans-30"/>
       <use x="159.033203" xlink:href="#DejaVuSans-35"/>
      </g>
     </g>
    </g>
    <g id="xtick_2">
     <g id="line2d_3">
      <g>
       <use style="fill:#262626;stroke:#262626;" x="119.817344" xlink:href="#m931a7490c7" y="285"/>
      </g>
     </g>
     <g id="text_2">
      <!-- 0.10 -->
      <defs>
       <path d="M 12.40625 8.296875 
L 28.515625 8.296875 
L 28.515625 63.921875 
L 10.984375 60.40625 
L 10.984375 69.390625 
L 28.421875 72.90625 
L 38.28125 72.90625 
L 38.28125 8.296875 
L 54.390625 8.296875 
L 54.390625 0 
L 12.40625 0 
z
" id="DejaVuSans-31"/>
      </defs>
      <g style="fill:#262626;" transform="translate(105.344688 307.877969)scale(0.13 -0.13)">
       <use xlink:href="#DejaVuSans-30"/>
       <use x="63.623047" xlink:href="#DejaVuSans-2e"/>
       <use x="95.410156" xlink:href="#DejaVuSans-31"/>
       <use x="159.033203" xlink:href="#DejaVuSans-30"/>
      </g>
     </g>
    </g>
    <g id="xtick_3">
     <g id="line2d_4">
      <g>
       <use style="fill:#262626;stroke:#262626;" x="168.642344" xlink:href="#m931a7490c7" y="285"/>
      </g>
     </g>
     <g id="text_3">
      <!-- 0.15 -->
      <g style="fill:#262626;" transform="translate(154.169688 307.877969)scale(0.13 -0.13)">
       <use xlink:href="#DejaVuSans-30"/>
       <use x="63.623047" xlink:href="#DejaVuSans-2e"/>
       <use x="95.410156" xlink:href="#DejaVuSans-31"/>
       <use x="159.033203" xlink:href="#DejaVuSans-35"/>
      </g>
     </g>
    </g>
    <g id="xtick_4">
     <g id="line2d_5">
      <g>
       <use style="fill:#262626;stroke:#262626;" x="217.467344" xlink:href="#m931a7490c7" y="285"/>
      </g>
     </g>
     <g id="text_4">
      <!-- 0.20 -->
      <defs>
       <path d="M 19.1875 8.296875 
L 53.609375 8.296875 
L 53.609375 0 
L 7.328125 0 
L 7.328125 8.296875 
Q 12.9375 14.109375 22.625 23.890625 
Q 32.328125 33.6875 34.8125 36.53125 
Q 39.546875 41.84375 41.421875 45.53125 
Q 43.3125 49.21875 43.3125 52.78125 
Q 43.3125 58.59375 39.234375 62.25 
Q 35.15625 65.921875 28.609375 65.921875 
Q 23.96875 65.921875 18.8125 64.3125 
Q 13.671875 62.703125 7.8125 59.421875 
L 7.8125 69.390625 
Q 13.765625 71.78125 18.9375 73 
Q 24.125 74.21875 28.421875 74.21875 
Q 39.75 74.21875 46.484375 68.546875 
Q 53.21875 62.890625 53.21875 53.421875 
Q 53.21875 48.921875 51.53125 44.890625 
Q 49.859375 40.875 45.40625 35.40625 
Q 44.1875 33.984375 37.640625 27.21875 
Q 31.109375 20.453125 19.1875 8.296875 
z
" id="DejaVuSans-32"/>
      </defs>
      <g style="fill:#262626;" transform="translate(202.994688 307.877969)scale(0.13 -0.13)">
       <use xlink:href="#DejaVuSans-30"/>
       <use x="63.623047" xlink:href="#DejaVuSans-2e"/>
       <use x="95.410156" xlink:href="#DejaVuSans-32"/>
       <use x="159.033203" xlink:href="#DejaVuSans-30"/>
      </g>
     </g>
    </g>
    <g id="xtick_5">
     <g id="line2d_6">
      <g>
       <use style="fill:#262626;stroke:#262626;" x="266.292344" xlink:href="#m931a7490c7" y="285"/>
      </g>
     </g>
     <g id="text_5">
      <!-- 0.25 -->
      <g style="fill:#262626;" transform="translate(251.819687 307.877969)scale(0.13 -0.13)">
       <use xlink:href="#DejaVuSans-30"/>
       <use x="63.623047" xlink:href="#DejaVuSans-2e"/>
       <use x="95.410156" xlink:href="#DejaVuSans-32"/>
       <use x="159.033203" xlink:href="#DejaVuSans-35"/>
      </g>
     </g>
    </g>
    <g id="xtick_6">
     <g id="line2d_7">
      <g>
       <use style="fill:#262626;stroke:#262626;" x="315.117344" xlink:href="#m931a7490c7" y="285"/>
      </g>
     </g>
     <g id="text_6">
      <!-- 0.30 -->
      <defs>
       <path d="M 40.578125 39.3125 
Q 47.65625 37.796875 51.625 33 
Q 55.609375 28.21875 55.609375 21.1875 
Q 55.609375 10.40625 48.1875 4.484375 
Q 40.765625 -1.421875 27.09375 -1.421875 
Q 22.515625 -1.421875 17.65625 -0.515625 
Q 12.796875 0.390625 7.625 2.203125 
L 7.625 11.71875 
Q 11.71875 9.328125 16.59375 8.109375 
Q 21.484375 6.890625 26.8125 6.890625 
Q 36.078125 6.890625 40.9375 10.546875 
Q 45.796875 14.203125 45.796875 21.1875 
Q 45.796875 27.640625 41.28125 31.265625 
Q 36.765625 34.90625 28.71875 34.90625 
L 20.21875 34.90625 
L 20.21875 43.015625 
L 29.109375 43.015625 
Q 36.375 43.015625 40.234375 45.921875 
Q 44.09375 48.828125 44.09375 54.296875 
Q 44.09375 59.90625 40.109375 62.90625 
Q 36.140625 65.921875 28.71875 65.921875 
Q 24.65625 65.921875 20.015625 65.03125 
Q 15.375 64.15625 9.8125 62.3125 
L 9.8125 71.09375 
Q 15.4375 72.65625 20.34375 73.4375 
Q 25.25 74.21875 29.59375 74.21875 
Q 40.828125 74.21875 47.359375 69.109375 
Q 53.90625 64.015625 53.90625 55.328125 
Q 53.90625 49.265625 50.4375 45.09375 
Q 46.96875 40.921875 40.578125 39.3125 
z
" id="DejaVuSans-33"/>
      </defs>
      <g style="fill:#262626;" transform="translate(300.644688 307.877969)scale(0.13 -0.13)">
       <use xlink:href="#DejaVuSans-30"/>
       <use x="63.623047" xlink:href="#DejaVuSans-2e"/>
       <use x="95.410156" xlink:href="#DejaVuSans-33"/>
       <use x="159.033203" xlink:href="#DejaVuSans-30"/>
      </g>
     </g>
    </g>
    <g id="xtick_7">
     <g id="line2d_8">
      <g>
       <use style="fill:#262626;stroke:#262626;" x="363.942344" xlink:href="#m931a7490c7" y="285"/>
      </g>
     </g>
     <g id="text_7">
      <!-- 0.35 -->
      <g style="fill:#262626;" transform="translate(349.469688 307.877969)scale(0.13 -0.13)">
       <use xlink:href="#DejaVuSans-30"/>
       <use x="63.623047" xlink:href="#DejaVuSans-2e"/>
       <use x="95.410156" xlink:href="#DejaVuSans-33"/>
       <use x="159.033203" xlink:href="#DejaVuSans-35"/>
      </g>
     </g>
    </g>
    <g id="xtick_8">
     <g id="line2d_9">
      <g>
       <use style="fill:#262626;stroke:#262626;" x="412.767344" xlink:href="#m931a7490c7" y="285"/>
      </g>
     </g>
     <g id="text_8">
      <!-- 0.40 -->
      <defs>
       <path d="M 37.796875 64.3125 
L 12.890625 25.390625 
L 37.796875 25.390625 
z
M 35.203125 72.90625 
L 47.609375 72.90625 
L 47.609375 25.390625 
L 58.015625 25.390625 
L 58.015625 17.1875 
L 47.609375 17.1875 
L 47.609375 0 
L 37.796875 0 
L 37.796875 17.1875 
L 4.890625 17.1875 
L 4.890625 26.703125 
z
" id="DejaVuSans-34"/>
      </defs>
      <g style="fill:#262626;" transform="translate(398.294688 307.877969)scale(0.13 -0.13)">
       <use xlink:href="#DejaVuSans-30"/>
       <use x="63.623047" xlink:href="#DejaVuSans-2e"/>
       <use x="95.410156" xlink:href="#DejaVuSans-34"/>
       <use x="159.033203" xlink:href="#DejaVuSans-30"/>
      </g>
     </g>
    </g>
    <g id="xtick_9">
     <g id="line2d_10">
      <g>
       <use style="fill:#262626;stroke:#262626;" x="461.592344" xlink:href="#m931a7490c7" y="285"/>
      </g>
     </g>
     <g id="text_9">
      <!-- 0.45 -->
      <g style="fill:#262626;" transform="translate(447.119688 307.877969)scale(0.13 -0.13)">
       <use xlink:href="#DejaVuSans-30"/>
       <use x="63.623047" xlink:href="#DejaVuSans-2e"/>
       <use x="95.410156" xlink:href="#DejaVuSans-34"/>
       <use x="159.033203" xlink:href="#DejaVuSans-35"/>
      </g>
     </g>
    </g>
    <g id="text_10">
     <!-- Document Similarity -->
     <defs>
      <path d="M 19.671875 64.796875 
L 19.671875 8.109375 
L 31.59375 8.109375 
Q 46.6875 8.109375 53.6875 14.9375 
Q 60.6875 21.78125 60.6875 36.53125 
Q 60.6875 51.171875 53.6875 57.984375 
Q 46.6875 64.796875 31.59375 64.796875 
z
M 9.8125 72.90625 
L 30.078125 72.90625 
Q 51.265625 72.90625 61.171875 64.09375 
Q 71.09375 55.28125 71.09375 36.53125 
Q 71.09375 17.671875 61.125 8.828125 
Q 51.171875 0 30.078125 0 
L 9.8125 0 
z
" id="DejaVuSans-44"/>
      <path d="M 30.609375 48.390625 
Q 23.390625 48.390625 19.1875 42.75 
Q 14.984375 37.109375 14.984375 27.296875 
Q 14.984375 17.484375 19.15625 11.84375 
Q 23.34375 6.203125 30.609375 6.203125 
Q 37.796875 6.203125 41.984375 11.859375 
Q 46.1875 17.53125 46.1875 27.296875 
Q 46.1875 37.015625 41.984375 42.703125 
Q 37.796875 48.390625 30.609375 48.390625 
z
M 30.609375 56 
Q 42.328125 56 49.015625 48.375 
Q 55.71875 40.765625 55.71875 27.296875 
Q 55.71875 13.875 49.015625 6.21875 
Q 42.328125 -1.421875 30.609375 -1.421875 
Q 18.84375 -1.421875 12.171875 6.21875 
Q 5.515625 13.875 5.515625 27.296875 
Q 5.515625 40.765625 12.171875 48.375 
Q 18.84375 56 30.609375 56 
z
" id="DejaVuSans-6f"/>
      <path d="M 48.78125 52.59375 
L 48.78125 44.1875 
Q 44.96875 46.296875 41.140625 47.34375 
Q 37.3125 48.390625 33.40625 48.390625 
Q 24.65625 48.390625 19.8125 42.84375 
Q 14.984375 37.3125 14.984375 27.296875 
Q 14.984375 17.28125 19.8125 11.734375 
Q 24.65625 6.203125 33.40625 6.203125 
Q 37.3125 6.203125 41.140625 7.25 
Q 44.96875 8.296875 48.78125 10.40625 
L 48.78125 2.09375 
Q 45.015625 0.34375 40.984375 -0.53125 
Q 36.96875 -1.421875 32.421875 -1.421875 
Q 20.0625 -1.421875 12.78125 6.34375 
Q 5.515625 14.109375 5.515625 27.296875 
Q 5.515625 40.671875 12.859375 48.328125 
Q 20.21875 56 33.015625 56 
Q 37.15625 56 41.109375 55.140625 
Q 45.0625 54.296875 48.78125 52.59375 
z
" id="DejaVuSans-63"/>
      <path d="M 8.5 21.578125 
L 8.5 54.6875 
L 17.484375 54.6875 
L 17.484375 21.921875 
Q 17.484375 14.15625 20.5 10.265625 
Q 23.53125 6.390625 29.59375 6.390625 
Q 36.859375 6.390625 41.078125 11.03125 
Q 45.3125 15.671875 45.3125 23.6875 
L 45.3125 54.6875 
L 54.296875 54.6875 
L 54.296875 0 
L 45.3125 0 
L 45.3125 8.40625 
Q 42.046875 3.421875 37.71875 1 
Q 33.40625 -1.421875 27.6875 -1.421875 
Q 18.265625 -1.421875 13.375 4.4375 
Q 8.5 10.296875 8.5 21.578125 
z
M 31.109375 56 
z
" id="DejaVuSans-75"/>
      <path d="M 52 44.1875 
Q 55.375 50.25 60.0625 53.125 
Q 64.75 56 71.09375 56 
Q 79.640625 56 84.28125 50.015625 
Q 88.921875 44.046875 88.921875 33.015625 
L 88.921875 0 
L 79.890625 0 
L 79.890625 32.71875 
Q 79.890625 40.578125 77.09375 44.375 
Q 74.3125 48.1875 68.609375 48.1875 
Q 61.625 48.1875 57.5625 43.546875 
Q 53.515625 38.921875 53.515625 30.90625 
L 53.515625 0 
L 44.484375 0 
L 44.484375 32.71875 
Q 44.484375 40.625 41.703125 44.40625 
Q 38.921875 48.1875 33.109375 48.1875 
Q 26.21875 48.1875 22.15625 43.53125 
Q 18.109375 38.875 18.109375 30.90625 
L 18.109375 0 
L 9.078125 0 
L 9.078125 54.6875 
L 18.109375 54.6875 
L 18.109375 46.1875 
Q 21.1875 51.21875 25.484375 53.609375 
Q 29.78125 56 35.6875 56 
Q 41.65625 56 45.828125 52.96875 
Q 50 49.953125 52 44.1875 
z
" id="DejaVuSans-6d"/>
      <path d="M 56.203125 29.59375 
L 56.203125 25.203125 
L 14.890625 25.203125 
Q 15.484375 15.921875 20.484375 11.0625 
Q 25.484375 6.203125 34.421875 6.203125 
Q 39.59375 6.203125 44.453125 7.46875 
Q 49.3125 8.734375 54.109375 11.28125 
L 54.109375 2.78125 
Q 49.265625 0.734375 44.1875 -0.34375 
Q 39.109375 -1.421875 33.890625 -1.421875 
Q 20.796875 -1.421875 13.15625 6.1875 
Q 5.515625 13.8125 5.515625 26.8125 
Q 5.515625 40.234375 12.765625 48.109375 
Q 20.015625 56 32.328125 56 
Q 43.359375 56 49.78125 48.890625 
Q 56.203125 41.796875 56.203125 29.59375 
z
M 47.21875 32.234375 
Q 47.125 39.59375 43.09375 43.984375 
Q 39.0625 48.390625 32.421875 48.390625 
Q 24.90625 48.390625 20.390625 44.140625 
Q 15.875 39.890625 15.1875 32.171875 
z
" id="DejaVuSans-65"/>
      <path d="M 54.890625 33.015625 
L 54.890625 0 
L 45.90625 0 
L 45.90625 32.71875 
Q 45.90625 40.484375 42.875 44.328125 
Q 39.84375 48.1875 33.796875 48.1875 
Q 26.515625 48.1875 22.3125 43.546875 
Q 18.109375 38.921875 18.109375 30.90625 
L 18.109375 0 
L 9.078125 0 
L 9.078125 54.6875 
L 18.109375 54.6875 
L 18.109375 46.1875 
Q 21.34375 51.125 25.703125 53.5625 
Q 30.078125 56 35.796875 56 
Q 45.21875 56 50.046875 50.171875 
Q 54.890625 44.34375 54.890625 33.015625 
z
" id="DejaVuSans-6e"/>
      <path d="M 18.3125 70.21875 
L 18.3125 54.6875 
L 36.8125 54.6875 
L 36.8125 47.703125 
L 18.3125 47.703125 
L 18.3125 18.015625 
Q 18.3125 11.328125 20.140625 9.421875 
Q 21.96875 7.515625 27.59375 7.515625 
L 36.8125 7.515625 
L 36.8125 0 
L 27.59375 0 
Q 17.1875 0 13.234375 3.875 
Q 9.28125 7.765625 9.28125 18.015625 
L 9.28125 47.703125 
L 2.6875 47.703125 
L 2.6875 54.6875 
L 9.28125 54.6875 
L 9.28125 70.21875 
z
" id="DejaVuSans-74"/>
      <path id="DejaVuSans-20"/>
      <path d="M 53.515625 70.515625 
L 53.515625 60.890625 
Q 47.90625 63.578125 42.921875 64.890625 
Q 37.9375 66.21875 33.296875 66.21875 
Q 25.25 66.21875 20.875 63.09375 
Q 16.5 59.96875 16.5 54.203125 
Q 16.5 49.359375 19.40625 46.890625 
Q 22.3125 44.4375 30.421875 42.921875 
L 36.375 41.703125 
Q 47.40625 39.59375 52.65625 34.296875 
Q 57.90625 29 57.90625 20.125 
Q 57.90625 9.515625 50.796875 4.046875 
Q 43.703125 -1.421875 29.984375 -1.421875 
Q 24.8125 -1.421875 18.96875 -0.25 
Q 13.140625 0.921875 6.890625 3.21875 
L 6.890625 13.375 
Q 12.890625 10.015625 18.65625 8.296875 
Q 24.421875 6.59375 29.984375 6.59375 
Q 38.421875 6.59375 43.015625 9.90625 
Q 47.609375 13.234375 47.609375 19.390625 
Q 47.609375 24.75 44.3125 27.78125 
Q 41.015625 30.8125 33.5 32.328125 
L 27.484375 33.5 
Q 16.453125 35.6875 11.515625 40.375 
Q 6.59375 45.0625 6.59375 53.421875 
Q 6.59375 63.09375 13.40625 68.65625 
Q 20.21875 74.21875 32.171875 74.21875 
Q 37.3125 74.21875 42.625 73.28125 
Q 47.953125 72.359375 53.515625 70.515625 
z
" id="DejaVuSans-53"/>
      <path d="M 9.421875 54.6875 
L 18.40625 54.6875 
L 18.40625 0 
L 9.421875 0 
z
M 9.421875 75.984375 
L 18.40625 75.984375 
L 18.40625 64.59375 
L 9.421875 64.59375 
z
" id="DejaVuSans-69"/>
      <path d="M 9.421875 75.984375 
L 18.40625 75.984375 
L 18.40625 0 
L 9.421875 0 
z
" id="DejaVuSans-6c"/>
      <path d="M 34.28125 27.484375 
Q 23.390625 27.484375 19.1875 25 
Q 14.984375 22.515625 14.984375 16.5 
Q 14.984375 11.71875 18.140625 8.90625 
Q 21.296875 6.109375 26.703125 6.109375 
Q 34.1875 6.109375 38.703125 11.40625 
Q 43.21875 16.703125 43.21875 25.484375 
L 43.21875 27.484375 
z
M 52.203125 31.203125 
L 52.203125 0 
L 43.21875 0 
L 43.21875 8.296875 
Q 40.140625 3.328125 35.546875 0.953125 
Q 30.953125 -1.421875 24.3125 -1.421875 
Q 15.921875 -1.421875 10.953125 3.296875 
Q 6 8.015625 6 15.921875 
Q 6 25.140625 12.171875 29.828125 
Q 18.359375 34.515625 30.609375 34.515625 
L 43.21875 34.515625 
L 43.21875 35.40625 
Q 43.21875 41.609375 39.140625 45 
Q 35.0625 48.390625 27.6875 48.390625 
Q 23 48.390625 18.546875 47.265625 
Q 14.109375 46.140625 10.015625 43.890625 
L 10.015625 52.203125 
Q 14.9375 54.109375 19.578125 55.046875 
Q 24.21875 56 28.609375 56 
Q 40.484375 56 46.34375 49.84375 
Q 52.203125 43.703125 52.203125 31.203125 
z
" id="DejaVuSans-61"/>
      <path d="M 41.109375 46.296875 
Q 39.59375 47.171875 37.8125 47.578125 
Q 36.03125 48 33.890625 48 
Q 26.265625 48 22.1875 43.046875 
Q 18.109375 38.09375 18.109375 28.8125 
L 18.109375 0 
L 9.078125 0 
L 9.078125 54.6875 
L 18.109375 54.6875 
L 18.109375 46.1875 
Q 20.953125 51.171875 25.484375 53.578125 
Q 30.03125 56 36.53125 56 
Q 37.453125 56 38.578125 55.875 
Q 39.703125 55.765625 41.0625 55.515625 
z
" id="DejaVuSans-72"/>
      <path d="M 32.171875 -5.078125 
Q 28.375 -14.84375 24.75 -17.8125 
Q 21.140625 -20.796875 15.09375 -20.796875 
L 7.90625 -20.796875 
L 7.90625 -13.28125 
L 13.1875 -13.28125 
Q 16.890625 -13.28125 18.9375 -11.515625 
Q 21 -9.765625 23.484375 -3.21875 
L 25.09375 0.875 
L 2.984375 54.6875 
L 12.5 54.6875 
L 29.59375 11.921875 
L 46.6875 54.6875 
L 56.203125 54.6875 
z
" id="DejaVuSans-79"/>
     </defs>
     <g style="fill:#262626;" transform="translate(164.028281 329.778437)scale(0.2 -0.2)">
      <use xlink:href="#DejaVuSans-44"/>
      <use x="77.001953" xlink:href="#DejaVuSans-6f"/>
      <use x="138.183594" xlink:href="#DejaVuSans-63"/>
      <use x="193.164062" xlink:href="#DejaVuSans-75"/>
      <use x="256.542969" xlink:href="#DejaVuSans-6d"/>
      <use x="353.955078" xlink:href="#DejaVuSans-65"/>
      <use x="415.478516" xlink:href="#DejaVuSans-6e"/>
      <use x="478.857422" xlink:href="#DejaVuSans-74"/>
      <use x="518.066406" xlink:href="#DejaVuSans-20"/>
      <use x="549.853516" xlink:href="#DejaVuSans-53"/>
      <use x="613.330078" xlink:href="#DejaVuSans-69"/>
      <use x="641.113281" xlink:href="#DejaVuSans-6d"/>
      <use x="738.525391" xlink:href="#DejaVuSans-69"/>
      <use x="766.308594" xlink:href="#DejaVuSans-6c"/>
      <use x="794.091797" xlink:href="#DejaVuSans-61"/>
      <use x="855.371094" xlink:href="#DejaVuSans-72"/>
      <use x="896.484375" xlink:href="#DejaVuSans-69"/>
      <use x="924.267578" xlink:href="#DejaVuSans-74"/>
      <use x="963.476562" xlink:href="#DejaVuSans-79"/>
     </g>
    </g>
   </g>
   <g id="matplotlib.axis_2">
    <g id="ytick_1">
     <g id="line2d_11">
      <defs>
       <path d="M 0 0 
L -6 0 
" id="m5c1d6001df" style="stroke:#262626;"/>
      </defs>
      <g>
       <use style="fill:#262626;stroke:#262626;" x="70.992344" xlink:href="#m5c1d6001df" y="285"/>
      </g>
     </g>
     <g id="text_11">
      <!-- −20 -->
      <defs>
       <path d="M 10.59375 35.5 
L 73.1875 35.5 
L 73.1875 27.203125 
L 10.59375 27.203125 
z
" id="DejaVuSans-2212"/>
      </defs>
      <g style="fill:#262626;" transform="translate(30.55625 289.938984)scale(0.13 -0.13)">
       <use xlink:href="#DejaVuSans-2212"/>
       <use x="83.789062" xlink:href="#DejaVuSans-32"/>
       <use x="147.412109" xlink:href="#DejaVuSans-30"/>
      </g>
     </g>
    </g>
    <g id="ytick_2">
     <g id="line2d_12">
      <g>
       <use style="fill:#262626;stroke:#262626;" x="70.992344" xlink:href="#m5c1d6001df" y="246.171429"/>
      </g>
     </g>
     <g id="text_12">
      <!-- −10 -->
      <g style="fill:#262626;" transform="translate(30.55625 251.110413)scale(0.13 -0.13)">
       <use xlink:href="#DejaVuSans-2212"/>
       <use x="83.789062" xlink:href="#DejaVuSans-31"/>
       <use x="147.412109" xlink:href="#DejaVuSans-30"/>
      </g>
     </g>
    </g>
    <g id="ytick_3">
     <g id="line2d_13">
      <g>
       <use style="fill:#262626;stroke:#262626;" x="70.992344" xlink:href="#m5c1d6001df" y="207.342857"/>
      </g>
     </g>
     <g id="text_13">
      <!-- 0 -->
      <g style="fill:#262626;" transform="translate(49.721094 212.281842)scale(0.13 -0.13)">
       <use xlink:href="#DejaVuSans-30"/>
      </g>
     </g>
    </g>
    <g id="ytick_4">
     <g id="line2d_14">
      <g>
       <use style="fill:#262626;stroke:#262626;" x="70.992344" xlink:href="#m5c1d6001df" y="168.514286"/>
      </g>
     </g>
     <g id="text_14">
      <!-- 10 -->
      <g style="fill:#262626;" transform="translate(41.449844 173.45327)scale(0.13 -0.13)">
       <use xlink:href="#DejaVuSans-31"/>
       <use x="63.623047" xlink:href="#DejaVuSans-30"/>
      </g>
     </g>
    </g>
    <g id="ytick_5">
     <g id="line2d_15">
      <g>
       <use style="fill:#262626;stroke:#262626;" x="70.992344" xlink:href="#m5c1d6001df" y="129.685714"/>
      </g>
     </g>
     <g id="text_15">
      <!-- 20 -->
      <g style="fill:#262626;" transform="translate(41.449844 134.624699)scale(0.13 -0.13)">
       <use xlink:href="#DejaVuSans-32"/>
       <use x="63.623047" xlink:href="#DejaVuSans-30"/>
      </g>
     </g>
    </g>
    <g id="ytick_6">
     <g id="line2d_16">
      <g>
       <use style="fill:#262626;stroke:#262626;" x="70.992344" xlink:href="#m5c1d6001df" y="90.857143"/>
      </g>
     </g>
     <g id="text_16">
      <!-- 30 -->
      <g style="fill:#262626;" transform="translate(41.449844 95.796127)scale(0.13 -0.13)">
       <use xlink:href="#DejaVuSans-33"/>
       <use x="63.623047" xlink:href="#DejaVuSans-30"/>
      </g>
     </g>
    </g>
    <g id="ytick_7">
     <g id="line2d_17">
      <g>
       <use style="fill:#262626;stroke:#262626;" x="70.992344" xlink:href="#m5c1d6001df" y="52.028571"/>
      </g>
     </g>
     <g id="text_17">
      <!-- 40 -->
      <g style="fill:#262626;" transform="translate(41.449844 56.967556)scale(0.13 -0.13)">
       <use xlink:href="#DejaVuSans-34"/>
       <use x="63.623047" xlink:href="#DejaVuSans-30"/>
      </g>
     </g>
    </g>
    <g id="ytick_8">
     <g id="line2d_18">
      <g>
       <use style="fill:#262626;stroke:#262626;" x="70.992344" xlink:href="#m5c1d6001df" y="13.2"/>
      </g>
     </g>
     <g id="text_18">
      <!-- 50 -->
      <g style="fill:#262626;" transform="translate(41.449844 18.138984)scale(0.13 -0.13)">
       <use xlink:href="#DejaVuSans-35"/>
       <use x="63.623047" xlink:href="#DejaVuSans-30"/>
      </g>
     </g>
    </g>
    <g id="text_19">
     <!-- Growth in # of Articles (%) -->
     <defs>
      <path d="M 59.515625 10.40625 
L 59.515625 29.984375 
L 43.40625 29.984375 
L 43.40625 38.09375 
L 69.28125 38.09375 
L 69.28125 6.78125 
Q 63.578125 2.734375 56.6875 0.65625 
Q 49.8125 -1.421875 42 -1.421875 
Q 24.90625 -1.421875 15.25 8.5625 
Q 5.609375 18.5625 5.609375 36.375 
Q 5.609375 54.25 15.25 64.234375 
Q 24.90625 74.21875 42 74.21875 
Q 49.125 74.21875 55.546875 72.453125 
Q 61.96875 70.703125 67.390625 67.28125 
L 67.390625 56.78125 
Q 61.921875 61.421875 55.765625 63.765625 
Q 49.609375 66.109375 42.828125 66.109375 
Q 29.4375 66.109375 22.71875 58.640625 
Q 16.015625 51.171875 16.015625 36.375 
Q 16.015625 21.625 22.71875 14.15625 
Q 29.4375 6.6875 42.828125 6.6875 
Q 48.046875 6.6875 52.140625 7.59375 
Q 56.25 8.5 59.515625 10.40625 
z
" id="DejaVuSans-47"/>
      <path d="M 4.203125 54.6875 
L 13.1875 54.6875 
L 24.421875 12.015625 
L 35.59375 54.6875 
L 46.1875 54.6875 
L 57.421875 12.015625 
L 68.609375 54.6875 
L 77.59375 54.6875 
L 63.28125 0 
L 52.6875 0 
L 40.921875 44.828125 
L 29.109375 0 
L 18.5 0 
z
" id="DejaVuSans-77"/>
      <path d="M 54.890625 33.015625 
L 54.890625 0 
L 45.90625 0 
L 45.90625 32.71875 
Q 45.90625 40.484375 42.875 44.328125 
Q 39.84375 48.1875 33.796875 48.1875 
Q 26.515625 48.1875 22.3125 43.546875 
Q 18.109375 38.921875 18.109375 30.90625 
L 18.109375 0 
L 9.078125 0 
L 9.078125 75.984375 
L 18.109375 75.984375 
L 18.109375 46.1875 
Q 21.34375 51.125 25.703125 53.5625 
Q 30.078125 56 35.796875 56 
Q 45.21875 56 50.046875 50.171875 
Q 54.890625 44.34375 54.890625 33.015625 
z
" id="DejaVuSans-68"/>
      <path d="M 51.125 44 
L 36.921875 44 
L 32.8125 27.6875 
L 47.125 27.6875 
z
M 43.796875 71.78125 
L 38.71875 51.515625 
L 52.984375 51.515625 
L 58.109375 71.78125 
L 65.921875 71.78125 
L 60.890625 51.515625 
L 76.125 51.515625 
L 76.125 44 
L 58.984375 44 
L 54.984375 27.6875 
L 70.515625 27.6875 
L 70.515625 20.21875 
L 53.078125 20.21875 
L 48 0 
L 40.1875 0 
L 45.21875 20.21875 
L 30.90625 20.21875 
L 25.875 0 
L 18.015625 0 
L 23.09375 20.21875 
L 7.71875 20.21875 
L 7.71875 27.6875 
L 24.90625 27.6875 
L 29 44 
L 13.28125 44 
L 13.28125 51.515625 
L 30.90625 51.515625 
L 35.890625 71.78125 
z
" id="DejaVuSans-23"/>
      <path d="M 37.109375 75.984375 
L 37.109375 68.5 
L 28.515625 68.5 
Q 23.6875 68.5 21.796875 66.546875 
Q 19.921875 64.59375 19.921875 59.515625 
L 19.921875 54.6875 
L 34.71875 54.6875 
L 34.71875 47.703125 
L 19.921875 47.703125 
L 19.921875 0 
L 10.890625 0 
L 10.890625 47.703125 
L 2.296875 47.703125 
L 2.296875 54.6875 
L 10.890625 54.6875 
L 10.890625 58.5 
Q 10.890625 67.625 15.140625 71.796875 
Q 19.390625 75.984375 28.609375 75.984375 
z
" id="DejaVuSans-66"/>
      <path d="M 34.1875 63.1875 
L 20.796875 26.90625 
L 47.609375 26.90625 
z
M 28.609375 72.90625 
L 39.796875 72.90625 
L 67.578125 0 
L 57.328125 0 
L 50.6875 18.703125 
L 17.828125 18.703125 
L 11.1875 0 
L 0.78125 0 
z
" id="DejaVuSans-41"/>
      <path d="M 44.28125 53.078125 
L 44.28125 44.578125 
Q 40.484375 46.53125 36.375 47.5 
Q 32.28125 48.484375 27.875 48.484375 
Q 21.1875 48.484375 17.84375 46.4375 
Q 14.5 44.390625 14.5 40.28125 
Q 14.5 37.15625 16.890625 35.375 
Q 19.28125 33.59375 26.515625 31.984375 
L 29.59375 31.296875 
Q 39.15625 29.25 43.1875 25.515625 
Q 47.21875 21.78125 47.21875 15.09375 
Q 47.21875 7.46875 41.1875 3.015625 
Q 35.15625 -1.421875 24.609375 -1.421875 
Q 20.21875 -1.421875 15.453125 -0.5625 
Q 10.6875 0.296875 5.421875 2 
L 5.421875 11.28125 
Q 10.40625 8.6875 15.234375 7.390625 
Q 20.0625 6.109375 24.8125 6.109375 
Q 31.15625 6.109375 34.5625 8.28125 
Q 37.984375 10.453125 37.984375 14.40625 
Q 37.984375 18.0625 35.515625 20.015625 
Q 33.0625 21.96875 24.703125 23.78125 
L 21.578125 24.515625 
Q 13.234375 26.265625 9.515625 29.90625 
Q 5.8125 33.546875 5.8125 39.890625 
Q 5.8125 47.609375 11.28125 51.796875 
Q 16.75 56 26.8125 56 
Q 31.78125 56 36.171875 55.265625 
Q 40.578125 54.546875 44.28125 53.078125 
z
" id="DejaVuSans-73"/>
      <path d="M 31 75.875 
Q 24.46875 64.65625 21.28125 53.65625 
Q 18.109375 42.671875 18.109375 31.390625 
Q 18.109375 20.125 21.3125 9.0625 
Q 24.515625 -2 31 -13.1875 
L 23.1875 -13.1875 
Q 15.875 -1.703125 12.234375 9.375 
Q 8.59375 20.453125 8.59375 31.390625 
Q 8.59375 42.28125 12.203125 53.3125 
Q 15.828125 64.359375 23.1875 75.875 
z
" id="DejaVuSans-28"/>
      <path d="M 72.703125 32.078125 
Q 68.453125 32.078125 66.03125 28.46875 
Q 63.625 24.859375 63.625 18.40625 
Q 63.625 12.0625 66.03125 8.421875 
Q 68.453125 4.78125 72.703125 4.78125 
Q 76.859375 4.78125 79.265625 8.421875 
Q 81.6875 12.0625 81.6875 18.40625 
Q 81.6875 24.8125 79.265625 28.4375 
Q 76.859375 32.078125 72.703125 32.078125 
z
M 72.703125 38.28125 
Q 80.421875 38.28125 84.953125 32.90625 
Q 89.5 27.546875 89.5 18.40625 
Q 89.5 9.28125 84.9375 3.921875 
Q 80.375 -1.421875 72.703125 -1.421875 
Q 64.890625 -1.421875 60.34375 3.921875 
Q 55.8125 9.28125 55.8125 18.40625 
Q 55.8125 27.59375 60.375 32.9375 
Q 64.9375 38.28125 72.703125 38.28125 
z
M 22.3125 68.015625 
Q 18.109375 68.015625 15.6875 64.375 
Q 13.28125 60.75 13.28125 54.390625 
Q 13.28125 47.953125 15.671875 44.328125 
Q 18.0625 40.71875 22.3125 40.71875 
Q 26.5625 40.71875 28.96875 44.328125 
Q 31.390625 47.953125 31.390625 54.390625 
Q 31.390625 60.6875 28.953125 64.34375 
Q 26.515625 68.015625 22.3125 68.015625 
z
M 66.40625 74.21875 
L 74.21875 74.21875 
L 28.609375 -1.421875 
L 20.796875 -1.421875 
z
M 22.3125 74.21875 
Q 30.03125 74.21875 34.609375 68.875 
Q 39.203125 63.53125 39.203125 54.390625 
Q 39.203125 45.171875 34.640625 39.84375 
Q 30.078125 34.515625 22.3125 34.515625 
Q 14.546875 34.515625 10.03125 39.859375 
Q 5.515625 45.21875 5.515625 54.390625 
Q 5.515625 63.484375 10.046875 68.84375 
Q 14.59375 74.21875 22.3125 74.21875 
z
" id="DejaVuSans-25"/>
      <path d="M 8.015625 75.875 
L 15.828125 75.875 
Q 23.140625 64.359375 26.78125 53.3125 
Q 30.421875 42.28125 30.421875 31.390625 
Q 30.421875 20.453125 26.78125 9.375 
Q 23.140625 -1.703125 15.828125 -13.1875 
L 8.015625 -13.1875 
Q 14.5 -2 17.703125 9.0625 
Q 20.90625 20.125 20.90625 31.390625 
Q 20.90625 42.671875 17.703125 53.65625 
Q 14.5 64.65625 8.015625 75.875 
z
" id="DejaVuSans-29"/>
     </defs>
     <g style="fill:#262626;" transform="translate(22.396875 283.129687)rotate(-90)scale(0.2 -0.2)">
      <use xlink:href="#DejaVuSans-47"/>
      <use x="77.490234" xlink:href="#DejaVuSans-72"/>
      <use x="118.572266" xlink:href="#DejaVuSans-6f"/>
      <use x="179.753906" xlink:href="#DejaVuSans-77"/>
      <use x="261.541016" xlink:href="#DejaVuSans-74"/>
      <use x="300.75" xlink:href="#DejaVuSans-68"/>
      <use x="364.128906" xlink:href="#DejaVuSans-20"/>
      <use x="395.916016" xlink:href="#DejaVuSans-69"/>
      <use x="423.699219" xlink:href="#DejaVuSans-6e"/>
      <use x="487.078125" xlink:href="#DejaVuSans-20"/>
      <use x="518.865234" xlink:href="#DejaVuSans-23"/>
      <use x="602.654297" xlink:href="#DejaVuSans-20"/>
      <use x="634.441406" xlink:href="#DejaVuSans-6f"/>
      <use x="695.623047" xlink:href="#DejaVuSans-66"/>
      <use x="730.828125" xlink:href="#DejaVuSans-20"/>
      <use x="762.615234" xlink:href="#DejaVuSans-41"/>
      <use x="831.023438" xlink:href="#DejaVuSans-72"/>
      <use x="872.136719" xlink:href="#DejaVuSans-74"/>
      <use x="911.345703" xlink:href="#DejaVuSans-69"/>
      <use x="939.128906" xlink:href="#DejaVuSans-63"/>
      <use x="994.109375" xlink:href="#DejaVuSans-6c"/>
      <use x="1021.892578" xlink:href="#DejaVuSans-65"/>
      <use x="1083.416016" xlink:href="#DejaVuSans-73"/>
      <use x="1135.515625" xlink:href="#DejaVuSans-20"/>
      <use x="1167.302734" xlink:href="#DejaVuSans-28"/>
      <use x="1206.316406" xlink:href="#DejaVuSans-25"/>
      <use x="1301.335938" xlink:href="#DejaVuSans-29"/>
     </g>
    </g>
   </g>
   <g id="PolyCollection_2">
    <path clip-path="url(#pb31bfe6e43)" d="M -7.127656 216.747994 
L -7.127656 282.324539 
L -0.617656 335.274276 
L 5.892344 395.284899 
L 12.402344 433.974295 
L 18.912344 433.086424 
L 25.422344 401.519915 
L 31.932344 354.057124 
L 38.442344 302.896619 
L 44.952344 262.355143 
L 51.462344 242.48836 
L 57.972344 241.189928 
L 64.482344 249.455846 
L 70.992344 257.539383 
L 77.502344 258.169899 
L 84.012344 251.335048 
L 90.522344 243.128598 
L 97.032344 235.903367 
L 103.542344 226.313326 
L 110.052344 215.879869 
L 116.562344 211.348739 
L 123.072344 214.051708 
L 129.582344 220.468085 
L 136.092344 224.480608 
L 142.602344 222.301363 
L 149.112344 216.099462 
L 155.622344 211.456882 
L 162.132344 210.972758 
L 168.642344 212.577257 
L 175.152344 212.115818 
L 181.662344 207.10696 
L 188.172344 201.933275 
L 194.682344 201.713136 
L 201.192344 206.424266 
L 207.702344 212.034176 
L 214.212344 213.910633 
L 220.722344 211.200472 
L 227.232344 207.224036 
L 233.742344 206.26182 
L 240.252344 209.240733 
L 246.762344 214.539416 
L 253.272344 218.698795 
L 259.782344 219.207114 
L 266.292344 218.078794 
L 272.802344 216.776064 
L 279.312344 219.724022 
L 285.822344 232.537581 
L 292.332344 246.927974 
L 298.842344 248.998882 
L 305.352344 241.281527 
L 311.862344 239.514598 
L 318.372344 253.961987 
L 324.882344 278.320569 
L 331.392344 289.390508 
L 337.902344 275.399639 
L 344.412344 253.264605 
L 350.922344 241.538612 
L 357.432344 238.852975 
L 363.942344 232.53078 
L 370.452344 223.830921 
L 376.962344 230.005814 
L 383.472344 263.316092 
L 389.982344 300.781836 
L 396.492344 299.677121 
L 403.002344 268.12975 
L 409.512344 251.343732 
L 416.022344 282.856692 
L 422.532344 344.890371 
L 429.042344 368.818812 
L 435.552344 310.305336 
L 442.062344 202.991172 
L 448.572344 125.18456 
L 455.082344 115.810707 
L 461.592344 169.727394 
L 468.102344 236.408347 
L 474.612344 280.901005 
L 481.122344 312.421221 
L 487.632344 343.83736 
L 494.142344 417.095826 
L 500.652344 611.390874 
L 507.162344 835.557869 
L 513.672344 775.301757 
L 520.182344 539.105669 
L 526.692344 414.765193 
L 533.202344 389.325684 
L 539.712344 321.347158 
L 546.222344 511.907235 
L 552.732344 2275.684838 
L 559.242344 7835.036256 
L 565.752344 23412.396981 
L 572.262344 3425.539439 
L 578.772344 -348.623651 
L 585.282344 -549.534397 
L 591.792344 -211.79206 
L 598.302344 -37.585321 
L 604.812344 73.82435 
L 611.322344 143.352835 
L 617.832344 178.267902 
L 624.342344 193.565124 
L 630.852344 199.76727 
L 637.362344 202.276294 
L 637.362344 69.855124 
L 637.362344 69.855124 
L 630.852344 11.293081 
L 624.342344 -75.63301 
L 617.832344 -210.245166 
L 611.322344 -433.29033 
L 604.812344 -839.529432 
L 598.302344 -1715.087256 
L 591.792344 -3798.167904 
L 585.282344 -3739.863037 
L 578.772344 -666.106663 
L 572.262344 -11613.05502 
L 565.752344 -55448.114533 
L 559.242344 -18576.266184 
L 552.732344 -5619.510781 
L 546.222344 -1792.846515 
L 539.712344 -684.745548 
L 533.202344 -167.949204 
L 526.692344 60.224347 
L 520.182344 137.3416 
L 513.672344 48.68984 
L 507.162344 -145.961353 
L 500.652344 -230.26695 
L 494.142344 -215.461057 
L 487.632344 -104.999141 
L 481.122344 45.889522 
L 474.612344 99.101899 
L 468.102344 51.809511 
L 461.592344 -35.521049 
L 455.082344 -89.502693 
L 448.572344 -59.227882 
L 442.062344 35.794404 
L 435.552344 139.856252 
L 429.042344 198.539582 
L 422.532344 192.148399 
L 416.022344 163.040065 
L 409.512344 145.7267 
L 403.002344 150.319669 
L 396.492344 169.513857 
L 389.982344 171.466709 
L 383.472344 144.00106 
L 376.962344 116.572854 
L 370.452344 117.534005 
L 363.942344 141.889591 
L 357.432344 166.566648 
L 350.922344 185.551591 
L 344.412344 207.818289 
L 337.902344 229.536987 
L 331.392344 233.393014 
L 324.882344 218.929846 
L 318.372344 203.106828 
L 311.862344 199.566834 
L 305.352344 209.664357 
L 298.842344 218.256065 
L 292.332344 212.02105 
L 285.822344 198.043573 
L 279.312344 189.347464 
L 272.802344 190.01904 
L 266.292344 195.441386 
L 259.782344 197.153522 
L 253.272344 192.779624 
L 246.762344 187.735828 
L 240.252344 185.337876 
L 233.742344 185.768515 
L 227.232344 188.115547 
L 220.722344 191.4694 
L 214.212344 195.554565 
L 207.702344 198.179134 
L 201.192344 196.297603 
L 194.682344 191.614565 
L 188.172344 190.524333 
L 181.662344 194.769562 
L 175.152344 200.472223 
L 168.642344 202.747181 
L 162.132344 199.518477 
L 155.622344 196.549126 
L 149.112344 198.963384 
L 142.602344 204.269962 
L 136.092344 207.205425 
L 129.582344 205.26003 
L 123.072344 198.404788 
L 116.562344 189.982534 
L 110.052344 187.548842 
L 103.542344 193.266168 
L 97.032344 202.683128 
L 90.522344 209.852785 
L 84.012344 212.968953 
L 77.502344 215.154657 
L 70.992344 215.957895 
L 64.482344 210.09222 
L 57.972344 197.8675 
L 51.462344 188.762353 
L 44.952344 195.222962 
L 38.442344 216.473709 
L 31.932344 238.803861 
L 25.422344 253.697486 
L 18.912344 260.064478 
L 12.402344 257.327161 
L 5.892344 245.173874 
L -0.617656 229.184707 
L -7.127656 216.747994 
z
" style="fill:#4c72b0;fill-opacity:0.2;stroke:#4c72b0;stroke-opacity:0.2;"/>
   </g>
   <g id="patch_3">
    <path d="M 70.992344 285 
L 70.992344 13.2 
" style="fill:none;stroke:#000000;stroke-linecap:square;stroke-linejoin:miter;stroke-width:0.8;"/>
   </g>
   <g id="patch_4">
    <path d="M 70.992344 285 
L 461.592344 285 
" style="fill:none;stroke:#000000;stroke-linecap:square;stroke-linejoin:miter;stroke-width:0.8;"/>
   </g>
   <g id="line2d_19">
    <path clip-path="url(#pb31bfe6e43)" d="M -1 280.309361 
L -0.617656 282.229492 
L 5.892344 320.229386 
L 11.502742 342.137812 
M 20.435484 342.137812 
L 25.422344 327.6087 
L 31.932344 296.430492 
L 38.442344 259.685164 
L 44.952344 228.789052 
L 51.462344 215.625356 
L 57.972344 219.528714 
L 64.482344 229.774033 
L 70.992344 236.748639 
L 77.502344 236.662278 
L 84.012344 232.152 
L 90.522344 226.490692 
L 97.032344 219.293247 
L 103.542344 209.789747 
L 110.052344 201.714355 
L 116.562344 200.665636 
L 123.072344 206.228248 
L 129.582344 212.864057 
L 136.092344 215.843017 
L 142.602344 213.285662 
L 149.112344 207.531423 
L 155.622344 204.003004 
L 162.132344 205.245617 
L 168.642344 207.662219 
L 175.152344 206.29402 
L 181.662344 200.938261 
L 188.172344 196.228804 
L 194.682344 196.663851 
L 201.192344 201.360935 
L 207.702344 205.106655 
L 214.212344 204.732599 
L 220.722344 201.334936 
L 227.232344 197.669791 
L 233.742344 196.015168 
L 240.252344 197.289304 
L 246.762344 201.137622 
L 253.272344 205.739209 
L 259.782344 208.180318 
L 266.292344 206.76009 
L 272.802344 203.397552 
L 279.312344 204.535743 
L 285.822344 215.290577 
L 292.332344 229.474512 
L 298.842344 233.627473 
L 305.352344 225.472942 
L 311.862344 219.540716 
L 318.372344 228.534407 
L 324.882344 248.625207 
L 331.392344 261.391761 
L 337.902344 252.468313 
L 344.412344 230.541447 
L 350.922344 213.545102 
L 357.432344 202.709811 
L 363.942344 187.210185 
L 370.452344 170.682463 
L 376.962344 173.289334 
L 383.472344 203.658576 
L 389.982344 236.124272 
L 396.492344 234.595489 
L 403.002344 209.22471 
L 409.512344 198.535216 
L 416.022344 222.948379 
L 422.532344 268.519385 
L 429.042344 283.679197 
L 435.552344 225.080794 
L 442.062344 119.392788 
L 448.572344 32.978339 
L 455.082344 13.154007 
L 461.592344 67.103172 
L 468.102344 144.108929 
L 474.612344 190.001452 
L 481.122344 179.155371 
L 484.265 150.318115 
" style="fill:none;stroke:#4c72b0;stroke-linecap:square;stroke-width:1.5;"/>
   </g>
  </g>
 </g>
 <defs>
  <clipPath id="pb31bfe6e43">
   <rect height="271.8" width="390.6" x="70.992344" y="13.2"/>
  </clipPath>
 </defs>
</svg>
