<?xml version="1.0" encoding="utf-8" standalone="no"?>
<!DOCTYPE svg PUBLIC "-//W3C//DTD SVG 1.1//EN"
  "http://www.w3.org/Graphics/SVG/1.1/DTD/svg11.dtd">
<!-- Created with matplotlib (http://matplotlib.org/) -->
<svg height="341pt" version="1.1" viewBox="0 0 499 341" width="499pt" xmlns="http://www.w3.org/2000/svg" xmlns:xlink="http://www.w3.org/1999/xlink">
 <defs>
  <style type="text/css">
*{stroke-linecap:butt;stroke-linejoin:round;}
  </style>
 </defs>
 <g id="figure_1">
  <g id="patch_1">
   <path d="M 0 341.137812 
L 499.255 341.137812 
L 499.255 0 
L 0 0 
z
" style="fill:#ffffff;"/>
  </g>
  <g id="axes_1">
   <g id="patch_2">
    <path d="M 84.9125 285 
L 475.5125 285 
L 475.5125 13.2 
L 84.9125 13.2 
z
" style="fill:#ffffff;"/>
   </g>
   <g id="matplotlib.axis_1">
    <g id="xtick_1">
     <g id="line2d_1">
      <defs>
       <path d="M 0 0 
L 0 6 
" id="mcc239f7cf3" style="stroke:#262626;"/>
      </defs>
      <g>
       <use style="fill:#262626;stroke:#262626;" x="156.655357" xlink:href="#mcc239f7cf3" y="285"/>
      </g>
     </g>
     <g id="text_1">
      <!-- 200 -->
      <defs>
       <path d="M 19.1875 8.296875 
L 53.609375 8.296875 
L 53.609375 0 
L 7.328125 0 
L 7.328125 8.296875 
Q 12.9375 14.109375 22.625 23.890625 
Q 32.328125 33.6875 34.8125 36.53125 
Q 39.546875 41.84375 41.421875 45.53125 
Q 43.3125 49.21875 43.3125 52.78125 
Q 43.3125 58.59375 39.234375 62.25 
Q 35.15625 65.921875 28.609375 65.921875 
Q 23.96875 65.921875 18.8125 64.3125 
Q 13.671875 62.703125 7.8125 59.421875 
L 7.8125 69.390625 
Q 13.765625 71.78125 18.9375 73 
Q 24.125 74.21875 28.421875 74.21875 
Q 39.75 74.21875 46.484375 68.546875 
Q 53.21875 62.890625 53.21875 53.421875 
Q 53.21875 48.921875 51.53125 44.890625 
Q 49.859375 40.875 45.40625 35.40625 
Q 44.1875 33.984375 37.640625 27.21875 
Q 31.109375 20.453125 19.1875 8.296875 
z
" id="DejaVuSans-32"/>
       <path d="M 31.78125 66.40625 
Q 24.171875 66.40625 20.328125 58.90625 
Q 16.5 51.421875 16.5 36.375 
Q 16.5 21.390625 20.328125 13.890625 
Q 24.171875 6.390625 31.78125 6.390625 
Q 39.453125 6.390625 43.28125 13.890625 
Q 47.125 21.390625 47.125 36.375 
Q 47.125 51.421875 43.28125 58.90625 
Q 39.453125 66.40625 31.78125 66.40625 
z
M 31.78125 74.21875 
Q 44.046875 74.21875 50.515625 64.515625 
Q 56.984375 54.828125 56.984375 36.375 
Q 56.984375 17.96875 50.515625 8.265625 
Q 44.046875 -1.421875 31.78125 -1.421875 
Q 19.53125 -1.421875 13.0625 8.265625 
Q 6.59375 17.96875 6.59375 36.375 
Q 6.59375 54.828125 13.0625 64.515625 
Q 19.53125 74.21875 31.78125 74.21875 
z
" id="DejaVuSans-30"/>
      </defs>
      <g style="fill:#262626;" transform="translate(144.248482 307.877969)scale(0.13 -0.13)">
       <use xlink:href="#DejaVuSans-32"/>
       <use x="63.623047" xlink:href="#DejaVuSans-30"/>
       <use x="127.246094" xlink:href="#DejaVuSans-30"/>
      </g>
     </g>
    </g>
    <g id="xtick_2">
     <g id="line2d_2">
      <g>
       <use style="fill:#262626;stroke:#262626;" x="236.369643" xlink:href="#mcc239f7cf3" y="285"/>
      </g>
     </g>
     <g id="text_2">
      <!-- 400 -->
      <defs>
       <path d="M 37.796875 64.3125 
L 12.890625 25.390625 
L 37.796875 25.390625 
z
M 35.203125 72.90625 
L 47.609375 72.90625 
L 47.609375 25.390625 
L 58.015625 25.390625 
L 58.015625 17.1875 
L 47.609375 17.1875 
L 47.609375 0 
L 37.796875 0 
L 37.796875 17.1875 
L 4.890625 17.1875 
L 4.890625 26.703125 
z
" id="DejaVuSans-34"/>
      </defs>
      <g style="fill:#262626;" transform="translate(223.962768 307.877969)scale(0.13 -0.13)">
       <use xlink:href="#DejaVuSans-34"/>
       <use x="63.623047" xlink:href="#DejaVuSans-30"/>
       <use x="127.246094" xlink:href="#DejaVuSans-30"/>
      </g>
     </g>
    </g>
    <g id="xtick_3">
     <g id="line2d_3">
      <g>
       <use style="fill:#262626;stroke:#262626;" x="316.083929" xlink:href="#mcc239f7cf3" y="285"/>
      </g>
     </g>
     <g id="text_3">
      <!-- 600 -->
      <defs>
       <path d="M 33.015625 40.375 
Q 26.375 40.375 22.484375 35.828125 
Q 18.609375 31.296875 18.609375 23.390625 
Q 18.609375 15.53125 22.484375 10.953125 
Q 26.375 6.390625 33.015625 6.390625 
Q 39.65625 6.390625 43.53125 10.953125 
Q 47.40625 15.53125 47.40625 23.390625 
Q 47.40625 31.296875 43.53125 35.828125 
Q 39.65625 40.375 33.015625 40.375 
z
M 52.59375 71.296875 
L 52.59375 62.3125 
Q 48.875 64.0625 45.09375 64.984375 
Q 41.3125 65.921875 37.59375 65.921875 
Q 27.828125 65.921875 22.671875 59.328125 
Q 17.53125 52.734375 16.796875 39.40625 
Q 19.671875 43.65625 24.015625 45.921875 
Q 28.375 48.1875 33.59375 48.1875 
Q 44.578125 48.1875 50.953125 41.515625 
Q 57.328125 34.859375 57.328125 23.390625 
Q 57.328125 12.15625 50.6875 5.359375 
Q 44.046875 -1.421875 33.015625 -1.421875 
Q 20.359375 -1.421875 13.671875 8.265625 
Q 6.984375 17.96875 6.984375 36.375 
Q 6.984375 53.65625 15.1875 63.9375 
Q 23.390625 74.21875 37.203125 74.21875 
Q 40.921875 74.21875 44.703125 73.484375 
Q 48.484375 72.75 52.59375 71.296875 
z
" id="DejaVuSans-36"/>
      </defs>
      <g style="fill:#262626;" transform="translate(303.677054 307.877969)scale(0.13 -0.13)">
       <use xlink:href="#DejaVuSans-36"/>
       <use x="63.623047" xlink:href="#DejaVuSans-30"/>
       <use x="127.246094" xlink:href="#DejaVuSans-30"/>
      </g>
     </g>
    </g>
    <g id="xtick_4">
     <g id="line2d_4">
      <g>
       <use style="fill:#262626;stroke:#262626;" x="395.798214" xlink:href="#mcc239f7cf3" y="285"/>
      </g>
     </g>
     <g id="text_4">
      <!-- 800 -->
      <defs>
       <path d="M 31.78125 34.625 
Q 24.75 34.625 20.71875 30.859375 
Q 16.703125 27.09375 16.703125 20.515625 
Q 16.703125 13.921875 20.71875 10.15625 
Q 24.75 6.390625 31.78125 6.390625 
Q 38.8125 6.390625 42.859375 10.171875 
Q 46.921875 13.96875 46.921875 20.515625 
Q 46.921875 27.09375 42.890625 30.859375 
Q 38.875 34.625 31.78125 34.625 
z
M 21.921875 38.8125 
Q 15.578125 40.375 12.03125 44.71875 
Q 8.5 49.078125 8.5 55.328125 
Q 8.5 64.0625 14.71875 69.140625 
Q 20.953125 74.21875 31.78125 74.21875 
Q 42.671875 74.21875 48.875 69.140625 
Q 55.078125 64.0625 55.078125 55.328125 
Q 55.078125 49.078125 51.53125 44.71875 
Q 48 40.375 41.703125 38.8125 
Q 48.828125 37.15625 52.796875 32.3125 
Q 56.78125 27.484375 56.78125 20.515625 
Q 56.78125 9.90625 50.3125 4.234375 
Q 43.84375 -1.421875 31.78125 -1.421875 
Q 19.734375 -1.421875 13.25 4.234375 
Q 6.78125 9.90625 6.78125 20.515625 
Q 6.78125 27.484375 10.78125 32.3125 
Q 14.796875 37.15625 21.921875 38.8125 
z
M 18.3125 54.390625 
Q 18.3125 48.734375 21.84375 45.5625 
Q 25.390625 42.390625 31.78125 42.390625 
Q 38.140625 42.390625 41.71875 45.5625 
Q 45.3125 48.734375 45.3125 54.390625 
Q 45.3125 60.0625 41.71875 63.234375 
Q 38.140625 66.40625 31.78125 66.40625 
Q 25.390625 66.40625 21.84375 63.234375 
Q 18.3125 60.0625 18.3125 54.390625 
z
" id="DejaVuSans-38"/>
      </defs>
      <g style="fill:#262626;" transform="translate(383.391339 307.877969)scale(0.13 -0.13)">
       <use xlink:href="#DejaVuSans-38"/>
       <use x="63.623047" xlink:href="#DejaVuSans-30"/>
       <use x="127.246094" xlink:href="#DejaVuSans-30"/>
      </g>
     </g>
    </g>
    <g id="xtick_5">
     <g id="line2d_5">
      <g>
       <use style="fill:#262626;stroke:#262626;" x="475.5125" xlink:href="#mcc239f7cf3" y="285"/>
      </g>
     </g>
     <g id="text_5">
      <!-- 1000 -->
      <defs>
       <path d="M 12.40625 8.296875 
L 28.515625 8.296875 
L 28.515625 63.921875 
L 10.984375 60.40625 
L 10.984375 69.390625 
L 28.421875 72.90625 
L 38.28125 72.90625 
L 38.28125 8.296875 
L 54.390625 8.296875 
L 54.390625 0 
L 12.40625 0 
z
" id="DejaVuSans-31"/>
      </defs>
      <g style="fill:#262626;" transform="translate(458.97 307.877969)scale(0.13 -0.13)">
       <use xlink:href="#DejaVuSans-31"/>
       <use x="63.623047" xlink:href="#DejaVuSans-30"/>
       <use x="127.246094" xlink:href="#DejaVuSans-30"/>
       <use x="190.869141" xlink:href="#DejaVuSans-30"/>
      </g>
     </g>
    </g>
    <g id="text_6">
     <!-- Word Count -->
     <defs>
      <path d="M 3.328125 72.90625 
L 13.28125 72.90625 
L 28.609375 11.28125 
L 43.890625 72.90625 
L 54.984375 72.90625 
L 70.3125 11.28125 
L 85.59375 72.90625 
L 95.609375 72.90625 
L 77.296875 0 
L 64.890625 0 
L 49.515625 63.28125 
L 33.984375 0 
L 21.578125 0 
z
" id="DejaVuSans-57"/>
      <path d="M 30.609375 48.390625 
Q 23.390625 48.390625 19.1875 42.75 
Q 14.984375 37.109375 14.984375 27.296875 
Q 14.984375 17.484375 19.15625 11.84375 
Q 23.34375 6.203125 30.609375 6.203125 
Q 37.796875 6.203125 41.984375 11.859375 
Q 46.1875 17.53125 46.1875 27.296875 
Q 46.1875 37.015625 41.984375 42.703125 
Q 37.796875 48.390625 30.609375 48.390625 
z
M 30.609375 56 
Q 42.328125 56 49.015625 48.375 
Q 55.71875 40.765625 55.71875 27.296875 
Q 55.71875 13.875 49.015625 6.21875 
Q 42.328125 -1.421875 30.609375 -1.421875 
Q 18.84375 -1.421875 12.171875 6.21875 
Q 5.515625 13.875 5.515625 27.296875 
Q 5.515625 40.765625 12.171875 48.375 
Q 18.84375 56 30.609375 56 
z
" id="DejaVuSans-6f"/>
      <path d="M 41.109375 46.296875 
Q 39.59375 47.171875 37.8125 47.578125 
Q 36.03125 48 33.890625 48 
Q 26.265625 48 22.1875 43.046875 
Q 18.109375 38.09375 18.109375 28.8125 
L 18.109375 0 
L 9.078125 0 
L 9.078125 54.6875 
L 18.109375 54.6875 
L 18.109375 46.1875 
Q 20.953125 51.171875 25.484375 53.578125 
Q 30.03125 56 36.53125 56 
Q 37.453125 56 38.578125 55.875 
Q 39.703125 55.765625 41.0625 55.515625 
z
" id="DejaVuSans-72"/>
      <path d="M 45.40625 46.390625 
L 45.40625 75.984375 
L 54.390625 75.984375 
L 54.390625 0 
L 45.40625 0 
L 45.40625 8.203125 
Q 42.578125 3.328125 38.25 0.953125 
Q 33.9375 -1.421875 27.875 -1.421875 
Q 17.96875 -1.421875 11.734375 6.484375 
Q 5.515625 14.40625 5.515625 27.296875 
Q 5.515625 40.1875 11.734375 48.09375 
Q 17.96875 56 27.875 56 
Q 33.9375 56 38.25 53.625 
Q 42.578125 51.265625 45.40625 46.390625 
z
M 14.796875 27.296875 
Q 14.796875 17.390625 18.875 11.75 
Q 22.953125 6.109375 30.078125 6.109375 
Q 37.203125 6.109375 41.296875 11.75 
Q 45.40625 17.390625 45.40625 27.296875 
Q 45.40625 37.203125 41.296875 42.84375 
Q 37.203125 48.484375 30.078125 48.484375 
Q 22.953125 48.484375 18.875 42.84375 
Q 14.796875 37.203125 14.796875 27.296875 
z
" id="DejaVuSans-64"/>
      <path id="DejaVuSans-20"/>
      <path d="M 64.40625 67.28125 
L 64.40625 56.890625 
Q 59.421875 61.53125 53.78125 63.8125 
Q 48.140625 66.109375 41.796875 66.109375 
Q 29.296875 66.109375 22.65625 58.46875 
Q 16.015625 50.828125 16.015625 36.375 
Q 16.015625 21.96875 22.65625 14.328125 
Q 29.296875 6.6875 41.796875 6.6875 
Q 48.140625 6.6875 53.78125 8.984375 
Q 59.421875 11.28125 64.40625 15.921875 
L 64.40625 5.609375 
Q 59.234375 2.09375 53.4375 0.328125 
Q 47.65625 -1.421875 41.21875 -1.421875 
Q 24.65625 -1.421875 15.125 8.703125 
Q 5.609375 18.84375 5.609375 36.375 
Q 5.609375 53.953125 15.125 64.078125 
Q 24.65625 74.21875 41.21875 74.21875 
Q 47.75 74.21875 53.53125 72.484375 
Q 59.328125 70.75 64.40625 67.28125 
z
" id="DejaVuSans-43"/>
      <path d="M 8.5 21.578125 
L 8.5 54.6875 
L 17.484375 54.6875 
L 17.484375 21.921875 
Q 17.484375 14.15625 20.5 10.265625 
Q 23.53125 6.390625 29.59375 6.390625 
Q 36.859375 6.390625 41.078125 11.03125 
Q 45.3125 15.671875 45.3125 23.6875 
L 45.3125 54.6875 
L 54.296875 54.6875 
L 54.296875 0 
L 45.3125 0 
L 45.3125 8.40625 
Q 42.046875 3.421875 37.71875 1 
Q 33.40625 -1.421875 27.6875 -1.421875 
Q 18.265625 -1.421875 13.375 4.4375 
Q 8.5 10.296875 8.5 21.578125 
z
M 31.109375 56 
z
" id="DejaVuSans-75"/>
      <path d="M 54.890625 33.015625 
L 54.890625 0 
L 45.90625 0 
L 45.90625 32.71875 
Q 45.90625 40.484375 42.875 44.328125 
Q 39.84375 48.1875 33.796875 48.1875 
Q 26.515625 48.1875 22.3125 43.546875 
Q 18.109375 38.921875 18.109375 30.90625 
L 18.109375 0 
L 9.078125 0 
L 9.078125 54.6875 
L 18.109375 54.6875 
L 18.109375 46.1875 
Q 21.34375 51.125 25.703125 53.5625 
Q 30.078125 56 35.796875 56 
Q 45.21875 56 50.046875 50.171875 
Q 54.890625 44.34375 54.890625 33.015625 
z
" id="DejaVuSans-6e"/>
      <path d="M 18.3125 70.21875 
L 18.3125 54.6875 
L 36.8125 54.6875 
L 36.8125 47.703125 
L 18.3125 47.703125 
L 18.3125 18.015625 
Q 18.3125 11.328125 20.140625 9.421875 
Q 21.96875 7.515625 27.59375 7.515625 
L 36.8125 7.515625 
L 36.8125 0 
L 27.59375 0 
Q 17.1875 0 13.234375 3.875 
Q 9.28125 7.765625 9.28125 18.015625 
L 9.28125 47.703125 
L 2.6875 47.703125 
L 2.6875 54.6875 
L 9.28125 54.6875 
L 9.28125 70.21875 
z
" id="DejaVuSans-74"/>
     </defs>
     <g style="fill:#262626;" transform="translate(220.88125 329.778437)scale(0.2 -0.2)">
      <use xlink:href="#DejaVuSans-57"/>
      <use x="98.798828" xlink:href="#DejaVuSans-6f"/>
      <use x="159.980469" xlink:href="#DejaVuSans-72"/>
      <use x="201.078125" xlink:href="#DejaVuSans-64"/>
      <use x="264.554688" xlink:href="#DejaVuSans-20"/>
      <use x="296.341797" xlink:href="#DejaVuSans-43"/>
      <use x="366.166016" xlink:href="#DejaVuSans-6f"/>
      <use x="427.347656" xlink:href="#DejaVuSans-75"/>
      <use x="490.726562" xlink:href="#DejaVuSans-6e"/>
      <use x="554.105469" xlink:href="#DejaVuSans-74"/>
     </g>
    </g>
   </g>
   <g id="matplotlib.axis_2">
    <g id="ytick_1">
     <g id="line2d_6">
      <defs>
       <path d="M 0 0 
L -6 0 
" id="mb5e9b651cd" style="stroke:#262626;"/>
      </defs>
      <g>
       <use style="fill:#262626;stroke:#262626;" x="84.9125" xlink:href="#mb5e9b651cd" y="275.770774"/>
      </g>
     </g>
     <g id="text_7">
      <!-- 0 -->
      <g style="fill:#262626;" transform="translate(63.64125 280.709758)scale(0.13 -0.13)">
       <use xlink:href="#DejaVuSans-30"/>
      </g>
     </g>
    </g>
    <g id="ytick_2">
     <g id="line2d_7">
      <g>
       <use style="fill:#262626;stroke:#262626;" x="84.9125" xlink:href="#mb5e9b651cd" y="234.320913"/>
      </g>
     </g>
     <g id="text_8">
      <!-- 5000 -->
      <defs>
       <path d="M 10.796875 72.90625 
L 49.515625 72.90625 
L 49.515625 64.59375 
L 19.828125 64.59375 
L 19.828125 46.734375 
Q 21.96875 47.46875 24.109375 47.828125 
Q 26.265625 48.1875 28.421875 48.1875 
Q 40.625 48.1875 47.75 41.5 
Q 54.890625 34.8125 54.890625 23.390625 
Q 54.890625 11.625 47.5625 5.09375 
Q 40.234375 -1.421875 26.90625 -1.421875 
Q 22.3125 -1.421875 17.546875 -0.640625 
Q 12.796875 0.140625 7.71875 1.703125 
L 7.71875 11.625 
Q 12.109375 9.234375 16.796875 8.0625 
Q 21.484375 6.890625 26.703125 6.890625 
Q 35.15625 6.890625 40.078125 11.328125 
Q 45.015625 15.765625 45.015625 23.390625 
Q 45.015625 31 40.078125 35.4375 
Q 35.15625 39.890625 26.703125 39.890625 
Q 22.75 39.890625 18.8125 39.015625 
Q 14.890625 38.140625 10.796875 36.28125 
z
" id="DejaVuSans-35"/>
      </defs>
      <g style="fill:#262626;" transform="translate(38.8275 239.259898)scale(0.13 -0.13)">
       <use xlink:href="#DejaVuSans-35"/>
       <use x="63.623047" xlink:href="#DejaVuSans-30"/>
       <use x="127.246094" xlink:href="#DejaVuSans-30"/>
       <use x="190.869141" xlink:href="#DejaVuSans-30"/>
      </g>
     </g>
    </g>
    <g id="ytick_3">
     <g id="line2d_8">
      <g>
       <use style="fill:#262626;stroke:#262626;" x="84.9125" xlink:href="#mb5e9b651cd" y="192.871053"/>
      </g>
     </g>
     <g id="text_9">
      <!-- 10000 -->
      <g style="fill:#262626;" transform="translate(30.55625 197.810037)scale(0.13 -0.13)">
       <use xlink:href="#DejaVuSans-31"/>
       <use x="63.623047" xlink:href="#DejaVuSans-30"/>
       <use x="127.246094" xlink:href="#DejaVuSans-30"/>
       <use x="190.869141" xlink:href="#DejaVuSans-30"/>
       <use x="254.492188" xlink:href="#DejaVuSans-30"/>
      </g>
     </g>
    </g>
    <g id="ytick_4">
     <g id="line2d_9">
      <g>
       <use style="fill:#262626;stroke:#262626;" x="84.9125" xlink:href="#mb5e9b651cd" y="151.421192"/>
      </g>
     </g>
     <g id="text_10">
      <!-- 15000 -->
      <g style="fill:#262626;" transform="translate(30.55625 156.360177)scale(0.13 -0.13)">
       <use xlink:href="#DejaVuSans-31"/>
       <use x="63.623047" xlink:href="#DejaVuSans-35"/>
       <use x="127.246094" xlink:href="#DejaVuSans-30"/>
       <use x="190.869141" xlink:href="#DejaVuSans-30"/>
       <use x="254.492188" xlink:href="#DejaVuSans-30"/>
      </g>
     </g>
    </g>
    <g id="ytick_5">
     <g id="line2d_10">
      <g>
       <use style="fill:#262626;stroke:#262626;" x="84.9125" xlink:href="#mb5e9b651cd" y="109.971332"/>
      </g>
     </g>
     <g id="text_11">
      <!-- 20000 -->
      <g style="fill:#262626;" transform="translate(30.55625 114.910316)scale(0.13 -0.13)">
       <use xlink:href="#DejaVuSans-32"/>
       <use x="63.623047" xlink:href="#DejaVuSans-30"/>
       <use x="127.246094" xlink:href="#DejaVuSans-30"/>
       <use x="190.869141" xlink:href="#DejaVuSans-30"/>
       <use x="254.492188" xlink:href="#DejaVuSans-30"/>
      </g>
     </g>
    </g>
    <g id="ytick_6">
     <g id="line2d_11">
      <g>
       <use style="fill:#262626;stroke:#262626;" x="84.9125" xlink:href="#mb5e9b651cd" y="68.521471"/>
      </g>
     </g>
     <g id="text_12">
      <!-- 25000 -->
      <g style="fill:#262626;" transform="translate(30.55625 73.460455)scale(0.13 -0.13)">
       <use xlink:href="#DejaVuSans-32"/>
       <use x="63.623047" xlink:href="#DejaVuSans-35"/>
       <use x="127.246094" xlink:href="#DejaVuSans-30"/>
       <use x="190.869141" xlink:href="#DejaVuSans-30"/>
       <use x="254.492188" xlink:href="#DejaVuSans-30"/>
      </g>
     </g>
    </g>
    <g id="ytick_7">
     <g id="line2d_12">
      <g>
       <use style="fill:#262626;stroke:#262626;" x="84.9125" xlink:href="#mb5e9b651cd" y="27.07161"/>
      </g>
     </g>
     <g id="text_13">
      <!-- 30000 -->
      <defs>
       <path d="M 40.578125 39.3125 
Q 47.65625 37.796875 51.625 33 
Q 55.609375 28.21875 55.609375 21.1875 
Q 55.609375 10.40625 48.1875 4.484375 
Q 40.765625 -1.421875 27.09375 -1.421875 
Q 22.515625 -1.421875 17.65625 -0.515625 
Q 12.796875 0.390625 7.625 2.203125 
L 7.625 11.71875 
Q 11.71875 9.328125 16.59375 8.109375 
Q 21.484375 6.890625 26.8125 6.890625 
Q 36.078125 6.890625 40.9375 10.546875 
Q 45.796875 14.203125 45.796875 21.1875 
Q 45.796875 27.640625 41.28125 31.265625 
Q 36.765625 34.90625 28.71875 34.90625 
L 20.21875 34.90625 
L 20.21875 43.015625 
L 29.109375 43.015625 
Q 36.375 43.015625 40.234375 45.921875 
Q 44.09375 48.828125 44.09375 54.296875 
Q 44.09375 59.90625 40.109375 62.90625 
Q 36.140625 65.921875 28.71875 65.921875 
Q 24.65625 65.921875 20.015625 65.03125 
Q 15.375 64.15625 9.8125 62.3125 
L 9.8125 71.09375 
Q 15.4375 72.65625 20.34375 73.4375 
Q 25.25 74.21875 29.59375 74.21875 
Q 40.828125 74.21875 47.359375 69.109375 
Q 53.90625 64.015625 53.90625 55.328125 
Q 53.90625 49.265625 50.4375 45.09375 
Q 46.96875 40.921875 40.578125 39.3125 
z
" id="DejaVuSans-33"/>
      </defs>
      <g style="fill:#262626;" transform="translate(30.55625 32.010595)scale(0.13 -0.13)">
       <use xlink:href="#DejaVuSans-33"/>
       <use x="63.623047" xlink:href="#DejaVuSans-30"/>
       <use x="127.246094" xlink:href="#DejaVuSans-30"/>
       <use x="190.869141" xlink:href="#DejaVuSans-30"/>
       <use x="254.492188" xlink:href="#DejaVuSans-30"/>
      </g>
     </g>
    </g>
    <g id="text_14">
     <!-- Number of Articles -->
     <defs>
      <path d="M 9.8125 72.90625 
L 23.09375 72.90625 
L 55.421875 11.921875 
L 55.421875 72.90625 
L 64.984375 72.90625 
L 64.984375 0 
L 51.703125 0 
L 19.390625 60.984375 
L 19.390625 0 
L 9.8125 0 
z
" id="DejaVuSans-4e"/>
      <path d="M 52 44.1875 
Q 55.375 50.25 60.0625 53.125 
Q 64.75 56 71.09375 56 
Q 79.640625 56 84.28125 50.015625 
Q 88.921875 44.046875 88.921875 33.015625 
L 88.921875 0 
L 79.890625 0 
L 79.890625 32.71875 
Q 79.890625 40.578125 77.09375 44.375 
Q 74.3125 48.1875 68.609375 48.1875 
Q 61.625 48.1875 57.5625 43.546875 
Q 53.515625 38.921875 53.515625 30.90625 
L 53.515625 0 
L 44.484375 0 
L 44.484375 32.71875 
Q 44.484375 40.625 41.703125 44.40625 
Q 38.921875 48.1875 33.109375 48.1875 
Q 26.21875 48.1875 22.15625 43.53125 
Q 18.109375 38.875 18.109375 30.90625 
L 18.109375 0 
L 9.078125 0 
L 9.078125 54.6875 
L 18.109375 54.6875 
L 18.109375 46.1875 
Q 21.1875 51.21875 25.484375 53.609375 
Q 29.78125 56 35.6875 56 
Q 41.65625 56 45.828125 52.96875 
Q 50 49.953125 52 44.1875 
z
" id="DejaVuSans-6d"/>
      <path d="M 48.6875 27.296875 
Q 48.6875 37.203125 44.609375 42.84375 
Q 40.53125 48.484375 33.40625 48.484375 
Q 26.265625 48.484375 22.1875 42.84375 
Q 18.109375 37.203125 18.109375 27.296875 
Q 18.109375 17.390625 22.1875 11.75 
Q 26.265625 6.109375 33.40625 6.109375 
Q 40.53125 6.109375 44.609375 11.75 
Q 48.6875 17.390625 48.6875 27.296875 
z
M 18.109375 46.390625 
Q 20.953125 51.265625 25.265625 53.625 
Q 29.59375 56 35.59375 56 
Q 45.5625 56 51.78125 48.09375 
Q 58.015625 40.1875 58.015625 27.296875 
Q 58.015625 14.40625 51.78125 6.484375 
Q 45.5625 -1.421875 35.59375 -1.421875 
Q 29.59375 -1.421875 25.265625 0.953125 
Q 20.953125 3.328125 18.109375 8.203125 
L 18.109375 0 
L 9.078125 0 
L 9.078125 75.984375 
L 18.109375 75.984375 
z
" id="DejaVuSans-62"/>
      <path d="M 56.203125 29.59375 
L 56.203125 25.203125 
L 14.890625 25.203125 
Q 15.484375 15.921875 20.484375 11.0625 
Q 25.484375 6.203125 34.421875 6.203125 
Q 39.59375 6.203125 44.453125 7.46875 
Q 49.3125 8.734375 54.109375 11.28125 
L 54.109375 2.78125 
Q 49.265625 0.734375 44.1875 -0.34375 
Q 39.109375 -1.421875 33.890625 -1.421875 
Q 20.796875 -1.421875 13.15625 6.1875 
Q 5.515625 13.8125 5.515625 26.8125 
Q 5.515625 40.234375 12.765625 48.109375 
Q 20.015625 56 32.328125 56 
Q 43.359375 56 49.78125 48.890625 
Q 56.203125 41.796875 56.203125 29.59375 
z
M 47.21875 32.234375 
Q 47.125 39.59375 43.09375 43.984375 
Q 39.0625 48.390625 32.421875 48.390625 
Q 24.90625 48.390625 20.390625 44.140625 
Q 15.875 39.890625 15.1875 32.171875 
z
" id="DejaVuSans-65"/>
      <path d="M 37.109375 75.984375 
L 37.109375 68.5 
L 28.515625 68.5 
Q 23.6875 68.5 21.796875 66.546875 
Q 19.921875 64.59375 19.921875 59.515625 
L 19.921875 54.6875 
L 34.71875 54.6875 
L 34.71875 47.703125 
L 19.921875 47.703125 
L 19.921875 0 
L 10.890625 0 
L 10.890625 47.703125 
L 2.296875 47.703125 
L 2.296875 54.6875 
L 10.890625 54.6875 
L 10.890625 58.5 
Q 10.890625 67.625 15.140625 71.796875 
Q 19.390625 75.984375 28.609375 75.984375 
z
" id="DejaVuSans-66"/>
      <path d="M 34.1875 63.1875 
L 20.796875 26.90625 
L 47.609375 26.90625 
z
M 28.609375 72.90625 
L 39.796875 72.90625 
L 67.578125 0 
L 57.328125 0 
L 50.6875 18.703125 
L 17.828125 18.703125 
L 11.1875 0 
L 0.78125 0 
z
" id="DejaVuSans-41"/>
      <path d="M 9.421875 54.6875 
L 18.40625 54.6875 
L 18.40625 0 
L 9.421875 0 
z
M 9.421875 75.984375 
L 18.40625 75.984375 
L 18.40625 64.59375 
L 9.421875 64.59375 
z
" id="DejaVuSans-69"/>
      <path d="M 48.78125 52.59375 
L 48.78125 44.1875 
Q 44.96875 46.296875 41.140625 47.34375 
Q 37.3125 48.390625 33.40625 48.390625 
Q 24.65625 48.390625 19.8125 42.84375 
Q 14.984375 37.3125 14.984375 27.296875 
Q 14.984375 17.28125 19.8125 11.734375 
Q 24.65625 6.203125 33.40625 6.203125 
Q 37.3125 6.203125 41.140625 7.25 
Q 44.96875 8.296875 48.78125 10.40625 
L 48.78125 2.09375 
Q 45.015625 0.34375 40.984375 -0.53125 
Q 36.96875 -1.421875 32.421875 -1.421875 
Q 20.0625 -1.421875 12.78125 6.34375 
Q 5.515625 14.109375 5.515625 27.296875 
Q 5.515625 40.671875 12.859375 48.328125 
Q 20.21875 56 33.015625 56 
Q 37.15625 56 41.109375 55.140625 
Q 45.0625 54.296875 48.78125 52.59375 
z
" id="DejaVuSans-63"/>
      <path d="M 9.421875 75.984375 
L 18.40625 75.984375 
L 18.40625 0 
L 9.421875 0 
z
" id="DejaVuSans-6c"/>
      <path d="M 44.28125 53.078125 
L 44.28125 44.578125 
Q 40.484375 46.53125 36.375 47.5 
Q 32.28125 48.484375 27.875 48.484375 
Q 21.1875 48.484375 17.84375 46.4375 
Q 14.5 44.390625 14.5 40.28125 
Q 14.5 37.15625 16.890625 35.375 
Q 19.28125 33.59375 26.515625 31.984375 
L 29.59375 31.296875 
Q 39.15625 29.25 43.1875 25.515625 
Q 47.21875 21.78125 47.21875 15.09375 
Q 47.21875 7.46875 41.1875 3.015625 
Q 35.15625 -1.421875 24.609375 -1.421875 
Q 20.21875 -1.421875 15.453125 -0.5625 
Q 10.6875 0.296875 5.421875 2 
L 5.421875 11.28125 
Q 10.40625 8.6875 15.234375 7.390625 
Q 20.0625 6.109375 24.8125 6.109375 
Q 31.15625 6.109375 34.5625 8.28125 
Q 37.984375 10.453125 37.984375 14.40625 
Q 37.984375 18.0625 35.515625 20.015625 
Q 33.0625 21.96875 24.703125 23.78125 
L 21.578125 24.515625 
Q 13.234375 26.265625 9.515625 29.90625 
Q 5.8125 33.546875 5.8125 39.890625 
Q 5.8125 47.609375 11.28125 51.796875 
Q 16.75 56 26.8125 56 
Q 31.78125 56 36.171875 55.265625 
Q 40.578125 54.546875 44.28125 53.078125 
z
" id="DejaVuSans-73"/>
     </defs>
     <g style="fill:#262626;" transform="translate(22.396875 242.55625)rotate(-90)scale(0.2 -0.2)">
      <use xlink:href="#DejaVuSans-4e"/>
      <use x="74.804688" xlink:href="#DejaVuSans-75"/>
      <use x="138.183594" xlink:href="#DejaVuSans-6d"/>
      <use x="235.595703" xlink:href="#DejaVuSans-62"/>
      <use x="299.072266" xlink:href="#DejaVuSans-65"/>
      <use x="360.595703" xlink:href="#DejaVuSans-72"/>
      <use x="401.708984" xlink:href="#DejaVuSans-20"/>
      <use x="433.496094" xlink:href="#DejaVuSans-6f"/>
      <use x="494.677734" xlink:href="#DejaVuSans-66"/>
      <use x="529.882812" xlink:href="#DejaVuSans-20"/>
      <use x="561.669922" xlink:href="#DejaVuSans-41"/>
      <use x="630.078125" xlink:href="#DejaVuSans-72"/>
      <use x="671.191406" xlink:href="#DejaVuSans-74"/>
      <use x="710.400391" xlink:href="#DejaVuSans-69"/>
      <use x="738.183594" xlink:href="#DejaVuSans-63"/>
      <use x="793.164062" xlink:href="#DejaVuSans-6c"/>
      <use x="820.947266" xlink:href="#DejaVuSans-65"/>
      <use x="882.470703" xlink:href="#DejaVuSans-73"/>
     </g>
    </g>
   </g>
   <g id="line2d_13">
    <path clip-path="url(#p90fa49a4cd)" d="M 84.9125 25.554545 
L 85.311071 100.471024 
L 85.709643 51.518738 
L 86.108214 105.453297 
L 86.506786 62.552691 
L 86.905357 109.067725 
L 87.303929 62.635591 
L 87.7025 106.489543 
L 88.101071 69.126639 
L 88.499643 96.384067 
L 88.898214 83.111822 
L 89.296786 92.72819 
L 89.695357 91.609043 
L 90.093929 103.413964 
L 90.4925 83.69212 
L 90.891071 108.164118 
L 91.289643 108.056348 
L 91.688214 102.062698 
L 92.086786 111.256277 
L 92.485357 110.700849 
L 92.883929 98.274181 
L 93.2825 103.471993 
L 93.681071 111.737096 
L 94.079643 104.292701 
L 94.478214 103.248164 
L 94.876786 94.601723 
L 95.275357 105.900955 
L 95.673929 96.384067 
L 96.869643 109.714342 
L 97.268214 111.165088 
L 97.666786 109.830402 
L 98.065357 105.743446 
L 98.463929 106.937202 
L 98.8625 108.512296 
L 99.261071 111.156798 
L 99.659643 114.754645 
L 100.058214 107.54237 
L 100.456786 116.943198 
L 101.253929 89.055732 
L 101.6525 109.158914 
L 102.051071 110.758879 
L 102.449643 117.100708 
L 102.848214 115.102824 
L 103.246786 109.648023 
L 103.645357 119.969038 
L 104.043929 121.958631 
L 104.4425 125.117111 
L 104.841071 115.766022 
L 105.239643 113.212711 
L 105.638214 108.089508 
L 106.036786 117.175317 
L 106.435357 110.269771 
L 106.833929 101.341471 
L 107.2325 113.47799 
L 107.631071 120.648816 
L 108.029643 79.787543 
L 108.428214 122.182461 
L 108.826786 122.936848 
L 109.225357 108.512296 
L 109.623929 122.44774 
L 110.0225 123.450826 
L 110.421071 134.401879 
L 110.819643 46.710554 
L 111.218214 122.671569 
L 111.616786 110.866649 
L 112.015357 104.309281 
L 112.413929 118.559743 
L 112.8125 123.840455 
L 113.211071 123.857035 
L 113.609643 122.24049 
L 114.008214 131.608159 
L 114.406786 123.616626 
L 114.805357 122.398 
L 115.203929 101.266861 
L 115.6025 119.620859 
L 116.001071 112.756762 
L 116.399643 123.749265 
L 116.798214 109.399324 
L 117.196786 120.930675 
L 117.595357 125.42384 
L 117.993929 135.396676 
L 118.3925 129.494216 
L 118.791071 133.075484 
L 119.189643 123.699525 
L 119.986786 133.357343 
L 120.385357 130.132544 
L 120.783929 139.574822 
L 121.1825 138.306456 
L 121.581071 130.555332 
L 121.979643 125.979268 
L 122.378214 136.565562 
L 122.776786 129.618566 
L 123.175357 129.187487 
L 123.573929 139.475342 
L 123.9725 134.617419 
L 124.371071 144.698025 
L 124.769643 139.632852 
L 125.168214 144.979884 
L 125.566786 142.849361 
L 125.965357 147.259626 
L 126.7625 150.774574 
L 127.161071 151.081303 
L 127.559643 146.14877 
L 127.958214 150.235726 
L 128.356786 155.541308 
L 128.755357 151.197363 
L 129.153929 157.696701 
L 129.5525 152.813908 
L 129.951071 158.915327 
L 130.349643 154.571382 
L 130.748214 160.092503 
L 131.146786 156.942314 
L 131.545357 163.532841 
L 131.943929 161.377449 
L 132.3425 161.584698 
L 132.741071 160.838601 
L 133.139643 167.155559 
L 133.538214 162.397115 
L 133.936786 162.272766 
L 134.335357 163.151503 
L 134.733929 165.398085 
L 135.1325 158.724658 
L 135.531071 163.400202 
L 135.929643 164.345259 
L 136.328214 164.129719 
L 136.726786 158.475958 
L 137.125357 165.456115 
L 137.9225 163.085183 
L 138.321071 164.229199 
L 138.719643 169.070543 
L 139.118214 161.783657 
L 139.516786 166.268532 
L 139.915357 141.017277 
L 140.313929 169.178312 
L 140.7125 154.91127 
L 141.111071 166.459202 
L 141.509643 158.434509 
L 141.908214 170.745117 
L 142.306786 163.250982 
L 143.103929 165.621914 
L 143.5025 171.151326 
L 143.901071 168.415635 
L 144.299643 160.639641 
L 144.698214 174.483895 
L 145.096786 171.159616 
L 145.495357 177.625794 
L 145.893929 174.135716 
L 146.2925 178.471371 
L 146.691071 176.937726 
L 147.089643 178.081743 
L 147.488214 177.352225 
L 147.886786 178.529401 
L 148.285357 177.476575 
L 148.683929 175.611331 
L 149.0825 175.486981 
L 149.481071 180.320035 
L 149.879643 177.294195 
L 150.278214 176.150179 
L 150.676786 179.043379 
L 151.075357 183.329295 
L 151.473929 179.806057 
L 151.8725 182.152119 
L 152.271071 180.187395 
L 152.669643 179.888956 
L 153.068214 180.618474 
L 153.466786 184.85465 
L 153.865357 182.682677 
L 154.263929 182.599777 
L 154.6625 180.593604 
L 155.061071 182.409108 
L 155.459643 183.569704 
L 155.858214 180.635054 
L 156.256786 179.151149 
L 156.655357 179.731447 
L 157.053929 178.007133 
L 157.4525 181.6713 
L 158.249643 178.70349 
L 158.648214 179.731447 
L 159.046786 179.316948 
L 159.445357 178.545981 
L 159.843929 180.394645 
L 160.2425 179.441298 
L 160.641071 180.867173 
L 161.039643 179.101409 
L 161.438214 173.804117 
L 161.836786 180.775983 
L 162.235357 177.501444 
L 162.633929 184.506471 
L 163.0325 181.124162 
L 163.431071 186.504354 
L 163.829643 179.888956 
L 164.228214 189.372685 
L 164.626786 183.776953 
L 165.025357 192.498004 
L 165.423929 186.885693 
L 165.8225 193.70834 
L 166.221071 191.486627 
L 166.619643 195.706223 
L 167.018214 192.929083 
L 167.416786 196.6347 
L 167.815357 193.443061 
L 168.213929 195.872023 
L 169.011071 198.939312 
L 169.409643 195.888603 
L 169.808214 197.712397 
L 170.206786 197.637787 
L 170.605357 194.984996 
L 171.003929 197.695817 
L 171.4025 201.567234 
L 171.801071 198.649163 
L 172.199643 199.411841 
L 172.996786 203.415897 
L 173.395357 203.838686 
L 173.793929 206.267648 
L 174.591071 206.391997 
L 174.989643 209.890366 
L 175.388214 208.870699 
L 176.185357 210.321444 
L 176.583929 210.147355 
L 176.9825 210.860292 
L 177.381071 209.235458 
L 177.779643 212.402227 
L 178.178214 211.324531 
L 178.576786 214.308921 
L 178.975357 214.300631 
L 179.373929 214.905799 
L 179.7725 215.013568 
L 180.171071 216.547213 
L 180.569643 214.963829 
L 180.968214 214.880929 
L 181.366786 216.920262 
L 181.765357 216.447734 
L 182.163929 210.081035 
L 182.5625 218.138888 
L 182.961071 217.226991 
L 183.359643 218.263237 
L 183.758214 219.995842 
L 184.156786 220.708779 
L 184.555357 220.758519 
L 184.953929 221.197888 
L 185.3525 218.429037 
L 185.751071 222.267294 
L 186.149643 223.47763 
L 186.548214 221.662126 
L 186.946786 223.35328 
L 187.345357 224.008188 
L 188.1425 224.016478 
L 188.541071 224.920085 
L 188.939643 224.323207 
L 189.736786 226.40399 
L 190.135357 225.409193 
L 190.533929 224.721126 
L 190.9325 226.45373 
L 191.331071 226.44544 
L 191.729643 227.456817 
L 192.128214 227.125218 
L 192.526786 227.257857 
L 192.925357 222.615473 
L 193.323929 228.103434 
L 193.7225 226.611239 
L 194.121071 226.48689 
L 194.519643 227.514846 
L 194.918214 227.440237 
L 195.316786 226.105551 
L 195.715357 228.086854 
L 196.113929 227.216407 
L 196.5125 228.534513 
L 196.911071 228.609123 
L 197.309643 229.993548 
L 197.708214 227.871315 
L 198.106786 230.648456 
L 198.505357 229.172841 
L 198.903929 230.515816 
L 199.3025 229.24745 
L 199.701071 231.552063 
L 200.099643 231.668122 
L 200.498214 233.500206 
L 200.896786 231.833922 
L 201.295357 234.553033 
L 201.693929 233.997605 
L 202.0925 233.102288 
L 202.491071 234.901211 
L 202.889643 235.2411 
L 203.288214 235.34887 
L 203.686786 235.746789 
L 204.085357 232.903328 
L 204.483929 236.343667 
L 204.8825 235.017271 
L 205.281071 236.517756 
L 205.679643 236.393406 
L 206.078214 236.617236 
L 206.476786 235.39032 
L 206.875357 237.247274 
L 207.273929 237.910471 
L 207.6725 236.783035 
L 208.071071 237.587162 
L 208.469643 236.824485 
L 208.868214 237.297013 
L 209.266786 238.31668 
L 209.665357 238.615119 
L 210.063929 238.20062 
L 210.4625 238.557089 
L 210.861071 239.817165 
L 211.259643 239.991254 
L 211.658214 238.780918 
L 212.056786 239.079357 
L 212.455357 241.26791 
L 212.853929 240.065864 
L 213.2525 241.43371 
L 213.651071 240.753932 
L 214.049643 242.469956 
L 214.448214 241.28449 
L 214.846786 241.42542 
L 215.245357 241.29278 
L 215.643929 242.320737 
L 216.0425 241.35081 
L 216.441071 242.586016 
L 216.839643 243.257503 
L 217.238214 243.298953 
L 217.636786 242.735235 
L 218.035357 243.531072 
L 218.433929 242.262707 
L 219.231071 243.473043 
L 219.629643 243.381853 
L 220.028214 244.32691 
L 220.426786 243.274083 
L 220.825357 242.975644 
L 221.223929 243.149734 
L 221.6225 244.791148 
L 222.021071 243.995311 
L 222.419643 243.763192 
L 222.818214 244.666799 
L 223.216786 244.857468 
L 223.615357 245.396316 
L 224.013929 245.744495 
L 224.4125 244.791148 
L 224.811071 244.774568 
L 225.209643 245.048137 
L 225.608214 245.960034 
L 226.006786 245.155907 
L 226.405357 242.270997 
L 226.803929 244.666799 
L 227.2025 245.885425 
L 227.601071 243.564232 
L 227.999643 243.987021 
L 228.398214 246.399403 
L 228.796786 246.399403 
L 229.195357 245.180777 
L 229.9925 247.808698 
L 230.391071 247.734088 
L 230.789643 248.397286 
L 231.188214 247.899888 
L 231.586786 248.231487 
L 231.985357 247.029441 
L 232.383929 247.883308 
L 232.7825 247.22011 
L 233.181071 248.969294 
L 233.579643 249.491562 
L 233.978214 249.416953 
L 234.376786 249.781711 
L 234.775357 249.184833 
L 235.173929 249.416953 
L 235.5725 248.314386 
L 235.971071 249.582752 
L 236.369643 248.032527 
L 236.768214 249.010744 
L 237.166786 248.364126 
L 237.565357 246.656392 
L 237.963929 249.740262 
L 238.761071 248.455316 
L 239.159643 250.486359 
L 239.558214 249.599332 
L 239.956786 249.881191 
L 240.355357 250.444909 
L 240.753929 250.519519 
L 241.1525 249.574462 
L 241.551071 239.029618 
L 241.949643 237.719802 
L 242.348214 245.006687 
L 242.746786 243.730032 
L 243.145357 245.031557 
L 243.543929 248.637695 
L 243.9425 247.004571 
L 244.341071 247.11234 
L 244.739643 249.980671 
L 245.138214 249.474982 
L 245.536786 250.436619 
L 245.935357 217.956508 
L 246.333929 219.374094 
L 246.7325 232.115781 
L 247.131071 228.385293 
L 247.529643 240.488653 
L 247.928214 245.528956 
L 248.326786 236.036938 
L 248.725357 229.703399 
L 249.123929 238.747759 
L 249.5225 244.003601 
L 250.718214 251.257326 
L 251.116786 253.08112 
L 251.515357 253.661418 
L 251.913929 252.434503 
L 252.3125 253.487329 
L 252.711071 253.852088 
L 253.109643 251.423126 
L 253.508214 253.910118 
L 253.906786 252.583722 
L 254.305357 254.341196 
L 254.703929 253.603389 
L 255.1025 253.354689 
L 255.501071 251.580635 
L 255.899643 253.23034 
L 256.298214 253.586809 
L 256.696786 254.565025 
L 257.095357 254.125657 
L 257.493929 254.332906 
L 258.689643 255.493502 
L 259.088214 254.788855 
L 259.486786 254.755695 
L 259.885357 254.457256 
L 260.283929 256.795028 
L 260.6825 256.04064 
L 261.081071 255.733911 
L 261.479643 256.504879 
L 261.878214 256.413689 
L 262.276786 256.03235 
L 262.675357 255.908001 
L 263.4725 256.314209 
L 263.871071 256.753578 
L 264.269643 256.305919 
L 265.465357 257.284136 
L 265.863929 256.811608 
L 266.2625 257.383616 
L 266.661071 257.317296 
L 267.059643 257.872724 
L 267.458214 257.549415 
L 267.856786 258.229193 
L 268.255357 257.342166 
L 268.653929 257.657185 
L 269.0525 256.546329 
L 269.451071 258.345253 
L 269.849643 258.071684 
L 270.248214 258.527632 
L 270.646786 257.657185 
L 271.045357 258.726591 
L 271.443929 258.071684 
L 271.8425 258.560792 
L 272.241071 257.781535 
L 272.639643 256.654098 
L 273.038214 257.557705 
L 273.436786 257.507965 
L 273.835357 257.192947 
L 274.233929 257.582575 
L 274.6325 258.967001 
L 275.031071 257.507965 
L 275.429643 258.610532 
L 275.828214 258.651982 
L 276.226786 259.480979 
L 276.625357 259.17425 
L 277.023929 259.406369 
L 277.4225 257.582575 
L 277.821071 258.055104 
L 278.219643 259.597038 
L 278.618214 258.99187 
L 279.016786 258.726591 
L 279.415357 259.638488 
L 279.813929 256.529749 
L 280.2125 258.320383 
L 280.611071 258.826071 
L 281.009643 257.764955 
L 281.408214 258.718301 
L 281.806786 259.09964 
L 282.205357 257.532835 
L 282.603929 257.242686 
L 283.0025 258.403282 
L 283.401071 258.942131 
L 284.198214 259.323469 
L 284.596786 260.160757 
L 284.995357 259.03332 
L 285.393929 259.845738 
L 285.7925 260.202206 
L 286.191071 259.480979 
L 286.589643 259.928637 
L 286.988214 261.462282 
L 287.386786 260.202206 
L 287.785357 259.903767 
L 288.183929 260.666445 
L 288.5825 260.550385 
L 288.981071 260.127597 
L 289.379643 260.956594 
L 289.778214 261.495442 
L 290.176786 260.550385 
L 290.575357 259.24886 
L 290.973929 260.376296 
L 291.3725 258.602242 
L 291.771071 260.575255 
L 292.169643 261.337933 
L 292.568214 261.785591 
L 292.966786 261.744141 
L 293.365357 261.98455 
L 293.763929 261.727561 
L 294.1625 262.316149 
L 294.561071 262.13377 
L 294.959643 262.24154 
L 295.358214 262.17522 
L 295.756786 261.885071 
L 296.155357 262.20838 
L 296.553929 261.710981 
L 296.9525 261.785591 
L 297.351071 262.316149 
L 297.749643 261.644662 
L 298.148214 261.835331 
L 298.546786 262.21667 
L 298.945357 261.147263 
L 299.7425 261.851911 
L 300.141071 261.901651 
L 300.539643 261.404252 
L 300.938214 261.818751 
L 301.336786 261.793881 
L 301.735357 261.97626 
L 302.133929 262.506819 
L 302.5325 262.258119 
L 302.931071 261.661241 
L 303.329643 262.506819 
L 303.728214 261.006334 
L 304.126786 262.05087 
L 304.525357 261.661241 
L 304.923929 262.573138 
L 305.3225 262.415629 
L 305.721071 262.722358 
L 306.119643 262.796968 
L 306.518214 263.103697 
L 306.916786 263.650835 
L 307.315357 262.962767 
L 307.713929 262.863287 
L 308.1125 263.310946 
L 308.511071 262.863287 
L 308.909643 262.04258 
L 309.308214 263.518195 
L 309.706786 262.755518 
L 310.105357 263.228046 
L 310.503929 262.656038 
L 310.9025 263.145146 
L 311.301071 263.377266 
L 311.699643 263.882954 
L 312.098214 263.841504 
L 312.496786 263.509905 
L 312.895357 263.518195 
L 313.293929 263.136857 
L 313.6925 263.899534 
L 314.091071 263.327526 
L 314.489643 263.186596 
L 315.286786 264.305743 
L 315.685357 263.932694 
L 316.083929 263.940984 
L 316.881071 263.567935 
L 317.279643 264.264293 
L 318.076786 264.015594 
L 318.475357 263.708865 
L 319.2725 264.695371 
L 319.671071 264.521282 
L 320.069643 264.645631 
L 320.468214 265.06013 
L 321.265357 264.645631 
L 321.663929 264.090203 
L 322.0625 264.703661 
L 322.461071 264.97723 
L 322.859643 264.637341 
L 323.258214 264.844591 
L 323.656786 265.283959 
L 324.055357 264.728531 
L 324.453929 264.886041 
L 324.8525 265.864257 
L 325.251071 265.524368 
L 325.649643 265.474629 
L 326.048214 265.259089 
L 326.446786 265.17619 
L 326.845357 265.607268 
L 327.243929 265.341989 
L 327.6425 265.623848 
L 328.041071 265.317119 
L 328.439643 265.864257 
L 328.838214 266.170986 
L 329.236786 265.366859 
L 329.635357 266.154406 
L 330.033929 266.030057 
L 330.4325 265.424889 
L 330.831071 266.054927 
L 331.628214 265.938867 
L 332.026786 266.635225 
L 332.823929 265.972027 
L 333.2225 266.295336 
L 333.621071 265.864257 
L 334.019643 265.723328 
L 334.418214 265.723328 
L 334.816786 265.955447 
L 335.215357 265.889127 
L 335.613929 266.668385 
L 336.411071 266.287046 
L 336.809643 266.718124 
L 337.208214 266.253886 
L 337.606786 266.477715 
L 338.005357 266.908794 
L 338.403929 266.419685 
L 338.8025 266.693255 
L 339.201071 266.552325 
L 339.599643 266.684965 
L 339.998214 266.651805 
L 340.396786 265.905707 
L 340.795357 267.033143 
L 341.5925 266.759574 
L 341.991071 266.734704 
L 342.389643 266.577195 
L 343.186786 267.232103 
L 343.585357 267.116043 
L 343.983929 267.198943 
L 344.781071 266.784444 
L 345.179643 267.033143 
L 345.578214 267.091173 
L 345.976786 267.439352 
L 346.375357 267.107753 
L 347.969643 267.174073 
L 348.368214 267.348162 
L 348.766786 266.859054 
L 349.165357 267.058013 
L 349.9625 267.198943 
L 350.361071 267.497382 
L 350.759643 267.480802 
L 351.158214 267.298423 
L 351.556786 266.900504 
L 351.955357 267.107753 
L 352.353929 267.447642 
L 352.7525 268.11084 
L 353.151071 268.00307 
L 353.549643 267.737791 
L 353.948214 267.770951 
L 354.346786 267.422772 
L 354.745357 268.10255 
L 355.143929 267.878721 
L 355.5425 267.497382 
L 355.941071 267.489092 
L 356.339643 267.804111 
L 357.136786 267.820691 
L 357.535357 267.323292 
L 357.933929 267.688051 
L 358.731071 267.671471 
L 359.129643 267.439352 
L 359.528214 267.630021 
L 359.926786 268.00307 
L 360.723929 268.359539 
L 361.1225 267.837271 
L 361.521071 268.235189 
L 361.919643 268.16887 
L 362.318214 267.92846 
L 362.716786 268.12742 
L 363.115357 267.9782 
L 363.513929 267.671471 
L 363.9125 268.699428 
L 364.311071 268.11084 
L 364.709643 268.483889 
L 365.108214 268.10255 
L 367.101071 268.575078 
L 367.499643 267.93675 
L 367.898214 269.089057 
L 368.296786 268.964707 
L 368.695357 267.94504 
L 369.093929 268.898387 
L 369.891071 268.434149 
L 370.289643 268.823777 
L 370.688214 268.848647 
L 371.086786 268.359539 
L 371.485357 268.699428 
L 371.883929 268.724298 
L 372.2825 269.180246 
L 372.681071 268.541918 
L 373.079643 268.492179 
L 373.478214 268.691138 
L 373.876786 269.047607 
L 374.275357 268.807197 
L 374.673929 269.362626 
L 375.0725 268.749168 
L 375.471071 268.649688 
L 375.869643 268.724298 
L 376.268214 268.666268 
L 377.065357 269.031027 
L 378.261071 269.055897 
L 379.058214 268.691138 
L 379.855357 269.470395 
L 380.253929 268.774038 
L 380.6525 269.089057 
L 381.051071 269.254856 
L 381.449643 269.296306 
L 381.848214 268.931547 
L 382.246786 269.503555 
L 383.043929 269.205116 
L 383.4425 269.113926 
L 383.841071 269.329466 
L 384.239643 269.826864 
L 384.638214 269.205116 
L 385.036786 270.067273 
L 385.435357 269.412365 
L 385.833929 269.213406 
L 386.2325 269.312886 
L 386.631071 269.843444 
L 387.029643 269.296306 
L 387.428214 269.462105 
L 387.826786 269.304596 
L 388.225357 269.719094 
L 388.623929 269.130506 
L 389.0225 269.860024 
L 389.819643 269.354336 
L 390.218214 269.486975 
L 390.616786 269.801994 
L 391.015357 269.594745 
L 391.413929 269.520135 
L 391.8125 269.826864 
L 392.211071 269.528425 
L 392.609643 269.735674 
L 393.008214 269.727384 
L 393.406786 270.050693 
L 393.805357 269.362626 
L 394.203929 269.619615 
L 395.001071 269.445525 
L 395.399643 269.868314 
L 395.798214 269.810284 
L 396.196786 270.125303 
L 396.595357 270.042403 
L 396.993929 269.478685 
L 397.3925 269.619615 
L 397.791071 270.233073 
L 398.189643 270.158463 
L 398.588214 269.594745 
L 398.986786 270.034113 
L 399.385357 270.092143 
L 399.783929 269.669355 
L 400.1825 269.951214 
L 400.581071 270.000953 
L 400.979643 269.893184 
L 401.378214 270.191623 
L 402.175357 269.412365 
L 402.573929 270.291102 
L 403.371071 270.058983 
L 403.769643 270.199913 
L 404.168214 269.619615 
L 404.566786 270.291102 
L 405.363929 270.017533 
L 405.7625 270.481772 
L 406.161071 270.017533 
L 406.559643 269.959504 
L 406.958214 270.440322 
L 408.153929 270.274523 
L 408.5525 270.763631 
L 408.951071 270.332552 
L 409.349643 270.523222 
L 409.748214 270.539802 
L 410.146786 270.175043 
L 410.943929 270.324262 
L 411.3425 270.630991 
L 411.741071 270.713891 
L 412.139643 270.315972 
L 412.538214 270.432032 
L 412.936786 270.274523 
L 413.335357 270.755341 
L 414.1325 270.440322 
L 414.929643 270.680731 
L 415.726786 270.531512 
L 416.125357 270.349132 
L 416.523929 270.97917 
L 416.9225 270.357422 
L 417.719643 271.00404 
L 418.118214 270.539802 
L 418.516786 270.871401 
L 418.915357 270.340842 
L 419.313929 270.846531 
L 419.7125 270.813371 
L 420.111071 270.647571 
L 420.509643 270.730471 
L 420.908214 270.506642 
L 421.705357 270.93772 
L 422.103929 270.539802 
L 422.901071 270.98746 
L 423.299643 270.680731 
L 423.698214 270.614411 
L 424.096786 270.680731 
L 424.893929 271.02891 
L 425.2925 270.490062 
L 425.691071 271.12839 
L 426.089643 270.796791 
L 426.488214 270.647571 
L 426.886786 271.09523 
L 427.285357 271.186419 
L 427.683929 270.89627 
L 428.879643 271.252739 
L 429.278214 271.02062 
L 429.676786 271.310769 
L 430.473929 270.98746 
L 430.8725 270.91285 
L 431.271071 270.98746 
L 431.669643 270.87969 
L 432.068214 271.327349 
L 432.466786 271.410249 
L 432.865357 271.1201 
L 433.263929 271.178129 
L 433.6625 271.642368 
L 434.061071 271.05378 
L 434.459643 271.244449 
L 434.858214 271.211289 
L 435.256786 270.97088 
L 435.655357 271.227869 
L 436.053929 271.11181 
L 436.4525 271.11181 
L 436.851071 271.319059 
L 437.249643 271.261029 
L 437.648214 271.824747 
L 438.445357 271.11181 
L 438.843929 271.534598 
L 439.2425 271.542888 
L 439.641071 271.418539 
L 440.039643 271.625788 
L 440.438214 271.667238 
L 440.836786 271.426829 
L 441.633929 271.476568 
L 442.0325 271.965677 
L 442.431071 271.294189 
L 442.829643 271.567758 
L 443.228214 271.343929 
L 443.626786 271.418539 
L 444.025357 270.99575 
L 444.423929 271.750138 
L 444.8225 271.327349 
L 445.221071 271.559468 
L 445.619643 271.650658 
L 446.018214 272.015417 
L 446.416786 271.451699 
L 446.815357 271.401959 
L 447.213929 271.700398 
L 447.6125 271.385379 
L 448.011071 271.650658 
L 448.409643 271.766718 
L 448.808214 271.600918 
L 449.206786 271.592628 
L 449.605357 271.783297 
L 450.003929 271.658948 
L 450.4025 271.327349 
L 450.801071 271.775007 
L 451.199643 271.650658 
L 451.598214 271.866197 
L 451.996786 271.708688 
L 452.793929 271.982257 
L 453.1925 271.725268 
L 453.591071 271.741848 
L 453.989643 271.940807 
L 454.388214 271.891067 
L 454.786786 271.642368 
L 455.185357 271.857907 
L 455.583929 271.534598 
L 455.9825 271.957387 
L 457.576786 272.023707 
L 457.975357 271.816457 
L 458.373929 271.468279 
L 458.7725 271.584338 
L 459.171071 272.023707 
L 459.569643 271.998837 
L 459.968214 271.833037 
L 460.366786 271.874487 
L 460.765357 272.090026 
L 461.163929 271.816457 
L 462.359643 272.015417 
L 462.758214 271.982257 
L 463.555357 272.214376 
L 463.953929 271.998837 
L 464.3525 272.148056 
L 465.548214 271.899357 
L 465.946786 272.123186 
L 466.345357 271.816457 
L 467.541071 272.371885 
L 467.939643 272.031997 
L 468.338214 272.073446 
L 468.736786 271.775007 
L 469.135357 272.073446 
L 469.533929 272.081736 
L 469.9325 271.932517 
L 470.331071 271.973967 
L 471.128214 272.388465 
L 471.925357 272.164636 
L 472.323929 272.645455 
L 472.7225 272.388465 
L 473.121071 272.438205 
L 473.519643 272.098316 
L 473.918214 272.148056 
L 474.715357 272.463075 
L 475.113929 272.123186 
L 475.5125 272.065156 
L 475.5125 272.065156 
" style="fill:none;stroke:#4c72b0;stroke-linecap:square;stroke-width:1.75;"/>
   </g>
   <g id="patch_3">
    <path d="M 84.9125 285 
L 84.9125 13.2 
" style="fill:none;stroke:#000000;stroke-linecap:square;stroke-linejoin:miter;stroke-width:0.8;"/>
   </g>
   <g id="patch_4">
    <path d="M 84.9125 285 
L 475.5125 285 
" style="fill:none;stroke:#000000;stroke-linecap:square;stroke-linejoin:miter;stroke-width:0.8;"/>
   </g>
   <g id="legend_1"/>
  </g>
 </g>
 <defs>
  <clipPath id="p90fa49a4cd">
   <rect height="271.8" width="390.6" x="84.9125" y="13.2"/>
  </clipPath>
 </defs>
</svg>
