<?xml version="1.0" encoding="utf-8" standalone="no"?>
<!DOCTYPE svg PUBLIC "-//W3C//DTD SVG 1.1//EN"
  "http://www.w3.org/Graphics/SVG/1.1/DTD/svg11.dtd">
<!-- Created with matplotlib (http://matplotlib.org/) -->
<svg height="341pt" version="1.1" viewBox="0 0 483 341" width="483pt" xmlns="http://www.w3.org/2000/svg" xmlns:xlink="http://www.w3.org/1999/xlink">
 <defs>
  <style type="text/css">
*{stroke-linecap:butt;stroke-linejoin:round;}
  </style>
 </defs>
 <g id="figure_1">
  <g id="patch_1">
   <path d="M 0 341.137812 
L 483.265 341.137812 
L 483.265 0 
L 0 0 
z
" style="fill:#ffffff;"/>
  </g>
  <g id="axes_1">
   <g id="patch_2">
    <path d="M 70.992344 285 
L 461.592344 285 
L 461.592344 13.2 
L 70.992344 13.2 
z
" style="fill:#ffffff;"/>
   </g>
   <g id="line2d_1">
    <path clip-path="url(#p2978f6df38)" d="M -1 207.342857 
L -0.617656 207.342857 
L 5.892344 207.342857 
L 12.402344 207.342857 
L 18.912344 207.342857 
L 25.422344 207.342857 
L 31.932344 207.342857 
L 38.442344 207.342857 
L 44.952344 207.342857 
L 51.462344 207.342857 
L 57.972344 207.342857 
L 64.482344 207.342857 
L 70.992344 207.342857 
L 77.502344 207.342857 
L 84.012344 207.342857 
L 90.522344 207.342857 
L 97.032344 207.342857 
L 103.542344 207.342857 
L 110.052344 207.342857 
L 116.562344 207.342857 
L 123.072344 207.342857 
L 129.582344 207.342857 
L 136.092344 207.342857 
L 142.602344 207.342857 
L 149.112344 207.342857 
L 155.622344 207.342857 
L 162.132344 207.342857 
L 168.642344 207.342857 
L 175.152344 207.342857 
L 181.662344 207.342857 
L 188.172344 207.342857 
L 194.682344 207.342857 
L 201.192344 207.342857 
L 207.702344 207.342857 
L 214.212344 207.342857 
L 220.722344 207.342857 
L 227.232344 207.342857 
L 233.742344 207.342857 
L 240.252344 207.342857 
L 246.762344 207.342857 
L 253.272344 207.342857 
L 259.782344 207.342857 
L 266.292344 207.342857 
L 272.802344 207.342857 
L 279.312344 207.342857 
L 285.822344 207.342857 
L 292.332344 207.342857 
L 298.842344 207.342857 
L 305.352344 207.342857 
L 311.862344 207.342857 
L 318.372344 207.342857 
L 324.882344 207.342857 
L 331.392344 207.342857 
L 337.902344 207.342857 
L 344.412344 207.342857 
L 350.922344 207.342857 
L 357.432344 207.342857 
L 363.942344 207.342857 
L 370.452344 207.342857 
L 376.962344 207.342857 
L 383.472344 207.342857 
L 389.982344 207.342857 
L 396.492344 207.342857 
L 403.002344 207.342857 
L 409.512344 207.342857 
L 416.022344 207.342857 
L 422.532344 207.342857 
L 429.042344 207.342857 
L 435.552344 207.342857 
L 442.062344 207.342857 
L 448.572344 207.342857 
L 455.082344 207.342857 
L 461.592344 207.342857 
L 468.102344 207.342857 
L 474.612344 207.342857 
L 481.122344 207.342857 
L 484.265 207.342857 
" style="fill:none;stroke:#000000;stroke-dasharray:3.7,1.6;stroke-dashoffset:0;"/>
   </g>
   <g id="PolyCollection_1">
    <path clip-path="url(#p2978f6df38)" d="M -7.127656 139.723077 
L -7.127656 304.360919 
L -0.617656 382.214769 
L 5.892344 432.766102 
L 12.402344 428.5835 
L 18.912344 405.861549 
L 25.422344 367.560844 
L 31.932344 326.984143 
L 38.442344 291.96345 
L 44.952344 262.148151 
L 51.462344 239.832977 
L 57.972344 226.39399 
L 64.482344 218.990986 
L 70.992344 215.396239 
L 77.502344 210.763971 
L 84.012344 205.526779 
L 90.522344 205.655066 
L 97.032344 211.781017 
L 103.542344 221.492101 
L 110.052344 232.242615 
L 116.562344 240.238371 
L 123.072344 243.599279 
L 129.582344 244.026912 
L 136.092344 244.041138 
L 142.602344 244.130806 
L 149.112344 243.541945 
L 155.622344 241.794543 
L 162.132344 239.307604 
L 168.642344 236.088692 
L 175.152344 233.517212 
L 181.662344 233.484991 
L 188.172344 235.870994 
L 194.682344 237.981064 
L 201.192344 237.46051 
L 207.702344 235.731136 
L 214.212344 236.275174 
L 220.722344 240.225164 
L 227.232344 244.912174 
L 233.742344 248.16817 
L 240.252344 250.330685 
L 246.762344 251.957299 
L 253.272344 254.096057 
L 259.782344 257.814287 
L 266.292344 263.67775 
L 272.802344 271.382451 
L 279.312344 278.454896 
L 285.822344 282.017348 
L 292.332344 280.910906 
L 298.842344 277.041397 
L 305.352344 273.301431 
L 311.862344 268.877542 
L 318.372344 261.365512 
L 324.882344 251.85509 
L 331.392344 244.203563 
L 337.902344 241.498092 
L 344.412344 242.081466 
L 350.922344 240.597631 
L 357.432344 235.311488 
L 363.942344 229.607199 
L 370.452344 225.290136 
L 376.962344 220.955144 
L 383.472344 215.528639 
L 389.982344 208.060803 
L 396.492344 198.475297 
L 403.002344 189.617228 
L 409.512344 184.741213 
L 416.022344 183.372617 
L 422.532344 186.007561 
L 429.042344 195.465957 
L 435.552344 209.039839 
L 442.062344 220.564686 
L 448.572344 227.83331 
L 455.082344 232.518785 
L 461.592344 235.009774 
L 468.102344 235.821702 
L 474.612344 238.573844 
L 481.122344 248.954732 
L 487.632344 270.346081 
L 494.142344 295.113966 
L 500.652344 293.453611 
L 507.162344 273.91936 
L 513.672344 281.368594 
L 520.182344 287.620604 
L 526.692344 269.530381 
L 533.202344 231.150304 
L 539.712344 224.444462 
L 546.222344 264.672315 
L 552.732344 300.385551 
L 559.242344 321.304725 
L 565.752344 471.405739 
L 572.262344 1470.630994 
L 578.772344 4761.454341 
L 585.282344 1374.947308 
L 591.792344 319.681903 
L 598.302344 171.064122 
L 604.812344 117.769968 
L 611.322344 86.127708 
L 617.832344 77.477041 
L 624.342344 83.226511 
L 630.852344 100.368792 
L 637.362344 127.035715 
L 637.362344 -789.980368 
L 637.362344 -789.980368 
L 630.852344 -682.607283 
L 624.342344 -549.49381 
L 617.832344 -412.404817 
L 611.322344 -300.817528 
L 604.812344 -242.138743 
L 598.302344 -226.25275 
L 591.792344 -288.807649 
L 585.282344 -1083.932327 
L 578.772344 -3887.611434 
L 572.262344 -972.725512 
L 565.752344 -373.673949 
L 559.242344 -323.371077 
L 552.732344 -246.735895 
L 546.222344 -160.739188 
L 539.712344 -102.393843 
L 533.202344 -83.546709 
L 526.692344 -63.768948 
L 520.182344 -27.384414 
L 513.672344 -3.699727 
L 507.162344 -5.770218 
L 500.652344 -34.201806 
L 494.142344 -40.596283 
L 487.632344 -21.114988 
L 481.122344 -5.365955 
L 474.612344 1.426903 
L 468.102344 8.481726 
L 461.592344 23.179498 
L 455.082344 39.10682 
L 448.572344 48.100047 
L 442.062344 51.308794 
L 435.552344 53.669272 
L 429.042344 57.805053 
L 422.532344 62.996579 
L 416.022344 65.428309 
L 409.512344 65.379482 
L 403.002344 67.141587 
L 396.492344 72.016704 
L 389.982344 77.779065 
L 383.472344 82.280963 
L 376.962344 85.795226 
L 370.452344 89.948777 
L 363.942344 95.375112 
L 357.432344 101.242754 
L 350.922344 106.527465 
L 344.412344 110.308091 
L 337.902344 113.759535 
L 331.392344 120.400916 
L 324.882344 132.124275 
L 318.372344 148.140565 
L 311.862344 166.593961 
L 305.352344 184.329681 
L 298.842344 198.715414 
L 292.332344 209.924481 
L 285.822344 217.426265 
L 279.312344 218.563305 
L 272.802344 213.964672 
L 266.292344 208.543957 
L 259.782344 205.202852 
L 253.272344 203.621937 
L 246.762344 203.086617 
L 240.252344 202.773696 
L 233.742344 200.923826 
L 227.232344 196.859105 
L 220.722344 192.770005 
L 214.212344 190.526816 
L 207.702344 190.071846 
L 201.192344 190.998162 
L 194.682344 192.830355 
L 188.172344 193.868675 
L 181.662344 191.491478 
L 175.152344 185.919967 
L 168.642344 181.305196 
L 162.132344 181.184066 
L 155.622344 183.401859 
L 149.112344 182.88668 
L 142.602344 178.728618 
L 136.092344 173.652477 
L 129.582344 172.079408 
L 123.072344 176.22315 
L 116.562344 182.627928 
L 110.052344 185.812313 
L 103.542344 183.711116 
L 97.032344 176.285876 
L 90.522344 166.684389 
L 84.012344 161.313873 
L 77.502344 162.85716 
L 70.992344 166.730276 
L 64.482344 166.865301 
L 57.972344 165.350505 
L 51.462344 163.266915 
L 44.952344 150.562013 
L 38.442344 126.155846 
L 31.932344 102.677857 
L 25.422344 93.150648 
L 18.912344 104.489601 
L 12.402344 128.035506 
L 5.892344 133.867194 
L -0.617656 134.755092 
L -7.127656 139.723077 
z
" style="fill:#4c72b0;fill-opacity:0.1;stroke:#4c72b0;stroke-opacity:0.1;"/>
   </g>
   <g id="matplotlib.axis_1">
    <g id="xtick_1">
     <g id="line2d_2">
      <defs>
       <path d="M 0 0 
L 0 6 
" id="m66575b4fc3" style="stroke:#262626;"/>
      </defs>
      <g>
       <use style="fill:#262626;stroke:#262626;" x="70.992344" xlink:href="#m66575b4fc3" y="285"/>
      </g>
     </g>
     <g id="text_1">
      <!-- 0.05 -->
      <defs>
       <path d="M 31.78125 66.40625 
Q 24.171875 66.40625 20.328125 58.90625 
Q 16.5 51.421875 16.5 36.375 
Q 16.5 21.390625 20.328125 13.890625 
Q 24.171875 6.390625 31.78125 6.390625 
Q 39.453125 6.390625 43.28125 13.890625 
Q 47.125 21.390625 47.125 36.375 
Q 47.125 51.421875 43.28125 58.90625 
Q 39.453125 66.40625 31.78125 66.40625 
z
M 31.78125 74.21875 
Q 44.046875 74.21875 50.515625 64.515625 
Q 56.984375 54.828125 56.984375 36.375 
Q 56.984375 17.96875 50.515625 8.265625 
Q 44.046875 -1.421875 31.78125 -1.421875 
Q 19.53125 -1.421875 13.0625 8.265625 
Q 6.59375 17.96875 6.59375 36.375 
Q 6.59375 54.828125 13.0625 64.515625 
Q 19.53125 74.21875 31.78125 74.21875 
z
" id="DejaVuSans-30"/>
       <path d="M 10.6875 12.40625 
L 21 12.40625 
L 21 0 
L 10.6875 0 
z
" id="DejaVuSans-2e"/>
       <path d="M 10.796875 72.90625 
L 49.515625 72.90625 
L 49.515625 64.59375 
L 19.828125 64.59375 
L 19.828125 46.734375 
Q 21.96875 47.46875 24.109375 47.828125 
Q 26.265625 48.1875 28.421875 48.1875 
Q 40.625 48.1875 47.75 41.5 
Q 54.890625 34.8125 54.890625 23.390625 
Q 54.890625 11.625 47.5625 5.09375 
Q 40.234375 -1.421875 26.90625 -1.421875 
Q 22.3125 -1.421875 17.546875 -0.640625 
Q 12.796875 0.140625 7.71875 1.703125 
L 7.71875 11.625 
Q 12.109375 9.234375 16.796875 8.0625 
Q 21.484375 6.890625 26.703125 6.890625 
Q 35.15625 6.890625 40.078125 11.328125 
Q 45.015625 15.765625 45.015625 23.390625 
Q 45.015625 31 40.078125 35.4375 
Q 35.15625 39.890625 26.703125 39.890625 
Q 22.75 39.890625 18.8125 39.015625 
Q 14.890625 38.140625 10.796875 36.28125 
z
" id="DejaVuSans-35"/>
      </defs>
      <g style="fill:#262626;" transform="translate(56.519688 307.877969)scale(0.13 -0.13)">
       <use xlink:href="#DejaVuSans-30"/>
       <use x="63.623047" xlink:href="#DejaVuSans-2e"/>
       <use x="95.410156" xlink:href="#DejaVuSans-30"/>
       <use x="159.033203" xlink:href="#DejaVuSans-35"/>
      </g>
     </g>
    </g>
    <g id="xtick_2">
     <g id="line2d_3">
      <g>
       <use style="fill:#262626;stroke:#262626;" x="119.817344" xlink:href="#m66575b4fc3" y="285"/>
      </g>
     </g>
     <g id="text_2">
      <!-- 0.10 -->
      <defs>
       <path d="M 12.40625 8.296875 
L 28.515625 8.296875 
L 28.515625 63.921875 
L 10.984375 60.40625 
L 10.984375 69.390625 
L 28.421875 72.90625 
L 38.28125 72.90625 
L 38.28125 8.296875 
L 54.390625 8.296875 
L 54.390625 0 
L 12.40625 0 
z
" id="DejaVuSans-31"/>
      </defs>
      <g style="fill:#262626;" transform="translate(105.344688 307.877969)scale(0.13 -0.13)">
       <use xlink:href="#DejaVuSans-30"/>
       <use x="63.623047" xlink:href="#DejaVuSans-2e"/>
       <use x="95.410156" xlink:href="#DejaVuSans-31"/>
       <use x="159.033203" xlink:href="#DejaVuSans-30"/>
      </g>
     </g>
    </g>
    <g id="xtick_3">
     <g id="line2d_4">
      <g>
       <use style="fill:#262626;stroke:#262626;" x="168.642344" xlink:href="#m66575b4fc3" y="285"/>
      </g>
     </g>
     <g id="text_3">
      <!-- 0.15 -->
      <g style="fill:#262626;" transform="translate(154.169688 307.877969)scale(0.13 -0.13)">
       <use xlink:href="#DejaVuSans-30"/>
       <use x="63.623047" xlink:href="#DejaVuSans-2e"/>
       <use x="95.410156" xlink:href="#DejaVuSans-31"/>
       <use x="159.033203" xlink:href="#DejaVuSans-35"/>
      </g>
     </g>
    </g>
    <g id="xtick_4">
     <g id="line2d_5">
      <g>
       <use style="fill:#262626;stroke:#262626;" x="217.467344" xlink:href="#m66575b4fc3" y="285"/>
      </g>
     </g>
     <g id="text_4">
      <!-- 0.20 -->
      <defs>
       <path d="M 19.1875 8.296875 
L 53.609375 8.296875 
L 53.609375 0 
L 7.328125 0 
L 7.328125 8.296875 
Q 12.9375 14.109375 22.625 23.890625 
Q 32.328125 33.6875 34.8125 36.53125 
Q 39.546875 41.84375 41.421875 45.53125 
Q 43.3125 49.21875 43.3125 52.78125 
Q 43.3125 58.59375 39.234375 62.25 
Q 35.15625 65.921875 28.609375 65.921875 
Q 23.96875 65.921875 18.8125 64.3125 
Q 13.671875 62.703125 7.8125 59.421875 
L 7.8125 69.390625 
Q 13.765625 71.78125 18.9375 73 
Q 24.125 74.21875 28.421875 74.21875 
Q 39.75 74.21875 46.484375 68.546875 
Q 53.21875 62.890625 53.21875 53.421875 
Q 53.21875 48.921875 51.53125 44.890625 
Q 49.859375 40.875 45.40625 35.40625 
Q 44.1875 33.984375 37.640625 27.21875 
Q 31.109375 20.453125 19.1875 8.296875 
z
" id="DejaVuSans-32"/>
      </defs>
      <g style="fill:#262626;" transform="translate(202.994688 307.877969)scale(0.13 -0.13)">
       <use xlink:href="#DejaVuSans-30"/>
       <use x="63.623047" xlink:href="#DejaVuSans-2e"/>
       <use x="95.410156" xlink:href="#DejaVuSans-32"/>
       <use x="159.033203" xlink:href="#DejaVuSans-30"/>
      </g>
     </g>
    </g>
    <g id="xtick_5">
     <g id="line2d_6">
      <g>
       <use style="fill:#262626;stroke:#262626;" x="266.292344" xlink:href="#m66575b4fc3" y="285"/>
      </g>
     </g>
     <g id="text_5">
      <!-- 0.25 -->
      <g style="fill:#262626;" transform="translate(251.819687 307.877969)scale(0.13 -0.13)">
       <use xlink:href="#DejaVuSans-30"/>
       <use x="63.623047" xlink:href="#DejaVuSans-2e"/>
       <use x="95.410156" xlink:href="#DejaVuSans-32"/>
       <use x="159.033203" xlink:href="#DejaVuSans-35"/>
      </g>
     </g>
    </g>
    <g id="xtick_6">
     <g id="line2d_7">
      <g>
       <use style="fill:#262626;stroke:#262626;" x="315.117344" xlink:href="#m66575b4fc3" y="285"/>
      </g>
     </g>
     <g id="text_6">
      <!-- 0.30 -->
      <defs>
       <path d="M 40.578125 39.3125 
Q 47.65625 37.796875 51.625 33 
Q 55.609375 28.21875 55.609375 21.1875 
Q 55.609375 10.40625 48.1875 4.484375 
Q 40.765625 -1.421875 27.09375 -1.421875 
Q 22.515625 -1.421875 17.65625 -0.515625 
Q 12.796875 0.390625 7.625 2.203125 
L 7.625 11.71875 
Q 11.71875 9.328125 16.59375 8.109375 
Q 21.484375 6.890625 26.8125 6.890625 
Q 36.078125 6.890625 40.9375 10.546875 
Q 45.796875 14.203125 45.796875 21.1875 
Q 45.796875 27.640625 41.28125 31.265625 
Q 36.765625 34.90625 28.71875 34.90625 
L 20.21875 34.90625 
L 20.21875 43.015625 
L 29.109375 43.015625 
Q 36.375 43.015625 40.234375 45.921875 
Q 44.09375 48.828125 44.09375 54.296875 
Q 44.09375 59.90625 40.109375 62.90625 
Q 36.140625 65.921875 28.71875 65.921875 
Q 24.65625 65.921875 20.015625 65.03125 
Q 15.375 64.15625 9.8125 62.3125 
L 9.8125 71.09375 
Q 15.4375 72.65625 20.34375 73.4375 
Q 25.25 74.21875 29.59375 74.21875 
Q 40.828125 74.21875 47.359375 69.109375 
Q 53.90625 64.015625 53.90625 55.328125 
Q 53.90625 49.265625 50.4375 45.09375 
Q 46.96875 40.921875 40.578125 39.3125 
z
" id="DejaVuSans-33"/>
      </defs>
      <g style="fill:#262626;" transform="translate(300.644688 307.877969)scale(0.13 -0.13)">
       <use xlink:href="#DejaVuSans-30"/>
       <use x="63.623047" xlink:href="#DejaVuSans-2e"/>
       <use x="95.410156" xlink:href="#DejaVuSans-33"/>
       <use x="159.033203" xlink:href="#DejaVuSans-30"/>
      </g>
     </g>
    </g>
    <g id="xtick_7">
     <g id="line2d_8">
      <g>
       <use style="fill:#262626;stroke:#262626;" x="363.942344" xlink:href="#m66575b4fc3" y="285"/>
      </g>
     </g>
     <g id="text_7">
      <!-- 0.35 -->
      <g style="fill:#262626;" transform="translate(349.469688 307.877969)scale(0.13 -0.13)">
       <use xlink:href="#DejaVuSans-30"/>
       <use x="63.623047" xlink:href="#DejaVuSans-2e"/>
       <use x="95.410156" xlink:href="#DejaVuSans-33"/>
       <use x="159.033203" xlink:href="#DejaVuSans-35"/>
      </g>
     </g>
    </g>
    <g id="xtick_8">
     <g id="line2d_9">
      <g>
       <use style="fill:#262626;stroke:#262626;" x="412.767344" xlink:href="#m66575b4fc3" y="285"/>
      </g>
     </g>
     <g id="text_8">
      <!-- 0.40 -->
      <defs>
       <path d="M 37.796875 64.3125 
L 12.890625 25.390625 
L 37.796875 25.390625 
z
M 35.203125 72.90625 
L 47.609375 72.90625 
L 47.609375 25.390625 
L 58.015625 25.390625 
L 58.015625 17.1875 
L 47.609375 17.1875 
L 47.609375 0 
L 37.796875 0 
L 37.796875 17.1875 
L 4.890625 17.1875 
L 4.890625 26.703125 
z
" id="DejaVuSans-34"/>
      </defs>
      <g style="fill:#262626;" transform="translate(398.294688 307.877969)scale(0.13 -0.13)">
       <use xlink:href="#DejaVuSans-30"/>
       <use x="63.623047" xlink:href="#DejaVuSans-2e"/>
       <use x="95.410156" xlink:href="#DejaVuSans-34"/>
       <use x="159.033203" xlink:href="#DejaVuSans-30"/>
      </g>
     </g>
    </g>
    <g id="xtick_9">
     <g id="line2d_10">
      <g>
       <use style="fill:#262626;stroke:#262626;" x="461.592344" xlink:href="#m66575b4fc3" y="285"/>
      </g>
     </g>
     <g id="text_9">
      <!-- 0.45 -->
      <g style="fill:#262626;" transform="translate(447.119688 307.877969)scale(0.13 -0.13)">
       <use xlink:href="#DejaVuSans-30"/>
       <use x="63.623047" xlink:href="#DejaVuSans-2e"/>
       <use x="95.410156" xlink:href="#DejaVuSans-34"/>
       <use x="159.033203" xlink:href="#DejaVuSans-35"/>
      </g>
     </g>
    </g>
    <g id="text_10">
     <!-- Document Similarity -->
     <defs>
      <path d="M 19.671875 64.796875 
L 19.671875 8.109375 
L 31.59375 8.109375 
Q 46.6875 8.109375 53.6875 14.9375 
Q 60.6875 21.78125 60.6875 36.53125 
Q 60.6875 51.171875 53.6875 57.984375 
Q 46.6875 64.796875 31.59375 64.796875 
z
M 9.8125 72.90625 
L 30.078125 72.90625 
Q 51.265625 72.90625 61.171875 64.09375 
Q 71.09375 55.28125 71.09375 36.53125 
Q 71.09375 17.671875 61.125 8.828125 
Q 51.171875 0 30.078125 0 
L 9.8125 0 
z
" id="DejaVuSans-44"/>
      <path d="M 30.609375 48.390625 
Q 23.390625 48.390625 19.1875 42.75 
Q 14.984375 37.109375 14.984375 27.296875 
Q 14.984375 17.484375 19.15625 11.84375 
Q 23.34375 6.203125 30.609375 6.203125 
Q 37.796875 6.203125 41.984375 11.859375 
Q 46.1875 17.53125 46.1875 27.296875 
Q 46.1875 37.015625 41.984375 42.703125 
Q 37.796875 48.390625 30.609375 48.390625 
z
M 30.609375 56 
Q 42.328125 56 49.015625 48.375 
Q 55.71875 40.765625 55.71875 27.296875 
Q 55.71875 13.875 49.015625 6.21875 
Q 42.328125 -1.421875 30.609375 -1.421875 
Q 18.84375 -1.421875 12.171875 6.21875 
Q 5.515625 13.875 5.515625 27.296875 
Q 5.515625 40.765625 12.171875 48.375 
Q 18.84375 56 30.609375 56 
z
" id="DejaVuSans-6f"/>
      <path d="M 48.78125 52.59375 
L 48.78125 44.1875 
Q 44.96875 46.296875 41.140625 47.34375 
Q 37.3125 48.390625 33.40625 48.390625 
Q 24.65625 48.390625 19.8125 42.84375 
Q 14.984375 37.3125 14.984375 27.296875 
Q 14.984375 17.28125 19.8125 11.734375 
Q 24.65625 6.203125 33.40625 6.203125 
Q 37.3125 6.203125 41.140625 7.25 
Q 44.96875 8.296875 48.78125 10.40625 
L 48.78125 2.09375 
Q 45.015625 0.34375 40.984375 -0.53125 
Q 36.96875 -1.421875 32.421875 -1.421875 
Q 20.0625 -1.421875 12.78125 6.34375 
Q 5.515625 14.109375 5.515625 27.296875 
Q 5.515625 40.671875 12.859375 48.328125 
Q 20.21875 56 33.015625 56 
Q 37.15625 56 41.109375 55.140625 
Q 45.0625 54.296875 48.78125 52.59375 
z
" id="DejaVuSans-63"/>
      <path d="M 8.5 21.578125 
L 8.5 54.6875 
L 17.484375 54.6875 
L 17.484375 21.921875 
Q 17.484375 14.15625 20.5 10.265625 
Q 23.53125 6.390625 29.59375 6.390625 
Q 36.859375 6.390625 41.078125 11.03125 
Q 45.3125 15.671875 45.3125 23.6875 
L 45.3125 54.6875 
L 54.296875 54.6875 
L 54.296875 0 
L 45.3125 0 
L 45.3125 8.40625 
Q 42.046875 3.421875 37.71875 1 
Q 33.40625 -1.421875 27.6875 -1.421875 
Q 18.265625 -1.421875 13.375 4.4375 
Q 8.5 10.296875 8.5 21.578125 
z
M 31.109375 56 
z
" id="DejaVuSans-75"/>
      <path d="M 52 44.1875 
Q 55.375 50.25 60.0625 53.125 
Q 64.75 56 71.09375 56 
Q 79.640625 56 84.28125 50.015625 
Q 88.921875 44.046875 88.921875 33.015625 
L 88.921875 0 
L 79.890625 0 
L 79.890625 32.71875 
Q 79.890625 40.578125 77.09375 44.375 
Q 74.3125 48.1875 68.609375 48.1875 
Q 61.625 48.1875 57.5625 43.546875 
Q 53.515625 38.921875 53.515625 30.90625 
L 53.515625 0 
L 44.484375 0 
L 44.484375 32.71875 
Q 44.484375 40.625 41.703125 44.40625 
Q 38.921875 48.1875 33.109375 48.1875 
Q 26.21875 48.1875 22.15625 43.53125 
Q 18.109375 38.875 18.109375 30.90625 
L 18.109375 0 
L 9.078125 0 
L 9.078125 54.6875 
L 18.109375 54.6875 
L 18.109375 46.1875 
Q 21.1875 51.21875 25.484375 53.609375 
Q 29.78125 56 35.6875 56 
Q 41.65625 56 45.828125 52.96875 
Q 50 49.953125 52 44.1875 
z
" id="DejaVuSans-6d"/>
      <path d="M 56.203125 29.59375 
L 56.203125 25.203125 
L 14.890625 25.203125 
Q 15.484375 15.921875 20.484375 11.0625 
Q 25.484375 6.203125 34.421875 6.203125 
Q 39.59375 6.203125 44.453125 7.46875 
Q 49.3125 8.734375 54.109375 11.28125 
L 54.109375 2.78125 
Q 49.265625 0.734375 44.1875 -0.34375 
Q 39.109375 -1.421875 33.890625 -1.421875 
Q 20.796875 -1.421875 13.15625 6.1875 
Q 5.515625 13.8125 5.515625 26.8125 
Q 5.515625 40.234375 12.765625 48.109375 
Q 20.015625 56 32.328125 56 
Q 43.359375 56 49.78125 48.890625 
Q 56.203125 41.796875 56.203125 29.59375 
z
M 47.21875 32.234375 
Q 47.125 39.59375 43.09375 43.984375 
Q 39.0625 48.390625 32.421875 48.390625 
Q 24.90625 48.390625 20.390625 44.140625 
Q 15.875 39.890625 15.1875 32.171875 
z
" id="DejaVuSans-65"/>
      <path d="M 54.890625 33.015625 
L 54.890625 0 
L 45.90625 0 
L 45.90625 32.71875 
Q 45.90625 40.484375 42.875 44.328125 
Q 39.84375 48.1875 33.796875 48.1875 
Q 26.515625 48.1875 22.3125 43.546875 
Q 18.109375 38.921875 18.109375 30.90625 
L 18.109375 0 
L 9.078125 0 
L 9.078125 54.6875 
L 18.109375 54.6875 
L 18.109375 46.1875 
Q 21.34375 51.125 25.703125 53.5625 
Q 30.078125 56 35.796875 56 
Q 45.21875 56 50.046875 50.171875 
Q 54.890625 44.34375 54.890625 33.015625 
z
" id="DejaVuSans-6e"/>
      <path d="M 18.3125 70.21875 
L 18.3125 54.6875 
L 36.8125 54.6875 
L 36.8125 47.703125 
L 18.3125 47.703125 
L 18.3125 18.015625 
Q 18.3125 11.328125 20.140625 9.421875 
Q 21.96875 7.515625 27.59375 7.515625 
L 36.8125 7.515625 
L 36.8125 0 
L 27.59375 0 
Q 17.1875 0 13.234375 3.875 
Q 9.28125 7.765625 9.28125 18.015625 
L 9.28125 47.703125 
L 2.6875 47.703125 
L 2.6875 54.6875 
L 9.28125 54.6875 
L 9.28125 70.21875 
z
" id="DejaVuSans-74"/>
      <path id="DejaVuSans-20"/>
      <path d="M 53.515625 70.515625 
L 53.515625 60.890625 
Q 47.90625 63.578125 42.921875 64.890625 
Q 37.9375 66.21875 33.296875 66.21875 
Q 25.25 66.21875 20.875 63.09375 
Q 16.5 59.96875 16.5 54.203125 
Q 16.5 49.359375 19.40625 46.890625 
Q 22.3125 44.4375 30.421875 42.921875 
L 36.375 41.703125 
Q 47.40625 39.59375 52.65625 34.296875 
Q 57.90625 29 57.90625 20.125 
Q 57.90625 9.515625 50.796875 4.046875 
Q 43.703125 -1.421875 29.984375 -1.421875 
Q 24.8125 -1.421875 18.96875 -0.25 
Q 13.140625 0.921875 6.890625 3.21875 
L 6.890625 13.375 
Q 12.890625 10.015625 18.65625 8.296875 
Q 24.421875 6.59375 29.984375 6.59375 
Q 38.421875 6.59375 43.015625 9.90625 
Q 47.609375 13.234375 47.609375 19.390625 
Q 47.609375 24.75 44.3125 27.78125 
Q 41.015625 30.8125 33.5 32.328125 
L 27.484375 33.5 
Q 16.453125 35.6875 11.515625 40.375 
Q 6.59375 45.0625 6.59375 53.421875 
Q 6.59375 63.09375 13.40625 68.65625 
Q 20.21875 74.21875 32.171875 74.21875 
Q 37.3125 74.21875 42.625 73.28125 
Q 47.953125 72.359375 53.515625 70.515625 
z
" id="DejaVuSans-53"/>
      <path d="M 9.421875 54.6875 
L 18.40625 54.6875 
L 18.40625 0 
L 9.421875 0 
z
M 9.421875 75.984375 
L 18.40625 75.984375 
L 18.40625 64.59375 
L 9.421875 64.59375 
z
" id="DejaVuSans-69"/>
      <path d="M 9.421875 75.984375 
L 18.40625 75.984375 
L 18.40625 0 
L 9.421875 0 
z
" id="DejaVuSans-6c"/>
      <path d="M 34.28125 27.484375 
Q 23.390625 27.484375 19.1875 25 
Q 14.984375 22.515625 14.984375 16.5 
Q 14.984375 11.71875 18.140625 8.90625 
Q 21.296875 6.109375 26.703125 6.109375 
Q 34.1875 6.109375 38.703125 11.40625 
Q 43.21875 16.703125 43.21875 25.484375 
L 43.21875 27.484375 
z
M 52.203125 31.203125 
L 52.203125 0 
L 43.21875 0 
L 43.21875 8.296875 
Q 40.140625 3.328125 35.546875 0.953125 
Q 30.953125 -1.421875 24.3125 -1.421875 
Q 15.921875 -1.421875 10.953125 3.296875 
Q 6 8.015625 6 15.921875 
Q 6 25.140625 12.171875 29.828125 
Q 18.359375 34.515625 30.609375 34.515625 
L 43.21875 34.515625 
L 43.21875 35.40625 
Q 43.21875 41.609375 39.140625 45 
Q 35.0625 48.390625 27.6875 48.390625 
Q 23 48.390625 18.546875 47.265625 
Q 14.109375 46.140625 10.015625 43.890625 
L 10.015625 52.203125 
Q 14.9375 54.109375 19.578125 55.046875 
Q 24.21875 56 28.609375 56 
Q 40.484375 56 46.34375 49.84375 
Q 52.203125 43.703125 52.203125 31.203125 
z
" id="DejaVuSans-61"/>
      <path d="M 41.109375 46.296875 
Q 39.59375 47.171875 37.8125 47.578125 
Q 36.03125 48 33.890625 48 
Q 26.265625 48 22.1875 43.046875 
Q 18.109375 38.09375 18.109375 28.8125 
L 18.109375 0 
L 9.078125 0 
L 9.078125 54.6875 
L 18.109375 54.6875 
L 18.109375 46.1875 
Q 20.953125 51.171875 25.484375 53.578125 
Q 30.03125 56 36.53125 56 
Q 37.453125 56 38.578125 55.875 
Q 39.703125 55.765625 41.0625 55.515625 
z
" id="DejaVuSans-72"/>
      <path d="M 32.171875 -5.078125 
Q 28.375 -14.84375 24.75 -17.8125 
Q 21.140625 -20.796875 15.09375 -20.796875 
L 7.90625 -20.796875 
L 7.90625 -13.28125 
L 13.1875 -13.28125 
Q 16.890625 -13.28125 18.9375 -11.515625 
Q 21 -9.765625 23.484375 -3.21875 
L 25.09375 0.875 
L 2.984375 54.6875 
L 12.5 54.6875 
L 29.59375 11.921875 
L 46.6875 54.6875 
L 56.203125 54.6875 
z
" id="DejaVuSans-79"/>
     </defs>
     <g style="fill:#262626;" transform="translate(164.028281 329.778437)scale(0.2 -0.2)">
      <use xlink:href="#DejaVuSans-44"/>
      <use x="77.001953" xlink:href="#DejaVuSans-6f"/>
      <use x="138.183594" xlink:href="#DejaVuSans-63"/>
      <use x="193.164062" xlink:href="#DejaVuSans-75"/>
      <use x="256.542969" xlink:href="#DejaVuSans-6d"/>
      <use x="353.955078" xlink:href="#DejaVuSans-65"/>
      <use x="415.478516" xlink:href="#DejaVuSans-6e"/>
      <use x="478.857422" xlink:href="#DejaVuSans-74"/>
      <use x="518.066406" xlink:href="#DejaVuSans-20"/>
      <use x="549.853516" xlink:href="#DejaVuSans-53"/>
      <use x="613.330078" xlink:href="#DejaVuSans-69"/>
      <use x="641.113281" xlink:href="#DejaVuSans-6d"/>
      <use x="738.525391" xlink:href="#DejaVuSans-69"/>
      <use x="766.308594" xlink:href="#DejaVuSans-6c"/>
      <use x="794.091797" xlink:href="#DejaVuSans-61"/>
      <use x="855.371094" xlink:href="#DejaVuSans-72"/>
      <use x="896.484375" xlink:href="#DejaVuSans-69"/>
      <use x="924.267578" xlink:href="#DejaVuSans-74"/>
      <use x="963.476562" xlink:href="#DejaVuSans-79"/>
     </g>
    </g>
   </g>
   <g id="matplotlib.axis_2">
    <g id="ytick_1">
     <g id="line2d_11">
      <defs>
       <path d="M 0 0 
L -6 0 
" id="mf60dee508f" style="stroke:#262626;"/>
      </defs>
      <g>
       <use style="fill:#262626;stroke:#262626;" x="70.992344" xlink:href="#mf60dee508f" y="285"/>
      </g>
     </g>
     <g id="text_11">
      <!-- −20 -->
      <defs>
       <path d="M 10.59375 35.5 
L 73.1875 35.5 
L 73.1875 27.203125 
L 10.59375 27.203125 
z
" id="DejaVuSans-2212"/>
      </defs>
      <g style="fill:#262626;" transform="translate(30.55625 289.938984)scale(0.13 -0.13)">
       <use xlink:href="#DejaVuSans-2212"/>
       <use x="83.789062" xlink:href="#DejaVuSans-32"/>
       <use x="147.412109" xlink:href="#DejaVuSans-30"/>
      </g>
     </g>
    </g>
    <g id="ytick_2">
     <g id="line2d_12">
      <g>
       <use style="fill:#262626;stroke:#262626;" x="70.992344" xlink:href="#mf60dee508f" y="246.171429"/>
      </g>
     </g>
     <g id="text_12">
      <!-- −10 -->
      <g style="fill:#262626;" transform="translate(30.55625 251.110413)scale(0.13 -0.13)">
       <use xlink:href="#DejaVuSans-2212"/>
       <use x="83.789062" xlink:href="#DejaVuSans-31"/>
       <use x="147.412109" xlink:href="#DejaVuSans-30"/>
      </g>
     </g>
    </g>
    <g id="ytick_3">
     <g id="line2d_13">
      <g>
       <use style="fill:#262626;stroke:#262626;" x="70.992344" xlink:href="#mf60dee508f" y="207.342857"/>
      </g>
     </g>
     <g id="text_13">
      <!-- 0 -->
      <g style="fill:#262626;" transform="translate(49.721094 212.281842)scale(0.13 -0.13)">
       <use xlink:href="#DejaVuSans-30"/>
      </g>
     </g>
    </g>
    <g id="ytick_4">
     <g id="line2d_14">
      <g>
       <use style="fill:#262626;stroke:#262626;" x="70.992344" xlink:href="#mf60dee508f" y="168.514286"/>
      </g>
     </g>
     <g id="text_14">
      <!-- 10 -->
      <g style="fill:#262626;" transform="translate(41.449844 173.45327)scale(0.13 -0.13)">
       <use xlink:href="#DejaVuSans-31"/>
       <use x="63.623047" xlink:href="#DejaVuSans-30"/>
      </g>
     </g>
    </g>
    <g id="ytick_5">
     <g id="line2d_15">
      <g>
       <use style="fill:#262626;stroke:#262626;" x="70.992344" xlink:href="#mf60dee508f" y="129.685714"/>
      </g>
     </g>
     <g id="text_15">
      <!-- 20 -->
      <g style="fill:#262626;" transform="translate(41.449844 134.624699)scale(0.13 -0.13)">
       <use xlink:href="#DejaVuSans-32"/>
       <use x="63.623047" xlink:href="#DejaVuSans-30"/>
      </g>
     </g>
    </g>
    <g id="ytick_6">
     <g id="line2d_16">
      <g>
       <use style="fill:#262626;stroke:#262626;" x="70.992344" xlink:href="#mf60dee508f" y="90.857143"/>
      </g>
     </g>
     <g id="text_16">
      <!-- 30 -->
      <g style="fill:#262626;" transform="translate(41.449844 95.796127)scale(0.13 -0.13)">
       <use xlink:href="#DejaVuSans-33"/>
       <use x="63.623047" xlink:href="#DejaVuSans-30"/>
      </g>
     </g>
    </g>
    <g id="ytick_7">
     <g id="line2d_17">
      <g>
       <use style="fill:#262626;stroke:#262626;" x="70.992344" xlink:href="#mf60dee508f" y="52.028571"/>
      </g>
     </g>
     <g id="text_17">
      <!-- 40 -->
      <g style="fill:#262626;" transform="translate(41.449844 56.967556)scale(0.13 -0.13)">
       <use xlink:href="#DejaVuSans-34"/>
       <use x="63.623047" xlink:href="#DejaVuSans-30"/>
      </g>
     </g>
    </g>
    <g id="ytick_8">
     <g id="line2d_18">
      <g>
       <use style="fill:#262626;stroke:#262626;" x="70.992344" xlink:href="#mf60dee508f" y="13.2"/>
      </g>
     </g>
     <g id="text_18">
      <!-- 50 -->
      <g style="fill:#262626;" transform="translate(41.449844 18.138984)scale(0.13 -0.13)">
       <use xlink:href="#DejaVuSans-35"/>
       <use x="63.623047" xlink:href="#DejaVuSans-30"/>
      </g>
     </g>
    </g>
    <g id="text_19">
     <!-- Growth in # of Articles (%) -->
     <defs>
      <path d="M 59.515625 10.40625 
L 59.515625 29.984375 
L 43.40625 29.984375 
L 43.40625 38.09375 
L 69.28125 38.09375 
L 69.28125 6.78125 
Q 63.578125 2.734375 56.6875 0.65625 
Q 49.8125 -1.421875 42 -1.421875 
Q 24.90625 -1.421875 15.25 8.5625 
Q 5.609375 18.5625 5.609375 36.375 
Q 5.609375 54.25 15.25 64.234375 
Q 24.90625 74.21875 42 74.21875 
Q 49.125 74.21875 55.546875 72.453125 
Q 61.96875 70.703125 67.390625 67.28125 
L 67.390625 56.78125 
Q 61.921875 61.421875 55.765625 63.765625 
Q 49.609375 66.109375 42.828125 66.109375 
Q 29.4375 66.109375 22.71875 58.640625 
Q 16.015625 51.171875 16.015625 36.375 
Q 16.015625 21.625 22.71875 14.15625 
Q 29.4375 6.6875 42.828125 6.6875 
Q 48.046875 6.6875 52.140625 7.59375 
Q 56.25 8.5 59.515625 10.40625 
z
" id="DejaVuSans-47"/>
      <path d="M 4.203125 54.6875 
L 13.1875 54.6875 
L 24.421875 12.015625 
L 35.59375 54.6875 
L 46.1875 54.6875 
L 57.421875 12.015625 
L 68.609375 54.6875 
L 77.59375 54.6875 
L 63.28125 0 
L 52.6875 0 
L 40.921875 44.828125 
L 29.109375 0 
L 18.5 0 
z
" id="DejaVuSans-77"/>
      <path d="M 54.890625 33.015625 
L 54.890625 0 
L 45.90625 0 
L 45.90625 32.71875 
Q 45.90625 40.484375 42.875 44.328125 
Q 39.84375 48.1875 33.796875 48.1875 
Q 26.515625 48.1875 22.3125 43.546875 
Q 18.109375 38.921875 18.109375 30.90625 
L 18.109375 0 
L 9.078125 0 
L 9.078125 75.984375 
L 18.109375 75.984375 
L 18.109375 46.1875 
Q 21.34375 51.125 25.703125 53.5625 
Q 30.078125 56 35.796875 56 
Q 45.21875 56 50.046875 50.171875 
Q 54.890625 44.34375 54.890625 33.015625 
z
" id="DejaVuSans-68"/>
      <path d="M 51.125 44 
L 36.921875 44 
L 32.8125 27.6875 
L 47.125 27.6875 
z
M 43.796875 71.78125 
L 38.71875 51.515625 
L 52.984375 51.515625 
L 58.109375 71.78125 
L 65.921875 71.78125 
L 60.890625 51.515625 
L 76.125 51.515625 
L 76.125 44 
L 58.984375 44 
L 54.984375 27.6875 
L 70.515625 27.6875 
L 70.515625 20.21875 
L 53.078125 20.21875 
L 48 0 
L 40.1875 0 
L 45.21875 20.21875 
L 30.90625 20.21875 
L 25.875 0 
L 18.015625 0 
L 23.09375 20.21875 
L 7.71875 20.21875 
L 7.71875 27.6875 
L 24.90625 27.6875 
L 29 44 
L 13.28125 44 
L 13.28125 51.515625 
L 30.90625 51.515625 
L 35.890625 71.78125 
z
" id="DejaVuSans-23"/>
      <path d="M 37.109375 75.984375 
L 37.109375 68.5 
L 28.515625 68.5 
Q 23.6875 68.5 21.796875 66.546875 
Q 19.921875 64.59375 19.921875 59.515625 
L 19.921875 54.6875 
L 34.71875 54.6875 
L 34.71875 47.703125 
L 19.921875 47.703125 
L 19.921875 0 
L 10.890625 0 
L 10.890625 47.703125 
L 2.296875 47.703125 
L 2.296875 54.6875 
L 10.890625 54.6875 
L 10.890625 58.5 
Q 10.890625 67.625 15.140625 71.796875 
Q 19.390625 75.984375 28.609375 75.984375 
z
" id="DejaVuSans-66"/>
      <path d="M 34.1875 63.1875 
L 20.796875 26.90625 
L 47.609375 26.90625 
z
M 28.609375 72.90625 
L 39.796875 72.90625 
L 67.578125 0 
L 57.328125 0 
L 50.6875 18.703125 
L 17.828125 18.703125 
L 11.1875 0 
L 0.78125 0 
z
" id="DejaVuSans-41"/>
      <path d="M 44.28125 53.078125 
L 44.28125 44.578125 
Q 40.484375 46.53125 36.375 47.5 
Q 32.28125 48.484375 27.875 48.484375 
Q 21.1875 48.484375 17.84375 46.4375 
Q 14.5 44.390625 14.5 40.28125 
Q 14.5 37.15625 16.890625 35.375 
Q 19.28125 33.59375 26.515625 31.984375 
L 29.59375 31.296875 
Q 39.15625 29.25 43.1875 25.515625 
Q 47.21875 21.78125 47.21875 15.09375 
Q 47.21875 7.46875 41.1875 3.015625 
Q 35.15625 -1.421875 24.609375 -1.421875 
Q 20.21875 -1.421875 15.453125 -0.5625 
Q 10.6875 0.296875 5.421875 2 
L 5.421875 11.28125 
Q 10.40625 8.6875 15.234375 7.390625 
Q 20.0625 6.109375 24.8125 6.109375 
Q 31.15625 6.109375 34.5625 8.28125 
Q 37.984375 10.453125 37.984375 14.40625 
Q 37.984375 18.0625 35.515625 20.015625 
Q 33.0625 21.96875 24.703125 23.78125 
L 21.578125 24.515625 
Q 13.234375 26.265625 9.515625 29.90625 
Q 5.8125 33.546875 5.8125 39.890625 
Q 5.8125 47.609375 11.28125 51.796875 
Q 16.75 56 26.8125 56 
Q 31.78125 56 36.171875 55.265625 
Q 40.578125 54.546875 44.28125 53.078125 
z
" id="DejaVuSans-73"/>
      <path d="M 31 75.875 
Q 24.46875 64.65625 21.28125 53.65625 
Q 18.109375 42.671875 18.109375 31.390625 
Q 18.109375 20.125 21.3125 9.0625 
Q 24.515625 -2 31 -13.1875 
L 23.1875 -13.1875 
Q 15.875 -1.703125 12.234375 9.375 
Q 8.59375 20.453125 8.59375 31.390625 
Q 8.59375 42.28125 12.203125 53.3125 
Q 15.828125 64.359375 23.1875 75.875 
z
" id="DejaVuSans-28"/>
      <path d="M 72.703125 32.078125 
Q 68.453125 32.078125 66.03125 28.46875 
Q 63.625 24.859375 63.625 18.40625 
Q 63.625 12.0625 66.03125 8.421875 
Q 68.453125 4.78125 72.703125 4.78125 
Q 76.859375 4.78125 79.265625 8.421875 
Q 81.6875 12.0625 81.6875 18.40625 
Q 81.6875 24.8125 79.265625 28.4375 
Q 76.859375 32.078125 72.703125 32.078125 
z
M 72.703125 38.28125 
Q 80.421875 38.28125 84.953125 32.90625 
Q 89.5 27.546875 89.5 18.40625 
Q 89.5 9.28125 84.9375 3.921875 
Q 80.375 -1.421875 72.703125 -1.421875 
Q 64.890625 -1.421875 60.34375 3.921875 
Q 55.8125 9.28125 55.8125 18.40625 
Q 55.8125 27.59375 60.375 32.9375 
Q 64.9375 38.28125 72.703125 38.28125 
z
M 22.3125 68.015625 
Q 18.109375 68.015625 15.6875 64.375 
Q 13.28125 60.75 13.28125 54.390625 
Q 13.28125 47.953125 15.671875 44.328125 
Q 18.0625 40.71875 22.3125 40.71875 
Q 26.5625 40.71875 28.96875 44.328125 
Q 31.390625 47.953125 31.390625 54.390625 
Q 31.390625 60.6875 28.953125 64.34375 
Q 26.515625 68.015625 22.3125 68.015625 
z
M 66.40625 74.21875 
L 74.21875 74.21875 
L 28.609375 -1.421875 
L 20.796875 -1.421875 
z
M 22.3125 74.21875 
Q 30.03125 74.21875 34.609375 68.875 
Q 39.203125 63.53125 39.203125 54.390625 
Q 39.203125 45.171875 34.640625 39.84375 
Q 30.078125 34.515625 22.3125 34.515625 
Q 14.546875 34.515625 10.03125 39.859375 
Q 5.515625 45.21875 5.515625 54.390625 
Q 5.515625 63.484375 10.046875 68.84375 
Q 14.59375 74.21875 22.3125 74.21875 
z
" id="DejaVuSans-25"/>
      <path d="M 8.015625 75.875 
L 15.828125 75.875 
Q 23.140625 64.359375 26.78125 53.3125 
Q 30.421875 42.28125 30.421875 31.390625 
Q 30.421875 20.453125 26.78125 9.375 
Q 23.140625 -1.703125 15.828125 -13.1875 
L 8.015625 -13.1875 
Q 14.5 -2 17.703125 9.0625 
Q 20.90625 20.125 20.90625 31.390625 
Q 20.90625 42.671875 17.703125 53.65625 
Q 14.5 64.65625 8.015625 75.875 
z
" id="DejaVuSans-29"/>
     </defs>
     <g style="fill:#262626;" transform="translate(22.396875 283.129687)rotate(-90)scale(0.2 -0.2)">
      <use xlink:href="#DejaVuSans-47"/>
      <use x="77.490234" xlink:href="#DejaVuSans-72"/>
      <use x="118.572266" xlink:href="#DejaVuSans-6f"/>
      <use x="179.753906" xlink:href="#DejaVuSans-77"/>
      <use x="261.541016" xlink:href="#DejaVuSans-74"/>
      <use x="300.75" xlink:href="#DejaVuSans-68"/>
      <use x="364.128906" xlink:href="#DejaVuSans-20"/>
      <use x="395.916016" xlink:href="#DejaVuSans-69"/>
      <use x="423.699219" xlink:href="#DejaVuSans-6e"/>
      <use x="487.078125" xlink:href="#DejaVuSans-20"/>
      <use x="518.865234" xlink:href="#DejaVuSans-23"/>
      <use x="602.654297" xlink:href="#DejaVuSans-20"/>
      <use x="634.441406" xlink:href="#DejaVuSans-6f"/>
      <use x="695.623047" xlink:href="#DejaVuSans-66"/>
      <use x="730.828125" xlink:href="#DejaVuSans-20"/>
      <use x="762.615234" xlink:href="#DejaVuSans-41"/>
      <use x="831.023438" xlink:href="#DejaVuSans-72"/>
      <use x="872.136719" xlink:href="#DejaVuSans-74"/>
      <use x="911.345703" xlink:href="#DejaVuSans-69"/>
      <use x="939.128906" xlink:href="#DejaVuSans-63"/>
      <use x="994.109375" xlink:href="#DejaVuSans-6c"/>
      <use x="1021.892578" xlink:href="#DejaVuSans-65"/>
      <use x="1083.416016" xlink:href="#DejaVuSans-73"/>
      <use x="1135.515625" xlink:href="#DejaVuSans-20"/>
      <use x="1167.302734" xlink:href="#DejaVuSans-28"/>
      <use x="1206.316406" xlink:href="#DejaVuSans-25"/>
      <use x="1301.335938" xlink:href="#DejaVuSans-29"/>
     </g>
    </g>
   </g>
   <g id="PolyCollection_2">
    <path clip-path="url(#p2978f6df38)" d="M -7.127656 180.882538 
L -7.127656 263.201459 
L -0.617656 320.34985 
L 5.892344 358.041375 
L 12.402344 353.446501 
L 18.912344 330.518562 
L 25.422344 298.958295 
L 31.932344 270.907571 
L 38.442344 250.511549 
L 44.952344 234.251616 
L 51.462344 220.691461 
L 57.972344 211.133119 
L 64.482344 205.959565 
L 70.992344 203.229748 
L 77.502344 198.787269 
L 84.012344 194.473553 
L 90.522344 195.912397 
L 97.032344 202.907232 
L 103.542344 212.046854 
L 110.052344 220.635039 
L 116.562344 225.83576 
L 123.072344 226.755246 
L 129.582344 226.040036 
L 136.092344 226.443973 
L 142.602344 227.780259 
L 149.112344 228.378129 
L 155.622344 227.196372 
L 162.132344 224.77672 
L 168.642344 222.392818 
L 175.152344 221.6179 
L 181.662344 222.986613 
L 188.172344 225.370414 
L 194.682344 226.693387 
L 201.192344 225.844923 
L 207.702344 224.316313 
L 214.212344 224.838085 
L 220.722344 228.361374 
L 227.232344 232.898907 
L 233.742344 236.357084 
L 240.252344 238.441438 
L 246.762344 239.739629 
L 253.272344 241.477527 
L 259.782344 244.661428 
L 266.292344 249.894302 
L 272.802344 257.028006 
L 279.312344 263.481998 
L 285.822344 265.869577 
L 292.332344 263.1643 
L 298.842344 257.459901 
L 305.352344 251.058493 
L 311.862344 243.306646 
L 318.372344 233.059275 
L 324.882344 221.922386 
L 331.392344 213.252901 
L 337.902344 209.563453 
L 344.412344 209.138123 
L 350.922344 207.080089 
L 357.432344 201.794304 
L 363.942344 196.049177 
L 370.452344 191.454796 
L 376.962344 187.165165 
L 383.472344 182.21672 
L 389.982344 175.490369 
L 396.492344 166.860649 
L 403.002344 158.998318 
L 409.512344 154.90078 
L 416.022344 153.88654 
L 422.532344 155.254815 
L 429.042344 161.050731 
L 435.552344 170.197197 
L 442.062344 178.250713 
L 448.572344 182.899995 
L 455.082344 184.165793 
L 461.592344 182.052205 
L 468.102344 178.986708 
L 474.612344 179.287109 
L 481.122344 185.37456 
L 487.632344 197.480814 
L 494.142344 211.186404 
L 500.652344 211.539757 
L 507.162344 203.996966 
L 513.672344 210.101514 
L 520.182344 208.86935 
L 526.692344 186.205549 
L 533.202344 152.47605 
L 539.712344 142.734886 
L 546.222344 158.319439 
L 552.732344 163.605189 
L 559.242344 160.135774 
L 565.752344 260.135817 
L 572.262344 859.791868 
L 578.772344 2599.187897 
L 585.282344 760.227399 
L 591.792344 167.559515 
L 598.302344 71.734904 
L 604.812344 27.79279 
L 611.322344 -10.608601 
L 617.832344 -44.993424 
L 624.342344 -74.953569 
L 630.852344 -95.375226 
L 637.362344 -102.218305 
L 637.362344 -560.726347 
L 637.362344 -560.726347 
L 630.852344 -486.863264 
L 624.342344 -391.31373 
L 617.832344 -289.934353 
L 611.322344 -204.081219 
L 604.812344 -152.161565 
L 598.302344 -126.923532 
L 591.792344 -136.685261 
L 585.282344 -469.212418 
L 578.772344 -1725.34499 
L 572.262344 -361.886385 
L 565.752344 -162.404027 
L 559.242344 -162.202126 
L 552.732344 -109.955533 
L 546.222344 -54.386312 
L 539.712344 -20.684267 
L 533.202344 -4.872456 
L 526.692344 19.555884 
L 520.182344 51.366841 
L 513.672344 67.567353 
L 507.162344 64.152176 
L 500.652344 47.712048 
L 494.142344 43.331279 
L 487.632344 51.750279 
L 481.122344 58.214217 
L 474.612344 60.713639 
L 468.102344 65.31672 
L 461.592344 76.137067 
L 455.082344 87.459811 
L 448.572344 93.033363 
L 442.062344 93.622767 
L 435.552344 92.511914 
L 429.042344 92.220279 
L 422.532344 93.749325 
L 416.022344 94.914386 
L 409.512344 95.219915 
L 403.002344 97.760497 
L 396.492344 103.631352 
L 389.982344 110.3495 
L 383.472344 115.592882 
L 376.962344 119.585206 
L 370.452344 123.784117 
L 363.942344 128.933133 
L 357.432344 134.759937 
L 350.922344 140.045006 
L 344.412344 143.251435 
L 337.902344 145.694174 
L 331.392344 151.351577 
L 324.882344 162.056979 
L 318.372344 176.446802 
L 311.862344 192.164856 
L 305.352344 206.572619 
L 298.842344 218.29691 
L 292.332344 227.671087 
L 285.822344 233.574036 
L 279.312344 233.536202 
L 272.802344 228.319117 
L 266.292344 222.327406 
L 259.782344 218.35571 
L 253.272344 216.240467 
L 246.762344 215.304288 
L 240.252344 214.662943 
L 233.742344 212.734912 
L 227.232344 208.872372 
L 220.722344 204.633795 
L 214.212344 201.963906 
L 207.702344 201.486669 
L 201.192344 202.613749 
L 194.682344 204.118032 
L 188.172344 204.369254 
L 181.662344 201.989856 
L 175.152344 197.819278 
L 168.642344 195.00107 
L 162.132344 195.71495 
L 155.622344 198.00003 
L 149.112344 198.050496 
L 142.602344 195.079165 
L 136.092344 191.249642 
L 129.582344 190.066284 
L 123.072344 193.067182 
L 116.562344 197.030539 
L 110.052344 197.419888 
L 103.542344 193.156362 
L 97.032344 185.159661 
L 90.522344 176.427058 
L 84.012344 172.3671 
L 77.502344 174.833863 
L 70.992344 178.896766 
L 64.482344 179.896722 
L 57.972344 180.611376 
L 51.462344 182.40843 
L 44.952344 178.458547 
L 38.442344 167.607747 
L 31.932344 158.754428 
L 25.422344 161.753197 
L 18.912344 179.832588 
L 12.402344 203.172504 
L 5.892344 208.591921 
L -0.617656 196.620012 
L -7.127656 180.882538 
z
" style="fill:#4c72b0;fill-opacity:0.2;stroke:#4c72b0;stroke-opacity:0.2;"/>
   </g>
   <g id="patch_3">
    <path d="M 70.992344 285 
L 70.992344 13.2 
" style="fill:none;stroke:#000000;stroke-linecap:square;stroke-linejoin:miter;stroke-width:0.8;"/>
   </g>
   <g id="patch_4">
    <path d="M 70.992344 285 
L 461.592344 285 
" style="fill:none;stroke:#000000;stroke-linecap:square;stroke-linejoin:miter;stroke-width:0.8;"/>
   </g>
   <g id="line2d_19">
    <path clip-path="url(#p2978f6df38)" d="M -1 256.344573 
L -0.617656 258.484931 
L 5.892344 283.316648 
L 12.402344 278.309503 
L 18.912344 255.175575 
L 25.422344 230.355746 
L 31.932344 214.831 
L 38.442344 209.059648 
L 44.952344 206.355082 
L 51.462344 201.549946 
L 57.972344 195.872248 
L 64.482344 192.928144 
L 70.992344 191.063257 
L 77.502344 186.810566 
L 84.012344 183.420326 
L 90.522344 186.169727 
L 97.032344 194.033446 
L 103.542344 202.601608 
L 110.052344 209.027464 
L 116.562344 211.43315 
L 123.072344 209.911214 
L 129.582344 208.05316 
L 136.092344 208.846807 
L 142.602344 211.429712 
L 149.112344 213.214312 
L 155.622344 212.598201 
L 162.132344 210.245835 
L 168.642344 208.696944 
L 175.152344 209.718589 
L 181.662344 212.488235 
L 188.172344 214.869834 
L 194.682344 215.405709 
L 201.192344 214.229336 
L 207.702344 212.901491 
L 214.212344 213.400995 
L 220.722344 216.497585 
L 227.232344 220.885639 
L 233.742344 224.545998 
L 240.252344 226.55219 
L 246.762344 227.521958 
L 253.272344 228.858997 
L 259.782344 231.508569 
L 266.292344 236.110854 
L 272.802344 242.673562 
L 279.312344 248.5091 
L 285.822344 249.721807 
L 292.332344 245.417694 
L 298.842344 237.878406 
L 305.352344 228.815556 
L 311.862344 217.735751 
L 318.372344 204.753039 
L 324.882344 191.989683 
L 331.392344 182.302239 
L 337.902344 177.628814 
L 344.412344 176.194779 
L 350.922344 173.562548 
L 357.432344 168.277121 
L 363.942344 162.491155 
L 370.452344 157.619457 
L 376.962344 153.375185 
L 383.472344 148.904801 
L 389.982344 142.919934 
L 396.492344 135.246001 
L 403.002344 128.379408 
L 409.512344 125.060347 
L 416.022344 124.400463 
L 422.532344 124.50207 
L 429.042344 126.635505 
L 435.552344 131.354556 
L 442.062344 135.93674 
L 448.572344 137.966679 
L 455.082344 135.812802 
L 461.592344 129.094636 
L 468.102344 122.151714 
L 474.612344 120.000374 
L 481.122344 121.794389 
L 484.265 123.156283 
" style="fill:none;stroke:#4c72b0;stroke-linecap:square;stroke-width:1.5;"/>
   </g>
  </g>
 </g>
 <defs>
  <clipPath id="p2978f6df38">
   <rect height="271.8" width="390.6" x="70.992344" y="13.2"/>
  </clipPath>
 </defs>
</svg>
