<?xml version="1.0" encoding="utf-8" standalone="no"?>
<!DOCTYPE svg PUBLIC "-//W3C//DTD SVG 1.1//EN"
  "http://www.w3.org/Graphics/SVG/1.1/DTD/svg11.dtd">
<!-- Created with matplotlib (http://matplotlib.org/) -->
<svg height="356pt" version="1.1" viewBox="0 0 805 356" width="805pt" xmlns="http://www.w3.org/2000/svg" xmlns:xlink="http://www.w3.org/1999/xlink">
 <defs>
  <style type="text/css">
*{stroke-linecap:butt;stroke-linejoin:round;}
  </style>
 </defs>
 <g id="figure_1">
  <g id="patch_1">
   <path d="M 0 356.334687 
L 805.03625 356.334687 
L 805.03625 0 
L 0 0 
z
" style="fill:#ffffff;"/>
  </g>
  <g id="axes_1">
   <g id="patch_2">
    <path d="M 66.43625 300.196875 
L 396.163523 300.196875 
L 396.163523 28.396875 
L 66.43625 28.396875 
z
" style="fill:#ffffff;"/>
   </g>
   <g id="matplotlib.axis_1">
    <g id="xtick_1">
     <g id="line2d_1">
      <defs>
       <path d="M 0 0 
L 0 6 
" id="mfcef1195e4" style="stroke:#262626;"/>
      </defs>
      <g>
       <use style="fill:#262626;stroke:#262626;" x="66.43625" xlink:href="#mfcef1195e4" y="300.196875"/>
      </g>
     </g>
     <g id="text_1">
      <!-- 2001 -->
      <defs>
       <path d="M 19.1875 8.296875 
L 53.609375 8.296875 
L 53.609375 0 
L 7.328125 0 
L 7.328125 8.296875 
Q 12.9375 14.109375 22.625 23.890625 
Q 32.328125 33.6875 34.8125 36.53125 
Q 39.546875 41.84375 41.421875 45.53125 
Q 43.3125 49.21875 43.3125 52.78125 
Q 43.3125 58.59375 39.234375 62.25 
Q 35.15625 65.921875 28.609375 65.921875 
Q 23.96875 65.921875 18.8125 64.3125 
Q 13.671875 62.703125 7.8125 59.421875 
L 7.8125 69.390625 
Q 13.765625 71.78125 18.9375 73 
Q 24.125 74.21875 28.421875 74.21875 
Q 39.75 74.21875 46.484375 68.546875 
Q 53.21875 62.890625 53.21875 53.421875 
Q 53.21875 48.921875 51.53125 44.890625 
Q 49.859375 40.875 45.40625 35.40625 
Q 44.1875 33.984375 37.640625 27.21875 
Q 31.109375 20.453125 19.1875 8.296875 
z
" id="DejaVuSans-32"/>
       <path d="M 31.78125 66.40625 
Q 24.171875 66.40625 20.328125 58.90625 
Q 16.5 51.421875 16.5 36.375 
Q 16.5 21.390625 20.328125 13.890625 
Q 24.171875 6.390625 31.78125 6.390625 
Q 39.453125 6.390625 43.28125 13.890625 
Q 47.125 21.390625 47.125 36.375 
Q 47.125 51.421875 43.28125 58.90625 
Q 39.453125 66.40625 31.78125 66.40625 
z
M 31.78125 74.21875 
Q 44.046875 74.21875 50.515625 64.515625 
Q 56.984375 54.828125 56.984375 36.375 
Q 56.984375 17.96875 50.515625 8.265625 
Q 44.046875 -1.421875 31.78125 -1.421875 
Q 19.53125 -1.421875 13.0625 8.265625 
Q 6.59375 17.96875 6.59375 36.375 
Q 6.59375 54.828125 13.0625 64.515625 
Q 19.53125 74.21875 31.78125 74.21875 
z
" id="DejaVuSans-30"/>
       <path d="M 12.40625 8.296875 
L 28.515625 8.296875 
L 28.515625 63.921875 
L 10.984375 60.40625 
L 10.984375 69.390625 
L 28.421875 72.90625 
L 38.28125 72.90625 
L 38.28125 8.296875 
L 54.390625 8.296875 
L 54.390625 0 
L 12.40625 0 
z
" id="DejaVuSans-31"/>
      </defs>
      <g style="fill:#262626;" transform="translate(49.89375 323.074844)scale(0.13 -0.13)">
       <use xlink:href="#DejaVuSans-32"/>
       <use x="63.623047" xlink:href="#DejaVuSans-30"/>
       <use x="127.246094" xlink:href="#DejaVuSans-30"/>
       <use x="190.869141" xlink:href="#DejaVuSans-31"/>
      </g>
     </g>
    </g>
    <g id="xtick_2">
     <g id="line2d_2">
      <g>
       <use style="fill:#262626;stroke:#262626;" x="113.822205" xlink:href="#mfcef1195e4" y="300.196875"/>
      </g>
     </g>
     <g id="text_2">
      <!-- 2003 -->
      <defs>
       <path d="M 40.578125 39.3125 
Q 47.65625 37.796875 51.625 33 
Q 55.609375 28.21875 55.609375 21.1875 
Q 55.609375 10.40625 48.1875 4.484375 
Q 40.765625 -1.421875 27.09375 -1.421875 
Q 22.515625 -1.421875 17.65625 -0.515625 
Q 12.796875 0.390625 7.625 2.203125 
L 7.625 11.71875 
Q 11.71875 9.328125 16.59375 8.109375 
Q 21.484375 6.890625 26.8125 6.890625 
Q 36.078125 6.890625 40.9375 10.546875 
Q 45.796875 14.203125 45.796875 21.1875 
Q 45.796875 27.640625 41.28125 31.265625 
Q 36.765625 34.90625 28.71875 34.90625 
L 20.21875 34.90625 
L 20.21875 43.015625 
L 29.109375 43.015625 
Q 36.375 43.015625 40.234375 45.921875 
Q 44.09375 48.828125 44.09375 54.296875 
Q 44.09375 59.90625 40.109375 62.90625 
Q 36.140625 65.921875 28.71875 65.921875 
Q 24.65625 65.921875 20.015625 65.03125 
Q 15.375 64.15625 9.8125 62.3125 
L 9.8125 71.09375 
Q 15.4375 72.65625 20.34375 73.4375 
Q 25.25 74.21875 29.59375 74.21875 
Q 40.828125 74.21875 47.359375 69.109375 
Q 53.90625 64.015625 53.90625 55.328125 
Q 53.90625 49.265625 50.4375 45.09375 
Q 46.96875 40.921875 40.578125 39.3125 
z
" id="DejaVuSans-33"/>
      </defs>
      <g style="fill:#262626;" transform="translate(97.279705 323.074844)scale(0.13 -0.13)">
       <use xlink:href="#DejaVuSans-32"/>
       <use x="63.623047" xlink:href="#DejaVuSans-30"/>
       <use x="127.246094" xlink:href="#DejaVuSans-30"/>
       <use x="190.869141" xlink:href="#DejaVuSans-33"/>
      </g>
     </g>
    </g>
    <g id="xtick_3">
     <g id="line2d_3">
      <g>
       <use style="fill:#262626;stroke:#262626;" x="161.208161" xlink:href="#mfcef1195e4" y="300.196875"/>
      </g>
     </g>
     <g id="text_3">
      <!-- 2005 -->
      <defs>
       <path d="M 10.796875 72.90625 
L 49.515625 72.90625 
L 49.515625 64.59375 
L 19.828125 64.59375 
L 19.828125 46.734375 
Q 21.96875 47.46875 24.109375 47.828125 
Q 26.265625 48.1875 28.421875 48.1875 
Q 40.625 48.1875 47.75 41.5 
Q 54.890625 34.8125 54.890625 23.390625 
Q 54.890625 11.625 47.5625 5.09375 
Q 40.234375 -1.421875 26.90625 -1.421875 
Q 22.3125 -1.421875 17.546875 -0.640625 
Q 12.796875 0.140625 7.71875 1.703125 
L 7.71875 11.625 
Q 12.109375 9.234375 16.796875 8.0625 
Q 21.484375 6.890625 26.703125 6.890625 
Q 35.15625 6.890625 40.078125 11.328125 
Q 45.015625 15.765625 45.015625 23.390625 
Q 45.015625 31 40.078125 35.4375 
Q 35.15625 39.890625 26.703125 39.890625 
Q 22.75 39.890625 18.8125 39.015625 
Q 14.890625 38.140625 10.796875 36.28125 
z
" id="DejaVuSans-35"/>
      </defs>
      <g style="fill:#262626;" transform="translate(144.665661 323.074844)scale(0.13 -0.13)">
       <use xlink:href="#DejaVuSans-32"/>
       <use x="63.623047" xlink:href="#DejaVuSans-30"/>
       <use x="127.246094" xlink:href="#DejaVuSans-30"/>
       <use x="190.869141" xlink:href="#DejaVuSans-35"/>
      </g>
     </g>
    </g>
    <g id="xtick_4">
     <g id="line2d_4">
      <g>
       <use style="fill:#262626;stroke:#262626;" x="208.594116" xlink:href="#mfcef1195e4" y="300.196875"/>
      </g>
     </g>
     <g id="text_4">
      <!-- 2007 -->
      <defs>
       <path d="M 8.203125 72.90625 
L 55.078125 72.90625 
L 55.078125 68.703125 
L 28.609375 0 
L 18.3125 0 
L 43.21875 64.59375 
L 8.203125 64.59375 
z
" id="DejaVuSans-37"/>
      </defs>
      <g style="fill:#262626;" transform="translate(192.051616 323.074844)scale(0.13 -0.13)">
       <use xlink:href="#DejaVuSans-32"/>
       <use x="63.623047" xlink:href="#DejaVuSans-30"/>
       <use x="127.246094" xlink:href="#DejaVuSans-30"/>
       <use x="190.869141" xlink:href="#DejaVuSans-37"/>
      </g>
     </g>
    </g>
    <g id="xtick_5">
     <g id="line2d_5">
      <g>
       <use style="fill:#262626;stroke:#262626;" x="255.980071" xlink:href="#mfcef1195e4" y="300.196875"/>
      </g>
     </g>
     <g id="text_5">
      <!-- 2009 -->
      <defs>
       <path d="M 10.984375 1.515625 
L 10.984375 10.5 
Q 14.703125 8.734375 18.5 7.8125 
Q 22.3125 6.890625 25.984375 6.890625 
Q 35.75 6.890625 40.890625 13.453125 
Q 46.046875 20.015625 46.78125 33.40625 
Q 43.953125 29.203125 39.59375 26.953125 
Q 35.25 24.703125 29.984375 24.703125 
Q 19.046875 24.703125 12.671875 31.3125 
Q 6.296875 37.9375 6.296875 49.421875 
Q 6.296875 60.640625 12.9375 67.421875 
Q 19.578125 74.21875 30.609375 74.21875 
Q 43.265625 74.21875 49.921875 64.515625 
Q 56.59375 54.828125 56.59375 36.375 
Q 56.59375 19.140625 48.40625 8.859375 
Q 40.234375 -1.421875 26.421875 -1.421875 
Q 22.703125 -1.421875 18.890625 -0.6875 
Q 15.09375 0.046875 10.984375 1.515625 
z
M 30.609375 32.421875 
Q 37.25 32.421875 41.125 36.953125 
Q 45.015625 41.5 45.015625 49.421875 
Q 45.015625 57.28125 41.125 61.84375 
Q 37.25 66.40625 30.609375 66.40625 
Q 23.96875 66.40625 20.09375 61.84375 
Q 16.21875 57.28125 16.21875 49.421875 
Q 16.21875 41.5 20.09375 36.953125 
Q 23.96875 32.421875 30.609375 32.421875 
z
" id="DejaVuSans-39"/>
      </defs>
      <g style="fill:#262626;" transform="translate(239.437571 323.074844)scale(0.13 -0.13)">
       <use xlink:href="#DejaVuSans-32"/>
       <use x="63.623047" xlink:href="#DejaVuSans-30"/>
       <use x="127.246094" xlink:href="#DejaVuSans-30"/>
       <use x="190.869141" xlink:href="#DejaVuSans-39"/>
      </g>
     </g>
    </g>
    <g id="xtick_6">
     <g id="line2d_6">
      <g>
       <use style="fill:#262626;stroke:#262626;" x="303.366027" xlink:href="#mfcef1195e4" y="300.196875"/>
      </g>
     </g>
     <g id="text_6">
      <!-- 2011 -->
      <g style="fill:#262626;" transform="translate(286.823527 323.074844)scale(0.13 -0.13)">
       <use xlink:href="#DejaVuSans-32"/>
       <use x="63.623047" xlink:href="#DejaVuSans-30"/>
       <use x="127.246094" xlink:href="#DejaVuSans-31"/>
       <use x="190.869141" xlink:href="#DejaVuSans-31"/>
      </g>
     </g>
    </g>
    <g id="xtick_7">
     <g id="line2d_7">
      <g>
       <use style="fill:#262626;stroke:#262626;" x="350.751982" xlink:href="#mfcef1195e4" y="300.196875"/>
      </g>
     </g>
     <g id="text_7">
      <!-- 2013 -->
      <g style="fill:#262626;" transform="translate(334.209482 323.074844)scale(0.13 -0.13)">
       <use xlink:href="#DejaVuSans-32"/>
       <use x="63.623047" xlink:href="#DejaVuSans-30"/>
       <use x="127.246094" xlink:href="#DejaVuSans-31"/>
       <use x="190.869141" xlink:href="#DejaVuSans-33"/>
      </g>
     </g>
    </g>
    <g id="xtick_8">
     <g id="line2d_8">
      <defs>
       <path d="M 0 0 
L 0 3 
" id="m168d5f3948" style="stroke:#262626;stroke-width:0.5;"/>
      </defs>
      <g>
       <use style="fill:#262626;stroke:#262626;stroke-width:0.5;" x="66.43625" xlink:href="#m168d5f3948" y="300.196875"/>
      </g>
     </g>
    </g>
    <g id="xtick_9">
     <g id="line2d_9">
      <g>
       <use style="fill:#262626;stroke:#262626;stroke-width:0.5;" x="90.129228" xlink:href="#m168d5f3948" y="300.196875"/>
      </g>
     </g>
    </g>
    <g id="xtick_10">
     <g id="line2d_10">
      <g>
       <use style="fill:#262626;stroke:#262626;stroke-width:0.5;" x="113.822205" xlink:href="#m168d5f3948" y="300.196875"/>
      </g>
     </g>
    </g>
    <g id="xtick_11">
     <g id="line2d_11">
      <g>
       <use style="fill:#262626;stroke:#262626;stroke-width:0.5;" x="137.515183" xlink:href="#m168d5f3948" y="300.196875"/>
      </g>
     </g>
    </g>
    <g id="xtick_12">
     <g id="line2d_12">
      <g>
       <use style="fill:#262626;stroke:#262626;stroke-width:0.5;" x="161.208161" xlink:href="#m168d5f3948" y="300.196875"/>
      </g>
     </g>
    </g>
    <g id="xtick_13">
     <g id="line2d_13">
      <g>
       <use style="fill:#262626;stroke:#262626;stroke-width:0.5;" x="184.901138" xlink:href="#m168d5f3948" y="300.196875"/>
      </g>
     </g>
    </g>
    <g id="xtick_14">
     <g id="line2d_14">
      <g>
       <use style="fill:#262626;stroke:#262626;stroke-width:0.5;" x="208.594116" xlink:href="#m168d5f3948" y="300.196875"/>
      </g>
     </g>
    </g>
    <g id="xtick_15">
     <g id="line2d_15">
      <g>
       <use style="fill:#262626;stroke:#262626;stroke-width:0.5;" x="232.287094" xlink:href="#m168d5f3948" y="300.196875"/>
      </g>
     </g>
    </g>
    <g id="xtick_16">
     <g id="line2d_16">
      <g>
       <use style="fill:#262626;stroke:#262626;stroke-width:0.5;" x="255.980071" xlink:href="#m168d5f3948" y="300.196875"/>
      </g>
     </g>
    </g>
    <g id="xtick_17">
     <g id="line2d_17">
      <g>
       <use style="fill:#262626;stroke:#262626;stroke-width:0.5;" x="279.673049" xlink:href="#m168d5f3948" y="300.196875"/>
      </g>
     </g>
    </g>
    <g id="xtick_18">
     <g id="line2d_18">
      <g>
       <use style="fill:#262626;stroke:#262626;stroke-width:0.5;" x="303.366027" xlink:href="#m168d5f3948" y="300.196875"/>
      </g>
     </g>
    </g>
    <g id="xtick_19">
     <g id="line2d_19">
      <g>
       <use style="fill:#262626;stroke:#262626;stroke-width:0.5;" x="327.059004" xlink:href="#m168d5f3948" y="300.196875"/>
      </g>
     </g>
    </g>
    <g id="xtick_20">
     <g id="line2d_20">
      <g>
       <use style="fill:#262626;stroke:#262626;stroke-width:0.5;" x="350.751982" xlink:href="#m168d5f3948" y="300.196875"/>
      </g>
     </g>
    </g>
    <g id="xtick_21">
     <g id="line2d_21">
      <g>
       <use style="fill:#262626;stroke:#262626;stroke-width:0.5;" x="374.44496" xlink:href="#m168d5f3948" y="300.196875"/>
      </g>
     </g>
    </g>
    <g id="text_8">
     <!-- Date -->
     <defs>
      <path d="M 19.671875 64.796875 
L 19.671875 8.109375 
L 31.59375 8.109375 
Q 46.6875 8.109375 53.6875 14.9375 
Q 60.6875 21.78125 60.6875 36.53125 
Q 60.6875 51.171875 53.6875 57.984375 
Q 46.6875 64.796875 31.59375 64.796875 
z
M 9.8125 72.90625 
L 30.078125 72.90625 
Q 51.265625 72.90625 61.171875 64.09375 
Q 71.09375 55.28125 71.09375 36.53125 
Q 71.09375 17.671875 61.125 8.828125 
Q 51.171875 0 30.078125 0 
L 9.8125 0 
z
" id="DejaVuSans-44"/>
      <path d="M 34.28125 27.484375 
Q 23.390625 27.484375 19.1875 25 
Q 14.984375 22.515625 14.984375 16.5 
Q 14.984375 11.71875 18.140625 8.90625 
Q 21.296875 6.109375 26.703125 6.109375 
Q 34.1875 6.109375 38.703125 11.40625 
Q 43.21875 16.703125 43.21875 25.484375 
L 43.21875 27.484375 
z
M 52.203125 31.203125 
L 52.203125 0 
L 43.21875 0 
L 43.21875 8.296875 
Q 40.140625 3.328125 35.546875 0.953125 
Q 30.953125 -1.421875 24.3125 -1.421875 
Q 15.921875 -1.421875 10.953125 3.296875 
Q 6 8.015625 6 15.921875 
Q 6 25.140625 12.171875 29.828125 
Q 18.359375 34.515625 30.609375 34.515625 
L 43.21875 34.515625 
L 43.21875 35.40625 
Q 43.21875 41.609375 39.140625 45 
Q 35.0625 48.390625 27.6875 48.390625 
Q 23 48.390625 18.546875 47.265625 
Q 14.109375 46.140625 10.015625 43.890625 
L 10.015625 52.203125 
Q 14.9375 54.109375 19.578125 55.046875 
Q 24.21875 56 28.609375 56 
Q 40.484375 56 46.34375 49.84375 
Q 52.203125 43.703125 52.203125 31.203125 
z
" id="DejaVuSans-61"/>
      <path d="M 18.3125 70.21875 
L 18.3125 54.6875 
L 36.8125 54.6875 
L 36.8125 47.703125 
L 18.3125 47.703125 
L 18.3125 18.015625 
Q 18.3125 11.328125 20.140625 9.421875 
Q 21.96875 7.515625 27.59375 7.515625 
L 36.8125 7.515625 
L 36.8125 0 
L 27.59375 0 
Q 17.1875 0 13.234375 3.875 
Q 9.28125 7.765625 9.28125 18.015625 
L 9.28125 47.703125 
L 2.6875 47.703125 
L 2.6875 54.6875 
L 9.28125 54.6875 
L 9.28125 70.21875 
z
" id="DejaVuSans-74"/>
      <path d="M 56.203125 29.59375 
L 56.203125 25.203125 
L 14.890625 25.203125 
Q 15.484375 15.921875 20.484375 11.0625 
Q 25.484375 6.203125 34.421875 6.203125 
Q 39.59375 6.203125 44.453125 7.46875 
Q 49.3125 8.734375 54.109375 11.28125 
L 54.109375 2.78125 
Q 49.265625 0.734375 44.1875 -0.34375 
Q 39.109375 -1.421875 33.890625 -1.421875 
Q 20.796875 -1.421875 13.15625 6.1875 
Q 5.515625 13.8125 5.515625 26.8125 
Q 5.515625 40.234375 12.765625 48.109375 
Q 20.015625 56 32.328125 56 
Q 43.359375 56 49.78125 48.890625 
Q 56.203125 41.796875 56.203125 29.59375 
z
M 47.21875 32.234375 
Q 47.125 39.59375 43.09375 43.984375 
Q 39.0625 48.390625 32.421875 48.390625 
Q 24.90625 48.390625 20.390625 44.140625 
Q 15.875 39.890625 15.1875 32.171875 
z
" id="DejaVuSans-65"/>
     </defs>
     <g style="fill:#262626;" transform="translate(207.398324 344.975312)scale(0.2 -0.2)">
      <use xlink:href="#DejaVuSans-44"/>
      <use x="77.001953" xlink:href="#DejaVuSans-61"/>
      <use x="138.28125" xlink:href="#DejaVuSans-74"/>
      <use x="177.490234" xlink:href="#DejaVuSans-65"/>
     </g>
    </g>
   </g>
   <g id="matplotlib.axis_2">
    <g id="ytick_1">
     <g id="line2d_22">
      <defs>
       <path d="M 0 0 
L -6 0 
" id="mced8de1064" style="stroke:#262626;"/>
      </defs>
      <g>
       <use style="fill:#262626;stroke:#262626;" x="66.43625" xlink:href="#mced8de1064" y="287.84233"/>
      </g>
     </g>
     <g id="text_9">
      <!-- $\mathdefault{10^{0}}$ -->
      <g style="fill:#262626;" transform="translate(30.55625 292.781314)scale(0.13 -0.13)">
       <use transform="translate(0 0.765625)" xlink:href="#DejaVuSans-31"/>
       <use transform="translate(63.623047 0.765625)" xlink:href="#DejaVuSans-30"/>
       <use transform="translate(128.203125 39.046875)scale(0.7)" xlink:href="#DejaVuSans-30"/>
      </g>
     </g>
    </g>
    <g id="ytick_2">
     <g id="line2d_23">
      <g>
       <use style="fill:#262626;stroke:#262626;" x="66.43625" xlink:href="#mced8de1064" y="241.836658"/>
      </g>
     </g>
     <g id="text_10">
      <!-- $\mathdefault{10^{1}}$ -->
      <g style="fill:#262626;" transform="translate(30.55625 246.775643)scale(0.13 -0.13)">
       <use transform="translate(0 0.684375)" xlink:href="#DejaVuSans-31"/>
       <use transform="translate(63.623047 0.684375)" xlink:href="#DejaVuSans-30"/>
       <use transform="translate(128.203125 38.965625)scale(0.7)" xlink:href="#DejaVuSans-31"/>
      </g>
     </g>
    </g>
    <g id="ytick_3">
     <g id="line2d_24">
      <g>
       <use style="fill:#262626;stroke:#262626;" x="66.43625" xlink:href="#mced8de1064" y="195.830987"/>
      </g>
     </g>
     <g id="text_11">
      <!-- $\mathdefault{10^{2}}$ -->
      <g style="fill:#262626;" transform="translate(30.55625 200.769971)scale(0.13 -0.13)">
       <use transform="translate(0 0.765625)" xlink:href="#DejaVuSans-31"/>
       <use transform="translate(63.623047 0.765625)" xlink:href="#DejaVuSans-30"/>
       <use transform="translate(128.203125 39.046875)scale(0.7)" xlink:href="#DejaVuSans-32"/>
      </g>
     </g>
    </g>
    <g id="ytick_4">
     <g id="line2d_25">
      <g>
       <use style="fill:#262626;stroke:#262626;" x="66.43625" xlink:href="#mced8de1064" y="149.825315"/>
      </g>
     </g>
     <g id="text_12">
      <!-- $\mathdefault{10^{3}}$ -->
      <g style="fill:#262626;" transform="translate(30.55625 154.7643)scale(0.13 -0.13)">
       <use transform="translate(0 0.765625)" xlink:href="#DejaVuSans-31"/>
       <use transform="translate(63.623047 0.765625)" xlink:href="#DejaVuSans-30"/>
       <use transform="translate(128.203125 39.046875)scale(0.7)" xlink:href="#DejaVuSans-33"/>
      </g>
     </g>
    </g>
    <g id="ytick_5">
     <g id="line2d_26">
      <g>
       <use style="fill:#262626;stroke:#262626;" x="66.43625" xlink:href="#mced8de1064" y="103.819644"/>
      </g>
     </g>
     <g id="text_13">
      <!-- $\mathdefault{10^{4}}$ -->
      <defs>
       <path d="M 37.796875 64.3125 
L 12.890625 25.390625 
L 37.796875 25.390625 
z
M 35.203125 72.90625 
L 47.609375 72.90625 
L 47.609375 25.390625 
L 58.015625 25.390625 
L 58.015625 17.1875 
L 47.609375 17.1875 
L 47.609375 0 
L 37.796875 0 
L 37.796875 17.1875 
L 4.890625 17.1875 
L 4.890625 26.703125 
z
" id="DejaVuSans-34"/>
      </defs>
      <g style="fill:#262626;" transform="translate(30.55625 108.758628)scale(0.13 -0.13)">
       <use transform="translate(0 0.684375)" xlink:href="#DejaVuSans-31"/>
       <use transform="translate(63.623047 0.684375)" xlink:href="#DejaVuSans-30"/>
       <use transform="translate(128.203125 38.965625)scale(0.7)" xlink:href="#DejaVuSans-34"/>
      </g>
     </g>
    </g>
    <g id="ytick_6">
     <g id="line2d_27">
      <g>
       <use style="fill:#262626;stroke:#262626;" x="66.43625" xlink:href="#mced8de1064" y="57.813973"/>
      </g>
     </g>
     <g id="text_14">
      <!-- $\mathdefault{10^{5}}$ -->
      <g style="fill:#262626;" transform="translate(30.55625 62.752957)scale(0.13 -0.13)">
       <use transform="translate(0 0.684375)" xlink:href="#DejaVuSans-31"/>
       <use transform="translate(63.623047 0.684375)" xlink:href="#DejaVuSans-30"/>
       <use transform="translate(128.203125 38.965625)scale(0.7)" xlink:href="#DejaVuSans-35"/>
      </g>
     </g>
    </g>
    <g id="ytick_7">
     <g id="line2d_28">
      <defs>
       <path d="M 0 0 
L -3 0 
" id="m895ab7f603" style="stroke:#262626;stroke-width:0.5;"/>
      </defs>
      <g>
       <use style="fill:#262626;stroke:#262626;stroke-width:0.5;" x="66.43625" xlink:href="#m895ab7f603" y="298.04863"/>
      </g>
     </g>
    </g>
    <g id="ytick_8">
     <g id="line2d_29">
      <g>
       <use style="fill:#262626;stroke:#262626;stroke-width:0.5;" x="66.43625" xlink:href="#m895ab7f603" y="294.968698"/>
      </g>
     </g>
    </g>
    <g id="ytick_9">
     <g id="line2d_30">
      <g>
       <use style="fill:#262626;stroke:#262626;stroke-width:0.5;" x="66.43625" xlink:href="#m895ab7f603" y="292.30074"/>
      </g>
     </g>
    </g>
    <g id="ytick_10">
     <g id="line2d_31">
      <g>
       <use style="fill:#262626;stroke:#262626;stroke-width:0.5;" x="66.43625" xlink:href="#m895ab7f603" y="289.947434"/>
      </g>
     </g>
    </g>
    <g id="ytick_11">
     <g id="line2d_32">
      <g>
       <use style="fill:#262626;stroke:#262626;stroke-width:0.5;" x="66.43625" xlink:href="#m895ab7f603" y="273.993242"/>
      </g>
     </g>
    </g>
    <g id="ytick_12">
     <g id="line2d_33">
      <g>
       <use style="fill:#262626;stroke:#262626;stroke-width:0.5;" x="66.43625" xlink:href="#m895ab7f603" y="265.892046"/>
      </g>
     </g>
    </g>
    <g id="ytick_13">
     <g id="line2d_34">
      <g>
       <use style="fill:#262626;stroke:#262626;stroke-width:0.5;" x="66.43625" xlink:href="#m895ab7f603" y="260.144155"/>
      </g>
     </g>
    </g>
    <g id="ytick_14">
     <g id="line2d_35">
      <g>
       <use style="fill:#262626;stroke:#262626;stroke-width:0.5;" x="66.43625" xlink:href="#m895ab7f603" y="255.685745"/>
      </g>
     </g>
    </g>
    <g id="ytick_15">
     <g id="line2d_36">
      <g>
       <use style="fill:#262626;stroke:#262626;stroke-width:0.5;" x="66.43625" xlink:href="#m895ab7f603" y="252.042959"/>
      </g>
     </g>
    </g>
    <g id="ytick_16">
     <g id="line2d_37">
      <g>
       <use style="fill:#262626;stroke:#262626;stroke-width:0.5;" x="66.43625" xlink:href="#m895ab7f603" y="248.963027"/>
      </g>
     </g>
    </g>
    <g id="ytick_17">
     <g id="line2d_38">
      <g>
       <use style="fill:#262626;stroke:#262626;stroke-width:0.5;" x="66.43625" xlink:href="#m895ab7f603" y="246.295068"/>
      </g>
     </g>
    </g>
    <g id="ytick_18">
     <g id="line2d_39">
      <g>
       <use style="fill:#262626;stroke:#262626;stroke-width:0.5;" x="66.43625" xlink:href="#m895ab7f603" y="243.941762"/>
      </g>
     </g>
    </g>
    <g id="ytick_19">
     <g id="line2d_40">
      <g>
       <use style="fill:#262626;stroke:#262626;stroke-width:0.5;" x="66.43625" xlink:href="#m895ab7f603" y="227.987571"/>
      </g>
     </g>
    </g>
    <g id="ytick_20">
     <g id="line2d_41">
      <g>
       <use style="fill:#262626;stroke:#262626;stroke-width:0.5;" x="66.43625" xlink:href="#m895ab7f603" y="219.886374"/>
      </g>
     </g>
    </g>
    <g id="ytick_21">
     <g id="line2d_42">
      <g>
       <use style="fill:#262626;stroke:#262626;stroke-width:0.5;" x="66.43625" xlink:href="#m895ab7f603" y="214.138484"/>
      </g>
     </g>
    </g>
    <g id="ytick_22">
     <g id="line2d_43">
      <g>
       <use style="fill:#262626;stroke:#262626;stroke-width:0.5;" x="66.43625" xlink:href="#m895ab7f603" y="209.680074"/>
      </g>
     </g>
    </g>
    <g id="ytick_23">
     <g id="line2d_44">
      <g>
       <use style="fill:#262626;stroke:#262626;stroke-width:0.5;" x="66.43625" xlink:href="#m895ab7f603" y="206.037287"/>
      </g>
     </g>
    </g>
    <g id="ytick_24">
     <g id="line2d_45">
      <g>
       <use style="fill:#262626;stroke:#262626;stroke-width:0.5;" x="66.43625" xlink:href="#m895ab7f603" y="202.957355"/>
      </g>
     </g>
    </g>
    <g id="ytick_25">
     <g id="line2d_46">
      <g>
       <use style="fill:#262626;stroke:#262626;stroke-width:0.5;" x="66.43625" xlink:href="#m895ab7f603" y="200.289397"/>
      </g>
     </g>
    </g>
    <g id="ytick_26">
     <g id="line2d_47">
      <g>
       <use style="fill:#262626;stroke:#262626;stroke-width:0.5;" x="66.43625" xlink:href="#m895ab7f603" y="197.936091"/>
      </g>
     </g>
    </g>
    <g id="ytick_27">
     <g id="line2d_48">
      <g>
       <use style="fill:#262626;stroke:#262626;stroke-width:0.5;" x="66.43625" xlink:href="#m895ab7f603" y="181.9819"/>
      </g>
     </g>
    </g>
    <g id="ytick_28">
     <g id="line2d_49">
      <g>
       <use style="fill:#262626;stroke:#262626;stroke-width:0.5;" x="66.43625" xlink:href="#m895ab7f603" y="173.880703"/>
      </g>
     </g>
    </g>
    <g id="ytick_29">
     <g id="line2d_50">
      <g>
       <use style="fill:#262626;stroke:#262626;stroke-width:0.5;" x="66.43625" xlink:href="#m895ab7f603" y="168.132813"/>
      </g>
     </g>
    </g>
    <g id="ytick_30">
     <g id="line2d_51">
      <g>
       <use style="fill:#262626;stroke:#262626;stroke-width:0.5;" x="66.43625" xlink:href="#m895ab7f603" y="163.674402"/>
      </g>
     </g>
    </g>
    <g id="ytick_31">
     <g id="line2d_52">
      <g>
       <use style="fill:#262626;stroke:#262626;stroke-width:0.5;" x="66.43625" xlink:href="#m895ab7f603" y="160.031616"/>
      </g>
     </g>
    </g>
    <g id="ytick_32">
     <g id="line2d_53">
      <g>
       <use style="fill:#262626;stroke:#262626;stroke-width:0.5;" x="66.43625" xlink:href="#m895ab7f603" y="156.951684"/>
      </g>
     </g>
    </g>
    <g id="ytick_33">
     <g id="line2d_54">
      <g>
       <use style="fill:#262626;stroke:#262626;stroke-width:0.5;" x="66.43625" xlink:href="#m895ab7f603" y="154.283726"/>
      </g>
     </g>
    </g>
    <g id="ytick_34">
     <g id="line2d_55">
      <g>
       <use style="fill:#262626;stroke:#262626;stroke-width:0.5;" x="66.43625" xlink:href="#m895ab7f603" y="151.930419"/>
      </g>
     </g>
    </g>
    <g id="ytick_35">
     <g id="line2d_56">
      <g>
       <use style="fill:#262626;stroke:#262626;stroke-width:0.5;" x="66.43625" xlink:href="#m895ab7f603" y="135.976228"/>
      </g>
     </g>
    </g>
    <g id="ytick_36">
     <g id="line2d_57">
      <g>
       <use style="fill:#262626;stroke:#262626;stroke-width:0.5;" x="66.43625" xlink:href="#m895ab7f603" y="127.875032"/>
      </g>
     </g>
    </g>
    <g id="ytick_37">
     <g id="line2d_58">
      <g>
       <use style="fill:#262626;stroke:#262626;stroke-width:0.5;" x="66.43625" xlink:href="#m895ab7f603" y="122.127141"/>
      </g>
     </g>
    </g>
    <g id="ytick_38">
     <g id="line2d_59">
      <g>
       <use style="fill:#262626;stroke:#262626;stroke-width:0.5;" x="66.43625" xlink:href="#m895ab7f603" y="117.668731"/>
      </g>
     </g>
    </g>
    <g id="ytick_39">
     <g id="line2d_60">
      <g>
       <use style="fill:#262626;stroke:#262626;stroke-width:0.5;" x="66.43625" xlink:href="#m895ab7f603" y="114.025945"/>
      </g>
     </g>
    </g>
    <g id="ytick_40">
     <g id="line2d_61">
      <g>
       <use style="fill:#262626;stroke:#262626;stroke-width:0.5;" x="66.43625" xlink:href="#m895ab7f603" y="110.946013"/>
      </g>
     </g>
    </g>
    <g id="ytick_41">
     <g id="line2d_62">
      <g>
       <use style="fill:#262626;stroke:#262626;stroke-width:0.5;" x="66.43625" xlink:href="#m895ab7f603" y="108.278054"/>
      </g>
     </g>
    </g>
    <g id="ytick_42">
     <g id="line2d_63">
      <g>
       <use style="fill:#262626;stroke:#262626;stroke-width:0.5;" x="66.43625" xlink:href="#m895ab7f603" y="105.924748"/>
      </g>
     </g>
    </g>
    <g id="ytick_43">
     <g id="line2d_64">
      <g>
       <use style="fill:#262626;stroke:#262626;stroke-width:0.5;" x="66.43625" xlink:href="#m895ab7f603" y="89.970557"/>
      </g>
     </g>
    </g>
    <g id="ytick_44">
     <g id="line2d_65">
      <g>
       <use style="fill:#262626;stroke:#262626;stroke-width:0.5;" x="66.43625" xlink:href="#m895ab7f603" y="81.86936"/>
      </g>
     </g>
    </g>
    <g id="ytick_45">
     <g id="line2d_66">
      <g>
       <use style="fill:#262626;stroke:#262626;stroke-width:0.5;" x="66.43625" xlink:href="#m895ab7f603" y="76.12147"/>
      </g>
     </g>
    </g>
    <g id="ytick_46">
     <g id="line2d_67">
      <g>
       <use style="fill:#262626;stroke:#262626;stroke-width:0.5;" x="66.43625" xlink:href="#m895ab7f603" y="71.66306"/>
      </g>
     </g>
    </g>
    <g id="ytick_47">
     <g id="line2d_68">
      <g>
       <use style="fill:#262626;stroke:#262626;stroke-width:0.5;" x="66.43625" xlink:href="#m895ab7f603" y="68.020273"/>
      </g>
     </g>
    </g>
    <g id="ytick_48">
     <g id="line2d_69">
      <g>
       <use style="fill:#262626;stroke:#262626;stroke-width:0.5;" x="66.43625" xlink:href="#m895ab7f603" y="64.940341"/>
      </g>
     </g>
    </g>
    <g id="ytick_49">
     <g id="line2d_70">
      <g>
       <use style="fill:#262626;stroke:#262626;stroke-width:0.5;" x="66.43625" xlink:href="#m895ab7f603" y="62.272383"/>
      </g>
     </g>
    </g>
    <g id="ytick_50">
     <g id="line2d_71">
      <g>
       <use style="fill:#262626;stroke:#262626;stroke-width:0.5;" x="66.43625" xlink:href="#m895ab7f603" y="59.919077"/>
      </g>
     </g>
    </g>
    <g id="ytick_51">
     <g id="line2d_72">
      <g>
       <use style="fill:#262626;stroke:#262626;stroke-width:0.5;" x="66.43625" xlink:href="#m895ab7f603" y="43.964885"/>
      </g>
     </g>
    </g>
    <g id="ytick_52">
     <g id="line2d_73">
      <g>
       <use style="fill:#262626;stroke:#262626;stroke-width:0.5;" x="66.43625" xlink:href="#m895ab7f603" y="35.863689"/>
      </g>
     </g>
    </g>
    <g id="ytick_53">
     <g id="line2d_74">
      <g>
       <use style="fill:#262626;stroke:#262626;stroke-width:0.5;" x="66.43625" xlink:href="#m895ab7f603" y="30.115798"/>
      </g>
     </g>
    </g>
    <g id="text_15">
     <!-- Articles -->
     <defs>
      <path d="M 34.1875 63.1875 
L 20.796875 26.90625 
L 47.609375 26.90625 
z
M 28.609375 72.90625 
L 39.796875 72.90625 
L 67.578125 0 
L 57.328125 0 
L 50.6875 18.703125 
L 17.828125 18.703125 
L 11.1875 0 
L 0.78125 0 
z
" id="DejaVuSans-41"/>
      <path d="M 41.109375 46.296875 
Q 39.59375 47.171875 37.8125 47.578125 
Q 36.03125 48 33.890625 48 
Q 26.265625 48 22.1875 43.046875 
Q 18.109375 38.09375 18.109375 28.8125 
L 18.109375 0 
L 9.078125 0 
L 9.078125 54.6875 
L 18.109375 54.6875 
L 18.109375 46.1875 
Q 20.953125 51.171875 25.484375 53.578125 
Q 30.03125 56 36.53125 56 
Q 37.453125 56 38.578125 55.875 
Q 39.703125 55.765625 41.0625 55.515625 
z
" id="DejaVuSans-72"/>
      <path d="M 9.421875 54.6875 
L 18.40625 54.6875 
L 18.40625 0 
L 9.421875 0 
z
M 9.421875 75.984375 
L 18.40625 75.984375 
L 18.40625 64.59375 
L 9.421875 64.59375 
z
" id="DejaVuSans-69"/>
      <path d="M 48.78125 52.59375 
L 48.78125 44.1875 
Q 44.96875 46.296875 41.140625 47.34375 
Q 37.3125 48.390625 33.40625 48.390625 
Q 24.65625 48.390625 19.8125 42.84375 
Q 14.984375 37.3125 14.984375 27.296875 
Q 14.984375 17.28125 19.8125 11.734375 
Q 24.65625 6.203125 33.40625 6.203125 
Q 37.3125 6.203125 41.140625 7.25 
Q 44.96875 8.296875 48.78125 10.40625 
L 48.78125 2.09375 
Q 45.015625 0.34375 40.984375 -0.53125 
Q 36.96875 -1.421875 32.421875 -1.421875 
Q 20.0625 -1.421875 12.78125 6.34375 
Q 5.515625 14.109375 5.515625 27.296875 
Q 5.515625 40.671875 12.859375 48.328125 
Q 20.21875 56 33.015625 56 
Q 37.15625 56 41.109375 55.140625 
Q 45.0625 54.296875 48.78125 52.59375 
z
" id="DejaVuSans-63"/>
      <path d="M 9.421875 75.984375 
L 18.40625 75.984375 
L 18.40625 0 
L 9.421875 0 
z
" id="DejaVuSans-6c"/>
      <path d="M 44.28125 53.078125 
L 44.28125 44.578125 
Q 40.484375 46.53125 36.375 47.5 
Q 32.28125 48.484375 27.875 48.484375 
Q 21.1875 48.484375 17.84375 46.4375 
Q 14.5 44.390625 14.5 40.28125 
Q 14.5 37.15625 16.890625 35.375 
Q 19.28125 33.59375 26.515625 31.984375 
L 29.59375 31.296875 
Q 39.15625 29.25 43.1875 25.515625 
Q 47.21875 21.78125 47.21875 15.09375 
Q 47.21875 7.46875 41.1875 3.015625 
Q 35.15625 -1.421875 24.609375 -1.421875 
Q 20.21875 -1.421875 15.453125 -0.5625 
Q 10.6875 0.296875 5.421875 2 
L 5.421875 11.28125 
Q 10.40625 8.6875 15.234375 7.390625 
Q 20.0625 6.109375 24.8125 6.109375 
Q 31.15625 6.109375 34.5625 8.28125 
Q 37.984375 10.453125 37.984375 14.40625 
Q 37.984375 18.0625 35.515625 20.015625 
Q 33.0625 21.96875 24.703125 23.78125 
L 21.578125 24.515625 
Q 13.234375 26.265625 9.515625 29.90625 
Q 5.8125 33.546875 5.8125 39.890625 
Q 5.8125 47.609375 11.28125 51.796875 
Q 16.75 56 26.8125 56 
Q 31.78125 56 36.171875 55.265625 
Q 40.578125 54.546875 44.28125 53.078125 
z
" id="DejaVuSans-73"/>
     </defs>
     <g style="fill:#262626;" transform="translate(22.396875 201.585937)rotate(-90)scale(0.2 -0.2)">
      <use xlink:href="#DejaVuSans-41"/>
      <use x="68.408203" xlink:href="#DejaVuSans-72"/>
      <use x="109.521484" xlink:href="#DejaVuSans-74"/>
      <use x="148.730469" xlink:href="#DejaVuSans-69"/>
      <use x="176.513672" xlink:href="#DejaVuSans-63"/>
      <use x="231.494141" xlink:href="#DejaVuSans-6c"/>
      <use x="259.277344" xlink:href="#DejaVuSans-65"/>
      <use x="320.800781" xlink:href="#DejaVuSans-73"/>
     </g>
    </g>
   </g>
   <g id="line2d_75">
    <path clip-path="url(#p2ace07f372)" d="M 66.43625 183.324731 
L 68.410665 166.092749 
L 70.38508 155.519997 
L 72.359494 156.724636 
L 74.333909 142.42905 
L 76.308324 162.026027 
L 78.282739 148.36177 
L 82.231568 126.874848 
L 84.205983 119.148794 
L 88.154813 133.45491 
L 90.129228 138.394575 
L 92.103642 102.63659 
L 94.078057 125.783919 
L 96.052472 129.76668 
L 98.026887 130.203378 
L 100.001302 119.352078 
L 101.975717 119.566237 
L 105.924546 97.856138 
L 107.898961 75.955825 
L 109.873376 110.280746 
L 111.847791 112.43899 
L 113.822205 106.54019 
L 115.79662 109.532932 
L 117.771035 106.362407 
L 119.74545 106.094185 
L 121.719865 102.020974 
L 123.694279 104.014396 
L 125.668694 96.843086 
L 127.643109 97.432248 
L 129.617524 97.359815 
L 131.591939 99.790997 
L 133.566353 92.984 
L 135.540768 90.777857 
L 137.515183 91.032237 
L 139.489598 84.952623 
L 141.464013 75.741 
L 143.438427 80.063996 
L 145.412842 79.615759 
L 147.387257 78.970062 
L 149.361672 66.020843 
L 151.336087 77.633295 
L 153.310501 76.77696 
L 155.284916 75.315759 
L 157.259331 72.939331 
L 159.233746 68.425283 
L 161.208161 75.202378 
L 163.182576 77.109014 
L 165.15699 71.127641 
L 167.131405 66.757972 
L 169.10582 67.396739 
L 171.080235 62.598963 
L 173.05465 61.19672 
L 175.029064 59.340349 
L 177.003479 64.105728 
L 178.977894 61.26737 
L 180.952309 61.460675 
L 182.926724 59.354157 
L 184.901138 56.814423 
L 186.875553 59.359553 
L 188.849968 56.753509 
L 190.824383 56.971833 
L 192.798798 55.088878 
L 194.773212 54.460821 
L 196.747627 53.225874 
L 198.722042 52.35913 
L 200.696457 55.601465 
L 202.670872 55.039257 
L 204.645286 55.192522 
L 206.619701 54.89389 
L 208.594116 55.152783 
L 210.568531 55.779864 
L 212.542946 55.615958 
L 214.517361 56.058442 
L 216.491775 55.686962 
L 218.46619 53.909833 
L 220.440605 50.250072 
L 222.41502 53.511534 
L 224.389435 56.132325 
L 226.363849 55.825934 
L 228.338264 53.19398 
L 230.312679 53.792513 
L 232.287094 52.673936 
L 234.261509 55.266431 
L 236.235923 40.75142 
L 238.210338 57.980902 
L 240.184753 58.230675 
L 242.159168 57.261444 
L 244.133583 56.461592 
L 246.107997 54.335698 
L 248.082412 60.277246 
L 250.056827 53.430829 
L 252.031242 61.219216 
L 254.005657 60.35787 
L 255.980071 58.400314 
L 257.954486 59.2474 
L 259.928901 55.156631 
L 261.903316 56.898602 
L 263.877731 59.507103 
L 265.852145 53.097812 
L 267.82656 57.907096 
L 269.800975 57.962777 
L 271.77539 62.597186 
L 273.749805 62.279127 
L 275.72422 63.19548 
L 277.698634 60.293526 
L 279.673049 60.41878 
L 281.647464 63.766975 
L 283.621879 62.449489 
L 285.596294 59.177115 
L 287.570708 59.029637 
L 289.545123 60.644716 
L 291.519538 64.107645 
L 293.493953 49.725434 
L 295.468368 63.632317 
L 297.442782 64.335905 
L 299.417197 56.279065 
L 301.391612 53.012471 
L 303.366027 62.979297 
L 305.340442 65.757452 
L 307.314856 65.222617 
L 309.289271 63.130718 
L 311.263686 65.653356 
L 313.238101 64.202322 
L 315.212516 64.515044 
L 317.18693 63.569857 
L 319.161345 64.344215 
L 321.13576 63.981558 
L 323.110175 65.764292 
L 325.08459 66.801472 
L 327.059004 65.499836 
L 329.033419 56.940443 
L 331.007834 66.145664 
L 332.982249 65.532739 
L 334.956664 63.641943 
L 336.931079 62.547242 
L 338.905493 63.363055 
L 340.879908 63.329586 
L 342.854323 65.271891 
L 344.828738 62.475459 
L 346.803153 67.677248 
L 348.777567 65.722099 
L 350.751982 62.351711 
L 352.726397 65.320705 
L 356.675227 64.418321 
L 358.649641 66.10387 
L 360.624056 66.765789 
L 362.598471 67.289866 
L 364.572886 66.636113 
L 366.547301 66.891905 
L 368.521715 65.924662 
L 370.49613 67.388994 
L 372.470545 66.675923 
L 374.44496 65.693328 
L 376.419375 66.159009 
L 378.393789 67.338403 
L 380.368204 68.085314 
L 382.342619 65.802401 
L 384.317034 67.943498 
L 386.291449 65.600183 
L 388.265864 67.66972 
L 390.240278 59.526032 
L 392.214693 68.787393 
L 394.189108 68.127118 
L 396.163523 67.949138 
L 396.163523 67.949138 
" style="fill:none;stroke:#4c72b0;stroke-linecap:square;stroke-width:1.75;"/>
   </g>
   <g id="line2d_76">
    <path clip-path="url(#p2ace07f372)" d="M 70.368097 357.334687 
L 70.38508 238.193872 
L 72.359494 260.144155 
L 74.333909 202.673946 
L 76.308324 287.84233 
L 78.282739 210.916345 
L 80.257154 210.495698 
L 82.231568 197.715315 
L 84.205983 194.109156 
L 88.154813 205.707032 
L 90.129228 214.138484 
L 92.103642 185.111844 
L 94.078057 214.644334 
L 96.052472 213.645125 
L 98.026887 211.346039 
L 100.001302 201.847069 
L 101.975717 200.540721 
L 103.950131 207.775776 
L 105.924546 200.540721 
L 107.898961 194.109156 
L 109.873376 208.896444 
L 111.847791 209.284417 
L 113.822205 202.673946 
L 115.79662 201.053057 
L 117.771035 205.382146 
L 119.74545 199.553853 
L 121.719865 201.847069 
L 123.694279 196.855827 
L 125.668694 199.078116 
L 127.643109 193.745873 
L 129.617524 202.394501 
L 131.591939 206.373094 
L 133.566353 196.646611 
L 135.540768 197.067258 
L 137.515183 202.394501 
L 139.489598 189.834894 
L 141.464013 180.444217 
L 143.438427 183.431863 
L 145.412842 187.863436 
L 147.387257 189.395755 
L 149.361672 183.866228 
L 151.336087 188.269823 
L 153.310501 188.684648 
L 155.284916 178.090911 
L 157.259331 176.739859 
L 159.233746 175.046248 
L 161.208161 182.48775 
L 163.182576 183.00674 
L 165.15699 174.765823 
L 167.131405 174.014349 
L 169.10582 172.097864 
L 173.05465 168.741388 
L 175.029064 165.340368 
L 177.003479 171.855679 
L 178.977894 166.687845 
L 180.952309 167.688245 
L 182.926724 166.968599 
L 184.901138 170.517362 
L 186.875553 169.369084 
L 188.849968 171.204421 
L 190.824383 175.330666 
L 192.798798 167.639454 
L 194.773212 171.795589 
L 196.747627 173.814214 
L 198.722042 174.835561 
L 200.696457 176.134358 
L 202.670872 176.586755 
L 204.645286 179.717592 
L 206.619701 175.691978 
L 208.594116 175.765031 
L 210.568531 175.187951 
L 212.542946 170.91527 
L 214.517361 173.550447 
L 216.491775 173.880703 
L 218.46619 182.38555 
L 220.440605 175.838353 
L 222.41502 177.127833 
L 224.389435 180.260069 
L 226.363849 173.550447 
L 228.338264 160.916736 
L 230.312679 174.148895 
L 232.287094 182.693731 
L 234.261509 184.536012 
L 236.235923 183.112176 
L 238.210338 180.168627 
L 240.184753 183.218171 
L 242.159168 183.756748 
L 244.133583 183.431863 
L 246.107997 184.764357 
L 248.082412 190.133109 
L 250.056827 185.704766 
L 252.031242 180.260069 
L 254.005657 183.112176 
L 255.980071 183.976311 
L 257.954486 186.565577 
L 259.928901 185.465482 
L 261.903316 184.087004 
L 263.877731 188.824859 
L 265.852145 182.48775 
L 267.82656 178.930531 
L 269.800975 170.857939 
L 271.77539 177.523489 
L 273.749805 189.251495 
L 275.72422 183.647865 
L 277.698634 186.44031 
L 279.673049 185.704766 
L 281.647464 186.691634 
L 283.621879 183.324731 
L 285.596294 184.198313 
L 287.570708 184.879516 
L 291.519538 192.1882 
L 293.493953 193.566679 
L 295.468368 186.818492 
L 297.442782 196.234637 
L 299.417197 196.855827 
L 301.391612 191.372577 
L 303.366027 193.038542 
L 305.340442 196.031793 
L 307.314856 192.02239 
L 309.289271 192.524007 
L 311.263686 197.067258 
L 313.238101 202.673946 
L 315.212516 194.856159 
L 317.18693 200.289397 
L 319.161345 196.646611 
L 321.13576 202.394501 
L 323.110175 193.745873 
L 325.08459 197.715315 
L 327.059004 200.795247 
L 329.033419 203.244843 
L 331.007834 197.067258 
L 332.982249 188.407143 
L 334.956664 188.824859 
L 336.931079 186.069154 
L 338.905493 194.293304 
L 340.879908 184.649858 
L 342.854323 195.830987 
L 344.828738 190.743233 
L 346.803153 201.053057 
L 348.777567 197.936091 
L 350.751982 193.038542 
L 352.726397 205.707032 
L 354.700812 202.11891 
L 356.675227 194.479166 
L 358.649641 189.983445 
L 360.624056 195.43533 
L 362.598471 196.439562 
L 364.572886 201.314237 
L 366.547301 207.415766 
L 368.521715 194.479166 
L 370.49613 199.078116 
L 372.470545 197.496952 
L 374.44496 203.832532 
L 376.419375 202.11891 
L 378.393789 207.775776 
L 380.368204 199.078116 
L 382.342619 200.540721 
L 384.317034 210.916345 
L 386.291449 209.680074 
L 388.265864 205.707032 
L 390.240278 210.916345 
L 392.214693 203.832532 
L 394.189108 204.747807 
L 396.163523 202.11891 
L 396.163523 202.11891 
" style="fill:none;stroke:#55a868;stroke-linecap:square;stroke-width:1.75;"/>
   </g>
   <g id="line2d_77">
    <path clip-path="url(#p2ace07f372)" d="M 70.373169 357.334687 
L 70.38508 273.993242 
L 70.38508 273.993242 
L 70.38508 273.993242 
L 70.39699 357.334687 
M 74.321999 357.334687 
L 74.333909 273.993242 
L 74.333909 273.993242 
L 74.333909 273.993242 
L 74.34582 357.334687 
M 82.221627 357.334687 
L 82.231568 287.84233 
L 84.205983 287.84233 
L 86.180398 273.993242 
L 88.154813 287.84233 
L 90.129228 273.993242 
L 92.103642 248.963027 
L 94.078057 265.892046 
L 96.052472 287.84233 
L 98.026887 287.84233 
L 98.036828 357.334687 
M 103.94019 357.334687 
L 103.950131 287.84233 
L 105.924546 273.993242 
L 107.898961 287.84233 
L 107.908902 357.334687 
M 111.833915 357.334687 
L 111.847791 260.144155 
L 113.822205 265.892046 
L 115.79662 273.993242 
L 117.771035 252.042959 
L 119.74545 287.84233 
L 121.719865 248.963027 
L 123.694279 252.042959 
L 125.668694 260.144155 
L 127.643109 273.993242 
L 129.617524 273.993242 
L 131.591939 287.84233 
L 131.60188 357.334687 
M 135.526892 357.334687 
L 135.540768 260.144155 
L 137.515183 243.941762 
L 139.489598 248.963027 
L 141.464013 236.594618 
L 143.438427 246.295068 
L 145.412842 260.144155 
L 147.387257 255.685745 
L 149.361672 265.892046 
L 151.336087 248.963027 
L 153.310501 252.042959 
L 155.284916 248.963027 
L 157.259331 248.963027 
L 159.233746 260.144155 
L 163.182576 238.193872 
L 165.15699 238.193872 
L 167.131405 252.042959 
L 169.10582 246.295068 
L 171.080235 265.892046 
L 173.05465 252.042959 
L 175.029064 227.012743 
L 177.003479 241.836658 
L 178.977894 246.295068 
L 180.952309 252.042959 
L 182.926724 236.594618 
L 184.901138 239.93236 
L 186.875553 243.941762 
L 188.849968 239.93236 
L 190.824383 235.11394 
L 192.798798 255.685745 
L 194.773212 246.295068 
L 196.747627 255.685745 
L 198.722042 241.836658 
L 200.696457 260.144155 
L 202.670872 238.193872 
L 204.645286 236.594618 
L 206.619701 252.042959 
L 208.594116 248.963027 
L 210.568531 260.144155 
L 212.542946 255.685745 
L 214.517361 260.144155 
L 216.491775 248.963027 
L 218.46619 260.144155 
L 220.440605 255.685745 
L 222.41502 255.685745 
L 224.389435 273.993242 
L 226.363849 248.963027 
L 228.338264 243.941762 
L 230.312679 246.295068 
L 232.287094 239.93236 
L 234.261509 241.836658 
L 236.235923 260.144155 
L 238.210338 248.963027 
L 240.184753 273.993242 
L 240.196664 357.334687 
M 244.118123 357.334687 
L 244.133583 248.963027 
L 246.107997 273.993242 
L 248.082412 260.144155 
L 250.056827 287.84233 
L 252.031242 246.295068 
L 254.005657 287.84233 
L 255.980071 273.993242 
L 257.954486 273.993242 
L 259.928901 252.042959 
L 261.903316 252.042959 
L 263.877731 246.295068 
L 265.852145 273.993242 
L 267.82656 255.685745 
L 269.800975 273.993242 
L 269.812886 357.334687 
M 273.735929 357.334687 
L 273.749805 260.144155 
L 275.72422 265.892046 
L 277.698634 273.993242 
L 279.673049 287.84233 
L 281.647464 252.042959 
L 283.621879 265.892046 
L 285.596294 260.144155 
L 287.570708 255.685745 
L 289.545123 265.892046 
L 293.493953 265.892046 
L 295.468368 287.84233 
L 297.442782 287.84233 
L 299.417197 265.892046 
L 301.391612 273.993242 
L 303.366027 260.144155 
L 305.340442 287.84233 
L 307.314856 287.84233 
L 309.289271 255.685745 
L 311.263686 265.892046 
L 311.276747 357.334687 
M 315.199455 357.334687 
L 315.212516 265.892046 
L 317.18693 260.144155 
L 319.161345 265.892046 
L 321.13576 260.144155 
L 321.149636 357.334687 
M 325.072679 357.334687 
L 325.08459 273.993242 
L 327.059004 260.144155 
L 329.033419 255.685745 
L 331.007834 273.993242 
L 332.982249 260.144155 
L 334.956664 273.993242 
L 334.968574 357.334687 
M 338.892433 357.334687 
L 338.905493 265.892046 
L 342.854323 265.892046 
L 344.828738 287.84233 
L 346.803153 287.84233 
L 348.777567 273.993242 
L 350.751982 273.993242 
L 352.726397 287.84233 
L 354.700812 273.993242 
L 356.675227 287.84233 
L 358.649641 265.892046 
L 360.624056 265.892046 
L 362.598471 287.84233 
L 362.608412 357.334687 
M 366.537359 357.334687 
L 366.547301 287.84233 
L 368.521715 265.892046 
L 370.49613 287.84233 
L 370.506072 357.334687 
M 374.435019 357.334687 
L 374.44496 287.84233 
L 376.419375 265.892046 
L 378.393789 265.892046 
L 380.368204 260.144155 
L 382.342619 287.84233 
L 384.317034 287.84233 
L 384.326975 357.334687 
M 388.255922 357.334687 
L 388.265864 287.84233 
L 390.240278 273.993242 
L 392.214693 273.993242 
L 394.189108 252.042959 
L 396.163523 273.993242 
L 396.163523 273.993242 
" style="fill:none;stroke:#c44e52;stroke-linecap:square;stroke-width:1.75;"/>
   </g>
   <g id="patch_3">
    <path d="M 66.43625 300.196875 
L 66.43625 28.396875 
" style="fill:none;stroke:#000000;stroke-linecap:square;stroke-linejoin:miter;stroke-width:0.8;"/>
   </g>
   <g id="patch_4">
    <path d="M 66.43625 300.196875 
L 396.163523 300.196875 
" style="fill:none;stroke:#000000;stroke-linecap:square;stroke-linejoin:miter;stroke-width:0.8;"/>
   </g>
   <g id="text_16">
    <!-- Monthly Article Additions -->
    <defs>
     <path d="M 9.8125 72.90625 
L 24.515625 72.90625 
L 43.109375 23.296875 
L 61.8125 72.90625 
L 76.515625 72.90625 
L 76.515625 0 
L 66.890625 0 
L 66.890625 64.015625 
L 48.09375 14.015625 
L 38.1875 14.015625 
L 19.390625 64.015625 
L 19.390625 0 
L 9.8125 0 
z
" id="DejaVuSans-4d"/>
     <path d="M 30.609375 48.390625 
Q 23.390625 48.390625 19.1875 42.75 
Q 14.984375 37.109375 14.984375 27.296875 
Q 14.984375 17.484375 19.15625 11.84375 
Q 23.34375 6.203125 30.609375 6.203125 
Q 37.796875 6.203125 41.984375 11.859375 
Q 46.1875 17.53125 46.1875 27.296875 
Q 46.1875 37.015625 41.984375 42.703125 
Q 37.796875 48.390625 30.609375 48.390625 
z
M 30.609375 56 
Q 42.328125 56 49.015625 48.375 
Q 55.71875 40.765625 55.71875 27.296875 
Q 55.71875 13.875 49.015625 6.21875 
Q 42.328125 -1.421875 30.609375 -1.421875 
Q 18.84375 -1.421875 12.171875 6.21875 
Q 5.515625 13.875 5.515625 27.296875 
Q 5.515625 40.765625 12.171875 48.375 
Q 18.84375 56 30.609375 56 
z
" id="DejaVuSans-6f"/>
     <path d="M 54.890625 33.015625 
L 54.890625 0 
L 45.90625 0 
L 45.90625 32.71875 
Q 45.90625 40.484375 42.875 44.328125 
Q 39.84375 48.1875 33.796875 48.1875 
Q 26.515625 48.1875 22.3125 43.546875 
Q 18.109375 38.921875 18.109375 30.90625 
L 18.109375 0 
L 9.078125 0 
L 9.078125 54.6875 
L 18.109375 54.6875 
L 18.109375 46.1875 
Q 21.34375 51.125 25.703125 53.5625 
Q 30.078125 56 35.796875 56 
Q 45.21875 56 50.046875 50.171875 
Q 54.890625 44.34375 54.890625 33.015625 
z
" id="DejaVuSans-6e"/>
     <path d="M 54.890625 33.015625 
L 54.890625 0 
L 45.90625 0 
L 45.90625 32.71875 
Q 45.90625 40.484375 42.875 44.328125 
Q 39.84375 48.1875 33.796875 48.1875 
Q 26.515625 48.1875 22.3125 43.546875 
Q 18.109375 38.921875 18.109375 30.90625 
L 18.109375 0 
L 9.078125 0 
L 9.078125 75.984375 
L 18.109375 75.984375 
L 18.109375 46.1875 
Q 21.34375 51.125 25.703125 53.5625 
Q 30.078125 56 35.796875 56 
Q 45.21875 56 50.046875 50.171875 
Q 54.890625 44.34375 54.890625 33.015625 
z
" id="DejaVuSans-68"/>
     <path d="M 32.171875 -5.078125 
Q 28.375 -14.84375 24.75 -17.8125 
Q 21.140625 -20.796875 15.09375 -20.796875 
L 7.90625 -20.796875 
L 7.90625 -13.28125 
L 13.1875 -13.28125 
Q 16.890625 -13.28125 18.9375 -11.515625 
Q 21 -9.765625 23.484375 -3.21875 
L 25.09375 0.875 
L 2.984375 54.6875 
L 12.5 54.6875 
L 29.59375 11.921875 
L 46.6875 54.6875 
L 56.203125 54.6875 
z
" id="DejaVuSans-79"/>
     <path id="DejaVuSans-20"/>
     <path d="M 45.40625 46.390625 
L 45.40625 75.984375 
L 54.390625 75.984375 
L 54.390625 0 
L 45.40625 0 
L 45.40625 8.203125 
Q 42.578125 3.328125 38.25 0.953125 
Q 33.9375 -1.421875 27.875 -1.421875 
Q 17.96875 -1.421875 11.734375 6.484375 
Q 5.515625 14.40625 5.515625 27.296875 
Q 5.515625 40.1875 11.734375 48.09375 
Q 17.96875 56 27.875 56 
Q 33.9375 56 38.25 53.625 
Q 42.578125 51.265625 45.40625 46.390625 
z
M 14.796875 27.296875 
Q 14.796875 17.390625 18.875 11.75 
Q 22.953125 6.109375 30.078125 6.109375 
Q 37.203125 6.109375 41.296875 11.75 
Q 45.40625 17.390625 45.40625 27.296875 
Q 45.40625 37.203125 41.296875 42.84375 
Q 37.203125 48.484375 30.078125 48.484375 
Q 22.953125 48.484375 18.875 42.84375 
Q 14.796875 37.203125 14.796875 27.296875 
z
" id="DejaVuSans-64"/>
    </defs>
    <g style="fill:#262626;" transform="translate(106.146761 22.396875)scale(0.2 -0.2)">
     <use xlink:href="#DejaVuSans-4d"/>
     <use x="86.279297" xlink:href="#DejaVuSans-6f"/>
     <use x="147.460938" xlink:href="#DejaVuSans-6e"/>
     <use x="210.839844" xlink:href="#DejaVuSans-74"/>
     <use x="250.048828" xlink:href="#DejaVuSans-68"/>
     <use x="313.427734" xlink:href="#DejaVuSans-6c"/>
     <use x="341.210938" xlink:href="#DejaVuSans-79"/>
     <use x="400.390625" xlink:href="#DejaVuSans-20"/>
     <use x="432.177734" xlink:href="#DejaVuSans-41"/>
     <use x="500.585938" xlink:href="#DejaVuSans-72"/>
     <use x="541.699219" xlink:href="#DejaVuSans-74"/>
     <use x="580.908203" xlink:href="#DejaVuSans-69"/>
     <use x="608.691406" xlink:href="#DejaVuSans-63"/>
     <use x="663.671875" xlink:href="#DejaVuSans-6c"/>
     <use x="691.455078" xlink:href="#DejaVuSans-65"/>
     <use x="752.978516" xlink:href="#DejaVuSans-20"/>
     <use x="784.765625" xlink:href="#DejaVuSans-41"/>
     <use x="853.158203" xlink:href="#DejaVuSans-64"/>
     <use x="916.634766" xlink:href="#DejaVuSans-64"/>
     <use x="980.111328" xlink:href="#DejaVuSans-69"/>
     <use x="1007.894531" xlink:href="#DejaVuSans-74"/>
     <use x="1047.103516" xlink:href="#DejaVuSans-69"/>
     <use x="1074.886719" xlink:href="#DejaVuSans-6f"/>
     <use x="1136.068359" xlink:href="#DejaVuSans-6e"/>
     <use x="1199.447266" xlink:href="#DejaVuSans-73"/>
    </g>
   </g>
   <g id="legend_1"/>
  </g>
  <g id="axes_2">
   <g id="patch_5">
    <path d="M 462.108977 300.196875 
L 791.83625 300.196875 
L 791.83625 28.396875 
L 462.108977 28.396875 
z
" style="fill:#ffffff;"/>
   </g>
   <g id="matplotlib.axis_3">
    <g id="xtick_22">
     <g id="line2d_78">
      <g>
       <use style="fill:#262626;stroke:#262626;" x="462.108977" xlink:href="#mfcef1195e4" y="300.196875"/>
      </g>
     </g>
     <g id="text_17">
      <!-- 2001 -->
      <g style="fill:#262626;" transform="translate(445.566477 323.074844)scale(0.13 -0.13)">
       <use xlink:href="#DejaVuSans-32"/>
       <use x="63.623047" xlink:href="#DejaVuSans-30"/>
       <use x="127.246094" xlink:href="#DejaVuSans-30"/>
       <use x="190.869141" xlink:href="#DejaVuSans-31"/>
      </g>
     </g>
    </g>
    <g id="xtick_23">
     <g id="line2d_79">
      <g>
       <use style="fill:#262626;stroke:#262626;" x="509.494933" xlink:href="#mfcef1195e4" y="300.196875"/>
      </g>
     </g>
     <g id="text_18">
      <!-- 2003 -->
      <g style="fill:#262626;" transform="translate(492.952433 323.074844)scale(0.13 -0.13)">
       <use xlink:href="#DejaVuSans-32"/>
       <use x="63.623047" xlink:href="#DejaVuSans-30"/>
       <use x="127.246094" xlink:href="#DejaVuSans-30"/>
       <use x="190.869141" xlink:href="#DejaVuSans-33"/>
      </g>
     </g>
    </g>
    <g id="xtick_24">
     <g id="line2d_80">
      <g>
       <use style="fill:#262626;stroke:#262626;" x="556.880888" xlink:href="#mfcef1195e4" y="300.196875"/>
      </g>
     </g>
     <g id="text_19">
      <!-- 2005 -->
      <g style="fill:#262626;" transform="translate(540.338388 323.074844)scale(0.13 -0.13)">
       <use xlink:href="#DejaVuSans-32"/>
       <use x="63.623047" xlink:href="#DejaVuSans-30"/>
       <use x="127.246094" xlink:href="#DejaVuSans-30"/>
       <use x="190.869141" xlink:href="#DejaVuSans-35"/>
      </g>
     </g>
    </g>
    <g id="xtick_25">
     <g id="line2d_81">
      <g>
       <use style="fill:#262626;stroke:#262626;" x="604.266843" xlink:href="#mfcef1195e4" y="300.196875"/>
      </g>
     </g>
     <g id="text_20">
      <!-- 2007 -->
      <g style="fill:#262626;" transform="translate(587.724343 323.074844)scale(0.13 -0.13)">
       <use xlink:href="#DejaVuSans-32"/>
       <use x="63.623047" xlink:href="#DejaVuSans-30"/>
       <use x="127.246094" xlink:href="#DejaVuSans-30"/>
       <use x="190.869141" xlink:href="#DejaVuSans-37"/>
      </g>
     </g>
    </g>
    <g id="xtick_26">
     <g id="line2d_82">
      <g>
       <use style="fill:#262626;stroke:#262626;" x="651.652799" xlink:href="#mfcef1195e4" y="300.196875"/>
      </g>
     </g>
     <g id="text_21">
      <!-- 2009 -->
      <g style="fill:#262626;" transform="translate(635.110299 323.074844)scale(0.13 -0.13)">
       <use xlink:href="#DejaVuSans-32"/>
       <use x="63.623047" xlink:href="#DejaVuSans-30"/>
       <use x="127.246094" xlink:href="#DejaVuSans-30"/>
       <use x="190.869141" xlink:href="#DejaVuSans-39"/>
      </g>
     </g>
    </g>
    <g id="xtick_27">
     <g id="line2d_83">
      <g>
       <use style="fill:#262626;stroke:#262626;" x="699.038754" xlink:href="#mfcef1195e4" y="300.196875"/>
      </g>
     </g>
     <g id="text_22">
      <!-- 2011 -->
      <g style="fill:#262626;" transform="translate(682.496254 323.074844)scale(0.13 -0.13)">
       <use xlink:href="#DejaVuSans-32"/>
       <use x="63.623047" xlink:href="#DejaVuSans-30"/>
       <use x="127.246094" xlink:href="#DejaVuSans-31"/>
       <use x="190.869141" xlink:href="#DejaVuSans-31"/>
      </g>
     </g>
    </g>
    <g id="xtick_28">
     <g id="line2d_84">
      <g>
       <use style="fill:#262626;stroke:#262626;" x="746.424709" xlink:href="#mfcef1195e4" y="300.196875"/>
      </g>
     </g>
     <g id="text_23">
      <!-- 2013 -->
      <g style="fill:#262626;" transform="translate(729.882209 323.074844)scale(0.13 -0.13)">
       <use xlink:href="#DejaVuSans-32"/>
       <use x="63.623047" xlink:href="#DejaVuSans-30"/>
       <use x="127.246094" xlink:href="#DejaVuSans-31"/>
       <use x="190.869141" xlink:href="#DejaVuSans-33"/>
      </g>
     </g>
    </g>
    <g id="xtick_29">
     <g id="line2d_85">
      <g>
       <use style="fill:#262626;stroke:#262626;stroke-width:0.5;" x="462.108977" xlink:href="#m168d5f3948" y="300.196875"/>
      </g>
     </g>
    </g>
    <g id="xtick_30">
     <g id="line2d_86">
      <g>
       <use style="fill:#262626;stroke:#262626;stroke-width:0.5;" x="485.801955" xlink:href="#m168d5f3948" y="300.196875"/>
      </g>
     </g>
    </g>
    <g id="xtick_31">
     <g id="line2d_87">
      <g>
       <use style="fill:#262626;stroke:#262626;stroke-width:0.5;" x="509.494933" xlink:href="#m168d5f3948" y="300.196875"/>
      </g>
     </g>
    </g>
    <g id="xtick_32">
     <g id="line2d_88">
      <g>
       <use style="fill:#262626;stroke:#262626;stroke-width:0.5;" x="533.18791" xlink:href="#m168d5f3948" y="300.196875"/>
      </g>
     </g>
    </g>
    <g id="xtick_33">
     <g id="line2d_89">
      <g>
       <use style="fill:#262626;stroke:#262626;stroke-width:0.5;" x="556.880888" xlink:href="#m168d5f3948" y="300.196875"/>
      </g>
     </g>
    </g>
    <g id="xtick_34">
     <g id="line2d_90">
      <g>
       <use style="fill:#262626;stroke:#262626;stroke-width:0.5;" x="580.573866" xlink:href="#m168d5f3948" y="300.196875"/>
      </g>
     </g>
    </g>
    <g id="xtick_35">
     <g id="line2d_91">
      <g>
       <use style="fill:#262626;stroke:#262626;stroke-width:0.5;" x="604.266843" xlink:href="#m168d5f3948" y="300.196875"/>
      </g>
     </g>
    </g>
    <g id="xtick_36">
     <g id="line2d_92">
      <g>
       <use style="fill:#262626;stroke:#262626;stroke-width:0.5;" x="627.959821" xlink:href="#m168d5f3948" y="300.196875"/>
      </g>
     </g>
    </g>
    <g id="xtick_37">
     <g id="line2d_93">
      <g>
       <use style="fill:#262626;stroke:#262626;stroke-width:0.5;" x="651.652799" xlink:href="#m168d5f3948" y="300.196875"/>
      </g>
     </g>
    </g>
    <g id="xtick_38">
     <g id="line2d_94">
      <g>
       <use style="fill:#262626;stroke:#262626;stroke-width:0.5;" x="675.345776" xlink:href="#m168d5f3948" y="300.196875"/>
      </g>
     </g>
    </g>
    <g id="xtick_39">
     <g id="line2d_95">
      <g>
       <use style="fill:#262626;stroke:#262626;stroke-width:0.5;" x="699.038754" xlink:href="#m168d5f3948" y="300.196875"/>
      </g>
     </g>
    </g>
    <g id="xtick_40">
     <g id="line2d_96">
      <g>
       <use style="fill:#262626;stroke:#262626;stroke-width:0.5;" x="722.731732" xlink:href="#m168d5f3948" y="300.196875"/>
      </g>
     </g>
    </g>
    <g id="xtick_41">
     <g id="line2d_97">
      <g>
       <use style="fill:#262626;stroke:#262626;stroke-width:0.5;" x="746.424709" xlink:href="#m168d5f3948" y="300.196875"/>
      </g>
     </g>
    </g>
    <g id="xtick_42">
     <g id="line2d_98">
      <g>
       <use style="fill:#262626;stroke:#262626;stroke-width:0.5;" x="770.117687" xlink:href="#m168d5f3948" y="300.196875"/>
      </g>
     </g>
    </g>
    <g id="text_24">
     <!-- Date -->
     <g style="fill:#262626;" transform="translate(603.071051 344.975312)scale(0.2 -0.2)">
      <use xlink:href="#DejaVuSans-44"/>
      <use x="77.001953" xlink:href="#DejaVuSans-61"/>
      <use x="138.28125" xlink:href="#DejaVuSans-74"/>
      <use x="177.490234" xlink:href="#DejaVuSans-65"/>
     </g>
    </g>
   </g>
   <g id="matplotlib.axis_4">
    <g id="ytick_54">
     <g id="line2d_99">
      <g>
       <use style="fill:#262626;stroke:#262626;" x="462.108977" xlink:href="#mced8de1064" y="275.820984"/>
      </g>
     </g>
     <g id="text_25">
      <!-- $\mathdefault{10^{2}}$ -->
      <g style="fill:#262626;" transform="translate(426.228977 280.759969)scale(0.13 -0.13)">
       <use transform="translate(0 0.765625)" xlink:href="#DejaVuSans-31"/>
       <use transform="translate(63.623047 0.765625)" xlink:href="#DejaVuSans-30"/>
       <use transform="translate(128.203125 39.046875)scale(0.7)" xlink:href="#DejaVuSans-32"/>
      </g>
     </g>
    </g>
    <g id="ytick_55">
     <g id="line2d_100">
      <g>
       <use style="fill:#262626;stroke:#262626;" x="462.108977" xlink:href="#mced8de1064" y="239.159604"/>
      </g>
     </g>
     <g id="text_26">
      <!-- $\mathdefault{10^{3}}$ -->
      <g style="fill:#262626;" transform="translate(426.228977 244.098588)scale(0.13 -0.13)">
       <use transform="translate(0 0.765625)" xlink:href="#DejaVuSans-31"/>
       <use transform="translate(63.623047 0.765625)" xlink:href="#DejaVuSans-30"/>
       <use transform="translate(128.203125 39.046875)scale(0.7)" xlink:href="#DejaVuSans-33"/>
      </g>
     </g>
    </g>
    <g id="ytick_56">
     <g id="line2d_101">
      <g>
       <use style="fill:#262626;stroke:#262626;" x="462.108977" xlink:href="#mced8de1064" y="202.498223"/>
      </g>
     </g>
     <g id="text_27">
      <!-- $\mathdefault{10^{4}}$ -->
      <g style="fill:#262626;" transform="translate(426.228977 207.437208)scale(0.13 -0.13)">
       <use transform="translate(0 0.684375)" xlink:href="#DejaVuSans-31"/>
       <use transform="translate(63.623047 0.684375)" xlink:href="#DejaVuSans-30"/>
       <use transform="translate(128.203125 38.965625)scale(0.7)" xlink:href="#DejaVuSans-34"/>
      </g>
     </g>
    </g>
    <g id="ytick_57">
     <g id="line2d_102">
      <g>
       <use style="fill:#262626;stroke:#262626;" x="462.108977" xlink:href="#mced8de1064" y="165.836843"/>
      </g>
     </g>
     <g id="text_28">
      <!-- $\mathdefault{10^{5}}$ -->
      <g style="fill:#262626;" transform="translate(426.228977 170.775827)scale(0.13 -0.13)">
       <use transform="translate(0 0.684375)" xlink:href="#DejaVuSans-31"/>
       <use transform="translate(63.623047 0.684375)" xlink:href="#DejaVuSans-30"/>
       <use transform="translate(128.203125 38.965625)scale(0.7)" xlink:href="#DejaVuSans-35"/>
      </g>
     </g>
    </g>
    <g id="ytick_58">
     <g id="line2d_103">
      <g>
       <use style="fill:#262626;stroke:#262626;" x="462.108977" xlink:href="#mced8de1064" y="129.175462"/>
      </g>
     </g>
     <g id="text_29">
      <!-- $\mathdefault{10^{6}}$ -->
      <defs>
       <path d="M 33.015625 40.375 
Q 26.375 40.375 22.484375 35.828125 
Q 18.609375 31.296875 18.609375 23.390625 
Q 18.609375 15.53125 22.484375 10.953125 
Q 26.375 6.390625 33.015625 6.390625 
Q 39.65625 6.390625 43.53125 10.953125 
Q 47.40625 15.53125 47.40625 23.390625 
Q 47.40625 31.296875 43.53125 35.828125 
Q 39.65625 40.375 33.015625 40.375 
z
M 52.59375 71.296875 
L 52.59375 62.3125 
Q 48.875 64.0625 45.09375 64.984375 
Q 41.3125 65.921875 37.59375 65.921875 
Q 27.828125 65.921875 22.671875 59.328125 
Q 17.53125 52.734375 16.796875 39.40625 
Q 19.671875 43.65625 24.015625 45.921875 
Q 28.375 48.1875 33.59375 48.1875 
Q 44.578125 48.1875 50.953125 41.515625 
Q 57.328125 34.859375 57.328125 23.390625 
Q 57.328125 12.15625 50.6875 5.359375 
Q 44.046875 -1.421875 33.015625 -1.421875 
Q 20.359375 -1.421875 13.671875 8.265625 
Q 6.984375 17.96875 6.984375 36.375 
Q 6.984375 53.65625 15.1875 63.9375 
Q 23.390625 74.21875 37.203125 74.21875 
Q 40.921875 74.21875 44.703125 73.484375 
Q 48.484375 72.75 52.59375 71.296875 
z
" id="DejaVuSans-36"/>
      </defs>
      <g style="fill:#262626;" transform="translate(426.228977 134.114447)scale(0.13 -0.13)">
       <use transform="translate(0 0.765625)" xlink:href="#DejaVuSans-31"/>
       <use transform="translate(63.623047 0.765625)" xlink:href="#DejaVuSans-30"/>
       <use transform="translate(128.203125 39.046875)scale(0.7)" xlink:href="#DejaVuSans-36"/>
      </g>
     </g>
    </g>
    <g id="ytick_59">
     <g id="line2d_104">
      <g>
       <use style="fill:#262626;stroke:#262626;" x="462.108977" xlink:href="#mced8de1064" y="92.514082"/>
      </g>
     </g>
     <g id="text_30">
      <!-- $\mathdefault{10^{7}}$ -->
      <g style="fill:#262626;" transform="translate(426.228977 97.453066)scale(0.13 -0.13)">
       <use transform="translate(0 0.684375)" xlink:href="#DejaVuSans-31"/>
       <use transform="translate(63.623047 0.684375)" xlink:href="#DejaVuSans-30"/>
       <use transform="translate(128.203125 38.965625)scale(0.7)" xlink:href="#DejaVuSans-37"/>
      </g>
     </g>
    </g>
    <g id="ytick_60">
     <g id="line2d_105">
      <g>
       <use style="fill:#262626;stroke:#262626;" x="462.108977" xlink:href="#mced8de1064" y="55.852701"/>
      </g>
     </g>
     <g id="text_31">
      <!-- $\mathdefault{10^{8}}$ -->
      <defs>
       <path d="M 31.78125 34.625 
Q 24.75 34.625 20.71875 30.859375 
Q 16.703125 27.09375 16.703125 20.515625 
Q 16.703125 13.921875 20.71875 10.15625 
Q 24.75 6.390625 31.78125 6.390625 
Q 38.8125 6.390625 42.859375 10.171875 
Q 46.921875 13.96875 46.921875 20.515625 
Q 46.921875 27.09375 42.890625 30.859375 
Q 38.875 34.625 31.78125 34.625 
z
M 21.921875 38.8125 
Q 15.578125 40.375 12.03125 44.71875 
Q 8.5 49.078125 8.5 55.328125 
Q 8.5 64.0625 14.71875 69.140625 
Q 20.953125 74.21875 31.78125 74.21875 
Q 42.671875 74.21875 48.875 69.140625 
Q 55.078125 64.0625 55.078125 55.328125 
Q 55.078125 49.078125 51.53125 44.71875 
Q 48 40.375 41.703125 38.8125 
Q 48.828125 37.15625 52.796875 32.3125 
Q 56.78125 27.484375 56.78125 20.515625 
Q 56.78125 9.90625 50.3125 4.234375 
Q 43.84375 -1.421875 31.78125 -1.421875 
Q 19.734375 -1.421875 13.25 4.234375 
Q 6.78125 9.90625 6.78125 20.515625 
Q 6.78125 27.484375 10.78125 32.3125 
Q 14.796875 37.15625 21.921875 38.8125 
z
M 18.3125 54.390625 
Q 18.3125 48.734375 21.84375 45.5625 
Q 25.390625 42.390625 31.78125 42.390625 
Q 38.140625 42.390625 41.71875 45.5625 
Q 45.3125 48.734375 45.3125 54.390625 
Q 45.3125 60.0625 41.71875 63.234375 
Q 38.140625 66.40625 31.78125 66.40625 
Q 25.390625 66.40625 21.84375 63.234375 
Q 18.3125 60.0625 18.3125 54.390625 
z
" id="DejaVuSans-38"/>
      </defs>
      <g style="fill:#262626;" transform="translate(426.228977 60.791686)scale(0.13 -0.13)">
       <use transform="translate(0 0.765625)" xlink:href="#DejaVuSans-31"/>
       <use transform="translate(63.623047 0.765625)" xlink:href="#DejaVuSans-30"/>
       <use transform="translate(128.203125 39.046875)scale(0.7)" xlink:href="#DejaVuSans-38"/>
      </g>
     </g>
    </g>
    <g id="ytick_61">
     <g id="line2d_106">
      <g>
       <use style="fill:#262626;stroke:#262626;stroke-width:0.5;" x="462.108977" xlink:href="#m895ab7f603" y="294.990441"/>
      </g>
     </g>
    </g>
    <g id="ytick_62">
     <g id="line2d_107">
      <g>
       <use style="fill:#262626;stroke:#262626;stroke-width:0.5;" x="462.108977" xlink:href="#m895ab7f603" y="290.410014"/>
      </g>
     </g>
    </g>
    <g id="ytick_63">
     <g id="line2d_108">
      <g>
       <use style="fill:#262626;stroke:#262626;stroke-width:0.5;" x="462.108977" xlink:href="#m895ab7f603" y="286.85716"/>
      </g>
     </g>
    </g>
    <g id="ytick_64">
     <g id="line2d_109">
      <g>
       <use style="fill:#262626;stroke:#262626;stroke-width:0.5;" x="462.108977" xlink:href="#m895ab7f603" y="283.954266"/>
      </g>
     </g>
    </g>
    <g id="ytick_65">
     <g id="line2d_110">
      <g>
       <use style="fill:#262626;stroke:#262626;stroke-width:0.5;" x="462.108977" xlink:href="#m895ab7f603" y="281.499904"/>
      </g>
     </g>
    </g>
    <g id="ytick_66">
     <g id="line2d_111">
      <g>
       <use style="fill:#262626;stroke:#262626;stroke-width:0.5;" x="462.108977" xlink:href="#m895ab7f603" y="279.373839"/>
      </g>
     </g>
    </g>
    <g id="ytick_67">
     <g id="line2d_112">
      <g>
       <use style="fill:#262626;stroke:#262626;stroke-width:0.5;" x="462.108977" xlink:href="#m895ab7f603" y="277.498517"/>
      </g>
     </g>
    </g>
    <g id="ytick_68">
     <g id="line2d_113">
      <g>
       <use style="fill:#262626;stroke:#262626;stroke-width:0.5;" x="462.108977" xlink:href="#m895ab7f603" y="264.784809"/>
      </g>
     </g>
    </g>
    <g id="ytick_69">
     <g id="line2d_114">
      <g>
       <use style="fill:#262626;stroke:#262626;stroke-width:0.5;" x="462.108977" xlink:href="#m895ab7f603" y="258.32906"/>
      </g>
     </g>
    </g>
    <g id="ytick_70">
     <g id="line2d_115">
      <g>
       <use style="fill:#262626;stroke:#262626;stroke-width:0.5;" x="462.108977" xlink:href="#m895ab7f603" y="253.748634"/>
      </g>
     </g>
    </g>
    <g id="ytick_71">
     <g id="line2d_116">
      <g>
       <use style="fill:#262626;stroke:#262626;stroke-width:0.5;" x="462.108977" xlink:href="#m895ab7f603" y="250.195779"/>
      </g>
     </g>
    </g>
    <g id="ytick_72">
     <g id="line2d_117">
      <g>
       <use style="fill:#262626;stroke:#262626;stroke-width:0.5;" x="462.108977" xlink:href="#m895ab7f603" y="247.292885"/>
      </g>
     </g>
    </g>
    <g id="ytick_73">
     <g id="line2d_118">
      <g>
       <use style="fill:#262626;stroke:#262626;stroke-width:0.5;" x="462.108977" xlink:href="#m895ab7f603" y="244.838524"/>
      </g>
     </g>
    </g>
    <g id="ytick_74">
     <g id="line2d_119">
      <g>
       <use style="fill:#262626;stroke:#262626;stroke-width:0.5;" x="462.108977" xlink:href="#m895ab7f603" y="242.712459"/>
      </g>
     </g>
    </g>
    <g id="ytick_75">
     <g id="line2d_120">
      <g>
       <use style="fill:#262626;stroke:#262626;stroke-width:0.5;" x="462.108977" xlink:href="#m895ab7f603" y="240.837137"/>
      </g>
     </g>
    </g>
    <g id="ytick_76">
     <g id="line2d_121">
      <g>
       <use style="fill:#262626;stroke:#262626;stroke-width:0.5;" x="462.108977" xlink:href="#m895ab7f603" y="228.123429"/>
      </g>
     </g>
    </g>
    <g id="ytick_77">
     <g id="line2d_122">
      <g>
       <use style="fill:#262626;stroke:#262626;stroke-width:0.5;" x="462.108977" xlink:href="#m895ab7f603" y="221.66768"/>
      </g>
     </g>
    </g>
    <g id="ytick_78">
     <g id="line2d_123">
      <g>
       <use style="fill:#262626;stroke:#262626;stroke-width:0.5;" x="462.108977" xlink:href="#m895ab7f603" y="217.087253"/>
      </g>
     </g>
    </g>
    <g id="ytick_79">
     <g id="line2d_124">
      <g>
       <use style="fill:#262626;stroke:#262626;stroke-width:0.5;" x="462.108977" xlink:href="#m895ab7f603" y="213.534399"/>
      </g>
     </g>
    </g>
    <g id="ytick_80">
     <g id="line2d_125">
      <g>
       <use style="fill:#262626;stroke:#262626;stroke-width:0.5;" x="462.108977" xlink:href="#m895ab7f603" y="210.631505"/>
      </g>
     </g>
    </g>
    <g id="ytick_81">
     <g id="line2d_126">
      <g>
       <use style="fill:#262626;stroke:#262626;stroke-width:0.5;" x="462.108977" xlink:href="#m895ab7f603" y="208.177143"/>
      </g>
     </g>
    </g>
    <g id="ytick_82">
     <g id="line2d_127">
      <g>
       <use style="fill:#262626;stroke:#262626;stroke-width:0.5;" x="462.108977" xlink:href="#m895ab7f603" y="206.051078"/>
      </g>
     </g>
    </g>
    <g id="ytick_83">
     <g id="line2d_128">
      <g>
       <use style="fill:#262626;stroke:#262626;stroke-width:0.5;" x="462.108977" xlink:href="#m895ab7f603" y="204.175756"/>
      </g>
     </g>
    </g>
    <g id="ytick_84">
     <g id="line2d_129">
      <g>
       <use style="fill:#262626;stroke:#262626;stroke-width:0.5;" x="462.108977" xlink:href="#m895ab7f603" y="191.462048"/>
      </g>
     </g>
    </g>
    <g id="ytick_85">
     <g id="line2d_130">
      <g>
       <use style="fill:#262626;stroke:#262626;stroke-width:0.5;" x="462.108977" xlink:href="#m895ab7f603" y="185.006299"/>
      </g>
     </g>
    </g>
    <g id="ytick_86">
     <g id="line2d_131">
      <g>
       <use style="fill:#262626;stroke:#262626;stroke-width:0.5;" x="462.108977" xlink:href="#m895ab7f603" y="180.425873"/>
      </g>
     </g>
    </g>
    <g id="ytick_87">
     <g id="line2d_132">
      <g>
       <use style="fill:#262626;stroke:#262626;stroke-width:0.5;" x="462.108977" xlink:href="#m895ab7f603" y="176.873018"/>
      </g>
     </g>
    </g>
    <g id="ytick_88">
     <g id="line2d_133">
      <g>
       <use style="fill:#262626;stroke:#262626;stroke-width:0.5;" x="462.108977" xlink:href="#m895ab7f603" y="173.970124"/>
      </g>
     </g>
    </g>
    <g id="ytick_89">
     <g id="line2d_134">
      <g>
       <use style="fill:#262626;stroke:#262626;stroke-width:0.5;" x="462.108977" xlink:href="#m895ab7f603" y="171.515762"/>
      </g>
     </g>
    </g>
    <g id="ytick_90">
     <g id="line2d_135">
      <g>
       <use style="fill:#262626;stroke:#262626;stroke-width:0.5;" x="462.108977" xlink:href="#m895ab7f603" y="169.389698"/>
      </g>
     </g>
    </g>
    <g id="ytick_91">
     <g id="line2d_136">
      <g>
       <use style="fill:#262626;stroke:#262626;stroke-width:0.5;" x="462.108977" xlink:href="#m895ab7f603" y="167.514376"/>
      </g>
     </g>
    </g>
    <g id="ytick_92">
     <g id="line2d_137">
      <g>
       <use style="fill:#262626;stroke:#262626;stroke-width:0.5;" x="462.108977" xlink:href="#m895ab7f603" y="154.800668"/>
      </g>
     </g>
    </g>
    <g id="ytick_93">
     <g id="line2d_138">
      <g>
       <use style="fill:#262626;stroke:#262626;stroke-width:0.5;" x="462.108977" xlink:href="#m895ab7f603" y="148.344919"/>
      </g>
     </g>
    </g>
    <g id="ytick_94">
     <g id="line2d_139">
      <g>
       <use style="fill:#262626;stroke:#262626;stroke-width:0.5;" x="462.108977" xlink:href="#m895ab7f603" y="143.764492"/>
      </g>
     </g>
    </g>
    <g id="ytick_95">
     <g id="line2d_140">
      <g>
       <use style="fill:#262626;stroke:#262626;stroke-width:0.5;" x="462.108977" xlink:href="#m895ab7f603" y="140.211637"/>
      </g>
     </g>
    </g>
    <g id="ytick_96">
     <g id="line2d_141">
      <g>
       <use style="fill:#262626;stroke:#262626;stroke-width:0.5;" x="462.108977" xlink:href="#m895ab7f603" y="137.308744"/>
      </g>
     </g>
    </g>
    <g id="ytick_97">
     <g id="line2d_142">
      <g>
       <use style="fill:#262626;stroke:#262626;stroke-width:0.5;" x="462.108977" xlink:href="#m895ab7f603" y="134.854382"/>
      </g>
     </g>
    </g>
    <g id="ytick_98">
     <g id="line2d_143">
      <g>
       <use style="fill:#262626;stroke:#262626;stroke-width:0.5;" x="462.108977" xlink:href="#m895ab7f603" y="132.728317"/>
      </g>
     </g>
    </g>
    <g id="ytick_99">
     <g id="line2d_144">
      <g>
       <use style="fill:#262626;stroke:#262626;stroke-width:0.5;" x="462.108977" xlink:href="#m895ab7f603" y="130.852995"/>
      </g>
     </g>
    </g>
    <g id="ytick_100">
     <g id="line2d_145">
      <g>
       <use style="fill:#262626;stroke:#262626;stroke-width:0.5;" x="462.108977" xlink:href="#m895ab7f603" y="118.139287"/>
      </g>
     </g>
    </g>
    <g id="ytick_101">
     <g id="line2d_146">
      <g>
       <use style="fill:#262626;stroke:#262626;stroke-width:0.5;" x="462.108977" xlink:href="#m895ab7f603" y="111.683538"/>
      </g>
     </g>
    </g>
    <g id="ytick_102">
     <g id="line2d_147">
      <g>
       <use style="fill:#262626;stroke:#262626;stroke-width:0.5;" x="462.108977" xlink:href="#m895ab7f603" y="107.103112"/>
      </g>
     </g>
    </g>
    <g id="ytick_103">
     <g id="line2d_148">
      <g>
       <use style="fill:#262626;stroke:#262626;stroke-width:0.5;" x="462.108977" xlink:href="#m895ab7f603" y="103.550257"/>
      </g>
     </g>
    </g>
    <g id="ytick_104">
     <g id="line2d_149">
      <g>
       <use style="fill:#262626;stroke:#262626;stroke-width:0.5;" x="462.108977" xlink:href="#m895ab7f603" y="100.647363"/>
      </g>
     </g>
    </g>
    <g id="ytick_105">
     <g id="line2d_150">
      <g>
       <use style="fill:#262626;stroke:#262626;stroke-width:0.5;" x="462.108977" xlink:href="#m895ab7f603" y="98.193001"/>
      </g>
     </g>
    </g>
    <g id="ytick_106">
     <g id="line2d_151">
      <g>
       <use style="fill:#262626;stroke:#262626;stroke-width:0.5;" x="462.108977" xlink:href="#m895ab7f603" y="96.066937"/>
      </g>
     </g>
    </g>
    <g id="ytick_107">
     <g id="line2d_152">
      <g>
       <use style="fill:#262626;stroke:#262626;stroke-width:0.5;" x="462.108977" xlink:href="#m895ab7f603" y="94.191615"/>
      </g>
     </g>
    </g>
    <g id="ytick_108">
     <g id="line2d_153">
      <g>
       <use style="fill:#262626;stroke:#262626;stroke-width:0.5;" x="462.108977" xlink:href="#m895ab7f603" y="81.477907"/>
      </g>
     </g>
    </g>
    <g id="ytick_109">
     <g id="line2d_154">
      <g>
       <use style="fill:#262626;stroke:#262626;stroke-width:0.5;" x="462.108977" xlink:href="#m895ab7f603" y="75.022158"/>
      </g>
     </g>
    </g>
    <g id="ytick_110">
     <g id="line2d_155">
      <g>
       <use style="fill:#262626;stroke:#262626;stroke-width:0.5;" x="462.108977" xlink:href="#m895ab7f603" y="70.441731"/>
      </g>
     </g>
    </g>
    <g id="ytick_111">
     <g id="line2d_156">
      <g>
       <use style="fill:#262626;stroke:#262626;stroke-width:0.5;" x="462.108977" xlink:href="#m895ab7f603" y="66.888876"/>
      </g>
     </g>
    </g>
    <g id="ytick_112">
     <g id="line2d_157">
      <g>
       <use style="fill:#262626;stroke:#262626;stroke-width:0.5;" x="462.108977" xlink:href="#m895ab7f603" y="63.985983"/>
      </g>
     </g>
    </g>
    <g id="ytick_113">
     <g id="line2d_158">
      <g>
       <use style="fill:#262626;stroke:#262626;stroke-width:0.5;" x="462.108977" xlink:href="#m895ab7f603" y="61.531621"/>
      </g>
     </g>
    </g>
    <g id="ytick_114">
     <g id="line2d_159">
      <g>
       <use style="fill:#262626;stroke:#262626;stroke-width:0.5;" x="462.108977" xlink:href="#m895ab7f603" y="59.405556"/>
      </g>
     </g>
    </g>
    <g id="ytick_115">
     <g id="line2d_160">
      <g>
       <use style="fill:#262626;stroke:#262626;stroke-width:0.5;" x="462.108977" xlink:href="#m895ab7f603" y="57.530234"/>
      </g>
     </g>
    </g>
    <g id="ytick_116">
     <g id="line2d_161">
      <g>
       <use style="fill:#262626;stroke:#262626;stroke-width:0.5;" x="462.108977" xlink:href="#m895ab7f603" y="44.816526"/>
      </g>
     </g>
    </g>
    <g id="ytick_117">
     <g id="line2d_162">
      <g>
       <use style="fill:#262626;stroke:#262626;stroke-width:0.5;" x="462.108977" xlink:href="#m895ab7f603" y="38.360777"/>
      </g>
     </g>
    </g>
    <g id="ytick_118">
     <g id="line2d_163">
      <g>
       <use style="fill:#262626;stroke:#262626;stroke-width:0.5;" x="462.108977" xlink:href="#m895ab7f603" y="33.780351"/>
      </g>
     </g>
    </g>
    <g id="ytick_119">
     <g id="line2d_164">
      <g>
       <use style="fill:#262626;stroke:#262626;stroke-width:0.5;" x="462.108977" xlink:href="#m895ab7f603" y="30.227496"/>
      </g>
     </g>
    </g>
    <g id="text_32">
     <!-- Words -->
     <defs>
      <path d="M 3.328125 72.90625 
L 13.28125 72.90625 
L 28.609375 11.28125 
L 43.890625 72.90625 
L 54.984375 72.90625 
L 70.3125 11.28125 
L 85.59375 72.90625 
L 95.609375 72.90625 
L 77.296875 0 
L 64.890625 0 
L 49.515625 63.28125 
L 33.984375 0 
L 21.578125 0 
z
" id="DejaVuSans-57"/>
     </defs>
     <g style="fill:#262626;" transform="translate(418.069602 195.9625)rotate(-90)scale(0.2 -0.2)">
      <use xlink:href="#DejaVuSans-57"/>
      <use x="98.798828" xlink:href="#DejaVuSans-6f"/>
      <use x="159.980469" xlink:href="#DejaVuSans-72"/>
      <use x="201.078125" xlink:href="#DejaVuSans-64"/>
      <use x="264.554688" xlink:href="#DejaVuSans-73"/>
     </g>
    </g>
   </g>
   <g id="line2d_165">
    <path clip-path="url(#pad5b1588bd)" d="M 462.108977 176.873336 
L 464.083392 157.18197 
L 466.057807 152.727242 
L 468.032222 154.702969 
L 470.006636 150.979291 
L 471.981051 159.481078 
L 473.955466 153.247298 
L 475.929881 137.69425 
L 477.904296 131.148505 
L 479.878711 126.828603 
L 481.853125 125.249612 
L 483.82754 128.949691 
L 485.801955 134.17128 
L 487.77637 115.672138 
L 489.750785 126.5223 
L 491.725199 129.739297 
L 493.699614 134.240046 
L 495.674029 123.698674 
L 497.648444 125.851274 
L 499.622859 119.365971 
L 501.597273 108.40021 
L 503.571688 85.392971 
L 505.546103 114.064668 
L 507.520518 110.840949 
L 509.494933 110.074531 
L 511.469347 112.247962 
L 513.443762 110.61583 
L 515.418177 110.918577 
L 517.392592 106.647305 
L 519.367007 108.54146 
L 521.341421 102.133695 
L 523.315836 102.65238 
L 525.290251 103.461286 
L 527.264666 103.033221 
L 529.239081 101.193986 
L 531.213496 98.48701 
L 533.18791 96.169098 
L 535.162325 93.443432 
L 537.13674 87.915661 
L 539.111155 88.953454 
L 541.08557 89.088849 
L 543.059984 88.286032 
L 547.008814 84.007252 
L 548.983229 82.320677 
L 550.957644 79.865056 
L 552.932058 75.543712 
L 554.906473 75.521947 
L 556.880888 76.35187 
L 558.855303 77.994518 
L 560.829718 72.646494 
L 562.804132 67.860361 
L 564.778547 67.203422 
L 566.752962 67.824553 
L 568.727377 64.084399 
L 570.701792 63.005009 
L 572.676206 62.056138 
L 574.650621 57.403939 
L 576.625036 55.086725 
L 578.599451 50.053837 
L 580.573866 48.529436 
L 582.54828 50.557916 
L 584.522695 49.25531 
L 586.49711 50.715934 
L 588.471525 47.625936 
L 590.44594 50.41657 
L 592.420355 50.865899 
L 594.394769 49.546369 
L 596.369184 47.148057 
L 598.343599 43.569072 
L 600.318014 43.648792 
L 602.292429 45.956462 
L 604.266843 43.83979 
L 606.241258 41.912308 
L 608.215673 40.75142 
L 610.190088 41.765444 
L 612.164503 41.496092 
L 614.138917 46.832561 
L 616.113332 47.154604 
L 618.087747 47.997714 
L 620.062162 45.113374 
L 622.036577 42.929311 
L 624.010991 45.040958 
L 625.985406 46.325626 
L 627.959821 44.196545 
L 629.934236 43.612734 
L 631.908651 42.876854 
L 633.883065 42.014209 
L 635.85748 43.296425 
L 637.831895 47.575318 
L 639.80631 47.950177 
L 641.780725 46.61927 
L 643.755139 43.975798 
L 645.729554 43.038843 
L 647.703969 45.457758 
L 649.678384 46.351994 
L 651.652799 44.748558 
L 653.627214 44.575046 
L 655.601628 45.892886 
L 657.576043 51.158258 
L 659.550458 50.941439 
L 661.524873 52.871677 
L 663.499288 52.930387 
L 665.473702 53.128455 
L 669.422532 50.728159 
L 673.371362 53.075384 
L 675.345776 51.182901 
L 677.320191 51.747735 
L 679.294606 50.212821 
L 681.269021 51.257978 
L 683.243436 51.677794 
L 685.21785 53.904235 
L 687.192265 54.59865 
L 689.16668 54.093837 
L 691.141095 52.315984 
L 693.11551 52.341886 
L 695.089924 53.155774 
L 697.064339 54.67764 
L 699.038754 53.797932 
L 701.013169 54.601182 
L 702.987584 54.367985 
L 704.961999 54.682771 
L 706.936413 54.842277 
L 708.910828 55.965125 
L 712.859658 55.465226 
L 714.834073 55.375747 
L 716.808487 54.546107 
L 718.782902 54.580562 
L 720.757317 55.479563 
L 722.731732 54.845109 
L 724.706147 55.084424 
L 726.680561 54.040596 
L 728.654976 54.840344 
L 730.629391 53.634366 
L 732.603806 55.945433 
L 736.552635 55.20321 
L 738.52705 55.666973 
L 740.501465 53.914033 
L 742.47588 54.50016 
L 744.450295 54.907253 
L 746.424709 54.207898 
L 748.399124 55.761132 
L 750.373539 54.653999 
L 752.347954 54.817433 
L 754.322369 54.015272 
L 758.271198 56.887063 
L 760.245613 56.566862 
L 762.220028 56.90563 
L 764.194443 54.902728 
L 766.168858 55.580218 
L 768.143272 55.95479 
L 770.117687 54.712804 
L 772.092102 55.914623 
L 774.066517 54.821191 
L 776.040932 55.606793 
L 778.015346 55.350622 
L 779.989761 57.328012 
L 781.964176 56.732608 
L 783.938591 57.050827 
L 787.88742 56.292476 
L 791.83625 56.470267 
L 791.83625 56.470267 
" style="fill:none;stroke:#4c72b0;stroke-linecap:square;stroke-width:1.75;"/>
   </g>
   <g id="line2d_166">
    <path clip-path="url(#pad5b1588bd)" d="M 466.035636 357.334687 
L 466.057807 232.524423 
L 468.032222 248.391378 
L 470.006636 226.219826 
L 471.981051 246.141408 
L 473.955466 211.400773 
L 475.929881 197.439439 
L 477.904296 187.655834 
L 479.878711 185.124559 
L 481.853125 184.02956 
L 483.82754 189.258949 
L 485.801955 182.759357 
L 487.77637 172.327897 
L 489.750785 192.182653 
L 491.725199 191.818681 
L 493.699614 197.348157 
L 495.674029 183.555993 
L 497.648444 190.659462 
L 499.622859 185.131512 
L 501.597273 178.718435 
L 503.571688 164.999172 
L 505.546103 178.479239 
L 507.520518 176.827547 
L 509.494933 181.759519 
L 511.469347 174.61594 
L 513.443762 167.053538 
L 515.418177 181.976977 
L 517.392592 177.862254 
L 519.367007 169.654599 
L 521.341421 176.774607 
L 523.315836 171.241999 
L 525.290251 173.228716 
L 527.264666 175.958193 
L 529.239081 176.74931 
L 531.213496 170.301778 
L 533.18791 173.779413 
L 535.162325 163.00336 
L 537.13674 159.391606 
L 539.111155 158.125098 
L 541.08557 159.254226 
L 543.059984 159.72129 
L 545.034399 161.404981 
L 547.008814 159.430316 
L 548.983229 157.266139 
L 550.957644 152.27423 
L 552.932058 143.96614 
L 554.906473 146.534643 
L 556.880888 145.239301 
L 558.855303 150.090767 
L 560.829718 140.217625 
L 562.804132 138.098494 
L 564.778547 135.04409 
L 566.752962 137.220226 
L 568.727377 134.241621 
L 570.701792 136.358556 
L 572.676206 134.273191 
L 574.650621 117.97688 
L 576.625036 122.508679 
L 578.599451 113.769337 
L 580.573866 121.916915 
L 582.54828 119.586417 
L 584.522695 120.29236 
L 586.49711 122.526863 
L 588.471525 116.273563 
L 590.44594 120.660034 
L 592.420355 127.277159 
L 594.394769 123.49424 
L 596.369184 114.116593 
L 598.343599 105.956663 
L 600.318014 107.521473 
L 602.292429 113.528455 
L 604.266843 112.465059 
L 606.241258 105.440415 
L 608.215673 106.579799 
L 610.190088 108.256122 
L 612.164503 109.29401 
L 614.138917 116.585348 
L 616.113332 120.532779 
L 618.087747 121.011094 
L 620.062162 112.285072 
L 622.036577 107.594941 
L 624.010991 109.213458 
L 625.985406 112.052399 
L 627.959821 109.500555 
L 629.934236 108.343774 
L 631.908651 109.116734 
L 633.883065 107.767002 
L 635.85748 109.827051 
L 637.831895 115.818782 
L 639.80631 123.099539 
L 641.780725 118.959499 
L 643.755139 108.164138 
L 645.729554 105.555979 
L 647.703969 110.489772 
L 649.678384 114.472781 
L 651.652799 110.305229 
L 653.627214 110.309201 
L 655.601628 112.492737 
L 657.576043 117.077677 
L 659.550458 121.066949 
L 661.524873 123.499312 
L 663.499288 126.93994 
L 665.473702 126.890359 
L 667.448117 122.150109 
L 669.422532 116.309723 
L 671.396947 120.026756 
L 675.345776 120.936148 
L 677.320191 119.117709 
L 679.294606 118.06192 
L 681.269021 120.967885 
L 683.243436 120.390451 
L 685.21785 126.609458 
L 687.192265 129.827497 
L 689.16668 129.635433 
L 691.141095 122.471819 
L 693.11551 122.345296 
L 695.089924 121.105066 
L 697.064339 124.885995 
L 699.038754 125.496359 
L 701.013169 128.096992 
L 702.987584 125.495373 
L 704.961999 126.633788 
L 706.936413 127.387105 
L 708.910828 131.943226 
L 710.885243 132.815949 
L 712.859658 130.710708 
L 714.834073 125.847876 
L 716.808487 125.638193 
L 718.782902 123.578811 
L 720.757317 125.939151 
L 722.731732 125.657151 
L 724.706147 128.688022 
L 726.680561 125.482048 
L 728.654976 126.437977 
L 730.629391 124.625842 
L 732.603806 128.068777 
L 734.578221 130.989534 
L 736.552635 133.1588 
L 738.52705 129.387078 
L 740.501465 125.243529 
L 742.47588 123.09705 
L 744.450295 125.649557 
L 746.424709 126.906229 
L 748.399124 127.622729 
L 750.373539 128.956317 
L 752.347954 127.156629 
L 754.322369 126.348457 
L 756.296783 126.753924 
L 758.271198 134.908449 
L 760.245613 133.316597 
L 762.220028 131.485754 
L 764.194443 125.483512 
L 766.168858 125.550587 
L 768.143272 126.67166 
L 770.117687 127.633232 
L 772.092102 128.260908 
L 774.066517 128.358047 
L 776.040932 127.89434 
L 778.015346 129.341176 
L 779.989761 133.507628 
L 781.964176 134.422422 
L 783.938591 134.641212 
L 785.913006 133.383462 
L 787.88742 131.010817 
L 789.861835 132.856525 
L 791.83625 132.862646 
L 791.83625 132.862646 
" style="fill:none;stroke:#55a868;stroke-linecap:square;stroke-width:1.75;"/>
   </g>
   <g id="line2d_167">
    <path clip-path="url(#pad5b1588bd)" d="M 466.040198 357.334687 
L 466.057807 258.435561 
L 466.057807 258.435561 
L 466.057807 258.435561 
L 466.075416 357.334687 
M 469.985435 357.334687 
L 470.006636 238.037776 
L 471.981051 276.470945 
L 471.995473 357.334687 
M 477.886622 357.334687 
L 477.904296 258.065884 
L 479.878711 287.84233 
L 481.853125 254.315884 
L 483.82754 252.051211 
L 485.801955 263.267296 
L 487.77637 223.660861 
L 489.750785 251.351238 
L 491.725199 266.0261 
L 493.699614 252.523273 
L 495.674029 279.373839 
L 497.648444 263.267296 
L 499.622859 249.725149 
L 501.597273 259.201708 
L 503.571688 234.2288 
L 505.546103 247.668798 
L 507.520518 239.384085 
L 509.494933 247.213474 
L 511.469347 234.535452 
L 513.443762 232.264171 
L 515.418177 253.239405 
L 517.392592 223.262868 
L 519.367007 218.755943 
L 521.341421 235.266499 
L 523.315836 244.590269 
L 525.290251 224.48166 
L 527.264666 260.607489 
L 529.239081 261.295769 
L 531.213496 229.176496 
L 533.18791 220.198488 
L 535.162325 216.612759 
L 537.13674 221.540812 
L 539.111155 221.731495 
L 541.08557 217.979535 
L 543.059984 209.666249 
L 545.034399 221.593551 
L 547.008814 207.131811 
L 548.983229 215.057007 
L 550.957644 216.024891 
L 552.932058 208.050275 
L 554.906473 207.104145 
L 556.880888 205.223154 
L 558.855303 197.072877 
L 560.829718 205.530288 
L 562.804132 187.85642 
L 564.778547 195.125746 
L 566.752962 205.724081 
L 568.727377 202.314593 
L 570.701792 198.269546 
L 572.676206 205.995449 
L 574.650621 195.135769 
L 576.625036 198.864057 
L 578.599451 189.109227 
L 580.573866 191.98399 
L 582.54828 193.212279 
L 584.522695 192.543207 
L 586.49711 180.714671 
L 588.471525 197.25854 
L 590.44594 187.823447 
L 592.420355 192.116986 
L 594.394769 183.949399 
L 596.369184 196.446669 
L 598.343599 168.295345 
L 600.318014 185.135791 
L 602.292429 183.661482 
L 604.266843 188.014626 
L 606.241258 180.371037 
L 608.215673 189.450734 
L 610.190088 186.631435 
L 612.164503 188.502864 
L 614.138917 191.897848 
L 616.113332 187.935326 
L 618.087747 191.929789 
L 620.062162 185.739959 
L 622.036577 187.489346 
L 624.010991 187.845633 
L 625.985406 189.142912 
L 627.959821 174.920609 
L 629.934236 175.766035 
L 631.908651 180.103556 
L 633.883065 185.03977 
L 635.85748 182.420106 
L 637.831895 189.968436 
L 639.80631 177.18169 
L 641.780725 188.729229 
L 643.755139 170.101143 
L 645.729554 185.998811 
L 647.703969 187.147535 
L 649.678384 186.206333 
L 651.652799 191.715622 
L 653.627214 178.83111 
L 655.601628 184.167924 
L 657.576043 177.702779 
L 659.550458 184.805365 
L 661.524873 182.229064 
L 663.499288 181.126915 
L 665.473702 189.368158 
L 667.448117 182.429132 
L 669.422532 187.642676 
L 671.396947 192.360225 
L 673.371362 186.253903 
L 675.345776 181.805465 
L 677.320191 189.673293 
L 679.294606 193.749052 
L 681.269021 190.444431 
L 683.243436 187.563957 
L 685.21785 192.770611 
L 687.192265 192.639779 
L 689.16668 192.885977 
L 691.141095 190.95359 
L 693.11551 190.627701 
L 695.089924 187.112361 
L 697.064339 192.752471 
L 699.038754 191.569885 
L 701.013169 192.470949 
L 702.987584 188.604996 
L 704.961999 190.61109 
L 706.936413 193.35599 
L 708.910828 205.975629 
L 710.885243 188.756073 
L 712.859658 200.56498 
L 714.834073 189.150484 
L 716.808487 181.147727 
L 718.782902 193.962783 
L 720.757317 188.775563 
L 722.731732 190.596758 
L 724.706147 186.55404 
L 726.680561 181.909111 
L 728.654976 176.958589 
L 730.629391 188.951377 
L 732.603806 199.526484 
L 734.578221 190.415332 
L 736.552635 190.821516 
L 738.52705 187.274932 
L 740.501465 198.293981 
L 742.47588 179.836274 
L 744.450295 196.421648 
L 746.424709 188.559154 
L 748.399124 182.975586 
L 750.373539 187.119632 
L 752.347954 196.096701 
L 754.322369 194.15772 
L 756.296783 197.738889 
L 758.271198 187.605142 
L 760.245613 186.311405 
L 764.194443 201.342303 
L 766.168858 190.415332 
L 768.143272 185.391452 
L 770.117687 190.390751 
L 772.092102 193.974897 
L 774.066517 193.967441 
L 776.040932 192.172661 
L 778.015346 204.846001 
L 779.989761 177.829081 
L 781.964176 199.59931 
L 783.938591 199.850791 
L 785.913006 185.732736 
L 787.88742 182.135724 
L 789.861835 191.911763 
L 791.83625 193.789542 
L 791.83625 193.789542 
" style="fill:none;stroke:#c44e52;stroke-linecap:square;stroke-width:1.75;"/>
   </g>
   <g id="patch_6">
    <path d="M 462.108977 300.196875 
L 462.108977 28.396875 
" style="fill:none;stroke:#000000;stroke-linecap:square;stroke-linejoin:miter;stroke-width:0.8;"/>
   </g>
   <g id="patch_7">
    <path d="M 462.108977 300.196875 
L 791.83625 300.196875 
" style="fill:none;stroke:#000000;stroke-linecap:square;stroke-linejoin:miter;stroke-width:0.8;"/>
   </g>
   <g id="text_33">
    <!-- Monthly Word Additions -->
    <g style="fill:#262626;" transform="translate(507.442926 22.396875)scale(0.2 -0.2)">
     <use xlink:href="#DejaVuSans-4d"/>
     <use x="86.279297" xlink:href="#DejaVuSans-6f"/>
     <use x="147.460938" xlink:href="#DejaVuSans-6e"/>
     <use x="210.839844" xlink:href="#DejaVuSans-74"/>
     <use x="250.048828" xlink:href="#DejaVuSans-68"/>
     <use x="313.427734" xlink:href="#DejaVuSans-6c"/>
     <use x="341.210938" xlink:href="#DejaVuSans-79"/>
     <use x="400.390625" xlink:href="#DejaVuSans-20"/>
     <use x="432.177734" xlink:href="#DejaVuSans-57"/>
     <use x="530.976562" xlink:href="#DejaVuSans-6f"/>
     <use x="592.158203" xlink:href="#DejaVuSans-72"/>
     <use x="633.255859" xlink:href="#DejaVuSans-64"/>
     <use x="696.732422" xlink:href="#DejaVuSans-20"/>
     <use x="728.519531" xlink:href="#DejaVuSans-41"/>
     <use x="796.912109" xlink:href="#DejaVuSans-64"/>
     <use x="860.388672" xlink:href="#DejaVuSans-64"/>
     <use x="923.865234" xlink:href="#DejaVuSans-69"/>
     <use x="951.648438" xlink:href="#DejaVuSans-74"/>
     <use x="990.857422" xlink:href="#DejaVuSans-69"/>
     <use x="1018.640625" xlink:href="#DejaVuSans-6f"/>
     <use x="1079.822266" xlink:href="#DejaVuSans-6e"/>
     <use x="1143.201172" xlink:href="#DejaVuSans-73"/>
    </g>
   </g>
   <g id="legend_2">
    <g id="line2d_168">
     <path d="M 643.014375 212.325 
L 683.014375 212.325 
" style="fill:none;stroke:#4c72b0;stroke-linecap:square;stroke-width:1.75;"/>
    </g>
    <g id="line2d_169"/>
    <g id="text_34">
     <!-- all -->
     <g style="fill:#262626;" transform="translate(699.014375 219.325)scale(0.2 -0.2)">
      <use xlink:href="#DejaVuSans-61"/>
      <use x="61.279297" xlink:href="#DejaVuSans-6c"/>
      <use x="89.0625" xlink:href="#DejaVuSans-6c"/>
     </g>
    </g>
    <g id="line2d_170">
     <path d="M 643.014375 241.68125 
L 683.014375 241.68125 
" style="fill:none;stroke:#55a868;stroke-linecap:square;stroke-width:1.75;"/>
    </g>
    <g id="line2d_171"/>
    <g id="text_35">
     <!-- chem -->
     <defs>
      <path d="M 52 44.1875 
Q 55.375 50.25 60.0625 53.125 
Q 64.75 56 71.09375 56 
Q 79.640625 56 84.28125 50.015625 
Q 88.921875 44.046875 88.921875 33.015625 
L 88.921875 0 
L 79.890625 0 
L 79.890625 32.71875 
Q 79.890625 40.578125 77.09375 44.375 
Q 74.3125 48.1875 68.609375 48.1875 
Q 61.625 48.1875 57.5625 43.546875 
Q 53.515625 38.921875 53.515625 30.90625 
L 53.515625 0 
L 44.484375 0 
L 44.484375 32.71875 
Q 44.484375 40.625 41.703125 44.40625 
Q 38.921875 48.1875 33.109375 48.1875 
Q 26.21875 48.1875 22.15625 43.53125 
Q 18.109375 38.875 18.109375 30.90625 
L 18.109375 0 
L 9.078125 0 
L 9.078125 54.6875 
L 18.109375 54.6875 
L 18.109375 46.1875 
Q 21.1875 51.21875 25.484375 53.609375 
Q 29.78125 56 35.6875 56 
Q 41.65625 56 45.828125 52.96875 
Q 50 49.953125 52 44.1875 
z
" id="DejaVuSans-6d"/>
     </defs>
     <g style="fill:#262626;" transform="translate(699.014375 248.68125)scale(0.2 -0.2)">
      <use xlink:href="#DejaVuSans-63"/>
      <use x="54.980469" xlink:href="#DejaVuSans-68"/>
      <use x="118.359375" xlink:href="#DejaVuSans-65"/>
      <use x="179.882812" xlink:href="#DejaVuSans-6d"/>
     </g>
    </g>
    <g id="line2d_172">
     <path d="M 643.014375 271.0375 
L 683.014375 271.0375 
" style="fill:none;stroke:#c44e52;stroke-linecap:square;stroke-width:1.75;"/>
    </g>
    <g id="line2d_173"/>
    <g id="text_36">
     <!-- metrics -->
     <g style="fill:#262626;" transform="translate(699.014375 278.0375)scale(0.2 -0.2)">
      <use xlink:href="#DejaVuSans-6d"/>
      <use x="97.412109" xlink:href="#DejaVuSans-65"/>
      <use x="158.935547" xlink:href="#DejaVuSans-74"/>
      <use x="198.144531" xlink:href="#DejaVuSans-72"/>
      <use x="239.257812" xlink:href="#DejaVuSans-69"/>
      <use x="267.041016" xlink:href="#DejaVuSans-63"/>
      <use x="322.021484" xlink:href="#DejaVuSans-73"/>
     </g>
    </g>
   </g>
  </g>
 </g>
 <defs>
  <clipPath id="p2ace07f372">
   <rect height="271.8" width="329.727273" x="66.43625" y="28.396875"/>
  </clipPath>
  <clipPath id="pad5b1588bd">
   <rect height="271.8" width="329.727273" x="462.108977" y="28.396875"/>
  </clipPath>
 </defs>
</svg>
