<?xml version="1.0" encoding="utf-8" standalone="no"?>
<!DOCTYPE svg PUBLIC "-//W3C//DTD SVG 1.1//EN"
  "http://www.w3.org/Graphics/SVG/1.1/DTD/svg11.dtd">
<!-- Created with matplotlib (http://matplotlib.org/) -->
<svg height="341pt" version="1.1" viewBox="0 0 483 341" width="483pt" xmlns="http://www.w3.org/2000/svg" xmlns:xlink="http://www.w3.org/1999/xlink">
 <defs>
  <style type="text/css">
*{stroke-linecap:butt;stroke-linejoin:round;}
  </style>
 </defs>
 <g id="figure_1">
  <g id="patch_1">
   <path d="M 0 341.137812 
L 483.265 341.137812 
L 483.265 0 
L 0 0 
z
" style="fill:#ffffff;"/>
  </g>
  <g id="axes_1">
   <g id="patch_2">
    <path d="M 70.992344 285 
L 461.592344 285 
L 461.592344 13.2 
L 70.992344 13.2 
z
" style="fill:#ffffff;"/>
   </g>
   <g id="line2d_1">
    <path clip-path="url(#pf21f76876b)" d="M 44.952344 224.6 
L 50.73901 224.6 
L 56.525677 224.6 
L 62.312344 224.6 
L 68.09901 224.6 
L 73.885677 224.6 
L 79.672344 224.6 
L 85.45901 224.6 
L 91.245677 224.6 
L 97.032344 224.6 
L 102.81901 224.6 
L 108.605677 224.6 
L 114.392344 224.6 
L 120.17901 224.6 
L 125.965677 224.6 
L 131.752344 224.6 
L 137.53901 224.6 
L 143.325677 224.6 
L 149.112344 224.6 
L 154.89901 224.6 
L 160.685677 224.6 
L 166.472344 224.6 
L 172.25901 224.6 
L 178.045677 224.6 
L 183.832344 224.6 
L 189.61901 224.6 
L 195.405677 224.6 
L 201.192344 224.6 
L 206.97901 224.6 
L 212.765677 224.6 
L 218.552344 224.6 
L 224.33901 224.6 
L 230.125677 224.6 
L 235.912344 224.6 
L 241.69901 224.6 
L 247.485677 224.6 
L 253.272344 224.6 
L 259.05901 224.6 
L 264.845677 224.6 
L 270.632344 224.6 
L 276.41901 224.6 
L 282.205677 224.6 
L 287.992344 224.6 
L 293.77901 224.6 
L 299.565677 224.6 
L 305.352344 224.6 
L 311.13901 224.6 
L 316.925677 224.6 
L 322.712344 224.6 
L 328.49901 224.6 
L 334.285677 224.6 
L 340.072344 224.6 
L 345.85901 224.6 
L 351.645677 224.6 
L 357.432344 224.6 
L 363.21901 224.6 
L 369.005677 224.6 
L 374.792344 224.6 
L 380.57901 224.6 
L 386.365677 224.6 
L 392.152344 224.6 
L 397.93901 224.6 
L 403.725677 224.6 
L 409.512344 224.6 
L 415.29901 224.6 
L 421.085677 224.6 
L 426.872344 224.6 
L 432.65901 224.6 
L 438.445677 224.6 
L 444.232344 224.6 
L 450.01901 224.6 
L 455.805677 224.6 
L 461.592344 224.6 
L 467.37901 224.6 
L 473.165677 224.6 
L 478.952344 224.6 
L 484.265 224.6 
" style="fill:none;stroke:#000000;stroke-dasharray:3.7,1.6;stroke-dashoffset:0;"/>
   </g>
   <g id="PolyCollection_1">
    <path clip-path="url(#pf21f76876b)" d="M 44.952344 152.618549 
L 44.952344 349.869885 
L 50.73901 338.76681 
L 56.525677 317.509816 
L 62.312344 294.258308 
L 68.09901 274.218799 
L 73.885677 259.043283 
L 79.672344 248.223128 
L 85.45901 241.15522 
L 91.245677 237.692097 
L 97.032344 237.213547 
L 102.81901 237.679233 
L 108.605677 237.039564 
L 114.392344 235.216005 
L 120.17901 233.495642 
L 125.965677 232.981885 
L 131.752344 232.611892 
L 137.53901 231.614057 
L 143.325677 230.80865 
L 149.112344 230.82475 
L 154.89901 231.700255 
L 160.685677 232.998504 
L 166.472344 233.597374 
L 172.25901 233.051328 
L 178.045677 232.324608 
L 183.832344 232.474798 
L 189.61901 233.422164 
L 195.405677 234.285264 
L 201.192344 234.209855 
L 206.97901 233.393572 
L 212.765677 232.381742 
L 218.552344 231.219338 
L 224.33901 229.85869 
L 230.125677 228.915301 
L 235.912344 228.750616 
L 241.69901 229.380229 
L 247.485677 230.57145 
L 253.272344 230.755045 
L 259.05901 228.442783 
L 264.845677 224.111846 
L 270.632344 218.858782 
L 276.41901 212.908413 
L 282.205677 207.671757 
L 287.992344 205.271144 
L 293.77901 205.639862 
L 299.565677 207.265345 
L 305.352344 209.946528 
L 311.13901 214.014583 
L 316.925677 220.22108 
L 322.712344 227.669871 
L 328.49901 233.913431 
L 334.285677 237.990654 
L 340.072344 241.799623 
L 345.85901 242.519968 
L 351.645677 238.523319 
L 357.432344 229.715675 
L 363.21901 217.146628 
L 369.005677 212.736071 
L 374.792344 224.198476 
L 380.57901 240.345309 
L 386.365677 253.551029 
L 392.152344 263.893249 
L 397.93901 267.784 
L 403.725677 264.24304 
L 409.512344 256.523055 
L 415.29901 252.434155 
L 421.085677 260.441576 
L 426.872344 281.066519 
L 432.65901 311.31237 
L 438.445677 332.258511 
L 444.232344 351.5375 
L 450.01901 369.151782 
L 455.805677 365.857812 
L 461.592344 363.821434 
L 467.37901 382.698391 
L 473.165677 420.310512 
L 478.952344 457.622815 
L 484.73901 506.677092 
L 490.525677 586.89845 
L 496.312344 778.275744 
L 502.09901 706.710642 
L 507.885677 553.377497 
L 513.672344 618.026242 
L 519.45901 857.752089 
L 525.245677 882.290974 
L 531.032344 776.613928 
L 536.81901 1168.16514 
L 542.605677 2362.609043 
L 548.392344 9485.158418 
L 554.17901 66681.792599 
L 559.965677 362439.239178 
L 565.752344 76577.929043 
L 571.53901 14886.010684 
L 577.325677 4267.524479 
L 583.112344 1329.913653 
L 588.89901 714.12669 
L 594.685677 508.66253 
L 600.472344 397.577105 
L 606.25901 334.779173 
L 612.045677 302.693424 
L 617.832344 287.383048 
L 617.832344 253.086307 
L 617.832344 253.086307 
L 612.045677 229.262255 
L 606.25901 179.386337 
L 600.472344 76.725436 
L 594.685677 -133.496171 
L 588.89901 -613.293146 
L 583.112344 -2078.917426 
L 577.325677 -7827.007832 
L 571.53901 -26500.939592 
L 565.752344 -94650.910858 
L 559.965677 -420270.061506 
L 554.17901 -77943.884685 
L 548.392344 -11372.579485 
L 542.605677 -2890.488987 
L 536.81901 -1427.450424 
L 531.032344 -1049.728529 
L 525.245677 -1327.508832 
L 519.45901 -1326.510625 
L 513.672344 -855.852889 
L 507.885677 -521.904791 
L 502.09901 -527.204518 
L 496.312344 -577.478524 
L 490.525677 -436.633137 
L 484.73901 -423.200353 
L 478.952344 -348.609399 
L 473.165677 -219.695 
L 467.37901 -75.567534 
L 461.592344 19.369253 
L 455.805677 41.778942 
L 450.01901 11.34925 
L 444.232344 -16.431998 
L 438.445677 -26.518317 
L 432.65901 -33.592701 
L 426.872344 -41.52131 
L 421.085677 -28.427643 
L 415.29901 24.475701 
L 409.512344 73.17919 
L 403.725677 93.187538 
L 397.93901 97.730554 
L 392.152344 102.573539 
L 386.365677 110.545991 
L 380.57901 111.166928 
L 374.792344 102.177454 
L 369.005677 97.768756 
L 363.21901 107.654995 
L 357.432344 126.991672 
L 351.645677 145.622214 
L 345.85901 160.270096 
L 340.072344 174.795135 
L 334.285677 185.278442 
L 328.49901 184.613893 
L 322.712344 177.86806 
L 316.925677 171.89083 
L 311.13901 169.658954 
L 305.352344 172.033911 
L 299.565677 176.277235 
L 293.77901 176.789984 
L 287.992344 175.054463 
L 282.205677 177.62264 
L 276.41901 185.570446 
L 270.632344 194.080059 
L 264.845677 200.367606 
L 259.05901 204.684923 
L 253.272344 207.698287 
L 247.485677 209.754619 
L 241.69901 211.288122 
L 235.912344 212.686622 
L 230.125677 214.41494 
L 224.33901 216.473725 
L 218.552344 218.559692 
L 212.765677 220.557736 
L 206.97901 222.377523 
L 201.192344 224.005795 
L 195.405677 225.114993 
L 189.61901 225.302403 
L 183.832344 224.699648 
L 178.045677 224.079531 
L 172.25901 223.830891 
L 166.472344 223.751166 
L 160.685677 223.30355 
L 154.89901 222.263222 
L 149.112344 220.954971 
L 143.325677 220.077519 
L 137.53901 219.935822 
L 131.752344 220.278702 
L 125.965677 220.849481 
L 120.17901 221.027404 
L 114.392344 220.292356 
L 108.605677 218.932991 
L 102.81901 216.520318 
L 97.032344 212.473528 
L 91.245677 206.311774 
L 85.45901 198.076666 
L 79.672344 187.944822 
L 73.885677 175.672977 
L 68.09901 161.38459 
L 62.312344 146.818469 
L 56.525677 136.517094 
L 50.73901 136.937869 
L 44.952344 152.618549 
z
" style="fill:#4c72b0;fill-opacity:0.1;stroke:#4c72b0;stroke-opacity:0.1;"/>
   </g>
   <g id="matplotlib.axis_1">
    <g id="xtick_1">
     <g id="line2d_2">
      <defs>
       <path d="M 0 0 
L 0 6 
" id="ma5a26bb850" style="stroke:#262626;"/>
      </defs>
      <g>
       <use style="fill:#262626;stroke:#262626;" x="70.992344" xlink:href="#ma5a26bb850" y="285"/>
      </g>
     </g>
     <g id="text_1">
      <!-- 0.00 -->
      <defs>
       <path d="M 31.78125 66.40625 
Q 24.171875 66.40625 20.328125 58.90625 
Q 16.5 51.421875 16.5 36.375 
Q 16.5 21.390625 20.328125 13.890625 
Q 24.171875 6.390625 31.78125 6.390625 
Q 39.453125 6.390625 43.28125 13.890625 
Q 47.125 21.390625 47.125 36.375 
Q 47.125 51.421875 43.28125 58.90625 
Q 39.453125 66.40625 31.78125 66.40625 
z
M 31.78125 74.21875 
Q 44.046875 74.21875 50.515625 64.515625 
Q 56.984375 54.828125 56.984375 36.375 
Q 56.984375 17.96875 50.515625 8.265625 
Q 44.046875 -1.421875 31.78125 -1.421875 
Q 19.53125 -1.421875 13.0625 8.265625 
Q 6.59375 17.96875 6.59375 36.375 
Q 6.59375 54.828125 13.0625 64.515625 
Q 19.53125 74.21875 31.78125 74.21875 
z
" id="DejaVuSans-30"/>
       <path d="M 10.6875 12.40625 
L 21 12.40625 
L 21 0 
L 10.6875 0 
z
" id="DejaVuSans-2e"/>
      </defs>
      <g style="fill:#262626;" transform="translate(56.519688 307.877969)scale(0.13 -0.13)">
       <use xlink:href="#DejaVuSans-30"/>
       <use x="63.623047" xlink:href="#DejaVuSans-2e"/>
       <use x="95.410156" xlink:href="#DejaVuSans-30"/>
       <use x="159.033203" xlink:href="#DejaVuSans-30"/>
      </g>
     </g>
    </g>
    <g id="xtick_2">
     <g id="line2d_3">
      <g>
       <use style="fill:#262626;stroke:#262626;" x="114.392344" xlink:href="#ma5a26bb850" y="285"/>
      </g>
     </g>
     <g id="text_2">
      <!-- 0.05 -->
      <defs>
       <path d="M 10.796875 72.90625 
L 49.515625 72.90625 
L 49.515625 64.59375 
L 19.828125 64.59375 
L 19.828125 46.734375 
Q 21.96875 47.46875 24.109375 47.828125 
Q 26.265625 48.1875 28.421875 48.1875 
Q 40.625 48.1875 47.75 41.5 
Q 54.890625 34.8125 54.890625 23.390625 
Q 54.890625 11.625 47.5625 5.09375 
Q 40.234375 -1.421875 26.90625 -1.421875 
Q 22.3125 -1.421875 17.546875 -0.640625 
Q 12.796875 0.140625 7.71875 1.703125 
L 7.71875 11.625 
Q 12.109375 9.234375 16.796875 8.0625 
Q 21.484375 6.890625 26.703125 6.890625 
Q 35.15625 6.890625 40.078125 11.328125 
Q 45.015625 15.765625 45.015625 23.390625 
Q 45.015625 31 40.078125 35.4375 
Q 35.15625 39.890625 26.703125 39.890625 
Q 22.75 39.890625 18.8125 39.015625 
Q 14.890625 38.140625 10.796875 36.28125 
z
" id="DejaVuSans-35"/>
      </defs>
      <g style="fill:#262626;" transform="translate(99.919688 307.877969)scale(0.13 -0.13)">
       <use xlink:href="#DejaVuSans-30"/>
       <use x="63.623047" xlink:href="#DejaVuSans-2e"/>
       <use x="95.410156" xlink:href="#DejaVuSans-30"/>
       <use x="159.033203" xlink:href="#DejaVuSans-35"/>
      </g>
     </g>
    </g>
    <g id="xtick_3">
     <g id="line2d_4">
      <g>
       <use style="fill:#262626;stroke:#262626;" x="157.792344" xlink:href="#ma5a26bb850" y="285"/>
      </g>
     </g>
     <g id="text_3">
      <!-- 0.10 -->
      <defs>
       <path d="M 12.40625 8.296875 
L 28.515625 8.296875 
L 28.515625 63.921875 
L 10.984375 60.40625 
L 10.984375 69.390625 
L 28.421875 72.90625 
L 38.28125 72.90625 
L 38.28125 8.296875 
L 54.390625 8.296875 
L 54.390625 0 
L 12.40625 0 
z
" id="DejaVuSans-31"/>
      </defs>
      <g style="fill:#262626;" transform="translate(143.319688 307.877969)scale(0.13 -0.13)">
       <use xlink:href="#DejaVuSans-30"/>
       <use x="63.623047" xlink:href="#DejaVuSans-2e"/>
       <use x="95.410156" xlink:href="#DejaVuSans-31"/>
       <use x="159.033203" xlink:href="#DejaVuSans-30"/>
      </g>
     </g>
    </g>
    <g id="xtick_4">
     <g id="line2d_5">
      <g>
       <use style="fill:#262626;stroke:#262626;" x="201.192344" xlink:href="#ma5a26bb850" y="285"/>
      </g>
     </g>
     <g id="text_4">
      <!-- 0.15 -->
      <g style="fill:#262626;" transform="translate(186.719688 307.877969)scale(0.13 -0.13)">
       <use xlink:href="#DejaVuSans-30"/>
       <use x="63.623047" xlink:href="#DejaVuSans-2e"/>
       <use x="95.410156" xlink:href="#DejaVuSans-31"/>
       <use x="159.033203" xlink:href="#DejaVuSans-35"/>
      </g>
     </g>
    </g>
    <g id="xtick_5">
     <g id="line2d_6">
      <g>
       <use style="fill:#262626;stroke:#262626;" x="244.592344" xlink:href="#ma5a26bb850" y="285"/>
      </g>
     </g>
     <g id="text_5">
      <!-- 0.20 -->
      <defs>
       <path d="M 19.1875 8.296875 
L 53.609375 8.296875 
L 53.609375 0 
L 7.328125 0 
L 7.328125 8.296875 
Q 12.9375 14.109375 22.625 23.890625 
Q 32.328125 33.6875 34.8125 36.53125 
Q 39.546875 41.84375 41.421875 45.53125 
Q 43.3125 49.21875 43.3125 52.78125 
Q 43.3125 58.59375 39.234375 62.25 
Q 35.15625 65.921875 28.609375 65.921875 
Q 23.96875 65.921875 18.8125 64.3125 
Q 13.671875 62.703125 7.8125 59.421875 
L 7.8125 69.390625 
Q 13.765625 71.78125 18.9375 73 
Q 24.125 74.21875 28.421875 74.21875 
Q 39.75 74.21875 46.484375 68.546875 
Q 53.21875 62.890625 53.21875 53.421875 
Q 53.21875 48.921875 51.53125 44.890625 
Q 49.859375 40.875 45.40625 35.40625 
Q 44.1875 33.984375 37.640625 27.21875 
Q 31.109375 20.453125 19.1875 8.296875 
z
" id="DejaVuSans-32"/>
      </defs>
      <g style="fill:#262626;" transform="translate(230.119688 307.877969)scale(0.13 -0.13)">
       <use xlink:href="#DejaVuSans-30"/>
       <use x="63.623047" xlink:href="#DejaVuSans-2e"/>
       <use x="95.410156" xlink:href="#DejaVuSans-32"/>
       <use x="159.033203" xlink:href="#DejaVuSans-30"/>
      </g>
     </g>
    </g>
    <g id="xtick_6">
     <g id="line2d_7">
      <g>
       <use style="fill:#262626;stroke:#262626;" x="287.992344" xlink:href="#ma5a26bb850" y="285"/>
      </g>
     </g>
     <g id="text_6">
      <!-- 0.25 -->
      <g style="fill:#262626;" transform="translate(273.519688 307.877969)scale(0.13 -0.13)">
       <use xlink:href="#DejaVuSans-30"/>
       <use x="63.623047" xlink:href="#DejaVuSans-2e"/>
       <use x="95.410156" xlink:href="#DejaVuSans-32"/>
       <use x="159.033203" xlink:href="#DejaVuSans-35"/>
      </g>
     </g>
    </g>
    <g id="xtick_7">
     <g id="line2d_8">
      <g>
       <use style="fill:#262626;stroke:#262626;" x="331.392344" xlink:href="#ma5a26bb850" y="285"/>
      </g>
     </g>
     <g id="text_7">
      <!-- 0.30 -->
      <defs>
       <path d="M 40.578125 39.3125 
Q 47.65625 37.796875 51.625 33 
Q 55.609375 28.21875 55.609375 21.1875 
Q 55.609375 10.40625 48.1875 4.484375 
Q 40.765625 -1.421875 27.09375 -1.421875 
Q 22.515625 -1.421875 17.65625 -0.515625 
Q 12.796875 0.390625 7.625 2.203125 
L 7.625 11.71875 
Q 11.71875 9.328125 16.59375 8.109375 
Q 21.484375 6.890625 26.8125 6.890625 
Q 36.078125 6.890625 40.9375 10.546875 
Q 45.796875 14.203125 45.796875 21.1875 
Q 45.796875 27.640625 41.28125 31.265625 
Q 36.765625 34.90625 28.71875 34.90625 
L 20.21875 34.90625 
L 20.21875 43.015625 
L 29.109375 43.015625 
Q 36.375 43.015625 40.234375 45.921875 
Q 44.09375 48.828125 44.09375 54.296875 
Q 44.09375 59.90625 40.109375 62.90625 
Q 36.140625 65.921875 28.71875 65.921875 
Q 24.65625 65.921875 20.015625 65.03125 
Q 15.375 64.15625 9.8125 62.3125 
L 9.8125 71.09375 
Q 15.4375 72.65625 20.34375 73.4375 
Q 25.25 74.21875 29.59375 74.21875 
Q 40.828125 74.21875 47.359375 69.109375 
Q 53.90625 64.015625 53.90625 55.328125 
Q 53.90625 49.265625 50.4375 45.09375 
Q 46.96875 40.921875 40.578125 39.3125 
z
" id="DejaVuSans-33"/>
      </defs>
      <g style="fill:#262626;" transform="translate(316.919688 307.877969)scale(0.13 -0.13)">
       <use xlink:href="#DejaVuSans-30"/>
       <use x="63.623047" xlink:href="#DejaVuSans-2e"/>
       <use x="95.410156" xlink:href="#DejaVuSans-33"/>
       <use x="159.033203" xlink:href="#DejaVuSans-30"/>
      </g>
     </g>
    </g>
    <g id="xtick_8">
     <g id="line2d_9">
      <g>
       <use style="fill:#262626;stroke:#262626;" x="374.792344" xlink:href="#ma5a26bb850" y="285"/>
      </g>
     </g>
     <g id="text_8">
      <!-- 0.35 -->
      <g style="fill:#262626;" transform="translate(360.319688 307.877969)scale(0.13 -0.13)">
       <use xlink:href="#DejaVuSans-30"/>
       <use x="63.623047" xlink:href="#DejaVuSans-2e"/>
       <use x="95.410156" xlink:href="#DejaVuSans-33"/>
       <use x="159.033203" xlink:href="#DejaVuSans-35"/>
      </g>
     </g>
    </g>
    <g id="xtick_9">
     <g id="line2d_10">
      <g>
       <use style="fill:#262626;stroke:#262626;" x="418.192344" xlink:href="#ma5a26bb850" y="285"/>
      </g>
     </g>
     <g id="text_9">
      <!-- 0.40 -->
      <defs>
       <path d="M 37.796875 64.3125 
L 12.890625 25.390625 
L 37.796875 25.390625 
z
M 35.203125 72.90625 
L 47.609375 72.90625 
L 47.609375 25.390625 
L 58.015625 25.390625 
L 58.015625 17.1875 
L 47.609375 17.1875 
L 47.609375 0 
L 37.796875 0 
L 37.796875 17.1875 
L 4.890625 17.1875 
L 4.890625 26.703125 
z
" id="DejaVuSans-34"/>
      </defs>
      <g style="fill:#262626;" transform="translate(403.719688 307.877969)scale(0.13 -0.13)">
       <use xlink:href="#DejaVuSans-30"/>
       <use x="63.623047" xlink:href="#DejaVuSans-2e"/>
       <use x="95.410156" xlink:href="#DejaVuSans-34"/>
       <use x="159.033203" xlink:href="#DejaVuSans-30"/>
      </g>
     </g>
    </g>
    <g id="xtick_10">
     <g id="line2d_11">
      <g>
       <use style="fill:#262626;stroke:#262626;" x="461.592344" xlink:href="#ma5a26bb850" y="285"/>
      </g>
     </g>
     <g id="text_10">
      <!-- 0.45 -->
      <g style="fill:#262626;" transform="translate(447.119688 307.877969)scale(0.13 -0.13)">
       <use xlink:href="#DejaVuSans-30"/>
       <use x="63.623047" xlink:href="#DejaVuSans-2e"/>
       <use x="95.410156" xlink:href="#DejaVuSans-34"/>
       <use x="159.033203" xlink:href="#DejaVuSans-35"/>
      </g>
     </g>
    </g>
    <g id="text_11">
     <!-- Document Similarity -->
     <defs>
      <path d="M 19.671875 64.796875 
L 19.671875 8.109375 
L 31.59375 8.109375 
Q 46.6875 8.109375 53.6875 14.9375 
Q 60.6875 21.78125 60.6875 36.53125 
Q 60.6875 51.171875 53.6875 57.984375 
Q 46.6875 64.796875 31.59375 64.796875 
z
M 9.8125 72.90625 
L 30.078125 72.90625 
Q 51.265625 72.90625 61.171875 64.09375 
Q 71.09375 55.28125 71.09375 36.53125 
Q 71.09375 17.671875 61.125 8.828125 
Q 51.171875 0 30.078125 0 
L 9.8125 0 
z
" id="DejaVuSans-44"/>
      <path d="M 30.609375 48.390625 
Q 23.390625 48.390625 19.1875 42.75 
Q 14.984375 37.109375 14.984375 27.296875 
Q 14.984375 17.484375 19.15625 11.84375 
Q 23.34375 6.203125 30.609375 6.203125 
Q 37.796875 6.203125 41.984375 11.859375 
Q 46.1875 17.53125 46.1875 27.296875 
Q 46.1875 37.015625 41.984375 42.703125 
Q 37.796875 48.390625 30.609375 48.390625 
z
M 30.609375 56 
Q 42.328125 56 49.015625 48.375 
Q 55.71875 40.765625 55.71875 27.296875 
Q 55.71875 13.875 49.015625 6.21875 
Q 42.328125 -1.421875 30.609375 -1.421875 
Q 18.84375 -1.421875 12.171875 6.21875 
Q 5.515625 13.875 5.515625 27.296875 
Q 5.515625 40.765625 12.171875 48.375 
Q 18.84375 56 30.609375 56 
z
" id="DejaVuSans-6f"/>
      <path d="M 48.78125 52.59375 
L 48.78125 44.1875 
Q 44.96875 46.296875 41.140625 47.34375 
Q 37.3125 48.390625 33.40625 48.390625 
Q 24.65625 48.390625 19.8125 42.84375 
Q 14.984375 37.3125 14.984375 27.296875 
Q 14.984375 17.28125 19.8125 11.734375 
Q 24.65625 6.203125 33.40625 6.203125 
Q 37.3125 6.203125 41.140625 7.25 
Q 44.96875 8.296875 48.78125 10.40625 
L 48.78125 2.09375 
Q 45.015625 0.34375 40.984375 -0.53125 
Q 36.96875 -1.421875 32.421875 -1.421875 
Q 20.0625 -1.421875 12.78125 6.34375 
Q 5.515625 14.109375 5.515625 27.296875 
Q 5.515625 40.671875 12.859375 48.328125 
Q 20.21875 56 33.015625 56 
Q 37.15625 56 41.109375 55.140625 
Q 45.0625 54.296875 48.78125 52.59375 
z
" id="DejaVuSans-63"/>
      <path d="M 8.5 21.578125 
L 8.5 54.6875 
L 17.484375 54.6875 
L 17.484375 21.921875 
Q 17.484375 14.15625 20.5 10.265625 
Q 23.53125 6.390625 29.59375 6.390625 
Q 36.859375 6.390625 41.078125 11.03125 
Q 45.3125 15.671875 45.3125 23.6875 
L 45.3125 54.6875 
L 54.296875 54.6875 
L 54.296875 0 
L 45.3125 0 
L 45.3125 8.40625 
Q 42.046875 3.421875 37.71875 1 
Q 33.40625 -1.421875 27.6875 -1.421875 
Q 18.265625 -1.421875 13.375 4.4375 
Q 8.5 10.296875 8.5 21.578125 
z
M 31.109375 56 
z
" id="DejaVuSans-75"/>
      <path d="M 52 44.1875 
Q 55.375 50.25 60.0625 53.125 
Q 64.75 56 71.09375 56 
Q 79.640625 56 84.28125 50.015625 
Q 88.921875 44.046875 88.921875 33.015625 
L 88.921875 0 
L 79.890625 0 
L 79.890625 32.71875 
Q 79.890625 40.578125 77.09375 44.375 
Q 74.3125 48.1875 68.609375 48.1875 
Q 61.625 48.1875 57.5625 43.546875 
Q 53.515625 38.921875 53.515625 30.90625 
L 53.515625 0 
L 44.484375 0 
L 44.484375 32.71875 
Q 44.484375 40.625 41.703125 44.40625 
Q 38.921875 48.1875 33.109375 48.1875 
Q 26.21875 48.1875 22.15625 43.53125 
Q 18.109375 38.875 18.109375 30.90625 
L 18.109375 0 
L 9.078125 0 
L 9.078125 54.6875 
L 18.109375 54.6875 
L 18.109375 46.1875 
Q 21.1875 51.21875 25.484375 53.609375 
Q 29.78125 56 35.6875 56 
Q 41.65625 56 45.828125 52.96875 
Q 50 49.953125 52 44.1875 
z
" id="DejaVuSans-6d"/>
      <path d="M 56.203125 29.59375 
L 56.203125 25.203125 
L 14.890625 25.203125 
Q 15.484375 15.921875 20.484375 11.0625 
Q 25.484375 6.203125 34.421875 6.203125 
Q 39.59375 6.203125 44.453125 7.46875 
Q 49.3125 8.734375 54.109375 11.28125 
L 54.109375 2.78125 
Q 49.265625 0.734375 44.1875 -0.34375 
Q 39.109375 -1.421875 33.890625 -1.421875 
Q 20.796875 -1.421875 13.15625 6.1875 
Q 5.515625 13.8125 5.515625 26.8125 
Q 5.515625 40.234375 12.765625 48.109375 
Q 20.015625 56 32.328125 56 
Q 43.359375 56 49.78125 48.890625 
Q 56.203125 41.796875 56.203125 29.59375 
z
M 47.21875 32.234375 
Q 47.125 39.59375 43.09375 43.984375 
Q 39.0625 48.390625 32.421875 48.390625 
Q 24.90625 48.390625 20.390625 44.140625 
Q 15.875 39.890625 15.1875 32.171875 
z
" id="DejaVuSans-65"/>
      <path d="M 54.890625 33.015625 
L 54.890625 0 
L 45.90625 0 
L 45.90625 32.71875 
Q 45.90625 40.484375 42.875 44.328125 
Q 39.84375 48.1875 33.796875 48.1875 
Q 26.515625 48.1875 22.3125 43.546875 
Q 18.109375 38.921875 18.109375 30.90625 
L 18.109375 0 
L 9.078125 0 
L 9.078125 54.6875 
L 18.109375 54.6875 
L 18.109375 46.1875 
Q 21.34375 51.125 25.703125 53.5625 
Q 30.078125 56 35.796875 56 
Q 45.21875 56 50.046875 50.171875 
Q 54.890625 44.34375 54.890625 33.015625 
z
" id="DejaVuSans-6e"/>
      <path d="M 18.3125 70.21875 
L 18.3125 54.6875 
L 36.8125 54.6875 
L 36.8125 47.703125 
L 18.3125 47.703125 
L 18.3125 18.015625 
Q 18.3125 11.328125 20.140625 9.421875 
Q 21.96875 7.515625 27.59375 7.515625 
L 36.8125 7.515625 
L 36.8125 0 
L 27.59375 0 
Q 17.1875 0 13.234375 3.875 
Q 9.28125 7.765625 9.28125 18.015625 
L 9.28125 47.703125 
L 2.6875 47.703125 
L 2.6875 54.6875 
L 9.28125 54.6875 
L 9.28125 70.21875 
z
" id="DejaVuSans-74"/>
      <path id="DejaVuSans-20"/>
      <path d="M 53.515625 70.515625 
L 53.515625 60.890625 
Q 47.90625 63.578125 42.921875 64.890625 
Q 37.9375 66.21875 33.296875 66.21875 
Q 25.25 66.21875 20.875 63.09375 
Q 16.5 59.96875 16.5 54.203125 
Q 16.5 49.359375 19.40625 46.890625 
Q 22.3125 44.4375 30.421875 42.921875 
L 36.375 41.703125 
Q 47.40625 39.59375 52.65625 34.296875 
Q 57.90625 29 57.90625 20.125 
Q 57.90625 9.515625 50.796875 4.046875 
Q 43.703125 -1.421875 29.984375 -1.421875 
Q 24.8125 -1.421875 18.96875 -0.25 
Q 13.140625 0.921875 6.890625 3.21875 
L 6.890625 13.375 
Q 12.890625 10.015625 18.65625 8.296875 
Q 24.421875 6.59375 29.984375 6.59375 
Q 38.421875 6.59375 43.015625 9.90625 
Q 47.609375 13.234375 47.609375 19.390625 
Q 47.609375 24.75 44.3125 27.78125 
Q 41.015625 30.8125 33.5 32.328125 
L 27.484375 33.5 
Q 16.453125 35.6875 11.515625 40.375 
Q 6.59375 45.0625 6.59375 53.421875 
Q 6.59375 63.09375 13.40625 68.65625 
Q 20.21875 74.21875 32.171875 74.21875 
Q 37.3125 74.21875 42.625 73.28125 
Q 47.953125 72.359375 53.515625 70.515625 
z
" id="DejaVuSans-53"/>
      <path d="M 9.421875 54.6875 
L 18.40625 54.6875 
L 18.40625 0 
L 9.421875 0 
z
M 9.421875 75.984375 
L 18.40625 75.984375 
L 18.40625 64.59375 
L 9.421875 64.59375 
z
" id="DejaVuSans-69"/>
      <path d="M 9.421875 75.984375 
L 18.40625 75.984375 
L 18.40625 0 
L 9.421875 0 
z
" id="DejaVuSans-6c"/>
      <path d="M 34.28125 27.484375 
Q 23.390625 27.484375 19.1875 25 
Q 14.984375 22.515625 14.984375 16.5 
Q 14.984375 11.71875 18.140625 8.90625 
Q 21.296875 6.109375 26.703125 6.109375 
Q 34.1875 6.109375 38.703125 11.40625 
Q 43.21875 16.703125 43.21875 25.484375 
L 43.21875 27.484375 
z
M 52.203125 31.203125 
L 52.203125 0 
L 43.21875 0 
L 43.21875 8.296875 
Q 40.140625 3.328125 35.546875 0.953125 
Q 30.953125 -1.421875 24.3125 -1.421875 
Q 15.921875 -1.421875 10.953125 3.296875 
Q 6 8.015625 6 15.921875 
Q 6 25.140625 12.171875 29.828125 
Q 18.359375 34.515625 30.609375 34.515625 
L 43.21875 34.515625 
L 43.21875 35.40625 
Q 43.21875 41.609375 39.140625 45 
Q 35.0625 48.390625 27.6875 48.390625 
Q 23 48.390625 18.546875 47.265625 
Q 14.109375 46.140625 10.015625 43.890625 
L 10.015625 52.203125 
Q 14.9375 54.109375 19.578125 55.046875 
Q 24.21875 56 28.609375 56 
Q 40.484375 56 46.34375 49.84375 
Q 52.203125 43.703125 52.203125 31.203125 
z
" id="DejaVuSans-61"/>
      <path d="M 41.109375 46.296875 
Q 39.59375 47.171875 37.8125 47.578125 
Q 36.03125 48 33.890625 48 
Q 26.265625 48 22.1875 43.046875 
Q 18.109375 38.09375 18.109375 28.8125 
L 18.109375 0 
L 9.078125 0 
L 9.078125 54.6875 
L 18.109375 54.6875 
L 18.109375 46.1875 
Q 20.953125 51.171875 25.484375 53.578125 
Q 30.03125 56 36.53125 56 
Q 37.453125 56 38.578125 55.875 
Q 39.703125 55.765625 41.0625 55.515625 
z
" id="DejaVuSans-72"/>
      <path d="M 32.171875 -5.078125 
Q 28.375 -14.84375 24.75 -17.8125 
Q 21.140625 -20.796875 15.09375 -20.796875 
L 7.90625 -20.796875 
L 7.90625 -13.28125 
L 13.1875 -13.28125 
Q 16.890625 -13.28125 18.9375 -11.515625 
Q 21 -9.765625 23.484375 -3.21875 
L 25.09375 0.875 
L 2.984375 54.6875 
L 12.5 54.6875 
L 29.59375 11.921875 
L 46.6875 54.6875 
L 56.203125 54.6875 
z
" id="DejaVuSans-79"/>
     </defs>
     <g style="fill:#262626;" transform="translate(164.028281 329.778437)scale(0.2 -0.2)">
      <use xlink:href="#DejaVuSans-44"/>
      <use x="77.001953" xlink:href="#DejaVuSans-6f"/>
      <use x="138.183594" xlink:href="#DejaVuSans-63"/>
      <use x="193.164062" xlink:href="#DejaVuSans-75"/>
      <use x="256.542969" xlink:href="#DejaVuSans-6d"/>
      <use x="353.955078" xlink:href="#DejaVuSans-65"/>
      <use x="415.478516" xlink:href="#DejaVuSans-6e"/>
      <use x="478.857422" xlink:href="#DejaVuSans-74"/>
      <use x="518.066406" xlink:href="#DejaVuSans-20"/>
      <use x="549.853516" xlink:href="#DejaVuSans-53"/>
      <use x="613.330078" xlink:href="#DejaVuSans-69"/>
      <use x="641.113281" xlink:href="#DejaVuSans-6d"/>
      <use x="738.525391" xlink:href="#DejaVuSans-69"/>
      <use x="766.308594" xlink:href="#DejaVuSans-6c"/>
      <use x="794.091797" xlink:href="#DejaVuSans-61"/>
      <use x="855.371094" xlink:href="#DejaVuSans-72"/>
      <use x="896.484375" xlink:href="#DejaVuSans-69"/>
      <use x="924.267578" xlink:href="#DejaVuSans-74"/>
      <use x="963.476562" xlink:href="#DejaVuSans-79"/>
     </g>
    </g>
   </g>
   <g id="matplotlib.axis_2">
    <g id="ytick_1">
     <g id="line2d_12">
      <defs>
       <path d="M 0 0 
L -6 0 
" id="m301da9940a" style="stroke:#262626;"/>
      </defs>
      <g>
       <use style="fill:#262626;stroke:#262626;" x="70.992344" xlink:href="#m301da9940a" y="285"/>
      </g>
     </g>
     <g id="text_12">
      <!-- −20 -->
      <defs>
       <path d="M 10.59375 35.5 
L 73.1875 35.5 
L 73.1875 27.203125 
L 10.59375 27.203125 
z
" id="DejaVuSans-2212"/>
      </defs>
      <g style="fill:#262626;" transform="translate(30.55625 289.938984)scale(0.13 -0.13)">
       <use xlink:href="#DejaVuSans-2212"/>
       <use x="83.789062" xlink:href="#DejaVuSans-32"/>
       <use x="147.412109" xlink:href="#DejaVuSans-30"/>
      </g>
     </g>
    </g>
    <g id="ytick_2">
     <g id="line2d_13">
      <g>
       <use style="fill:#262626;stroke:#262626;" x="70.992344" xlink:href="#m301da9940a" y="254.8"/>
      </g>
     </g>
     <g id="text_13">
      <!-- −10 -->
      <g style="fill:#262626;" transform="translate(30.55625 259.738984)scale(0.13 -0.13)">
       <use xlink:href="#DejaVuSans-2212"/>
       <use x="83.789062" xlink:href="#DejaVuSans-31"/>
       <use x="147.412109" xlink:href="#DejaVuSans-30"/>
      </g>
     </g>
    </g>
    <g id="ytick_3">
     <g id="line2d_14">
      <g>
       <use style="fill:#262626;stroke:#262626;" x="70.992344" xlink:href="#m301da9940a" y="224.6"/>
      </g>
     </g>
     <g id="text_14">
      <!-- 0 -->
      <g style="fill:#262626;" transform="translate(49.721094 229.538984)scale(0.13 -0.13)">
       <use xlink:href="#DejaVuSans-30"/>
      </g>
     </g>
    </g>
    <g id="ytick_4">
     <g id="line2d_15">
      <g>
       <use style="fill:#262626;stroke:#262626;" x="70.992344" xlink:href="#m301da9940a" y="194.4"/>
      </g>
     </g>
     <g id="text_15">
      <!-- 10 -->
      <g style="fill:#262626;" transform="translate(41.449844 199.338984)scale(0.13 -0.13)">
       <use xlink:href="#DejaVuSans-31"/>
       <use x="63.623047" xlink:href="#DejaVuSans-30"/>
      </g>
     </g>
    </g>
    <g id="ytick_5">
     <g id="line2d_16">
      <g>
       <use style="fill:#262626;stroke:#262626;" x="70.992344" xlink:href="#m301da9940a" y="164.2"/>
      </g>
     </g>
     <g id="text_16">
      <!-- 20 -->
      <g style="fill:#262626;" transform="translate(41.449844 169.138984)scale(0.13 -0.13)">
       <use xlink:href="#DejaVuSans-32"/>
       <use x="63.623047" xlink:href="#DejaVuSans-30"/>
      </g>
     </g>
    </g>
    <g id="ytick_6">
     <g id="line2d_17">
      <g>
       <use style="fill:#262626;stroke:#262626;" x="70.992344" xlink:href="#m301da9940a" y="134"/>
      </g>
     </g>
     <g id="text_17">
      <!-- 30 -->
      <g style="fill:#262626;" transform="translate(41.449844 138.938984)scale(0.13 -0.13)">
       <use xlink:href="#DejaVuSans-33"/>
       <use x="63.623047" xlink:href="#DejaVuSans-30"/>
      </g>
     </g>
    </g>
    <g id="ytick_7">
     <g id="line2d_18">
      <g>
       <use style="fill:#262626;stroke:#262626;" x="70.992344" xlink:href="#m301da9940a" y="103.8"/>
      </g>
     </g>
     <g id="text_18">
      <!-- 40 -->
      <g style="fill:#262626;" transform="translate(41.449844 108.738984)scale(0.13 -0.13)">
       <use xlink:href="#DejaVuSans-34"/>
       <use x="63.623047" xlink:href="#DejaVuSans-30"/>
      </g>
     </g>
    </g>
    <g id="ytick_8">
     <g id="line2d_19">
      <g>
       <use style="fill:#262626;stroke:#262626;" x="70.992344" xlink:href="#m301da9940a" y="73.6"/>
      </g>
     </g>
     <g id="text_19">
      <!-- 50 -->
      <g style="fill:#262626;" transform="translate(41.449844 78.538984)scale(0.13 -0.13)">
       <use xlink:href="#DejaVuSans-35"/>
       <use x="63.623047" xlink:href="#DejaVuSans-30"/>
      </g>
     </g>
    </g>
    <g id="ytick_9">
     <g id="line2d_20">
      <g>
       <use style="fill:#262626;stroke:#262626;" x="70.992344" xlink:href="#m301da9940a" y="43.4"/>
      </g>
     </g>
     <g id="text_20">
      <!-- 60 -->
      <defs>
       <path d="M 33.015625 40.375 
Q 26.375 40.375 22.484375 35.828125 
Q 18.609375 31.296875 18.609375 23.390625 
Q 18.609375 15.53125 22.484375 10.953125 
Q 26.375 6.390625 33.015625 6.390625 
Q 39.65625 6.390625 43.53125 10.953125 
Q 47.40625 15.53125 47.40625 23.390625 
Q 47.40625 31.296875 43.53125 35.828125 
Q 39.65625 40.375 33.015625 40.375 
z
M 52.59375 71.296875 
L 52.59375 62.3125 
Q 48.875 64.0625 45.09375 64.984375 
Q 41.3125 65.921875 37.59375 65.921875 
Q 27.828125 65.921875 22.671875 59.328125 
Q 17.53125 52.734375 16.796875 39.40625 
Q 19.671875 43.65625 24.015625 45.921875 
Q 28.375 48.1875 33.59375 48.1875 
Q 44.578125 48.1875 50.953125 41.515625 
Q 57.328125 34.859375 57.328125 23.390625 
Q 57.328125 12.15625 50.6875 5.359375 
Q 44.046875 -1.421875 33.015625 -1.421875 
Q 20.359375 -1.421875 13.671875 8.265625 
Q 6.984375 17.96875 6.984375 36.375 
Q 6.984375 53.65625 15.1875 63.9375 
Q 23.390625 74.21875 37.203125 74.21875 
Q 40.921875 74.21875 44.703125 73.484375 
Q 48.484375 72.75 52.59375 71.296875 
z
" id="DejaVuSans-36"/>
      </defs>
      <g style="fill:#262626;" transform="translate(41.449844 48.338984)scale(0.13 -0.13)">
       <use xlink:href="#DejaVuSans-36"/>
       <use x="63.623047" xlink:href="#DejaVuSans-30"/>
      </g>
     </g>
    </g>
    <g id="ytick_10">
     <g id="line2d_21">
      <g>
       <use style="fill:#262626;stroke:#262626;" x="70.992344" xlink:href="#m301da9940a" y="13.2"/>
      </g>
     </g>
     <g id="text_21">
      <!-- 70 -->
      <defs>
       <path d="M 8.203125 72.90625 
L 55.078125 72.90625 
L 55.078125 68.703125 
L 28.609375 0 
L 18.3125 0 
L 43.21875 64.59375 
L 8.203125 64.59375 
z
" id="DejaVuSans-37"/>
      </defs>
      <g style="fill:#262626;" transform="translate(41.449844 18.138984)scale(0.13 -0.13)">
       <use xlink:href="#DejaVuSans-37"/>
       <use x="63.623047" xlink:href="#DejaVuSans-30"/>
      </g>
     </g>
    </g>
    <g id="text_22">
     <!-- Growth in # of Articles (%) -->
     <defs>
      <path d="M 59.515625 10.40625 
L 59.515625 29.984375 
L 43.40625 29.984375 
L 43.40625 38.09375 
L 69.28125 38.09375 
L 69.28125 6.78125 
Q 63.578125 2.734375 56.6875 0.65625 
Q 49.8125 -1.421875 42 -1.421875 
Q 24.90625 -1.421875 15.25 8.5625 
Q 5.609375 18.5625 5.609375 36.375 
Q 5.609375 54.25 15.25 64.234375 
Q 24.90625 74.21875 42 74.21875 
Q 49.125 74.21875 55.546875 72.453125 
Q 61.96875 70.703125 67.390625 67.28125 
L 67.390625 56.78125 
Q 61.921875 61.421875 55.765625 63.765625 
Q 49.609375 66.109375 42.828125 66.109375 
Q 29.4375 66.109375 22.71875 58.640625 
Q 16.015625 51.171875 16.015625 36.375 
Q 16.015625 21.625 22.71875 14.15625 
Q 29.4375 6.6875 42.828125 6.6875 
Q 48.046875 6.6875 52.140625 7.59375 
Q 56.25 8.5 59.515625 10.40625 
z
" id="DejaVuSans-47"/>
      <path d="M 4.203125 54.6875 
L 13.1875 54.6875 
L 24.421875 12.015625 
L 35.59375 54.6875 
L 46.1875 54.6875 
L 57.421875 12.015625 
L 68.609375 54.6875 
L 77.59375 54.6875 
L 63.28125 0 
L 52.6875 0 
L 40.921875 44.828125 
L 29.109375 0 
L 18.5 0 
z
" id="DejaVuSans-77"/>
      <path d="M 54.890625 33.015625 
L 54.890625 0 
L 45.90625 0 
L 45.90625 32.71875 
Q 45.90625 40.484375 42.875 44.328125 
Q 39.84375 48.1875 33.796875 48.1875 
Q 26.515625 48.1875 22.3125 43.546875 
Q 18.109375 38.921875 18.109375 30.90625 
L 18.109375 0 
L 9.078125 0 
L 9.078125 75.984375 
L 18.109375 75.984375 
L 18.109375 46.1875 
Q 21.34375 51.125 25.703125 53.5625 
Q 30.078125 56 35.796875 56 
Q 45.21875 56 50.046875 50.171875 
Q 54.890625 44.34375 54.890625 33.015625 
z
" id="DejaVuSans-68"/>
      <path d="M 51.125 44 
L 36.921875 44 
L 32.8125 27.6875 
L 47.125 27.6875 
z
M 43.796875 71.78125 
L 38.71875 51.515625 
L 52.984375 51.515625 
L 58.109375 71.78125 
L 65.921875 71.78125 
L 60.890625 51.515625 
L 76.125 51.515625 
L 76.125 44 
L 58.984375 44 
L 54.984375 27.6875 
L 70.515625 27.6875 
L 70.515625 20.21875 
L 53.078125 20.21875 
L 48 0 
L 40.1875 0 
L 45.21875 20.21875 
L 30.90625 20.21875 
L 25.875 0 
L 18.015625 0 
L 23.09375 20.21875 
L 7.71875 20.21875 
L 7.71875 27.6875 
L 24.90625 27.6875 
L 29 44 
L 13.28125 44 
L 13.28125 51.515625 
L 30.90625 51.515625 
L 35.890625 71.78125 
z
" id="DejaVuSans-23"/>
      <path d="M 37.109375 75.984375 
L 37.109375 68.5 
L 28.515625 68.5 
Q 23.6875 68.5 21.796875 66.546875 
Q 19.921875 64.59375 19.921875 59.515625 
L 19.921875 54.6875 
L 34.71875 54.6875 
L 34.71875 47.703125 
L 19.921875 47.703125 
L 19.921875 0 
L 10.890625 0 
L 10.890625 47.703125 
L 2.296875 47.703125 
L 2.296875 54.6875 
L 10.890625 54.6875 
L 10.890625 58.5 
Q 10.890625 67.625 15.140625 71.796875 
Q 19.390625 75.984375 28.609375 75.984375 
z
" id="DejaVuSans-66"/>
      <path d="M 34.1875 63.1875 
L 20.796875 26.90625 
L 47.609375 26.90625 
z
M 28.609375 72.90625 
L 39.796875 72.90625 
L 67.578125 0 
L 57.328125 0 
L 50.6875 18.703125 
L 17.828125 18.703125 
L 11.1875 0 
L 0.78125 0 
z
" id="DejaVuSans-41"/>
      <path d="M 44.28125 53.078125 
L 44.28125 44.578125 
Q 40.484375 46.53125 36.375 47.5 
Q 32.28125 48.484375 27.875 48.484375 
Q 21.1875 48.484375 17.84375 46.4375 
Q 14.5 44.390625 14.5 40.28125 
Q 14.5 37.15625 16.890625 35.375 
Q 19.28125 33.59375 26.515625 31.984375 
L 29.59375 31.296875 
Q 39.15625 29.25 43.1875 25.515625 
Q 47.21875 21.78125 47.21875 15.09375 
Q 47.21875 7.46875 41.1875 3.015625 
Q 35.15625 -1.421875 24.609375 -1.421875 
Q 20.21875 -1.421875 15.453125 -0.5625 
Q 10.6875 0.296875 5.421875 2 
L 5.421875 11.28125 
Q 10.40625 8.6875 15.234375 7.390625 
Q 20.0625 6.109375 24.8125 6.109375 
Q 31.15625 6.109375 34.5625 8.28125 
Q 37.984375 10.453125 37.984375 14.40625 
Q 37.984375 18.0625 35.515625 20.015625 
Q 33.0625 21.96875 24.703125 23.78125 
L 21.578125 24.515625 
Q 13.234375 26.265625 9.515625 29.90625 
Q 5.8125 33.546875 5.8125 39.890625 
Q 5.8125 47.609375 11.28125 51.796875 
Q 16.75 56 26.8125 56 
Q 31.78125 56 36.171875 55.265625 
Q 40.578125 54.546875 44.28125 53.078125 
z
" id="DejaVuSans-73"/>
      <path d="M 31 75.875 
Q 24.46875 64.65625 21.28125 53.65625 
Q 18.109375 42.671875 18.109375 31.390625 
Q 18.109375 20.125 21.3125 9.0625 
Q 24.515625 -2 31 -13.1875 
L 23.1875 -13.1875 
Q 15.875 -1.703125 12.234375 9.375 
Q 8.59375 20.453125 8.59375 31.390625 
Q 8.59375 42.28125 12.203125 53.3125 
Q 15.828125 64.359375 23.1875 75.875 
z
" id="DejaVuSans-28"/>
      <path d="M 72.703125 32.078125 
Q 68.453125 32.078125 66.03125 28.46875 
Q 63.625 24.859375 63.625 18.40625 
Q 63.625 12.0625 66.03125 8.421875 
Q 68.453125 4.78125 72.703125 4.78125 
Q 76.859375 4.78125 79.265625 8.421875 
Q 81.6875 12.0625 81.6875 18.40625 
Q 81.6875 24.8125 79.265625 28.4375 
Q 76.859375 32.078125 72.703125 32.078125 
z
M 72.703125 38.28125 
Q 80.421875 38.28125 84.953125 32.90625 
Q 89.5 27.546875 89.5 18.40625 
Q 89.5 9.28125 84.9375 3.921875 
Q 80.375 -1.421875 72.703125 -1.421875 
Q 64.890625 -1.421875 60.34375 3.921875 
Q 55.8125 9.28125 55.8125 18.40625 
Q 55.8125 27.59375 60.375 32.9375 
Q 64.9375 38.28125 72.703125 38.28125 
z
M 22.3125 68.015625 
Q 18.109375 68.015625 15.6875 64.375 
Q 13.28125 60.75 13.28125 54.390625 
Q 13.28125 47.953125 15.671875 44.328125 
Q 18.0625 40.71875 22.3125 40.71875 
Q 26.5625 40.71875 28.96875 44.328125 
Q 31.390625 47.953125 31.390625 54.390625 
Q 31.390625 60.6875 28.953125 64.34375 
Q 26.515625 68.015625 22.3125 68.015625 
z
M 66.40625 74.21875 
L 74.21875 74.21875 
L 28.609375 -1.421875 
L 20.796875 -1.421875 
z
M 22.3125 74.21875 
Q 30.03125 74.21875 34.609375 68.875 
Q 39.203125 63.53125 39.203125 54.390625 
Q 39.203125 45.171875 34.640625 39.84375 
Q 30.078125 34.515625 22.3125 34.515625 
Q 14.546875 34.515625 10.03125 39.859375 
Q 5.515625 45.21875 5.515625 54.390625 
Q 5.515625 63.484375 10.046875 68.84375 
Q 14.59375 74.21875 22.3125 74.21875 
z
" id="DejaVuSans-25"/>
      <path d="M 8.015625 75.875 
L 15.828125 75.875 
Q 23.140625 64.359375 26.78125 53.3125 
Q 30.421875 42.28125 30.421875 31.390625 
Q 30.421875 20.453125 26.78125 9.375 
Q 23.140625 -1.703125 15.828125 -13.1875 
L 8.015625 -13.1875 
Q 14.5 -2 17.703125 9.0625 
Q 20.90625 20.125 20.90625 31.390625 
Q 20.90625 42.671875 17.703125 53.65625 
Q 14.5 64.65625 8.015625 75.875 
z
" id="DejaVuSans-29"/>
     </defs>
     <g style="fill:#262626;" transform="translate(22.396875 283.129687)rotate(-90)scale(0.2 -0.2)">
      <use xlink:href="#DejaVuSans-47"/>
      <use x="77.490234" xlink:href="#DejaVuSans-72"/>
      <use x="118.572266" xlink:href="#DejaVuSans-6f"/>
      <use x="179.753906" xlink:href="#DejaVuSans-77"/>
      <use x="261.541016" xlink:href="#DejaVuSans-74"/>
      <use x="300.75" xlink:href="#DejaVuSans-68"/>
      <use x="364.128906" xlink:href="#DejaVuSans-20"/>
      <use x="395.916016" xlink:href="#DejaVuSans-69"/>
      <use x="423.699219" xlink:href="#DejaVuSans-6e"/>
      <use x="487.078125" xlink:href="#DejaVuSans-20"/>
      <use x="518.865234" xlink:href="#DejaVuSans-23"/>
      <use x="602.654297" xlink:href="#DejaVuSans-20"/>
      <use x="634.441406" xlink:href="#DejaVuSans-6f"/>
      <use x="695.623047" xlink:href="#DejaVuSans-66"/>
      <use x="730.828125" xlink:href="#DejaVuSans-20"/>
      <use x="762.615234" xlink:href="#DejaVuSans-41"/>
      <use x="831.023438" xlink:href="#DejaVuSans-72"/>
      <use x="872.136719" xlink:href="#DejaVuSans-74"/>
      <use x="911.345703" xlink:href="#DejaVuSans-69"/>
      <use x="939.128906" xlink:href="#DejaVuSans-63"/>
      <use x="994.109375" xlink:href="#DejaVuSans-6c"/>
      <use x="1021.892578" xlink:href="#DejaVuSans-65"/>
      <use x="1083.416016" xlink:href="#DejaVuSans-73"/>
      <use x="1135.515625" xlink:href="#DejaVuSans-20"/>
      <use x="1167.302734" xlink:href="#DejaVuSans-28"/>
      <use x="1206.316406" xlink:href="#DejaVuSans-25"/>
      <use x="1301.335938" xlink:href="#DejaVuSans-29"/>
     </g>
    </g>
   </g>
   <g id="PolyCollection_2">
    <path clip-path="url(#pf21f76876b)" d="M 44.952344 201.931383 
L 44.952344 300.557051 
L 50.73901 288.309575 
L 56.525677 272.261636 
L 62.312344 257.398348 
L 68.09901 246.010247 
L 73.885677 238.200707 
L 79.672344 233.153551 
L 85.45901 230.385581 
L 91.245677 229.847017 
L 97.032344 231.028542 
L 102.81901 232.389504 
L 108.605677 232.512921 
L 114.392344 231.485093 
L 120.17901 230.378583 
L 125.965677 229.948784 
L 131.752344 229.528595 
L 137.53901 228.694498 
L 143.325677 228.125867 
L 149.112344 228.357305 
L 154.89901 229.340997 
L 160.685677 230.574766 
L 166.472344 231.135822 
L 172.25901 230.746219 
L 178.045677 230.263339 
L 183.832344 230.53101 
L 189.61901 231.392224 
L 195.405677 231.992696 
L 201.192344 231.65884 
L 206.97901 230.63956 
L 212.765677 229.425741 
L 218.552344 228.054426 
L 224.33901 226.512449 
L 230.125677 225.29021 
L 235.912344 224.734618 
L 241.69901 224.857202 
L 247.485677 225.367242 
L 253.272344 224.990856 
L 259.05901 222.503318 
L 264.845677 218.175786 
L 270.632344 212.664102 
L 276.41901 206.073921 
L 282.205677 200.159478 
L 287.992344 197.716973 
L 293.77901 198.427392 
L 299.565677 199.518318 
L 305.352344 200.468374 
L 311.13901 202.925676 
L 316.925677 208.138518 
L 322.712344 215.219418 
L 328.49901 221.588546 
L 334.285677 224.812601 
L 340.072344 225.048501 
L 345.85901 221.9575 
L 351.645677 215.298043 
L 357.432344 204.034674 
L 363.21901 189.77372 
L 369.005677 183.994243 
L 374.792344 193.693221 
L 380.57901 208.050714 
L 386.365677 217.79977 
L 392.152344 223.563321 
L 397.93901 225.270638 
L 403.725677 221.479164 
L 409.512344 210.687089 
L 415.29901 195.444542 
L 421.085677 188.224271 
L 426.872344 200.419561 
L 432.65901 225.086102 
L 438.445677 242.564304 
L 444.232344 259.545126 
L 450.01901 279.701149 
L 455.805677 284.838095 
L 461.592344 277.708389 
L 467.37901 268.13191 
L 473.165677 260.309134 
L 478.952344 256.064761 
L 484.73901 274.207731 
L 490.525677 331.015553 
L 496.312344 439.337177 
L 502.09901 398.231852 
L 507.885677 284.556925 
L 513.672344 249.556459 
L 519.45901 311.68641 
L 525.245677 329.841022 
L 531.032344 320.028313 
L 536.81901 519.261249 
L 542.605677 1049.334536 
L 548.392344 4270.723943 
L 554.17901 30525.373278 
L 559.965677 166761.914007 
L 565.752344 33770.719067 
L 571.53901 4539.273115 
L 577.325677 1243.891401 
L 583.112344 477.705883 
L 588.89901 382.271731 
L 594.685677 348.122855 
L 600.472344 317.364188 
L 606.25901 295.930964 
L 612.045677 284.335632 
L 617.832344 278.808862 
L 617.832344 261.660492 
L 617.832344 261.660492 
L 612.045677 247.620047 
L 606.25901 218.234546 
L 600.472344 156.938353 
L 594.685677 27.043505 
L 588.89901 -281.438187 
L 583.112344 -1226.709656 
L 577.325677 -4803.374754 
L 571.53901 -16154.202023 
L 565.752344 -51843.700883 
L 559.965677 -224592.736335 
L 554.17901 -41787.465364 
L 548.392344 -6158.145009 
L 542.605677 -1577.214479 
L 536.81901 -778.546533 
L 531.032344 -593.142915 
L 525.245677 -775.058881 
L 519.45901 -780.444947 
L 513.672344 -487.383106 
L 507.885677 -253.084219 
L 502.09901 -218.725728 
L 496.312344 -238.539957 
L 490.525677 -180.75024 
L 484.73901 -190.730991 
L 478.952344 -147.051346 
L 473.165677 -59.693622 
L 467.37901 38.998947 
L 461.592344 105.482299 
L 455.805677 122.798659 
L 450.01901 100.799883 
L 444.232344 75.560377 
L 438.445677 63.17589 
L 432.65901 52.633567 
L 426.872344 39.125647 
L 421.085677 43.789662 
L 415.29901 81.465314 
L 409.512344 119.015156 
L 403.725677 135.951413 
L 397.93901 140.243916 
L 392.152344 142.903466 
L 386.365677 146.29725 
L 380.57901 143.461523 
L 374.792344 132.682709 
L 369.005677 126.510585 
L 363.21901 135.027904 
L 357.432344 152.672672 
L 351.645677 168.847491 
L 345.85901 180.832564 
L 340.072344 191.546257 
L 334.285677 198.456495 
L 328.49901 196.938777 
L 322.712344 190.318512 
L 316.925677 183.973393 
L 311.13901 180.747861 
L 305.352344 181.512065 
L 299.565677 184.024262 
L 293.77901 184.002454 
L 287.992344 182.608633 
L 282.205677 185.134919 
L 276.41901 192.404938 
L 270.632344 200.27474 
L 264.845677 206.303666 
L 259.05901 210.624388 
L 253.272344 213.462477 
L 247.485677 214.958827 
L 241.69901 215.811149 
L 235.912344 216.70262 
L 230.125677 218.04003 
L 224.33901 219.819966 
L 218.552344 221.724603 
L 212.765677 223.513737 
L 206.97901 225.131535 
L 201.192344 226.55681 
L 195.405677 227.407561 
L 189.61901 227.332343 
L 183.832344 226.643436 
L 178.045677 226.1408 
L 172.25901 226.136 
L 166.472344 226.212718 
L 160.685677 225.727289 
L 154.89901 224.62248 
L 149.112344 223.422416 
L 143.325677 222.760302 
L 137.53901 222.855381 
L 131.752344 223.361999 
L 125.965677 223.882582 
L 120.17901 224.144464 
L 114.392344 224.023269 
L 108.605677 223.459635 
L 102.81901 221.810047 
L 97.032344 218.658533 
L 91.245677 214.156855 
L 85.45901 208.846304 
L 79.672344 203.014398 
L 73.885677 196.515553 
L 68.09901 189.593142 
L 62.312344 183.678429 
L 56.525677 181.765274 
L 50.73901 187.395105 
L 44.952344 201.931383 
z
" style="fill:#4c72b0;fill-opacity:0.2;stroke:#4c72b0;stroke-opacity:0.2;"/>
   </g>
   <g id="patch_3">
    <path d="M 70.992344 285 
L 70.992344 13.2 
" style="fill:none;stroke:#000000;stroke-linecap:square;stroke-linejoin:miter;stroke-width:0.8;"/>
   </g>
   <g id="patch_4">
    <path d="M 70.992344 285 
L 461.592344 285 
" style="fill:none;stroke:#000000;stroke-linecap:square;stroke-linejoin:miter;stroke-width:0.8;"/>
   </g>
   <g id="line2d_22">
    <path clip-path="url(#pf21f76876b)" d="M 44.952344 251.244217 
L 50.73901 237.85234 
L 56.525677 227.013455 
L 62.312344 220.538388 
L 68.09901 217.801694 
L 73.885677 217.35813 
L 79.672344 218.083975 
L 85.45901 219.615943 
L 91.245677 222.001936 
L 97.032344 224.843538 
L 102.81901 227.099776 
L 108.605677 227.986278 
L 114.392344 227.754181 
L 120.17901 227.261523 
L 125.965677 226.915683 
L 131.752344 226.445297 
L 137.53901 225.774939 
L 143.325677 225.443085 
L 149.112344 225.889861 
L 154.89901 226.981738 
L 160.685677 228.151027 
L 166.472344 228.67427 
L 172.25901 228.44111 
L 178.045677 228.20207 
L 183.832344 228.587223 
L 189.61901 229.362283 
L 195.405677 229.700129 
L 201.192344 229.107825 
L 206.97901 227.885547 
L 212.765677 226.469739 
L 218.552344 224.889515 
L 224.33901 223.166207 
L 230.125677 221.66512 
L 235.912344 220.718619 
L 241.69901 220.334175 
L 247.485677 220.163034 
L 253.272344 219.226666 
L 259.05901 216.563853 
L 264.845677 212.239726 
L 270.632344 206.469421 
L 276.41901 199.23943 
L 282.205677 192.647198 
L 287.992344 190.162803 
L 293.77901 191.214923 
L 299.565677 191.77129 
L 305.352344 190.99022 
L 311.13901 191.836769 
L 316.925677 196.055955 
L 322.712344 202.768965 
L 328.49901 209.263662 
L 334.285677 211.634548 
L 340.072344 208.297379 
L 345.85901 201.395032 
L 351.645677 192.072767 
L 357.432344 178.353673 
L 363.21901 162.400812 
L 369.005677 155.252414 
L 374.792344 163.187965 
L 380.57901 175.756118 
L 386.365677 182.04851 
L 392.152344 183.233394 
L 397.93901 182.757277 
L 403.725677 178.715289 
L 409.512344 164.851123 
L 415.29901 138.454928 
L 421.085677 116.006966 
L 426.872344 119.772604 
L 432.65901 138.859834 
L 438.445677 152.870097 
L 444.232344 167.552751 
L 450.01901 190.250516 
L 455.805677 203.818377 
L 461.592344 191.595344 
L 467.37901 153.565428 
L 473.165677 100.307756 
L 478.952344 54.506708 
L 484.265 42.784279 
" style="fill:none;stroke:#4c72b0;stroke-linecap:square;stroke-width:1.5;"/>
   </g>
  </g>
 </g>
 <defs>
  <clipPath id="pf21f76876b">
   <rect height="271.8" width="390.6" x="70.992344" y="13.2"/>
  </clipPath>
 </defs>
</svg>
