<?xml version="1.0" encoding="utf-8" standalone="no"?>
<!DOCTYPE svg PUBLIC "-//W3C//DTD SVG 1.1//EN"
  "http://www.w3.org/Graphics/SVG/1.1/DTD/svg11.dtd">
<!-- Created with matplotlib (http://matplotlib.org/) -->
<svg height="341pt" version="1.1" viewBox="0 0 455 341" width="455pt" xmlns="http://www.w3.org/2000/svg" xmlns:xlink="http://www.w3.org/1999/xlink">
 <defs>
  <style type="text/css">
*{stroke-linecap:butt;stroke-linejoin:round;}
  </style>
 </defs>
 <g id="figure_1">
  <g id="patch_1">
   <path d="M 0 341.137812 
L 455.6275 341.137812 
L 455.6275 0 
L 0 0 
z
" style="fill:#ffffff;"/>
  </g>
  <g id="axes_1">
   <g id="patch_2">
    <path d="M 51.8275 285 
L 442.4275 285 
L 442.4275 13.2 
L 51.8275 13.2 
z
" style="fill:#ffffff;"/>
   </g>
   <g id="PolyCollection_1">
    <path clip-path="url(#pe81b613971)" d="M 47.822295 284.99996 
L 47.822295 285 
L 49.770691 285 
L 51.719087 285 
L 53.667482 285 
L 55.615878 285 
L 57.564273 285 
L 59.512669 285 
L 61.461065 285 
L 63.40946 285 
L 65.357856 285 
L 67.306252 285 
L 69.254647 285 
L 71.203043 285 
L 73.151439 285 
L 75.099834 285 
L 77.04823 285 
L 78.996625 285 
L 80.945021 285 
L 82.893417 285 
L 84.841812 285 
L 86.790208 285 
L 88.738604 285 
L 90.686999 285 
L 92.635395 285 
L 94.583791 285 
L 96.532186 285 
L 98.480582 285 
L 100.428978 285 
L 102.377373 285 
L 104.325769 285 
L 106.274164 285 
L 108.22256 285 
L 110.170956 285 
L 112.119351 285 
L 114.067747 285 
L 116.016143 285 
L 117.964538 285 
L 119.912934 285 
L 121.86133 285 
L 123.809725 285 
L 125.758121 285 
L 127.706516 285 
L 129.654912 285 
L 131.603308 285 
L 133.551703 285 
L 135.500099 285 
L 137.448495 285 
L 139.39689 285 
L 141.345286 285 
L 143.293682 285 
L 145.242077 285 
L 147.190473 285 
L 149.138869 285 
L 151.087264 285 
L 153.03566 285 
L 154.984055 285 
L 156.932451 285 
L 158.880847 285 
L 160.829242 285 
L 162.777638 285 
L 164.726034 285 
L 166.674429 285 
L 168.622825 285 
L 170.571221 285 
L 172.519616 285 
L 174.468012 285 
L 176.416407 285 
L 178.364803 285 
L 180.313199 285 
L 182.261594 285 
L 184.20999 285 
L 186.158386 285 
L 188.106781 285 
L 190.055177 285 
L 192.003573 285 
L 193.951968 285 
L 195.900364 285 
L 197.84876 285 
L 199.797155 285 
L 201.745551 285 
L 203.693946 285 
L 205.642342 285 
L 207.590738 285 
L 209.539133 285 
L 211.487529 285 
L 213.435925 285 
L 215.38432 285 
L 217.332716 285 
L 219.281112 285 
L 221.229507 285 
L 223.177903 285 
L 225.126299 285 
L 227.074694 285 
L 229.02309 285 
L 230.971485 285 
L 232.919881 285 
L 234.868277 285 
L 236.816672 285 
L 238.765068 285 
L 240.713464 285 
L 242.661859 285 
L 244.610255 285 
L 246.558651 285 
L 248.507046 285 
L 250.455442 285 
L 252.403837 285 
L 254.352233 285 
L 256.300629 285 
L 258.249024 285 
L 260.19742 285 
L 262.145816 285 
L 264.094211 285 
L 266.042607 285 
L 267.991003 285 
L 269.939398 285 
L 271.887794 285 
L 273.83619 285 
L 275.784585 285 
L 277.732981 285 
L 279.681376 285 
L 281.629772 285 
L 283.578168 285 
L 285.526563 285 
L 287.474959 285 
L 289.423355 285 
L 291.37175 285 
L 293.320146 285 
L 295.268542 285 
L 297.216937 285 
L 299.165333 285 
L 301.113728 285 
L 303.062124 285 
L 305.01052 285 
L 306.958915 285 
L 308.907311 285 
L 310.855707 285 
L 312.804102 285 
L 314.752498 285 
L 316.700894 285 
L 318.649289 285 
L 320.597685 285 
L 322.546081 285 
L 324.494476 285 
L 326.442872 285 
L 328.391267 285 
L 330.339663 285 
L 332.288059 285 
L 334.236454 285 
L 336.18485 285 
L 338.133246 285 
L 340.081641 285 
L 342.030037 285 
L 343.978433 285 
L 345.926828 285 
L 347.875224 285 
L 349.823619 285 
L 351.772015 285 
L 353.720411 285 
L 355.668806 285 
L 357.617202 285 
L 359.565598 285 
L 361.513993 285 
L 363.462389 285 
L 365.410785 285 
L 367.35918 285 
L 369.307576 285 
L 371.255972 285 
L 373.204367 285 
L 375.152763 285 
L 377.101158 285 
L 379.049554 285 
L 380.99795 285 
L 382.946345 285 
L 384.894741 285 
L 386.843137 285 
L 388.791532 285 
L 390.739928 285 
L 392.688324 285 
L 394.636719 285 
L 396.585115 285 
L 398.533511 285 
L 400.481906 285 
L 402.430302 285 
L 404.378697 285 
L 406.327093 285 
L 408.275489 285 
L 410.223884 285 
L 412.17228 285 
L 414.120676 285 
L 416.069071 285 
L 418.017467 285 
L 419.965863 285 
L 421.914258 285 
L 423.862654 285 
L 425.811049 285 
L 427.759445 285 
L 429.707841 285 
L 431.656236 285 
L 433.604632 285 
L 435.553028 285 
L 437.501423 285 
L 439.449819 285 
L 441.398215 285 
L 443.34661 285 
L 445.295006 285 
L 447.243402 285 
L 449.191797 285 
L 451.140193 285 
L 453.088588 285 
L 455.036984 285 
L 456.98538 285 
L 458.933775 285 
L 460.882171 285 
L 462.830567 285 
L 464.778962 285 
L 466.727358 285 
L 468.675754 285 
L 470.624149 285 
L 472.572545 285 
L 474.52094 285 
L 476.469336 285 
L 478.417732 285 
L 480.366127 285 
L 482.314523 285 
L 484.262919 285 
L 486.211314 285 
L 488.15971 285 
L 490.108106 285 
L 492.056501 285 
L 494.004897 285 
L 495.953293 285 
L 497.901688 285 
L 499.850084 285 
L 501.798479 285 
L 503.746875 285 
L 505.695271 285 
L 507.643666 285 
L 509.592062 285 
L 511.540458 285 
L 513.488853 285 
L 515.437249 285 
L 517.385645 285 
L 519.33404 285 
L 521.282436 285 
L 523.230831 285 
L 525.179227 285 
L 527.127623 285 
L 529.076018 285 
L 531.024414 285 
L 532.97281 285 
L 534.921205 285 
L 536.869601 285 
L 538.817997 285 
L 540.766392 285 
L 542.714788 285 
L 544.663184 285 
L 546.611579 285 
L 548.559975 285 
L 550.50837 285 
L 552.456766 285 
L 554.405162 285 
L 556.353557 285 
L 558.301953 285 
L 560.250349 285 
L 562.198744 285 
L 564.14714 285 
L 566.095536 285 
L 568.043931 285 
L 569.992327 285 
L 571.940723 285 
L 573.889118 285 
L 575.837514 285 
L 577.785909 285 
L 579.734305 285 
L 581.682701 285 
L 583.631096 285 
L 585.579492 285 
L 587.527888 285 
L 589.476283 285 
L 591.424679 285 
L 593.373075 285 
L 595.32147 285 
L 597.269866 285 
L 599.218261 285 
L 601.166657 285 
L 603.115053 285 
L 605.063448 285 
L 607.011844 285 
L 608.96024 285 
L 610.908635 285 
L 612.857031 285 
L 614.805427 285 
L 616.753822 285 
L 618.702218 285 
L 620.650614 285 
L 622.599009 285 
L 624.547405 285 
L 626.4958 285 
L 628.444196 285 
L 630.392592 285 
L 630.392592 284.999976 
L 630.392592 284.999976 
L 628.444196 284.999784 
L 626.4958 284.999063 
L 624.547405 284.998036 
L 622.599009 284.998009 
L 620.650614 284.999023 
L 618.702218 284.999747 
L 616.753822 284.999774 
L 614.805427 284.999104 
L 612.857031 284.998045 
L 610.908635 284.997772 
L 608.96024 284.998062 
L 607.011844 284.997793 
L 605.063448 284.997872 
L 603.115053 284.99845 
L 601.166657 284.998189 
L 599.218261 284.997809 
L 597.269866 284.998559 
L 595.32147 284.999534 
L 593.373075 284.999887 
L 591.424679 284.999681 
L 589.476283 284.998835 
L 587.527888 284.997907 
L 585.579492 284.998181 
L 583.631096 284.999236 
L 581.682701 284.999845 
L 579.734305 284.999985 
L 577.785909 284.999999 
L 575.837514 285 
L 573.889118 285 
L 571.940723 285 
L 569.992327 285 
L 568.043931 285 
L 566.095536 284.999989 
L 564.14714 284.999877 
L 562.198744 284.999339 
L 560.250349 284.99828 
L 558.301953 284.997737 
L 556.353557 284.998039 
L 554.405162 284.997903 
L 552.456766 284.99779 
L 550.50837 284.99851 
L 548.559975 284.998701 
L 546.611579 284.997791 
L 544.663184 284.997043 
L 542.714788 284.997023 
L 540.766392 284.997762 
L 538.817997 284.998952 
L 536.869601 284.999423 
L 534.921205 284.998733 
L 532.97281 284.997754 
L 531.024414 284.997565 
L 529.076018 284.997561 
L 527.127623 284.997629 
L 525.179227 284.998067 
L 523.230831 284.997491 
L 521.282436 284.996122 
L 519.33404 284.996 
L 517.385645 284.996699 
L 515.437249 284.996554 
L 513.488853 284.996058 
L 511.540458 284.995716 
L 509.592062 284.994933 
L 507.643666 284.993945 
L 505.695271 284.992396 
L 503.746875 284.988832 
L 501.798479 284.984512 
L 499.850084 284.982533 
L 497.901688 284.984785 
L 495.953293 284.989266 
L 494.004897 284.992079 
L 492.056501 284.992678 
L 490.108106 284.993096 
L 488.15971 284.993519 
L 486.211314 284.99284 
L 484.262919 284.991889 
L 482.314523 284.99049 
L 480.366127 284.987861 
L 478.417732 284.985106 
L 476.469336 284.984758 
L 474.52094 284.988343 
L 472.572545 284.993259 
L 470.624149 284.994685 
L 468.675754 284.992243 
L 466.727358 284.990076 
L 464.778962 284.989688 
L 462.830567 284.988098 
L 460.882171 284.983759 
L 458.933775 284.978987 
L 456.98538 284.977835 
L 455.036984 284.981719 
L 453.088588 284.984923 
L 451.140193 284.982257 
L 449.191797 284.975812 
L 447.243402 284.970797 
L 445.295006 284.969804 
L 443.34661 284.967188 
L 441.398215 284.959965 
L 439.449819 284.953254 
L 437.501423 284.948875 
L 435.553028 284.94883 
L 433.604632 284.954064 
L 431.656236 284.958694 
L 429.707841 284.95721 
L 427.759445 284.948907 
L 425.811049 284.940332 
L 423.862654 284.936121 
L 421.914258 284.930127 
L 419.965863 284.92312 
L 418.017467 284.917134 
L 416.069071 284.914167 
L 414.120676 284.9197 
L 412.17228 284.923344 
L 410.223884 284.919479 
L 408.275489 284.916256 
L 406.327093 284.907841 
L 404.378697 284.893434 
L 402.430302 284.887827 
L 400.481906 284.889415 
L 398.533511 284.888373 
L 396.585115 284.885298 
L 394.636719 284.880065 
L 392.688324 284.871491 
L 390.739928 284.860076 
L 388.791532 284.843408 
L 386.843137 284.831096 
L 384.894741 284.831141 
L 382.946345 284.827011 
L 380.99795 284.808012 
L 379.049554 284.788819 
L 377.101158 284.780069 
L 375.152763 284.769369 
L 373.204367 284.754206 
L 371.255972 284.744629 
L 369.307576 284.73658 
L 367.35918 284.717941 
L 365.410785 284.681089 
L 363.462389 284.64154 
L 361.513993 284.62429 
L 359.565598 284.622956 
L 357.617202 284.606363 
L 355.668806 284.572524 
L 353.720411 284.547213 
L 351.772015 284.528942 
L 349.823619 284.501342 
L 347.875224 284.463471 
L 345.926828 284.42035 
L 343.978433 284.374383 
L 342.030037 284.329699 
L 340.081641 284.289261 
L 338.133246 284.238366 
L 336.18485 284.176315 
L 334.236454 284.142459 
L 332.288059 284.131958 
L 330.339663 284.098555 
L 328.391267 284.032936 
L 326.442872 283.945466 
L 324.494476 283.828156 
L 322.546081 283.687064 
L 320.597685 283.572201 
L 318.649289 283.488173 
L 316.700894 283.400579 
L 314.752498 283.30385 
L 312.804102 283.178721 
L 310.855707 283.027659 
L 308.907311 282.891301 
L 306.958915 282.770244 
L 305.01052 282.640202 
L 303.062124 282.493622 
L 301.113728 282.329544 
L 299.165333 282.152983 
L 297.216937 281.937915 
L 295.268542 281.679558 
L 293.320146 281.450037 
L 291.37175 281.260883 
L 289.423355 281.068468 
L 287.474959 280.767889 
L 285.526563 280.350954 
L 283.578168 279.977914 
L 281.629772 279.712467 
L 279.681376 279.443171 
L 277.732981 279.06894 
L 275.784585 278.623003 
L 273.83619 278.180343 
L 271.887794 277.697444 
L 269.939398 277.11698 
L 267.991003 276.499422 
L 266.042607 275.904507 
L 264.094211 275.299155 
L 262.145816 274.661405 
L 260.19742 273.97318 
L 258.249024 273.107837 
L 256.300629 272.105541 
L 254.352233 271.098933 
L 252.403837 270.133082 
L 250.455442 269.165555 
L 248.507046 268.052056 
L 246.558651 266.847128 
L 244.610255 265.676209 
L 242.661859 264.589761 
L 240.713464 263.501235 
L 238.765068 262.159895 
L 236.816672 260.616617 
L 234.868277 258.977538 
L 232.919881 257.148944 
L 230.971485 255.150129 
L 229.02309 253.063832 
L 227.074694 250.995714 
L 225.126299 249.001188 
L 223.177903 246.950198 
L 221.229507 244.621508 
L 219.281112 241.890452 
L 217.332716 238.971634 
L 215.38432 235.969834 
L 213.435925 232.731924 
L 211.487529 229.431836 
L 209.539133 226.208523 
L 207.590738 222.849146 
L 205.642342 219.108028 
L 203.693946 215.057645 
L 201.745551 210.898145 
L 199.797155 206.612022 
L 197.84876 202.307574 
L 195.900364 198.038206 
L 193.951968 193.402852 
L 192.003573 188.349586 
L 190.055177 183.148837 
L 188.106781 177.772372 
L 186.158386 172.135463 
L 184.20999 166.255136 
L 182.261594 160.280613 
L 180.313199 154.200982 
L 178.364803 148.01303 
L 176.416407 142.070694 
L 174.468012 136.249292 
L 172.519616 130.051896 
L 170.571221 123.38842 
L 168.622825 116.451412 
L 166.674429 109.451367 
L 164.726034 102.5236 
L 162.777638 95.601875 
L 160.829242 88.691814 
L 158.880847 82.273969 
L 156.932451 76.601629 
L 154.984055 71.180459 
L 153.03566 65.665989 
L 151.087264 60.253495 
L 149.138869 55.102901 
L 147.190473 50.442243 
L 145.242077 46.497757 
L 143.293682 43.113461 
L 141.345286 40.056468 
L 139.39689 37.478327 
L 137.448495 35.845833 
L 135.500099 35.468799 
L 133.551703 35.907227 
L 131.603308 36.516409 
L 129.654912 37.429036 
L 127.706516 38.85739 
L 125.758121 40.943246 
L 123.809725 44.306547 
L 121.86133 48.871109 
L 119.912934 53.914144 
L 117.964538 59.605918 
L 116.016143 66.32698 
L 114.067747 73.856915 
L 112.119351 81.783161 
L 110.170956 89.893692 
L 108.22256 98.301827 
L 106.274164 106.983868 
L 104.325769 115.883836 
L 102.377373 125.09638 
L 100.428978 134.605195 
L 98.480582 144.455917 
L 96.532186 154.554056 
L 94.583791 164.438248 
L 92.635395 173.6513 
L 90.686999 182.203411 
L 88.738604 190.640815 
L 86.790208 199.222609 
L 84.841812 207.600592 
L 82.893417 215.350005 
L 80.945021 222.609781 
L 78.996625 230.059226 
L 77.04823 237.886121 
L 75.099834 245.69618 
L 73.151439 253.298291 
L 71.203043 260.754445 
L 69.254647 267.788228 
L 67.306252 273.815335 
L 65.357856 278.386181 
L 63.40946 281.405312 
L 61.461065 283.178905 
L 59.512669 284.148646 
L 57.564273 284.651481 
L 55.615878 284.885977 
L 53.667482 284.972601 
L 51.719087 284.995348 
L 49.770691 284.999457 
L 47.822295 284.99996 
z
" style="fill:#4c72b0;fill-opacity:0.1;"/>
   </g>
   <g id="matplotlib.axis_1">
    <g id="xtick_1">
     <g id="line2d_1">
      <defs>
       <path d="M 0 0 
L 0 6 
" id="m5e92c7ae87" style="stroke:#262626;"/>
      </defs>
      <g>
       <use style="fill:#262626;stroke:#262626;" x="51.8275" xlink:href="#m5e92c7ae87" y="285"/>
      </g>
     </g>
     <g id="text_1">
      <!-- 0.0 -->
      <defs>
       <path d="M 31.78125 66.40625 
Q 24.171875 66.40625 20.328125 58.90625 
Q 16.5 51.421875 16.5 36.375 
Q 16.5 21.390625 20.328125 13.890625 
Q 24.171875 6.390625 31.78125 6.390625 
Q 39.453125 6.390625 43.28125 13.890625 
Q 47.125 21.390625 47.125 36.375 
Q 47.125 51.421875 43.28125 58.90625 
Q 39.453125 66.40625 31.78125 66.40625 
z
M 31.78125 74.21875 
Q 44.046875 74.21875 50.515625 64.515625 
Q 56.984375 54.828125 56.984375 36.375 
Q 56.984375 17.96875 50.515625 8.265625 
Q 44.046875 -1.421875 31.78125 -1.421875 
Q 19.53125 -1.421875 13.0625 8.265625 
Q 6.59375 17.96875 6.59375 36.375 
Q 6.59375 54.828125 13.0625 64.515625 
Q 19.53125 74.21875 31.78125 74.21875 
z
" id="DejaVuSans-30"/>
       <path d="M 10.6875 12.40625 
L 21 12.40625 
L 21 0 
L 10.6875 0 
z
" id="DejaVuSans-2e"/>
      </defs>
      <g style="fill:#262626;" transform="translate(41.490469 307.877969)scale(0.13 -0.13)">
       <use xlink:href="#DejaVuSans-30"/>
       <use x="63.623047" xlink:href="#DejaVuSans-2e"/>
       <use x="95.410156" xlink:href="#DejaVuSans-30"/>
      </g>
     </g>
    </g>
    <g id="xtick_2">
     <g id="line2d_2">
      <g>
       <use style="fill:#262626;stroke:#262626;" x="125.525613" xlink:href="#m5e92c7ae87" y="285"/>
      </g>
     </g>
     <g id="text_2">
      <!-- 0.1 -->
      <defs>
       <path d="M 12.40625 8.296875 
L 28.515625 8.296875 
L 28.515625 63.921875 
L 10.984375 60.40625 
L 10.984375 69.390625 
L 28.421875 72.90625 
L 38.28125 72.90625 
L 38.28125 8.296875 
L 54.390625 8.296875 
L 54.390625 0 
L 12.40625 0 
z
" id="DejaVuSans-31"/>
      </defs>
      <g style="fill:#262626;" transform="translate(115.188582 307.877969)scale(0.13 -0.13)">
       <use xlink:href="#DejaVuSans-30"/>
       <use x="63.623047" xlink:href="#DejaVuSans-2e"/>
       <use x="95.410156" xlink:href="#DejaVuSans-31"/>
      </g>
     </g>
    </g>
    <g id="xtick_3">
     <g id="line2d_3">
      <g>
       <use style="fill:#262626;stroke:#262626;" x="199.223726" xlink:href="#m5e92c7ae87" y="285"/>
      </g>
     </g>
     <g id="text_3">
      <!-- 0.2 -->
      <defs>
       <path d="M 19.1875 8.296875 
L 53.609375 8.296875 
L 53.609375 0 
L 7.328125 0 
L 7.328125 8.296875 
Q 12.9375 14.109375 22.625 23.890625 
Q 32.328125 33.6875 34.8125 36.53125 
Q 39.546875 41.84375 41.421875 45.53125 
Q 43.3125 49.21875 43.3125 52.78125 
Q 43.3125 58.59375 39.234375 62.25 
Q 35.15625 65.921875 28.609375 65.921875 
Q 23.96875 65.921875 18.8125 64.3125 
Q 13.671875 62.703125 7.8125 59.421875 
L 7.8125 69.390625 
Q 13.765625 71.78125 18.9375 73 
Q 24.125 74.21875 28.421875 74.21875 
Q 39.75 74.21875 46.484375 68.546875 
Q 53.21875 62.890625 53.21875 53.421875 
Q 53.21875 48.921875 51.53125 44.890625 
Q 49.859375 40.875 45.40625 35.40625 
Q 44.1875 33.984375 37.640625 27.21875 
Q 31.109375 20.453125 19.1875 8.296875 
z
" id="DejaVuSans-32"/>
      </defs>
      <g style="fill:#262626;" transform="translate(188.886695 307.877969)scale(0.13 -0.13)">
       <use xlink:href="#DejaVuSans-30"/>
       <use x="63.623047" xlink:href="#DejaVuSans-2e"/>
       <use x="95.410156" xlink:href="#DejaVuSans-32"/>
      </g>
     </g>
    </g>
    <g id="xtick_4">
     <g id="line2d_4">
      <g>
       <use style="fill:#262626;stroke:#262626;" x="272.92184" xlink:href="#m5e92c7ae87" y="285"/>
      </g>
     </g>
     <g id="text_4">
      <!-- 0.3 -->
      <defs>
       <path d="M 40.578125 39.3125 
Q 47.65625 37.796875 51.625 33 
Q 55.609375 28.21875 55.609375 21.1875 
Q 55.609375 10.40625 48.1875 4.484375 
Q 40.765625 -1.421875 27.09375 -1.421875 
Q 22.515625 -1.421875 17.65625 -0.515625 
Q 12.796875 0.390625 7.625 2.203125 
L 7.625 11.71875 
Q 11.71875 9.328125 16.59375 8.109375 
Q 21.484375 6.890625 26.8125 6.890625 
Q 36.078125 6.890625 40.9375 10.546875 
Q 45.796875 14.203125 45.796875 21.1875 
Q 45.796875 27.640625 41.28125 31.265625 
Q 36.765625 34.90625 28.71875 34.90625 
L 20.21875 34.90625 
L 20.21875 43.015625 
L 29.109375 43.015625 
Q 36.375 43.015625 40.234375 45.921875 
Q 44.09375 48.828125 44.09375 54.296875 
Q 44.09375 59.90625 40.109375 62.90625 
Q 36.140625 65.921875 28.71875 65.921875 
Q 24.65625 65.921875 20.015625 65.03125 
Q 15.375 64.15625 9.8125 62.3125 
L 9.8125 71.09375 
Q 15.4375 72.65625 20.34375 73.4375 
Q 25.25 74.21875 29.59375 74.21875 
Q 40.828125 74.21875 47.359375 69.109375 
Q 53.90625 64.015625 53.90625 55.328125 
Q 53.90625 49.265625 50.4375 45.09375 
Q 46.96875 40.921875 40.578125 39.3125 
z
" id="DejaVuSans-33"/>
      </defs>
      <g style="fill:#262626;" transform="translate(262.584808 307.877969)scale(0.13 -0.13)">
       <use xlink:href="#DejaVuSans-30"/>
       <use x="63.623047" xlink:href="#DejaVuSans-2e"/>
       <use x="95.410156" xlink:href="#DejaVuSans-33"/>
      </g>
     </g>
    </g>
    <g id="xtick_5">
     <g id="line2d_5">
      <g>
       <use style="fill:#262626;stroke:#262626;" x="346.619953" xlink:href="#m5e92c7ae87" y="285"/>
      </g>
     </g>
     <g id="text_5">
      <!-- 0.4 -->
      <defs>
       <path d="M 37.796875 64.3125 
L 12.890625 25.390625 
L 37.796875 25.390625 
z
M 35.203125 72.90625 
L 47.609375 72.90625 
L 47.609375 25.390625 
L 58.015625 25.390625 
L 58.015625 17.1875 
L 47.609375 17.1875 
L 47.609375 0 
L 37.796875 0 
L 37.796875 17.1875 
L 4.890625 17.1875 
L 4.890625 26.703125 
z
" id="DejaVuSans-34"/>
      </defs>
      <g style="fill:#262626;" transform="translate(336.282922 307.877969)scale(0.13 -0.13)">
       <use xlink:href="#DejaVuSans-30"/>
       <use x="63.623047" xlink:href="#DejaVuSans-2e"/>
       <use x="95.410156" xlink:href="#DejaVuSans-34"/>
      </g>
     </g>
    </g>
    <g id="xtick_6">
     <g id="line2d_6">
      <g>
       <use style="fill:#262626;stroke:#262626;" x="420.318066" xlink:href="#m5e92c7ae87" y="285"/>
      </g>
     </g>
     <g id="text_6">
      <!-- 0.5 -->
      <defs>
       <path d="M 10.796875 72.90625 
L 49.515625 72.90625 
L 49.515625 64.59375 
L 19.828125 64.59375 
L 19.828125 46.734375 
Q 21.96875 47.46875 24.109375 47.828125 
Q 26.265625 48.1875 28.421875 48.1875 
Q 40.625 48.1875 47.75 41.5 
Q 54.890625 34.8125 54.890625 23.390625 
Q 54.890625 11.625 47.5625 5.09375 
Q 40.234375 -1.421875 26.90625 -1.421875 
Q 22.3125 -1.421875 17.546875 -0.640625 
Q 12.796875 0.140625 7.71875 1.703125 
L 7.71875 11.625 
Q 12.109375 9.234375 16.796875 8.0625 
Q 21.484375 6.890625 26.703125 6.890625 
Q 35.15625 6.890625 40.078125 11.328125 
Q 45.015625 15.765625 45.015625 23.390625 
Q 45.015625 31 40.078125 35.4375 
Q 35.15625 39.890625 26.703125 39.890625 
Q 22.75 39.890625 18.8125 39.015625 
Q 14.890625 38.140625 10.796875 36.28125 
z
" id="DejaVuSans-35"/>
      </defs>
      <g style="fill:#262626;" transform="translate(409.981035 307.877969)scale(0.13 -0.13)">
       <use xlink:href="#DejaVuSans-30"/>
       <use x="63.623047" xlink:href="#DejaVuSans-2e"/>
       <use x="95.410156" xlink:href="#DejaVuSans-35"/>
      </g>
     </g>
    </g>
    <g id="text_7">
     <!-- Document Similarity -->
     <defs>
      <path d="M 19.671875 64.796875 
L 19.671875 8.109375 
L 31.59375 8.109375 
Q 46.6875 8.109375 53.6875 14.9375 
Q 60.6875 21.78125 60.6875 36.53125 
Q 60.6875 51.171875 53.6875 57.984375 
Q 46.6875 64.796875 31.59375 64.796875 
z
M 9.8125 72.90625 
L 30.078125 72.90625 
Q 51.265625 72.90625 61.171875 64.09375 
Q 71.09375 55.28125 71.09375 36.53125 
Q 71.09375 17.671875 61.125 8.828125 
Q 51.171875 0 30.078125 0 
L 9.8125 0 
z
" id="DejaVuSans-44"/>
      <path d="M 30.609375 48.390625 
Q 23.390625 48.390625 19.1875 42.75 
Q 14.984375 37.109375 14.984375 27.296875 
Q 14.984375 17.484375 19.15625 11.84375 
Q 23.34375 6.203125 30.609375 6.203125 
Q 37.796875 6.203125 41.984375 11.859375 
Q 46.1875 17.53125 46.1875 27.296875 
Q 46.1875 37.015625 41.984375 42.703125 
Q 37.796875 48.390625 30.609375 48.390625 
z
M 30.609375 56 
Q 42.328125 56 49.015625 48.375 
Q 55.71875 40.765625 55.71875 27.296875 
Q 55.71875 13.875 49.015625 6.21875 
Q 42.328125 -1.421875 30.609375 -1.421875 
Q 18.84375 -1.421875 12.171875 6.21875 
Q 5.515625 13.875 5.515625 27.296875 
Q 5.515625 40.765625 12.171875 48.375 
Q 18.84375 56 30.609375 56 
z
" id="DejaVuSans-6f"/>
      <path d="M 48.78125 52.59375 
L 48.78125 44.1875 
Q 44.96875 46.296875 41.140625 47.34375 
Q 37.3125 48.390625 33.40625 48.390625 
Q 24.65625 48.390625 19.8125 42.84375 
Q 14.984375 37.3125 14.984375 27.296875 
Q 14.984375 17.28125 19.8125 11.734375 
Q 24.65625 6.203125 33.40625 6.203125 
Q 37.3125 6.203125 41.140625 7.25 
Q 44.96875 8.296875 48.78125 10.40625 
L 48.78125 2.09375 
Q 45.015625 0.34375 40.984375 -0.53125 
Q 36.96875 -1.421875 32.421875 -1.421875 
Q 20.0625 -1.421875 12.78125 6.34375 
Q 5.515625 14.109375 5.515625 27.296875 
Q 5.515625 40.671875 12.859375 48.328125 
Q 20.21875 56 33.015625 56 
Q 37.15625 56 41.109375 55.140625 
Q 45.0625 54.296875 48.78125 52.59375 
z
" id="DejaVuSans-63"/>
      <path d="M 8.5 21.578125 
L 8.5 54.6875 
L 17.484375 54.6875 
L 17.484375 21.921875 
Q 17.484375 14.15625 20.5 10.265625 
Q 23.53125 6.390625 29.59375 6.390625 
Q 36.859375 6.390625 41.078125 11.03125 
Q 45.3125 15.671875 45.3125 23.6875 
L 45.3125 54.6875 
L 54.296875 54.6875 
L 54.296875 0 
L 45.3125 0 
L 45.3125 8.40625 
Q 42.046875 3.421875 37.71875 1 
Q 33.40625 -1.421875 27.6875 -1.421875 
Q 18.265625 -1.421875 13.375 4.4375 
Q 8.5 10.296875 8.5 21.578125 
z
M 31.109375 56 
z
" id="DejaVuSans-75"/>
      <path d="M 52 44.1875 
Q 55.375 50.25 60.0625 53.125 
Q 64.75 56 71.09375 56 
Q 79.640625 56 84.28125 50.015625 
Q 88.921875 44.046875 88.921875 33.015625 
L 88.921875 0 
L 79.890625 0 
L 79.890625 32.71875 
Q 79.890625 40.578125 77.09375 44.375 
Q 74.3125 48.1875 68.609375 48.1875 
Q 61.625 48.1875 57.5625 43.546875 
Q 53.515625 38.921875 53.515625 30.90625 
L 53.515625 0 
L 44.484375 0 
L 44.484375 32.71875 
Q 44.484375 40.625 41.703125 44.40625 
Q 38.921875 48.1875 33.109375 48.1875 
Q 26.21875 48.1875 22.15625 43.53125 
Q 18.109375 38.875 18.109375 30.90625 
L 18.109375 0 
L 9.078125 0 
L 9.078125 54.6875 
L 18.109375 54.6875 
L 18.109375 46.1875 
Q 21.1875 51.21875 25.484375 53.609375 
Q 29.78125 56 35.6875 56 
Q 41.65625 56 45.828125 52.96875 
Q 50 49.953125 52 44.1875 
z
" id="DejaVuSans-6d"/>
      <path d="M 56.203125 29.59375 
L 56.203125 25.203125 
L 14.890625 25.203125 
Q 15.484375 15.921875 20.484375 11.0625 
Q 25.484375 6.203125 34.421875 6.203125 
Q 39.59375 6.203125 44.453125 7.46875 
Q 49.3125 8.734375 54.109375 11.28125 
L 54.109375 2.78125 
Q 49.265625 0.734375 44.1875 -0.34375 
Q 39.109375 -1.421875 33.890625 -1.421875 
Q 20.796875 -1.421875 13.15625 6.1875 
Q 5.515625 13.8125 5.515625 26.8125 
Q 5.515625 40.234375 12.765625 48.109375 
Q 20.015625 56 32.328125 56 
Q 43.359375 56 49.78125 48.890625 
Q 56.203125 41.796875 56.203125 29.59375 
z
M 47.21875 32.234375 
Q 47.125 39.59375 43.09375 43.984375 
Q 39.0625 48.390625 32.421875 48.390625 
Q 24.90625 48.390625 20.390625 44.140625 
Q 15.875 39.890625 15.1875 32.171875 
z
" id="DejaVuSans-65"/>
      <path d="M 54.890625 33.015625 
L 54.890625 0 
L 45.90625 0 
L 45.90625 32.71875 
Q 45.90625 40.484375 42.875 44.328125 
Q 39.84375 48.1875 33.796875 48.1875 
Q 26.515625 48.1875 22.3125 43.546875 
Q 18.109375 38.921875 18.109375 30.90625 
L 18.109375 0 
L 9.078125 0 
L 9.078125 54.6875 
L 18.109375 54.6875 
L 18.109375 46.1875 
Q 21.34375 51.125 25.703125 53.5625 
Q 30.078125 56 35.796875 56 
Q 45.21875 56 50.046875 50.171875 
Q 54.890625 44.34375 54.890625 33.015625 
z
" id="DejaVuSans-6e"/>
      <path d="M 18.3125 70.21875 
L 18.3125 54.6875 
L 36.8125 54.6875 
L 36.8125 47.703125 
L 18.3125 47.703125 
L 18.3125 18.015625 
Q 18.3125 11.328125 20.140625 9.421875 
Q 21.96875 7.515625 27.59375 7.515625 
L 36.8125 7.515625 
L 36.8125 0 
L 27.59375 0 
Q 17.1875 0 13.234375 3.875 
Q 9.28125 7.765625 9.28125 18.015625 
L 9.28125 47.703125 
L 2.6875 47.703125 
L 2.6875 54.6875 
L 9.28125 54.6875 
L 9.28125 70.21875 
z
" id="DejaVuSans-74"/>
      <path id="DejaVuSans-20"/>
      <path d="M 53.515625 70.515625 
L 53.515625 60.890625 
Q 47.90625 63.578125 42.921875 64.890625 
Q 37.9375 66.21875 33.296875 66.21875 
Q 25.25 66.21875 20.875 63.09375 
Q 16.5 59.96875 16.5 54.203125 
Q 16.5 49.359375 19.40625 46.890625 
Q 22.3125 44.4375 30.421875 42.921875 
L 36.375 41.703125 
Q 47.40625 39.59375 52.65625 34.296875 
Q 57.90625 29 57.90625 20.125 
Q 57.90625 9.515625 50.796875 4.046875 
Q 43.703125 -1.421875 29.984375 -1.421875 
Q 24.8125 -1.421875 18.96875 -0.25 
Q 13.140625 0.921875 6.890625 3.21875 
L 6.890625 13.375 
Q 12.890625 10.015625 18.65625 8.296875 
Q 24.421875 6.59375 29.984375 6.59375 
Q 38.421875 6.59375 43.015625 9.90625 
Q 47.609375 13.234375 47.609375 19.390625 
Q 47.609375 24.75 44.3125 27.78125 
Q 41.015625 30.8125 33.5 32.328125 
L 27.484375 33.5 
Q 16.453125 35.6875 11.515625 40.375 
Q 6.59375 45.0625 6.59375 53.421875 
Q 6.59375 63.09375 13.40625 68.65625 
Q 20.21875 74.21875 32.171875 74.21875 
Q 37.3125 74.21875 42.625 73.28125 
Q 47.953125 72.359375 53.515625 70.515625 
z
" id="DejaVuSans-53"/>
      <path d="M 9.421875 54.6875 
L 18.40625 54.6875 
L 18.40625 0 
L 9.421875 0 
z
M 9.421875 75.984375 
L 18.40625 75.984375 
L 18.40625 64.59375 
L 9.421875 64.59375 
z
" id="DejaVuSans-69"/>
      <path d="M 9.421875 75.984375 
L 18.40625 75.984375 
L 18.40625 0 
L 9.421875 0 
z
" id="DejaVuSans-6c"/>
      <path d="M 34.28125 27.484375 
Q 23.390625 27.484375 19.1875 25 
Q 14.984375 22.515625 14.984375 16.5 
Q 14.984375 11.71875 18.140625 8.90625 
Q 21.296875 6.109375 26.703125 6.109375 
Q 34.1875 6.109375 38.703125 11.40625 
Q 43.21875 16.703125 43.21875 25.484375 
L 43.21875 27.484375 
z
M 52.203125 31.203125 
L 52.203125 0 
L 43.21875 0 
L 43.21875 8.296875 
Q 40.140625 3.328125 35.546875 0.953125 
Q 30.953125 -1.421875 24.3125 -1.421875 
Q 15.921875 -1.421875 10.953125 3.296875 
Q 6 8.015625 6 15.921875 
Q 6 25.140625 12.171875 29.828125 
Q 18.359375 34.515625 30.609375 34.515625 
L 43.21875 34.515625 
L 43.21875 35.40625 
Q 43.21875 41.609375 39.140625 45 
Q 35.0625 48.390625 27.6875 48.390625 
Q 23 48.390625 18.546875 47.265625 
Q 14.109375 46.140625 10.015625 43.890625 
L 10.015625 52.203125 
Q 14.9375 54.109375 19.578125 55.046875 
Q 24.21875 56 28.609375 56 
Q 40.484375 56 46.34375 49.84375 
Q 52.203125 43.703125 52.203125 31.203125 
z
" id="DejaVuSans-61"/>
      <path d="M 41.109375 46.296875 
Q 39.59375 47.171875 37.8125 47.578125 
Q 36.03125 48 33.890625 48 
Q 26.265625 48 22.1875 43.046875 
Q 18.109375 38.09375 18.109375 28.8125 
L 18.109375 0 
L 9.078125 0 
L 9.078125 54.6875 
L 18.109375 54.6875 
L 18.109375 46.1875 
Q 20.953125 51.171875 25.484375 53.578125 
Q 30.03125 56 36.53125 56 
Q 37.453125 56 38.578125 55.875 
Q 39.703125 55.765625 41.0625 55.515625 
z
" id="DejaVuSans-72"/>
      <path d="M 32.171875 -5.078125 
Q 28.375 -14.84375 24.75 -17.8125 
Q 21.140625 -20.796875 15.09375 -20.796875 
L 7.90625 -20.796875 
L 7.90625 -13.28125 
L 13.1875 -13.28125 
Q 16.890625 -13.28125 18.9375 -11.515625 
Q 21 -9.765625 23.484375 -3.21875 
L 25.09375 0.875 
L 2.984375 54.6875 
L 12.5 54.6875 
L 29.59375 11.921875 
L 46.6875 54.6875 
L 56.203125 54.6875 
z
" id="DejaVuSans-79"/>
     </defs>
     <g style="fill:#262626;" transform="translate(144.863438 329.778437)scale(0.2 -0.2)">
      <use xlink:href="#DejaVuSans-44"/>
      <use x="77.001953" xlink:href="#DejaVuSans-6f"/>
      <use x="138.183594" xlink:href="#DejaVuSans-63"/>
      <use x="193.164062" xlink:href="#DejaVuSans-75"/>
      <use x="256.542969" xlink:href="#DejaVuSans-6d"/>
      <use x="353.955078" xlink:href="#DejaVuSans-65"/>
      <use x="415.478516" xlink:href="#DejaVuSans-6e"/>
      <use x="478.857422" xlink:href="#DejaVuSans-74"/>
      <use x="518.066406" xlink:href="#DejaVuSans-20"/>
      <use x="549.853516" xlink:href="#DejaVuSans-53"/>
      <use x="613.330078" xlink:href="#DejaVuSans-69"/>
      <use x="641.113281" xlink:href="#DejaVuSans-6d"/>
      <use x="738.525391" xlink:href="#DejaVuSans-69"/>
      <use x="766.308594" xlink:href="#DejaVuSans-6c"/>
      <use x="794.091797" xlink:href="#DejaVuSans-61"/>
      <use x="855.371094" xlink:href="#DejaVuSans-72"/>
      <use x="896.484375" xlink:href="#DejaVuSans-69"/>
      <use x="924.267578" xlink:href="#DejaVuSans-74"/>
      <use x="963.476562" xlink:href="#DejaVuSans-79"/>
     </g>
    </g>
   </g>
   <g id="matplotlib.axis_2">
    <g id="ytick_1">
     <g id="line2d_7">
      <defs>
       <path d="M 0 0 
L -6 0 
" id="m52589f2463" style="stroke:#262626;"/>
      </defs>
      <g>
       <use style="fill:#262626;stroke:#262626;" x="51.8275" xlink:href="#m52589f2463" y="285"/>
      </g>
     </g>
     <g id="text_8">
      <!-- 0 -->
      <g style="fill:#262626;" transform="translate(30.55625 289.938984)scale(0.13 -0.13)">
       <use xlink:href="#DejaVuSans-30"/>
      </g>
     </g>
    </g>
    <g id="ytick_2">
     <g id="line2d_8">
      <g>
       <use style="fill:#262626;stroke:#262626;" x="51.8275" xlink:href="#m52589f2463" y="253.023529"/>
      </g>
     </g>
     <g id="text_9">
      <!-- 1 -->
      <g style="fill:#262626;" transform="translate(30.55625 257.962514)scale(0.13 -0.13)">
       <use xlink:href="#DejaVuSans-31"/>
      </g>
     </g>
    </g>
    <g id="ytick_3">
     <g id="line2d_9">
      <g>
       <use style="fill:#262626;stroke:#262626;" x="51.8275" xlink:href="#m52589f2463" y="221.047059"/>
      </g>
     </g>
     <g id="text_10">
      <!-- 2 -->
      <g style="fill:#262626;" transform="translate(30.55625 225.986043)scale(0.13 -0.13)">
       <use xlink:href="#DejaVuSans-32"/>
      </g>
     </g>
    </g>
    <g id="ytick_4">
     <g id="line2d_10">
      <g>
       <use style="fill:#262626;stroke:#262626;" x="51.8275" xlink:href="#m52589f2463" y="189.070588"/>
      </g>
     </g>
     <g id="text_11">
      <!-- 3 -->
      <g style="fill:#262626;" transform="translate(30.55625 194.009573)scale(0.13 -0.13)">
       <use xlink:href="#DejaVuSans-33"/>
      </g>
     </g>
    </g>
    <g id="ytick_5">
     <g id="line2d_11">
      <g>
       <use style="fill:#262626;stroke:#262626;" x="51.8275" xlink:href="#m52589f2463" y="157.094118"/>
      </g>
     </g>
     <g id="text_12">
      <!-- 4 -->
      <g style="fill:#262626;" transform="translate(30.55625 162.033102)scale(0.13 -0.13)">
       <use xlink:href="#DejaVuSans-34"/>
      </g>
     </g>
    </g>
    <g id="ytick_6">
     <g id="line2d_12">
      <g>
       <use style="fill:#262626;stroke:#262626;" x="51.8275" xlink:href="#m52589f2463" y="125.117647"/>
      </g>
     </g>
     <g id="text_13">
      <!-- 5 -->
      <g style="fill:#262626;" transform="translate(30.55625 130.056631)scale(0.13 -0.13)">
       <use xlink:href="#DejaVuSans-35"/>
      </g>
     </g>
    </g>
    <g id="ytick_7">
     <g id="line2d_13">
      <g>
       <use style="fill:#262626;stroke:#262626;" x="51.8275" xlink:href="#m52589f2463" y="93.141176"/>
      </g>
     </g>
     <g id="text_14">
      <!-- 6 -->
      <defs>
       <path d="M 33.015625 40.375 
Q 26.375 40.375 22.484375 35.828125 
Q 18.609375 31.296875 18.609375 23.390625 
Q 18.609375 15.53125 22.484375 10.953125 
Q 26.375 6.390625 33.015625 6.390625 
Q 39.65625 6.390625 43.53125 10.953125 
Q 47.40625 15.53125 47.40625 23.390625 
Q 47.40625 31.296875 43.53125 35.828125 
Q 39.65625 40.375 33.015625 40.375 
z
M 52.59375 71.296875 
L 52.59375 62.3125 
Q 48.875 64.0625 45.09375 64.984375 
Q 41.3125 65.921875 37.59375 65.921875 
Q 27.828125 65.921875 22.671875 59.328125 
Q 17.53125 52.734375 16.796875 39.40625 
Q 19.671875 43.65625 24.015625 45.921875 
Q 28.375 48.1875 33.59375 48.1875 
Q 44.578125 48.1875 50.953125 41.515625 
Q 57.328125 34.859375 57.328125 23.390625 
Q 57.328125 12.15625 50.6875 5.359375 
Q 44.046875 -1.421875 33.015625 -1.421875 
Q 20.359375 -1.421875 13.671875 8.265625 
Q 6.984375 17.96875 6.984375 36.375 
Q 6.984375 53.65625 15.1875 63.9375 
Q 23.390625 74.21875 37.203125 74.21875 
Q 40.921875 74.21875 44.703125 73.484375 
Q 48.484375 72.75 52.59375 71.296875 
z
" id="DejaVuSans-36"/>
      </defs>
      <g style="fill:#262626;" transform="translate(30.55625 98.080161)scale(0.13 -0.13)">
       <use xlink:href="#DejaVuSans-36"/>
      </g>
     </g>
    </g>
    <g id="ytick_8">
     <g id="line2d_14">
      <g>
       <use style="fill:#262626;stroke:#262626;" x="51.8275" xlink:href="#m52589f2463" y="61.164706"/>
      </g>
     </g>
     <g id="text_15">
      <!-- 7 -->
      <defs>
       <path d="M 8.203125 72.90625 
L 55.078125 72.90625 
L 55.078125 68.703125 
L 28.609375 0 
L 18.3125 0 
L 43.21875 64.59375 
L 8.203125 64.59375 
z
" id="DejaVuSans-37"/>
      </defs>
      <g style="fill:#262626;" transform="translate(30.55625 66.10369)scale(0.13 -0.13)">
       <use xlink:href="#DejaVuSans-37"/>
      </g>
     </g>
    </g>
    <g id="ytick_9">
     <g id="line2d_15">
      <g>
       <use style="fill:#262626;stroke:#262626;" x="51.8275" xlink:href="#m52589f2463" y="29.188235"/>
      </g>
     </g>
     <g id="text_16">
      <!-- 8 -->
      <defs>
       <path d="M 31.78125 34.625 
Q 24.75 34.625 20.71875 30.859375 
Q 16.703125 27.09375 16.703125 20.515625 
Q 16.703125 13.921875 20.71875 10.15625 
Q 24.75 6.390625 31.78125 6.390625 
Q 38.8125 6.390625 42.859375 10.171875 
Q 46.921875 13.96875 46.921875 20.515625 
Q 46.921875 27.09375 42.890625 30.859375 
Q 38.875 34.625 31.78125 34.625 
z
M 21.921875 38.8125 
Q 15.578125 40.375 12.03125 44.71875 
Q 8.5 49.078125 8.5 55.328125 
Q 8.5 64.0625 14.71875 69.140625 
Q 20.953125 74.21875 31.78125 74.21875 
Q 42.671875 74.21875 48.875 69.140625 
Q 55.078125 64.0625 55.078125 55.328125 
Q 55.078125 49.078125 51.53125 44.71875 
Q 48 40.375 41.703125 38.8125 
Q 48.828125 37.15625 52.796875 32.3125 
Q 56.78125 27.484375 56.78125 20.515625 
Q 56.78125 9.90625 50.3125 4.234375 
Q 43.84375 -1.421875 31.78125 -1.421875 
Q 19.734375 -1.421875 13.25 4.234375 
Q 6.78125 9.90625 6.78125 20.515625 
Q 6.78125 27.484375 10.78125 32.3125 
Q 14.796875 37.15625 21.921875 38.8125 
z
M 18.3125 54.390625 
Q 18.3125 48.734375 21.84375 45.5625 
Q 25.390625 42.390625 31.78125 42.390625 
Q 38.140625 42.390625 41.71875 45.5625 
Q 45.3125 48.734375 45.3125 54.390625 
Q 45.3125 60.0625 41.71875 63.234375 
Q 38.140625 66.40625 31.78125 66.40625 
Q 25.390625 66.40625 21.84375 63.234375 
Q 18.3125 60.0625 18.3125 54.390625 
z
" id="DejaVuSans-38"/>
      </defs>
      <g style="fill:#262626;" transform="translate(30.55625 34.12722)scale(0.13 -0.13)">
       <use xlink:href="#DejaVuSans-38"/>
      </g>
     </g>
    </g>
    <g id="text_17">
     <!-- Density -->
     <defs>
      <path d="M 44.28125 53.078125 
L 44.28125 44.578125 
Q 40.484375 46.53125 36.375 47.5 
Q 32.28125 48.484375 27.875 48.484375 
Q 21.1875 48.484375 17.84375 46.4375 
Q 14.5 44.390625 14.5 40.28125 
Q 14.5 37.15625 16.890625 35.375 
Q 19.28125 33.59375 26.515625 31.984375 
L 29.59375 31.296875 
Q 39.15625 29.25 43.1875 25.515625 
Q 47.21875 21.78125 47.21875 15.09375 
Q 47.21875 7.46875 41.1875 3.015625 
Q 35.15625 -1.421875 24.609375 -1.421875 
Q 20.21875 -1.421875 15.453125 -0.5625 
Q 10.6875 0.296875 5.421875 2 
L 5.421875 11.28125 
Q 10.40625 8.6875 15.234375 7.390625 
Q 20.0625 6.109375 24.8125 6.109375 
Q 31.15625 6.109375 34.5625 8.28125 
Q 37.984375 10.453125 37.984375 14.40625 
Q 37.984375 18.0625 35.515625 20.015625 
Q 33.0625 21.96875 24.703125 23.78125 
L 21.578125 24.515625 
Q 13.234375 26.265625 9.515625 29.90625 
Q 5.8125 33.546875 5.8125 39.890625 
Q 5.8125 47.609375 11.28125 51.796875 
Q 16.75 56 26.8125 56 
Q 31.78125 56 36.171875 55.265625 
Q 40.578125 54.546875 44.28125 53.078125 
z
" id="DejaVuSans-73"/>
     </defs>
     <g style="fill:#262626;" transform="translate(22.396875 187.117188)rotate(-90)scale(0.2 -0.2)">
      <use xlink:href="#DejaVuSans-44"/>
      <use x="77.001953" xlink:href="#DejaVuSans-65"/>
      <use x="138.525391" xlink:href="#DejaVuSans-6e"/>
      <use x="201.904297" xlink:href="#DejaVuSans-73"/>
      <use x="254.003906" xlink:href="#DejaVuSans-69"/>
      <use x="281.787109" xlink:href="#DejaVuSans-74"/>
      <use x="320.996094" xlink:href="#DejaVuSans-79"/>
     </g>
    </g>
   </g>
   <g id="line2d_16">
    <path clip-path="url(#pe81b613971)" d="M 47.822295 284.99996 
L 53.667482 284.972601 
L 55.615878 284.885977 
L 57.564273 284.651481 
L 59.512669 284.148646 
L 61.461065 283.178905 
L 63.40946 281.405312 
L 65.357856 278.386181 
L 67.306252 273.815335 
L 69.254647 267.788228 
L 71.203043 260.754445 
L 75.099834 245.69618 
L 80.945021 222.609781 
L 82.893417 215.350005 
L 84.841812 207.600592 
L 92.635395 173.6513 
L 94.583791 164.438248 
L 102.377373 125.09638 
L 106.274164 106.983868 
L 110.170956 89.893692 
L 114.067747 73.856915 
L 116.016143 66.32698 
L 117.964538 59.605918 
L 119.912934 53.914144 
L 121.86133 48.871109 
L 123.809725 44.306547 
L 125.758121 40.943246 
L 127.706516 38.85739 
L 129.654912 37.429036 
L 131.603308 36.516409 
L 133.551703 35.907227 
L 135.500099 35.468799 
L 137.448495 35.845833 
L 139.39689 37.478327 
L 141.345286 40.056468 
L 143.293682 43.113461 
L 145.242077 46.497757 
L 147.190473 50.442243 
L 149.138869 55.102901 
L 153.03566 65.665989 
L 158.880847 82.273969 
L 160.829242 88.691814 
L 172.519616 130.051896 
L 174.468012 136.249292 
L 178.364803 148.01303 
L 184.20999 166.255136 
L 188.106781 177.772372 
L 192.003573 188.349586 
L 193.951968 193.402852 
L 195.900364 198.038206 
L 203.693946 215.057645 
L 205.642342 219.108028 
L 207.590738 222.849146 
L 213.435925 232.731924 
L 215.38432 235.969834 
L 219.281112 241.890452 
L 221.229507 244.621508 
L 223.177903 246.950198 
L 232.919881 257.148944 
L 234.868277 258.977538 
L 238.765068 262.159895 
L 240.713464 263.501235 
L 246.558651 266.847128 
L 250.455442 269.165555 
L 260.19742 273.97318 
L 264.094211 275.299155 
L 271.887794 277.697444 
L 277.732981 279.06894 
L 281.629772 279.712467 
L 285.526563 280.350954 
L 287.474959 280.767889 
L 291.37175 281.260883 
L 297.216937 281.937915 
L 303.062124 282.493622 
L 314.752498 283.30385 
L 332.288059 284.131958 
L 338.133246 284.238366 
L 353.720411 284.547213 
L 382.946345 284.827011 
L 456.6275 284.978549 
L 456.6275 284.978549 
" style="fill:none;stroke:#4c72b0;stroke-linecap:square;stroke-width:1.75;"/>
   </g>
   <g id="patch_3">
    <path d="M 51.8275 285 
L 51.8275 13.2 
" style="fill:none;stroke:#000000;stroke-linecap:square;stroke-linejoin:miter;stroke-width:0.8;"/>
   </g>
   <g id="patch_4">
    <path d="M 51.8275 285 
L 442.4275 285 
" style="fill:none;stroke:#000000;stroke-linecap:square;stroke-linejoin:miter;stroke-width:0.8;"/>
   </g>
  </g>
 </g>
 <defs>
  <clipPath id="pe81b613971">
   <rect height="271.8" width="390.6" x="51.8275" y="13.2"/>
  </clipPath>
 </defs>
</svg>
