<?xml version="1.0" encoding="utf-8" standalone="no"?>
<!DOCTYPE svg PUBLIC "-//W3C//DTD SVG 1.1//EN"
  "http://www.w3.org/Graphics/SVG/1.1/DTD/svg11.dtd">
<!-- Created with matplotlib (http://matplotlib.org/) -->
<svg height="341pt" version="1.1" viewBox="0 0 455 341" width="455pt" xmlns="http://www.w3.org/2000/svg" xmlns:xlink="http://www.w3.org/1999/xlink">
 <defs>
  <style type="text/css">
*{stroke-linecap:butt;stroke-linejoin:round;}
  </style>
 </defs>
 <g id="figure_1">
  <g id="patch_1">
   <path d="M 0 341.137812 
L 455.6275 341.137812 
L 455.6275 0 
L 0 0 
z
" style="fill:#ffffff;"/>
  </g>
  <g id="axes_1">
   <g id="patch_2">
    <path d="M 51.8275 285 
L 442.4275 285 
L 442.4275 13.2 
L 51.8275 13.2 
z
" style="fill:#ffffff;"/>
   </g>
   <g id="PolyCollection_1">
    <path clip-path="url(#pd736c37631)" d="M 44.58965 284.999723 
L 44.58965 285 
L 45.997164 285 
L 47.404677 285 
L 48.812191 285 
L 50.219705 285 
L 51.627218 285 
L 53.034732 285 
L 54.442246 285 
L 55.849759 285 
L 57.257273 285 
L 58.664787 285 
L 60.0723 285 
L 61.479814 285 
L 62.887328 285 
L 64.294841 285 
L 65.702355 285 
L 67.109869 285 
L 68.517382 285 
L 69.924896 285 
L 71.33241 285 
L 72.739923 285 
L 74.147437 285 
L 75.554951 285 
L 76.962464 285 
L 78.369978 285 
L 79.777492 285 
L 81.185005 285 
L 82.592519 285 
L 84.000033 285 
L 85.407546 285 
L 86.81506 285 
L 88.222574 285 
L 89.630087 285 
L 91.037601 285 
L 92.445115 285 
L 93.852628 285 
L 95.260142 285 
L 96.667656 285 
L 98.075169 285 
L 99.482683 285 
L 100.890197 285 
L 102.29771 285 
L 103.705224 285 
L 105.112738 285 
L 106.520251 285 
L 107.927765 285 
L 109.335279 285 
L 110.742792 285 
L 112.150306 285 
L 113.55782 285 
L 114.965333 285 
L 116.372847 285 
L 117.780361 285 
L 119.187874 285 
L 120.595388 285 
L 122.002902 285 
L 123.410415 285 
L 124.817929 285 
L 126.225443 285 
L 127.632956 285 
L 129.04047 285 
L 130.447984 285 
L 131.855497 285 
L 133.263011 285 
L 134.670525 285 
L 136.078038 285 
L 137.485552 285 
L 138.893066 285 
L 140.300579 285 
L 141.708093 285 
L 143.115607 285 
L 144.52312 285 
L 145.930634 285 
L 147.338148 285 
L 148.745661 285 
L 150.153175 285 
L 151.560689 285 
L 152.968202 285 
L 154.375716 285 
L 155.78323 285 
L 157.190743 285 
L 158.598257 285 
L 160.005771 285 
L 161.413285 285 
L 162.820798 285 
L 164.228312 285 
L 165.635826 285 
L 167.043339 285 
L 168.450853 285 
L 169.858367 285 
L 171.26588 285 
L 172.673394 285 
L 174.080908 285 
L 175.488421 285 
L 176.895935 285 
L 178.303449 285 
L 179.710962 285 
L 181.118476 285 
L 182.52599 285 
L 183.933503 285 
L 185.341017 285 
L 186.748531 285 
L 188.156044 285 
L 189.563558 285 
L 190.971072 285 
L 192.378585 285 
L 193.786099 285 
L 195.193613 285 
L 196.601126 285 
L 198.00864 285 
L 199.416154 285 
L 200.823667 285 
L 202.231181 285 
L 203.638695 285 
L 205.046208 285 
L 206.453722 285 
L 207.861236 285 
L 209.268749 285 
L 210.676263 285 
L 212.083777 285 
L 213.49129 285 
L 214.898804 285 
L 216.306318 285 
L 217.713831 285 
L 219.121345 285 
L 220.528859 285 
L 221.936372 285 
L 223.343886 285 
L 224.7514 285 
L 226.158913 285 
L 227.566427 285 
L 228.973941 285 
L 230.381454 285 
L 231.788968 285 
L 233.196482 285 
L 234.603995 285 
L 236.011509 285 
L 237.419023 285 
L 238.826536 285 
L 240.23405 285 
L 241.641564 285 
L 243.049077 285 
L 244.456591 285 
L 245.864105 285 
L 247.271618 285 
L 248.679132 285 
L 250.086646 285 
L 251.494159 285 
L 252.901673 285 
L 254.309187 285 
L 255.7167 285 
L 257.124214 285 
L 258.531728 285 
L 259.939241 285 
L 261.346755 285 
L 262.754269 285 
L 264.161782 285 
L 265.569296 285 
L 266.97681 285 
L 268.384323 285 
L 269.791837 285 
L 271.199351 285 
L 272.606864 285 
L 274.014378 285 
L 275.421892 285 
L 276.829405 285 
L 278.236919 285 
L 279.644433 285 
L 281.051946 285 
L 282.45946 285 
L 283.866974 285 
L 285.274487 285 
L 286.682001 285 
L 288.089515 285 
L 289.497028 285 
L 290.904542 285 
L 292.312056 285 
L 293.719569 285 
L 295.127083 285 
L 296.534597 285 
L 297.94211 285 
L 299.349624 285 
L 300.757138 285 
L 302.164651 285 
L 303.572165 285 
L 304.979679 285 
L 306.387192 285 
L 307.794706 285 
L 309.20222 285 
L 310.609733 285 
L 312.017247 285 
L 313.424761 285 
L 314.832274 285 
L 316.239788 285 
L 317.647302 285 
L 319.054815 285 
L 320.462329 285 
L 321.869843 285 
L 323.277356 285 
L 324.68487 285 
L 326.092384 285 
L 327.499897 285 
L 328.907411 285 
L 330.314925 285 
L 331.722438 285 
L 333.129952 285 
L 334.537466 285 
L 335.944979 285 
L 337.352493 285 
L 338.760007 285 
L 340.16752 285 
L 341.575034 285 
L 342.982548 285 
L 344.390061 285 
L 345.797575 285 
L 347.205089 285 
L 348.612602 285 
L 350.020116 285 
L 351.42763 285 
L 352.835143 285 
L 354.242657 285 
L 355.650171 285 
L 357.057684 285 
L 358.465198 285 
L 359.872712 285 
L 361.280225 285 
L 362.687739 285 
L 364.095253 285 
L 365.502766 285 
L 366.91028 285 
L 368.317794 285 
L 369.725308 285 
L 371.132821 285 
L 372.540335 285 
L 373.947849 285 
L 375.355362 285 
L 376.762876 285 
L 378.17039 285 
L 379.577903 285 
L 380.985417 285 
L 382.392931 285 
L 383.800444 285 
L 385.207958 285 
L 386.615472 285 
L 388.022985 285 
L 389.430499 285 
L 390.838013 285 
L 392.245526 285 
L 393.65304 285 
L 395.060554 285 
L 396.468067 285 
L 397.875581 285 
L 399.283095 285 
L 400.690608 285 
L 402.098122 285 
L 403.505636 285 
L 404.913149 285 
L 406.320663 285 
L 407.728177 285 
L 409.13569 285 
L 410.543204 285 
L 411.950718 285 
L 413.358231 285 
L 414.765745 285 
L 416.173259 285 
L 417.580772 285 
L 418.988286 285 
L 420.3958 285 
L 421.803313 285 
L 423.210827 285 
L 424.618341 285 
L 426.025854 285 
L 427.433368 285 
L 428.840882 285 
L 430.248395 285 
L 431.655909 285 
L 433.063423 285 
L 434.470936 285 
L 435.87845 285 
L 437.285964 285 
L 438.693477 285 
L 440.100991 285 
L 441.508505 285 
L 442.916018 285 
L 444.323532 285 
L 445.731046 285 
L 447.138559 285 
L 448.546073 285 
L 449.953587 285 
L 451.3611 285 
L 452.768614 285 
L 454.176128 285 
L 455.583641 285 
L 456.991155 285 
L 458.398669 285 
L 459.806182 285 
L 461.213696 285 
L 462.62121 285 
L 464.028723 285 
L 465.436237 285 
L 465.436237 284.999928 
L 465.436237 284.999928 
L 464.028723 284.999816 
L 462.62121 284.999578 
L 461.213696 284.999133 
L 459.806182 284.998403 
L 458.398669 284.997367 
L 456.991155 284.996111 
L 455.583641 284.994855 
L 454.176128 284.993896 
L 452.768614 284.993488 
L 451.3611 284.993711 
L 449.953587 284.994404 
L 448.546073 284.995218 
L 447.138559 284.995767 
L 445.731046 284.995786 
L 444.323532 284.99524 
L 442.916018 284.99432 
L 441.508505 284.993343 
L 440.100991 284.992586 
L 438.693477 284.992165 
L 437.285964 284.992012 
L 435.87845 284.991976 
L 434.470936 284.99197 
L 433.063423 284.992033 
L 431.655909 284.992259 
L 430.248395 284.992644 
L 428.840882 284.992977 
L 427.433368 284.992863 
L 426.025854 284.991876 
L 424.618341 284.989717 
L 423.210827 284.986281 
L 421.803313 284.981564 
L 420.3958 284.975479 
L 418.988286 284.967718 
L 417.580772 284.957785 
L 416.173259 284.945241 
L 414.765745 284.930007 
L 413.358231 284.912492 
L 411.950718 284.89339 
L 410.543204 284.873217 
L 409.13569 284.851894 
L 407.728177 284.828683 
L 406.320663 284.802544 
L 404.913149 284.772667 
L 403.505636 284.738787 
L 402.098122 284.701126 
L 400.690608 284.66003 
L 399.283095 284.615552 
L 397.875581 284.567176 
L 396.468067 284.513805 
L 395.060554 284.45401 
L 393.65304 284.386452 
L 392.245526 284.310197 
L 390.838013 284.224666 
L 389.430499 284.129194 
L 388.022985 284.022716 
L 386.615472 283.904211 
L 385.207958 283.774044 
L 383.800444 283.635332 
L 382.392931 283.494003 
L 380.985417 283.356987 
L 379.577903 283.229453 
L 378.17039 283.112962 
L 376.762876 283.005635 
L 375.355362 282.903929 
L 373.947849 282.804522 
L 372.540335 282.705162 
L 371.132821 282.604372 
L 369.725308 282.500559 
L 368.317794 282.391299 
L 366.91028 282.27332 
L 365.502766 282.14336 
L 364.095253 281.999438 
L 362.687739 281.841634 
L 361.280225 281.671734 
L 359.872712 281.492157 
L 358.465198 281.305184 
L 357.057684 281.113099 
L 355.650171 280.918595 
L 354.242657 280.724289 
L 352.835143 280.531019 
L 351.42763 280.336059 
L 350.020116 280.132827 
L 348.612602 279.91263 
L 347.205089 279.667461 
L 345.797575 279.392346 
L 344.390061 279.086376 
L 342.982548 278.752431 
L 341.575034 278.395791 
L 340.16752 278.02189 
L 338.760007 277.633931 
L 337.352493 277.231701 
L 335.944979 276.812456 
L 334.537466 276.372939 
L 333.129952 275.910305 
L 331.722438 275.420666 
L 330.314925 274.896813 
L 328.907411 274.328482 
L 327.499897 273.706903 
L 326.092384 273.031075 
L 324.68487 272.310346 
L 323.277356 271.559538 
L 321.869843 270.788298 
L 320.462329 269.991334 
L 319.054815 269.14679 
L 317.647302 268.225425 
L 316.239788 267.206273 
L 314.832274 266.089545 
L 313.424761 264.898498 
L 312.017247 263.66874 
L 310.609733 262.431298 
L 309.20222 261.199107 
L 307.794706 259.963276 
L 306.387192 258.699306 
L 304.979679 257.37898 
L 303.572165 255.982624 
L 302.164651 254.506992 
L 300.757138 252.965238 
L 299.349624 251.378431 
L 297.94211 249.762875 
L 296.534597 248.120769 
L 295.127083 246.439473 
L 293.719569 244.698133 
L 292.312056 242.875608 
L 290.904542 240.955078 
L 289.497028 238.926139 
L 288.089515 236.78811 
L 286.682001 234.555494 
L 285.274487 232.261321 
L 283.866974 229.9527 
L 282.45946 227.677316 
L 281.051946 225.466284 
L 279.644433 223.322352 
L 278.236919 221.220261 
L 276.829405 219.119626 
L 275.421892 216.983877 
L 274.014378 214.795785 
L 272.606864 212.56272 
L 271.199351 210.311096 
L 269.791837 208.074859 
L 268.384323 205.883906 
L 266.97681 203.755712 
L 265.569296 201.690656 
L 264.161782 199.671203 
L 262.754269 197.665904 
L 261.346755 195.638403 
L 259.939241 193.558647 
L 258.531728 191.41114 
L 257.124214 189.196489 
L 255.7167 186.926789 
L 254.309187 184.61888 
L 252.901673 182.28926 
L 251.494159 179.951832 
L 250.086646 177.617787 
L 248.679132 175.297124 
L 247.271618 173.00133 
L 245.864105 170.745307 
L 244.456591 168.545426 
L 243.049077 166.412788 
L 241.641564 164.345622 
L 240.23405 162.327367 
L 238.826536 160.333629 
L 237.419023 158.343778 
L 236.011509 156.348192 
L 234.603995 154.344903 
L 233.196482 152.327955 
L 231.788968 150.276892 
L 230.381454 148.156166 
L 228.973941 145.925554 
L 227.566427 143.554389 
L 226.158913 141.030359 
L 224.7514 138.358816 
L 223.343886 135.556059 
L 221.936372 132.643347 
L 220.528859 129.645156 
L 219.121345 126.589106 
L 217.713831 123.502459 
L 216.306318 120.404009 
L 214.898804 117.296923 
L 213.49129 114.170618 
L 212.083777 111.014314 
L 210.676263 107.834911 
L 209.268749 104.665876 
L 207.861236 101.558099 
L 206.453722 98.556439 
L 205.046208 95.677133 
L 203.638695 92.901734 
L 202.231181 90.191594 
L 200.823667 87.512444 
L 199.416154 84.852764 
L 198.00864 82.225837 
L 196.601126 79.657223 
L 195.193613 77.167706 
L 193.786099 74.762354 
L 192.378585 72.43094 
L 190.971072 70.158305 
L 189.563558 67.938877 
L 188.156044 65.788623 
L 186.748531 63.749346 
L 185.341017 61.883177 
L 183.933503 60.259087 
L 182.52599 58.937332 
L 181.118476 57.95919 
L 179.710962 57.345267 
L 178.303449 57.097958 
L 176.895935 57.199792 
L 175.488421 57.605374 
L 174.080908 58.235997 
L 172.673394 58.990234 
L 171.26588 59.773695 
L 169.858367 60.534531 
L 168.450853 61.283873 
L 167.043339 62.089251 
L 165.635826 63.046004 
L 164.228312 64.24317 
L 162.820798 65.739625 
L 161.413285 67.556904 
L 160.005771 69.68496 
L 158.598257 72.092614 
L 157.190743 74.73683 
L 155.78323 77.570552 
L 154.375716 80.551582 
L 152.968202 83.65235 
L 151.560689 86.865818 
L 150.153175 90.202015 
L 148.745661 93.674921 
L 147.338148 97.286481 
L 145.930634 101.017329 
L 144.52312 104.830001 
L 143.115607 108.683307 
L 141.708093 112.550643 
L 140.300579 116.432823 
L 138.893066 120.358133 
L 137.485552 124.368791 
L 136.078038 128.501388 
L 134.670525 132.773071 
L 133.263011 137.180364 
L 131.855497 141.706862 
L 130.447984 146.329218 
L 129.04047 151.014894 
L 127.632956 155.716188 
L 126.225443 160.372211 
L 124.817929 164.925852 
L 123.410415 169.349115 
L 122.002902 173.658951 
L 120.595388 177.908082 
L 119.187874 182.151925 
L 117.780361 186.411474 
L 116.372847 190.656644 
L 114.965333 194.820332 
L 113.55782 198.831904 
L 112.150306 202.647785 
L 110.742792 206.263295 
L 109.335279 209.705298 
L 107.927765 213.01591 
L 106.520251 216.237355 
L 105.112738 219.401623 
L 103.705224 222.523866 
L 102.29771 225.598935 
L 100.890197 228.603136 
L 99.482683 231.503097 
L 98.075169 234.269381 
L 96.667656 236.888255 
L 95.260142 239.365773 
L 93.852628 241.723853 
L 92.445115 243.992785 
L 91.037601 246.20448 
L 89.630087 248.38723 
L 88.222574 250.560759 
L 86.81506 252.731617 
L 85.407546 254.891085 
L 84.000033 257.017731 
L 82.592519 259.084626 
L 81.185005 261.069127 
L 79.777492 262.962199 
L 78.369978 264.77407 
L 76.962464 266.533281 
L 75.554951 268.277656 
L 74.147437 270.03895 
L 72.739923 271.827081 
L 71.33241 273.621905 
L 69.924896 275.377819 
L 68.517382 277.03945 
L 67.109869 278.559951 
L 65.702355 279.912017 
L 64.294841 281.087308 
L 62.887328 282.087962 
L 61.479814 282.918272 
L 60.0723 283.5823 
L 58.664787 284.087242 
L 57.257273 284.44786 
L 55.849759 284.687539 
L 54.442246 284.83497 
L 53.034732 284.918704 
L 51.627218 284.962626 
L 50.219705 284.983946 
L 48.812191 284.993551 
L 47.404677 284.997577 
L 45.997164 284.99915 
L 44.58965 284.999723 
z
" style="fill:#4c72b0;fill-opacity:0.1;"/>
   </g>
   <g id="matplotlib.axis_1">
    <g id="xtick_1">
     <g id="line2d_1">
      <defs>
       <path d="M 0 0 
L 0 6 
" id="m97f0b642f9" style="stroke:#262626;"/>
      </defs>
      <g>
       <use style="fill:#262626;stroke:#262626;" x="51.8275" xlink:href="#m97f0b642f9" y="285"/>
      </g>
     </g>
     <g id="text_1">
      <!-- 0.0 -->
      <defs>
       <path d="M 31.78125 66.40625 
Q 24.171875 66.40625 20.328125 58.90625 
Q 16.5 51.421875 16.5 36.375 
Q 16.5 21.390625 20.328125 13.890625 
Q 24.171875 6.390625 31.78125 6.390625 
Q 39.453125 6.390625 43.28125 13.890625 
Q 47.125 21.390625 47.125 36.375 
Q 47.125 51.421875 43.28125 58.90625 
Q 39.453125 66.40625 31.78125 66.40625 
z
M 31.78125 74.21875 
Q 44.046875 74.21875 50.515625 64.515625 
Q 56.984375 54.828125 56.984375 36.375 
Q 56.984375 17.96875 50.515625 8.265625 
Q 44.046875 -1.421875 31.78125 -1.421875 
Q 19.53125 -1.421875 13.0625 8.265625 
Q 6.59375 17.96875 6.59375 36.375 
Q 6.59375 54.828125 13.0625 64.515625 
Q 19.53125 74.21875 31.78125 74.21875 
z
" id="DejaVuSans-30"/>
       <path d="M 10.6875 12.40625 
L 21 12.40625 
L 21 0 
L 10.6875 0 
z
" id="DejaVuSans-2e"/>
      </defs>
      <g style="fill:#262626;" transform="translate(41.490469 307.877969)scale(0.13 -0.13)">
       <use xlink:href="#DejaVuSans-30"/>
       <use x="63.623047" xlink:href="#DejaVuSans-2e"/>
       <use x="95.410156" xlink:href="#DejaVuSans-30"/>
      </g>
     </g>
    </g>
    <g id="xtick_2">
     <g id="line2d_2">
      <g>
       <use style="fill:#262626;stroke:#262626;" x="111.919808" xlink:href="#m97f0b642f9" y="285"/>
      </g>
     </g>
     <g id="text_2">
      <!-- 0.1 -->
      <defs>
       <path d="M 12.40625 8.296875 
L 28.515625 8.296875 
L 28.515625 63.921875 
L 10.984375 60.40625 
L 10.984375 69.390625 
L 28.421875 72.90625 
L 38.28125 72.90625 
L 38.28125 8.296875 
L 54.390625 8.296875 
L 54.390625 0 
L 12.40625 0 
z
" id="DejaVuSans-31"/>
      </defs>
      <g style="fill:#262626;" transform="translate(101.582776 307.877969)scale(0.13 -0.13)">
       <use xlink:href="#DejaVuSans-30"/>
       <use x="63.623047" xlink:href="#DejaVuSans-2e"/>
       <use x="95.410156" xlink:href="#DejaVuSans-31"/>
      </g>
     </g>
    </g>
    <g id="xtick_3">
     <g id="line2d_3">
      <g>
       <use style="fill:#262626;stroke:#262626;" x="172.012115" xlink:href="#m97f0b642f9" y="285"/>
      </g>
     </g>
     <g id="text_3">
      <!-- 0.2 -->
      <defs>
       <path d="M 19.1875 8.296875 
L 53.609375 8.296875 
L 53.609375 0 
L 7.328125 0 
L 7.328125 8.296875 
Q 12.9375 14.109375 22.625 23.890625 
Q 32.328125 33.6875 34.8125 36.53125 
Q 39.546875 41.84375 41.421875 45.53125 
Q 43.3125 49.21875 43.3125 52.78125 
Q 43.3125 58.59375 39.234375 62.25 
Q 35.15625 65.921875 28.609375 65.921875 
Q 23.96875 65.921875 18.8125 64.3125 
Q 13.671875 62.703125 7.8125 59.421875 
L 7.8125 69.390625 
Q 13.765625 71.78125 18.9375 73 
Q 24.125 74.21875 28.421875 74.21875 
Q 39.75 74.21875 46.484375 68.546875 
Q 53.21875 62.890625 53.21875 53.421875 
Q 53.21875 48.921875 51.53125 44.890625 
Q 49.859375 40.875 45.40625 35.40625 
Q 44.1875 33.984375 37.640625 27.21875 
Q 31.109375 20.453125 19.1875 8.296875 
z
" id="DejaVuSans-32"/>
      </defs>
      <g style="fill:#262626;" transform="translate(161.675084 307.877969)scale(0.13 -0.13)">
       <use xlink:href="#DejaVuSans-30"/>
       <use x="63.623047" xlink:href="#DejaVuSans-2e"/>
       <use x="95.410156" xlink:href="#DejaVuSans-32"/>
      </g>
     </g>
    </g>
    <g id="xtick_4">
     <g id="line2d_4">
      <g>
       <use style="fill:#262626;stroke:#262626;" x="232.104423" xlink:href="#m97f0b642f9" y="285"/>
      </g>
     </g>
     <g id="text_4">
      <!-- 0.3 -->
      <defs>
       <path d="M 40.578125 39.3125 
Q 47.65625 37.796875 51.625 33 
Q 55.609375 28.21875 55.609375 21.1875 
Q 55.609375 10.40625 48.1875 4.484375 
Q 40.765625 -1.421875 27.09375 -1.421875 
Q 22.515625 -1.421875 17.65625 -0.515625 
Q 12.796875 0.390625 7.625 2.203125 
L 7.625 11.71875 
Q 11.71875 9.328125 16.59375 8.109375 
Q 21.484375 6.890625 26.8125 6.890625 
Q 36.078125 6.890625 40.9375 10.546875 
Q 45.796875 14.203125 45.796875 21.1875 
Q 45.796875 27.640625 41.28125 31.265625 
Q 36.765625 34.90625 28.71875 34.90625 
L 20.21875 34.90625 
L 20.21875 43.015625 
L 29.109375 43.015625 
Q 36.375 43.015625 40.234375 45.921875 
Q 44.09375 48.828125 44.09375 54.296875 
Q 44.09375 59.90625 40.109375 62.90625 
Q 36.140625 65.921875 28.71875 65.921875 
Q 24.65625 65.921875 20.015625 65.03125 
Q 15.375 64.15625 9.8125 62.3125 
L 9.8125 71.09375 
Q 15.4375 72.65625 20.34375 73.4375 
Q 25.25 74.21875 29.59375 74.21875 
Q 40.828125 74.21875 47.359375 69.109375 
Q 53.90625 64.015625 53.90625 55.328125 
Q 53.90625 49.265625 50.4375 45.09375 
Q 46.96875 40.921875 40.578125 39.3125 
z
" id="DejaVuSans-33"/>
      </defs>
      <g style="fill:#262626;" transform="translate(221.767392 307.877969)scale(0.13 -0.13)">
       <use xlink:href="#DejaVuSans-30"/>
       <use x="63.623047" xlink:href="#DejaVuSans-2e"/>
       <use x="95.410156" xlink:href="#DejaVuSans-33"/>
      </g>
     </g>
    </g>
    <g id="xtick_5">
     <g id="line2d_5">
      <g>
       <use style="fill:#262626;stroke:#262626;" x="292.196731" xlink:href="#m97f0b642f9" y="285"/>
      </g>
     </g>
     <g id="text_5">
      <!-- 0.4 -->
      <defs>
       <path d="M 37.796875 64.3125 
L 12.890625 25.390625 
L 37.796875 25.390625 
z
M 35.203125 72.90625 
L 47.609375 72.90625 
L 47.609375 25.390625 
L 58.015625 25.390625 
L 58.015625 17.1875 
L 47.609375 17.1875 
L 47.609375 0 
L 37.796875 0 
L 37.796875 17.1875 
L 4.890625 17.1875 
L 4.890625 26.703125 
z
" id="DejaVuSans-34"/>
      </defs>
      <g style="fill:#262626;" transform="translate(281.8597 307.877969)scale(0.13 -0.13)">
       <use xlink:href="#DejaVuSans-30"/>
       <use x="63.623047" xlink:href="#DejaVuSans-2e"/>
       <use x="95.410156" xlink:href="#DejaVuSans-34"/>
      </g>
     </g>
    </g>
    <g id="xtick_6">
     <g id="line2d_6">
      <g>
       <use style="fill:#262626;stroke:#262626;" x="352.289038" xlink:href="#m97f0b642f9" y="285"/>
      </g>
     </g>
     <g id="text_6">
      <!-- 0.5 -->
      <defs>
       <path d="M 10.796875 72.90625 
L 49.515625 72.90625 
L 49.515625 64.59375 
L 19.828125 64.59375 
L 19.828125 46.734375 
Q 21.96875 47.46875 24.109375 47.828125 
Q 26.265625 48.1875 28.421875 48.1875 
Q 40.625 48.1875 47.75 41.5 
Q 54.890625 34.8125 54.890625 23.390625 
Q 54.890625 11.625 47.5625 5.09375 
Q 40.234375 -1.421875 26.90625 -1.421875 
Q 22.3125 -1.421875 17.546875 -0.640625 
Q 12.796875 0.140625 7.71875 1.703125 
L 7.71875 11.625 
Q 12.109375 9.234375 16.796875 8.0625 
Q 21.484375 6.890625 26.703125 6.890625 
Q 35.15625 6.890625 40.078125 11.328125 
Q 45.015625 15.765625 45.015625 23.390625 
Q 45.015625 31 40.078125 35.4375 
Q 35.15625 39.890625 26.703125 39.890625 
Q 22.75 39.890625 18.8125 39.015625 
Q 14.890625 38.140625 10.796875 36.28125 
z
" id="DejaVuSans-35"/>
      </defs>
      <g style="fill:#262626;" transform="translate(341.952007 307.877969)scale(0.13 -0.13)">
       <use xlink:href="#DejaVuSans-30"/>
       <use x="63.623047" xlink:href="#DejaVuSans-2e"/>
       <use x="95.410156" xlink:href="#DejaVuSans-35"/>
      </g>
     </g>
    </g>
    <g id="xtick_7">
     <g id="line2d_7">
      <g>
       <use style="fill:#262626;stroke:#262626;" x="412.381346" xlink:href="#m97f0b642f9" y="285"/>
      </g>
     </g>
     <g id="text_7">
      <!-- 0.6 -->
      <defs>
       <path d="M 33.015625 40.375 
Q 26.375 40.375 22.484375 35.828125 
Q 18.609375 31.296875 18.609375 23.390625 
Q 18.609375 15.53125 22.484375 10.953125 
Q 26.375 6.390625 33.015625 6.390625 
Q 39.65625 6.390625 43.53125 10.953125 
Q 47.40625 15.53125 47.40625 23.390625 
Q 47.40625 31.296875 43.53125 35.828125 
Q 39.65625 40.375 33.015625 40.375 
z
M 52.59375 71.296875 
L 52.59375 62.3125 
Q 48.875 64.0625 45.09375 64.984375 
Q 41.3125 65.921875 37.59375 65.921875 
Q 27.828125 65.921875 22.671875 59.328125 
Q 17.53125 52.734375 16.796875 39.40625 
Q 19.671875 43.65625 24.015625 45.921875 
Q 28.375 48.1875 33.59375 48.1875 
Q 44.578125 48.1875 50.953125 41.515625 
Q 57.328125 34.859375 57.328125 23.390625 
Q 57.328125 12.15625 50.6875 5.359375 
Q 44.046875 -1.421875 33.015625 -1.421875 
Q 20.359375 -1.421875 13.671875 8.265625 
Q 6.984375 17.96875 6.984375 36.375 
Q 6.984375 53.65625 15.1875 63.9375 
Q 23.390625 74.21875 37.203125 74.21875 
Q 40.921875 74.21875 44.703125 73.484375 
Q 48.484375 72.75 52.59375 71.296875 
z
" id="DejaVuSans-36"/>
      </defs>
      <g style="fill:#262626;" transform="translate(402.044315 307.877969)scale(0.13 -0.13)">
       <use xlink:href="#DejaVuSans-30"/>
       <use x="63.623047" xlink:href="#DejaVuSans-2e"/>
       <use x="95.410156" xlink:href="#DejaVuSans-36"/>
      </g>
     </g>
    </g>
    <g id="text_8">
     <!-- Document Similarity -->
     <defs>
      <path d="M 19.671875 64.796875 
L 19.671875 8.109375 
L 31.59375 8.109375 
Q 46.6875 8.109375 53.6875 14.9375 
Q 60.6875 21.78125 60.6875 36.53125 
Q 60.6875 51.171875 53.6875 57.984375 
Q 46.6875 64.796875 31.59375 64.796875 
z
M 9.8125 72.90625 
L 30.078125 72.90625 
Q 51.265625 72.90625 61.171875 64.09375 
Q 71.09375 55.28125 71.09375 36.53125 
Q 71.09375 17.671875 61.125 8.828125 
Q 51.171875 0 30.078125 0 
L 9.8125 0 
z
" id="DejaVuSans-44"/>
      <path d="M 30.609375 48.390625 
Q 23.390625 48.390625 19.1875 42.75 
Q 14.984375 37.109375 14.984375 27.296875 
Q 14.984375 17.484375 19.15625 11.84375 
Q 23.34375 6.203125 30.609375 6.203125 
Q 37.796875 6.203125 41.984375 11.859375 
Q 46.1875 17.53125 46.1875 27.296875 
Q 46.1875 37.015625 41.984375 42.703125 
Q 37.796875 48.390625 30.609375 48.390625 
z
M 30.609375 56 
Q 42.328125 56 49.015625 48.375 
Q 55.71875 40.765625 55.71875 27.296875 
Q 55.71875 13.875 49.015625 6.21875 
Q 42.328125 -1.421875 30.609375 -1.421875 
Q 18.84375 -1.421875 12.171875 6.21875 
Q 5.515625 13.875 5.515625 27.296875 
Q 5.515625 40.765625 12.171875 48.375 
Q 18.84375 56 30.609375 56 
z
" id="DejaVuSans-6f"/>
      <path d="M 48.78125 52.59375 
L 48.78125 44.1875 
Q 44.96875 46.296875 41.140625 47.34375 
Q 37.3125 48.390625 33.40625 48.390625 
Q 24.65625 48.390625 19.8125 42.84375 
Q 14.984375 37.3125 14.984375 27.296875 
Q 14.984375 17.28125 19.8125 11.734375 
Q 24.65625 6.203125 33.40625 6.203125 
Q 37.3125 6.203125 41.140625 7.25 
Q 44.96875 8.296875 48.78125 10.40625 
L 48.78125 2.09375 
Q 45.015625 0.34375 40.984375 -0.53125 
Q 36.96875 -1.421875 32.421875 -1.421875 
Q 20.0625 -1.421875 12.78125 6.34375 
Q 5.515625 14.109375 5.515625 27.296875 
Q 5.515625 40.671875 12.859375 48.328125 
Q 20.21875 56 33.015625 56 
Q 37.15625 56 41.109375 55.140625 
Q 45.0625 54.296875 48.78125 52.59375 
z
" id="DejaVuSans-63"/>
      <path d="M 8.5 21.578125 
L 8.5 54.6875 
L 17.484375 54.6875 
L 17.484375 21.921875 
Q 17.484375 14.15625 20.5 10.265625 
Q 23.53125 6.390625 29.59375 6.390625 
Q 36.859375 6.390625 41.078125 11.03125 
Q 45.3125 15.671875 45.3125 23.6875 
L 45.3125 54.6875 
L 54.296875 54.6875 
L 54.296875 0 
L 45.3125 0 
L 45.3125 8.40625 
Q 42.046875 3.421875 37.71875 1 
Q 33.40625 -1.421875 27.6875 -1.421875 
Q 18.265625 -1.421875 13.375 4.4375 
Q 8.5 10.296875 8.5 21.578125 
z
M 31.109375 56 
z
" id="DejaVuSans-75"/>
      <path d="M 52 44.1875 
Q 55.375 50.25 60.0625 53.125 
Q 64.75 56 71.09375 56 
Q 79.640625 56 84.28125 50.015625 
Q 88.921875 44.046875 88.921875 33.015625 
L 88.921875 0 
L 79.890625 0 
L 79.890625 32.71875 
Q 79.890625 40.578125 77.09375 44.375 
Q 74.3125 48.1875 68.609375 48.1875 
Q 61.625 48.1875 57.5625 43.546875 
Q 53.515625 38.921875 53.515625 30.90625 
L 53.515625 0 
L 44.484375 0 
L 44.484375 32.71875 
Q 44.484375 40.625 41.703125 44.40625 
Q 38.921875 48.1875 33.109375 48.1875 
Q 26.21875 48.1875 22.15625 43.53125 
Q 18.109375 38.875 18.109375 30.90625 
L 18.109375 0 
L 9.078125 0 
L 9.078125 54.6875 
L 18.109375 54.6875 
L 18.109375 46.1875 
Q 21.1875 51.21875 25.484375 53.609375 
Q 29.78125 56 35.6875 56 
Q 41.65625 56 45.828125 52.96875 
Q 50 49.953125 52 44.1875 
z
" id="DejaVuSans-6d"/>
      <path d="M 56.203125 29.59375 
L 56.203125 25.203125 
L 14.890625 25.203125 
Q 15.484375 15.921875 20.484375 11.0625 
Q 25.484375 6.203125 34.421875 6.203125 
Q 39.59375 6.203125 44.453125 7.46875 
Q 49.3125 8.734375 54.109375 11.28125 
L 54.109375 2.78125 
Q 49.265625 0.734375 44.1875 -0.34375 
Q 39.109375 -1.421875 33.890625 -1.421875 
Q 20.796875 -1.421875 13.15625 6.1875 
Q 5.515625 13.8125 5.515625 26.8125 
Q 5.515625 40.234375 12.765625 48.109375 
Q 20.015625 56 32.328125 56 
Q 43.359375 56 49.78125 48.890625 
Q 56.203125 41.796875 56.203125 29.59375 
z
M 47.21875 32.234375 
Q 47.125 39.59375 43.09375 43.984375 
Q 39.0625 48.390625 32.421875 48.390625 
Q 24.90625 48.390625 20.390625 44.140625 
Q 15.875 39.890625 15.1875 32.171875 
z
" id="DejaVuSans-65"/>
      <path d="M 54.890625 33.015625 
L 54.890625 0 
L 45.90625 0 
L 45.90625 32.71875 
Q 45.90625 40.484375 42.875 44.328125 
Q 39.84375 48.1875 33.796875 48.1875 
Q 26.515625 48.1875 22.3125 43.546875 
Q 18.109375 38.921875 18.109375 30.90625 
L 18.109375 0 
L 9.078125 0 
L 9.078125 54.6875 
L 18.109375 54.6875 
L 18.109375 46.1875 
Q 21.34375 51.125 25.703125 53.5625 
Q 30.078125 56 35.796875 56 
Q 45.21875 56 50.046875 50.171875 
Q 54.890625 44.34375 54.890625 33.015625 
z
" id="DejaVuSans-6e"/>
      <path d="M 18.3125 70.21875 
L 18.3125 54.6875 
L 36.8125 54.6875 
L 36.8125 47.703125 
L 18.3125 47.703125 
L 18.3125 18.015625 
Q 18.3125 11.328125 20.140625 9.421875 
Q 21.96875 7.515625 27.59375 7.515625 
L 36.8125 7.515625 
L 36.8125 0 
L 27.59375 0 
Q 17.1875 0 13.234375 3.875 
Q 9.28125 7.765625 9.28125 18.015625 
L 9.28125 47.703125 
L 2.6875 47.703125 
L 2.6875 54.6875 
L 9.28125 54.6875 
L 9.28125 70.21875 
z
" id="DejaVuSans-74"/>
      <path id="DejaVuSans-20"/>
      <path d="M 53.515625 70.515625 
L 53.515625 60.890625 
Q 47.90625 63.578125 42.921875 64.890625 
Q 37.9375 66.21875 33.296875 66.21875 
Q 25.25 66.21875 20.875 63.09375 
Q 16.5 59.96875 16.5 54.203125 
Q 16.5 49.359375 19.40625 46.890625 
Q 22.3125 44.4375 30.421875 42.921875 
L 36.375 41.703125 
Q 47.40625 39.59375 52.65625 34.296875 
Q 57.90625 29 57.90625 20.125 
Q 57.90625 9.515625 50.796875 4.046875 
Q 43.703125 -1.421875 29.984375 -1.421875 
Q 24.8125 -1.421875 18.96875 -0.25 
Q 13.140625 0.921875 6.890625 3.21875 
L 6.890625 13.375 
Q 12.890625 10.015625 18.65625 8.296875 
Q 24.421875 6.59375 29.984375 6.59375 
Q 38.421875 6.59375 43.015625 9.90625 
Q 47.609375 13.234375 47.609375 19.390625 
Q 47.609375 24.75 44.3125 27.78125 
Q 41.015625 30.8125 33.5 32.328125 
L 27.484375 33.5 
Q 16.453125 35.6875 11.515625 40.375 
Q 6.59375 45.0625 6.59375 53.421875 
Q 6.59375 63.09375 13.40625 68.65625 
Q 20.21875 74.21875 32.171875 74.21875 
Q 37.3125 74.21875 42.625 73.28125 
Q 47.953125 72.359375 53.515625 70.515625 
z
" id="DejaVuSans-53"/>
      <path d="M 9.421875 54.6875 
L 18.40625 54.6875 
L 18.40625 0 
L 9.421875 0 
z
M 9.421875 75.984375 
L 18.40625 75.984375 
L 18.40625 64.59375 
L 9.421875 64.59375 
z
" id="DejaVuSans-69"/>
      <path d="M 9.421875 75.984375 
L 18.40625 75.984375 
L 18.40625 0 
L 9.421875 0 
z
" id="DejaVuSans-6c"/>
      <path d="M 34.28125 27.484375 
Q 23.390625 27.484375 19.1875 25 
Q 14.984375 22.515625 14.984375 16.5 
Q 14.984375 11.71875 18.140625 8.90625 
Q 21.296875 6.109375 26.703125 6.109375 
Q 34.1875 6.109375 38.703125 11.40625 
Q 43.21875 16.703125 43.21875 25.484375 
L 43.21875 27.484375 
z
M 52.203125 31.203125 
L 52.203125 0 
L 43.21875 0 
L 43.21875 8.296875 
Q 40.140625 3.328125 35.546875 0.953125 
Q 30.953125 -1.421875 24.3125 -1.421875 
Q 15.921875 -1.421875 10.953125 3.296875 
Q 6 8.015625 6 15.921875 
Q 6 25.140625 12.171875 29.828125 
Q 18.359375 34.515625 30.609375 34.515625 
L 43.21875 34.515625 
L 43.21875 35.40625 
Q 43.21875 41.609375 39.140625 45 
Q 35.0625 48.390625 27.6875 48.390625 
Q 23 48.390625 18.546875 47.265625 
Q 14.109375 46.140625 10.015625 43.890625 
L 10.015625 52.203125 
Q 14.9375 54.109375 19.578125 55.046875 
Q 24.21875 56 28.609375 56 
Q 40.484375 56 46.34375 49.84375 
Q 52.203125 43.703125 52.203125 31.203125 
z
" id="DejaVuSans-61"/>
      <path d="M 41.109375 46.296875 
Q 39.59375 47.171875 37.8125 47.578125 
Q 36.03125 48 33.890625 48 
Q 26.265625 48 22.1875 43.046875 
Q 18.109375 38.09375 18.109375 28.8125 
L 18.109375 0 
L 9.078125 0 
L 9.078125 54.6875 
L 18.109375 54.6875 
L 18.109375 46.1875 
Q 20.953125 51.171875 25.484375 53.578125 
Q 30.03125 56 36.53125 56 
Q 37.453125 56 38.578125 55.875 
Q 39.703125 55.765625 41.0625 55.515625 
z
" id="DejaVuSans-72"/>
      <path d="M 32.171875 -5.078125 
Q 28.375 -14.84375 24.75 -17.8125 
Q 21.140625 -20.796875 15.09375 -20.796875 
L 7.90625 -20.796875 
L 7.90625 -13.28125 
L 13.1875 -13.28125 
Q 16.890625 -13.28125 18.9375 -11.515625 
Q 21 -9.765625 23.484375 -3.21875 
L 25.09375 0.875 
L 2.984375 54.6875 
L 12.5 54.6875 
L 29.59375 11.921875 
L 46.6875 54.6875 
L 56.203125 54.6875 
z
" id="DejaVuSans-79"/>
     </defs>
     <g style="fill:#262626;" transform="translate(144.863438 329.778437)scale(0.2 -0.2)">
      <use xlink:href="#DejaVuSans-44"/>
      <use x="77.001953" xlink:href="#DejaVuSans-6f"/>
      <use x="138.183594" xlink:href="#DejaVuSans-63"/>
      <use x="193.164062" xlink:href="#DejaVuSans-75"/>
      <use x="256.542969" xlink:href="#DejaVuSans-6d"/>
      <use x="353.955078" xlink:href="#DejaVuSans-65"/>
      <use x="415.478516" xlink:href="#DejaVuSans-6e"/>
      <use x="478.857422" xlink:href="#DejaVuSans-74"/>
      <use x="518.066406" xlink:href="#DejaVuSans-20"/>
      <use x="549.853516" xlink:href="#DejaVuSans-53"/>
      <use x="613.330078" xlink:href="#DejaVuSans-69"/>
      <use x="641.113281" xlink:href="#DejaVuSans-6d"/>
      <use x="738.525391" xlink:href="#DejaVuSans-69"/>
      <use x="766.308594" xlink:href="#DejaVuSans-6c"/>
      <use x="794.091797" xlink:href="#DejaVuSans-61"/>
      <use x="855.371094" xlink:href="#DejaVuSans-72"/>
      <use x="896.484375" xlink:href="#DejaVuSans-69"/>
      <use x="924.267578" xlink:href="#DejaVuSans-74"/>
      <use x="963.476562" xlink:href="#DejaVuSans-79"/>
     </g>
    </g>
   </g>
   <g id="matplotlib.axis_2">
    <g id="ytick_1">
     <g id="line2d_8">
      <defs>
       <path d="M 0 0 
L -6 0 
" id="m09ebbfb2f6" style="stroke:#262626;"/>
      </defs>
      <g>
       <use style="fill:#262626;stroke:#262626;" x="51.8275" xlink:href="#m09ebbfb2f6" y="285"/>
      </g>
     </g>
     <g id="text_9">
      <!-- 0 -->
      <g style="fill:#262626;" transform="translate(30.55625 289.938984)scale(0.13 -0.13)">
       <use xlink:href="#DejaVuSans-30"/>
      </g>
     </g>
    </g>
    <g id="ytick_2">
     <g id="line2d_9">
      <g>
       <use style="fill:#262626;stroke:#262626;" x="51.8275" xlink:href="#m09ebbfb2f6" y="235.581818"/>
      </g>
     </g>
     <g id="text_10">
      <!-- 1 -->
      <g style="fill:#262626;" transform="translate(30.55625 240.520803)scale(0.13 -0.13)">
       <use xlink:href="#DejaVuSans-31"/>
      </g>
     </g>
    </g>
    <g id="ytick_3">
     <g id="line2d_10">
      <g>
       <use style="fill:#262626;stroke:#262626;" x="51.8275" xlink:href="#m09ebbfb2f6" y="186.163636"/>
      </g>
     </g>
     <g id="text_11">
      <!-- 2 -->
      <g style="fill:#262626;" transform="translate(30.55625 191.102621)scale(0.13 -0.13)">
       <use xlink:href="#DejaVuSans-32"/>
      </g>
     </g>
    </g>
    <g id="ytick_4">
     <g id="line2d_11">
      <g>
       <use style="fill:#262626;stroke:#262626;" x="51.8275" xlink:href="#m09ebbfb2f6" y="136.745455"/>
      </g>
     </g>
     <g id="text_12">
      <!-- 3 -->
      <g style="fill:#262626;" transform="translate(30.55625 141.684439)scale(0.13 -0.13)">
       <use xlink:href="#DejaVuSans-33"/>
      </g>
     </g>
    </g>
    <g id="ytick_5">
     <g id="line2d_12">
      <g>
       <use style="fill:#262626;stroke:#262626;" x="51.8275" xlink:href="#m09ebbfb2f6" y="87.327273"/>
      </g>
     </g>
     <g id="text_13">
      <!-- 4 -->
      <g style="fill:#262626;" transform="translate(30.55625 92.266257)scale(0.13 -0.13)">
       <use xlink:href="#DejaVuSans-34"/>
      </g>
     </g>
    </g>
    <g id="ytick_6">
     <g id="line2d_13">
      <g>
       <use style="fill:#262626;stroke:#262626;" x="51.8275" xlink:href="#m09ebbfb2f6" y="37.909091"/>
      </g>
     </g>
     <g id="text_14">
      <!-- 5 -->
      <g style="fill:#262626;" transform="translate(30.55625 42.848075)scale(0.13 -0.13)">
       <use xlink:href="#DejaVuSans-35"/>
      </g>
     </g>
    </g>
    <g id="text_15">
     <!-- Density -->
     <defs>
      <path d="M 44.28125 53.078125 
L 44.28125 44.578125 
Q 40.484375 46.53125 36.375 47.5 
Q 32.28125 48.484375 27.875 48.484375 
Q 21.1875 48.484375 17.84375 46.4375 
Q 14.5 44.390625 14.5 40.28125 
Q 14.5 37.15625 16.890625 35.375 
Q 19.28125 33.59375 26.515625 31.984375 
L 29.59375 31.296875 
Q 39.15625 29.25 43.1875 25.515625 
Q 47.21875 21.78125 47.21875 15.09375 
Q 47.21875 7.46875 41.1875 3.015625 
Q 35.15625 -1.421875 24.609375 -1.421875 
Q 20.21875 -1.421875 15.453125 -0.5625 
Q 10.6875 0.296875 5.421875 2 
L 5.421875 11.28125 
Q 10.40625 8.6875 15.234375 7.390625 
Q 20.0625 6.109375 24.8125 6.109375 
Q 31.15625 6.109375 34.5625 8.28125 
Q 37.984375 10.453125 37.984375 14.40625 
Q 37.984375 18.0625 35.515625 20.015625 
Q 33.0625 21.96875 24.703125 23.78125 
L 21.578125 24.515625 
Q 13.234375 26.265625 9.515625 29.90625 
Q 5.8125 33.546875 5.8125 39.890625 
Q 5.8125 47.609375 11.28125 51.796875 
Q 16.75 56 26.8125 56 
Q 31.78125 56 36.171875 55.265625 
Q 40.578125 54.546875 44.28125 53.078125 
z
" id="DejaVuSans-73"/>
     </defs>
     <g style="fill:#262626;" transform="translate(22.396875 187.117188)rotate(-90)scale(0.2 -0.2)">
      <use xlink:href="#DejaVuSans-44"/>
      <use x="77.001953" xlink:href="#DejaVuSans-65"/>
      <use x="138.525391" xlink:href="#DejaVuSans-6e"/>
      <use x="201.904297" xlink:href="#DejaVuSans-73"/>
      <use x="254.003906" xlink:href="#DejaVuSans-69"/>
      <use x="281.787109" xlink:href="#DejaVuSans-74"/>
      <use x="320.996094" xlink:href="#DejaVuSans-79"/>
     </g>
    </g>
   </g>
   <g id="line2d_14">
    <path clip-path="url(#pd736c37631)" d="M 44.58965 284.999723 
L 53.034732 284.918704 
L 55.849759 284.687539 
L 57.257273 284.44786 
L 58.664787 284.087242 
L 60.0723 283.5823 
L 61.479814 282.918272 
L 62.887328 282.087962 
L 64.294841 281.087308 
L 65.702355 279.912017 
L 67.109869 278.559951 
L 69.924896 275.377819 
L 79.777492 262.962199 
L 82.592519 259.084626 
L 86.81506 252.731617 
L 93.852628 241.723853 
L 96.667656 236.888255 
L 99.482683 231.503097 
L 102.29771 225.598935 
L 106.520251 216.237355 
L 109.335279 209.705298 
L 112.150306 202.647785 
L 114.965333 194.820332 
L 122.002902 173.658951 
L 126.225443 160.372211 
L 134.670525 132.773071 
L 137.485552 124.368791 
L 141.708093 112.550643 
L 147.338148 97.286481 
L 150.153175 90.202015 
L 152.968202 83.65235 
L 155.78323 77.570552 
L 158.598257 72.092614 
L 160.005771 69.68496 
L 161.413285 67.556904 
L 162.820798 65.739625 
L 164.228312 64.24317 
L 165.635826 63.046004 
L 167.043339 62.089251 
L 172.673394 58.990234 
L 175.488421 57.605374 
L 176.895935 57.199792 
L 178.303449 57.097958 
L 179.710962 57.345267 
L 181.118476 57.95919 
L 182.52599 58.937332 
L 183.933503 60.259087 
L 185.341017 61.883177 
L 188.156044 65.788623 
L 192.378585 72.43094 
L 195.193613 77.167706 
L 199.416154 84.852764 
L 205.046208 95.677133 
L 207.861236 101.558099 
L 223.343886 135.556059 
L 226.158913 141.030359 
L 228.973941 145.925554 
L 231.788968 150.276892 
L 237.419023 158.343778 
L 243.049077 166.412788 
L 247.271618 173.00133 
L 259.939241 193.558647 
L 265.569296 201.690656 
L 269.791837 208.074859 
L 276.829405 219.119626 
L 282.45946 227.677316 
L 289.497028 238.926139 
L 292.312056 242.875608 
L 295.127083 246.439473 
L 299.349624 251.378431 
L 303.572165 255.982624 
L 306.387192 258.699306 
L 313.424761 264.898498 
L 316.239788 267.206273 
L 319.054815 269.14679 
L 323.277356 271.559538 
L 327.499897 273.706903 
L 330.314925 274.896813 
L 334.537466 276.372939 
L 340.16752 278.02189 
L 344.390061 279.086376 
L 348.612602 279.91263 
L 355.650171 280.918595 
L 364.095253 281.999438 
L 369.725308 282.500559 
L 383.800444 283.635332 
L 390.838013 284.224666 
L 397.875581 284.567176 
L 409.13569 284.851894 
L 424.618341 284.989717 
L 456.6275 284.995787 
L 456.6275 284.995787 
" style="fill:none;stroke:#4c72b0;stroke-linecap:square;stroke-width:1.75;"/>
   </g>
   <g id="patch_3">
    <path d="M 51.8275 285 
L 51.8275 13.2 
" style="fill:none;stroke:#000000;stroke-linecap:square;stroke-linejoin:miter;stroke-width:0.8;"/>
   </g>
   <g id="patch_4">
    <path d="M 51.8275 285 
L 442.4275 285 
" style="fill:none;stroke:#000000;stroke-linecap:square;stroke-linejoin:miter;stroke-width:0.8;"/>
   </g>
  </g>
 </g>
 <defs>
  <clipPath id="pd736c37631">
   <rect height="271.8" width="390.6" x="51.8275" y="13.2"/>
  </clipPath>
 </defs>
</svg>
