<?xml version="1.0" encoding="utf-8" standalone="no"?>
<!DOCTYPE svg PUBLIC "-//W3C//DTD SVG 1.1//EN"
  "http://www.w3.org/Graphics/SVG/1.1/DTD/svg11.dtd">
<!-- Created with matplotlib (http://matplotlib.org/) -->
<svg height="341pt" version="1.1" viewBox="0 0 491 341" width="491pt" xmlns="http://www.w3.org/2000/svg" xmlns:xlink="http://www.w3.org/1999/xlink">
 <defs>
  <style type="text/css">
*{stroke-linecap:butt;stroke-linejoin:round;}
  </style>
 </defs>
 <g id="figure_1">
  <g id="patch_1">
   <path d="M 0 341.137812 
L 491.53625 341.137812 
L 491.53625 0 
L 0 0 
z
" style="fill:#ffffff;"/>
  </g>
  <g id="axes_1">
   <g id="patch_2">
    <path d="M 79.263594 285 
L 469.863594 285 
L 469.863594 13.2 
L 79.263594 13.2 
z
" style="fill:#ffffff;"/>
   </g>
   <g id="line2d_1">
    <path clip-path="url(#p2ab3cd00e2)" d="M 49.968594 149.1 
L 54.505866 149.1 
L 59.043139 149.1 
L 63.580412 149.1 
L 68.117685 149.1 
L 72.654957 149.1 
L 77.19223 149.1 
L 81.729503 149.1 
L 86.266776 149.1 
L 90.804048 149.1 
L 95.341321 149.1 
L 99.878594 149.1 
L 104.415866 149.1 
L 108.953139 149.1 
L 113.490412 149.1 
L 118.027685 149.1 
L 122.564957 149.1 
L 127.10223 149.1 
L 131.639503 149.1 
L 136.176776 149.1 
L 140.714048 149.1 
L 145.251321 149.1 
L 149.788594 149.1 
L 154.325866 149.1 
L 158.863139 149.1 
L 163.400412 149.1 
L 167.937685 149.1 
L 172.474957 149.1 
L 177.01223 149.1 
L 181.549503 149.1 
L 186.086776 149.1 
L 190.624048 149.1 
L 195.161321 149.1 
L 199.698594 149.1 
L 204.235866 149.1 
L 208.773139 149.1 
L 213.310412 149.1 
L 217.847685 149.1 
L 222.384957 149.1 
L 226.92223 149.1 
L 231.459503 149.1 
L 235.996776 149.1 
L 240.534048 149.1 
L 245.071321 149.1 
L 249.608594 149.1 
L 254.145866 149.1 
L 258.683139 149.1 
L 263.220412 149.1 
L 267.757685 149.1 
L 272.294957 149.1 
L 276.83223 149.1 
L 281.369503 149.1 
L 285.906776 149.1 
L 290.444048 149.1 
L 294.981321 149.1 
L 299.518594 149.1 
L 304.055866 149.1 
L 308.593139 149.1 
L 313.130412 149.1 
L 317.667685 149.1 
L 322.204957 149.1 
L 326.74223 149.1 
L 331.279503 149.1 
L 335.816776 149.1 
L 340.354048 149.1 
L 344.891321 149.1 
L 349.428594 149.1 
L 353.965866 149.1 
L 358.503139 149.1 
L 363.040412 149.1 
L 367.577685 149.1 
L 372.114957 149.1 
L 376.65223 149.1 
L 381.189503 149.1 
L 385.726776 149.1 
L 390.264048 149.1 
L 394.801321 149.1 
L 399.338594 149.1 
L 403.875866 149.1 
L 408.413139 149.1 
L 412.950412 149.1 
L 417.487685 149.1 
L 422.024957 149.1 
L 426.56223 149.1 
L 431.099503 149.1 
L 435.636776 149.1 
L 440.174048 149.1 
L 444.711321 149.1 
L 449.248594 149.1 
L 453.785866 149.1 
L 458.323139 149.1 
L 462.860412 149.1 
L 467.397685 149.1 
L 471.934957 149.1 
L 476.47223 149.1 
L 481.009503 149.1 
L 485.546776 149.1 
L 490.084048 149.1 
L 492.53625 149.1 
" style="fill:none;stroke:#000000;stroke-dasharray:3.7,1.6;stroke-dashoffset:0;"/>
   </g>
   <g id="PolyCollection_1">
    <defs>
     <path d="M 49.968594 -192.037813 
L 49.968594 -192.037813 
L 54.505866 -192.037812 
L 59.043139 -192.037812 
L 63.580412 -192.037812 
L 68.117685 -192.037812 
L 72.654957 -192.037812 
L 77.19223 -192.037812 
L 81.729503 -192.037811 
L 86.266776 -192.037803 
L 90.804048 -192.037738 
L 95.341321 -192.037312 
L 99.878594 -192.034969 
L 104.415866 -192.024145 
L 108.953139 -191.982419 
L 113.490412 -191.848686 
L 118.027685 -191.493735 
L 122.564957 -190.716674 
L 127.10223 -189.318138 
L 131.639503 -187.250214 
L 136.176776 -184.732671 
L 140.714048 -182.236716 
L 145.251321 -180.423115 
L 149.788594 -180.050042 
L 154.325866 -181.518151 
L 158.863139 -183.957126 
L 163.400412 -184.658277 
L 167.937685 -183.449756 
L 172.474957 -183.628258 
L 177.01223 -185.329369 
L 181.549503 -187.381523 
L 186.086776 -189.047086 
L 190.624048 -189.167745 
L 195.161321 -186.504099 
L 199.698594 -182.05221 
L 204.235866 -178.113663 
L 208.773139 -176.389471 
L 213.310412 -178.224915 
L 217.847685 -184.936837 
L 222.384957 -196.659747 
L 226.92223 -211.339823 
L 231.459503 -225.465234 
L 235.996776 -234.943498 
L 240.534048 -235.540038 
L 245.071321 -224.15899 
L 249.608594 -200.399918 
L 254.145866 -167.066116 
L 258.683139 -130.254783 
L 263.220412 -99.193919 
L 267.757685 -81.848166 
L 272.294957 -80.589964 
L 276.83223 -92.620451 
L 281.369503 -112.407354 
L 285.906776 -134.069168 
L 290.444048 -153.187513 
L 294.981321 -167.683718 
L 299.518594 -177.540902 
L 304.055866 -183.778246 
L 308.593139 -187.526958 
L 313.130412 -189.667132 
L 317.667685 -190.822416 
L 322.204957 -191.415914 
L 326.74223 -191.710834 
L 331.279503 -191.855718 
L 335.816776 -191.929459 
L 340.354048 -191.970978 
L 344.891321 -191.997019 
L 349.428594 -192.014085 
L 353.965866 -192.025031 
L 358.503139 -192.031606 
L 363.040412 -192.035172 
L 367.577685 -192.036852 
L 372.114957 -192.03752 
L 376.65223 -192.037739 
L 381.189503 -192.037797 
L 385.726776 -192.03781 
L 390.264048 -192.037812 
L 394.801321 -192.037812 
L 399.338594 -192.037812 
L 403.875866 -192.037812 
L 408.413139 -192.037812 
L 412.950412 -192.037812 
L 417.487685 -192.037812 
L 422.024957 -192.037813 
L 426.56223 -192.037813 
L 431.099503 -192.037813 
L 435.636776 -192.037813 
L 440.174048 -192.037813 
L 444.711321 -192.037813 
L 449.248594 -192.037813 
L 453.785866 -192.037813 
L 458.323139 -192.037813 
L 462.860412 -192.037813 
L 467.397685 -192.037813 
L 471.934957 -192.037813 
L 476.47223 -192.037813 
L 481.009503 -192.037813 
L 485.546776 -192.037813 
L 490.084048 -192.037813 
L 494.621321 -192.037813 
L 499.158594 -192.037813 
L 499.158594 -192.037813 
L 499.158594 -192.037813 
L 494.621321 -192.037813 
L 490.084048 -192.037813 
L 485.546776 -192.037813 
L 481.009503 -192.037813 
L 476.47223 -192.037813 
L 471.934957 -192.037813 
L 467.397685 -192.037813 
L 462.860412 -192.037813 
L 458.323139 -192.037813 
L 453.785866 -192.037813 
L 449.248594 -192.037813 
L 444.711321 -192.037813 
L 440.174048 -192.037813 
L 435.636776 -192.037813 
L 431.099503 -192.037813 
L 426.56223 -192.037813 
L 422.024957 -192.037813 
L 417.487685 -192.037813 
L 412.950412 -192.037813 
L 408.413139 -192.037813 
L 403.875866 -192.037813 
L 399.338594 -192.037813 
L 394.801321 -192.037813 
L 390.264048 -192.037813 
L 385.726776 -192.037816 
L 381.189503 -192.037831 
L 376.65223 -192.037902 
L 372.114957 -192.038166 
L 367.577685 -192.038967 
L 363.040412 -192.040963 
L 358.503139 -192.045147 
L 353.965866 -192.052763 
L 349.428594 -192.065295 
L 344.891321 -192.084604 
L 340.354048 -192.113228 
L 335.816776 -192.155292 
L 331.279503 -192.218701 
L 326.74223 -192.31693 
L 322.204957 -192.465334 
L 317.667685 -192.668798 
L 313.130412 -192.892278 
L 308.593139 -192.991669 
L 304.055866 -192.618235 
L 299.518594 -191.193451 
L 294.981321 -188.034613 
L 290.444048 -182.539165 
L 285.906776 -174.353774 
L 281.369503 -163.807698 
L 276.83223 -152.738775 
L 272.294957 -144.979119 
L 267.757685 -145.476667 
L 263.220412 -158.181751 
L 258.683139 -184.205513 
L 254.145866 -220.784895 
L 249.608594 -259.855539 
L 245.071321 -290.058797 
L 240.534048 -303.330147 
L 235.996776 -298.528254 
L 231.459503 -280.71308 
L 226.92223 -258.049355 
L 222.384957 -237.914623 
L 217.847685 -223.993369 
L 213.310412 -216.380104 
L 208.773139 -213.518611 
L 204.235866 -213.218618 
L 199.698594 -213.23855 
L 195.161321 -212.509961 
L 190.624048 -211.576214 
L 186.086776 -210.653497 
L 181.549503 -208.712226 
L 177.01223 -205.731402 
L 172.474957 -202.682476 
L 167.937685 -200.016377 
L 163.400412 -198.685983 
L 158.863139 -201.598373 
L 154.325866 -207.203662 
L 149.788594 -211.196061 
L 145.251321 -211.707981 
L 140.714048 -209.088079 
L 136.176776 -204.754153 
L 131.639503 -200.216298 
L 127.10223 -196.543315 
L 122.564957 -194.146024 
L 118.027685 -192.870181 
L 113.490412 -192.313962 
L 108.953139 -192.114641 
L 104.415866 -192.055735 
L 99.878594 -192.041325 
L 95.341321 -192.038393 
L 90.804048 -192.037894 
L 86.266776 -192.037822 
L 81.729503 -192.037814 
L 77.19223 -192.037813 
L 72.654957 -192.037813 
L 68.117685 -192.037813 
L 63.580412 -192.037813 
L 59.043139 -192.037813 
L 54.505866 -192.037813 
L 49.968594 -192.037813 
z
" id="m3883889907" style="stroke:#4c72b0;stroke-opacity:0.1;"/>
    </defs>
    <g clip-path="url(#p2ab3cd00e2)">
     <use style="fill:#4c72b0;fill-opacity:0.1;stroke:#4c72b0;stroke-opacity:0.1;" x="0" xlink:href="#m3883889907" y="341.137812"/>
    </g>
   </g>
   <g id="matplotlib.axis_1">
    <g id="xtick_1">
     <g id="line2d_2">
      <defs>
       <path d="M 0 0 
L 0 6 
" id="ma757032487" style="stroke:#262626;"/>
      </defs>
      <g>
       <use style="fill:#262626;stroke:#262626;" x="79.263594" xlink:href="#ma757032487" y="285"/>
      </g>
     </g>
     <g id="text_1">
      <!-- 0.00 -->
      <defs>
       <path d="M 31.78125 66.40625 
Q 24.171875 66.40625 20.328125 58.90625 
Q 16.5 51.421875 16.5 36.375 
Q 16.5 21.390625 20.328125 13.890625 
Q 24.171875 6.390625 31.78125 6.390625 
Q 39.453125 6.390625 43.28125 13.890625 
Q 47.125 21.390625 47.125 36.375 
Q 47.125 51.421875 43.28125 58.90625 
Q 39.453125 66.40625 31.78125 66.40625 
z
M 31.78125 74.21875 
Q 44.046875 74.21875 50.515625 64.515625 
Q 56.984375 54.828125 56.984375 36.375 
Q 56.984375 17.96875 50.515625 8.265625 
Q 44.046875 -1.421875 31.78125 -1.421875 
Q 19.53125 -1.421875 13.0625 8.265625 
Q 6.59375 17.96875 6.59375 36.375 
Q 6.59375 54.828125 13.0625 64.515625 
Q 19.53125 74.21875 31.78125 74.21875 
z
" id="DejaVuSans-30"/>
       <path d="M 10.6875 12.40625 
L 21 12.40625 
L 21 0 
L 10.6875 0 
z
" id="DejaVuSans-2e"/>
      </defs>
      <g style="fill:#262626;" transform="translate(64.790938 307.877969)scale(0.13 -0.13)">
       <use xlink:href="#DejaVuSans-30"/>
       <use x="63.623047" xlink:href="#DejaVuSans-2e"/>
       <use x="95.410156" xlink:href="#DejaVuSans-30"/>
       <use x="159.033203" xlink:href="#DejaVuSans-30"/>
      </g>
     </g>
    </g>
    <g id="xtick_2">
     <g id="line2d_3">
      <g>
       <use style="fill:#262626;stroke:#262626;" x="128.088594" xlink:href="#ma757032487" y="285"/>
      </g>
     </g>
     <g id="text_2">
      <!-- 0.05 -->
      <defs>
       <path d="M 10.796875 72.90625 
L 49.515625 72.90625 
L 49.515625 64.59375 
L 19.828125 64.59375 
L 19.828125 46.734375 
Q 21.96875 47.46875 24.109375 47.828125 
Q 26.265625 48.1875 28.421875 48.1875 
Q 40.625 48.1875 47.75 41.5 
Q 54.890625 34.8125 54.890625 23.390625 
Q 54.890625 11.625 47.5625 5.09375 
Q 40.234375 -1.421875 26.90625 -1.421875 
Q 22.3125 -1.421875 17.546875 -0.640625 
Q 12.796875 0.140625 7.71875 1.703125 
L 7.71875 11.625 
Q 12.109375 9.234375 16.796875 8.0625 
Q 21.484375 6.890625 26.703125 6.890625 
Q 35.15625 6.890625 40.078125 11.328125 
Q 45.015625 15.765625 45.015625 23.390625 
Q 45.015625 31 40.078125 35.4375 
Q 35.15625 39.890625 26.703125 39.890625 
Q 22.75 39.890625 18.8125 39.015625 
Q 14.890625 38.140625 10.796875 36.28125 
z
" id="DejaVuSans-35"/>
      </defs>
      <g style="fill:#262626;" transform="translate(113.615938 307.877969)scale(0.13 -0.13)">
       <use xlink:href="#DejaVuSans-30"/>
       <use x="63.623047" xlink:href="#DejaVuSans-2e"/>
       <use x="95.410156" xlink:href="#DejaVuSans-30"/>
       <use x="159.033203" xlink:href="#DejaVuSans-35"/>
      </g>
     </g>
    </g>
    <g id="xtick_3">
     <g id="line2d_4">
      <g>
       <use style="fill:#262626;stroke:#262626;" x="176.913594" xlink:href="#ma757032487" y="285"/>
      </g>
     </g>
     <g id="text_3">
      <!-- 0.10 -->
      <defs>
       <path d="M 12.40625 8.296875 
L 28.515625 8.296875 
L 28.515625 63.921875 
L 10.984375 60.40625 
L 10.984375 69.390625 
L 28.421875 72.90625 
L 38.28125 72.90625 
L 38.28125 8.296875 
L 54.390625 8.296875 
L 54.390625 0 
L 12.40625 0 
z
" id="DejaVuSans-31"/>
      </defs>
      <g style="fill:#262626;" transform="translate(162.440938 307.877969)scale(0.13 -0.13)">
       <use xlink:href="#DejaVuSans-30"/>
       <use x="63.623047" xlink:href="#DejaVuSans-2e"/>
       <use x="95.410156" xlink:href="#DejaVuSans-31"/>
       <use x="159.033203" xlink:href="#DejaVuSans-30"/>
      </g>
     </g>
    </g>
    <g id="xtick_4">
     <g id="line2d_5">
      <g>
       <use style="fill:#262626;stroke:#262626;" x="225.738594" xlink:href="#ma757032487" y="285"/>
      </g>
     </g>
     <g id="text_4">
      <!-- 0.15 -->
      <g style="fill:#262626;" transform="translate(211.265938 307.877969)scale(0.13 -0.13)">
       <use xlink:href="#DejaVuSans-30"/>
       <use x="63.623047" xlink:href="#DejaVuSans-2e"/>
       <use x="95.410156" xlink:href="#DejaVuSans-31"/>
       <use x="159.033203" xlink:href="#DejaVuSans-35"/>
      </g>
     </g>
    </g>
    <g id="xtick_5">
     <g id="line2d_6">
      <g>
       <use style="fill:#262626;stroke:#262626;" x="274.563594" xlink:href="#ma757032487" y="285"/>
      </g>
     </g>
     <g id="text_5">
      <!-- 0.20 -->
      <defs>
       <path d="M 19.1875 8.296875 
L 53.609375 8.296875 
L 53.609375 0 
L 7.328125 0 
L 7.328125 8.296875 
Q 12.9375 14.109375 22.625 23.890625 
Q 32.328125 33.6875 34.8125 36.53125 
Q 39.546875 41.84375 41.421875 45.53125 
Q 43.3125 49.21875 43.3125 52.78125 
Q 43.3125 58.59375 39.234375 62.25 
Q 35.15625 65.921875 28.609375 65.921875 
Q 23.96875 65.921875 18.8125 64.3125 
Q 13.671875 62.703125 7.8125 59.421875 
L 7.8125 69.390625 
Q 13.765625 71.78125 18.9375 73 
Q 24.125 74.21875 28.421875 74.21875 
Q 39.75 74.21875 46.484375 68.546875 
Q 53.21875 62.890625 53.21875 53.421875 
Q 53.21875 48.921875 51.53125 44.890625 
Q 49.859375 40.875 45.40625 35.40625 
Q 44.1875 33.984375 37.640625 27.21875 
Q 31.109375 20.453125 19.1875 8.296875 
z
" id="DejaVuSans-32"/>
      </defs>
      <g style="fill:#262626;" transform="translate(260.090937 307.877969)scale(0.13 -0.13)">
       <use xlink:href="#DejaVuSans-30"/>
       <use x="63.623047" xlink:href="#DejaVuSans-2e"/>
       <use x="95.410156" xlink:href="#DejaVuSans-32"/>
       <use x="159.033203" xlink:href="#DejaVuSans-30"/>
      </g>
     </g>
    </g>
    <g id="xtick_6">
     <g id="line2d_7">
      <g>
       <use style="fill:#262626;stroke:#262626;" x="323.388594" xlink:href="#ma757032487" y="285"/>
      </g>
     </g>
     <g id="text_6">
      <!-- 0.25 -->
      <g style="fill:#262626;" transform="translate(308.915938 307.877969)scale(0.13 -0.13)">
       <use xlink:href="#DejaVuSans-30"/>
       <use x="63.623047" xlink:href="#DejaVuSans-2e"/>
       <use x="95.410156" xlink:href="#DejaVuSans-32"/>
       <use x="159.033203" xlink:href="#DejaVuSans-35"/>
      </g>
     </g>
    </g>
    <g id="xtick_7">
     <g id="line2d_8">
      <g>
       <use style="fill:#262626;stroke:#262626;" x="372.213594" xlink:href="#ma757032487" y="285"/>
      </g>
     </g>
     <g id="text_7">
      <!-- 0.30 -->
      <defs>
       <path d="M 40.578125 39.3125 
Q 47.65625 37.796875 51.625 33 
Q 55.609375 28.21875 55.609375 21.1875 
Q 55.609375 10.40625 48.1875 4.484375 
Q 40.765625 -1.421875 27.09375 -1.421875 
Q 22.515625 -1.421875 17.65625 -0.515625 
Q 12.796875 0.390625 7.625 2.203125 
L 7.625 11.71875 
Q 11.71875 9.328125 16.59375 8.109375 
Q 21.484375 6.890625 26.8125 6.890625 
Q 36.078125 6.890625 40.9375 10.546875 
Q 45.796875 14.203125 45.796875 21.1875 
Q 45.796875 27.640625 41.28125 31.265625 
Q 36.765625 34.90625 28.71875 34.90625 
L 20.21875 34.90625 
L 20.21875 43.015625 
L 29.109375 43.015625 
Q 36.375 43.015625 40.234375 45.921875 
Q 44.09375 48.828125 44.09375 54.296875 
Q 44.09375 59.90625 40.109375 62.90625 
Q 36.140625 65.921875 28.71875 65.921875 
Q 24.65625 65.921875 20.015625 65.03125 
Q 15.375 64.15625 9.8125 62.3125 
L 9.8125 71.09375 
Q 15.4375 72.65625 20.34375 73.4375 
Q 25.25 74.21875 29.59375 74.21875 
Q 40.828125 74.21875 47.359375 69.109375 
Q 53.90625 64.015625 53.90625 55.328125 
Q 53.90625 49.265625 50.4375 45.09375 
Q 46.96875 40.921875 40.578125 39.3125 
z
" id="DejaVuSans-33"/>
      </defs>
      <g style="fill:#262626;" transform="translate(357.740938 307.877969)scale(0.13 -0.13)">
       <use xlink:href="#DejaVuSans-30"/>
       <use x="63.623047" xlink:href="#DejaVuSans-2e"/>
       <use x="95.410156" xlink:href="#DejaVuSans-33"/>
       <use x="159.033203" xlink:href="#DejaVuSans-30"/>
      </g>
     </g>
    </g>
    <g id="xtick_8">
     <g id="line2d_9">
      <g>
       <use style="fill:#262626;stroke:#262626;" x="421.038594" xlink:href="#ma757032487" y="285"/>
      </g>
     </g>
     <g id="text_8">
      <!-- 0.35 -->
      <g style="fill:#262626;" transform="translate(406.565938 307.877969)scale(0.13 -0.13)">
       <use xlink:href="#DejaVuSans-30"/>
       <use x="63.623047" xlink:href="#DejaVuSans-2e"/>
       <use x="95.410156" xlink:href="#DejaVuSans-33"/>
       <use x="159.033203" xlink:href="#DejaVuSans-35"/>
      </g>
     </g>
    </g>
    <g id="xtick_9">
     <g id="line2d_10">
      <g>
       <use style="fill:#262626;stroke:#262626;" x="469.863594" xlink:href="#ma757032487" y="285"/>
      </g>
     </g>
     <g id="text_9">
      <!-- 0.40 -->
      <defs>
       <path d="M 37.796875 64.3125 
L 12.890625 25.390625 
L 37.796875 25.390625 
z
M 35.203125 72.90625 
L 47.609375 72.90625 
L 47.609375 25.390625 
L 58.015625 25.390625 
L 58.015625 17.1875 
L 47.609375 17.1875 
L 47.609375 0 
L 37.796875 0 
L 37.796875 17.1875 
L 4.890625 17.1875 
L 4.890625 26.703125 
z
" id="DejaVuSans-34"/>
      </defs>
      <g style="fill:#262626;" transform="translate(455.390938 307.877969)scale(0.13 -0.13)">
       <use xlink:href="#DejaVuSans-30"/>
       <use x="63.623047" xlink:href="#DejaVuSans-2e"/>
       <use x="95.410156" xlink:href="#DejaVuSans-34"/>
       <use x="159.033203" xlink:href="#DejaVuSans-30"/>
      </g>
     </g>
    </g>
    <g id="text_10">
     <!-- Document Similarity -->
     <defs>
      <path d="M 19.671875 64.796875 
L 19.671875 8.109375 
L 31.59375 8.109375 
Q 46.6875 8.109375 53.6875 14.9375 
Q 60.6875 21.78125 60.6875 36.53125 
Q 60.6875 51.171875 53.6875 57.984375 
Q 46.6875 64.796875 31.59375 64.796875 
z
M 9.8125 72.90625 
L 30.078125 72.90625 
Q 51.265625 72.90625 61.171875 64.09375 
Q 71.09375 55.28125 71.09375 36.53125 
Q 71.09375 17.671875 61.125 8.828125 
Q 51.171875 0 30.078125 0 
L 9.8125 0 
z
" id="DejaVuSans-44"/>
      <path d="M 30.609375 48.390625 
Q 23.390625 48.390625 19.1875 42.75 
Q 14.984375 37.109375 14.984375 27.296875 
Q 14.984375 17.484375 19.15625 11.84375 
Q 23.34375 6.203125 30.609375 6.203125 
Q 37.796875 6.203125 41.984375 11.859375 
Q 46.1875 17.53125 46.1875 27.296875 
Q 46.1875 37.015625 41.984375 42.703125 
Q 37.796875 48.390625 30.609375 48.390625 
z
M 30.609375 56 
Q 42.328125 56 49.015625 48.375 
Q 55.71875 40.765625 55.71875 27.296875 
Q 55.71875 13.875 49.015625 6.21875 
Q 42.328125 -1.421875 30.609375 -1.421875 
Q 18.84375 -1.421875 12.171875 6.21875 
Q 5.515625 13.875 5.515625 27.296875 
Q 5.515625 40.765625 12.171875 48.375 
Q 18.84375 56 30.609375 56 
z
" id="DejaVuSans-6f"/>
      <path d="M 48.78125 52.59375 
L 48.78125 44.1875 
Q 44.96875 46.296875 41.140625 47.34375 
Q 37.3125 48.390625 33.40625 48.390625 
Q 24.65625 48.390625 19.8125 42.84375 
Q 14.984375 37.3125 14.984375 27.296875 
Q 14.984375 17.28125 19.8125 11.734375 
Q 24.65625 6.203125 33.40625 6.203125 
Q 37.3125 6.203125 41.140625 7.25 
Q 44.96875 8.296875 48.78125 10.40625 
L 48.78125 2.09375 
Q 45.015625 0.34375 40.984375 -0.53125 
Q 36.96875 -1.421875 32.421875 -1.421875 
Q 20.0625 -1.421875 12.78125 6.34375 
Q 5.515625 14.109375 5.515625 27.296875 
Q 5.515625 40.671875 12.859375 48.328125 
Q 20.21875 56 33.015625 56 
Q 37.15625 56 41.109375 55.140625 
Q 45.0625 54.296875 48.78125 52.59375 
z
" id="DejaVuSans-63"/>
      <path d="M 8.5 21.578125 
L 8.5 54.6875 
L 17.484375 54.6875 
L 17.484375 21.921875 
Q 17.484375 14.15625 20.5 10.265625 
Q 23.53125 6.390625 29.59375 6.390625 
Q 36.859375 6.390625 41.078125 11.03125 
Q 45.3125 15.671875 45.3125 23.6875 
L 45.3125 54.6875 
L 54.296875 54.6875 
L 54.296875 0 
L 45.3125 0 
L 45.3125 8.40625 
Q 42.046875 3.421875 37.71875 1 
Q 33.40625 -1.421875 27.6875 -1.421875 
Q 18.265625 -1.421875 13.375 4.4375 
Q 8.5 10.296875 8.5 21.578125 
z
M 31.109375 56 
z
" id="DejaVuSans-75"/>
      <path d="M 52 44.1875 
Q 55.375 50.25 60.0625 53.125 
Q 64.75 56 71.09375 56 
Q 79.640625 56 84.28125 50.015625 
Q 88.921875 44.046875 88.921875 33.015625 
L 88.921875 0 
L 79.890625 0 
L 79.890625 32.71875 
Q 79.890625 40.578125 77.09375 44.375 
Q 74.3125 48.1875 68.609375 48.1875 
Q 61.625 48.1875 57.5625 43.546875 
Q 53.515625 38.921875 53.515625 30.90625 
L 53.515625 0 
L 44.484375 0 
L 44.484375 32.71875 
Q 44.484375 40.625 41.703125 44.40625 
Q 38.921875 48.1875 33.109375 48.1875 
Q 26.21875 48.1875 22.15625 43.53125 
Q 18.109375 38.875 18.109375 30.90625 
L 18.109375 0 
L 9.078125 0 
L 9.078125 54.6875 
L 18.109375 54.6875 
L 18.109375 46.1875 
Q 21.1875 51.21875 25.484375 53.609375 
Q 29.78125 56 35.6875 56 
Q 41.65625 56 45.828125 52.96875 
Q 50 49.953125 52 44.1875 
z
" id="DejaVuSans-6d"/>
      <path d="M 56.203125 29.59375 
L 56.203125 25.203125 
L 14.890625 25.203125 
Q 15.484375 15.921875 20.484375 11.0625 
Q 25.484375 6.203125 34.421875 6.203125 
Q 39.59375 6.203125 44.453125 7.46875 
Q 49.3125 8.734375 54.109375 11.28125 
L 54.109375 2.78125 
Q 49.265625 0.734375 44.1875 -0.34375 
Q 39.109375 -1.421875 33.890625 -1.421875 
Q 20.796875 -1.421875 13.15625 6.1875 
Q 5.515625 13.8125 5.515625 26.8125 
Q 5.515625 40.234375 12.765625 48.109375 
Q 20.015625 56 32.328125 56 
Q 43.359375 56 49.78125 48.890625 
Q 56.203125 41.796875 56.203125 29.59375 
z
M 47.21875 32.234375 
Q 47.125 39.59375 43.09375 43.984375 
Q 39.0625 48.390625 32.421875 48.390625 
Q 24.90625 48.390625 20.390625 44.140625 
Q 15.875 39.890625 15.1875 32.171875 
z
" id="DejaVuSans-65"/>
      <path d="M 54.890625 33.015625 
L 54.890625 0 
L 45.90625 0 
L 45.90625 32.71875 
Q 45.90625 40.484375 42.875 44.328125 
Q 39.84375 48.1875 33.796875 48.1875 
Q 26.515625 48.1875 22.3125 43.546875 
Q 18.109375 38.921875 18.109375 30.90625 
L 18.109375 0 
L 9.078125 0 
L 9.078125 54.6875 
L 18.109375 54.6875 
L 18.109375 46.1875 
Q 21.34375 51.125 25.703125 53.5625 
Q 30.078125 56 35.796875 56 
Q 45.21875 56 50.046875 50.171875 
Q 54.890625 44.34375 54.890625 33.015625 
z
" id="DejaVuSans-6e"/>
      <path d="M 18.3125 70.21875 
L 18.3125 54.6875 
L 36.8125 54.6875 
L 36.8125 47.703125 
L 18.3125 47.703125 
L 18.3125 18.015625 
Q 18.3125 11.328125 20.140625 9.421875 
Q 21.96875 7.515625 27.59375 7.515625 
L 36.8125 7.515625 
L 36.8125 0 
L 27.59375 0 
Q 17.1875 0 13.234375 3.875 
Q 9.28125 7.765625 9.28125 18.015625 
L 9.28125 47.703125 
L 2.6875 47.703125 
L 2.6875 54.6875 
L 9.28125 54.6875 
L 9.28125 70.21875 
z
" id="DejaVuSans-74"/>
      <path id="DejaVuSans-20"/>
      <path d="M 53.515625 70.515625 
L 53.515625 60.890625 
Q 47.90625 63.578125 42.921875 64.890625 
Q 37.9375 66.21875 33.296875 66.21875 
Q 25.25 66.21875 20.875 63.09375 
Q 16.5 59.96875 16.5 54.203125 
Q 16.5 49.359375 19.40625 46.890625 
Q 22.3125 44.4375 30.421875 42.921875 
L 36.375 41.703125 
Q 47.40625 39.59375 52.65625 34.296875 
Q 57.90625 29 57.90625 20.125 
Q 57.90625 9.515625 50.796875 4.046875 
Q 43.703125 -1.421875 29.984375 -1.421875 
Q 24.8125 -1.421875 18.96875 -0.25 
Q 13.140625 0.921875 6.890625 3.21875 
L 6.890625 13.375 
Q 12.890625 10.015625 18.65625 8.296875 
Q 24.421875 6.59375 29.984375 6.59375 
Q 38.421875 6.59375 43.015625 9.90625 
Q 47.609375 13.234375 47.609375 19.390625 
Q 47.609375 24.75 44.3125 27.78125 
Q 41.015625 30.8125 33.5 32.328125 
L 27.484375 33.5 
Q 16.453125 35.6875 11.515625 40.375 
Q 6.59375 45.0625 6.59375 53.421875 
Q 6.59375 63.09375 13.40625 68.65625 
Q 20.21875 74.21875 32.171875 74.21875 
Q 37.3125 74.21875 42.625 73.28125 
Q 47.953125 72.359375 53.515625 70.515625 
z
" id="DejaVuSans-53"/>
      <path d="M 9.421875 54.6875 
L 18.40625 54.6875 
L 18.40625 0 
L 9.421875 0 
z
M 9.421875 75.984375 
L 18.40625 75.984375 
L 18.40625 64.59375 
L 9.421875 64.59375 
z
" id="DejaVuSans-69"/>
      <path d="M 9.421875 75.984375 
L 18.40625 75.984375 
L 18.40625 0 
L 9.421875 0 
z
" id="DejaVuSans-6c"/>
      <path d="M 34.28125 27.484375 
Q 23.390625 27.484375 19.1875 25 
Q 14.984375 22.515625 14.984375 16.5 
Q 14.984375 11.71875 18.140625 8.90625 
Q 21.296875 6.109375 26.703125 6.109375 
Q 34.1875 6.109375 38.703125 11.40625 
Q 43.21875 16.703125 43.21875 25.484375 
L 43.21875 27.484375 
z
M 52.203125 31.203125 
L 52.203125 0 
L 43.21875 0 
L 43.21875 8.296875 
Q 40.140625 3.328125 35.546875 0.953125 
Q 30.953125 -1.421875 24.3125 -1.421875 
Q 15.921875 -1.421875 10.953125 3.296875 
Q 6 8.015625 6 15.921875 
Q 6 25.140625 12.171875 29.828125 
Q 18.359375 34.515625 30.609375 34.515625 
L 43.21875 34.515625 
L 43.21875 35.40625 
Q 43.21875 41.609375 39.140625 45 
Q 35.0625 48.390625 27.6875 48.390625 
Q 23 48.390625 18.546875 47.265625 
Q 14.109375 46.140625 10.015625 43.890625 
L 10.015625 52.203125 
Q 14.9375 54.109375 19.578125 55.046875 
Q 24.21875 56 28.609375 56 
Q 40.484375 56 46.34375 49.84375 
Q 52.203125 43.703125 52.203125 31.203125 
z
" id="DejaVuSans-61"/>
      <path d="M 41.109375 46.296875 
Q 39.59375 47.171875 37.8125 47.578125 
Q 36.03125 48 33.890625 48 
Q 26.265625 48 22.1875 43.046875 
Q 18.109375 38.09375 18.109375 28.8125 
L 18.109375 0 
L 9.078125 0 
L 9.078125 54.6875 
L 18.109375 54.6875 
L 18.109375 46.1875 
Q 20.953125 51.171875 25.484375 53.578125 
Q 30.03125 56 36.53125 56 
Q 37.453125 56 38.578125 55.875 
Q 39.703125 55.765625 41.0625 55.515625 
z
" id="DejaVuSans-72"/>
      <path d="M 32.171875 -5.078125 
Q 28.375 -14.84375 24.75 -17.8125 
Q 21.140625 -20.796875 15.09375 -20.796875 
L 7.90625 -20.796875 
L 7.90625 -13.28125 
L 13.1875 -13.28125 
Q 16.890625 -13.28125 18.9375 -11.515625 
Q 21 -9.765625 23.484375 -3.21875 
L 25.09375 0.875 
L 2.984375 54.6875 
L 12.5 54.6875 
L 29.59375 11.921875 
L 46.6875 54.6875 
L 56.203125 54.6875 
z
" id="DejaVuSans-79"/>
     </defs>
     <g style="fill:#262626;" transform="translate(172.299531 329.778437)scale(0.2 -0.2)">
      <use xlink:href="#DejaVuSans-44"/>
      <use x="77.001953" xlink:href="#DejaVuSans-6f"/>
      <use x="138.183594" xlink:href="#DejaVuSans-63"/>
      <use x="193.164062" xlink:href="#DejaVuSans-75"/>
      <use x="256.542969" xlink:href="#DejaVuSans-6d"/>
      <use x="353.955078" xlink:href="#DejaVuSans-65"/>
      <use x="415.478516" xlink:href="#DejaVuSans-6e"/>
      <use x="478.857422" xlink:href="#DejaVuSans-74"/>
      <use x="518.066406" xlink:href="#DejaVuSans-20"/>
      <use x="549.853516" xlink:href="#DejaVuSans-53"/>
      <use x="613.330078" xlink:href="#DejaVuSans-69"/>
      <use x="641.113281" xlink:href="#DejaVuSans-6d"/>
      <use x="738.525391" xlink:href="#DejaVuSans-69"/>
      <use x="766.308594" xlink:href="#DejaVuSans-6c"/>
      <use x="794.091797" xlink:href="#DejaVuSans-61"/>
      <use x="855.371094" xlink:href="#DejaVuSans-72"/>
      <use x="896.484375" xlink:href="#DejaVuSans-69"/>
      <use x="924.267578" xlink:href="#DejaVuSans-74"/>
      <use x="963.476562" xlink:href="#DejaVuSans-79"/>
     </g>
    </g>
   </g>
   <g id="matplotlib.axis_2">
    <g id="ytick_1">
     <g id="line2d_11">
      <defs>
       <path d="M 0 0 
L -6 0 
" id="m62a807f816" style="stroke:#262626;"/>
      </defs>
      <g>
       <use style="fill:#262626;stroke:#262626;" x="79.263594" xlink:href="#m62a807f816" y="285"/>
      </g>
     </g>
     <g id="text_11">
      <!-- −100 -->
      <defs>
       <path d="M 10.59375 35.5 
L 73.1875 35.5 
L 73.1875 27.203125 
L 10.59375 27.203125 
z
" id="DejaVuSans-2212"/>
      </defs>
      <g style="fill:#262626;" transform="translate(30.55625 289.938984)scale(0.13 -0.13)">
       <use xlink:href="#DejaVuSans-2212"/>
       <use x="83.789062" xlink:href="#DejaVuSans-31"/>
       <use x="147.412109" xlink:href="#DejaVuSans-30"/>
       <use x="211.035156" xlink:href="#DejaVuSans-30"/>
      </g>
     </g>
    </g>
    <g id="ytick_2">
     <g id="line2d_12">
      <g>
       <use style="fill:#262626;stroke:#262626;" x="79.263594" xlink:href="#m62a807f816" y="251.025"/>
      </g>
     </g>
     <g id="text_12">
      <!-- −75 -->
      <defs>
       <path d="M 8.203125 72.90625 
L 55.078125 72.90625 
L 55.078125 68.703125 
L 28.609375 0 
L 18.3125 0 
L 43.21875 64.59375 
L 8.203125 64.59375 
z
" id="DejaVuSans-37"/>
      </defs>
      <g style="fill:#262626;" transform="translate(38.8275 255.963984)scale(0.13 -0.13)">
       <use xlink:href="#DejaVuSans-2212"/>
       <use x="83.789062" xlink:href="#DejaVuSans-37"/>
       <use x="147.412109" xlink:href="#DejaVuSans-35"/>
      </g>
     </g>
    </g>
    <g id="ytick_3">
     <g id="line2d_13">
      <g>
       <use style="fill:#262626;stroke:#262626;" x="79.263594" xlink:href="#m62a807f816" y="217.05"/>
      </g>
     </g>
     <g id="text_13">
      <!-- −50 -->
      <g style="fill:#262626;" transform="translate(38.8275 221.988984)scale(0.13 -0.13)">
       <use xlink:href="#DejaVuSans-2212"/>
       <use x="83.789062" xlink:href="#DejaVuSans-35"/>
       <use x="147.412109" xlink:href="#DejaVuSans-30"/>
      </g>
     </g>
    </g>
    <g id="ytick_4">
     <g id="line2d_14">
      <g>
       <use style="fill:#262626;stroke:#262626;" x="79.263594" xlink:href="#m62a807f816" y="183.075"/>
      </g>
     </g>
     <g id="text_14">
      <!-- −25 -->
      <g style="fill:#262626;" transform="translate(38.8275 188.013984)scale(0.13 -0.13)">
       <use xlink:href="#DejaVuSans-2212"/>
       <use x="83.789062" xlink:href="#DejaVuSans-32"/>
       <use x="147.412109" xlink:href="#DejaVuSans-35"/>
      </g>
     </g>
    </g>
    <g id="ytick_5">
     <g id="line2d_15">
      <g>
       <use style="fill:#262626;stroke:#262626;" x="79.263594" xlink:href="#m62a807f816" y="149.1"/>
      </g>
     </g>
     <g id="text_15">
      <!-- 0 -->
      <g style="fill:#262626;" transform="translate(57.992344 154.038984)scale(0.13 -0.13)">
       <use xlink:href="#DejaVuSans-30"/>
      </g>
     </g>
    </g>
    <g id="ytick_6">
     <g id="line2d_16">
      <g>
       <use style="fill:#262626;stroke:#262626;" x="79.263594" xlink:href="#m62a807f816" y="115.125"/>
      </g>
     </g>
     <g id="text_16">
      <!-- 25 -->
      <g style="fill:#262626;" transform="translate(49.721094 120.063984)scale(0.13 -0.13)">
       <use xlink:href="#DejaVuSans-32"/>
       <use x="63.623047" xlink:href="#DejaVuSans-35"/>
      </g>
     </g>
    </g>
    <g id="ytick_7">
     <g id="line2d_17">
      <g>
       <use style="fill:#262626;stroke:#262626;" x="79.263594" xlink:href="#m62a807f816" y="81.15"/>
      </g>
     </g>
     <g id="text_17">
      <!-- 50 -->
      <g style="fill:#262626;" transform="translate(49.721094 86.088984)scale(0.13 -0.13)">
       <use xlink:href="#DejaVuSans-35"/>
       <use x="63.623047" xlink:href="#DejaVuSans-30"/>
      </g>
     </g>
    </g>
    <g id="ytick_8">
     <g id="line2d_18">
      <g>
       <use style="fill:#262626;stroke:#262626;" x="79.263594" xlink:href="#m62a807f816" y="47.175"/>
      </g>
     </g>
     <g id="text_18">
      <!-- 75 -->
      <g style="fill:#262626;" transform="translate(49.721094 52.113984)scale(0.13 -0.13)">
       <use xlink:href="#DejaVuSans-37"/>
       <use x="63.623047" xlink:href="#DejaVuSans-35"/>
      </g>
     </g>
    </g>
    <g id="ytick_9">
     <g id="line2d_19">
      <g>
       <use style="fill:#262626;stroke:#262626;" x="79.263594" xlink:href="#m62a807f816" y="13.2"/>
      </g>
     </g>
     <g id="text_19">
      <!-- 100 -->
      <g style="fill:#262626;" transform="translate(41.449844 18.138984)scale(0.13 -0.13)">
       <use xlink:href="#DejaVuSans-31"/>
       <use x="63.623047" xlink:href="#DejaVuSans-30"/>
       <use x="127.246094" xlink:href="#DejaVuSans-30"/>
      </g>
     </g>
    </g>
    <g id="text_20">
     <!-- Change in # of Articles (%) -->
     <defs>
      <path d="M 64.40625 67.28125 
L 64.40625 56.890625 
Q 59.421875 61.53125 53.78125 63.8125 
Q 48.140625 66.109375 41.796875 66.109375 
Q 29.296875 66.109375 22.65625 58.46875 
Q 16.015625 50.828125 16.015625 36.375 
Q 16.015625 21.96875 22.65625 14.328125 
Q 29.296875 6.6875 41.796875 6.6875 
Q 48.140625 6.6875 53.78125 8.984375 
Q 59.421875 11.28125 64.40625 15.921875 
L 64.40625 5.609375 
Q 59.234375 2.09375 53.4375 0.328125 
Q 47.65625 -1.421875 41.21875 -1.421875 
Q 24.65625 -1.421875 15.125 8.703125 
Q 5.609375 18.84375 5.609375 36.375 
Q 5.609375 53.953125 15.125 64.078125 
Q 24.65625 74.21875 41.21875 74.21875 
Q 47.75 74.21875 53.53125 72.484375 
Q 59.328125 70.75 64.40625 67.28125 
z
" id="DejaVuSans-43"/>
      <path d="M 54.890625 33.015625 
L 54.890625 0 
L 45.90625 0 
L 45.90625 32.71875 
Q 45.90625 40.484375 42.875 44.328125 
Q 39.84375 48.1875 33.796875 48.1875 
Q 26.515625 48.1875 22.3125 43.546875 
Q 18.109375 38.921875 18.109375 30.90625 
L 18.109375 0 
L 9.078125 0 
L 9.078125 75.984375 
L 18.109375 75.984375 
L 18.109375 46.1875 
Q 21.34375 51.125 25.703125 53.5625 
Q 30.078125 56 35.796875 56 
Q 45.21875 56 50.046875 50.171875 
Q 54.890625 44.34375 54.890625 33.015625 
z
" id="DejaVuSans-68"/>
      <path d="M 45.40625 27.984375 
Q 45.40625 37.75 41.375 43.109375 
Q 37.359375 48.484375 30.078125 48.484375 
Q 22.859375 48.484375 18.828125 43.109375 
Q 14.796875 37.75 14.796875 27.984375 
Q 14.796875 18.265625 18.828125 12.890625 
Q 22.859375 7.515625 30.078125 7.515625 
Q 37.359375 7.515625 41.375 12.890625 
Q 45.40625 18.265625 45.40625 27.984375 
z
M 54.390625 6.78125 
Q 54.390625 -7.171875 48.1875 -13.984375 
Q 42 -20.796875 29.203125 -20.796875 
Q 24.46875 -20.796875 20.265625 -20.09375 
Q 16.0625 -19.390625 12.109375 -17.921875 
L 12.109375 -9.1875 
Q 16.0625 -11.328125 19.921875 -12.34375 
Q 23.78125 -13.375 27.78125 -13.375 
Q 36.625 -13.375 41.015625 -8.765625 
Q 45.40625 -4.15625 45.40625 5.171875 
L 45.40625 9.625 
Q 42.625 4.78125 38.28125 2.390625 
Q 33.9375 0 27.875 0 
Q 17.828125 0 11.671875 7.65625 
Q 5.515625 15.328125 5.515625 27.984375 
Q 5.515625 40.671875 11.671875 48.328125 
Q 17.828125 56 27.875 56 
Q 33.9375 56 38.28125 53.609375 
Q 42.625 51.21875 45.40625 46.390625 
L 45.40625 54.6875 
L 54.390625 54.6875 
z
" id="DejaVuSans-67"/>
      <path d="M 51.125 44 
L 36.921875 44 
L 32.8125 27.6875 
L 47.125 27.6875 
z
M 43.796875 71.78125 
L 38.71875 51.515625 
L 52.984375 51.515625 
L 58.109375 71.78125 
L 65.921875 71.78125 
L 60.890625 51.515625 
L 76.125 51.515625 
L 76.125 44 
L 58.984375 44 
L 54.984375 27.6875 
L 70.515625 27.6875 
L 70.515625 20.21875 
L 53.078125 20.21875 
L 48 0 
L 40.1875 0 
L 45.21875 20.21875 
L 30.90625 20.21875 
L 25.875 0 
L 18.015625 0 
L 23.09375 20.21875 
L 7.71875 20.21875 
L 7.71875 27.6875 
L 24.90625 27.6875 
L 29 44 
L 13.28125 44 
L 13.28125 51.515625 
L 30.90625 51.515625 
L 35.890625 71.78125 
z
" id="DejaVuSans-23"/>
      <path d="M 37.109375 75.984375 
L 37.109375 68.5 
L 28.515625 68.5 
Q 23.6875 68.5 21.796875 66.546875 
Q 19.921875 64.59375 19.921875 59.515625 
L 19.921875 54.6875 
L 34.71875 54.6875 
L 34.71875 47.703125 
L 19.921875 47.703125 
L 19.921875 0 
L 10.890625 0 
L 10.890625 47.703125 
L 2.296875 47.703125 
L 2.296875 54.6875 
L 10.890625 54.6875 
L 10.890625 58.5 
Q 10.890625 67.625 15.140625 71.796875 
Q 19.390625 75.984375 28.609375 75.984375 
z
" id="DejaVuSans-66"/>
      <path d="M 34.1875 63.1875 
L 20.796875 26.90625 
L 47.609375 26.90625 
z
M 28.609375 72.90625 
L 39.796875 72.90625 
L 67.578125 0 
L 57.328125 0 
L 50.6875 18.703125 
L 17.828125 18.703125 
L 11.1875 0 
L 0.78125 0 
z
" id="DejaVuSans-41"/>
      <path d="M 44.28125 53.078125 
L 44.28125 44.578125 
Q 40.484375 46.53125 36.375 47.5 
Q 32.28125 48.484375 27.875 48.484375 
Q 21.1875 48.484375 17.84375 46.4375 
Q 14.5 44.390625 14.5 40.28125 
Q 14.5 37.15625 16.890625 35.375 
Q 19.28125 33.59375 26.515625 31.984375 
L 29.59375 31.296875 
Q 39.15625 29.25 43.1875 25.515625 
Q 47.21875 21.78125 47.21875 15.09375 
Q 47.21875 7.46875 41.1875 3.015625 
Q 35.15625 -1.421875 24.609375 -1.421875 
Q 20.21875 -1.421875 15.453125 -0.5625 
Q 10.6875 0.296875 5.421875 2 
L 5.421875 11.28125 
Q 10.40625 8.6875 15.234375 7.390625 
Q 20.0625 6.109375 24.8125 6.109375 
Q 31.15625 6.109375 34.5625 8.28125 
Q 37.984375 10.453125 37.984375 14.40625 
Q 37.984375 18.0625 35.515625 20.015625 
Q 33.0625 21.96875 24.703125 23.78125 
L 21.578125 24.515625 
Q 13.234375 26.265625 9.515625 29.90625 
Q 5.8125 33.546875 5.8125 39.890625 
Q 5.8125 47.609375 11.28125 51.796875 
Q 16.75 56 26.8125 56 
Q 31.78125 56 36.171875 55.265625 
Q 40.578125 54.546875 44.28125 53.078125 
z
" id="DejaVuSans-73"/>
      <path d="M 31 75.875 
Q 24.46875 64.65625 21.28125 53.65625 
Q 18.109375 42.671875 18.109375 31.390625 
Q 18.109375 20.125 21.3125 9.0625 
Q 24.515625 -2 31 -13.1875 
L 23.1875 -13.1875 
Q 15.875 -1.703125 12.234375 9.375 
Q 8.59375 20.453125 8.59375 31.390625 
Q 8.59375 42.28125 12.203125 53.3125 
Q 15.828125 64.359375 23.1875 75.875 
z
" id="DejaVuSans-28"/>
      <path d="M 72.703125 32.078125 
Q 68.453125 32.078125 66.03125 28.46875 
Q 63.625 24.859375 63.625 18.40625 
Q 63.625 12.0625 66.03125 8.421875 
Q 68.453125 4.78125 72.703125 4.78125 
Q 76.859375 4.78125 79.265625 8.421875 
Q 81.6875 12.0625 81.6875 18.40625 
Q 81.6875 24.8125 79.265625 28.4375 
Q 76.859375 32.078125 72.703125 32.078125 
z
M 72.703125 38.28125 
Q 80.421875 38.28125 84.953125 32.90625 
Q 89.5 27.546875 89.5 18.40625 
Q 89.5 9.28125 84.9375 3.921875 
Q 80.375 -1.421875 72.703125 -1.421875 
Q 64.890625 -1.421875 60.34375 3.921875 
Q 55.8125 9.28125 55.8125 18.40625 
Q 55.8125 27.59375 60.375 32.9375 
Q 64.9375 38.28125 72.703125 38.28125 
z
M 22.3125 68.015625 
Q 18.109375 68.015625 15.6875 64.375 
Q 13.28125 60.75 13.28125 54.390625 
Q 13.28125 47.953125 15.671875 44.328125 
Q 18.0625 40.71875 22.3125 40.71875 
Q 26.5625 40.71875 28.96875 44.328125 
Q 31.390625 47.953125 31.390625 54.390625 
Q 31.390625 60.6875 28.953125 64.34375 
Q 26.515625 68.015625 22.3125 68.015625 
z
M 66.40625 74.21875 
L 74.21875 74.21875 
L 28.609375 -1.421875 
L 20.796875 -1.421875 
z
M 22.3125 74.21875 
Q 30.03125 74.21875 34.609375 68.875 
Q 39.203125 63.53125 39.203125 54.390625 
Q 39.203125 45.171875 34.640625 39.84375 
Q 30.078125 34.515625 22.3125 34.515625 
Q 14.546875 34.515625 10.03125 39.859375 
Q 5.515625 45.21875 5.515625 54.390625 
Q 5.515625 63.484375 10.046875 68.84375 
Q 14.59375 74.21875 22.3125 74.21875 
z
" id="DejaVuSans-25"/>
      <path d="M 8.015625 75.875 
L 15.828125 75.875 
Q 23.140625 64.359375 26.78125 53.3125 
Q 30.421875 42.28125 30.421875 31.390625 
Q 30.421875 20.453125 26.78125 9.375 
Q 23.140625 -1.703125 15.828125 -13.1875 
L 8.015625 -13.1875 
Q 14.5 -2 17.703125 9.0625 
Q 20.90625 20.125 20.90625 31.390625 
Q 20.90625 42.671875 17.703125 53.65625 
Q 14.5 64.65625 8.015625 75.875 
z
" id="DejaVuSans-29"/>
     </defs>
     <g style="fill:#262626;" transform="translate(22.396875 285.00625)rotate(-90)scale(0.2 -0.2)">
      <use xlink:href="#DejaVuSans-43"/>
      <use x="69.824219" xlink:href="#DejaVuSans-68"/>
      <use x="133.203125" xlink:href="#DejaVuSans-61"/>
      <use x="194.482422" xlink:href="#DejaVuSans-6e"/>
      <use x="257.861328" xlink:href="#DejaVuSans-67"/>
      <use x="321.337891" xlink:href="#DejaVuSans-65"/>
      <use x="382.861328" xlink:href="#DejaVuSans-20"/>
      <use x="414.648438" xlink:href="#DejaVuSans-69"/>
      <use x="442.431641" xlink:href="#DejaVuSans-6e"/>
      <use x="505.810547" xlink:href="#DejaVuSans-20"/>
      <use x="537.597656" xlink:href="#DejaVuSans-23"/>
      <use x="621.386719" xlink:href="#DejaVuSans-20"/>
      <use x="653.173828" xlink:href="#DejaVuSans-6f"/>
      <use x="714.355469" xlink:href="#DejaVuSans-66"/>
      <use x="749.560547" xlink:href="#DejaVuSans-20"/>
      <use x="781.347656" xlink:href="#DejaVuSans-41"/>
      <use x="849.755859" xlink:href="#DejaVuSans-72"/>
      <use x="890.869141" xlink:href="#DejaVuSans-74"/>
      <use x="930.078125" xlink:href="#DejaVuSans-69"/>
      <use x="957.861328" xlink:href="#DejaVuSans-63"/>
      <use x="1012.841797" xlink:href="#DejaVuSans-6c"/>
      <use x="1040.625" xlink:href="#DejaVuSans-65"/>
      <use x="1102.148438" xlink:href="#DejaVuSans-73"/>
      <use x="1154.248047" xlink:href="#DejaVuSans-20"/>
      <use x="1186.035156" xlink:href="#DejaVuSans-28"/>
      <use x="1225.048828" xlink:href="#DejaVuSans-25"/>
      <use x="1320.068359" xlink:href="#DejaVuSans-29"/>
     </g>
    </g>
   </g>
   <g id="PolyCollection_2">
    <defs>
     <path d="M 49.968594 -192.037813 
L 49.968594 -192.037813 
L 54.505866 -192.037812 
L 59.043139 -192.037812 
L 63.580412 -192.037812 
L 68.117685 -192.037812 
L 72.654957 -192.037812 
L 77.19223 -192.037812 
L 81.729503 -192.037812 
L 86.266776 -192.037808 
L 90.804048 -192.037777 
L 95.341321 -192.037583 
L 99.878594 -192.036558 
L 104.415866 -192.032043 
L 108.953139 -192.015475 
L 113.490412 -191.965005 
L 118.027685 -191.837846 
L 122.564957 -191.574012 
L 127.10223 -191.124432 
L 131.639503 -190.491735 
L 136.176776 -189.738042 
L 140.714048 -188.949557 
L 145.251321 -188.244331 
L 149.788594 -187.836547 
L 154.325866 -187.939529 
L 158.863139 -188.367438 
L 163.400412 -188.165204 
L 167.937685 -187.591411 
L 172.474957 -188.391812 
L 177.01223 -190.429877 
L 181.549503 -192.714199 
L 186.086776 -194.448688 
L 190.624048 -194.769862 
L 195.161321 -193.005565 
L 199.698594 -189.848795 
L 204.235866 -186.889902 
L 208.773139 -185.671756 
L 213.310412 -187.763712 
L 217.847685 -194.70097 
L 222.384957 -206.973466 
L 226.92223 -223.017206 
L 231.459503 -239.277196 
L 235.996776 -250.839687 
L 240.534048 -252.487566 
L 245.071321 -240.633942 
L 249.608594 -215.263823 
L 254.145866 -180.495811 
L 258.683139 -143.742466 
L 263.220412 -113.940877 
L 267.757685 -97.755292 
L 272.294957 -96.687253 
L 276.83223 -107.650032 
L 281.369503 -125.25744 
L 285.906776 -144.14032 
L 290.444048 -160.525426 
L 294.981321 -172.771442 
L 299.518594 -180.954039 
L 304.055866 -185.988243 
L 308.593139 -188.893136 
L 313.130412 -190.473418 
L 317.667685 -191.284011 
L 322.204957 -191.678269 
L 326.74223 -191.862358 
L 331.279503 -191.946464 
L 335.816776 -191.985918 
L 340.354048 -192.00654 
L 344.891321 -192.018915 
L 349.428594 -192.026888 
L 353.965866 -192.031964 
L 358.503139 -192.034992 
L 363.040412 -192.03662 
L 367.577685 -192.037381 
L 372.114957 -192.037682 
L 376.65223 -192.03778 
L 381.189503 -192.037806 
L 385.726776 -192.037811 
L 390.264048 -192.037812 
L 394.801321 -192.037812 
L 399.338594 -192.037812 
L 403.875866 -192.037812 
L 408.413139 -192.037812 
L 412.950412 -192.037812 
L 417.487685 -192.037813 
L 422.024957 -192.037813 
L 426.56223 -192.037813 
L 431.099503 -192.037813 
L 435.636776 -192.037813 
L 440.174048 -192.037813 
L 444.711321 -192.037813 
L 449.248594 -192.037813 
L 453.785866 -192.037813 
L 458.323139 -192.037813 
L 462.860412 -192.037813 
L 467.397685 -192.037813 
L 471.934957 -192.037813 
L 476.47223 -192.037813 
L 481.009503 -192.037813 
L 485.546776 -192.037813 
L 490.084048 -192.037813 
L 494.621321 -192.037813 
L 499.158594 -192.037813 
L 499.158594 -192.037813 
L 499.158594 -192.037813 
L 494.621321 -192.037813 
L 490.084048 -192.037813 
L 485.546776 -192.037813 
L 481.009503 -192.037813 
L 476.47223 -192.037813 
L 471.934957 -192.037813 
L 467.397685 -192.037813 
L 462.860412 -192.037813 
L 458.323139 -192.037813 
L 453.785866 -192.037813 
L 449.248594 -192.037813 
L 444.711321 -192.037813 
L 440.174048 -192.037813 
L 435.636776 -192.037813 
L 431.099503 -192.037813 
L 426.56223 -192.037813 
L 422.024957 -192.037813 
L 417.487685 -192.037813 
L 412.950412 -192.037813 
L 408.413139 -192.037813 
L 403.875866 -192.037813 
L 399.338594 -192.037813 
L 394.801321 -192.037813 
L 390.264048 -192.037813 
L 385.726776 -192.037814 
L 381.189503 -192.037823 
L 376.65223 -192.037861 
L 372.114957 -192.038005 
L 367.577685 -192.038438 
L 363.040412 -192.039515 
L 358.503139 -192.041762 
L 353.965866 -192.04583 
L 349.428594 -192.052492 
L 344.891321 -192.062708 
L 340.354048 -192.077666 
L 335.816776 -192.098834 
L 331.279503 -192.127955 
L 326.74223 -192.165406 
L 322.204957 -192.202979 
L 317.667685 -192.207202 
L 313.130412 -192.085991 
L 308.593139 -191.625491 
L 304.055866 -190.408238 
L 299.518594 -187.780314 
L 294.981321 -182.946889 
L 290.444048 -175.201252 
L 285.906776 -164.282623 
L 281.369503 -150.957612 
L 276.83223 -137.709194 
L 272.294957 -128.88183 
L 267.757685 -129.569542 
L 263.220412 -143.434793 
L 258.683139 -170.717831 
L 254.145866 -207.3552 
L 249.608594 -244.991634 
L 245.071321 -273.583845 
L 240.534048 -286.38262 
L 235.996776 -282.632065 
L 231.459503 -266.901119 
L 226.92223 -246.371972 
L 222.384957 -227.600904 
L 217.847685 -214.229236 
L 213.310412 -206.841307 
L 208.773139 -204.236326 
L 204.235866 -204.442379 
L 199.698594 -205.441965 
L 195.161321 -206.008496 
L 190.624048 -205.974096 
L 186.086776 -205.251894 
L 181.549503 -203.37955 
L 177.01223 -200.630893 
L 172.474957 -197.918922 
L 167.937685 -195.874722 
L 163.400412 -195.179057 
L 158.863139 -197.188061 
L 154.325866 -200.782284 
L 149.788594 -203.409556 
L 145.251321 -203.886764 
L 140.714048 -202.375238 
L 136.176776 -199.748783 
L 131.639503 -196.974777 
L 127.10223 -194.73702 
L 122.564957 -193.288686 
L 118.027685 -192.526069 
L 113.490412 -192.197643 
L 108.953139 -192.081585 
L 104.415866 -192.047838 
L 99.878594 -192.039736 
L 95.341321 -192.038123 
L 90.804048 -192.037855 
L 86.266776 -192.037818 
L 81.729503 -192.037813 
L 77.19223 -192.037813 
L 72.654957 -192.037813 
L 68.117685 -192.037813 
L 63.580412 -192.037813 
L 59.043139 -192.037813 
L 54.505866 -192.037813 
L 49.968594 -192.037813 
z
" id="md7a1ebd596" style="stroke:#4c72b0;stroke-opacity:0.2;"/>
    </defs>
    <g clip-path="url(#p2ab3cd00e2)">
     <use style="fill:#4c72b0;fill-opacity:0.2;stroke:#4c72b0;stroke-opacity:0.2;" x="0" xlink:href="#md7a1ebd596" y="341.137812"/>
    </g>
   </g>
   <g id="patch_3">
    <path d="M 79.263594 285 
L 79.263594 13.2 
" style="fill:none;stroke:#000000;stroke-linecap:square;stroke-linejoin:miter;stroke-width:0.8;"/>
   </g>
   <g id="patch_4">
    <path d="M 79.263594 285 
L 469.863594 285 
" style="fill:none;stroke:#000000;stroke-linecap:square;stroke-linejoin:miter;stroke-width:0.8;"/>
   </g>
   <g id="line2d_20">
    <path clip-path="url(#p2ab3cd00e2)" d="M 49.968594 149.1 
L 54.505866 149.1 
L 59.043139 149.1 
L 63.580412 149.1 
L 68.117685 149.1 
L 72.654957 149.1 
L 77.19223 149.1 
L 81.729503 149.1 
L 86.266776 149.1 
L 90.804048 149.099997 
L 95.341321 149.09996 
L 99.878594 149.099666 
L 104.415866 149.097872 
L 108.953139 149.089282 
L 113.490412 149.056489 
L 118.027685 148.955855 
L 122.564957 148.706464 
L 127.10223 148.207086 
L 131.639503 147.404557 
L 136.176776 146.3944 
L 140.714048 145.475415 
L 145.251321 145.072265 
L 149.788594 145.514761 
L 154.325866 146.776906 
L 158.863139 148.360063 
L 163.400412 149.465682 
L 167.937685 149.404746 
L 172.474957 147.982445 
L 177.01223 145.607427 
L 181.549503 143.090938 
L 186.086776 141.287521 
L 190.624048 140.765833 
L 195.161321 141.630782 
L 199.698594 143.492432 
L 204.235866 145.471672 
L 208.773139 146.183771 
L 213.310412 143.835303 
L 217.847685 136.67271 
L 222.384957 123.850628 
L 226.92223 106.443223 
L 231.459503 88.048655 
L 235.996776 74.401936 
L 240.534048 71.70272 
L 245.071321 84.028919 
L 249.608594 111.010084 
L 254.145866 147.212307 
L 258.683139 183.907664 
L 263.220412 212.449977 
L 267.757685 227.475396 
L 272.294957 228.353271 
L 276.83223 218.4582 
L 281.369503 203.030287 
L 285.906776 186.926341 
L 290.444048 173.274473 
L 294.981321 163.278647 
L 299.518594 156.770636 
L 304.055866 152.939572 
L 308.593139 150.878499 
L 313.130412 149.858108 
L 317.667685 149.392206 
L 322.204957 149.197188 
L 326.74223 149.12393 
L 331.279503 149.100603 
L 335.816776 149.095437 
L 340.354048 149.095709 
L 344.891321 149.097001 
L 349.428594 149.098122 
L 353.965866 149.098916 
L 358.503139 149.099436 
L 363.040412 149.099745 
L 367.577685 149.099903 
L 372.114957 149.099969 
L 376.65223 149.099992 
L 381.189503 149.099998 
L 385.726776 149.1 
L 390.264048 149.1 
L 394.801321 149.1 
L 399.338594 149.1 
L 403.875866 149.1 
L 408.413139 149.1 
L 412.950412 149.1 
L 417.487685 149.1 
L 422.024957 149.1 
L 426.56223 149.1 
L 431.099503 149.1 
L 435.636776 149.1 
L 440.174048 149.1 
L 444.711321 149.1 
L 449.248594 149.1 
L 453.785866 149.1 
L 458.323139 149.1 
L 462.860412 149.1 
L 467.397685 149.1 
L 471.934957 149.1 
L 476.47223 149.1 
L 481.009503 149.1 
L 485.546776 149.1 
L 490.084048 149.1 
L 492.53625 149.1 
" style="fill:none;stroke:#4c72b0;stroke-linecap:square;stroke-width:1.5;"/>
   </g>
  </g>
 </g>
 <defs>
  <clipPath id="p2ab3cd00e2">
   <rect height="271.8" width="390.6" x="79.263594" y="13.2"/>
  </clipPath>
 </defs>
</svg>
