<?xml version="1.0" encoding="utf-8" standalone="no"?>
<!DOCTYPE svg PUBLIC "-//W3C//DTD SVG 1.1//EN"
  "http://www.w3.org/Graphics/SVG/1.1/DTD/svg11.dtd">
<svg height="274.003125pt" version="1.1" viewBox="0 0 395.019375 274.003125" width="395.019375pt" xmlns="http://www.w3.org/2000/svg" xmlns:xlink="http://www.w3.org/1999/xlink">
 <metadata>
  <rdf:RDF xmlns:cc="http://creativecommons.org/ns#" xmlns:dc="http://purl.org/dc/elements/1.1/" xmlns:rdf="http://www.w3.org/1999/02/22-rdf-syntax-ns#">
   <cc:Work>
    <dc:type rdf:resource="http://purl.org/dc/dcmitype/StillImage"/>
    <dc:date>2022-01-06T12:15:58.296011</dc:date>
    <dc:format>image/svg+xml</dc:format>
    <dc:creator>
     <cc:Agent>
      <dc:title>Matplotlib v3.4.2, https://matplotlib.org/</dc:title>
     </cc:Agent>
    </dc:creator>
   </cc:Work>
  </rdf:RDF>
 </metadata>
 <defs>
  <style type="text/css">*{stroke-linecap:butt;stroke-linejoin:round;}</style>
 </defs>
 <g id="figure_1">
  <g id="patch_1">
   <path d="M 0 274.003125 
L 395.019375 274.003125 
L 395.019375 0 
L 0 0 
z
" style="fill:none;"/>
  </g>
  <g id="axes_1">
   <g id="patch_2">
    <path d="M 53.019375 224.64 
L 387.819375 224.64 
L 387.819375 7.2 
L 53.019375 7.2 
z
" style="fill:#ffffff;"/>
   </g>
   <g id="PolyCollection_1">
    <defs>
     <path d="M 86.801904 -65.837077 
L 86.196846 -65.837077 
L 86.129007 -67.375034 
L 86.05079 -68.91299 
L 85.961842 -70.450946 
L 85.862106 -71.988902 
L 85.751883 -73.526859 
L 85.631879 -75.064815 
L 85.503232 -76.602771 
L 85.367529 -78.140727 
L 85.226783 -79.678684 
L 85.08339 -81.21664 
L 84.940057 -82.754596 
L 84.799688 -84.292552 
L 84.665264 -85.830509 
L 84.539686 -87.368465 
L 84.425614 -88.906421 
L 84.325305 -90.444377 
L 84.240462 -91.982334 
L 84.172091 -93.52029 
L 84.120407 -95.058246 
L 84.084762 -96.596202 
L 84.063627 -98.134159 
L 84.054614 -99.672115 
L 84.05455 -101.210071 
L 84.059587 -102.748027 
L 84.065348 -104.285984 
L 84.067093 -105.82394 
L 84.059901 -107.361896 
L 84.038844 -108.899852 
L 83.999158 -110.437809 
L 83.936381 -111.975765 
L 83.84647 -113.513721 
L 83.725879 -115.051677 
L 83.571603 -116.589634 
L 83.381199 -118.12759 
L 83.15277 -119.665546 
L 82.884942 -121.203502 
L 82.576833 -122.741459 
L 82.228022 -124.279415 
L 81.83853 -125.817371 
L 81.408817 -127.355327 
L 80.9398 -128.893284 
L 80.432887 -130.43124 
L 79.890023 -131.969196 
L 79.31374 -133.507152 
L 78.707207 -135.045109 
L 78.074253 -136.583065 
L 77.419379 -138.121021 
L 76.747718 -139.658977 
L 76.064965 -141.196934 
L 75.377266 -142.73489 
L 74.691067 -144.272846 
L 74.012941 -145.810802 
L 73.349396 -147.348759 
L 72.706687 -148.886715 
L 72.090644 -150.424671 
L 71.506539 -151.962627 
L 70.95899 -153.500584 
L 70.45193 -155.03854 
L 69.988628 -156.576496 
L 69.571766 -158.114452 
L 69.203566 -159.652409 
L 68.885939 -161.190365 
L 68.620663 -162.728321 
L 68.409536 -164.266277 
L 68.254516 -165.804234 
L 68.157806 -167.34219 
L 68.121885 -168.880146 
L 68.149466 -170.418102 
L 68.243384 -171.956059 
L 68.406421 -173.494015 
L 68.641073 -175.031971 
L 68.949285 -176.569927 
L 69.332168 -178.107884 
L 69.789726 -179.64584 
L 70.320623 -181.183796 
L 70.921999 -182.721752 
L 71.589363 -184.259709 
L 72.31658 -185.797665 
L 73.095943 -187.335621 
L 73.91834 -188.873577 
L 74.773508 -190.411534 
L 75.650352 -191.94949 
L 76.537316 -193.487446 
L 77.422774 -195.025402 
L 78.295434 -196.563359 
L 79.144704 -198.101315 
L 79.961029 -199.639271 
L 80.73616 -201.177227 
L 81.463348 -202.715184 
L 82.137467 -204.25314 
L 82.755045 -205.791096 
L 83.314231 -207.329052 
L 83.81469 -208.867009 
L 84.257439 -210.404965 
L 84.644659 -211.942921 
L 84.979462 -213.480877 
L 85.265668 -215.018834 
L 85.507573 -216.55679 
L 85.709737 -218.094746 
L 87.289013 -218.094746 
L 87.289013 -218.094746 
L 87.491177 -216.55679 
L 87.733082 -215.018834 
L 88.019288 -213.480877 
L 88.354091 -211.942921 
L 88.741311 -210.404965 
L 89.18406 -208.867009 
L 89.684519 -207.329052 
L 90.243705 -205.791096 
L 90.861283 -204.25314 
L 91.535402 -202.715184 
L 92.26259 -201.177227 
L 93.037721 -199.639271 
L 93.854046 -198.101315 
L 94.703316 -196.563359 
L 95.575976 -195.025402 
L 96.461434 -193.487446 
L 97.348398 -191.94949 
L 98.225242 -190.411534 
L 99.08041 -188.873577 
L 99.902807 -187.335621 
L 100.68217 -185.797665 
L 101.409387 -184.259709 
L 102.076751 -182.721752 
L 102.678127 -181.183796 
L 103.209024 -179.64584 
L 103.666582 -178.107884 
L 104.049465 -176.569927 
L 104.357677 -175.031971 
L 104.592329 -173.494015 
L 104.755366 -171.956059 
L 104.849284 -170.418102 
L 104.876865 -168.880146 
L 104.840944 -167.34219 
L 104.744234 -165.804234 
L 104.589214 -164.266277 
L 104.378087 -162.728321 
L 104.112811 -161.190365 
L 103.795184 -159.652409 
L 103.426984 -158.114452 
L 103.010122 -156.576496 
L 102.54682 -155.03854 
L 102.03976 -153.500584 
L 101.492211 -151.962627 
L 100.908106 -150.424671 
L 100.292063 -148.886715 
L 99.649354 -147.348759 
L 98.985809 -145.810802 
L 98.307683 -144.272846 
L 97.621484 -142.73489 
L 96.933785 -141.196934 
L 96.251032 -139.658977 
L 95.579371 -138.121021 
L 94.924497 -136.583065 
L 94.291543 -135.045109 
L 93.68501 -133.507152 
L 93.108727 -131.969196 
L 92.565863 -130.43124 
L 92.05895 -128.893284 
L 91.589933 -127.355327 
L 91.16022 -125.817371 
L 90.770728 -124.279415 
L 90.421917 -122.741459 
L 90.113808 -121.203502 
L 89.84598 -119.665546 
L 89.617551 -118.12759 
L 89.427147 -116.589634 
L 89.272871 -115.051677 
L 89.15228 -113.513721 
L 89.062369 -111.975765 
L 88.999592 -110.437809 
L 88.959906 -108.899852 
L 88.938849 -107.361896 
L 88.931657 -105.82394 
L 88.933402 -104.285984 
L 88.939163 -102.748027 
L 88.9442 -101.210071 
L 88.944136 -99.672115 
L 88.935123 -98.134159 
L 88.913988 -96.596202 
L 88.878343 -95.058246 
L 88.826659 -93.52029 
L 88.758288 -91.982334 
L 88.673445 -90.444377 
L 88.573136 -88.906421 
L 88.459064 -87.368465 
L 88.333486 -85.830509 
L 88.199062 -84.292552 
L 88.058693 -82.754596 
L 87.91536 -81.21664 
L 87.771967 -79.678684 
L 87.631221 -78.140727 
L 87.495518 -76.602771 
L 87.366871 -75.064815 
L 87.246867 -73.526859 
L 87.136644 -71.988902 
L 87.036908 -70.450946 
L 86.94796 -68.91299 
L 86.869743 -67.375034 
L 86.801904 -65.837077 
z
" id="m5244357790" style="stroke:#5c5c5c;stroke-width:1.5;"/>
    </defs>
    <g clip-path="url(#p3f71473dca)">
     <use style="fill:#71aec0;stroke:#5c5c5c;stroke-width:1.5;" x="0" xlink:href="#m5244357790" y="274.003125"/>
    </g>
   </g>
   <g id="PolyCollection_2">
    <defs>
     <path d="M 153.643914 -59.246761 
L 153.274836 -59.246761 
L 153.230008 -60.973458 
L 153.177641 -62.700155 
L 153.117346 -64.426852 
L 153.048924 -66.153549 
L 152.972395 -67.880246 
L 152.888024 -69.606943 
L 152.796314 -71.33364 
L 152.697994 -73.060337 
L 152.593966 -74.787034 
L 152.485239 -76.513731 
L 152.372829 -78.240428 
L 152.257647 -79.967125 
L 152.140371 -81.693822 
L 152.021322 -83.420519 
L 151.900349 -85.147216 
L 151.776743 -86.873913 
L 151.649184 -88.60061 
L 151.515745 -90.327307 
L 151.373948 -92.054004 
L 151.220887 -93.780701 
L 151.053404 -95.507398 
L 150.868319 -97.234095 
L 150.662693 -98.960792 
L 150.434109 -100.687489 
L 150.180947 -102.414186 
L 149.902622 -104.140883 
L 149.599764 -105.86758 
L 149.274325 -107.594277 
L 148.929584 -109.320974 
L 148.570045 -111.047671 
L 148.201238 -112.774368 
L 147.829415 -114.501065 
L 147.461171 -116.227762 
L 147.10302 -117.954459 
L 146.760946 -119.681156 
L 146.439974 -121.407853 
L 146.143797 -123.13455 
L 145.874493 -124.861247 
L 145.632345 -126.587944 
L 145.415804 -128.314641 
L 145.221579 -130.041338 
L 145.044858 -131.768035 
L 144.879649 -133.494732 
L 144.719193 -135.221429 
L 144.556441 -136.948126 
L 144.384538 -138.674823 
L 144.197281 -140.40152 
L 143.989519 -142.128217 
L 143.757462 -143.854914 
L 143.498885 -145.581611 
L 143.213215 -147.308307 
L 142.901506 -149.035004 
L 142.566308 -150.761701 
L 142.211471 -152.488398 
L 141.841884 -154.215095 
L 141.463201 -155.941792 
L 141.081571 -157.668489 
L 140.7034 -159.395186 
L 140.335161 -161.121883 
L 139.983263 -162.84858 
L 139.653982 -164.575277 
L 139.353433 -166.301974 
L 139.087586 -168.028671 
L 138.862288 -169.755368 
L 138.683282 -171.482065 
L 138.556195 -173.208762 
L 138.486478 -174.935459 
L 138.479288 -176.662156 
L 138.539321 -178.388853 
L 138.670584 -180.11555 
L 138.876139 -181.842247 
L 139.157831 -183.568944 
L 139.516033 -185.295641 
L 139.949435 -187.022338 
L 140.454892 -188.749035 
L 141.027374 -190.475732 
L 141.660011 -192.202429 
L 142.344243 -193.929126 
L 143.070077 -195.655823 
L 143.82643 -197.38252 
L 144.601532 -199.109217 
L 145.383373 -200.835914 
L 146.160157 -202.562611 
L 146.920729 -204.289308 
L 147.65496 -206.016005 
L 148.354057 -207.742702 
L 149.010794 -209.469399 
L 149.619643 -211.196096 
L 150.176819 -212.922793 
L 150.680232 -214.64949 
L 151.129373 -216.376187 
L 151.525132 -218.102884 
L 151.869585 -219.829581 
L 152.165745 -221.556278 
L 152.417319 -223.282975 
L 152.628467 -225.009672 
L 152.80358 -226.736369 
L 152.947093 -228.463066 
L 153.063325 -230.189763 
L 153.855425 -230.189763 
L 153.855425 -230.189763 
L 153.971657 -228.463066 
L 154.11517 -226.736369 
L 154.290283 -225.009672 
L 154.501431 -223.282975 
L 154.753005 -221.556278 
L 155.049165 -219.829581 
L 155.393618 -218.102884 
L 155.789377 -216.376187 
L 156.238518 -214.64949 
L 156.741931 -212.922793 
L 157.299107 -211.196096 
L 157.907956 -209.469399 
L 158.564693 -207.742702 
L 159.26379 -206.016005 
L 159.998021 -204.289308 
L 160.758593 -202.562611 
L 161.535377 -200.835914 
L 162.317218 -199.109217 
L 163.09232 -197.38252 
L 163.848673 -195.655823 
L 164.574507 -193.929126 
L 165.258739 -192.202429 
L 165.891376 -190.475732 
L 166.463858 -188.749035 
L 166.969315 -187.022338 
L 167.402717 -185.295641 
L 167.760919 -183.568944 
L 168.042611 -181.842247 
L 168.248166 -180.11555 
L 168.379429 -178.388853 
L 168.439462 -176.662156 
L 168.432272 -174.935459 
L 168.362555 -173.208762 
L 168.235468 -171.482065 
L 168.056462 -169.755368 
L 167.831164 -168.028671 
L 167.565317 -166.301974 
L 167.264768 -164.575277 
L 166.935487 -162.84858 
L 166.583589 -161.121883 
L 166.21535 -159.395186 
L 165.837179 -157.668489 
L 165.455549 -155.941792 
L 165.076866 -154.215095 
L 164.707279 -152.488398 
L 164.352442 -150.761701 
L 164.017244 -149.035004 
L 163.705535 -147.308307 
L 163.419865 -145.581611 
L 163.161288 -143.854914 
L 162.929231 -142.128217 
L 162.721469 -140.40152 
L 162.534212 -138.674823 
L 162.362309 -136.948126 
L 162.199557 -135.221429 
L 162.039101 -133.494732 
L 161.873892 -131.768035 
L 161.697171 -130.041338 
L 161.502946 -128.314641 
L 161.286405 -126.587944 
L 161.044257 -124.861247 
L 160.774953 -123.13455 
L 160.478776 -121.407853 
L 160.157804 -119.681156 
L 159.81573 -117.954459 
L 159.457579 -116.227762 
L 159.089335 -114.501065 
L 158.717512 -112.774368 
L 158.348705 -111.047671 
L 157.989166 -109.320974 
L 157.644425 -107.594277 
L 157.318986 -105.86758 
L 157.016128 -104.140883 
L 156.737803 -102.414186 
L 156.484641 -100.687489 
L 156.256057 -98.960792 
L 156.050431 -97.234095 
L 155.865346 -95.507398 
L 155.697863 -93.780701 
L 155.544802 -92.054004 
L 155.403005 -90.327307 
L 155.269566 -88.60061 
L 155.142007 -86.873913 
L 155.018401 -85.147216 
L 154.897428 -83.420519 
L 154.778379 -81.693822 
L 154.661103 -79.967125 
L 154.545921 -78.240428 
L 154.433511 -76.513731 
L 154.324784 -74.787034 
L 154.220756 -73.060337 
L 154.122436 -71.33364 
L 154.030726 -69.606943 
L 153.946355 -67.880246 
L 153.869826 -66.153549 
L 153.801404 -64.426852 
L 153.741109 -62.700155 
L 153.688742 -60.973458 
L 153.643914 -59.246761 
z
" id="m13e47710d6" style="stroke:#5c5c5c;stroke-width:1.5;"/>
    </defs>
    <g clip-path="url(#p3f71473dca)">
     <use style="fill:#71aec0;stroke:#5c5c5c;stroke-width:1.5;" x="0" xlink:href="#m13e47710d6" y="274.003125"/>
    </g>
   </g>
   <g id="PolyCollection_3">
    <defs>
     <path d="M 220.758236 -80.735441 
L 220.080514 -80.735441 
L 219.989413 -82.230714 
L 219.881141 -83.725987 
L 219.754625 -85.22126 
L 219.609328 -86.716533 
L 219.445396 -88.211805 
L 219.263784 -89.707078 
L 219.06634 -91.202351 
L 218.85584 -92.697624 
L 218.635949 -94.192897 
L 218.411118 -95.68817 
L 218.186393 -97.183443 
L 217.967153 -98.678716 
L 217.758797 -100.173989 
L 217.566389 -101.669262 
L 217.394295 -103.164535 
L 217.245839 -104.659808 
L 217.123017 -106.155081 
L 217.026289 -107.650354 
L 216.954467 -109.145627 
L 216.904718 -110.6409 
L 216.872679 -112.136173 
L 216.852672 -113.631446 
L 216.83799 -115.126718 
L 216.821244 -116.621991 
L 216.794722 -118.117264 
L 216.750731 -119.612537 
L 216.681907 -121.10781 
L 216.58145 -122.603083 
L 216.443296 -124.098356 
L 216.262209 -125.593629 
L 216.03381 -127.088902 
L 215.754554 -128.584175 
L 215.421682 -130.079448 
L 215.033161 -131.574721 
L 214.58765 -133.069994 
L 214.084485 -134.565267 
L 213.523712 -136.06054 
L 212.906164 -137.555813 
L 212.233575 -139.051086 
L 211.508721 -140.546359 
L 210.735574 -142.041631 
L 209.919447 -143.536904 
L 209.067113 -145.032177 
L 208.186875 -146.52745 
L 207.288577 -148.022723 
L 206.383541 -149.517996 
L 205.484423 -151.013269 
L 204.604988 -152.508542 
L 203.75981 -154.003815 
L 202.963892 -155.499088 
L 202.232239 -156.994361 
L 201.579383 -158.489634 
L 201.018886 -159.984907 
L 200.562846 -161.48018 
L 200.221426 -162.975453 
L 200.00243 -164.470726 
L 199.910957 -165.965999 
L 199.949148 -167.461272 
L 200.116046 -168.956545 
L 200.407586 -170.451817 
L 200.81671 -171.94709 
L 201.333626 -173.442363 
L 201.946173 -174.937636 
L 202.640299 -176.432909 
L 203.40062 -177.928182 
L 204.211025 -179.423455 
L 205.055299 -180.918728 
L 205.917739 -182.414001 
L 206.783713 -183.909274 
L 207.640154 -185.404547 
L 208.47594 -186.89982 
L 209.282171 -188.395093 
L 210.052299 -189.890366 
L 210.782136 -191.385639 
L 211.469731 -192.880912 
L 212.115128 -194.376185 
L 212.720029 -195.871458 
L 213.287392 -197.36673 
L 213.820985 -198.862003 
L 214.32494 -200.357276 
L 214.803333 -201.852549 
L 215.259824 -203.347822 
L 215.697378 -204.843095 
L 216.118081 -206.338368 
L 216.523069 -207.833641 
L 216.912545 -209.328914 
L 217.285897 -210.824187 
L 217.641877 -212.31946 
L 217.978823 -213.814733 
L 218.294908 -215.310006 
L 218.588371 -216.805279 
L 218.857723 -218.300552 
L 219.101908 -219.795825 
L 219.320404 -221.291098 
L 219.513276 -222.786371 
L 219.681164 -224.281643 
L 219.825233 -225.776916 
L 219.947084 -227.272189 
L 220.048644 -228.767462 
L 220.790106 -228.767462 
L 220.790106 -228.767462 
L 220.891666 -227.272189 
L 221.013517 -225.776916 
L 221.157586 -224.281643 
L 221.325474 -222.786371 
L 221.518346 -221.291098 
L 221.736842 -219.795825 
L 221.981027 -218.300552 
L 222.250379 -216.805279 
L 222.543842 -215.310006 
L 222.859927 -213.814733 
L 223.196873 -212.31946 
L 223.552853 -210.824187 
L 223.926205 -209.328914 
L 224.315681 -207.833641 
L 224.720669 -206.338368 
L 225.141372 -204.843095 
L 225.578926 -203.347822 
L 226.035417 -201.852549 
L 226.51381 -200.357276 
L 227.017765 -198.862003 
L 227.551358 -197.36673 
L 228.118721 -195.871458 
L 228.723622 -194.376185 
L 229.369019 -192.880912 
L 230.056614 -191.385639 
L 230.786451 -189.890366 
L 231.556579 -188.395093 
L 232.36281 -186.89982 
L 233.198596 -185.404547 
L 234.055037 -183.909274 
L 234.921011 -182.414001 
L 235.783451 -180.918728 
L 236.627725 -179.423455 
L 237.43813 -177.928182 
L 238.198451 -176.432909 
L 238.892577 -174.937636 
L 239.505124 -173.442363 
L 240.02204 -171.94709 
L 240.431164 -170.451817 
L 240.722704 -168.956545 
L 240.889602 -167.461272 
L 240.927793 -165.965999 
L 240.83632 -164.470726 
L 240.617324 -162.975453 
L 240.275904 -161.48018 
L 239.819864 -159.984907 
L 239.259367 -158.489634 
L 238.606511 -156.994361 
L 237.874858 -155.499088 
L 237.07894 -154.003815 
L 236.233762 -152.508542 
L 235.354327 -151.013269 
L 234.455209 -149.517996 
L 233.550173 -148.022723 
L 232.651875 -146.52745 
L 231.771637 -145.032177 
L 230.919303 -143.536904 
L 230.103176 -142.041631 
L 229.330029 -140.546359 
L 228.605175 -139.051086 
L 227.932586 -137.555813 
L 227.315038 -136.06054 
L 226.754265 -134.565267 
L 226.2511 -133.069994 
L 225.805589 -131.574721 
L 225.417068 -130.079448 
L 225.084196 -128.584175 
L 224.80494 -127.088902 
L 224.576541 -125.593629 
L 224.395454 -124.098356 
L 224.2573 -122.603083 
L 224.156843 -121.10781 
L 224.088019 -119.612537 
L 224.044028 -118.117264 
L 224.017506 -116.621991 
L 224.00076 -115.126718 
L 223.986078 -113.631446 
L 223.966071 -112.136173 
L 223.934032 -110.6409 
L 223.884283 -109.145627 
L 223.812461 -107.650354 
L 223.715733 -106.155081 
L 223.592911 -104.659808 
L 223.444455 -103.164535 
L 223.272361 -101.669262 
L 223.079953 -100.173989 
L 222.871597 -98.678716 
L 222.652357 -97.183443 
L 222.427632 -95.68817 
L 222.202801 -94.192897 
L 221.98291 -92.697624 
L 221.77241 -91.202351 
L 221.574966 -89.707078 
L 221.393354 -88.211805 
L 221.229422 -86.716533 
L 221.084125 -85.22126 
L 220.957609 -83.725987 
L 220.849337 -82.230714 
L 220.758236 -80.735441 
z
" id="m706b44e736" style="stroke:#5c5c5c;stroke-width:1.5;"/>
    </defs>
    <g clip-path="url(#p3f71473dca)">
     <use style="fill:#71aec0;stroke:#5c5c5c;stroke-width:1.5;" x="0" xlink:href="#m706b44e736" y="274.003125"/>
    </g>
   </g>
   <g id="PolyCollection_4">
    <defs>
     <path d="M 287.635552 -81.553035 
L 287.123198 -81.553035 
L 287.046239 -83.324413 
L 286.952047 -85.095792 
L 286.838501 -86.86717 
L 286.70364 -88.638548 
L 286.545746 -90.409927 
L 286.363425 -92.181305 
L 286.15565 -93.952683 
L 285.921785 -95.724062 
L 285.661564 -97.49544 
L 285.375037 -99.266818 
L 285.062473 -101.038196 
L 284.724245 -102.809575 
L 284.360696 -104.580953 
L 283.972007 -106.352331 
L 283.558078 -108.12371 
L 283.118441 -109.895088 
L 282.652215 -111.666466 
L 282.158112 -113.437845 
L 281.634493 -115.209223 
L 281.079485 -116.980601 
L 280.491146 -118.75198 
L 279.867687 -120.523358 
L 279.207729 -122.294736 
L 278.510603 -124.066115 
L 277.776677 -125.837493 
L 277.00769 -127.608871 
L 276.207091 -129.38025 
L 275.380333 -131.151628 
L 274.535112 -132.923006 
L 273.681503 -134.694385 
L 272.831953 -136.465763 
L 272.001098 -138.237141 
L 271.205394 -140.00852 
L 270.462538 -141.779898 
L 269.790708 -143.551276 
L 269.207662 -145.322654 
L 268.729767 -147.094033 
L 268.371032 -148.865411 
L 268.142238 -150.636789 
L 268.050261 -152.408168 
L 268.097657 -154.179546 
L 268.282545 -155.950924 
L 268.598817 -157.722303 
L 269.036641 -159.493681 
L 269.583204 -161.265059 
L 270.223607 -163.036438 
L 270.941832 -164.807816 
L 271.721663 -166.579194 
L 272.547494 -168.350573 
L 273.404945 -170.121951 
L 274.281268 -171.893329 
L 275.165516 -173.664708 
L 276.048514 -175.436086 
L 276.92267 -177.207464 
L 277.781676 -178.978843 
L 278.620164 -180.750221 
L 279.433377 -182.521599 
L 280.216889 -184.292978 
L 280.966414 -186.064356 
L 281.677709 -187.835734 
L 282.34658 -189.607112 
L 282.968961 -191.378491 
L 283.541059 -193.149869 
L 284.059532 -194.921247 
L 284.521669 -196.692626 
L 284.925566 -198.464004 
L 285.270266 -200.235382 
L 285.555862 -202.006761 
L 285.783562 -203.778139 
L 285.955707 -205.549517 
L 286.075753 -207.320896 
L 286.148215 -209.092274 
L 286.178578 -210.863652 
L 286.173169 -212.635031 
L 286.138993 -214.406409 
L 286.083534 -216.177787 
L 286.014514 -217.949166 
L 285.939623 -219.720544 
L 285.866225 -221.491922 
L 285.80106 -223.263301 
L 285.749954 -225.034679 
L 285.717572 -226.806057 
L 285.707223 -228.577436 
L 285.720747 -230.348814 
L 285.758497 -232.120192 
L 285.819409 -233.89157 
L 285.901172 -235.662949 
L 286.000468 -237.434327 
L 286.113268 -239.205705 
L 286.235157 -240.977084 
L 286.361654 -242.748462 
L 286.488499 -244.51984 
L 286.611899 -246.291219 
L 286.728699 -248.062597 
L 286.836482 -249.833975 
L 286.933606 -251.605354 
L 287.01917 -253.376732 
L 287.092936 -255.14811 
L 287.155215 -256.919489 
L 287.603535 -256.919489 
L 287.603535 -256.919489 
L 287.665814 -255.14811 
L 287.73958 -253.376732 
L 287.825144 -251.605354 
L 287.922268 -249.833975 
L 288.030051 -248.062597 
L 288.146851 -246.291219 
L 288.270251 -244.51984 
L 288.397096 -242.748462 
L 288.523593 -240.977084 
L 288.645482 -239.205705 
L 288.758282 -237.434327 
L 288.857578 -235.662949 
L 288.939341 -233.89157 
L 289.000253 -232.120192 
L 289.038003 -230.348814 
L 289.051527 -228.577436 
L 289.041178 -226.806057 
L 289.008796 -225.034679 
L 288.95769 -223.263301 
L 288.892525 -221.491922 
L 288.819127 -219.720544 
L 288.744236 -217.949166 
L 288.675216 -216.177787 
L 288.619757 -214.406409 
L 288.585581 -212.635031 
L 288.580172 -210.863652 
L 288.610535 -209.092274 
L 288.682997 -207.320896 
L 288.803043 -205.549517 
L 288.975188 -203.778139 
L 289.202888 -202.006761 
L 289.488484 -200.235382 
L 289.833184 -198.464004 
L 290.237081 -196.692626 
L 290.699218 -194.921247 
L 291.217691 -193.149869 
L 291.789789 -191.378491 
L 292.41217 -189.607112 
L 293.081041 -187.835734 
L 293.792336 -186.064356 
L 294.541861 -184.292978 
L 295.325373 -182.521599 
L 296.138586 -180.750221 
L 296.977074 -178.978843 
L 297.83608 -177.207464 
L 298.710236 -175.436086 
L 299.593234 -173.664708 
L 300.477482 -171.893329 
L 301.353805 -170.121951 
L 302.211256 -168.350573 
L 303.037087 -166.579194 
L 303.816918 -164.807816 
L 304.535143 -163.036438 
L 305.175546 -161.265059 
L 305.722109 -159.493681 
L 306.159933 -157.722303 
L 306.476205 -155.950924 
L 306.661093 -154.179546 
L 306.708489 -152.408168 
L 306.616512 -150.636789 
L 306.387718 -148.865411 
L 306.028983 -147.094033 
L 305.551088 -145.322654 
L 304.968042 -143.551276 
L 304.296212 -141.779898 
L 303.553356 -140.00852 
L 302.757652 -138.237141 
L 301.926797 -136.465763 
L 301.077247 -134.694385 
L 300.223638 -132.923006 
L 299.378417 -131.151628 
L 298.551659 -129.38025 
L 297.75106 -127.608871 
L 296.982073 -125.837493 
L 296.248147 -124.066115 
L 295.551021 -122.294736 
L 294.891063 -120.523358 
L 294.267604 -118.75198 
L 293.679265 -116.980601 
L 293.124257 -115.209223 
L 292.600638 -113.437845 
L 292.106535 -111.666466 
L 291.640309 -109.895088 
L 291.200672 -108.12371 
L 290.786743 -106.352331 
L 290.398054 -104.580953 
L 290.034505 -102.809575 
L 289.696277 -101.038196 
L 289.383713 -99.266818 
L 289.097186 -97.49544 
L 288.836965 -95.724062 
L 288.6031 -93.952683 
L 288.395325 -92.181305 
L 288.213004 -90.409927 
L 288.05511 -88.638548 
L 287.920249 -86.86717 
L 287.806703 -85.095792 
L 287.712511 -83.324413 
L 287.635552 -81.553035 
z
" id="mcda2188730" style="stroke:#5c5c5c;stroke-width:1.5;"/>
    </defs>
    <g clip-path="url(#p3f71473dca)">
     <use style="fill:#71aec0;stroke:#5c5c5c;stroke-width:1.5;" x="0" xlink:href="#mcda2188730" y="274.003125"/>
    </g>
   </g>
   <g id="PolyCollection_5">
    <defs>
     <path d="M 354.714117 -110.513312 
L 353.964633 -110.513312 
L 353.848664 -111.467608 
L 353.704878 -112.421905 
L 353.529181 -113.376201 
L 353.317606 -114.330498 
L 353.066538 -115.284794 
L 352.772967 -116.239091 
L 352.434752 -117.193387 
L 352.050873 -118.147684 
L 351.621662 -119.10198 
L 351.148973 -120.056277 
L 350.636273 -121.010573 
L 350.088647 -121.96487 
L 349.512679 -122.919166 
L 348.916223 -123.873463 
L 348.308059 -124.827759 
L 347.697448 -125.782056 
L 347.093607 -126.736352 
L 346.505144 -127.690649 
L 345.939476 -128.644945 
L 345.402284 -129.599242 
L 344.897035 -130.553538 
L 344.424609 -131.507835 
L 343.983061 -132.462131 
L 343.567552 -133.416428 
L 343.170444 -134.370724 
L 342.78158 -135.325021 
L 342.388755 -136.279317 
L 341.978343 -137.233613 
L 341.536082 -138.18791 
L 341.047985 -139.142206 
L 340.501319 -140.096503 
L 339.885624 -141.050799 
L 339.193691 -142.005096 
L 338.422436 -142.959392 
L 337.573591 -143.913689 
L 336.65414 -144.867985 
L 335.676423 -145.822282 
L 334.657887 -146.776578 
L 333.620436 -147.730875 
L 332.589406 -148.685171 
L 331.592224 -149.639468 
L 330.656819 -150.593764 
L 329.809917 -151.548061 
L 329.07535 -152.502357 
L 328.472527 -153.456654 
L 328.015204 -154.41095 
L 327.71067 -155.365247 
L 327.559422 -156.319543 
L 327.555375 -157.27384 
L 327.686579 -158.228136 
L 327.936381 -159.182433 
L 328.284934 -160.136729 
L 328.710889 -161.091025 
L 329.19314 -162.045322 
L 329.712434 -162.999618 
L 330.252716 -163.953915 
L 330.802085 -164.908211 
L 331.353282 -165.862508 
L 331.903683 -166.816804 
L 332.454828 -167.771101 
L 333.011542 -168.725397 
L 333.58078 -169.679694 
L 334.170319 -170.63399 
L 334.787467 -171.588287 
L 335.437909 -172.542583 
L 336.124846 -173.49688 
L 336.848483 -174.451176 
L 337.605914 -175.405473 
L 338.391399 -176.359769 
L 339.196963 -177.314066 
L 340.013231 -178.268362 
L 340.830366 -179.222659 
L 341.638998 -180.176955 
L 342.431027 -181.131252 
L 343.200196 -182.085548 
L 343.9424 -183.039845 
L 344.655706 -183.994141 
L 345.340107 -184.948438 
L 345.997079 -185.902734 
L 346.629005 -186.85703 
L 347.238568 -187.811327 
L 347.828181 -188.765623 
L 348.399541 -189.71992 
L 348.953328 -190.674216 
L 349.489099 -191.628513 
L 350.005333 -192.582809 
L 350.499644 -193.537106 
L 350.969075 -194.491402 
L 351.410456 -195.445699 
L 351.820765 -196.399995 
L 352.197443 -197.354292 
L 352.538648 -198.308588 
L 352.843408 -199.262885 
L 353.111689 -200.217181 
L 353.344374 -201.171478 
L 353.54316 -202.125774 
L 353.710415 -203.080071 
L 353.849 -204.034367 
L 353.962074 -204.988664 
L 354.716676 -204.988664 
L 354.716676 -204.988664 
L 354.82975 -204.034367 
L 354.968335 -203.080071 
L 355.13559 -202.125774 
L 355.334376 -201.171478 
L 355.567061 -200.217181 
L 355.835342 -199.262885 
L 356.140102 -198.308588 
L 356.481307 -197.354292 
L 356.857985 -196.399995 
L 357.268294 -195.445699 
L 357.709675 -194.491402 
L 358.179106 -193.537106 
L 358.673417 -192.582809 
L 359.189651 -191.628513 
L 359.725422 -190.674216 
L 360.279209 -189.71992 
L 360.850569 -188.765623 
L 361.440182 -187.811327 
L 362.049745 -186.85703 
L 362.681671 -185.902734 
L 363.338643 -184.948438 
L 364.023044 -183.994141 
L 364.73635 -183.039845 
L 365.478554 -182.085548 
L 366.247723 -181.131252 
L 367.039752 -180.176955 
L 367.848384 -179.222659 
L 368.665519 -178.268362 
L 369.481787 -177.314066 
L 370.287351 -176.359769 
L 371.072836 -175.405473 
L 371.830267 -174.451176 
L 372.553904 -173.49688 
L 373.240841 -172.542583 
L 373.891283 -171.588287 
L 374.508431 -170.63399 
L 375.09797 -169.679694 
L 375.667208 -168.725397 
L 376.223922 -167.771101 
L 376.775067 -166.816804 
L 377.325468 -165.862508 
L 377.876665 -164.908211 
L 378.426034 -163.953915 
L 378.966316 -162.999618 
L 379.48561 -162.045322 
L 379.967861 -161.091025 
L 380.393816 -160.136729 
L 380.742369 -159.182433 
L 380.992171 -158.228136 
L 381.123375 -157.27384 
L 381.119328 -156.319543 
L 380.96808 -155.365247 
L 380.663546 -154.41095 
L 380.206223 -153.456654 
L 379.6034 -152.502357 
L 378.868833 -151.548061 
L 378.021931 -150.593764 
L 377.086526 -149.639468 
L 376.089344 -148.685171 
L 375.058314 -147.730875 
L 374.020863 -146.776578 
L 373.002327 -145.822282 
L 372.02461 -144.867985 
L 371.105159 -143.913689 
L 370.256314 -142.959392 
L 369.485059 -142.005096 
L 368.793126 -141.050799 
L 368.177431 -140.096503 
L 367.630765 -139.142206 
L 367.142668 -138.18791 
L 366.700407 -137.233613 
L 366.289995 -136.279317 
L 365.89717 -135.325021 
L 365.508306 -134.370724 
L 365.111198 -133.416428 
L 364.695689 -132.462131 
L 364.254141 -131.507835 
L 363.781715 -130.553538 
L 363.276466 -129.599242 
L 362.739274 -128.644945 
L 362.173606 -127.690649 
L 361.585143 -126.736352 
L 360.981302 -125.782056 
L 360.370691 -124.827759 
L 359.762527 -123.873463 
L 359.166071 -122.919166 
L 358.590103 -121.96487 
L 358.042477 -121.010573 
L 357.529777 -120.056277 
L 357.057088 -119.10198 
L 356.627877 -118.147684 
L 356.243998 -117.193387 
L 355.905783 -116.239091 
L 355.612212 -115.284794 
L 355.361144 -114.330498 
L 355.149569 -113.376201 
L 354.973872 -112.421905 
L 354.830086 -111.467608 
L 354.714117 -110.513312 
z
" id="m325047a6c6" style="stroke:#5c5c5c;stroke-width:1.5;"/>
    </defs>
    <g clip-path="url(#p3f71473dca)">
     <use style="fill:#71aec0;stroke:#5c5c5c;stroke-width:1.5;" x="0" xlink:href="#m325047a6c6" y="274.003125"/>
    </g>
   </g>
   <g id="matplotlib.axis_1">
    <g id="xtick_1">
     <g id="line2d_1">
      <defs>
       <path d="M 0 0 
L 0 6 
" id="mdc0644f3c9" style="stroke:#262626;"/>
      </defs>
      <g>
       <use style="fill:#262626;stroke:#262626;" x="86.499375" xlink:href="#mdc0644f3c9" y="224.64"/>
      </g>
     </g>
     <g id="text_1">
      <!-- 7 -->
      <g style="fill:#262626;" transform="translate(82.681875 246.758125)scale(0.12 -0.12)">
       <defs>
        <path d="M 525 4666 
L 3525 4666 
L 3525 4397 
L 1831 0 
L 1172 0 
L 2766 4134 
L 525 4134 
L 525 4666 
z
" id="DejaVuSans-37" transform="scale(0.015625)"/>
       </defs>
       <use xlink:href="#DejaVuSans-37"/>
      </g>
     </g>
    </g>
    <g id="xtick_2">
     <g id="line2d_2">
      <g>
       <use style="fill:#262626;stroke:#262626;" x="153.459375" xlink:href="#mdc0644f3c9" y="224.64"/>
      </g>
     </g>
     <g id="text_2">
      <!-- 8 -->
      <g style="fill:#262626;" transform="translate(149.641875 246.758125)scale(0.12 -0.12)">
       <defs>
        <path d="M 2034 2216 
Q 1584 2216 1326 1975 
Q 1069 1734 1069 1313 
Q 1069 891 1326 650 
Q 1584 409 2034 409 
Q 2484 409 2743 651 
Q 3003 894 3003 1313 
Q 3003 1734 2745 1975 
Q 2488 2216 2034 2216 
z
M 1403 2484 
Q 997 2584 770 2862 
Q 544 3141 544 3541 
Q 544 4100 942 4425 
Q 1341 4750 2034 4750 
Q 2731 4750 3128 4425 
Q 3525 4100 3525 3541 
Q 3525 3141 3298 2862 
Q 3072 2584 2669 2484 
Q 3125 2378 3379 2068 
Q 3634 1759 3634 1313 
Q 3634 634 3220 271 
Q 2806 -91 2034 -91 
Q 1263 -91 848 271 
Q 434 634 434 1313 
Q 434 1759 690 2068 
Q 947 2378 1403 2484 
z
M 1172 3481 
Q 1172 3119 1398 2916 
Q 1625 2713 2034 2713 
Q 2441 2713 2670 2916 
Q 2900 3119 2900 3481 
Q 2900 3844 2670 4047 
Q 2441 4250 2034 4250 
Q 1625 4250 1398 4047 
Q 1172 3844 1172 3481 
z
" id="DejaVuSans-38" transform="scale(0.015625)"/>
       </defs>
       <use xlink:href="#DejaVuSans-38"/>
      </g>
     </g>
    </g>
    <g id="xtick_3">
     <g id="line2d_3">
      <g>
       <use style="fill:#262626;stroke:#262626;" x="220.419375" xlink:href="#mdc0644f3c9" y="224.64"/>
      </g>
     </g>
     <g id="text_3">
      <!-- 9 -->
      <g style="fill:#262626;" transform="translate(216.601875 246.758125)scale(0.12 -0.12)">
       <defs>
        <path d="M 703 97 
L 703 672 
Q 941 559 1184 500 
Q 1428 441 1663 441 
Q 2288 441 2617 861 
Q 2947 1281 2994 2138 
Q 2813 1869 2534 1725 
Q 2256 1581 1919 1581 
Q 1219 1581 811 2004 
Q 403 2428 403 3163 
Q 403 3881 828 4315 
Q 1253 4750 1959 4750 
Q 2769 4750 3195 4129 
Q 3622 3509 3622 2328 
Q 3622 1225 3098 567 
Q 2575 -91 1691 -91 
Q 1453 -91 1209 -44 
Q 966 3 703 97 
z
M 1959 2075 
Q 2384 2075 2632 2365 
Q 2881 2656 2881 3163 
Q 2881 3666 2632 3958 
Q 2384 4250 1959 4250 
Q 1534 4250 1286 3958 
Q 1038 3666 1038 3163 
Q 1038 2656 1286 2365 
Q 1534 2075 1959 2075 
z
" id="DejaVuSans-39" transform="scale(0.015625)"/>
       </defs>
       <use xlink:href="#DejaVuSans-39"/>
      </g>
     </g>
    </g>
    <g id="xtick_4">
     <g id="line2d_4">
      <g>
       <use style="fill:#262626;stroke:#262626;" x="287.379375" xlink:href="#mdc0644f3c9" y="224.64"/>
      </g>
     </g>
     <g id="text_4">
      <!-- 10 -->
      <g style="fill:#262626;" transform="translate(279.744375 246.758125)scale(0.12 -0.12)">
       <defs>
        <path d="M 794 531 
L 1825 531 
L 1825 4091 
L 703 3866 
L 703 4441 
L 1819 4666 
L 2450 4666 
L 2450 531 
L 3481 531 
L 3481 0 
L 794 0 
L 794 531 
z
" id="DejaVuSans-31" transform="scale(0.015625)"/>
        <path d="M 2034 4250 
Q 1547 4250 1301 3770 
Q 1056 3291 1056 2328 
Q 1056 1369 1301 889 
Q 1547 409 2034 409 
Q 2525 409 2770 889 
Q 3016 1369 3016 2328 
Q 3016 3291 2770 3770 
Q 2525 4250 2034 4250 
z
M 2034 4750 
Q 2819 4750 3233 4129 
Q 3647 3509 3647 2328 
Q 3647 1150 3233 529 
Q 2819 -91 2034 -91 
Q 1250 -91 836 529 
Q 422 1150 422 2328 
Q 422 3509 836 4129 
Q 1250 4750 2034 4750 
z
" id="DejaVuSans-30" transform="scale(0.015625)"/>
       </defs>
       <use xlink:href="#DejaVuSans-31"/>
       <use x="63.623047" xlink:href="#DejaVuSans-30"/>
      </g>
     </g>
    </g>
    <g id="xtick_5">
     <g id="line2d_5">
      <g>
       <use style="fill:#262626;stroke:#262626;" x="354.339375" xlink:href="#mdc0644f3c9" y="224.64"/>
      </g>
     </g>
     <g id="text_5">
      <!-- 11 -->
      <g style="fill:#262626;" transform="translate(346.704375 246.758125)scale(0.12 -0.12)">
       <use xlink:href="#DejaVuSans-31"/>
       <use x="63.623047" xlink:href="#DejaVuSans-31"/>
      </g>
     </g>
    </g>
    <g id="text_6">
     <!-- Hour (morning) -->
     <g style="fill:#262626;" transform="translate(166.753437 263.891562)scale(0.14 -0.14)">
      <defs>
       <path d="M 628 4666 
L 1259 4666 
L 1259 2753 
L 3553 2753 
L 3553 4666 
L 4184 4666 
L 4184 0 
L 3553 0 
L 3553 2222 
L 1259 2222 
L 1259 0 
L 628 0 
L 628 4666 
z
" id="DejaVuSans-48" transform="scale(0.015625)"/>
       <path d="M 1959 3097 
Q 1497 3097 1228 2736 
Q 959 2375 959 1747 
Q 959 1119 1226 758 
Q 1494 397 1959 397 
Q 2419 397 2687 759 
Q 2956 1122 2956 1747 
Q 2956 2369 2687 2733 
Q 2419 3097 1959 3097 
z
M 1959 3584 
Q 2709 3584 3137 3096 
Q 3566 2609 3566 1747 
Q 3566 888 3137 398 
Q 2709 -91 1959 -91 
Q 1206 -91 779 398 
Q 353 888 353 1747 
Q 353 2609 779 3096 
Q 1206 3584 1959 3584 
z
" id="DejaVuSans-6f" transform="scale(0.015625)"/>
       <path d="M 544 1381 
L 544 3500 
L 1119 3500 
L 1119 1403 
Q 1119 906 1312 657 
Q 1506 409 1894 409 
Q 2359 409 2629 706 
Q 2900 1003 2900 1516 
L 2900 3500 
L 3475 3500 
L 3475 0 
L 2900 0 
L 2900 538 
Q 2691 219 2414 64 
Q 2138 -91 1772 -91 
Q 1169 -91 856 284 
Q 544 659 544 1381 
z
M 1991 3584 
L 1991 3584 
z
" id="DejaVuSans-75" transform="scale(0.015625)"/>
       <path d="M 2631 2963 
Q 2534 3019 2420 3045 
Q 2306 3072 2169 3072 
Q 1681 3072 1420 2755 
Q 1159 2438 1159 1844 
L 1159 0 
L 581 0 
L 581 3500 
L 1159 3500 
L 1159 2956 
Q 1341 3275 1631 3429 
Q 1922 3584 2338 3584 
Q 2397 3584 2469 3576 
Q 2541 3569 2628 3553 
L 2631 2963 
z
" id="DejaVuSans-72" transform="scale(0.015625)"/>
       <path id="DejaVuSans-20" transform="scale(0.015625)"/>
       <path d="M 1984 4856 
Q 1566 4138 1362 3434 
Q 1159 2731 1159 2009 
Q 1159 1288 1364 580 
Q 1569 -128 1984 -844 
L 1484 -844 
Q 1016 -109 783 600 
Q 550 1309 550 2009 
Q 550 2706 781 3412 
Q 1013 4119 1484 4856 
L 1984 4856 
z
" id="DejaVuSans-28" transform="scale(0.015625)"/>
       <path d="M 3328 2828 
Q 3544 3216 3844 3400 
Q 4144 3584 4550 3584 
Q 5097 3584 5394 3201 
Q 5691 2819 5691 2113 
L 5691 0 
L 5113 0 
L 5113 2094 
Q 5113 2597 4934 2840 
Q 4756 3084 4391 3084 
Q 3944 3084 3684 2787 
Q 3425 2491 3425 1978 
L 3425 0 
L 2847 0 
L 2847 2094 
Q 2847 2600 2669 2842 
Q 2491 3084 2119 3084 
Q 1678 3084 1418 2786 
Q 1159 2488 1159 1978 
L 1159 0 
L 581 0 
L 581 3500 
L 1159 3500 
L 1159 2956 
Q 1356 3278 1631 3431 
Q 1906 3584 2284 3584 
Q 2666 3584 2933 3390 
Q 3200 3197 3328 2828 
z
" id="DejaVuSans-6d" transform="scale(0.015625)"/>
       <path d="M 3513 2113 
L 3513 0 
L 2938 0 
L 2938 2094 
Q 2938 2591 2744 2837 
Q 2550 3084 2163 3084 
Q 1697 3084 1428 2787 
Q 1159 2491 1159 1978 
L 1159 0 
L 581 0 
L 581 3500 
L 1159 3500 
L 1159 2956 
Q 1366 3272 1645 3428 
Q 1925 3584 2291 3584 
Q 2894 3584 3203 3211 
Q 3513 2838 3513 2113 
z
" id="DejaVuSans-6e" transform="scale(0.015625)"/>
       <path d="M 603 3500 
L 1178 3500 
L 1178 0 
L 603 0 
L 603 3500 
z
M 603 4863 
L 1178 4863 
L 1178 4134 
L 603 4134 
L 603 4863 
z
" id="DejaVuSans-69" transform="scale(0.015625)"/>
       <path d="M 2906 1791 
Q 2906 2416 2648 2759 
Q 2391 3103 1925 3103 
Q 1463 3103 1205 2759 
Q 947 2416 947 1791 
Q 947 1169 1205 825 
Q 1463 481 1925 481 
Q 2391 481 2648 825 
Q 2906 1169 2906 1791 
z
M 3481 434 
Q 3481 -459 3084 -895 
Q 2688 -1331 1869 -1331 
Q 1566 -1331 1297 -1286 
Q 1028 -1241 775 -1147 
L 775 -588 
Q 1028 -725 1275 -790 
Q 1522 -856 1778 -856 
Q 2344 -856 2625 -561 
Q 2906 -266 2906 331 
L 2906 616 
Q 2728 306 2450 153 
Q 2172 0 1784 0 
Q 1141 0 747 490 
Q 353 981 353 1791 
Q 353 2603 747 3093 
Q 1141 3584 1784 3584 
Q 2172 3584 2450 3431 
Q 2728 3278 2906 2969 
L 2906 3500 
L 3481 3500 
L 3481 434 
z
" id="DejaVuSans-67" transform="scale(0.015625)"/>
       <path d="M 513 4856 
L 1013 4856 
Q 1481 4119 1714 3412 
Q 1947 2706 1947 2009 
Q 1947 1309 1714 600 
Q 1481 -109 1013 -844 
L 513 -844 
Q 928 -128 1133 580 
Q 1338 1288 1338 2009 
Q 1338 2731 1133 3434 
Q 928 4138 513 4856 
z
" id="DejaVuSans-29" transform="scale(0.015625)"/>
      </defs>
      <use xlink:href="#DejaVuSans-48"/>
      <use x="75.195312" xlink:href="#DejaVuSans-6f"/>
      <use x="136.376953" xlink:href="#DejaVuSans-75"/>
      <use x="199.755859" xlink:href="#DejaVuSans-72"/>
      <use x="240.869141" xlink:href="#DejaVuSans-20"/>
      <use x="272.65625" xlink:href="#DejaVuSans-28"/>
      <use x="311.669922" xlink:href="#DejaVuSans-6d"/>
      <use x="409.082031" xlink:href="#DejaVuSans-6f"/>
      <use x="470.263672" xlink:href="#DejaVuSans-72"/>
      <use x="509.626953" xlink:href="#DejaVuSans-6e"/>
      <use x="573.005859" xlink:href="#DejaVuSans-69"/>
      <use x="600.789062" xlink:href="#DejaVuSans-6e"/>
      <use x="664.167969" xlink:href="#DejaVuSans-67"/>
      <use x="727.644531" xlink:href="#DejaVuSans-29"/>
     </g>
    </g>
   </g>
   <g id="matplotlib.axis_2">
    <g id="ytick_1">
     <g id="line2d_6">
      <defs>
       <path d="M 0 0 
L -6 0 
" id="m3b5047b2f7" style="stroke:#262626;"/>
      </defs>
      <g>
       <use style="fill:#262626;stroke:#262626;" x="53.019375" xlink:href="#m3b5047b2f7" y="191.227303"/>
      </g>
     </g>
     <g id="text_7">
      <!-- 0 -->
      <g style="fill:#262626;" transform="translate(32.384375 195.786366)scale(0.12 -0.12)">
       <use xlink:href="#DejaVuSans-30"/>
      </g>
     </g>
    </g>
    <g id="ytick_2">
     <g id="line2d_7">
      <g>
       <use style="fill:#262626;stroke:#262626;" x="53.019375" xlink:href="#m3b5047b2f7" y="142.948936"/>
      </g>
     </g>
     <g id="text_8">
      <!-- 10 -->
      <g style="fill:#262626;" transform="translate(24.749375 147.507998)scale(0.12 -0.12)">
       <use xlink:href="#DejaVuSans-31"/>
       <use x="63.623047" xlink:href="#DejaVuSans-30"/>
      </g>
     </g>
    </g>
    <g id="ytick_3">
     <g id="line2d_8">
      <g>
       <use style="fill:#262626;stroke:#262626;" x="53.019375" xlink:href="#m3b5047b2f7" y="94.670568"/>
      </g>
     </g>
     <g id="text_9">
      <!-- 20 -->
      <g style="fill:#262626;" transform="translate(24.749375 99.22963)scale(0.12 -0.12)">
       <defs>
        <path d="M 1228 531 
L 3431 531 
L 3431 0 
L 469 0 
L 469 531 
Q 828 903 1448 1529 
Q 2069 2156 2228 2338 
Q 2531 2678 2651 2914 
Q 2772 3150 2772 3378 
Q 2772 3750 2511 3984 
Q 2250 4219 1831 4219 
Q 1534 4219 1204 4116 
Q 875 4013 500 3803 
L 500 4441 
Q 881 4594 1212 4672 
Q 1544 4750 1819 4750 
Q 2544 4750 2975 4387 
Q 3406 4025 3406 3419 
Q 3406 3131 3298 2873 
Q 3191 2616 2906 2266 
Q 2828 2175 2409 1742 
Q 1991 1309 1228 531 
z
" id="DejaVuSans-32" transform="scale(0.015625)"/>
       </defs>
       <use xlink:href="#DejaVuSans-32"/>
       <use x="63.623047" xlink:href="#DejaVuSans-30"/>
      </g>
     </g>
    </g>
    <g id="ytick_4">
     <g id="line2d_9">
      <g>
       <use style="fill:#262626;stroke:#262626;" x="53.019375" xlink:href="#m3b5047b2f7" y="46.3922"/>
      </g>
     </g>
     <g id="text_10">
      <!-- 30 -->
      <g style="fill:#262626;" transform="translate(24.749375 50.951263)scale(0.12 -0.12)">
       <defs>
        <path d="M 2597 2516 
Q 3050 2419 3304 2112 
Q 3559 1806 3559 1356 
Q 3559 666 3084 287 
Q 2609 -91 1734 -91 
Q 1441 -91 1130 -33 
Q 819 25 488 141 
L 488 750 
Q 750 597 1062 519 
Q 1375 441 1716 441 
Q 2309 441 2620 675 
Q 2931 909 2931 1356 
Q 2931 1769 2642 2001 
Q 2353 2234 1838 2234 
L 1294 2234 
L 1294 2753 
L 1863 2753 
Q 2328 2753 2575 2939 
Q 2822 3125 2822 3475 
Q 2822 3834 2567 4026 
Q 2313 4219 1838 4219 
Q 1578 4219 1281 4162 
Q 984 4106 628 3988 
L 628 4550 
Q 988 4650 1302 4700 
Q 1616 4750 1894 4750 
Q 2613 4750 3031 4423 
Q 3450 4097 3450 3541 
Q 3450 3153 3228 2886 
Q 3006 2619 2597 2516 
z
" id="DejaVuSans-33" transform="scale(0.015625)"/>
       </defs>
       <use xlink:href="#DejaVuSans-33"/>
       <use x="63.623047" xlink:href="#DejaVuSans-30"/>
      </g>
     </g>
    </g>
    <g id="text_11">
     <!-- Vehicle speed -->
     <g style="fill:#262626;" transform="translate(17.837812 164.328281)rotate(-90)scale(0.14 -0.14)">
      <defs>
       <path d="M 1831 0 
L 50 4666 
L 709 4666 
L 2188 738 
L 3669 4666 
L 4325 4666 
L 2547 0 
L 1831 0 
z
" id="DejaVuSans-56" transform="scale(0.015625)"/>
       <path d="M 3597 1894 
L 3597 1613 
L 953 1613 
Q 991 1019 1311 708 
Q 1631 397 2203 397 
Q 2534 397 2845 478 
Q 3156 559 3463 722 
L 3463 178 
Q 3153 47 2828 -22 
Q 2503 -91 2169 -91 
Q 1331 -91 842 396 
Q 353 884 353 1716 
Q 353 2575 817 3079 
Q 1281 3584 2069 3584 
Q 2775 3584 3186 3129 
Q 3597 2675 3597 1894 
z
M 3022 2063 
Q 3016 2534 2758 2815 
Q 2500 3097 2075 3097 
Q 1594 3097 1305 2825 
Q 1016 2553 972 2059 
L 3022 2063 
z
" id="DejaVuSans-65" transform="scale(0.015625)"/>
       <path d="M 3513 2113 
L 3513 0 
L 2938 0 
L 2938 2094 
Q 2938 2591 2744 2837 
Q 2550 3084 2163 3084 
Q 1697 3084 1428 2787 
Q 1159 2491 1159 1978 
L 1159 0 
L 581 0 
L 581 4863 
L 1159 4863 
L 1159 2956 
Q 1366 3272 1645 3428 
Q 1925 3584 2291 3584 
Q 2894 3584 3203 3211 
Q 3513 2838 3513 2113 
z
" id="DejaVuSans-68" transform="scale(0.015625)"/>
       <path d="M 3122 3366 
L 3122 2828 
Q 2878 2963 2633 3030 
Q 2388 3097 2138 3097 
Q 1578 3097 1268 2742 
Q 959 2388 959 1747 
Q 959 1106 1268 751 
Q 1578 397 2138 397 
Q 2388 397 2633 464 
Q 2878 531 3122 666 
L 3122 134 
Q 2881 22 2623 -34 
Q 2366 -91 2075 -91 
Q 1284 -91 818 406 
Q 353 903 353 1747 
Q 353 2603 823 3093 
Q 1294 3584 2113 3584 
Q 2378 3584 2631 3529 
Q 2884 3475 3122 3366 
z
" id="DejaVuSans-63" transform="scale(0.015625)"/>
       <path d="M 603 4863 
L 1178 4863 
L 1178 0 
L 603 0 
L 603 4863 
z
" id="DejaVuSans-6c" transform="scale(0.015625)"/>
       <path d="M 2834 3397 
L 2834 2853 
Q 2591 2978 2328 3040 
Q 2066 3103 1784 3103 
Q 1356 3103 1142 2972 
Q 928 2841 928 2578 
Q 928 2378 1081 2264 
Q 1234 2150 1697 2047 
L 1894 2003 
Q 2506 1872 2764 1633 
Q 3022 1394 3022 966 
Q 3022 478 2636 193 
Q 2250 -91 1575 -91 
Q 1294 -91 989 -36 
Q 684 19 347 128 
L 347 722 
Q 666 556 975 473 
Q 1284 391 1588 391 
Q 1994 391 2212 530 
Q 2431 669 2431 922 
Q 2431 1156 2273 1281 
Q 2116 1406 1581 1522 
L 1381 1569 
Q 847 1681 609 1914 
Q 372 2147 372 2553 
Q 372 3047 722 3315 
Q 1072 3584 1716 3584 
Q 2034 3584 2315 3537 
Q 2597 3491 2834 3397 
z
" id="DejaVuSans-73" transform="scale(0.015625)"/>
       <path d="M 1159 525 
L 1159 -1331 
L 581 -1331 
L 581 3500 
L 1159 3500 
L 1159 2969 
Q 1341 3281 1617 3432 
Q 1894 3584 2278 3584 
Q 2916 3584 3314 3078 
Q 3713 2572 3713 1747 
Q 3713 922 3314 415 
Q 2916 -91 2278 -91 
Q 1894 -91 1617 61 
Q 1341 213 1159 525 
z
M 3116 1747 
Q 3116 2381 2855 2742 
Q 2594 3103 2138 3103 
Q 1681 3103 1420 2742 
Q 1159 2381 1159 1747 
Q 1159 1113 1420 752 
Q 1681 391 2138 391 
Q 2594 391 2855 752 
Q 3116 1113 3116 1747 
z
" id="DejaVuSans-70" transform="scale(0.015625)"/>
       <path d="M 2906 2969 
L 2906 4863 
L 3481 4863 
L 3481 0 
L 2906 0 
L 2906 525 
Q 2725 213 2448 61 
Q 2172 -91 1784 -91 
Q 1150 -91 751 415 
Q 353 922 353 1747 
Q 353 2572 751 3078 
Q 1150 3584 1784 3584 
Q 2172 3584 2448 3432 
Q 2725 3281 2906 2969 
z
M 947 1747 
Q 947 1113 1208 752 
Q 1469 391 1925 391 
Q 2381 391 2643 752 
Q 2906 1113 2906 1747 
Q 2906 2381 2643 2742 
Q 2381 3103 1925 3103 
Q 1469 3103 1208 2742 
Q 947 2381 947 1747 
z
" id="DejaVuSans-64" transform="scale(0.015625)"/>
      </defs>
      <use xlink:href="#DejaVuSans-56"/>
      <use x="60.658203" xlink:href="#DejaVuSans-65"/>
      <use x="122.181641" xlink:href="#DejaVuSans-68"/>
      <use x="185.560547" xlink:href="#DejaVuSans-69"/>
      <use x="213.34375" xlink:href="#DejaVuSans-63"/>
      <use x="268.324219" xlink:href="#DejaVuSans-6c"/>
      <use x="296.107422" xlink:href="#DejaVuSans-65"/>
      <use x="357.630859" xlink:href="#DejaVuSans-20"/>
      <use x="389.417969" xlink:href="#DejaVuSans-73"/>
      <use x="441.517578" xlink:href="#DejaVuSans-70"/>
      <use x="504.994141" xlink:href="#DejaVuSans-65"/>
      <use x="566.517578" xlink:href="#DejaVuSans-65"/>
      <use x="628.041016" xlink:href="#DejaVuSans-64"/>
     </g>
    </g>
   </g>
   <g id="line2d_10">
    <path clip-path="url(#p3f71473dca)" d="M 73.480896 126.451129 
L 99.517854 126.451129 
" style="fill:none;stroke:#5c5c5c;stroke-linecap:square;stroke-width:0.75;"/>
   </g>
   <g id="line2d_11">
    <path clip-path="url(#p3f71473dca)" d="M 71.656467 121.497639 
L 101.342283 121.497639 
" style="fill:none;stroke:#5c5c5c;stroke-linecap:square;stroke-width:0.75;"/>
   </g>
   <g id="line2d_12">
    <path clip-path="url(#p3f71473dca)" d="M 71.738463 89.489162 
L 101.260287 89.489162 
" style="fill:none;stroke:#5c5c5c;stroke-linecap:square;stroke-width:0.75;"/>
   </g>
   <g id="line2d_13">
    <path clip-path="url(#p3f71473dca)" d="M 74.04415 85.550822 
L 98.9546 85.550822 
" style="fill:none;stroke:#5c5c5c;stroke-linecap:square;stroke-width:0.75;"/>
   </g>
   <g id="line2d_14">
    <path clip-path="url(#p3f71473dca)" d="M 72.844614 124.626472 
L 100.154136 124.626472 
" style="fill:none;stroke:#5c5c5c;stroke-linecap:square;stroke-width:0.75;"/>
   </g>
   <g id="line2d_15">
    <path clip-path="url(#p3f71473dca)" d="M 69.124786 96.746716 
L 103.873964 96.746716 
" style="fill:none;stroke:#5c5c5c;stroke-linecap:square;stroke-width:0.75;"/>
   </g>
   <g id="line2d_16">
    <path clip-path="url(#p3f71473dca)" d="M 69.124786 97.852366 
L 103.873964 97.852366 
" style="fill:none;stroke:#5c5c5c;stroke-linecap:square;stroke-width:0.75;"/>
   </g>
   <g id="line2d_17">
    <path clip-path="url(#p3f71473dca)" d="M 68.587351 101.011595 
L 104.411399 101.011595 
" style="fill:none;stroke:#5c5c5c;stroke-linecap:square;stroke-width:0.75;"/>
   </g>
   <g id="line2d_18">
    <path clip-path="url(#p3f71473dca)" d="M 84.144197 178.523605 
L 88.854553 178.523605 
" style="fill:none;stroke:#5c5c5c;stroke-linecap:square;stroke-width:0.75;"/>
   </g>
   <g id="line2d_19">
    <path clip-path="url(#p3f71473dca)" d="M 80.493552 143.940084 
L 92.505198 143.940084 
" style="fill:none;stroke:#5c5c5c;stroke-linecap:square;stroke-width:0.75;"/>
   </g>
   <g id="line2d_20">
    <path clip-path="url(#p3f71473dca)" d="M 68.436964 107.75645 
L 104.561786 107.75645 
" style="fill:none;stroke:#5c5c5c;stroke-linecap:square;stroke-width:0.75;"/>
   </g>
   <g id="line2d_21">
    <path clip-path="url(#p3f71473dca)" d="M 69.741043 115.559775 
L 103.257707 115.559775 
" style="fill:none;stroke:#5c5c5c;stroke-linecap:square;stroke-width:0.75;"/>
   </g>
   <g id="line2d_22">
    <path clip-path="url(#p3f71473dca)" d="M 69.062074 112.628649 
L 103.936676 112.628649 
" style="fill:none;stroke:#5c5c5c;stroke-linecap:square;stroke-width:0.75;"/>
   </g>
   <g id="line2d_23">
    <path clip-path="url(#p3f71473dca)" d="M 72.458408 88.61247 
L 100.540342 88.61247 
" style="fill:none;stroke:#5c5c5c;stroke-linecap:square;stroke-width:0.75;"/>
   </g>
   <g id="line2d_24">
    <path clip-path="url(#p3f71473dca)" d="M 145.710615 147.939311 
L 161.208135 147.939311 
" style="fill:none;stroke:#5c5c5c;stroke-linecap:square;stroke-width:0.75;"/>
   </g>
   <g id="line2d_25">
    <path clip-path="url(#p3f71473dca)" d="M 138.831043 101.905341 
L 168.087707 101.905341 
" style="fill:none;stroke:#5c5c5c;stroke-linecap:square;stroke-width:0.75;"/>
   </g>
   <g id="line2d_26">
    <path clip-path="url(#p3f71473dca)" d="M 140.118024 110.552102 
L 166.800726 110.552102 
" style="fill:none;stroke:#5c5c5c;stroke-linecap:square;stroke-width:0.75;"/>
   </g>
   <g id="line2d_27">
    <path clip-path="url(#p3f71473dca)" d="M 138.818472 93.544544 
L 168.100278 93.544544 
" style="fill:none;stroke:#5c5c5c;stroke-linecap:square;stroke-width:0.75;"/>
   </g>
   <g id="line2d_28">
    <path clip-path="url(#p3f71473dca)" d="M 138.818472 93.693164 
L 168.100278 93.693164 
" style="fill:none;stroke:#5c5c5c;stroke-linecap:square;stroke-width:0.75;"/>
   </g>
   <g id="line2d_29">
    <path clip-path="url(#p3f71473dca)" d="M 144.806595 138.929041 
L 162.112155 138.929041 
" style="fill:none;stroke:#5c5c5c;stroke-linecap:square;stroke-width:0.75;"/>
   </g>
   <g id="line2d_30">
    <path clip-path="url(#p3f71473dca)" d="M 139.655467 89.30218 
L 167.263283 89.30218 
" style="fill:none;stroke:#5c5c5c;stroke-linecap:square;stroke-width:0.75;"/>
   </g>
   <g id="line2d_31">
    <path clip-path="url(#p3f71473dca)" d="M 140.584937 86.102519 
L 166.333813 86.102519 
" style="fill:none;stroke:#5c5c5c;stroke-linecap:square;stroke-width:0.75;"/>
   </g>
   <g id="line2d_32">
    <path clip-path="url(#p3f71473dca)" d="M 144.69011 74.970103 
L 162.22864 74.970103 
" style="fill:none;stroke:#5c5c5c;stroke-linecap:square;stroke-width:0.75;"/>
   </g>
   <g id="line2d_33">
    <path clip-path="url(#p3f71473dca)" d="M 145.950342 149.104075 
L 160.968408 149.104075 
" style="fill:none;stroke:#5c5c5c;stroke-linecap:square;stroke-width:0.75;"/>
   </g>
   <g id="line2d_34">
    <path clip-path="url(#p3f71473dca)" d="M 141.583163 118.582492 
L 165.335587 118.582492 
" style="fill:none;stroke:#5c5c5c;stroke-linecap:square;stroke-width:0.75;"/>
   </g>
   <g id="line2d_35">
    <path clip-path="url(#p3f71473dca)" d="M 140.084534 87.441816 
L 166.834216 87.441816 
" style="fill:none;stroke:#5c5c5c;stroke-linecap:square;stroke-width:0.75;"/>
   </g>
   <g id="line2d_36">
    <path clip-path="url(#p3f71473dca)" d="M 140.83096 115.275488 
L 166.08779 115.275488 
" style="fill:none;stroke:#5c5c5c;stroke-linecap:square;stroke-width:0.75;"/>
   </g>
   <g id="line2d_37">
    <path clip-path="url(#p3f71473dca)" d="M 141.778005 81.977108 
L 165.140745 81.977108 
" style="fill:none;stroke:#5c5c5c;stroke-linecap:square;stroke-width:0.75;"/>
   </g>
   <g id="line2d_38">
    <path clip-path="url(#p3f71473dca)" d="M 143.315677 126.778303 
L 163.603073 126.778303 
" style="fill:none;stroke:#5c5c5c;stroke-linecap:square;stroke-width:0.75;"/>
   </g>
   <g id="line2d_39">
    <path clip-path="url(#p3f71473dca)" d="M 139.008258 104.153513 
L 167.910492 104.153513 
" style="fill:none;stroke:#5c5c5c;stroke-linecap:square;stroke-width:0.75;"/>
   </g>
   <g id="line2d_40">
    <path clip-path="url(#p3f71473dca)" d="M 147.166584 155.841825 
L 159.752166 155.841825 
" style="fill:none;stroke:#5c5c5c;stroke-linecap:square;stroke-width:0.75;"/>
   </g>
   <g id="line2d_41">
    <path clip-path="url(#p3f71473dca)" d="M 151.535181 183.599623 
L 155.383569 183.599623 
" style="fill:none;stroke:#5c5c5c;stroke-linecap:square;stroke-width:0.75;"/>
   </g>
   <g id="line2d_42">
    <path clip-path="url(#p3f71473dca)" d="M 139.231304 105.592939 
L 167.687446 105.592939 
" style="fill:none;stroke:#5c5c5c;stroke-linecap:square;stroke-width:0.75;"/>
   </g>
   <g id="line2d_43">
    <path clip-path="url(#p3f71473dca)" d="M 145.710615 146.649754 
L 161.208135 146.649754 
" style="fill:none;stroke:#5c5c5c;stroke-linecap:square;stroke-width:0.75;"/>
   </g>
   <g id="line2d_44">
    <path clip-path="url(#p3f71473dca)" d="M 141.583163 117.336322 
L 165.335587 117.336322 
" style="fill:none;stroke:#5c5c5c;stroke-linecap:square;stroke-width:0.75;"/>
   </g>
   <g id="line2d_45">
    <path clip-path="url(#p3f71473dca)" d="M 141.151694 84.216498 
L 165.767056 84.216498 
" style="fill:none;stroke:#5c5c5c;stroke-linecap:square;stroke-width:0.75;"/>
   </g>
   <g id="line2d_46">
    <path clip-path="url(#p3f71473dca)" d="M 200.31908 104.433584 
L 240.51967 104.433584 
" style="fill:none;stroke:#5c5c5c;stroke-linecap:square;stroke-width:0.75;"/>
   </g>
   <g id="line2d_47">
    <path clip-path="url(#p3f71473dca)" d="M 202.81809 97.327817 
L 238.02066 97.327817 
" style="fill:none;stroke:#5c5c5c;stroke-linecap:square;stroke-width:0.75;"/>
   </g>
   <g id="line2d_48">
    <path clip-path="url(#p3f71473dca)" d="M 201.012737 102.156486 
L 239.826013 102.156486 
" style="fill:none;stroke:#5c5c5c;stroke-linecap:square;stroke-width:0.75;"/>
   </g>
   <g id="line2d_49">
    <path clip-path="url(#p3f71473dca)" d="M 211.597828 133.209976 
L 229.240922 133.209976 
" style="fill:none;stroke:#5c5c5c;stroke-linecap:square;stroke-width:0.75;"/>
   </g>
   <g id="line2d_50">
    <path clip-path="url(#p3f71473dca)" d="M 214.859494 72.608246 
L 225.979256 72.608246 
" style="fill:none;stroke:#5c5c5c;stroke-linecap:square;stroke-width:0.75;"/>
   </g>
   <g id="line2d_51">
    <path clip-path="url(#p3f71473dca)" d="M 200.206599 109.452777 
L 240.632151 109.452777 
" style="fill:none;stroke:#5c5c5c;stroke-linecap:square;stroke-width:0.75;"/>
   </g>
   <g id="line2d_52">
    <path clip-path="url(#p3f71473dca)" d="M 200.206599 108.917278 
L 240.632151 108.917278 
" style="fill:none;stroke:#5c5c5c;stroke-linecap:square;stroke-width:0.75;"/>
   </g>
   <g id="line2d_53">
    <path clip-path="url(#p3f71473dca)" d="M 215.31142 70.705072 
L 225.52733 70.705072 
" style="fill:none;stroke:#5c5c5c;stroke-linecap:square;stroke-width:0.75;"/>
   </g>
   <g id="line2d_54">
    <path clip-path="url(#p3f71473dca)" d="M 201.212891 113.664301 
L 239.625859 113.664301 
" style="fill:none;stroke:#5c5c5c;stroke-linecap:square;stroke-width:0.75;"/>
   </g>
   <g id="line2d_55">
    <path clip-path="url(#p3f71473dca)" d="M 201.524484 100.02516 
L 239.314266 100.02516 
" style="fill:none;stroke:#5c5c5c;stroke-linecap:square;stroke-width:0.75;"/>
   </g>
   <g id="line2d_56">
    <path clip-path="url(#p3f71473dca)" d="M 205.633772 123.209093 
L 235.204978 123.209093 
" style="fill:none;stroke:#5c5c5c;stroke-linecap:square;stroke-width:0.75;"/>
   </g>
   <g id="line2d_57">
    <path clip-path="url(#p3f71473dca)" d="M 200.607704 103.653511 
L 240.231046 103.653511 
" style="fill:none;stroke:#5c5c5c;stroke-linecap:square;stroke-width:0.75;"/>
   </g>
   <g id="line2d_58">
    <path clip-path="url(#p3f71473dca)" d="M 201.767783 115.556804 
L 239.070967 115.556804 
" style="fill:none;stroke:#5c5c5c;stroke-linecap:square;stroke-width:0.75;"/>
   </g>
   <g id="line2d_59">
    <path clip-path="url(#p3f71473dca)" d="M 208.595375 86.526038 
L 232.243375 86.526038 
" style="fill:none;stroke:#5c5c5c;stroke-linecap:square;stroke-width:0.75;"/>
   </g>
   <g id="line2d_60">
    <path clip-path="url(#p3f71473dca)" d="M 205.20894 93.519366 
L 235.62981 93.519366 
" style="fill:none;stroke:#5c5c5c;stroke-linecap:square;stroke-width:0.75;"/>
   </g>
   <g id="line2d_61">
    <path clip-path="url(#p3f71473dca)" d="M 200.423405 110.507182 
L 240.415345 110.507182 
" style="fill:none;stroke:#5c5c5c;stroke-linecap:square;stroke-width:0.75;"/>
   </g>
   <g id="line2d_62">
    <path clip-path="url(#p3f71473dca)" d="M 203.138447 118.052651 
L 237.700303 118.052651 
" style="fill:none;stroke:#5c5c5c;stroke-linecap:square;stroke-width:0.75;"/>
   </g>
   <g id="line2d_63">
    <path clip-path="url(#p3f71473dca)" d="M 216.989116 165.163412 
L 223.849634 165.163412 
" style="fill:none;stroke:#5c5c5c;stroke-linecap:square;stroke-width:0.75;"/>
   </g>
   <g id="line2d_64">
    <path clip-path="url(#p3f71473dca)" d="M 207.419885 126.314262 
L 233.418865 126.314262 
" style="fill:none;stroke:#5c5c5c;stroke-linecap:square;stroke-width:0.75;"/>
   </g>
   <g id="line2d_65">
    <path clip-path="url(#p3f71473dca)" d="M 200.607704 103.392496 
L 240.231046 103.392496 
" style="fill:none;stroke:#5c5c5c;stroke-linecap:square;stroke-width:0.75;"/>
   </g>
   <g id="line2d_66">
    <path clip-path="url(#p3f71473dca)" d="M 215.471659 143.553869 
L 225.367091 143.553869 
" style="fill:none;stroke:#5c5c5c;stroke-linecap:square;stroke-width:0.75;"/>
   </g>
   <g id="line2d_67">
    <path clip-path="url(#p3f71473dca)" d="M 203.138447 118.703656 
L 237.700303 118.703656 
" style="fill:none;stroke:#5c5c5c;stroke-linecap:square;stroke-width:0.75;"/>
   </g>
   <g id="line2d_68">
    <path clip-path="url(#p3f71473dca)" d="M 207.767946 88.157738 
L 233.070804 88.157738 
" style="fill:none;stroke:#5c5c5c;stroke-linecap:square;stroke-width:0.75;"/>
   </g>
   <g id="line2d_69">
    <path clip-path="url(#p3f71473dca)" d="M 217.155981 167.798275 
L 223.682769 167.798275 
" style="fill:none;stroke:#5c5c5c;stroke-linecap:square;stroke-width:0.75;"/>
   </g>
   <g id="line2d_70">
    <path clip-path="url(#p3f71473dca)" d="M 273.818482 139.210701 
L 300.940268 139.210701 
" style="fill:none;stroke:#5c5c5c;stroke-linecap:square;stroke-width:0.75;"/>
   </g>
   <g id="line2d_71">
    <path clip-path="url(#p3f71473dca)" d="M 270.395165 111.325884 
L 304.363585 111.325884 
" style="fill:none;stroke:#5c5c5c;stroke-linecap:square;stroke-width:0.75;"/>
   </g>
   <g id="line2d_72">
    <path clip-path="url(#p3f71473dca)" d="M 274.412249 101.902131 
L 300.346501 101.902131 
" style="fill:none;stroke:#5c5c5c;stroke-linecap:square;stroke-width:0.75;"/>
   </g>
   <g id="line2d_73">
    <path clip-path="url(#p3f71473dca)" d="M 270.395165 111.603028 
L 304.363585 111.603028 
" style="fill:none;stroke:#5c5c5c;stroke-linecap:square;stroke-width:0.75;"/>
   </g>
   <g id="line2d_74">
    <path clip-path="url(#p3f71473dca)" d="M 276.318814 145.055428 
L 298.439936 145.055428 
" style="fill:none;stroke:#5c5c5c;stroke-linecap:square;stroke-width:0.75;"/>
   </g>
   <g id="line2d_75">
    <path clip-path="url(#p3f71473dca)" d="M 273.54469 104.145727 
L 301.21406 104.145727 
" style="fill:none;stroke:#5c5c5c;stroke-linecap:square;stroke-width:0.75;"/>
   </g>
   <g id="line2d_76">
    <path clip-path="url(#p3f71473dca)" d="M 277.877653 95.545245 
L 296.881097 95.545245 
" style="fill:none;stroke:#5c5c5c;stroke-linecap:square;stroke-width:0.75;"/>
   </g>
   <g id="line2d_77">
    <path clip-path="url(#p3f71473dca)" d="M 268.334609 123.513552 
L 306.424141 123.513552 
" style="fill:none;stroke:#5c5c5c;stroke-linecap:square;stroke-width:0.75;"/>
   </g>
   <g id="line2d_78">
    <path clip-path="url(#p3f71473dca)" d="M 268.334609 122.647005 
L 306.424141 122.647005 
" style="fill:none;stroke:#5c5c5c;stroke-linecap:square;stroke-width:0.75;"/>
   </g>
   <g id="line2d_79">
    <path clip-path="url(#p3f71473dca)" d="M 268.243552 122.321734 
L 306.515198 122.321734 
" style="fill:none;stroke:#5c5c5c;stroke-linecap:square;stroke-width:0.75;"/>
   </g>
   <g id="line2d_80">
    <path clip-path="url(#p3f71473dca)" d="M 279.289445 151.894857 
L 295.469305 151.894857 
" style="fill:none;stroke:#5c5c5c;stroke-linecap:square;stroke-width:0.75;"/>
   </g>
   <g id="line2d_81">
    <path clip-path="url(#p3f71473dca)" d="M 271.367134 134.425758 
L 303.391616 134.425758 
" style="fill:none;stroke:#5c5c5c;stroke-linecap:square;stroke-width:0.75;"/>
   </g>
   <g id="line2d_82">
    <path clip-path="url(#p3f71473dca)" d="M 280.288514 89.037588 
L 294.470236 89.037588 
" style="fill:none;stroke:#5c5c5c;stroke-linecap:square;stroke-width:0.75;"/>
   </g>
   <g id="line2d_83">
    <path clip-path="url(#p3f71473dca)" d="M 268.334609 123.574655 
L 306.424141 123.574655 
" style="fill:none;stroke:#5c5c5c;stroke-linecap:square;stroke-width:0.75;"/>
   </g>
   <g id="line2d_84">
    <path clip-path="url(#p3f71473dca)" d="M 268.243552 122.461444 
L 306.515198 122.461444 
" style="fill:none;stroke:#5c5c5c;stroke-linecap:square;stroke-width:0.75;"/>
   </g>
   <g id="line2d_85">
    <path clip-path="url(#p3f71473dca)" d="M 283.16105 164.463027 
L 291.5977 164.463027 
" style="fill:none;stroke:#5c5c5c;stroke-linecap:square;stroke-width:0.75;"/>
   </g>
   <g id="line2d_86">
    <path clip-path="url(#p3f71473dca)" d="M 268.473513 117.356403 
L 306.285237 117.356403 
" style="fill:none;stroke:#5c5c5c;stroke-linecap:square;stroke-width:0.75;"/>
   </g>
   <g id="line2d_87">
    <path clip-path="url(#p3f71473dca)" d="M 268.243552 121.497116 
L 306.515198 121.497116 
" style="fill:none;stroke:#5c5c5c;stroke-linecap:square;stroke-width:0.75;"/>
   </g>
   <g id="line2d_88">
    <path clip-path="url(#p3f71473dca)" d="M 285.723944 45.070699 
L 289.034806 45.070699 
" style="fill:none;stroke:#5c5c5c;stroke-linecap:square;stroke-width:0.75;"/>
   </g>
   <g id="line2d_89">
    <path clip-path="url(#p3f71473dca)" d="M 271.367134 134.194444 
L 303.391616 134.194444 
" style="fill:none;stroke:#5c5c5c;stroke-linecap:square;stroke-width:0.75;"/>
   </g>
   <g id="line2d_90">
    <path clip-path="url(#p3f71473dca)" d="M 331.583143 108.511588 
L 377.095607 108.511588 
" style="fill:none;stroke:#5c5c5c;stroke-linecap:square;stroke-width:0.75;"/>
   </g>
   <g id="line2d_91">
    <path clip-path="url(#p3f71473dca)" d="M 341.664115 135.641366 
L 367.014635 135.641366 
" style="fill:none;stroke:#5c5c5c;stroke-linecap:square;stroke-width:0.75;"/>
   </g>
   <g id="line2d_92">
    <path clip-path="url(#p3f71473dca)" d="M 341.180899 134.6628 
L 367.497851 134.6628 
" style="fill:none;stroke:#5c5c5c;stroke-linecap:square;stroke-width:0.75;"/>
   </g>
   <g id="line2d_93">
    <path clip-path="url(#p3f71473dca)" d="M 347.763867 147.760693 
L 360.914883 147.760693 
" style="fill:none;stroke:#5c5c5c;stroke-linecap:square;stroke-width:0.75;"/>
   </g>
   <g id="line2d_94">
    <path clip-path="url(#p3f71473dca)" d="M 336.306992 100.575324 
L 372.371758 100.575324 
" style="fill:none;stroke:#5c5c5c;stroke-linecap:square;stroke-width:0.75;"/>
   </g>
   <g id="line2d_95">
    <path clip-path="url(#p3f71473dca)" d="M 345.430099 89.070547 
L 363.248651 89.070547 
" style="fill:none;stroke:#5c5c5c;stroke-linecap:square;stroke-width:0.75;"/>
   </g>
   <g id="line2d_96">
    <path clip-path="url(#p3f71473dca)" d="M 344.991459 143.242765 
L 363.687291 143.242765 
" style="fill:none;stroke:#5c5c5c;stroke-linecap:square;stroke-width:0.75;"/>
   </g>
   <g id="line2d_97">
    <path clip-path="url(#p3f71473dca)" d="M 328.278446 119.429994 
L 380.400304 119.429994 
" style="fill:none;stroke:#5c5c5c;stroke-linecap:square;stroke-width:0.75;"/>
   </g>
   <g id="line2d_98">
    <path clip-path="url(#p3f71473dca)" d="M 329.32799 121.333417 
L 379.35076 121.333417 
" style="fill:none;stroke:#5c5c5c;stroke-linecap:square;stroke-width:0.75;"/>
   </g>
   <g id="line2d_99">
    <path clip-path="url(#p3f71473dca)" d="M 328.278446 119.871722 
L 380.400304 119.871722 
" style="fill:none;stroke:#5c5c5c;stroke-linecap:square;stroke-width:0.75;"/>
   </g>
   <g id="line2d_100">
    <path clip-path="url(#p3f71473dca)" d="M 328.731195 120.182971 
L 379.947555 120.182971 
" style="fill:none;stroke:#5c5c5c;stroke-linecap:square;stroke-width:0.75;"/>
   </g>
   <g id="line2d_101">
    <path clip-path="url(#p3f71473dca)" d="M 337.023392 99.276724 
L 371.655358 99.276724 
" style="fill:none;stroke:#5c5c5c;stroke-linecap:square;stroke-width:0.75;"/>
   </g>
   <g id="line2d_102">
    <path clip-path="url(#p3f71473dca)" d="M 328.200411 114.344323 
L 380.478339 114.344323 
" style="fill:none;stroke:#5c5c5c;stroke-linecap:square;stroke-width:0.75;"/>
   </g>
   <g id="line2d_103">
    <path clip-path="url(#p3f71473dca)" d="M 334.982986 102.624171 
L 373.695764 102.624171 
" style="fill:none;stroke:#5c5c5c;stroke-linecap:square;stroke-width:0.75;"/>
   </g>
   <g id="line2d_104">
    <path clip-path="url(#p3f71473dca)" d="M 328.200411 114.655163 
L 380.478339 114.655163 
" style="fill:none;stroke:#5c5c5c;stroke-linecap:square;stroke-width:0.75;"/>
   </g>
   <g id="line2d_105">
    <path clip-path="url(#p3f71473dca)" d="M 328.278446 119.708624 
L 380.400304 119.708624 
" style="fill:none;stroke:#5c5c5c;stroke-linecap:square;stroke-width:0.75;"/>
   </g>
   <g id="line2d_106">
    <path clip-path="url(#p3f71473dca)" d="M 331.819695 124.159991 
L 376.859055 124.159991 
" style="fill:none;stroke:#5c5c5c;stroke-linecap:square;stroke-width:0.75;"/>
   </g>
   <g id="line2d_107">
    <path clip-path="url(#p3f71473dca)" d="M 337.773249 99.038554 
L 370.905501 99.038554 
" style="fill:none;stroke:#5c5c5c;stroke-linecap:square;stroke-width:0.75;"/>
   </g>
   <g id="line2d_108">
    <path clip-path="url(#p3f71473dca)" d="M 336.306992 100.46334 
L 372.371758 100.46334 
" style="fill:none;stroke:#5c5c5c;stroke-linecap:square;stroke-width:0.75;"/>
   </g>
   <g id="line2d_109">
    <path clip-path="url(#p3f71473dca)" d="M 330.055211 122.781326 
L 378.623539 122.781326 
" style="fill:none;stroke:#5c5c5c;stroke-linecap:square;stroke-width:0.75;"/>
   </g>
   <g id="line2d_110">
    <path clip-path="url(#p3f71473dca)" d="M 339.345147 131.671911 
L 369.333603 131.671911 
" style="fill:none;stroke:#5c5c5c;stroke-linecap:square;stroke-width:0.75;"/>
   </g>
   <g id="line2d_111">
    <path clip-path="url(#p3f71473dca)" d="M 333.22482 105.446551 
L 375.45393 105.446551 
" style="fill:none;stroke:#5c5c5c;stroke-linecap:square;stroke-width:0.75;"/>
   </g>
   <g id="line2d_112">
    <path clip-path="url(#p3f71473dca)" d="M 328.278446 119.210107 
L 380.400304 119.210107 
" style="fill:none;stroke:#5c5c5c;stroke-linecap:square;stroke-width:0.75;"/>
   </g>
   <g id="line2d_113">
    <path clip-path="url(#p3f71473dca)" d="M 329.444602 112.383822 
L 379.234148 112.383822 
" style="fill:none;stroke:#5c5c5c;stroke-linecap:square;stroke-width:0.75;"/>
   </g>
   <g id="line2d_114">
    <path clip-path="url(#p3f71473dca)" d="M 344.086624 141.399177 
L 364.592126 141.399177 
" style="fill:none;stroke:#5c5c5c;stroke-linecap:square;stroke-width:0.75;"/>
   </g>
   <g id="line2d_115">
    <path clip-path="url(#p3f71473dca)" d="M 327.976957 118.919161 
L 380.701793 118.919161 
" style="fill:none;stroke:#5c5c5c;stroke-linecap:square;stroke-width:0.75;"/>
   </g>
   <g id="line2d_116">
    <path clip-path="url(#p3f71473dca)" d="M 348.458939 84.743581 
L 360.219811 84.743581 
" style="fill:none;stroke:#5c5c5c;stroke-linecap:square;stroke-width:0.75;"/>
   </g>
   <g id="line2d_117">
    <path clip-path="url(#p3f71473dca)" d="M 346.080502 88.42072 
L 362.598248 88.42072 
" style="fill:none;stroke:#5c5c5c;stroke-linecap:square;stroke-width:0.75;"/>
   </g>
   <g id="line2d_118">
    <path clip-path="url(#p3f71473dca)" d="M 328.731195 120.168991 
L 379.947555 120.168991 
" style="fill:none;stroke:#5c5c5c;stroke-linecap:square;stroke-width:0.75;"/>
   </g>
   <g id="line2d_119">
    <path clip-path="url(#p3f71473dca)" d="M 334.37201 103.631939 
L 374.30674 103.631939 
" style="fill:none;stroke:#5c5c5c;stroke-linecap:square;stroke-width:0.75;"/>
   </g>
   <g id="line2d_120">
    <path clip-path="url(#p3f71473dca)" d="M 335.626923 101.192868 
L 373.051827 101.192868 
" style="fill:none;stroke:#5c5c5c;stroke-linecap:square;stroke-width:0.75;"/>
   </g>
   <g id="line2d_121">
    <path clip-path="url(#p3f71473dca)" d="M 344.523756 142.462974 
L 364.154994 142.462974 
" style="fill:none;stroke:#5c5c5c;stroke-linecap:square;stroke-width:0.75;"/>
   </g>
   <g id="line2d_122">
    <path clip-path="url(#p3f71473dca)" d="M 329.444602 112.02857 
L 379.234148 112.02857 
" style="fill:none;stroke:#5c5c5c;stroke-linecap:square;stroke-width:0.75;"/>
   </g>
   <g id="line2d_123">
    <path clip-path="url(#p3f71473dca)" d="M 328.545478 113.498804 
L 380.133272 113.498804 
" style="fill:none;stroke:#5c5c5c;stroke-linecap:square;stroke-width:0.75;"/>
   </g>
   <g id="line2d_124">
    <path clip-path="url(#p3f71473dca)" d="M 335.863052 127.825687 
L 372.815698 127.825687 
" style="fill:none;stroke:#5c5c5c;stroke-linecap:square;stroke-width:0.75;"/>
   </g>
   <g id="patch_3">
    <path d="M 53.019375 224.64 
L 53.019375 7.2 
" style="fill:none;stroke:#000000;stroke-linecap:square;stroke-linejoin:miter;stroke-width:0.8;"/>
   </g>
   <g id="patch_4">
    <path d="M 53.019375 224.64 
L 387.819375 224.64 
" style="fill:none;stroke:#000000;stroke-linecap:square;stroke-linejoin:miter;stroke-width:0.8;"/>
   </g>
  </g>
 </g>
 <defs>
  <clipPath id="p3f71473dca">
   <rect height="217.44" width="334.8" x="53.019375" y="7.2"/>
  </clipPath>
 </defs>
</svg>
