<?xml version="1.0" encoding="utf-8" standalone="no"?>
<!DOCTYPE svg PUBLIC "-//W3C//DTD SVG 1.1//EN"
  "http://www.w3.org/Graphics/SVG/1.1/DTD/svg11.dtd">
<!-- Created with matplotlib (http://matplotlib.org/) -->
<svg height="341pt" version="1.1" viewBox="0 0 477 341" width="477pt" xmlns="http://www.w3.org/2000/svg" xmlns:xlink="http://www.w3.org/1999/xlink">
 <defs>
  <style type="text/css">
*{stroke-linecap:butt;stroke-linejoin:round;}
  </style>
 </defs>
 <g id="figure_1">
  <g id="patch_1">
   <path d="M 0 341.137812 
L 477.063594 341.137812 
L 477.063594 0 
L 0 0 
z
" style="fill:#ffffff;"/>
  </g>
  <g id="axes_1">
   <g id="patch_2">
    <path d="M 70.992344 285 
L 461.592344 285 
L 461.592344 13.2 
L 70.992344 13.2 
z
" style="fill:#ffffff;"/>
   </g>
   <g id="PolyCollection_1">
    <path clip-path="url(#p01420d6aa2)" d="M -7.127656 96.783797 
L -7.127656 117.753591 
L -0.617656 96.476668 
L 5.892344 59.799152 
L 12.402344 33.108105 
L 18.912344 38.622588 
L 25.422344 60.544038 
L 31.932344 85.737921 
L 38.442344 108.334572 
L 44.952344 125.895538 
L 51.462344 137.216739 
L 57.972344 142.277377 
L 64.482344 145.358865 
L 70.992344 147.874893 
L 77.502344 144.70256 
L 84.012344 136.889997 
L 90.522344 132.611008 
L 97.032344 133.324836 
L 103.542344 135.703442 
L 110.052344 137.501128 
L 116.562344 135.868525 
L 123.072344 130.433474 
L 129.582344 124.299393 
L 136.092344 119.840317 
L 142.602344 116.849305 
L 149.112344 113.716185 
L 155.622344 109.093974 
L 162.132344 103.270517 
L 168.642344 97.577087 
L 175.152344 93.359293 
L 181.662344 91.051908 
L 188.172344 89.808794 
L 194.682344 88.17107 
L 201.192344 85.443367 
L 207.702344 82.310012 
L 214.212344 79.816989 
L 220.722344 78.309907 
L 227.232344 76.901683 
L 233.742344 74.744745 
L 240.252344 72.415265 
L 246.762344 70.89899 
L 253.272344 70.729565 
L 259.782344 71.797006 
L 266.292344 74.009219 
L 272.802344 77.90406 
L 279.312344 83.346485 
L 285.822344 89.053541 
L 292.332344 94.392647 
L 298.842344 99.256989 
L 305.352344 102.571756 
L 311.862344 104.163083 
L 318.372344 106.039536 
L 324.882344 110.395565 
L 331.392344 117.39671 
L 337.902344 125.630372 
L 344.412344 133.442457 
L 350.922344 139.476576 
L 357.432344 143.628854 
L 363.942344 147.220063 
L 370.452344 150.965406 
L 376.962344 153.860579 
L 383.472344 155.394701 
L 389.982344 156.417752 
L 396.492344 156.828564 
L 403.002344 155.746748 
L 409.512344 153.809552 
L 416.022344 153.157265 
L 422.532344 155.522138 
L 429.042344 161.249604 
L 435.552344 169.037357 
L 442.062344 176.061189 
L 448.572344 179.799221 
L 455.082344 181.472973 
L 461.592344 184.095836 
L 468.102344 187.533306 
L 474.612344 190.548203 
L 481.122344 194.211021 
L 487.632344 196.90352 
L 494.142344 194.931875 
L 500.652344 194.899822 
L 507.162344 207.291117 
L 513.672344 225.01542 
L 520.182344 232.160661 
L 526.692344 220.161826 
L 533.202344 197.408433 
L 539.712344 192.261963 
L 546.222344 220.435423 
L 552.732344 251.79488 
L 559.242344 262.537349 
L 565.752344 244.471018 
L 572.262344 215.762794 
L 578.772344 216.744177 
L 585.282344 251.932988 
L 591.792344 276.498203 
L 598.302344 223.476658 
L 604.812344 178.840277 
L 611.322344 129.658249 
L 617.832344 88.474107 
L 624.342344 56.013559 
L 630.852344 33.212303 
L 637.362344 22.774078 
L 637.362344 -418.841315 
L 637.362344 -418.841315 
L 630.852344 -338.723766 
L 624.342344 -237.658719 
L 617.832344 -132.516803 
L 611.322344 -45.613778 
L 604.812344 10.728353 
L 598.302344 51.053097 
L 591.792344 55.563214 
L 585.282344 117.639347 
L 578.772344 129.677293 
L 572.262344 60.588222 
L 565.752344 -26.08289 
L 559.242344 -43.736283 
L 552.732344 -0.928212 
L 546.222344 47.358579 
L 539.712344 79.233013 
L 533.202344 98.697652 
L 526.692344 122.01447 
L 520.182344 141.447687 
L 513.672344 145.520982 
L 507.162344 137.00831 
L 500.652344 125.158547 
L 494.142344 113.542822 
L 487.632344 105.667056 
L 481.122344 101.262003 
L 474.612344 95.378338 
L 468.102344 90.521549 
L 461.592344 93.841472 
L 455.082344 103.132114 
L 448.572344 109.565946 
L 442.062344 109.889508 
L 435.552344 108.071505 
L 429.042344 107.611798 
L 422.532344 107.86641 
L 416.022344 107.325221 
L 409.512344 106.919602 
L 403.002344 107.739015 
L 396.492344 109.103481 
L 389.982344 110.198389 
L 383.472344 110.474271 
L 376.962344 109.485836 
L 370.452344 107.947499 
L 363.942344 106.679017 
L 357.432344 105.128513 
L 350.922344 101.322409 
L 344.412344 93.92303 
L 337.902344 84.541244 
L 331.392344 76.404247 
L 324.882344 71.642745 
L 318.372344 70.787269 
L 311.862344 72.747653 
L 305.352344 74.82264 
L 298.842344 75.07935 
L 292.332344 73.575943 
L 285.822344 70.53628 
L 279.312344 66.085851 
L 272.802344 61.168791 
L 266.292344 57.615667 
L 259.782344 56.34877 
L 253.272344 56.773156 
L 246.762344 58.54469 
L 240.252344 61.260663 
L 233.742344 63.231494 
L 227.232344 63.840395 
L 220.722344 64.582077 
L 214.212344 66.071392 
L 207.702344 67.55962 
L 201.192344 68.974569 
L 194.682344 70.75567 
L 188.172344 72.207596 
L 181.662344 72.689664 
L 175.152344 73.816833 
L 168.642344 77.487121 
L 162.132344 83.720725 
L 155.622344 90.697668 
L 149.112344 96.067489 
L 142.602344 99.359431 
L 136.092344 101.983896 
L 129.582344 106.064492 
L 123.072344 112.651013 
L 116.562344 119.578293 
L 110.052344 123.183115 
L 103.542344 121.99232 
L 97.032344 118.475366 
L 90.522344 118.044193 
L 84.012344 122.49123 
L 77.502344 128.625568 
L 70.992344 131.578333 
L 64.482344 127.670978 
L 57.972344 120.335024 
L 51.462344 114.030462 
L 44.952344 102.863162 
L 38.442344 77.629265 
L 31.932344 38.964403 
L 25.422344 -5.503852 
L 18.912344 -42.413492 
L 12.402344 -40.949319 
L 5.892344 11.797036 
L -0.617656 67.296302 
L -7.127656 96.783797 
z
" style="fill:#7390d9;fill-opacity:0.25;stroke:#7390d9;stroke-opacity:0.25;"/>
   </g>
   <g id="PolyCollection_2">
    <path clip-path="url(#p01420d6aa2)" d="M -7.127656 55.412684 
L -7.127656 129.726421 
L -0.617656 85.500411 
L 5.892344 23.28974 
L 12.402344 -14.122643 
L 18.912344 12.965807 
L 25.422344 64.963784 
L 31.932344 105.9476 
L 38.442344 129.731959 
L 44.952344 140.916063 
L 51.462344 147.105929 
L 57.972344 153.744032 
L 64.482344 160.229858 
L 70.992344 164.595432 
L 77.502344 165.613934 
L 84.012344 161.535551 
L 90.522344 153.464357 
L 97.032344 145.251497 
L 103.542344 140.494363 
L 110.052344 137.997762 
L 116.562344 135.677871 
L 123.072344 133.419494 
L 129.582344 130.295985 
L 136.092344 125.280102 
L 142.602344 119.091345 
L 149.112344 113.053048 
L 155.622344 107.697214 
L 162.132344 102.900971 
L 168.642344 97.310167 
L 175.152344 90.330946 
L 181.662344 83.713543 
L 188.172344 79.587705 
L 194.682344 77.990538 
L 201.192344 77.340423 
L 207.702344 76.435056 
L 214.212344 74.317508 
L 220.722344 70.506537 
L 227.232344 65.794589 
L 233.742344 61.698588 
L 240.252344 58.740022 
L 246.762344 56.523225 
L 253.272344 54.451041 
L 259.782344 51.962771 
L 266.292344 48.935053 
L 272.802344 46.130317 
L 279.312344 45.799451 
L 285.822344 50.459814 
L 292.332344 59.728333 
L 298.842344 71.195898 
L 305.352344 83.966005 
L 311.862344 97.993798 
L 318.372344 113.226437 
L 324.882344 129.656543 
L 331.392344 146.082647 
L 337.902344 160.425663 
L 344.412344 172.405317 
L 350.922344 183.095491 
L 357.432344 192.512794 
L 363.942344 200.429092 
L 370.452344 207.283123 
L 376.962344 212.955413 
L 383.472344 217.426485 
L 389.982344 221.862617 
L 396.492344 227.15021 
L 403.002344 231.595721 
L 409.512344 233.082718 
L 416.022344 232.800581 
L 422.532344 233.282147 
L 429.042344 234.217219 
L 435.552344 235.329244 
L 442.062344 238.269198 
L 448.572344 241.091311 
L 455.082344 241.667134 
L 461.592344 242.987161 
L 468.102344 250.161011 
L 474.612344 262.704144 
L 481.122344 275.870535 
L 487.632344 291.850273 
L 494.142344 309.626099 
L 500.652344 314.378056 
L 507.162344 309.177716 
L 513.672344 315.641023 
L 520.182344 330.579256 
L 526.692344 344.737032 
L 533.202344 344.911056 
L 539.712344 342.618119 
L 546.222344 352.157159 
L 552.732344 366.363113 
L 559.242344 386.49903 
L 565.752344 447.344106 
L 572.262344 711.56102 
L 578.772344 2106.221178 
L 585.282344 855.925679 
L 591.792344 450.196412 
L 598.302344 406.136712 
L 604.812344 388.876438 
L 611.322344 392.51757 
L 617.832344 397.205769 
L 624.342344 398.24273 
L 630.852344 396.38025 
L 637.362344 392.663729 
L 637.362344 288.899401 
L 637.362344 288.899401 
L 630.852344 295.032493 
L 624.342344 301.065124 
L 617.832344 308.365025 
L 611.322344 320.902434 
L 604.812344 339.746681 
L 598.302344 338.267385 
L 591.792344 265.676466 
L 585.282344 -362.68261 
L 578.772344 -2218.956901 
L 572.262344 -518.429772 
L 565.752344 87.997946 
L 559.242344 249.054101 
L 552.732344 245.539614 
L 546.222344 226.389431 
L 539.712344 221.511952 
L 533.202344 218.277149 
L 526.692344 206.363545 
L 520.182344 197.478615 
L 513.672344 191.912227 
L 507.162344 181.658283 
L 500.652344 161.114222 
L 494.142344 159.01663 
L 487.632344 176.174924 
L 481.122344 190.699426 
L 474.612344 197.907365 
L 468.102344 198.276129 
L 461.592344 191.446589 
L 455.082344 185.998063 
L 448.572344 187.026213 
L 442.062344 190.493733 
L 435.552344 193.756221 
L 429.042344 196.058887 
L 422.532344 195.787976 
L 416.022344 193.566693 
L 409.512344 192.211456 
L 403.002344 189.816941 
L 396.492344 182.975547 
L 389.982344 173.59937 
L 383.472344 165.318599 
L 376.962344 158.326347 
L 370.452344 151.076583 
L 363.942344 143.173392 
L 357.432344 134.376045 
L 350.922344 125.264112 
L 344.412344 117.256327 
L 337.902344 109.174039 
L 331.392344 97.799546 
L 324.882344 83.088116 
L 318.372344 68.780006 
L 311.862344 58.13115 
L 305.352344 50.482993 
L 298.842344 42.069345 
L 292.332344 32.090585 
L 285.822344 24.372108 
L 279.312344 21.300399 
L 272.802344 22.281125 
L 266.292344 25.153841 
L 259.782344 27.85158 
L 253.272344 30.0194 
L 246.762344 32.562253 
L 240.252344 36.51724 
L 233.742344 41.871369 
L 227.232344 47.861924 
L 220.722344 54.075991 
L 214.212344 59.454597 
L 207.702344 62.31731 
L 201.192344 63.304556 
L 194.682344 64.810498 
L 188.172344 67.374731 
L 181.662344 69.737275 
L 175.152344 72.093717 
L 168.642344 75.045869 
L 162.132344 78.284315 
L 155.622344 81.583741 
L 149.112344 84.987716 
L 142.602344 88.943681 
L 136.092344 93.536211 
L 129.582344 98.647294 
L 123.072344 104.528278 
L 116.562344 111.588362 
L 110.052344 119.317266 
L 103.542344 126.683896 
L 97.032344 133.167527 
L 90.522344 139.537104 
L 84.012344 145.690738 
L 77.502344 148.778776 
L 70.992344 147.416994 
L 64.482344 141.629412 
L 57.972344 131.809589 
L 51.462344 115.727095 
L 44.952344 89.818187 
L 38.442344 52.798297 
L 31.932344 3.778439 
L 25.422344 -55.949375 
L 18.912344 -112.422147 
L 12.402344 -135.651863 
L 5.892344 -103.641133 
L -0.617656 -24.011588 
L -7.127656 55.412684 
z
" style="fill:#57a773;fill-opacity:0.25;stroke:#57a773;stroke-opacity:0.25;"/>
   </g>
   <g id="matplotlib.axis_1">
    <g id="xtick_1">
     <g id="line2d_1">
      <defs>
       <path d="M 0 0 
L 0 6 
" id="mc4d1debe59" style="stroke:#262626;"/>
      </defs>
      <g>
       <use style="fill:#262626;stroke:#262626;" x="70.992344" xlink:href="#mc4d1debe59" y="285"/>
      </g>
     </g>
     <g id="text_1">
      <!-- 5 -->
      <defs>
       <path d="M 10.796875 72.90625 
L 49.515625 72.90625 
L 49.515625 64.59375 
L 19.828125 64.59375 
L 19.828125 46.734375 
Q 21.96875 47.46875 24.109375 47.828125 
Q 26.265625 48.1875 28.421875 48.1875 
Q 40.625 48.1875 47.75 41.5 
Q 54.890625 34.8125 54.890625 23.390625 
Q 54.890625 11.625 47.5625 5.09375 
Q 40.234375 -1.421875 26.90625 -1.421875 
Q 22.3125 -1.421875 17.546875 -0.640625 
Q 12.796875 0.140625 7.71875 1.703125 
L 7.71875 11.625 
Q 12.109375 9.234375 16.796875 8.0625 
Q 21.484375 6.890625 26.703125 6.890625 
Q 35.15625 6.890625 40.078125 11.328125 
Q 45.015625 15.765625 45.015625 23.390625 
Q 45.015625 31 40.078125 35.4375 
Q 35.15625 39.890625 26.703125 39.890625 
Q 22.75 39.890625 18.8125 39.015625 
Q 14.890625 38.140625 10.796875 36.28125 
z
" id="DejaVuSans-35"/>
      </defs>
      <g style="fill:#262626;" transform="translate(66.856719 307.877969)scale(0.13 -0.13)">
       <use xlink:href="#DejaVuSans-35"/>
      </g>
     </g>
    </g>
    <g id="xtick_2">
     <g id="line2d_2">
      <g>
       <use style="fill:#262626;stroke:#262626;" x="119.817344" xlink:href="#mc4d1debe59" y="285"/>
      </g>
     </g>
     <g id="text_2">
      <!-- 10 -->
      <defs>
       <path d="M 12.40625 8.296875 
L 28.515625 8.296875 
L 28.515625 63.921875 
L 10.984375 60.40625 
L 10.984375 69.390625 
L 28.421875 72.90625 
L 38.28125 72.90625 
L 38.28125 8.296875 
L 54.390625 8.296875 
L 54.390625 0 
L 12.40625 0 
z
" id="DejaVuSans-31"/>
       <path d="M 31.78125 66.40625 
Q 24.171875 66.40625 20.328125 58.90625 
Q 16.5 51.421875 16.5 36.375 
Q 16.5 21.390625 20.328125 13.890625 
Q 24.171875 6.390625 31.78125 6.390625 
Q 39.453125 6.390625 43.28125 13.890625 
Q 47.125 21.390625 47.125 36.375 
Q 47.125 51.421875 43.28125 58.90625 
Q 39.453125 66.40625 31.78125 66.40625 
z
M 31.78125 74.21875 
Q 44.046875 74.21875 50.515625 64.515625 
Q 56.984375 54.828125 56.984375 36.375 
Q 56.984375 17.96875 50.515625 8.265625 
Q 44.046875 -1.421875 31.78125 -1.421875 
Q 19.53125 -1.421875 13.0625 8.265625 
Q 6.59375 17.96875 6.59375 36.375 
Q 6.59375 54.828125 13.0625 64.515625 
Q 19.53125 74.21875 31.78125 74.21875 
z
" id="DejaVuSans-30"/>
      </defs>
      <g style="fill:#262626;" transform="translate(111.546094 307.877969)scale(0.13 -0.13)">
       <use xlink:href="#DejaVuSans-31"/>
       <use x="63.623047" xlink:href="#DejaVuSans-30"/>
      </g>
     </g>
    </g>
    <g id="xtick_3">
     <g id="line2d_3">
      <g>
       <use style="fill:#262626;stroke:#262626;" x="168.642344" xlink:href="#mc4d1debe59" y="285"/>
      </g>
     </g>
     <g id="text_3">
      <!-- 15 -->
      <g style="fill:#262626;" transform="translate(160.371094 307.877969)scale(0.13 -0.13)">
       <use xlink:href="#DejaVuSans-31"/>
       <use x="63.623047" xlink:href="#DejaVuSans-35"/>
      </g>
     </g>
    </g>
    <g id="xtick_4">
     <g id="line2d_4">
      <g>
       <use style="fill:#262626;stroke:#262626;" x="217.467344" xlink:href="#mc4d1debe59" y="285"/>
      </g>
     </g>
     <g id="text_4">
      <!-- 20 -->
      <defs>
       <path d="M 19.1875 8.296875 
L 53.609375 8.296875 
L 53.609375 0 
L 7.328125 0 
L 7.328125 8.296875 
Q 12.9375 14.109375 22.625 23.890625 
Q 32.328125 33.6875 34.8125 36.53125 
Q 39.546875 41.84375 41.421875 45.53125 
Q 43.3125 49.21875 43.3125 52.78125 
Q 43.3125 58.59375 39.234375 62.25 
Q 35.15625 65.921875 28.609375 65.921875 
Q 23.96875 65.921875 18.8125 64.3125 
Q 13.671875 62.703125 7.8125 59.421875 
L 7.8125 69.390625 
Q 13.765625 71.78125 18.9375 73 
Q 24.125 74.21875 28.421875 74.21875 
Q 39.75 74.21875 46.484375 68.546875 
Q 53.21875 62.890625 53.21875 53.421875 
Q 53.21875 48.921875 51.53125 44.890625 
Q 49.859375 40.875 45.40625 35.40625 
Q 44.1875 33.984375 37.640625 27.21875 
Q 31.109375 20.453125 19.1875 8.296875 
z
" id="DejaVuSans-32"/>
      </defs>
      <g style="fill:#262626;" transform="translate(209.196094 307.877969)scale(0.13 -0.13)">
       <use xlink:href="#DejaVuSans-32"/>
       <use x="63.623047" xlink:href="#DejaVuSans-30"/>
      </g>
     </g>
    </g>
    <g id="xtick_5">
     <g id="line2d_5">
      <g>
       <use style="fill:#262626;stroke:#262626;" x="266.292344" xlink:href="#mc4d1debe59" y="285"/>
      </g>
     </g>
     <g id="text_5">
      <!-- 25 -->
      <g style="fill:#262626;" transform="translate(258.021094 307.877969)scale(0.13 -0.13)">
       <use xlink:href="#DejaVuSans-32"/>
       <use x="63.623047" xlink:href="#DejaVuSans-35"/>
      </g>
     </g>
    </g>
    <g id="xtick_6">
     <g id="line2d_6">
      <g>
       <use style="fill:#262626;stroke:#262626;" x="315.117344" xlink:href="#mc4d1debe59" y="285"/>
      </g>
     </g>
     <g id="text_6">
      <!-- 30 -->
      <defs>
       <path d="M 40.578125 39.3125 
Q 47.65625 37.796875 51.625 33 
Q 55.609375 28.21875 55.609375 21.1875 
Q 55.609375 10.40625 48.1875 4.484375 
Q 40.765625 -1.421875 27.09375 -1.421875 
Q 22.515625 -1.421875 17.65625 -0.515625 
Q 12.796875 0.390625 7.625 2.203125 
L 7.625 11.71875 
Q 11.71875 9.328125 16.59375 8.109375 
Q 21.484375 6.890625 26.8125 6.890625 
Q 36.078125 6.890625 40.9375 10.546875 
Q 45.796875 14.203125 45.796875 21.1875 
Q 45.796875 27.640625 41.28125 31.265625 
Q 36.765625 34.90625 28.71875 34.90625 
L 20.21875 34.90625 
L 20.21875 43.015625 
L 29.109375 43.015625 
Q 36.375 43.015625 40.234375 45.921875 
Q 44.09375 48.828125 44.09375 54.296875 
Q 44.09375 59.90625 40.109375 62.90625 
Q 36.140625 65.921875 28.71875 65.921875 
Q 24.65625 65.921875 20.015625 65.03125 
Q 15.375 64.15625 9.8125 62.3125 
L 9.8125 71.09375 
Q 15.4375 72.65625 20.34375 73.4375 
Q 25.25 74.21875 29.59375 74.21875 
Q 40.828125 74.21875 47.359375 69.109375 
Q 53.90625 64.015625 53.90625 55.328125 
Q 53.90625 49.265625 50.4375 45.09375 
Q 46.96875 40.921875 40.578125 39.3125 
z
" id="DejaVuSans-33"/>
      </defs>
      <g style="fill:#262626;" transform="translate(306.846094 307.877969)scale(0.13 -0.13)">
       <use xlink:href="#DejaVuSans-33"/>
       <use x="63.623047" xlink:href="#DejaVuSans-30"/>
      </g>
     </g>
    </g>
    <g id="xtick_7">
     <g id="line2d_7">
      <g>
       <use style="fill:#262626;stroke:#262626;" x="363.942344" xlink:href="#mc4d1debe59" y="285"/>
      </g>
     </g>
     <g id="text_7">
      <!-- 35 -->
      <g style="fill:#262626;" transform="translate(355.671094 307.877969)scale(0.13 -0.13)">
       <use xlink:href="#DejaVuSans-33"/>
       <use x="63.623047" xlink:href="#DejaVuSans-35"/>
      </g>
     </g>
    </g>
    <g id="xtick_8">
     <g id="line2d_8">
      <g>
       <use style="fill:#262626;stroke:#262626;" x="412.767344" xlink:href="#mc4d1debe59" y="285"/>
      </g>
     </g>
     <g id="text_8">
      <!-- 40 -->
      <defs>
       <path d="M 37.796875 64.3125 
L 12.890625 25.390625 
L 37.796875 25.390625 
z
M 35.203125 72.90625 
L 47.609375 72.90625 
L 47.609375 25.390625 
L 58.015625 25.390625 
L 58.015625 17.1875 
L 47.609375 17.1875 
L 47.609375 0 
L 37.796875 0 
L 37.796875 17.1875 
L 4.890625 17.1875 
L 4.890625 26.703125 
z
" id="DejaVuSans-34"/>
      </defs>
      <g style="fill:#262626;" transform="translate(404.496094 307.877969)scale(0.13 -0.13)">
       <use xlink:href="#DejaVuSans-34"/>
       <use x="63.623047" xlink:href="#DejaVuSans-30"/>
      </g>
     </g>
    </g>
    <g id="xtick_9">
     <g id="line2d_9">
      <g>
       <use style="fill:#262626;stroke:#262626;" x="461.592344" xlink:href="#mc4d1debe59" y="285"/>
      </g>
     </g>
     <g id="text_9">
      <!-- 45 -->
      <g style="fill:#262626;" transform="translate(453.321094 307.877969)scale(0.13 -0.13)">
       <use xlink:href="#DejaVuSans-34"/>
       <use x="63.623047" xlink:href="#DejaVuSans-35"/>
      </g>
     </g>
    </g>
    <g id="text_10">
     <!-- Document Similarity -->
     <defs>
      <path d="M 19.671875 64.796875 
L 19.671875 8.109375 
L 31.59375 8.109375 
Q 46.6875 8.109375 53.6875 14.9375 
Q 60.6875 21.78125 60.6875 36.53125 
Q 60.6875 51.171875 53.6875 57.984375 
Q 46.6875 64.796875 31.59375 64.796875 
z
M 9.8125 72.90625 
L 30.078125 72.90625 
Q 51.265625 72.90625 61.171875 64.09375 
Q 71.09375 55.28125 71.09375 36.53125 
Q 71.09375 17.671875 61.125 8.828125 
Q 51.171875 0 30.078125 0 
L 9.8125 0 
z
" id="DejaVuSans-44"/>
      <path d="M 30.609375 48.390625 
Q 23.390625 48.390625 19.1875 42.75 
Q 14.984375 37.109375 14.984375 27.296875 
Q 14.984375 17.484375 19.15625 11.84375 
Q 23.34375 6.203125 30.609375 6.203125 
Q 37.796875 6.203125 41.984375 11.859375 
Q 46.1875 17.53125 46.1875 27.296875 
Q 46.1875 37.015625 41.984375 42.703125 
Q 37.796875 48.390625 30.609375 48.390625 
z
M 30.609375 56 
Q 42.328125 56 49.015625 48.375 
Q 55.71875 40.765625 55.71875 27.296875 
Q 55.71875 13.875 49.015625 6.21875 
Q 42.328125 -1.421875 30.609375 -1.421875 
Q 18.84375 -1.421875 12.171875 6.21875 
Q 5.515625 13.875 5.515625 27.296875 
Q 5.515625 40.765625 12.171875 48.375 
Q 18.84375 56 30.609375 56 
z
" id="DejaVuSans-6f"/>
      <path d="M 48.78125 52.59375 
L 48.78125 44.1875 
Q 44.96875 46.296875 41.140625 47.34375 
Q 37.3125 48.390625 33.40625 48.390625 
Q 24.65625 48.390625 19.8125 42.84375 
Q 14.984375 37.3125 14.984375 27.296875 
Q 14.984375 17.28125 19.8125 11.734375 
Q 24.65625 6.203125 33.40625 6.203125 
Q 37.3125 6.203125 41.140625 7.25 
Q 44.96875 8.296875 48.78125 10.40625 
L 48.78125 2.09375 
Q 45.015625 0.34375 40.984375 -0.53125 
Q 36.96875 -1.421875 32.421875 -1.421875 
Q 20.0625 -1.421875 12.78125 6.34375 
Q 5.515625 14.109375 5.515625 27.296875 
Q 5.515625 40.671875 12.859375 48.328125 
Q 20.21875 56 33.015625 56 
Q 37.15625 56 41.109375 55.140625 
Q 45.0625 54.296875 48.78125 52.59375 
z
" id="DejaVuSans-63"/>
      <path d="M 8.5 21.578125 
L 8.5 54.6875 
L 17.484375 54.6875 
L 17.484375 21.921875 
Q 17.484375 14.15625 20.5 10.265625 
Q 23.53125 6.390625 29.59375 6.390625 
Q 36.859375 6.390625 41.078125 11.03125 
Q 45.3125 15.671875 45.3125 23.6875 
L 45.3125 54.6875 
L 54.296875 54.6875 
L 54.296875 0 
L 45.3125 0 
L 45.3125 8.40625 
Q 42.046875 3.421875 37.71875 1 
Q 33.40625 -1.421875 27.6875 -1.421875 
Q 18.265625 -1.421875 13.375 4.4375 
Q 8.5 10.296875 8.5 21.578125 
z
M 31.109375 56 
z
" id="DejaVuSans-75"/>
      <path d="M 52 44.1875 
Q 55.375 50.25 60.0625 53.125 
Q 64.75 56 71.09375 56 
Q 79.640625 56 84.28125 50.015625 
Q 88.921875 44.046875 88.921875 33.015625 
L 88.921875 0 
L 79.890625 0 
L 79.890625 32.71875 
Q 79.890625 40.578125 77.09375 44.375 
Q 74.3125 48.1875 68.609375 48.1875 
Q 61.625 48.1875 57.5625 43.546875 
Q 53.515625 38.921875 53.515625 30.90625 
L 53.515625 0 
L 44.484375 0 
L 44.484375 32.71875 
Q 44.484375 40.625 41.703125 44.40625 
Q 38.921875 48.1875 33.109375 48.1875 
Q 26.21875 48.1875 22.15625 43.53125 
Q 18.109375 38.875 18.109375 30.90625 
L 18.109375 0 
L 9.078125 0 
L 9.078125 54.6875 
L 18.109375 54.6875 
L 18.109375 46.1875 
Q 21.1875 51.21875 25.484375 53.609375 
Q 29.78125 56 35.6875 56 
Q 41.65625 56 45.828125 52.96875 
Q 50 49.953125 52 44.1875 
z
" id="DejaVuSans-6d"/>
      <path d="M 56.203125 29.59375 
L 56.203125 25.203125 
L 14.890625 25.203125 
Q 15.484375 15.921875 20.484375 11.0625 
Q 25.484375 6.203125 34.421875 6.203125 
Q 39.59375 6.203125 44.453125 7.46875 
Q 49.3125 8.734375 54.109375 11.28125 
L 54.109375 2.78125 
Q 49.265625 0.734375 44.1875 -0.34375 
Q 39.109375 -1.421875 33.890625 -1.421875 
Q 20.796875 -1.421875 13.15625 6.1875 
Q 5.515625 13.8125 5.515625 26.8125 
Q 5.515625 40.234375 12.765625 48.109375 
Q 20.015625 56 32.328125 56 
Q 43.359375 56 49.78125 48.890625 
Q 56.203125 41.796875 56.203125 29.59375 
z
M 47.21875 32.234375 
Q 47.125 39.59375 43.09375 43.984375 
Q 39.0625 48.390625 32.421875 48.390625 
Q 24.90625 48.390625 20.390625 44.140625 
Q 15.875 39.890625 15.1875 32.171875 
z
" id="DejaVuSans-65"/>
      <path d="M 54.890625 33.015625 
L 54.890625 0 
L 45.90625 0 
L 45.90625 32.71875 
Q 45.90625 40.484375 42.875 44.328125 
Q 39.84375 48.1875 33.796875 48.1875 
Q 26.515625 48.1875 22.3125 43.546875 
Q 18.109375 38.921875 18.109375 30.90625 
L 18.109375 0 
L 9.078125 0 
L 9.078125 54.6875 
L 18.109375 54.6875 
L 18.109375 46.1875 
Q 21.34375 51.125 25.703125 53.5625 
Q 30.078125 56 35.796875 56 
Q 45.21875 56 50.046875 50.171875 
Q 54.890625 44.34375 54.890625 33.015625 
z
" id="DejaVuSans-6e"/>
      <path d="M 18.3125 70.21875 
L 18.3125 54.6875 
L 36.8125 54.6875 
L 36.8125 47.703125 
L 18.3125 47.703125 
L 18.3125 18.015625 
Q 18.3125 11.328125 20.140625 9.421875 
Q 21.96875 7.515625 27.59375 7.515625 
L 36.8125 7.515625 
L 36.8125 0 
L 27.59375 0 
Q 17.1875 0 13.234375 3.875 
Q 9.28125 7.765625 9.28125 18.015625 
L 9.28125 47.703125 
L 2.6875 47.703125 
L 2.6875 54.6875 
L 9.28125 54.6875 
L 9.28125 70.21875 
z
" id="DejaVuSans-74"/>
      <path id="DejaVuSans-20"/>
      <path d="M 53.515625 70.515625 
L 53.515625 60.890625 
Q 47.90625 63.578125 42.921875 64.890625 
Q 37.9375 66.21875 33.296875 66.21875 
Q 25.25 66.21875 20.875 63.09375 
Q 16.5 59.96875 16.5 54.203125 
Q 16.5 49.359375 19.40625 46.890625 
Q 22.3125 44.4375 30.421875 42.921875 
L 36.375 41.703125 
Q 47.40625 39.59375 52.65625 34.296875 
Q 57.90625 29 57.90625 20.125 
Q 57.90625 9.515625 50.796875 4.046875 
Q 43.703125 -1.421875 29.984375 -1.421875 
Q 24.8125 -1.421875 18.96875 -0.25 
Q 13.140625 0.921875 6.890625 3.21875 
L 6.890625 13.375 
Q 12.890625 10.015625 18.65625 8.296875 
Q 24.421875 6.59375 29.984375 6.59375 
Q 38.421875 6.59375 43.015625 9.90625 
Q 47.609375 13.234375 47.609375 19.390625 
Q 47.609375 24.75 44.3125 27.78125 
Q 41.015625 30.8125 33.5 32.328125 
L 27.484375 33.5 
Q 16.453125 35.6875 11.515625 40.375 
Q 6.59375 45.0625 6.59375 53.421875 
Q 6.59375 63.09375 13.40625 68.65625 
Q 20.21875 74.21875 32.171875 74.21875 
Q 37.3125 74.21875 42.625 73.28125 
Q 47.953125 72.359375 53.515625 70.515625 
z
" id="DejaVuSans-53"/>
      <path d="M 9.421875 54.6875 
L 18.40625 54.6875 
L 18.40625 0 
L 9.421875 0 
z
M 9.421875 75.984375 
L 18.40625 75.984375 
L 18.40625 64.59375 
L 9.421875 64.59375 
z
" id="DejaVuSans-69"/>
      <path d="M 9.421875 75.984375 
L 18.40625 75.984375 
L 18.40625 0 
L 9.421875 0 
z
" id="DejaVuSans-6c"/>
      <path d="M 34.28125 27.484375 
Q 23.390625 27.484375 19.1875 25 
Q 14.984375 22.515625 14.984375 16.5 
Q 14.984375 11.71875 18.140625 8.90625 
Q 21.296875 6.109375 26.703125 6.109375 
Q 34.1875 6.109375 38.703125 11.40625 
Q 43.21875 16.703125 43.21875 25.484375 
L 43.21875 27.484375 
z
M 52.203125 31.203125 
L 52.203125 0 
L 43.21875 0 
L 43.21875 8.296875 
Q 40.140625 3.328125 35.546875 0.953125 
Q 30.953125 -1.421875 24.3125 -1.421875 
Q 15.921875 -1.421875 10.953125 3.296875 
Q 6 8.015625 6 15.921875 
Q 6 25.140625 12.171875 29.828125 
Q 18.359375 34.515625 30.609375 34.515625 
L 43.21875 34.515625 
L 43.21875 35.40625 
Q 43.21875 41.609375 39.140625 45 
Q 35.0625 48.390625 27.6875 48.390625 
Q 23 48.390625 18.546875 47.265625 
Q 14.109375 46.140625 10.015625 43.890625 
L 10.015625 52.203125 
Q 14.9375 54.109375 19.578125 55.046875 
Q 24.21875 56 28.609375 56 
Q 40.484375 56 46.34375 49.84375 
Q 52.203125 43.703125 52.203125 31.203125 
z
" id="DejaVuSans-61"/>
      <path d="M 41.109375 46.296875 
Q 39.59375 47.171875 37.8125 47.578125 
Q 36.03125 48 33.890625 48 
Q 26.265625 48 22.1875 43.046875 
Q 18.109375 38.09375 18.109375 28.8125 
L 18.109375 0 
L 9.078125 0 
L 9.078125 54.6875 
L 18.109375 54.6875 
L 18.109375 46.1875 
Q 20.953125 51.171875 25.484375 53.578125 
Q 30.03125 56 36.53125 56 
Q 37.453125 56 38.578125 55.875 
Q 39.703125 55.765625 41.0625 55.515625 
z
" id="DejaVuSans-72"/>
      <path d="M 32.171875 -5.078125 
Q 28.375 -14.84375 24.75 -17.8125 
Q 21.140625 -20.796875 15.09375 -20.796875 
L 7.90625 -20.796875 
L 7.90625 -13.28125 
L 13.1875 -13.28125 
Q 16.890625 -13.28125 18.9375 -11.515625 
Q 21 -9.765625 23.484375 -3.21875 
L 25.09375 0.875 
L 2.984375 54.6875 
L 12.5 54.6875 
L 29.59375 11.921875 
L 46.6875 54.6875 
L 56.203125 54.6875 
z
" id="DejaVuSans-79"/>
     </defs>
     <g style="fill:#262626;" transform="translate(164.028281 329.778437)scale(0.2 -0.2)">
      <use xlink:href="#DejaVuSans-44"/>
      <use x="77.001953" xlink:href="#DejaVuSans-6f"/>
      <use x="138.183594" xlink:href="#DejaVuSans-63"/>
      <use x="193.164062" xlink:href="#DejaVuSans-75"/>
      <use x="256.542969" xlink:href="#DejaVuSans-6d"/>
      <use x="353.955078" xlink:href="#DejaVuSans-65"/>
      <use x="415.478516" xlink:href="#DejaVuSans-6e"/>
      <use x="478.857422" xlink:href="#DejaVuSans-74"/>
      <use x="518.066406" xlink:href="#DejaVuSans-20"/>
      <use x="549.853516" xlink:href="#DejaVuSans-53"/>
      <use x="613.330078" xlink:href="#DejaVuSans-69"/>
      <use x="641.113281" xlink:href="#DejaVuSans-6d"/>
      <use x="738.525391" xlink:href="#DejaVuSans-69"/>
      <use x="766.308594" xlink:href="#DejaVuSans-6c"/>
      <use x="794.091797" xlink:href="#DejaVuSans-61"/>
      <use x="855.371094" xlink:href="#DejaVuSans-72"/>
      <use x="896.484375" xlink:href="#DejaVuSans-69"/>
      <use x="924.267578" xlink:href="#DejaVuSans-74"/>
      <use x="963.476562" xlink:href="#DejaVuSans-79"/>
     </g>
    </g>
   </g>
   <g id="matplotlib.axis_2">
    <g id="ytick_1">
     <g id="line2d_10">
      <defs>
       <path d="M 0 0 
L -6 0 
" id="mc61af6b0a3" style="stroke:#262626;"/>
      </defs>
      <g>
       <use style="fill:#262626;stroke:#262626;" x="70.992344" xlink:href="#mc61af6b0a3" y="285"/>
      </g>
     </g>
     <g id="text_11">
      <!-- −50 -->
      <defs>
       <path d="M 10.59375 35.5 
L 73.1875 35.5 
L 73.1875 27.203125 
L 10.59375 27.203125 
z
" id="DejaVuSans-2212"/>
      </defs>
      <g style="fill:#262626;" transform="translate(30.55625 289.938984)scale(0.13 -0.13)">
       <use xlink:href="#DejaVuSans-2212"/>
       <use x="83.789062" xlink:href="#DejaVuSans-35"/>
       <use x="147.412109" xlink:href="#DejaVuSans-30"/>
      </g>
     </g>
    </g>
    <g id="ytick_2">
     <g id="line2d_11">
      <g>
       <use style="fill:#262626;stroke:#262626;" x="70.992344" xlink:href="#mc61af6b0a3" y="246.171429"/>
      </g>
     </g>
     <g id="text_12">
      <!-- −40 -->
      <g style="fill:#262626;" transform="translate(30.55625 251.110413)scale(0.13 -0.13)">
       <use xlink:href="#DejaVuSans-2212"/>
       <use x="83.789062" xlink:href="#DejaVuSans-34"/>
       <use x="147.412109" xlink:href="#DejaVuSans-30"/>
      </g>
     </g>
    </g>
    <g id="ytick_3">
     <g id="line2d_12">
      <g>
       <use style="fill:#262626;stroke:#262626;" x="70.992344" xlink:href="#mc61af6b0a3" y="207.342857"/>
      </g>
     </g>
     <g id="text_13">
      <!-- −30 -->
      <g style="fill:#262626;" transform="translate(30.55625 212.281842)scale(0.13 -0.13)">
       <use xlink:href="#DejaVuSans-2212"/>
       <use x="83.789062" xlink:href="#DejaVuSans-33"/>
       <use x="147.412109" xlink:href="#DejaVuSans-30"/>
      </g>
     </g>
    </g>
    <g id="ytick_4">
     <g id="line2d_13">
      <g>
       <use style="fill:#262626;stroke:#262626;" x="70.992344" xlink:href="#mc61af6b0a3" y="168.514286"/>
      </g>
     </g>
     <g id="text_14">
      <!-- −20 -->
      <g style="fill:#262626;" transform="translate(30.55625 173.45327)scale(0.13 -0.13)">
       <use xlink:href="#DejaVuSans-2212"/>
       <use x="83.789062" xlink:href="#DejaVuSans-32"/>
       <use x="147.412109" xlink:href="#DejaVuSans-30"/>
      </g>
     </g>
    </g>
    <g id="ytick_5">
     <g id="line2d_14">
      <g>
       <use style="fill:#262626;stroke:#262626;" x="70.992344" xlink:href="#mc61af6b0a3" y="129.685714"/>
      </g>
     </g>
     <g id="text_15">
      <!-- −10 -->
      <g style="fill:#262626;" transform="translate(30.55625 134.624699)scale(0.13 -0.13)">
       <use xlink:href="#DejaVuSans-2212"/>
       <use x="83.789062" xlink:href="#DejaVuSans-31"/>
       <use x="147.412109" xlink:href="#DejaVuSans-30"/>
      </g>
     </g>
    </g>
    <g id="ytick_6">
     <g id="line2d_15">
      <g>
       <use style="fill:#262626;stroke:#262626;" x="70.992344" xlink:href="#mc61af6b0a3" y="90.857143"/>
      </g>
     </g>
     <g id="text_16">
      <!-- 0 -->
      <g style="fill:#262626;" transform="translate(49.721094 95.796127)scale(0.13 -0.13)">
       <use xlink:href="#DejaVuSans-30"/>
      </g>
     </g>
    </g>
    <g id="ytick_7">
     <g id="line2d_16">
      <g>
       <use style="fill:#262626;stroke:#262626;" x="70.992344" xlink:href="#mc61af6b0a3" y="52.028571"/>
      </g>
     </g>
     <g id="text_17">
      <!-- 10 -->
      <g style="fill:#262626;" transform="translate(41.449844 56.967556)scale(0.13 -0.13)">
       <use xlink:href="#DejaVuSans-31"/>
       <use x="63.623047" xlink:href="#DejaVuSans-30"/>
      </g>
     </g>
    </g>
    <g id="ytick_8">
     <g id="line2d_17">
      <g>
       <use style="fill:#262626;stroke:#262626;" x="70.992344" xlink:href="#mc61af6b0a3" y="13.2"/>
      </g>
     </g>
     <g id="text_18">
      <!-- 20 -->
      <g style="fill:#262626;" transform="translate(41.449844 18.138984)scale(0.13 -0.13)">
       <use xlink:href="#DejaVuSans-32"/>
       <use x="63.623047" xlink:href="#DejaVuSans-30"/>
      </g>
     </g>
    </g>
    <g id="text_19">
     <!-- Growth in # of Articles (%) -->
     <defs>
      <path d="M 59.515625 10.40625 
L 59.515625 29.984375 
L 43.40625 29.984375 
L 43.40625 38.09375 
L 69.28125 38.09375 
L 69.28125 6.78125 
Q 63.578125 2.734375 56.6875 0.65625 
Q 49.8125 -1.421875 42 -1.421875 
Q 24.90625 -1.421875 15.25 8.5625 
Q 5.609375 18.5625 5.609375 36.375 
Q 5.609375 54.25 15.25 64.234375 
Q 24.90625 74.21875 42 74.21875 
Q 49.125 74.21875 55.546875 72.453125 
Q 61.96875 70.703125 67.390625 67.28125 
L 67.390625 56.78125 
Q 61.921875 61.421875 55.765625 63.765625 
Q 49.609375 66.109375 42.828125 66.109375 
Q 29.4375 66.109375 22.71875 58.640625 
Q 16.015625 51.171875 16.015625 36.375 
Q 16.015625 21.625 22.71875 14.15625 
Q 29.4375 6.6875 42.828125 6.6875 
Q 48.046875 6.6875 52.140625 7.59375 
Q 56.25 8.5 59.515625 10.40625 
z
" id="DejaVuSans-47"/>
      <path d="M 4.203125 54.6875 
L 13.1875 54.6875 
L 24.421875 12.015625 
L 35.59375 54.6875 
L 46.1875 54.6875 
L 57.421875 12.015625 
L 68.609375 54.6875 
L 77.59375 54.6875 
L 63.28125 0 
L 52.6875 0 
L 40.921875 44.828125 
L 29.109375 0 
L 18.5 0 
z
" id="DejaVuSans-77"/>
      <path d="M 54.890625 33.015625 
L 54.890625 0 
L 45.90625 0 
L 45.90625 32.71875 
Q 45.90625 40.484375 42.875 44.328125 
Q 39.84375 48.1875 33.796875 48.1875 
Q 26.515625 48.1875 22.3125 43.546875 
Q 18.109375 38.921875 18.109375 30.90625 
L 18.109375 0 
L 9.078125 0 
L 9.078125 75.984375 
L 18.109375 75.984375 
L 18.109375 46.1875 
Q 21.34375 51.125 25.703125 53.5625 
Q 30.078125 56 35.796875 56 
Q 45.21875 56 50.046875 50.171875 
Q 54.890625 44.34375 54.890625 33.015625 
z
" id="DejaVuSans-68"/>
      <path d="M 51.125 44 
L 36.921875 44 
L 32.8125 27.6875 
L 47.125 27.6875 
z
M 43.796875 71.78125 
L 38.71875 51.515625 
L 52.984375 51.515625 
L 58.109375 71.78125 
L 65.921875 71.78125 
L 60.890625 51.515625 
L 76.125 51.515625 
L 76.125 44 
L 58.984375 44 
L 54.984375 27.6875 
L 70.515625 27.6875 
L 70.515625 20.21875 
L 53.078125 20.21875 
L 48 0 
L 40.1875 0 
L 45.21875 20.21875 
L 30.90625 20.21875 
L 25.875 0 
L 18.015625 0 
L 23.09375 20.21875 
L 7.71875 20.21875 
L 7.71875 27.6875 
L 24.90625 27.6875 
L 29 44 
L 13.28125 44 
L 13.28125 51.515625 
L 30.90625 51.515625 
L 35.890625 71.78125 
z
" id="DejaVuSans-23"/>
      <path d="M 37.109375 75.984375 
L 37.109375 68.5 
L 28.515625 68.5 
Q 23.6875 68.5 21.796875 66.546875 
Q 19.921875 64.59375 19.921875 59.515625 
L 19.921875 54.6875 
L 34.71875 54.6875 
L 34.71875 47.703125 
L 19.921875 47.703125 
L 19.921875 0 
L 10.890625 0 
L 10.890625 47.703125 
L 2.296875 47.703125 
L 2.296875 54.6875 
L 10.890625 54.6875 
L 10.890625 58.5 
Q 10.890625 67.625 15.140625 71.796875 
Q 19.390625 75.984375 28.609375 75.984375 
z
" id="DejaVuSans-66"/>
      <path d="M 34.1875 63.1875 
L 20.796875 26.90625 
L 47.609375 26.90625 
z
M 28.609375 72.90625 
L 39.796875 72.90625 
L 67.578125 0 
L 57.328125 0 
L 50.6875 18.703125 
L 17.828125 18.703125 
L 11.1875 0 
L 0.78125 0 
z
" id="DejaVuSans-41"/>
      <path d="M 44.28125 53.078125 
L 44.28125 44.578125 
Q 40.484375 46.53125 36.375 47.5 
Q 32.28125 48.484375 27.875 48.484375 
Q 21.1875 48.484375 17.84375 46.4375 
Q 14.5 44.390625 14.5 40.28125 
Q 14.5 37.15625 16.890625 35.375 
Q 19.28125 33.59375 26.515625 31.984375 
L 29.59375 31.296875 
Q 39.15625 29.25 43.1875 25.515625 
Q 47.21875 21.78125 47.21875 15.09375 
Q 47.21875 7.46875 41.1875 3.015625 
Q 35.15625 -1.421875 24.609375 -1.421875 
Q 20.21875 -1.421875 15.453125 -0.5625 
Q 10.6875 0.296875 5.421875 2 
L 5.421875 11.28125 
Q 10.40625 8.6875 15.234375 7.390625 
Q 20.0625 6.109375 24.8125 6.109375 
Q 31.15625 6.109375 34.5625 8.28125 
Q 37.984375 10.453125 37.984375 14.40625 
Q 37.984375 18.0625 35.515625 20.015625 
Q 33.0625 21.96875 24.703125 23.78125 
L 21.578125 24.515625 
Q 13.234375 26.265625 9.515625 29.90625 
Q 5.8125 33.546875 5.8125 39.890625 
Q 5.8125 47.609375 11.28125 51.796875 
Q 16.75 56 26.8125 56 
Q 31.78125 56 36.171875 55.265625 
Q 40.578125 54.546875 44.28125 53.078125 
z
" id="DejaVuSans-73"/>
      <path d="M 31 75.875 
Q 24.46875 64.65625 21.28125 53.65625 
Q 18.109375 42.671875 18.109375 31.390625 
Q 18.109375 20.125 21.3125 9.0625 
Q 24.515625 -2 31 -13.1875 
L 23.1875 -13.1875 
Q 15.875 -1.703125 12.234375 9.375 
Q 8.59375 20.453125 8.59375 31.390625 
Q 8.59375 42.28125 12.203125 53.3125 
Q 15.828125 64.359375 23.1875 75.875 
z
" id="DejaVuSans-28"/>
      <path d="M 72.703125 32.078125 
Q 68.453125 32.078125 66.03125 28.46875 
Q 63.625 24.859375 63.625 18.40625 
Q 63.625 12.0625 66.03125 8.421875 
Q 68.453125 4.78125 72.703125 4.78125 
Q 76.859375 4.78125 79.265625 8.421875 
Q 81.6875 12.0625 81.6875 18.40625 
Q 81.6875 24.8125 79.265625 28.4375 
Q 76.859375 32.078125 72.703125 32.078125 
z
M 72.703125 38.28125 
Q 80.421875 38.28125 84.953125 32.90625 
Q 89.5 27.546875 89.5 18.40625 
Q 89.5 9.28125 84.9375 3.921875 
Q 80.375 -1.421875 72.703125 -1.421875 
Q 64.890625 -1.421875 60.34375 3.921875 
Q 55.8125 9.28125 55.8125 18.40625 
Q 55.8125 27.59375 60.375 32.9375 
Q 64.9375 38.28125 72.703125 38.28125 
z
M 22.3125 68.015625 
Q 18.109375 68.015625 15.6875 64.375 
Q 13.28125 60.75 13.28125 54.390625 
Q 13.28125 47.953125 15.671875 44.328125 
Q 18.0625 40.71875 22.3125 40.71875 
Q 26.5625 40.71875 28.96875 44.328125 
Q 31.390625 47.953125 31.390625 54.390625 
Q 31.390625 60.6875 28.953125 64.34375 
Q 26.515625 68.015625 22.3125 68.015625 
z
M 66.40625 74.21875 
L 74.21875 74.21875 
L 28.609375 -1.421875 
L 20.796875 -1.421875 
z
M 22.3125 74.21875 
Q 30.03125 74.21875 34.609375 68.875 
Q 39.203125 63.53125 39.203125 54.390625 
Q 39.203125 45.171875 34.640625 39.84375 
Q 30.078125 34.515625 22.3125 34.515625 
Q 14.546875 34.515625 10.03125 39.859375 
Q 5.515625 45.21875 5.515625 54.390625 
Q 5.515625 63.484375 10.046875 68.84375 
Q 14.59375 74.21875 22.3125 74.21875 
z
" id="DejaVuSans-25"/>
      <path d="M 8.015625 75.875 
L 15.828125 75.875 
Q 23.140625 64.359375 26.78125 53.3125 
Q 30.421875 42.28125 30.421875 31.390625 
Q 30.421875 20.453125 26.78125 9.375 
Q 23.140625 -1.703125 15.828125 -13.1875 
L 8.015625 -13.1875 
Q 14.5 -2 17.703125 9.0625 
Q 20.90625 20.125 20.90625 31.390625 
Q 20.90625 42.671875 17.703125 53.65625 
Q 14.5 64.65625 8.015625 75.875 
z
" id="DejaVuSans-29"/>
     </defs>
     <g style="fill:#262626;" transform="translate(22.396875 283.129687)rotate(-90)scale(0.2 -0.2)">
      <use xlink:href="#DejaVuSans-47"/>
      <use x="77.490234" xlink:href="#DejaVuSans-72"/>
      <use x="118.572266" xlink:href="#DejaVuSans-6f"/>
      <use x="179.753906" xlink:href="#DejaVuSans-77"/>
      <use x="261.541016" xlink:href="#DejaVuSans-74"/>
      <use x="300.75" xlink:href="#DejaVuSans-68"/>
      <use x="364.128906" xlink:href="#DejaVuSans-20"/>
      <use x="395.916016" xlink:href="#DejaVuSans-69"/>
      <use x="423.699219" xlink:href="#DejaVuSans-6e"/>
      <use x="487.078125" xlink:href="#DejaVuSans-20"/>
      <use x="518.865234" xlink:href="#DejaVuSans-23"/>
      <use x="602.654297" xlink:href="#DejaVuSans-20"/>
      <use x="634.441406" xlink:href="#DejaVuSans-6f"/>
      <use x="695.623047" xlink:href="#DejaVuSans-66"/>
      <use x="730.828125" xlink:href="#DejaVuSans-20"/>
      <use x="762.615234" xlink:href="#DejaVuSans-41"/>
      <use x="831.023438" xlink:href="#DejaVuSans-72"/>
      <use x="872.136719" xlink:href="#DejaVuSans-74"/>
      <use x="911.345703" xlink:href="#DejaVuSans-69"/>
      <use x="939.128906" xlink:href="#DejaVuSans-63"/>
      <use x="994.109375" xlink:href="#DejaVuSans-6c"/>
      <use x="1021.892578" xlink:href="#DejaVuSans-65"/>
      <use x="1083.416016" xlink:href="#DejaVuSans-73"/>
      <use x="1135.515625" xlink:href="#DejaVuSans-20"/>
      <use x="1167.302734" xlink:href="#DejaVuSans-28"/>
      <use x="1206.316406" xlink:href="#DejaVuSans-25"/>
      <use x="1301.335938" xlink:href="#DejaVuSans-29"/>
     </g>
    </g>
   </g>
   <g id="line2d_18">
    <path clip-path="url(#p01420d6aa2)" d="M -1 83.377227 
L -0.617656 81.886485 
L 5.892344 35.798094 
L 11.923648 -1 
M 19.110518 -1 
L 25.422344 27.520093 
L 31.932344 62.351162 
L 38.442344 92.981918 
L 44.952344 114.37935 
L 51.462344 125.6236 
L 57.972344 131.306201 
L 64.482344 136.514922 
L 70.992344 139.726613 
L 77.502344 136.664064 
L 84.012344 129.690614 
L 90.522344 125.327601 
L 97.032344 125.900101 
L 103.542344 128.847881 
L 110.052344 130.342121 
L 116.562344 127.723409 
L 123.072344 121.542243 
L 129.582344 115.181942 
L 136.092344 110.912106 
L 142.602344 108.104368 
L 149.112344 104.891837 
L 155.622344 99.895821 
L 162.132344 93.495621 
L 168.642344 87.532104 
L 175.152344 83.588063 
L 181.662344 81.870786 
L 188.172344 81.008195 
L 194.682344 79.46337 
L 201.192344 77.208968 
L 207.702344 74.934816 
L 214.212344 72.94419 
L 220.722344 71.445992 
L 227.232344 70.371039 
L 233.742344 68.988119 
L 240.252344 66.837964 
L 246.762344 64.72184 
L 253.272344 63.75136 
L 259.782344 64.072888 
L 266.292344 65.812443 
L 272.802344 69.536426 
L 279.312344 74.716168 
L 285.822344 79.794911 
L 292.332344 83.984295 
L 298.842344 87.16817 
L 305.352344 88.697198 
L 311.862344 88.455368 
L 318.372344 88.413403 
L 324.882344 91.019155 
L 331.392344 96.900479 
L 337.902344 105.085808 
L 344.412344 113.682744 
L 350.922344 120.399493 
L 357.432344 124.378683 
L 363.942344 126.94954 
L 370.452344 129.456453 
L 376.962344 131.673208 
L 383.472344 132.934486 
L 389.982344 133.30807 
L 396.492344 132.966022 
L 403.002344 131.742882 
L 409.512344 130.364577 
L 416.022344 130.241243 
L 422.532344 131.694274 
L 429.042344 134.430701 
L 435.552344 138.554431 
L 442.062344 142.975348 
L 448.572344 144.682584 
L 455.082344 142.302544 
L 461.592344 138.968654 
L 468.102344 139.027427 
L 474.612344 142.963271 
L 478.063594 145.493785 
" style="fill:none;stroke:#7390d9;stroke-linecap:square;stroke-width:1.7;"/>
   </g>
   <g id="line2d_19">
    <path clip-path="url(#p01420d6aa2)" d="M -1 34.375511 
L -0.617656 30.744411 
L 2.296272 -1 
M 24.761301 -1 
L 25.422344 4.507204 
L 31.932344 54.86302 
L 38.442344 91.265128 
L 44.952344 115.367125 
L 51.462344 131.416512 
L 57.972344 142.77681 
L 64.482344 150.929635 
L 70.992344 156.006213 
L 77.502344 157.196355 
L 84.012344 153.613144 
L 90.522344 146.500731 
L 97.032344 139.209512 
L 103.542344 133.58913 
L 110.052344 128.657514 
L 116.562344 123.633116 
L 123.072344 118.973886 
L 129.582344 114.47164 
L 136.092344 109.408156 
L 142.602344 104.017513 
L 149.112344 99.020382 
L 155.622344 94.640477 
L 162.132344 90.592643 
L 168.642344 86.178018 
L 175.152344 81.212331 
L 181.662344 76.725409 
L 188.172344 73.481218 
L 194.682344 71.400518 
L 201.192344 70.322489 
L 207.702344 69.376183 
L 214.212344 66.886052 
L 220.722344 62.291264 
L 227.232344 56.828257 
L 233.742344 51.784979 
L 240.252344 47.628631 
L 246.762344 44.542739 
L 253.272344 42.23522 
L 259.782344 39.907176 
L 266.292344 37.044447 
L 272.802344 34.205721 
L 279.312344 33.549925 
L 285.822344 37.415961 
L 292.332344 45.909459 
L 298.842344 56.632621 
L 305.352344 67.224499 
L 311.862344 78.062474 
L 318.372344 91.003221 
L 324.882344 106.37233 
L 331.392344 121.941096 
L 337.902344 134.799851 
L 344.412344 144.830822 
L 350.922344 154.179802 
L 357.432344 163.44442 
L 363.942344 171.801242 
L 370.452344 179.179853 
L 376.962344 185.64088 
L 383.472344 191.372542 
L 389.982344 197.730993 
L 396.492344 205.062879 
L 403.002344 210.706331 
L 409.512344 212.647087 
L 416.022344 213.183637 
L 422.532344 214.535061 
L 429.042344 215.138053 
L 435.552344 214.542732 
L 442.062344 214.381465 
L 448.572344 214.058762 
L 455.082344 213.832598 
L 461.592344 217.216875 
L 468.102344 224.21857 
L 474.612344 230.305754 
L 478.063594 231.885179 
" style="fill:none;stroke:#57a773;stroke-linecap:square;stroke-width:1.7;"/>
   </g>
   <g id="line2d_20">
    <path clip-path="url(#p01420d6aa2)" d="M -1 90.857143 
L -0.617656 90.857143 
L 5.892344 90.857143 
L 12.402344 90.857143 
L 18.912344 90.857143 
L 25.422344 90.857143 
L 31.932344 90.857143 
L 38.442344 90.857143 
L 44.952344 90.857143 
L 51.462344 90.857143 
L 57.972344 90.857143 
L 64.482344 90.857143 
L 70.992344 90.857143 
L 77.502344 90.857143 
L 84.012344 90.857143 
L 90.522344 90.857143 
L 97.032344 90.857143 
L 103.542344 90.857143 
L 110.052344 90.857143 
L 116.562344 90.857143 
L 123.072344 90.857143 
L 129.582344 90.857143 
L 136.092344 90.857143 
L 142.602344 90.857143 
L 149.112344 90.857143 
L 155.622344 90.857143 
L 162.132344 90.857143 
L 168.642344 90.857143 
L 175.152344 90.857143 
L 181.662344 90.857143 
L 188.172344 90.857143 
L 194.682344 90.857143 
L 201.192344 90.857143 
L 207.702344 90.857143 
L 214.212344 90.857143 
L 220.722344 90.857143 
L 227.232344 90.857143 
L 233.742344 90.857143 
L 240.252344 90.857143 
L 246.762344 90.857143 
L 253.272344 90.857143 
L 259.782344 90.857143 
L 266.292344 90.857143 
L 272.802344 90.857143 
L 279.312344 90.857143 
L 285.822344 90.857143 
L 292.332344 90.857143 
L 298.842344 90.857143 
L 305.352344 90.857143 
L 311.862344 90.857143 
L 318.372344 90.857143 
L 324.882344 90.857143 
L 331.392344 90.857143 
L 337.902344 90.857143 
L 344.412344 90.857143 
L 350.922344 90.857143 
L 357.432344 90.857143 
L 363.942344 90.857143 
L 370.452344 90.857143 
L 376.962344 90.857143 
L 383.472344 90.857143 
L 389.982344 90.857143 
L 396.492344 90.857143 
L 403.002344 90.857143 
L 409.512344 90.857143 
L 416.022344 90.857143 
L 422.532344 90.857143 
L 429.042344 90.857143 
L 435.552344 90.857143 
L 442.062344 90.857143 
L 448.572344 90.857143 
L 455.082344 90.857143 
L 461.592344 90.857143 
L 468.102344 90.857143 
L 474.612344 90.857143 
L 478.063594 90.857143 
" style="fill:none;stroke:#000000;stroke-dasharray:3.7,1.6;stroke-dashoffset:0;"/>
   </g>
   <g id="patch_3">
    <path d="M 70.992344 285 
L 70.992344 13.2 
" style="fill:none;stroke:#000000;stroke-linecap:square;stroke-linejoin:miter;stroke-width:0.8;"/>
   </g>
   <g id="patch_4">
    <path d="M 70.992344 285 
L 461.592344 285 
" style="fill:none;stroke:#000000;stroke-linecap:square;stroke-linejoin:miter;stroke-width:0.8;"/>
   </g>
   <g id="legend_1">
    <g id="line2d_21">
     <path d="M 88.992344 226.484375 
L 128.992344 226.484375 
" style="fill:none;stroke:#7390d9;stroke-linecap:square;stroke-width:1.7;"/>
    </g>
    <g id="line2d_22"/>
    <g id="text_20">
     <!-- Treatment -->
     <defs>
      <path d="M -0.296875 72.90625 
L 61.375 72.90625 
L 61.375 64.59375 
L 35.5 64.59375 
L 35.5 0 
L 25.59375 0 
L 25.59375 64.59375 
L -0.296875 64.59375 
z
" id="DejaVuSans-54"/>
     </defs>
     <g style="fill:#262626;" transform="translate(144.992344 233.484375)scale(0.2 -0.2)">
      <use xlink:href="#DejaVuSans-54"/>
      <use x="60.865234" xlink:href="#DejaVuSans-72"/>
      <use x="101.947266" xlink:href="#DejaVuSans-65"/>
      <use x="163.470703" xlink:href="#DejaVuSans-61"/>
      <use x="224.75" xlink:href="#DejaVuSans-74"/>
      <use x="263.958984" xlink:href="#DejaVuSans-6d"/>
      <use x="361.371094" xlink:href="#DejaVuSans-65"/>
      <use x="422.894531" xlink:href="#DejaVuSans-6e"/>
      <use x="486.273438" xlink:href="#DejaVuSans-74"/>
     </g>
    </g>
    <g id="line2d_23">
     <path d="M 88.992344 255.840625 
L 128.992344 255.840625 
" style="fill:none;stroke:#57a773;stroke-linecap:square;stroke-width:1.7;"/>
    </g>
    <g id="line2d_24"/>
    <g id="text_21">
     <!-- Control -->
     <defs>
      <path d="M 64.40625 67.28125 
L 64.40625 56.890625 
Q 59.421875 61.53125 53.78125 63.8125 
Q 48.140625 66.109375 41.796875 66.109375 
Q 29.296875 66.109375 22.65625 58.46875 
Q 16.015625 50.828125 16.015625 36.375 
Q 16.015625 21.96875 22.65625 14.328125 
Q 29.296875 6.6875 41.796875 6.6875 
Q 48.140625 6.6875 53.78125 8.984375 
Q 59.421875 11.28125 64.40625 15.921875 
L 64.40625 5.609375 
Q 59.234375 2.09375 53.4375 0.328125 
Q 47.65625 -1.421875 41.21875 -1.421875 
Q 24.65625 -1.421875 15.125 8.703125 
Q 5.609375 18.84375 5.609375 36.375 
Q 5.609375 53.953125 15.125 64.078125 
Q 24.65625 74.21875 41.21875 74.21875 
Q 47.75 74.21875 53.53125 72.484375 
Q 59.328125 70.75 64.40625 67.28125 
z
" id="DejaVuSans-43"/>
     </defs>
     <g style="fill:#262626;" transform="translate(144.992344 262.840625)scale(0.2 -0.2)">
      <use xlink:href="#DejaVuSans-43"/>
      <use x="69.824219" xlink:href="#DejaVuSans-6f"/>
      <use x="131.005859" xlink:href="#DejaVuSans-6e"/>
      <use x="194.384766" xlink:href="#DejaVuSans-74"/>
      <use x="233.59375" xlink:href="#DejaVuSans-72"/>
      <use x="274.675781" xlink:href="#DejaVuSans-6f"/>
      <use x="335.857422" xlink:href="#DejaVuSans-6c"/>
     </g>
    </g>
   </g>
  </g>
 </g>
 <defs>
  <clipPath id="p01420d6aa2">
   <rect height="271.8" width="390.6" x="70.992344" y="13.2"/>
  </clipPath>
 </defs>
</svg>
