<?xml version="1.0" encoding="utf-8" standalone="no"?>
<!DOCTYPE svg PUBLIC "-//W3C//DTD SVG 1.1//EN"
  "http://www.w3.org/Graphics/SVG/1.1/DTD/svg11.dtd">
<!-- Created with matplotlib (http://matplotlib.org/) -->
<svg height="341pt" version="1.1" viewBox="0 0 477 341" width="477pt" xmlns="http://www.w3.org/2000/svg" xmlns:xlink="http://www.w3.org/1999/xlink">
 <defs>
  <style type="text/css">
*{stroke-linecap:butt;stroke-linejoin:round;}
  </style>
 </defs>
 <g id="figure_1">
  <g id="patch_1">
   <path d="M 0 341.137812 
L 477.063594 341.137812 
L 477.063594 0 
L 0 0 
z
" style="fill:#ffffff;"/>
  </g>
  <g id="axes_1">
   <g id="patch_2">
    <path d="M 70.992344 285 
L 461.592344 285 
L 461.592344 13.2 
L 70.992344 13.2 
z
" style="fill:#ffffff;"/>
   </g>
   <g id="line2d_1">
    <path clip-path="url(#p2b65345fbd)" d="M 44.952344 121.92 
L 50.73901 121.92 
L 56.525677 121.92 
L 62.312344 121.92 
L 68.09901 121.92 
L 73.885677 121.92 
L 79.672344 121.92 
L 85.45901 121.92 
L 91.245677 121.92 
L 97.032344 121.92 
L 102.81901 121.92 
L 108.605677 121.92 
L 114.392344 121.92 
L 120.17901 121.92 
L 125.965677 121.92 
L 131.752344 121.92 
L 137.53901 121.92 
L 143.325677 121.92 
L 149.112344 121.92 
L 154.89901 121.92 
L 160.685677 121.92 
L 166.472344 121.92 
L 172.25901 121.92 
L 178.045677 121.92 
L 183.832344 121.92 
L 189.61901 121.92 
L 195.405677 121.92 
L 201.192344 121.92 
L 206.97901 121.92 
L 212.765677 121.92 
L 218.552344 121.92 
L 224.33901 121.92 
L 230.125677 121.92 
L 235.912344 121.92 
L 241.69901 121.92 
L 247.485677 121.92 
L 253.272344 121.92 
L 259.05901 121.92 
L 264.845677 121.92 
L 270.632344 121.92 
L 276.41901 121.92 
L 282.205677 121.92 
L 287.992344 121.92 
L 293.77901 121.92 
L 299.565677 121.92 
L 305.352344 121.92 
L 311.13901 121.92 
L 316.925677 121.92 
L 322.712344 121.92 
L 328.49901 121.92 
L 334.285677 121.92 
L 340.072344 121.92 
L 345.85901 121.92 
L 351.645677 121.92 
L 357.432344 121.92 
L 363.21901 121.92 
L 369.005677 121.92 
L 374.792344 121.92 
L 380.57901 121.92 
L 386.365677 121.92 
L 392.152344 121.92 
L 397.93901 121.92 
L 403.725677 121.92 
L 409.512344 121.92 
L 415.29901 121.92 
L 421.085677 121.92 
L 426.872344 121.92 
L 432.65901 121.92 
L 438.445677 121.92 
L 444.232344 121.92 
L 450.01901 121.92 
L 455.805677 121.92 
L 461.592344 121.92 
L 467.37901 121.92 
L 473.165677 121.92 
L 478.063594 121.92 
" style="fill:none;stroke:#000000;stroke-dasharray:3.7,1.6;stroke-dashoffset:0;"/>
   </g>
   <g id="PolyCollection_1">
    <path clip-path="url(#p2b65345fbd)" d="M 44.952344 121.919588 
L 44.952344 121.921072 
L 50.73901 121.931628 
L 56.525677 122.006083 
L 62.312344 122.347484 
L 68.09901 123.334709 
L 73.885677 125.042946 
L 79.672344 126.556 
L 85.45901 126.864281 
L 91.245677 127.688458 
L 97.032344 133.468007 
L 102.81901 143.935235 
L 108.605677 153.209672 
L 114.392344 162.13433 
L 120.17901 175.770085 
L 125.965677 192.287906 
L 131.752344 204.566985 
L 137.53901 212.086195 
L 143.325677 224.224243 
L 149.112344 244.955061 
L 154.89901 267.632119 
L 160.685677 279.257526 
L 166.472344 272.787756 
L 172.25901 258.235952 
L 178.045677 249.737821 
L 183.832344 245.158825 
L 189.61901 235.018866 
L 195.405677 217.639769 
L 201.192344 196.13476 
L 206.97901 172.931309 
L 212.765677 151.767046 
L 218.552344 135.433795 
L 224.33901 124.755142 
L 230.125677 119.362604 
L 235.912344 117.498587 
L 241.69901 116.405544 
L 247.485677 114.671387 
L 253.272344 111.361016 
L 259.05901 106.011467 
L 264.845677 98.953229 
L 270.632344 91.318375 
L 276.41901 85.123096 
L 282.205677 83.116627 
L 287.992344 85.729233 
L 293.77901 90.695973 
L 299.565677 94.67906 
L 305.352344 96.904358 
L 311.13901 99.278282 
L 316.925677 103.199167 
L 322.712344 108.504749 
L 328.49901 113.37389 
L 334.285677 116.013072 
L 340.072344 117.055511 
L 345.85901 117.763939 
L 351.645677 118.410331 
L 357.432344 118.551519 
L 363.21901 118.209326 
L 369.005677 118.495941 
L 374.792344 119.279673 
L 380.57901 119.515124 
L 386.365677 119.766358 
L 392.152344 120.721036 
L 397.93901 121.419655 
L 403.725677 121.462325 
L 409.512344 121.464571 
L 415.29901 121.594974 
L 421.085677 121.61089 
L 426.872344 121.666708 
L 432.65901 121.992577 
L 438.445677 122.488512 
L 444.232344 122.863207 
L 450.01901 123.060302 
L 455.805677 123.054921 
L 461.592344 122.816768 
L 467.37901 122.622459 
L 473.165677 122.486652 
L 478.952344 122.262652 
L 484.73901 122.14858 
L 490.525677 122.20927 
L 496.312344 122.304533 
L 502.09901 122.322132 
L 507.885677 122.291232 
L 513.672344 122.291105 
L 519.45901 122.240033 
L 525.245677 122.154604 
L 531.032344 122.139824 
L 536.81901 122.180098 
L 542.605677 122.232392 
L 548.392344 122.211769 
L 554.17901 122.097815 
L 559.965677 122.024655 
L 565.752344 122.093663 
L 571.53901 122.256703 
L 577.325677 122.349709 
L 583.112344 122.304494 
L 588.89901 122.173725 
L 594.685677 122.046423 
L 600.472344 121.967634 
L 606.25901 121.933093 
L 612.045677 121.922502 
L 617.832344 121.920323 
L 617.832344 121.920035 
L 617.832344 121.920035 
L 612.045677 121.919996 
L 606.25901 121.918652 
L 600.472344 121.910297 
L 594.685677 121.880537 
L 588.89901 121.811617 
L 583.112344 121.704459 
L 577.325677 121.584828 
L 571.53901 121.491995 
L 565.752344 121.440539 
L 559.965677 121.375602 
L 554.17901 121.323302 
L 548.392344 121.348148 
L 542.605677 121.376583 
L 536.81901 121.264187 
L 531.032344 121.103645 
L 525.245677 121.054779 
L 519.45901 121.052381 
L 513.672344 121.050788 
L 507.885677 121.032674 
L 502.09901 120.915722 
L 496.312344 120.709359 
L 490.525677 120.464116 
L 484.73901 120.243246 
L 478.952344 120.05589 
L 473.165677 119.958605 
L 467.37901 120.012797 
L 461.592344 119.967778 
L 455.805677 119.78644 
L 450.01901 119.600003 
L 444.232344 119.213243 
L 438.445677 118.580896 
L 432.65901 117.820684 
L 426.872344 117.004832 
L 421.085677 116.34897 
L 415.29901 116.104591 
L 409.512344 116.201207 
L 403.725677 115.959753 
L 397.93901 114.991073 
L 392.152344 113.813392 
L 386.365677 112.739803 
L 380.57901 111.256552 
L 374.792344 109.443388 
L 369.005677 107.775642 
L 363.21901 106.282886 
L 357.432344 104.847639 
L 351.645677 103.381975 
L 345.85901 102.199864 
L 340.072344 101.725866 
L 334.285677 100.113508 
L 328.49901 95.349328 
L 322.712344 88.549127 
L 316.925677 81.474879 
L 311.13901 74.98283 
L 305.352344 69.454876 
L 299.565677 64.13612 
L 293.77901 57.683965 
L 287.992344 50.852973 
L 282.205677 46.583866 
L 276.41901 45.135192 
L 270.632344 44.108652 
L 264.845677 44.773906 
L 259.05901 48.213528 
L 253.272344 50.138433 
L 247.485677 46.51144 
L 241.69901 40.096301 
L 235.912344 36.187249 
L 230.125677 37.549074 
L 224.33901 43.948694 
L 218.552344 55.40818 
L 212.765677 73.048797 
L 206.97901 96.446538 
L 201.192344 121.386468 
L 195.405677 142.313687 
L 189.61901 154.775309 
L 183.832344 160.110021 
L 178.045677 164.231748 
L 172.25901 170.757202 
L 166.472344 177.211524 
L 160.685677 176.224128 
L 154.89901 161.191863 
L 149.112344 137.638124 
L 143.325677 119.755552 
L 137.53901 111.79935 
L 131.752344 106.888911 
L 125.965677 103.423033 
L 120.17901 103.377568 
L 114.392344 104.847689 
L 108.605677 102.710881 
L 102.81901 97.775291 
L 97.032344 95.991942 
L 91.245677 99.571491 
L 85.45901 106.984309 
L 79.672344 114.391255 
L 73.885677 119.000584 
L 68.09901 121.025597 
L 62.312344 121.707192 
L 56.525677 121.882557 
L 50.73901 121.915315 
L 44.952344 121.919588 
z
" style="fill:#4c72b0;fill-opacity:0.1;stroke:#4c72b0;stroke-opacity:0.1;"/>
   </g>
   <g id="matplotlib.axis_1">
    <g id="xtick_1">
     <g id="line2d_2">
      <defs>
       <path d="M 0 0 
L 0 6 
" id="m611b6a31d8" style="stroke:#262626;"/>
      </defs>
      <g>
       <use style="fill:#262626;stroke:#262626;" x="70.992344" xlink:href="#m611b6a31d8" y="285"/>
      </g>
     </g>
     <g id="text_1">
      <!-- 0 -->
      <defs>
       <path d="M 31.78125 66.40625 
Q 24.171875 66.40625 20.328125 58.90625 
Q 16.5 51.421875 16.5 36.375 
Q 16.5 21.390625 20.328125 13.890625 
Q 24.171875 6.390625 31.78125 6.390625 
Q 39.453125 6.390625 43.28125 13.890625 
Q 47.125 21.390625 47.125 36.375 
Q 47.125 51.421875 43.28125 58.90625 
Q 39.453125 66.40625 31.78125 66.40625 
z
M 31.78125 74.21875 
Q 44.046875 74.21875 50.515625 64.515625 
Q 56.984375 54.828125 56.984375 36.375 
Q 56.984375 17.96875 50.515625 8.265625 
Q 44.046875 -1.421875 31.78125 -1.421875 
Q 19.53125 -1.421875 13.0625 8.265625 
Q 6.59375 17.96875 6.59375 36.375 
Q 6.59375 54.828125 13.0625 64.515625 
Q 19.53125 74.21875 31.78125 74.21875 
z
" id="DejaVuSans-30"/>
      </defs>
      <g style="fill:#262626;" transform="translate(66.856719 307.877969)scale(0.13 -0.13)">
       <use xlink:href="#DejaVuSans-30"/>
      </g>
     </g>
    </g>
    <g id="xtick_2">
     <g id="line2d_3">
      <g>
       <use style="fill:#262626;stroke:#262626;" x="114.392344" xlink:href="#m611b6a31d8" y="285"/>
      </g>
     </g>
     <g id="text_2">
      <!-- 5 -->
      <defs>
       <path d="M 10.796875 72.90625 
L 49.515625 72.90625 
L 49.515625 64.59375 
L 19.828125 64.59375 
L 19.828125 46.734375 
Q 21.96875 47.46875 24.109375 47.828125 
Q 26.265625 48.1875 28.421875 48.1875 
Q 40.625 48.1875 47.75 41.5 
Q 54.890625 34.8125 54.890625 23.390625 
Q 54.890625 11.625 47.5625 5.09375 
Q 40.234375 -1.421875 26.90625 -1.421875 
Q 22.3125 -1.421875 17.546875 -0.640625 
Q 12.796875 0.140625 7.71875 1.703125 
L 7.71875 11.625 
Q 12.109375 9.234375 16.796875 8.0625 
Q 21.484375 6.890625 26.703125 6.890625 
Q 35.15625 6.890625 40.078125 11.328125 
Q 45.015625 15.765625 45.015625 23.390625 
Q 45.015625 31 40.078125 35.4375 
Q 35.15625 39.890625 26.703125 39.890625 
Q 22.75 39.890625 18.8125 39.015625 
Q 14.890625 38.140625 10.796875 36.28125 
z
" id="DejaVuSans-35"/>
      </defs>
      <g style="fill:#262626;" transform="translate(110.256719 307.877969)scale(0.13 -0.13)">
       <use xlink:href="#DejaVuSans-35"/>
      </g>
     </g>
    </g>
    <g id="xtick_3">
     <g id="line2d_4">
      <g>
       <use style="fill:#262626;stroke:#262626;" x="157.792344" xlink:href="#m611b6a31d8" y="285"/>
      </g>
     </g>
     <g id="text_3">
      <!-- 10 -->
      <defs>
       <path d="M 12.40625 8.296875 
L 28.515625 8.296875 
L 28.515625 63.921875 
L 10.984375 60.40625 
L 10.984375 69.390625 
L 28.421875 72.90625 
L 38.28125 72.90625 
L 38.28125 8.296875 
L 54.390625 8.296875 
L 54.390625 0 
L 12.40625 0 
z
" id="DejaVuSans-31"/>
      </defs>
      <g style="fill:#262626;" transform="translate(149.521094 307.877969)scale(0.13 -0.13)">
       <use xlink:href="#DejaVuSans-31"/>
       <use x="63.623047" xlink:href="#DejaVuSans-30"/>
      </g>
     </g>
    </g>
    <g id="xtick_4">
     <g id="line2d_5">
      <g>
       <use style="fill:#262626;stroke:#262626;" x="201.192344" xlink:href="#m611b6a31d8" y="285"/>
      </g>
     </g>
     <g id="text_4">
      <!-- 15 -->
      <g style="fill:#262626;" transform="translate(192.921094 307.877969)scale(0.13 -0.13)">
       <use xlink:href="#DejaVuSans-31"/>
       <use x="63.623047" xlink:href="#DejaVuSans-35"/>
      </g>
     </g>
    </g>
    <g id="xtick_5">
     <g id="line2d_6">
      <g>
       <use style="fill:#262626;stroke:#262626;" x="244.592344" xlink:href="#m611b6a31d8" y="285"/>
      </g>
     </g>
     <g id="text_5">
      <!-- 20 -->
      <defs>
       <path d="M 19.1875 8.296875 
L 53.609375 8.296875 
L 53.609375 0 
L 7.328125 0 
L 7.328125 8.296875 
Q 12.9375 14.109375 22.625 23.890625 
Q 32.328125 33.6875 34.8125 36.53125 
Q 39.546875 41.84375 41.421875 45.53125 
Q 43.3125 49.21875 43.3125 52.78125 
Q 43.3125 58.59375 39.234375 62.25 
Q 35.15625 65.921875 28.609375 65.921875 
Q 23.96875 65.921875 18.8125 64.3125 
Q 13.671875 62.703125 7.8125 59.421875 
L 7.8125 69.390625 
Q 13.765625 71.78125 18.9375 73 
Q 24.125 74.21875 28.421875 74.21875 
Q 39.75 74.21875 46.484375 68.546875 
Q 53.21875 62.890625 53.21875 53.421875 
Q 53.21875 48.921875 51.53125 44.890625 
Q 49.859375 40.875 45.40625 35.40625 
Q 44.1875 33.984375 37.640625 27.21875 
Q 31.109375 20.453125 19.1875 8.296875 
z
" id="DejaVuSans-32"/>
      </defs>
      <g style="fill:#262626;" transform="translate(236.321094 307.877969)scale(0.13 -0.13)">
       <use xlink:href="#DejaVuSans-32"/>
       <use x="63.623047" xlink:href="#DejaVuSans-30"/>
      </g>
     </g>
    </g>
    <g id="xtick_6">
     <g id="line2d_7">
      <g>
       <use style="fill:#262626;stroke:#262626;" x="287.992344" xlink:href="#m611b6a31d8" y="285"/>
      </g>
     </g>
     <g id="text_6">
      <!-- 25 -->
      <g style="fill:#262626;" transform="translate(279.721094 307.877969)scale(0.13 -0.13)">
       <use xlink:href="#DejaVuSans-32"/>
       <use x="63.623047" xlink:href="#DejaVuSans-35"/>
      </g>
     </g>
    </g>
    <g id="xtick_7">
     <g id="line2d_8">
      <g>
       <use style="fill:#262626;stroke:#262626;" x="331.392344" xlink:href="#m611b6a31d8" y="285"/>
      </g>
     </g>
     <g id="text_7">
      <!-- 30 -->
      <defs>
       <path d="M 40.578125 39.3125 
Q 47.65625 37.796875 51.625 33 
Q 55.609375 28.21875 55.609375 21.1875 
Q 55.609375 10.40625 48.1875 4.484375 
Q 40.765625 -1.421875 27.09375 -1.421875 
Q 22.515625 -1.421875 17.65625 -0.515625 
Q 12.796875 0.390625 7.625 2.203125 
L 7.625 11.71875 
Q 11.71875 9.328125 16.59375 8.109375 
Q 21.484375 6.890625 26.8125 6.890625 
Q 36.078125 6.890625 40.9375 10.546875 
Q 45.796875 14.203125 45.796875 21.1875 
Q 45.796875 27.640625 41.28125 31.265625 
Q 36.765625 34.90625 28.71875 34.90625 
L 20.21875 34.90625 
L 20.21875 43.015625 
L 29.109375 43.015625 
Q 36.375 43.015625 40.234375 45.921875 
Q 44.09375 48.828125 44.09375 54.296875 
Q 44.09375 59.90625 40.109375 62.90625 
Q 36.140625 65.921875 28.71875 65.921875 
Q 24.65625 65.921875 20.015625 65.03125 
Q 15.375 64.15625 9.8125 62.3125 
L 9.8125 71.09375 
Q 15.4375 72.65625 20.34375 73.4375 
Q 25.25 74.21875 29.59375 74.21875 
Q 40.828125 74.21875 47.359375 69.109375 
Q 53.90625 64.015625 53.90625 55.328125 
Q 53.90625 49.265625 50.4375 45.09375 
Q 46.96875 40.921875 40.578125 39.3125 
z
" id="DejaVuSans-33"/>
      </defs>
      <g style="fill:#262626;" transform="translate(323.121094 307.877969)scale(0.13 -0.13)">
       <use xlink:href="#DejaVuSans-33"/>
       <use x="63.623047" xlink:href="#DejaVuSans-30"/>
      </g>
     </g>
    </g>
    <g id="xtick_8">
     <g id="line2d_9">
      <g>
       <use style="fill:#262626;stroke:#262626;" x="374.792344" xlink:href="#m611b6a31d8" y="285"/>
      </g>
     </g>
     <g id="text_8">
      <!-- 35 -->
      <g style="fill:#262626;" transform="translate(366.521094 307.877969)scale(0.13 -0.13)">
       <use xlink:href="#DejaVuSans-33"/>
       <use x="63.623047" xlink:href="#DejaVuSans-35"/>
      </g>
     </g>
    </g>
    <g id="xtick_9">
     <g id="line2d_10">
      <g>
       <use style="fill:#262626;stroke:#262626;" x="418.192344" xlink:href="#m611b6a31d8" y="285"/>
      </g>
     </g>
     <g id="text_9">
      <!-- 40 -->
      <defs>
       <path d="M 37.796875 64.3125 
L 12.890625 25.390625 
L 37.796875 25.390625 
z
M 35.203125 72.90625 
L 47.609375 72.90625 
L 47.609375 25.390625 
L 58.015625 25.390625 
L 58.015625 17.1875 
L 47.609375 17.1875 
L 47.609375 0 
L 37.796875 0 
L 37.796875 17.1875 
L 4.890625 17.1875 
L 4.890625 26.703125 
z
" id="DejaVuSans-34"/>
      </defs>
      <g style="fill:#262626;" transform="translate(409.921094 307.877969)scale(0.13 -0.13)">
       <use xlink:href="#DejaVuSans-34"/>
       <use x="63.623047" xlink:href="#DejaVuSans-30"/>
      </g>
     </g>
    </g>
    <g id="xtick_10">
     <g id="line2d_11">
      <g>
       <use style="fill:#262626;stroke:#262626;" x="461.592344" xlink:href="#m611b6a31d8" y="285"/>
      </g>
     </g>
     <g id="text_10">
      <!-- 45 -->
      <g style="fill:#262626;" transform="translate(453.321094 307.877969)scale(0.13 -0.13)">
       <use xlink:href="#DejaVuSans-34"/>
       <use x="63.623047" xlink:href="#DejaVuSans-35"/>
      </g>
     </g>
    </g>
    <g id="text_11">
     <!-- Document Similarity (%) -->
     <defs>
      <path d="M 19.671875 64.796875 
L 19.671875 8.109375 
L 31.59375 8.109375 
Q 46.6875 8.109375 53.6875 14.9375 
Q 60.6875 21.78125 60.6875 36.53125 
Q 60.6875 51.171875 53.6875 57.984375 
Q 46.6875 64.796875 31.59375 64.796875 
z
M 9.8125 72.90625 
L 30.078125 72.90625 
Q 51.265625 72.90625 61.171875 64.09375 
Q 71.09375 55.28125 71.09375 36.53125 
Q 71.09375 17.671875 61.125 8.828125 
Q 51.171875 0 30.078125 0 
L 9.8125 0 
z
" id="DejaVuSans-44"/>
      <path d="M 30.609375 48.390625 
Q 23.390625 48.390625 19.1875 42.75 
Q 14.984375 37.109375 14.984375 27.296875 
Q 14.984375 17.484375 19.15625 11.84375 
Q 23.34375 6.203125 30.609375 6.203125 
Q 37.796875 6.203125 41.984375 11.859375 
Q 46.1875 17.53125 46.1875 27.296875 
Q 46.1875 37.015625 41.984375 42.703125 
Q 37.796875 48.390625 30.609375 48.390625 
z
M 30.609375 56 
Q 42.328125 56 49.015625 48.375 
Q 55.71875 40.765625 55.71875 27.296875 
Q 55.71875 13.875 49.015625 6.21875 
Q 42.328125 -1.421875 30.609375 -1.421875 
Q 18.84375 -1.421875 12.171875 6.21875 
Q 5.515625 13.875 5.515625 27.296875 
Q 5.515625 40.765625 12.171875 48.375 
Q 18.84375 56 30.609375 56 
z
" id="DejaVuSans-6f"/>
      <path d="M 48.78125 52.59375 
L 48.78125 44.1875 
Q 44.96875 46.296875 41.140625 47.34375 
Q 37.3125 48.390625 33.40625 48.390625 
Q 24.65625 48.390625 19.8125 42.84375 
Q 14.984375 37.3125 14.984375 27.296875 
Q 14.984375 17.28125 19.8125 11.734375 
Q 24.65625 6.203125 33.40625 6.203125 
Q 37.3125 6.203125 41.140625 7.25 
Q 44.96875 8.296875 48.78125 10.40625 
L 48.78125 2.09375 
Q 45.015625 0.34375 40.984375 -0.53125 
Q 36.96875 -1.421875 32.421875 -1.421875 
Q 20.0625 -1.421875 12.78125 6.34375 
Q 5.515625 14.109375 5.515625 27.296875 
Q 5.515625 40.671875 12.859375 48.328125 
Q 20.21875 56 33.015625 56 
Q 37.15625 56 41.109375 55.140625 
Q 45.0625 54.296875 48.78125 52.59375 
z
" id="DejaVuSans-63"/>
      <path d="M 8.5 21.578125 
L 8.5 54.6875 
L 17.484375 54.6875 
L 17.484375 21.921875 
Q 17.484375 14.15625 20.5 10.265625 
Q 23.53125 6.390625 29.59375 6.390625 
Q 36.859375 6.390625 41.078125 11.03125 
Q 45.3125 15.671875 45.3125 23.6875 
L 45.3125 54.6875 
L 54.296875 54.6875 
L 54.296875 0 
L 45.3125 0 
L 45.3125 8.40625 
Q 42.046875 3.421875 37.71875 1 
Q 33.40625 -1.421875 27.6875 -1.421875 
Q 18.265625 -1.421875 13.375 4.4375 
Q 8.5 10.296875 8.5 21.578125 
z
M 31.109375 56 
z
" id="DejaVuSans-75"/>
      <path d="M 52 44.1875 
Q 55.375 50.25 60.0625 53.125 
Q 64.75 56 71.09375 56 
Q 79.640625 56 84.28125 50.015625 
Q 88.921875 44.046875 88.921875 33.015625 
L 88.921875 0 
L 79.890625 0 
L 79.890625 32.71875 
Q 79.890625 40.578125 77.09375 44.375 
Q 74.3125 48.1875 68.609375 48.1875 
Q 61.625 48.1875 57.5625 43.546875 
Q 53.515625 38.921875 53.515625 30.90625 
L 53.515625 0 
L 44.484375 0 
L 44.484375 32.71875 
Q 44.484375 40.625 41.703125 44.40625 
Q 38.921875 48.1875 33.109375 48.1875 
Q 26.21875 48.1875 22.15625 43.53125 
Q 18.109375 38.875 18.109375 30.90625 
L 18.109375 0 
L 9.078125 0 
L 9.078125 54.6875 
L 18.109375 54.6875 
L 18.109375 46.1875 
Q 21.1875 51.21875 25.484375 53.609375 
Q 29.78125 56 35.6875 56 
Q 41.65625 56 45.828125 52.96875 
Q 50 49.953125 52 44.1875 
z
" id="DejaVuSans-6d"/>
      <path d="M 56.203125 29.59375 
L 56.203125 25.203125 
L 14.890625 25.203125 
Q 15.484375 15.921875 20.484375 11.0625 
Q 25.484375 6.203125 34.421875 6.203125 
Q 39.59375 6.203125 44.453125 7.46875 
Q 49.3125 8.734375 54.109375 11.28125 
L 54.109375 2.78125 
Q 49.265625 0.734375 44.1875 -0.34375 
Q 39.109375 -1.421875 33.890625 -1.421875 
Q 20.796875 -1.421875 13.15625 6.1875 
Q 5.515625 13.8125 5.515625 26.8125 
Q 5.515625 40.234375 12.765625 48.109375 
Q 20.015625 56 32.328125 56 
Q 43.359375 56 49.78125 48.890625 
Q 56.203125 41.796875 56.203125 29.59375 
z
M 47.21875 32.234375 
Q 47.125 39.59375 43.09375 43.984375 
Q 39.0625 48.390625 32.421875 48.390625 
Q 24.90625 48.390625 20.390625 44.140625 
Q 15.875 39.890625 15.1875 32.171875 
z
" id="DejaVuSans-65"/>
      <path d="M 54.890625 33.015625 
L 54.890625 0 
L 45.90625 0 
L 45.90625 32.71875 
Q 45.90625 40.484375 42.875 44.328125 
Q 39.84375 48.1875 33.796875 48.1875 
Q 26.515625 48.1875 22.3125 43.546875 
Q 18.109375 38.921875 18.109375 30.90625 
L 18.109375 0 
L 9.078125 0 
L 9.078125 54.6875 
L 18.109375 54.6875 
L 18.109375 46.1875 
Q 21.34375 51.125 25.703125 53.5625 
Q 30.078125 56 35.796875 56 
Q 45.21875 56 50.046875 50.171875 
Q 54.890625 44.34375 54.890625 33.015625 
z
" id="DejaVuSans-6e"/>
      <path d="M 18.3125 70.21875 
L 18.3125 54.6875 
L 36.8125 54.6875 
L 36.8125 47.703125 
L 18.3125 47.703125 
L 18.3125 18.015625 
Q 18.3125 11.328125 20.140625 9.421875 
Q 21.96875 7.515625 27.59375 7.515625 
L 36.8125 7.515625 
L 36.8125 0 
L 27.59375 0 
Q 17.1875 0 13.234375 3.875 
Q 9.28125 7.765625 9.28125 18.015625 
L 9.28125 47.703125 
L 2.6875 47.703125 
L 2.6875 54.6875 
L 9.28125 54.6875 
L 9.28125 70.21875 
z
" id="DejaVuSans-74"/>
      <path id="DejaVuSans-20"/>
      <path d="M 53.515625 70.515625 
L 53.515625 60.890625 
Q 47.90625 63.578125 42.921875 64.890625 
Q 37.9375 66.21875 33.296875 66.21875 
Q 25.25 66.21875 20.875 63.09375 
Q 16.5 59.96875 16.5 54.203125 
Q 16.5 49.359375 19.40625 46.890625 
Q 22.3125 44.4375 30.421875 42.921875 
L 36.375 41.703125 
Q 47.40625 39.59375 52.65625 34.296875 
Q 57.90625 29 57.90625 20.125 
Q 57.90625 9.515625 50.796875 4.046875 
Q 43.703125 -1.421875 29.984375 -1.421875 
Q 24.8125 -1.421875 18.96875 -0.25 
Q 13.140625 0.921875 6.890625 3.21875 
L 6.890625 13.375 
Q 12.890625 10.015625 18.65625 8.296875 
Q 24.421875 6.59375 29.984375 6.59375 
Q 38.421875 6.59375 43.015625 9.90625 
Q 47.609375 13.234375 47.609375 19.390625 
Q 47.609375 24.75 44.3125 27.78125 
Q 41.015625 30.8125 33.5 32.328125 
L 27.484375 33.5 
Q 16.453125 35.6875 11.515625 40.375 
Q 6.59375 45.0625 6.59375 53.421875 
Q 6.59375 63.09375 13.40625 68.65625 
Q 20.21875 74.21875 32.171875 74.21875 
Q 37.3125 74.21875 42.625 73.28125 
Q 47.953125 72.359375 53.515625 70.515625 
z
" id="DejaVuSans-53"/>
      <path d="M 9.421875 54.6875 
L 18.40625 54.6875 
L 18.40625 0 
L 9.421875 0 
z
M 9.421875 75.984375 
L 18.40625 75.984375 
L 18.40625 64.59375 
L 9.421875 64.59375 
z
" id="DejaVuSans-69"/>
      <path d="M 9.421875 75.984375 
L 18.40625 75.984375 
L 18.40625 0 
L 9.421875 0 
z
" id="DejaVuSans-6c"/>
      <path d="M 34.28125 27.484375 
Q 23.390625 27.484375 19.1875 25 
Q 14.984375 22.515625 14.984375 16.5 
Q 14.984375 11.71875 18.140625 8.90625 
Q 21.296875 6.109375 26.703125 6.109375 
Q 34.1875 6.109375 38.703125 11.40625 
Q 43.21875 16.703125 43.21875 25.484375 
L 43.21875 27.484375 
z
M 52.203125 31.203125 
L 52.203125 0 
L 43.21875 0 
L 43.21875 8.296875 
Q 40.140625 3.328125 35.546875 0.953125 
Q 30.953125 -1.421875 24.3125 -1.421875 
Q 15.921875 -1.421875 10.953125 3.296875 
Q 6 8.015625 6 15.921875 
Q 6 25.140625 12.171875 29.828125 
Q 18.359375 34.515625 30.609375 34.515625 
L 43.21875 34.515625 
L 43.21875 35.40625 
Q 43.21875 41.609375 39.140625 45 
Q 35.0625 48.390625 27.6875 48.390625 
Q 23 48.390625 18.546875 47.265625 
Q 14.109375 46.140625 10.015625 43.890625 
L 10.015625 52.203125 
Q 14.9375 54.109375 19.578125 55.046875 
Q 24.21875 56 28.609375 56 
Q 40.484375 56 46.34375 49.84375 
Q 52.203125 43.703125 52.203125 31.203125 
z
" id="DejaVuSans-61"/>
      <path d="M 41.109375 46.296875 
Q 39.59375 47.171875 37.8125 47.578125 
Q 36.03125 48 33.890625 48 
Q 26.265625 48 22.1875 43.046875 
Q 18.109375 38.09375 18.109375 28.8125 
L 18.109375 0 
L 9.078125 0 
L 9.078125 54.6875 
L 18.109375 54.6875 
L 18.109375 46.1875 
Q 20.953125 51.171875 25.484375 53.578125 
Q 30.03125 56 36.53125 56 
Q 37.453125 56 38.578125 55.875 
Q 39.703125 55.765625 41.0625 55.515625 
z
" id="DejaVuSans-72"/>
      <path d="M 32.171875 -5.078125 
Q 28.375 -14.84375 24.75 -17.8125 
Q 21.140625 -20.796875 15.09375 -20.796875 
L 7.90625 -20.796875 
L 7.90625 -13.28125 
L 13.1875 -13.28125 
Q 16.890625 -13.28125 18.9375 -11.515625 
Q 21 -9.765625 23.484375 -3.21875 
L 25.09375 0.875 
L 2.984375 54.6875 
L 12.5 54.6875 
L 29.59375 11.921875 
L 46.6875 54.6875 
L 56.203125 54.6875 
z
" id="DejaVuSans-79"/>
      <path d="M 31 75.875 
Q 24.46875 64.65625 21.28125 53.65625 
Q 18.109375 42.671875 18.109375 31.390625 
Q 18.109375 20.125 21.3125 9.0625 
Q 24.515625 -2 31 -13.1875 
L 23.1875 -13.1875 
Q 15.875 -1.703125 12.234375 9.375 
Q 8.59375 20.453125 8.59375 31.390625 
Q 8.59375 42.28125 12.203125 53.3125 
Q 15.828125 64.359375 23.1875 75.875 
z
" id="DejaVuSans-28"/>
      <path d="M 72.703125 32.078125 
Q 68.453125 32.078125 66.03125 28.46875 
Q 63.625 24.859375 63.625 18.40625 
Q 63.625 12.0625 66.03125 8.421875 
Q 68.453125 4.78125 72.703125 4.78125 
Q 76.859375 4.78125 79.265625 8.421875 
Q 81.6875 12.0625 81.6875 18.40625 
Q 81.6875 24.8125 79.265625 28.4375 
Q 76.859375 32.078125 72.703125 32.078125 
z
M 72.703125 38.28125 
Q 80.421875 38.28125 84.953125 32.90625 
Q 89.5 27.546875 89.5 18.40625 
Q 89.5 9.28125 84.9375 3.921875 
Q 80.375 -1.421875 72.703125 -1.421875 
Q 64.890625 -1.421875 60.34375 3.921875 
Q 55.8125 9.28125 55.8125 18.40625 
Q 55.8125 27.59375 60.375 32.9375 
Q 64.9375 38.28125 72.703125 38.28125 
z
M 22.3125 68.015625 
Q 18.109375 68.015625 15.6875 64.375 
Q 13.28125 60.75 13.28125 54.390625 
Q 13.28125 47.953125 15.671875 44.328125 
Q 18.0625 40.71875 22.3125 40.71875 
Q 26.5625 40.71875 28.96875 44.328125 
Q 31.390625 47.953125 31.390625 54.390625 
Q 31.390625 60.6875 28.953125 64.34375 
Q 26.515625 68.015625 22.3125 68.015625 
z
M 66.40625 74.21875 
L 74.21875 74.21875 
L 28.609375 -1.421875 
L 20.796875 -1.421875 
z
M 22.3125 74.21875 
Q 30.03125 74.21875 34.609375 68.875 
Q 39.203125 63.53125 39.203125 54.390625 
Q 39.203125 45.171875 34.640625 39.84375 
Q 30.078125 34.515625 22.3125 34.515625 
Q 14.546875 34.515625 10.03125 39.859375 
Q 5.515625 45.21875 5.515625 54.390625 
Q 5.515625 63.484375 10.046875 68.84375 
Q 14.59375 74.21875 22.3125 74.21875 
z
" id="DejaVuSans-25"/>
      <path d="M 8.015625 75.875 
L 15.828125 75.875 
Q 23.140625 64.359375 26.78125 53.3125 
Q 30.421875 42.28125 30.421875 31.390625 
Q 30.421875 20.453125 26.78125 9.375 
Q 23.140625 -1.703125 15.828125 -13.1875 
L 8.015625 -13.1875 
Q 14.5 -2 17.703125 9.0625 
Q 20.90625 20.125 20.90625 31.390625 
Q 20.90625 42.671875 17.703125 53.65625 
Q 14.5 64.65625 8.015625 75.875 
z
" id="DejaVuSans-29"/>
     </defs>
     <g style="fill:#262626;" transform="translate(143.545469 329.778437)scale(0.2 -0.2)">
      <use xlink:href="#DejaVuSans-44"/>
      <use x="77.001953" xlink:href="#DejaVuSans-6f"/>
      <use x="138.183594" xlink:href="#DejaVuSans-63"/>
      <use x="193.164062" xlink:href="#DejaVuSans-75"/>
      <use x="256.542969" xlink:href="#DejaVuSans-6d"/>
      <use x="353.955078" xlink:href="#DejaVuSans-65"/>
      <use x="415.478516" xlink:href="#DejaVuSans-6e"/>
      <use x="478.857422" xlink:href="#DejaVuSans-74"/>
      <use x="518.066406" xlink:href="#DejaVuSans-20"/>
      <use x="549.853516" xlink:href="#DejaVuSans-53"/>
      <use x="613.330078" xlink:href="#DejaVuSans-69"/>
      <use x="641.113281" xlink:href="#DejaVuSans-6d"/>
      <use x="738.525391" xlink:href="#DejaVuSans-69"/>
      <use x="766.308594" xlink:href="#DejaVuSans-6c"/>
      <use x="794.091797" xlink:href="#DejaVuSans-61"/>
      <use x="855.371094" xlink:href="#DejaVuSans-72"/>
      <use x="896.484375" xlink:href="#DejaVuSans-69"/>
      <use x="924.267578" xlink:href="#DejaVuSans-74"/>
      <use x="963.476562" xlink:href="#DejaVuSans-79"/>
      <use x="1022.65625" xlink:href="#DejaVuSans-20"/>
      <use x="1054.443359" xlink:href="#DejaVuSans-28"/>
      <use x="1093.457031" xlink:href="#DejaVuSans-25"/>
      <use x="1188.476562" xlink:href="#DejaVuSans-29"/>
     </g>
    </g>
   </g>
   <g id="matplotlib.axis_2">
    <g id="ytick_1">
     <g id="line2d_12">
      <defs>
       <path d="M 0 0 
L -6 0 
" id="m0e13a65155" style="stroke:#262626;"/>
      </defs>
      <g>
       <use style="fill:#262626;stroke:#262626;" x="70.992344" xlink:href="#m0e13a65155" y="285"/>
      </g>
     </g>
     <g id="text_12">
      <!-- −30 -->
      <defs>
       <path d="M 10.59375 35.5 
L 73.1875 35.5 
L 73.1875 27.203125 
L 10.59375 27.203125 
z
" id="DejaVuSans-2212"/>
      </defs>
      <g style="fill:#262626;" transform="translate(30.55625 289.938984)scale(0.13 -0.13)">
       <use xlink:href="#DejaVuSans-2212"/>
       <use x="83.789062" xlink:href="#DejaVuSans-33"/>
       <use x="147.412109" xlink:href="#DejaVuSans-30"/>
      </g>
     </g>
    </g>
    <g id="ytick_2">
     <g id="line2d_13">
      <g>
       <use style="fill:#262626;stroke:#262626;" x="70.992344" xlink:href="#m0e13a65155" y="230.64"/>
      </g>
     </g>
     <g id="text_13">
      <!-- −20 -->
      <g style="fill:#262626;" transform="translate(30.55625 235.578984)scale(0.13 -0.13)">
       <use xlink:href="#DejaVuSans-2212"/>
       <use x="83.789062" xlink:href="#DejaVuSans-32"/>
       <use x="147.412109" xlink:href="#DejaVuSans-30"/>
      </g>
     </g>
    </g>
    <g id="ytick_3">
     <g id="line2d_14">
      <g>
       <use style="fill:#262626;stroke:#262626;" x="70.992344" xlink:href="#m0e13a65155" y="176.28"/>
      </g>
     </g>
     <g id="text_14">
      <!-- −10 -->
      <g style="fill:#262626;" transform="translate(30.55625 181.218984)scale(0.13 -0.13)">
       <use xlink:href="#DejaVuSans-2212"/>
       <use x="83.789062" xlink:href="#DejaVuSans-31"/>
       <use x="147.412109" xlink:href="#DejaVuSans-30"/>
      </g>
     </g>
    </g>
    <g id="ytick_4">
     <g id="line2d_15">
      <g>
       <use style="fill:#262626;stroke:#262626;" x="70.992344" xlink:href="#m0e13a65155" y="121.92"/>
      </g>
     </g>
     <g id="text_15">
      <!-- 0 -->
      <g style="fill:#262626;" transform="translate(49.721094 126.858984)scale(0.13 -0.13)">
       <use xlink:href="#DejaVuSans-30"/>
      </g>
     </g>
    </g>
    <g id="ytick_5">
     <g id="line2d_16">
      <g>
       <use style="fill:#262626;stroke:#262626;" x="70.992344" xlink:href="#m0e13a65155" y="67.56"/>
      </g>
     </g>
     <g id="text_16">
      <!-- 10 -->
      <g style="fill:#262626;" transform="translate(41.449844 72.498984)scale(0.13 -0.13)">
       <use xlink:href="#DejaVuSans-31"/>
       <use x="63.623047" xlink:href="#DejaVuSans-30"/>
      </g>
     </g>
    </g>
    <g id="ytick_6">
     <g id="line2d_17">
      <g>
       <use style="fill:#262626;stroke:#262626;" x="70.992344" xlink:href="#m0e13a65155" y="13.2"/>
      </g>
     </g>
     <g id="text_17">
      <!-- 20 -->
      <g style="fill:#262626;" transform="translate(41.449844 18.138984)scale(0.13 -0.13)">
       <use xlink:href="#DejaVuSans-32"/>
       <use x="63.623047" xlink:href="#DejaVuSans-30"/>
      </g>
     </g>
    </g>
    <g id="text_18">
     <!-- Change in # of Articles (%) -->
     <defs>
      <path d="M 64.40625 67.28125 
L 64.40625 56.890625 
Q 59.421875 61.53125 53.78125 63.8125 
Q 48.140625 66.109375 41.796875 66.109375 
Q 29.296875 66.109375 22.65625 58.46875 
Q 16.015625 50.828125 16.015625 36.375 
Q 16.015625 21.96875 22.65625 14.328125 
Q 29.296875 6.6875 41.796875 6.6875 
Q 48.140625 6.6875 53.78125 8.984375 
Q 59.421875 11.28125 64.40625 15.921875 
L 64.40625 5.609375 
Q 59.234375 2.09375 53.4375 0.328125 
Q 47.65625 -1.421875 41.21875 -1.421875 
Q 24.65625 -1.421875 15.125 8.703125 
Q 5.609375 18.84375 5.609375 36.375 
Q 5.609375 53.953125 15.125 64.078125 
Q 24.65625 74.21875 41.21875 74.21875 
Q 47.75 74.21875 53.53125 72.484375 
Q 59.328125 70.75 64.40625 67.28125 
z
" id="DejaVuSans-43"/>
      <path d="M 54.890625 33.015625 
L 54.890625 0 
L 45.90625 0 
L 45.90625 32.71875 
Q 45.90625 40.484375 42.875 44.328125 
Q 39.84375 48.1875 33.796875 48.1875 
Q 26.515625 48.1875 22.3125 43.546875 
Q 18.109375 38.921875 18.109375 30.90625 
L 18.109375 0 
L 9.078125 0 
L 9.078125 75.984375 
L 18.109375 75.984375 
L 18.109375 46.1875 
Q 21.34375 51.125 25.703125 53.5625 
Q 30.078125 56 35.796875 56 
Q 45.21875 56 50.046875 50.171875 
Q 54.890625 44.34375 54.890625 33.015625 
z
" id="DejaVuSans-68"/>
      <path d="M 45.40625 27.984375 
Q 45.40625 37.75 41.375 43.109375 
Q 37.359375 48.484375 30.078125 48.484375 
Q 22.859375 48.484375 18.828125 43.109375 
Q 14.796875 37.75 14.796875 27.984375 
Q 14.796875 18.265625 18.828125 12.890625 
Q 22.859375 7.515625 30.078125 7.515625 
Q 37.359375 7.515625 41.375 12.890625 
Q 45.40625 18.265625 45.40625 27.984375 
z
M 54.390625 6.78125 
Q 54.390625 -7.171875 48.1875 -13.984375 
Q 42 -20.796875 29.203125 -20.796875 
Q 24.46875 -20.796875 20.265625 -20.09375 
Q 16.0625 -19.390625 12.109375 -17.921875 
L 12.109375 -9.1875 
Q 16.0625 -11.328125 19.921875 -12.34375 
Q 23.78125 -13.375 27.78125 -13.375 
Q 36.625 -13.375 41.015625 -8.765625 
Q 45.40625 -4.15625 45.40625 5.171875 
L 45.40625 9.625 
Q 42.625 4.78125 38.28125 2.390625 
Q 33.9375 0 27.875 0 
Q 17.828125 0 11.671875 7.65625 
Q 5.515625 15.328125 5.515625 27.984375 
Q 5.515625 40.671875 11.671875 48.328125 
Q 17.828125 56 27.875 56 
Q 33.9375 56 38.28125 53.609375 
Q 42.625 51.21875 45.40625 46.390625 
L 45.40625 54.6875 
L 54.390625 54.6875 
z
" id="DejaVuSans-67"/>
      <path d="M 51.125 44 
L 36.921875 44 
L 32.8125 27.6875 
L 47.125 27.6875 
z
M 43.796875 71.78125 
L 38.71875 51.515625 
L 52.984375 51.515625 
L 58.109375 71.78125 
L 65.921875 71.78125 
L 60.890625 51.515625 
L 76.125 51.515625 
L 76.125 44 
L 58.984375 44 
L 54.984375 27.6875 
L 70.515625 27.6875 
L 70.515625 20.21875 
L 53.078125 20.21875 
L 48 0 
L 40.1875 0 
L 45.21875 20.21875 
L 30.90625 20.21875 
L 25.875 0 
L 18.015625 0 
L 23.09375 20.21875 
L 7.71875 20.21875 
L 7.71875 27.6875 
L 24.90625 27.6875 
L 29 44 
L 13.28125 44 
L 13.28125 51.515625 
L 30.90625 51.515625 
L 35.890625 71.78125 
z
" id="DejaVuSans-23"/>
      <path d="M 37.109375 75.984375 
L 37.109375 68.5 
L 28.515625 68.5 
Q 23.6875 68.5 21.796875 66.546875 
Q 19.921875 64.59375 19.921875 59.515625 
L 19.921875 54.6875 
L 34.71875 54.6875 
L 34.71875 47.703125 
L 19.921875 47.703125 
L 19.921875 0 
L 10.890625 0 
L 10.890625 47.703125 
L 2.296875 47.703125 
L 2.296875 54.6875 
L 10.890625 54.6875 
L 10.890625 58.5 
Q 10.890625 67.625 15.140625 71.796875 
Q 19.390625 75.984375 28.609375 75.984375 
z
" id="DejaVuSans-66"/>
      <path d="M 34.1875 63.1875 
L 20.796875 26.90625 
L 47.609375 26.90625 
z
M 28.609375 72.90625 
L 39.796875 72.90625 
L 67.578125 0 
L 57.328125 0 
L 50.6875 18.703125 
L 17.828125 18.703125 
L 11.1875 0 
L 0.78125 0 
z
" id="DejaVuSans-41"/>
      <path d="M 44.28125 53.078125 
L 44.28125 44.578125 
Q 40.484375 46.53125 36.375 47.5 
Q 32.28125 48.484375 27.875 48.484375 
Q 21.1875 48.484375 17.84375 46.4375 
Q 14.5 44.390625 14.5 40.28125 
Q 14.5 37.15625 16.890625 35.375 
Q 19.28125 33.59375 26.515625 31.984375 
L 29.59375 31.296875 
Q 39.15625 29.25 43.1875 25.515625 
Q 47.21875 21.78125 47.21875 15.09375 
Q 47.21875 7.46875 41.1875 3.015625 
Q 35.15625 -1.421875 24.609375 -1.421875 
Q 20.21875 -1.421875 15.453125 -0.5625 
Q 10.6875 0.296875 5.421875 2 
L 5.421875 11.28125 
Q 10.40625 8.6875 15.234375 7.390625 
Q 20.0625 6.109375 24.8125 6.109375 
Q 31.15625 6.109375 34.5625 8.28125 
Q 37.984375 10.453125 37.984375 14.40625 
Q 37.984375 18.0625 35.515625 20.015625 
Q 33.0625 21.96875 24.703125 23.78125 
L 21.578125 24.515625 
Q 13.234375 26.265625 9.515625 29.90625 
Q 5.8125 33.546875 5.8125 39.890625 
Q 5.8125 47.609375 11.28125 51.796875 
Q 16.75 56 26.8125 56 
Q 31.78125 56 36.171875 55.265625 
Q 40.578125 54.546875 44.28125 53.078125 
z
" id="DejaVuSans-73"/>
     </defs>
     <g style="fill:#262626;" transform="translate(22.396875 285.00625)rotate(-90)scale(0.2 -0.2)">
      <use xlink:href="#DejaVuSans-43"/>
      <use x="69.824219" xlink:href="#DejaVuSans-68"/>
      <use x="133.203125" xlink:href="#DejaVuSans-61"/>
      <use x="194.482422" xlink:href="#DejaVuSans-6e"/>
      <use x="257.861328" xlink:href="#DejaVuSans-67"/>
      <use x="321.337891" xlink:href="#DejaVuSans-65"/>
      <use x="382.861328" xlink:href="#DejaVuSans-20"/>
      <use x="414.648438" xlink:href="#DejaVuSans-69"/>
      <use x="442.431641" xlink:href="#DejaVuSans-6e"/>
      <use x="505.810547" xlink:href="#DejaVuSans-20"/>
      <use x="537.597656" xlink:href="#DejaVuSans-23"/>
      <use x="621.386719" xlink:href="#DejaVuSans-20"/>
      <use x="653.173828" xlink:href="#DejaVuSans-6f"/>
      <use x="714.355469" xlink:href="#DejaVuSans-66"/>
      <use x="749.560547" xlink:href="#DejaVuSans-20"/>
      <use x="781.347656" xlink:href="#DejaVuSans-41"/>
      <use x="849.755859" xlink:href="#DejaVuSans-72"/>
      <use x="890.869141" xlink:href="#DejaVuSans-74"/>
      <use x="930.078125" xlink:href="#DejaVuSans-69"/>
      <use x="957.861328" xlink:href="#DejaVuSans-63"/>
      <use x="1012.841797" xlink:href="#DejaVuSans-6c"/>
      <use x="1040.625" xlink:href="#DejaVuSans-65"/>
      <use x="1102.148438" xlink:href="#DejaVuSans-73"/>
      <use x="1154.248047" xlink:href="#DejaVuSans-20"/>
      <use x="1186.035156" xlink:href="#DejaVuSans-28"/>
      <use x="1225.048828" xlink:href="#DejaVuSans-25"/>
      <use x="1320.068359" xlink:href="#DejaVuSans-29"/>
     </g>
    </g>
   </g>
   <g id="PolyCollection_2">
    <path clip-path="url(#p2b65345fbd)" d="M 44.952344 121.919959 
L 44.952344 121.920701 
L 50.73901 121.92755 
L 56.525677 121.975202 
L 62.312344 122.187411 
L 68.09901 122.757431 
L 73.885677 123.532356 
L 79.672344 123.514814 
L 85.45901 121.894288 
L 91.245677 120.659216 
L 97.032344 124.098991 
L 102.81901 132.395249 
L 108.605677 140.584974 
L 114.392344 147.81267 
L 120.17901 157.671955 
L 125.965677 170.071687 
L 131.752344 180.147466 
L 137.53901 187.014484 
L 143.325677 198.10707 
L 149.112344 218.125827 
L 154.89901 241.022055 
L 160.685677 253.499176 
L 166.472344 248.893698 
L 172.25901 236.366265 
L 178.045677 228.361303 
L 183.832344 223.896624 
L 189.61901 214.957977 
L 195.405677 198.808249 
L 201.192344 177.447687 
L 206.97901 153.810116 
L 212.765677 132.087484 
L 218.552344 115.427391 
L 224.33901 104.55353 
L 230.125677 98.909221 
L 235.912344 97.170753 
L 241.69901 97.328233 
L 247.485677 97.6314 
L 253.272344 96.055371 
L 259.05901 91.561982 
L 264.845677 85.408398 
L 270.632344 79.515944 
L 276.41901 75.12612 
L 282.205677 73.983437 
L 287.992344 77.010168 
L 293.77901 82.442971 
L 299.565677 87.043325 
L 305.352344 90.041987 
L 311.13901 93.204419 
L 316.925677 97.768095 
L 322.712344 103.515844 
L 328.49901 108.86775 
L 334.285677 112.038181 
L 340.072344 113.223099 
L 345.85901 113.87292 
L 351.645677 114.653242 
L 357.432344 115.125549 
L 363.21901 115.227716 
L 369.005677 115.815866 
L 374.792344 116.820601 
L 380.57901 117.450481 
L 386.365677 118.009719 
L 392.152344 118.994125 
L 397.93901 119.812509 
L 403.725677 120.086682 
L 409.512344 120.14873 
L 415.29901 120.222378 
L 421.085677 120.29541 
L 426.872344 120.501239 
L 432.65901 120.949604 
L 438.445677 121.511608 
L 444.232344 121.950716 
L 450.01901 122.195227 
L 455.805677 122.2378 
L 461.592344 122.10452 
L 467.37901 121.970044 
L 473.165677 121.85464 
L 478.952344 121.710962 
L 484.73901 121.672246 
L 490.525677 121.772981 
L 496.312344 121.90574 
L 502.09901 121.970529 
L 507.885677 121.976593 
L 513.672344 121.981026 
L 519.45901 121.94312 
L 525.245677 121.879648 
L 531.032344 121.880779 
L 536.81901 121.951121 
L 542.605677 122.018439 
L 548.392344 121.995864 
L 554.17901 121.904187 
L 559.965677 121.862392 
L 565.752344 121.930382 
L 571.53901 122.065526 
L 577.325677 122.158489 
L 583.112344 122.154485 
L 588.89901 122.083198 
L 594.685677 122.004952 
L 600.472344 121.9533 
L 606.25901 121.929482 
L 612.045677 121.921876 
L 617.832344 121.920251 
L 617.832344 121.920107 
L 617.832344 121.920107 
L 612.045677 121.920623 
L 606.25901 121.922262 
L 600.472344 121.924631 
L 594.685677 121.922009 
L 588.89901 121.902144 
L 583.112344 121.854468 
L 577.325677 121.776048 
L 571.53901 121.683172 
L 565.752344 121.60382 
L 559.965677 121.537865 
L 554.17901 121.51693 
L 548.392344 121.564054 
L 542.605677 121.590535 
L 536.81901 121.493165 
L 531.032344 121.362689 
L 525.245677 121.329735 
L 519.45901 121.349294 
L 513.672344 121.360867 
L 507.885677 121.347314 
L 502.09901 121.267325 
L 496.312344 121.108153 
L 490.525677 120.900404 
L 484.73901 120.719579 
L 478.952344 120.607581 
L 473.165677 120.590617 
L 467.37901 120.665213 
L 461.592344 120.680026 
L 455.805677 120.60356 
L 450.01901 120.465078 
L 444.232344 120.125734 
L 438.445677 119.5578 
L 432.65901 118.863657 
L 426.872344 118.170301 
L 421.085677 117.66445 
L 415.29901 117.477187 
L 409.512344 117.517048 
L 403.725677 117.335396 
L 397.93901 116.598218 
L 392.152344 115.540303 
L 386.365677 114.496442 
L 380.57901 113.321195 
L 374.792344 111.902459 
L 369.005677 110.455716 
L 363.21901 109.264496 
L 357.432344 108.273609 
L 351.645677 107.139064 
L 345.85901 106.090883 
L 340.072344 105.558277 
L 334.285677 104.088399 
L 328.49901 99.855468 
L 322.712344 93.538033 
L 316.925677 86.905951 
L 311.13901 81.056693 
L 305.352344 76.317247 
L 299.565677 71.771855 
L 293.77901 65.936967 
L 287.992344 59.572038 
L 282.205677 55.717057 
L 276.41901 55.132168 
L 270.632344 55.911082 
L 264.845677 58.318737 
L 259.05901 62.663013 
L 253.272344 65.444079 
L 247.485677 63.551427 
L 241.69901 59.173612 
L 235.912344 56.515084 
L 230.125677 58.002456 
L 224.33901 64.150306 
L 218.552344 75.414584 
L 212.765677 92.728359 
L 206.97901 115.567731 
L 201.192344 140.073541 
L 195.405677 161.145208 
L 189.61901 174.836198 
L 183.832344 181.372222 
L 178.045677 185.608266 
L 172.25901 192.62689 
L 166.472344 201.105582 
L 160.685677 201.982477 
L 154.89901 187.801927 
L 149.112344 164.467358 
L 143.325677 145.872725 
L 137.53901 136.871061 
L 131.752344 131.308429 
L 125.965677 125.639251 
L 120.17901 121.475697 
L 114.392344 119.169349 
L 108.605677 115.335579 
L 102.81901 109.315277 
L 97.032344 105.360958 
L 91.245677 106.600733 
L 85.45901 111.954302 
L 79.672344 117.432442 
L 73.885677 120.511174 
L 68.09901 121.602875 
L 62.312344 121.867265 
L 56.525677 121.913438 
L 50.73901 121.919393 
L 44.952344 121.919959 
z
" style="fill:#4c72b0;fill-opacity:0.2;stroke:#4c72b0;stroke-opacity:0.2;"/>
   </g>
   <g id="patch_3">
    <path d="M 70.992344 285 
L 70.992344 13.2 
" style="fill:none;stroke:#000000;stroke-linecap:square;stroke-linejoin:miter;stroke-width:0.8;"/>
   </g>
   <g id="patch_4">
    <path d="M 70.992344 285 
L 461.592344 285 
" style="fill:none;stroke:#000000;stroke-linecap:square;stroke-linejoin:miter;stroke-width:0.8;"/>
   </g>
   <g id="line2d_18">
    <path clip-path="url(#p2b65345fbd)" d="M 44.952344 121.92033 
L 50.73901 121.923471 
L 56.525677 121.94432 
L 62.312344 122.027338 
L 68.09901 122.180153 
L 73.885677 122.021765 
L 79.672344 120.473628 
L 85.45901 116.924295 
L 91.245677 113.629974 
L 97.032344 114.729974 
L 102.81901 120.855263 
L 108.605677 127.960276 
L 114.392344 133.491009 
L 120.17901 139.573826 
L 125.965677 147.855469 
L 131.752344 155.727948 
L 137.53901 161.942772 
L 143.325677 171.989897 
L 149.112344 191.296593 
L 154.89901 214.411991 
L 160.685677 227.740827 
L 166.472344 224.99964 
L 172.25901 214.496577 
L 178.045677 206.984784 
L 183.832344 202.634423 
L 189.61901 194.897087 
L 195.405677 179.976728 
L 201.192344 158.760614 
L 206.97901 134.688924 
L 212.765677 112.407921 
L 218.552344 95.420987 
L 224.33901 84.351918 
L 230.125677 78.455839 
L 235.912344 76.842918 
L 241.69901 78.250922 
L 247.485677 80.591413 
L 253.272344 80.749725 
L 259.05901 77.112497 
L 264.845677 71.863568 
L 270.632344 67.713513 
L 276.41901 65.129144 
L 282.205677 64.850247 
L 287.992344 68.291103 
L 293.77901 74.189969 
L 299.565677 79.40759 
L 305.352344 83.179617 
L 311.13901 87.130556 
L 316.925677 92.337023 
L 322.712344 98.526938 
L 328.49901 104.361609 
L 334.285677 108.06329 
L 340.072344 109.390688 
L 345.85901 109.981902 
L 351.645677 110.896153 
L 357.432344 111.699579 
L 363.21901 112.246106 
L 369.005677 113.135791 
L 374.792344 114.36153 
L 380.57901 115.385838 
L 386.365677 116.253081 
L 392.152344 117.267214 
L 397.93901 118.205364 
L 403.725677 118.711039 
L 409.512344 118.832889 
L 415.29901 118.849783 
L 421.085677 118.97993 
L 426.872344 119.33577 
L 432.65901 119.90663 
L 438.445677 120.534704 
L 444.232344 121.038225 
L 450.01901 121.330153 
L 455.805677 121.42068 
L 461.592344 121.392273 
L 467.37901 121.317628 
L 473.165677 121.222629 
L 478.063594 121.169002 
" style="fill:none;stroke:#4c72b0;stroke-linecap:square;stroke-width:1.5;"/>
   </g>
  </g>
 </g>
 <defs>
  <clipPath id="p2b65345fbd">
   <rect height="271.8" width="390.6" x="70.992344" y="13.2"/>
  </clipPath>
 </defs>
</svg>
