<?xml version="1.0" encoding="utf-8" standalone="no"?>
<!DOCTYPE svg PUBLIC "-//W3C//DTD SVG 1.1//EN"
  "http://www.w3.org/Graphics/SVG/1.1/DTD/svg11.dtd">
<!-- Created with matplotlib (http://matplotlib.org/) -->
<svg height="356pt" version="1.1" viewBox="0 0 756 356" width="756pt" xmlns="http://www.w3.org/2000/svg" xmlns:xlink="http://www.w3.org/1999/xlink">
 <defs>
  <style type="text/css">
*{stroke-linecap:butt;stroke-linejoin:round;}
  </style>
 </defs>
 <g id="figure_1">
  <g id="patch_1">
   <path d="M 0 356.334687 
L 756.063594 356.334687 
L 756.063594 0 
L 0 0 
z
" style="fill:#ffffff;"/>
  </g>
  <g id="axes_1">
   <g id="patch_2">
    <path d="M 70.992344 300.196875 
L 375.35598 300.196875 
L 375.35598 28.396875 
L 70.992344 28.396875 
z
" style="fill:#ffffff;"/>
   </g>
   <g id="matplotlib.axis_1">
    <g id="xtick_1">
     <g id="line2d_1">
      <defs>
       <path d="M 0 0 
L 0 6 
" id="m321c8c0c28" style="stroke:#262626;"/>
      </defs>
      <g>
       <use style="fill:#262626;stroke:#262626;" x="70.992344" xlink:href="#m321c8c0c28" y="300.196875"/>
      </g>
     </g>
     <g id="text_1">
      <!-- 0 -->
      <defs>
       <path d="M 31.78125 66.40625 
Q 24.171875 66.40625 20.328125 58.90625 
Q 16.5 51.421875 16.5 36.375 
Q 16.5 21.390625 20.328125 13.890625 
Q 24.171875 6.390625 31.78125 6.390625 
Q 39.453125 6.390625 43.28125 13.890625 
Q 47.125 21.390625 47.125 36.375 
Q 47.125 51.421875 43.28125 58.90625 
Q 39.453125 66.40625 31.78125 66.40625 
z
M 31.78125 74.21875 
Q 44.046875 74.21875 50.515625 64.515625 
Q 56.984375 54.828125 56.984375 36.375 
Q 56.984375 17.96875 50.515625 8.265625 
Q 44.046875 -1.421875 31.78125 -1.421875 
Q 19.53125 -1.421875 13.0625 8.265625 
Q 6.59375 17.96875 6.59375 36.375 
Q 6.59375 54.828125 13.0625 64.515625 
Q 19.53125 74.21875 31.78125 74.21875 
z
" id="DejaVuSans-30"/>
      </defs>
      <g style="fill:#262626;" transform="translate(66.856719 323.074844)scale(0.13 -0.13)">
       <use xlink:href="#DejaVuSans-30"/>
      </g>
     </g>
    </g>
    <g id="xtick_2">
     <g id="line2d_2">
      <g>
       <use style="fill:#262626;stroke:#262626;" x="131.865071" xlink:href="#m321c8c0c28" y="300.196875"/>
      </g>
     </g>
     <g id="text_2">
      <!-- 10 -->
      <defs>
       <path d="M 12.40625 8.296875 
L 28.515625 8.296875 
L 28.515625 63.921875 
L 10.984375 60.40625 
L 10.984375 69.390625 
L 28.421875 72.90625 
L 38.28125 72.90625 
L 38.28125 8.296875 
L 54.390625 8.296875 
L 54.390625 0 
L 12.40625 0 
z
" id="DejaVuSans-31"/>
      </defs>
      <g style="fill:#262626;" transform="translate(123.593821 323.074844)scale(0.13 -0.13)">
       <use xlink:href="#DejaVuSans-31"/>
       <use x="63.623047" xlink:href="#DejaVuSans-30"/>
      </g>
     </g>
    </g>
    <g id="xtick_3">
     <g id="line2d_3">
      <g>
       <use style="fill:#262626;stroke:#262626;" x="192.737798" xlink:href="#m321c8c0c28" y="300.196875"/>
      </g>
     </g>
     <g id="text_3">
      <!-- 20 -->
      <defs>
       <path d="M 19.1875 8.296875 
L 53.609375 8.296875 
L 53.609375 0 
L 7.328125 0 
L 7.328125 8.296875 
Q 12.9375 14.109375 22.625 23.890625 
Q 32.328125 33.6875 34.8125 36.53125 
Q 39.546875 41.84375 41.421875 45.53125 
Q 43.3125 49.21875 43.3125 52.78125 
Q 43.3125 58.59375 39.234375 62.25 
Q 35.15625 65.921875 28.609375 65.921875 
Q 23.96875 65.921875 18.8125 64.3125 
Q 13.671875 62.703125 7.8125 59.421875 
L 7.8125 69.390625 
Q 13.765625 71.78125 18.9375 73 
Q 24.125 74.21875 28.421875 74.21875 
Q 39.75 74.21875 46.484375 68.546875 
Q 53.21875 62.890625 53.21875 53.421875 
Q 53.21875 48.921875 51.53125 44.890625 
Q 49.859375 40.875 45.40625 35.40625 
Q 44.1875 33.984375 37.640625 27.21875 
Q 31.109375 20.453125 19.1875 8.296875 
z
" id="DejaVuSans-32"/>
      </defs>
      <g style="fill:#262626;" transform="translate(184.466548 323.074844)scale(0.13 -0.13)">
       <use xlink:href="#DejaVuSans-32"/>
       <use x="63.623047" xlink:href="#DejaVuSans-30"/>
      </g>
     </g>
    </g>
    <g id="xtick_4">
     <g id="line2d_4">
      <g>
       <use style="fill:#262626;stroke:#262626;" x="253.610526" xlink:href="#m321c8c0c28" y="300.196875"/>
      </g>
     </g>
     <g id="text_4">
      <!-- 30 -->
      <defs>
       <path d="M 40.578125 39.3125 
Q 47.65625 37.796875 51.625 33 
Q 55.609375 28.21875 55.609375 21.1875 
Q 55.609375 10.40625 48.1875 4.484375 
Q 40.765625 -1.421875 27.09375 -1.421875 
Q 22.515625 -1.421875 17.65625 -0.515625 
Q 12.796875 0.390625 7.625 2.203125 
L 7.625 11.71875 
Q 11.71875 9.328125 16.59375 8.109375 
Q 21.484375 6.890625 26.8125 6.890625 
Q 36.078125 6.890625 40.9375 10.546875 
Q 45.796875 14.203125 45.796875 21.1875 
Q 45.796875 27.640625 41.28125 31.265625 
Q 36.765625 34.90625 28.71875 34.90625 
L 20.21875 34.90625 
L 20.21875 43.015625 
L 29.109375 43.015625 
Q 36.375 43.015625 40.234375 45.921875 
Q 44.09375 48.828125 44.09375 54.296875 
Q 44.09375 59.90625 40.109375 62.90625 
Q 36.140625 65.921875 28.71875 65.921875 
Q 24.65625 65.921875 20.015625 65.03125 
Q 15.375 64.15625 9.8125 62.3125 
L 9.8125 71.09375 
Q 15.4375 72.65625 20.34375 73.4375 
Q 25.25 74.21875 29.59375 74.21875 
Q 40.828125 74.21875 47.359375 69.109375 
Q 53.90625 64.015625 53.90625 55.328125 
Q 53.90625 49.265625 50.4375 45.09375 
Q 46.96875 40.921875 40.578125 39.3125 
z
" id="DejaVuSans-33"/>
      </defs>
      <g style="fill:#262626;" transform="translate(245.339276 323.074844)scale(0.13 -0.13)">
       <use xlink:href="#DejaVuSans-33"/>
       <use x="63.623047" xlink:href="#DejaVuSans-30"/>
      </g>
     </g>
    </g>
    <g id="xtick_5">
     <g id="line2d_5">
      <g>
       <use style="fill:#262626;stroke:#262626;" x="314.483253" xlink:href="#m321c8c0c28" y="300.196875"/>
      </g>
     </g>
     <g id="text_5">
      <!-- 40 -->
      <defs>
       <path d="M 37.796875 64.3125 
L 12.890625 25.390625 
L 37.796875 25.390625 
z
M 35.203125 72.90625 
L 47.609375 72.90625 
L 47.609375 25.390625 
L 58.015625 25.390625 
L 58.015625 17.1875 
L 47.609375 17.1875 
L 47.609375 0 
L 37.796875 0 
L 37.796875 17.1875 
L 4.890625 17.1875 
L 4.890625 26.703125 
z
" id="DejaVuSans-34"/>
      </defs>
      <g style="fill:#262626;" transform="translate(306.212003 323.074844)scale(0.13 -0.13)">
       <use xlink:href="#DejaVuSans-34"/>
       <use x="63.623047" xlink:href="#DejaVuSans-30"/>
      </g>
     </g>
    </g>
    <g id="xtick_6">
     <g id="line2d_6">
      <g>
       <use style="fill:#262626;stroke:#262626;" x="375.35598" xlink:href="#m321c8c0c28" y="300.196875"/>
      </g>
     </g>
     <g id="text_6">
      <!-- 50 -->
      <defs>
       <path d="M 10.796875 72.90625 
L 49.515625 72.90625 
L 49.515625 64.59375 
L 19.828125 64.59375 
L 19.828125 46.734375 
Q 21.96875 47.46875 24.109375 47.828125 
Q 26.265625 48.1875 28.421875 48.1875 
Q 40.625 48.1875 47.75 41.5 
Q 54.890625 34.8125 54.890625 23.390625 
Q 54.890625 11.625 47.5625 5.09375 
Q 40.234375 -1.421875 26.90625 -1.421875 
Q 22.3125 -1.421875 17.546875 -0.640625 
Q 12.796875 0.140625 7.71875 1.703125 
L 7.71875 11.625 
Q 12.109375 9.234375 16.796875 8.0625 
Q 21.484375 6.890625 26.703125 6.890625 
Q 35.15625 6.890625 40.078125 11.328125 
Q 45.015625 15.765625 45.015625 23.390625 
Q 45.015625 31 40.078125 35.4375 
Q 35.15625 39.890625 26.703125 39.890625 
Q 22.75 39.890625 18.8125 39.015625 
Q 14.890625 38.140625 10.796875 36.28125 
z
" id="DejaVuSans-35"/>
      </defs>
      <g style="fill:#262626;" transform="translate(367.08473 323.074844)scale(0.13 -0.13)">
       <use xlink:href="#DejaVuSans-35"/>
       <use x="63.623047" xlink:href="#DejaVuSans-30"/>
      </g>
     </g>
    </g>
    <g id="text_7">
     <!-- Document Similarity (%) -->
     <defs>
      <path d="M 19.671875 64.796875 
L 19.671875 8.109375 
L 31.59375 8.109375 
Q 46.6875 8.109375 53.6875 14.9375 
Q 60.6875 21.78125 60.6875 36.53125 
Q 60.6875 51.171875 53.6875 57.984375 
Q 46.6875 64.796875 31.59375 64.796875 
z
M 9.8125 72.90625 
L 30.078125 72.90625 
Q 51.265625 72.90625 61.171875 64.09375 
Q 71.09375 55.28125 71.09375 36.53125 
Q 71.09375 17.671875 61.125 8.828125 
Q 51.171875 0 30.078125 0 
L 9.8125 0 
z
" id="DejaVuSans-44"/>
      <path d="M 30.609375 48.390625 
Q 23.390625 48.390625 19.1875 42.75 
Q 14.984375 37.109375 14.984375 27.296875 
Q 14.984375 17.484375 19.15625 11.84375 
Q 23.34375 6.203125 30.609375 6.203125 
Q 37.796875 6.203125 41.984375 11.859375 
Q 46.1875 17.53125 46.1875 27.296875 
Q 46.1875 37.015625 41.984375 42.703125 
Q 37.796875 48.390625 30.609375 48.390625 
z
M 30.609375 56 
Q 42.328125 56 49.015625 48.375 
Q 55.71875 40.765625 55.71875 27.296875 
Q 55.71875 13.875 49.015625 6.21875 
Q 42.328125 -1.421875 30.609375 -1.421875 
Q 18.84375 -1.421875 12.171875 6.21875 
Q 5.515625 13.875 5.515625 27.296875 
Q 5.515625 40.765625 12.171875 48.375 
Q 18.84375 56 30.609375 56 
z
" id="DejaVuSans-6f"/>
      <path d="M 48.78125 52.59375 
L 48.78125 44.1875 
Q 44.96875 46.296875 41.140625 47.34375 
Q 37.3125 48.390625 33.40625 48.390625 
Q 24.65625 48.390625 19.8125 42.84375 
Q 14.984375 37.3125 14.984375 27.296875 
Q 14.984375 17.28125 19.8125 11.734375 
Q 24.65625 6.203125 33.40625 6.203125 
Q 37.3125 6.203125 41.140625 7.25 
Q 44.96875 8.296875 48.78125 10.40625 
L 48.78125 2.09375 
Q 45.015625 0.34375 40.984375 -0.53125 
Q 36.96875 -1.421875 32.421875 -1.421875 
Q 20.0625 -1.421875 12.78125 6.34375 
Q 5.515625 14.109375 5.515625 27.296875 
Q 5.515625 40.671875 12.859375 48.328125 
Q 20.21875 56 33.015625 56 
Q 37.15625 56 41.109375 55.140625 
Q 45.0625 54.296875 48.78125 52.59375 
z
" id="DejaVuSans-63"/>
      <path d="M 8.5 21.578125 
L 8.5 54.6875 
L 17.484375 54.6875 
L 17.484375 21.921875 
Q 17.484375 14.15625 20.5 10.265625 
Q 23.53125 6.390625 29.59375 6.390625 
Q 36.859375 6.390625 41.078125 11.03125 
Q 45.3125 15.671875 45.3125 23.6875 
L 45.3125 54.6875 
L 54.296875 54.6875 
L 54.296875 0 
L 45.3125 0 
L 45.3125 8.40625 
Q 42.046875 3.421875 37.71875 1 
Q 33.40625 -1.421875 27.6875 -1.421875 
Q 18.265625 -1.421875 13.375 4.4375 
Q 8.5 10.296875 8.5 21.578125 
z
M 31.109375 56 
z
" id="DejaVuSans-75"/>
      <path d="M 52 44.1875 
Q 55.375 50.25 60.0625 53.125 
Q 64.75 56 71.09375 56 
Q 79.640625 56 84.28125 50.015625 
Q 88.921875 44.046875 88.921875 33.015625 
L 88.921875 0 
L 79.890625 0 
L 79.890625 32.71875 
Q 79.890625 40.578125 77.09375 44.375 
Q 74.3125 48.1875 68.609375 48.1875 
Q 61.625 48.1875 57.5625 43.546875 
Q 53.515625 38.921875 53.515625 30.90625 
L 53.515625 0 
L 44.484375 0 
L 44.484375 32.71875 
Q 44.484375 40.625 41.703125 44.40625 
Q 38.921875 48.1875 33.109375 48.1875 
Q 26.21875 48.1875 22.15625 43.53125 
Q 18.109375 38.875 18.109375 30.90625 
L 18.109375 0 
L 9.078125 0 
L 9.078125 54.6875 
L 18.109375 54.6875 
L 18.109375 46.1875 
Q 21.1875 51.21875 25.484375 53.609375 
Q 29.78125 56 35.6875 56 
Q 41.65625 56 45.828125 52.96875 
Q 50 49.953125 52 44.1875 
z
" id="DejaVuSans-6d"/>
      <path d="M 56.203125 29.59375 
L 56.203125 25.203125 
L 14.890625 25.203125 
Q 15.484375 15.921875 20.484375 11.0625 
Q 25.484375 6.203125 34.421875 6.203125 
Q 39.59375 6.203125 44.453125 7.46875 
Q 49.3125 8.734375 54.109375 11.28125 
L 54.109375 2.78125 
Q 49.265625 0.734375 44.1875 -0.34375 
Q 39.109375 -1.421875 33.890625 -1.421875 
Q 20.796875 -1.421875 13.15625 6.1875 
Q 5.515625 13.8125 5.515625 26.8125 
Q 5.515625 40.234375 12.765625 48.109375 
Q 20.015625 56 32.328125 56 
Q 43.359375 56 49.78125 48.890625 
Q 56.203125 41.796875 56.203125 29.59375 
z
M 47.21875 32.234375 
Q 47.125 39.59375 43.09375 43.984375 
Q 39.0625 48.390625 32.421875 48.390625 
Q 24.90625 48.390625 20.390625 44.140625 
Q 15.875 39.890625 15.1875 32.171875 
z
" id="DejaVuSans-65"/>
      <path d="M 54.890625 33.015625 
L 54.890625 0 
L 45.90625 0 
L 45.90625 32.71875 
Q 45.90625 40.484375 42.875 44.328125 
Q 39.84375 48.1875 33.796875 48.1875 
Q 26.515625 48.1875 22.3125 43.546875 
Q 18.109375 38.921875 18.109375 30.90625 
L 18.109375 0 
L 9.078125 0 
L 9.078125 54.6875 
L 18.109375 54.6875 
L 18.109375 46.1875 
Q 21.34375 51.125 25.703125 53.5625 
Q 30.078125 56 35.796875 56 
Q 45.21875 56 50.046875 50.171875 
Q 54.890625 44.34375 54.890625 33.015625 
z
" id="DejaVuSans-6e"/>
      <path d="M 18.3125 70.21875 
L 18.3125 54.6875 
L 36.8125 54.6875 
L 36.8125 47.703125 
L 18.3125 47.703125 
L 18.3125 18.015625 
Q 18.3125 11.328125 20.140625 9.421875 
Q 21.96875 7.515625 27.59375 7.515625 
L 36.8125 7.515625 
L 36.8125 0 
L 27.59375 0 
Q 17.1875 0 13.234375 3.875 
Q 9.28125 7.765625 9.28125 18.015625 
L 9.28125 47.703125 
L 2.6875 47.703125 
L 2.6875 54.6875 
L 9.28125 54.6875 
L 9.28125 70.21875 
z
" id="DejaVuSans-74"/>
      <path id="DejaVuSans-20"/>
      <path d="M 53.515625 70.515625 
L 53.515625 60.890625 
Q 47.90625 63.578125 42.921875 64.890625 
Q 37.9375 66.21875 33.296875 66.21875 
Q 25.25 66.21875 20.875 63.09375 
Q 16.5 59.96875 16.5 54.203125 
Q 16.5 49.359375 19.40625 46.890625 
Q 22.3125 44.4375 30.421875 42.921875 
L 36.375 41.703125 
Q 47.40625 39.59375 52.65625 34.296875 
Q 57.90625 29 57.90625 20.125 
Q 57.90625 9.515625 50.796875 4.046875 
Q 43.703125 -1.421875 29.984375 -1.421875 
Q 24.8125 -1.421875 18.96875 -0.25 
Q 13.140625 0.921875 6.890625 3.21875 
L 6.890625 13.375 
Q 12.890625 10.015625 18.65625 8.296875 
Q 24.421875 6.59375 29.984375 6.59375 
Q 38.421875 6.59375 43.015625 9.90625 
Q 47.609375 13.234375 47.609375 19.390625 
Q 47.609375 24.75 44.3125 27.78125 
Q 41.015625 30.8125 33.5 32.328125 
L 27.484375 33.5 
Q 16.453125 35.6875 11.515625 40.375 
Q 6.59375 45.0625 6.59375 53.421875 
Q 6.59375 63.09375 13.40625 68.65625 
Q 20.21875 74.21875 32.171875 74.21875 
Q 37.3125 74.21875 42.625 73.28125 
Q 47.953125 72.359375 53.515625 70.515625 
z
" id="DejaVuSans-53"/>
      <path d="M 9.421875 54.6875 
L 18.40625 54.6875 
L 18.40625 0 
L 9.421875 0 
z
M 9.421875 75.984375 
L 18.40625 75.984375 
L 18.40625 64.59375 
L 9.421875 64.59375 
z
" id="DejaVuSans-69"/>
      <path d="M 9.421875 75.984375 
L 18.40625 75.984375 
L 18.40625 0 
L 9.421875 0 
z
" id="DejaVuSans-6c"/>
      <path d="M 34.28125 27.484375 
Q 23.390625 27.484375 19.1875 25 
Q 14.984375 22.515625 14.984375 16.5 
Q 14.984375 11.71875 18.140625 8.90625 
Q 21.296875 6.109375 26.703125 6.109375 
Q 34.1875 6.109375 38.703125 11.40625 
Q 43.21875 16.703125 43.21875 25.484375 
L 43.21875 27.484375 
z
M 52.203125 31.203125 
L 52.203125 0 
L 43.21875 0 
L 43.21875 8.296875 
Q 40.140625 3.328125 35.546875 0.953125 
Q 30.953125 -1.421875 24.3125 -1.421875 
Q 15.921875 -1.421875 10.953125 3.296875 
Q 6 8.015625 6 15.921875 
Q 6 25.140625 12.171875 29.828125 
Q 18.359375 34.515625 30.609375 34.515625 
L 43.21875 34.515625 
L 43.21875 35.40625 
Q 43.21875 41.609375 39.140625 45 
Q 35.0625 48.390625 27.6875 48.390625 
Q 23 48.390625 18.546875 47.265625 
Q 14.109375 46.140625 10.015625 43.890625 
L 10.015625 52.203125 
Q 14.9375 54.109375 19.578125 55.046875 
Q 24.21875 56 28.609375 56 
Q 40.484375 56 46.34375 49.84375 
Q 52.203125 43.703125 52.203125 31.203125 
z
" id="DejaVuSans-61"/>
      <path d="M 41.109375 46.296875 
Q 39.59375 47.171875 37.8125 47.578125 
Q 36.03125 48 33.890625 48 
Q 26.265625 48 22.1875 43.046875 
Q 18.109375 38.09375 18.109375 28.8125 
L 18.109375 0 
L 9.078125 0 
L 9.078125 54.6875 
L 18.109375 54.6875 
L 18.109375 46.1875 
Q 20.953125 51.171875 25.484375 53.578125 
Q 30.03125 56 36.53125 56 
Q 37.453125 56 38.578125 55.875 
Q 39.703125 55.765625 41.0625 55.515625 
z
" id="DejaVuSans-72"/>
      <path d="M 32.171875 -5.078125 
Q 28.375 -14.84375 24.75 -17.8125 
Q 21.140625 -20.796875 15.09375 -20.796875 
L 7.90625 -20.796875 
L 7.90625 -13.28125 
L 13.1875 -13.28125 
Q 16.890625 -13.28125 18.9375 -11.515625 
Q 21 -9.765625 23.484375 -3.21875 
L 25.09375 0.875 
L 2.984375 54.6875 
L 12.5 54.6875 
L 29.59375 11.921875 
L 46.6875 54.6875 
L 56.203125 54.6875 
z
" id="DejaVuSans-79"/>
      <path d="M 31 75.875 
Q 24.46875 64.65625 21.28125 53.65625 
Q 18.109375 42.671875 18.109375 31.390625 
Q 18.109375 20.125 21.3125 9.0625 
Q 24.515625 -2 31 -13.1875 
L 23.1875 -13.1875 
Q 15.875 -1.703125 12.234375 9.375 
Q 8.59375 20.453125 8.59375 31.390625 
Q 8.59375 42.28125 12.203125 53.3125 
Q 15.828125 64.359375 23.1875 75.875 
z
" id="DejaVuSans-28"/>
      <path d="M 72.703125 32.078125 
Q 68.453125 32.078125 66.03125 28.46875 
Q 63.625 24.859375 63.625 18.40625 
Q 63.625 12.0625 66.03125 8.421875 
Q 68.453125 4.78125 72.703125 4.78125 
Q 76.859375 4.78125 79.265625 8.421875 
Q 81.6875 12.0625 81.6875 18.40625 
Q 81.6875 24.8125 79.265625 28.4375 
Q 76.859375 32.078125 72.703125 32.078125 
z
M 72.703125 38.28125 
Q 80.421875 38.28125 84.953125 32.90625 
Q 89.5 27.546875 89.5 18.40625 
Q 89.5 9.28125 84.9375 3.921875 
Q 80.375 -1.421875 72.703125 -1.421875 
Q 64.890625 -1.421875 60.34375 3.921875 
Q 55.8125 9.28125 55.8125 18.40625 
Q 55.8125 27.59375 60.375 32.9375 
Q 64.9375 38.28125 72.703125 38.28125 
z
M 22.3125 68.015625 
Q 18.109375 68.015625 15.6875 64.375 
Q 13.28125 60.75 13.28125 54.390625 
Q 13.28125 47.953125 15.671875 44.328125 
Q 18.0625 40.71875 22.3125 40.71875 
Q 26.5625 40.71875 28.96875 44.328125 
Q 31.390625 47.953125 31.390625 54.390625 
Q 31.390625 60.6875 28.953125 64.34375 
Q 26.515625 68.015625 22.3125 68.015625 
z
M 66.40625 74.21875 
L 74.21875 74.21875 
L 28.609375 -1.421875 
L 20.796875 -1.421875 
z
M 22.3125 74.21875 
Q 30.03125 74.21875 34.609375 68.875 
Q 39.203125 63.53125 39.203125 54.390625 
Q 39.203125 45.171875 34.640625 39.84375 
Q 30.078125 34.515625 22.3125 34.515625 
Q 14.546875 34.515625 10.03125 39.859375 
Q 5.515625 45.21875 5.515625 54.390625 
Q 5.515625 63.484375 10.046875 68.84375 
Q 14.59375 74.21875 22.3125 74.21875 
z
" id="DejaVuSans-25"/>
      <path d="M 8.015625 75.875 
L 15.828125 75.875 
Q 23.140625 64.359375 26.78125 53.3125 
Q 30.421875 42.28125 30.421875 31.390625 
Q 30.421875 20.453125 26.78125 9.375 
Q 23.140625 -1.703125 15.828125 -13.1875 
L 8.015625 -13.1875 
Q 14.5 -2 17.703125 9.0625 
Q 20.90625 20.125 20.90625 31.390625 
Q 20.90625 42.671875 17.703125 53.65625 
Q 14.5 64.65625 8.015625 75.875 
z
" id="DejaVuSans-29"/>
     </defs>
     <g style="fill:#262626;" transform="translate(100.427287 344.975312)scale(0.2 -0.2)">
      <use xlink:href="#DejaVuSans-44"/>
      <use x="77.001953" xlink:href="#DejaVuSans-6f"/>
      <use x="138.183594" xlink:href="#DejaVuSans-63"/>
      <use x="193.164062" xlink:href="#DejaVuSans-75"/>
      <use x="256.542969" xlink:href="#DejaVuSans-6d"/>
      <use x="353.955078" xlink:href="#DejaVuSans-65"/>
      <use x="415.478516" xlink:href="#DejaVuSans-6e"/>
      <use x="478.857422" xlink:href="#DejaVuSans-74"/>
      <use x="518.066406" xlink:href="#DejaVuSans-20"/>
      <use x="549.853516" xlink:href="#DejaVuSans-53"/>
      <use x="613.330078" xlink:href="#DejaVuSans-69"/>
      <use x="641.113281" xlink:href="#DejaVuSans-6d"/>
      <use x="738.525391" xlink:href="#DejaVuSans-69"/>
      <use x="766.308594" xlink:href="#DejaVuSans-6c"/>
      <use x="794.091797" xlink:href="#DejaVuSans-61"/>
      <use x="855.371094" xlink:href="#DejaVuSans-72"/>
      <use x="896.484375" xlink:href="#DejaVuSans-69"/>
      <use x="924.267578" xlink:href="#DejaVuSans-74"/>
      <use x="963.476562" xlink:href="#DejaVuSans-79"/>
      <use x="1022.65625" xlink:href="#DejaVuSans-20"/>
      <use x="1054.443359" xlink:href="#DejaVuSans-28"/>
      <use x="1093.457031" xlink:href="#DejaVuSans-25"/>
      <use x="1188.476562" xlink:href="#DejaVuSans-29"/>
     </g>
    </g>
   </g>
   <g id="matplotlib.axis_2">
    <g id="ytick_1">
     <g id="line2d_7">
      <defs>
       <path d="M 0 0 
L -6 0 
" id="m993581ef63" style="stroke:#262626;"/>
      </defs>
      <g>
       <use style="fill:#262626;stroke:#262626;" x="70.992344" xlink:href="#m993581ef63" y="300.196875"/>
      </g>
     </g>
     <g id="text_8">
      <!-- −40 -->
      <defs>
       <path d="M 10.59375 35.5 
L 73.1875 35.5 
L 73.1875 27.203125 
L 10.59375 27.203125 
z
" id="DejaVuSans-2212"/>
      </defs>
      <g style="fill:#262626;" transform="translate(30.55625 305.135859)scale(0.13 -0.13)">
       <use xlink:href="#DejaVuSans-2212"/>
       <use x="83.789062" xlink:href="#DejaVuSans-34"/>
       <use x="147.412109" xlink:href="#DejaVuSans-30"/>
      </g>
     </g>
    </g>
    <g id="ytick_2">
     <g id="line2d_8">
      <g>
       <use style="fill:#262626;stroke:#262626;" x="70.992344" xlink:href="#m993581ef63" y="266.221875"/>
      </g>
     </g>
     <g id="text_9">
      <!-- −30 -->
      <g style="fill:#262626;" transform="translate(30.55625 271.160859)scale(0.13 -0.13)">
       <use xlink:href="#DejaVuSans-2212"/>
       <use x="83.789062" xlink:href="#DejaVuSans-33"/>
       <use x="147.412109" xlink:href="#DejaVuSans-30"/>
      </g>
     </g>
    </g>
    <g id="ytick_3">
     <g id="line2d_9">
      <g>
       <use style="fill:#262626;stroke:#262626;" x="70.992344" xlink:href="#m993581ef63" y="232.246875"/>
      </g>
     </g>
     <g id="text_10">
      <!-- −20 -->
      <g style="fill:#262626;" transform="translate(30.55625 237.185859)scale(0.13 -0.13)">
       <use xlink:href="#DejaVuSans-2212"/>
       <use x="83.789062" xlink:href="#DejaVuSans-32"/>
       <use x="147.412109" xlink:href="#DejaVuSans-30"/>
      </g>
     </g>
    </g>
    <g id="ytick_4">
     <g id="line2d_10">
      <g>
       <use style="fill:#262626;stroke:#262626;" x="70.992344" xlink:href="#m993581ef63" y="198.271875"/>
      </g>
     </g>
     <g id="text_11">
      <!-- −10 -->
      <g style="fill:#262626;" transform="translate(30.55625 203.210859)scale(0.13 -0.13)">
       <use xlink:href="#DejaVuSans-2212"/>
       <use x="83.789062" xlink:href="#DejaVuSans-31"/>
       <use x="147.412109" xlink:href="#DejaVuSans-30"/>
      </g>
     </g>
    </g>
    <g id="ytick_5">
     <g id="line2d_11">
      <g>
       <use style="fill:#262626;stroke:#262626;" x="70.992344" xlink:href="#m993581ef63" y="164.296875"/>
      </g>
     </g>
     <g id="text_12">
      <!-- 0 -->
      <g style="fill:#262626;" transform="translate(49.721094 169.235859)scale(0.13 -0.13)">
       <use xlink:href="#DejaVuSans-30"/>
      </g>
     </g>
    </g>
    <g id="ytick_6">
     <g id="line2d_12">
      <g>
       <use style="fill:#262626;stroke:#262626;" x="70.992344" xlink:href="#m993581ef63" y="130.321875"/>
      </g>
     </g>
     <g id="text_13">
      <!-- 10 -->
      <g style="fill:#262626;" transform="translate(41.449844 135.260859)scale(0.13 -0.13)">
       <use xlink:href="#DejaVuSans-31"/>
       <use x="63.623047" xlink:href="#DejaVuSans-30"/>
      </g>
     </g>
    </g>
    <g id="ytick_7">
     <g id="line2d_13">
      <g>
       <use style="fill:#262626;stroke:#262626;" x="70.992344" xlink:href="#m993581ef63" y="96.346875"/>
      </g>
     </g>
     <g id="text_14">
      <!-- 20 -->
      <g style="fill:#262626;" transform="translate(41.449844 101.285859)scale(0.13 -0.13)">
       <use xlink:href="#DejaVuSans-32"/>
       <use x="63.623047" xlink:href="#DejaVuSans-30"/>
      </g>
     </g>
    </g>
    <g id="ytick_8">
     <g id="line2d_14">
      <g>
       <use style="fill:#262626;stroke:#262626;" x="70.992344" xlink:href="#m993581ef63" y="62.371875"/>
      </g>
     </g>
     <g id="text_15">
      <!-- 30 -->
      <g style="fill:#262626;" transform="translate(41.449844 67.310859)scale(0.13 -0.13)">
       <use xlink:href="#DejaVuSans-33"/>
       <use x="63.623047" xlink:href="#DejaVuSans-30"/>
      </g>
     </g>
    </g>
    <g id="ytick_9">
     <g id="line2d_15">
      <g>
       <use style="fill:#262626;stroke:#262626;" x="70.992344" xlink:href="#m993581ef63" y="28.396875"/>
      </g>
     </g>
     <g id="text_16">
      <!-- 40 -->
      <g style="fill:#262626;" transform="translate(41.449844 33.335859)scale(0.13 -0.13)">
       <use xlink:href="#DejaVuSans-34"/>
       <use x="63.623047" xlink:href="#DejaVuSans-30"/>
      </g>
     </g>
    </g>
    <g id="text_17">
     <!-- Density change (proportional) -->
     <defs>
      <path d="M 44.28125 53.078125 
L 44.28125 44.578125 
Q 40.484375 46.53125 36.375 47.5 
Q 32.28125 48.484375 27.875 48.484375 
Q 21.1875 48.484375 17.84375 46.4375 
Q 14.5 44.390625 14.5 40.28125 
Q 14.5 37.15625 16.890625 35.375 
Q 19.28125 33.59375 26.515625 31.984375 
L 29.59375 31.296875 
Q 39.15625 29.25 43.1875 25.515625 
Q 47.21875 21.78125 47.21875 15.09375 
Q 47.21875 7.46875 41.1875 3.015625 
Q 35.15625 -1.421875 24.609375 -1.421875 
Q 20.21875 -1.421875 15.453125 -0.5625 
Q 10.6875 0.296875 5.421875 2 
L 5.421875 11.28125 
Q 10.40625 8.6875 15.234375 7.390625 
Q 20.0625 6.109375 24.8125 6.109375 
Q 31.15625 6.109375 34.5625 8.28125 
Q 37.984375 10.453125 37.984375 14.40625 
Q 37.984375 18.0625 35.515625 20.015625 
Q 33.0625 21.96875 24.703125 23.78125 
L 21.578125 24.515625 
Q 13.234375 26.265625 9.515625 29.90625 
Q 5.8125 33.546875 5.8125 39.890625 
Q 5.8125 47.609375 11.28125 51.796875 
Q 16.75 56 26.8125 56 
Q 31.78125 56 36.171875 55.265625 
Q 40.578125 54.546875 44.28125 53.078125 
z
" id="DejaVuSans-73"/>
      <path d="M 54.890625 33.015625 
L 54.890625 0 
L 45.90625 0 
L 45.90625 32.71875 
Q 45.90625 40.484375 42.875 44.328125 
Q 39.84375 48.1875 33.796875 48.1875 
Q 26.515625 48.1875 22.3125 43.546875 
Q 18.109375 38.921875 18.109375 30.90625 
L 18.109375 0 
L 9.078125 0 
L 9.078125 75.984375 
L 18.109375 75.984375 
L 18.109375 46.1875 
Q 21.34375 51.125 25.703125 53.5625 
Q 30.078125 56 35.796875 56 
Q 45.21875 56 50.046875 50.171875 
Q 54.890625 44.34375 54.890625 33.015625 
z
" id="DejaVuSans-68"/>
      <path d="M 45.40625 27.984375 
Q 45.40625 37.75 41.375 43.109375 
Q 37.359375 48.484375 30.078125 48.484375 
Q 22.859375 48.484375 18.828125 43.109375 
Q 14.796875 37.75 14.796875 27.984375 
Q 14.796875 18.265625 18.828125 12.890625 
Q 22.859375 7.515625 30.078125 7.515625 
Q 37.359375 7.515625 41.375 12.890625 
Q 45.40625 18.265625 45.40625 27.984375 
z
M 54.390625 6.78125 
Q 54.390625 -7.171875 48.1875 -13.984375 
Q 42 -20.796875 29.203125 -20.796875 
Q 24.46875 -20.796875 20.265625 -20.09375 
Q 16.0625 -19.390625 12.109375 -17.921875 
L 12.109375 -9.1875 
Q 16.0625 -11.328125 19.921875 -12.34375 
Q 23.78125 -13.375 27.78125 -13.375 
Q 36.625 -13.375 41.015625 -8.765625 
Q 45.40625 -4.15625 45.40625 5.171875 
L 45.40625 9.625 
Q 42.625 4.78125 38.28125 2.390625 
Q 33.9375 0 27.875 0 
Q 17.828125 0 11.671875 7.65625 
Q 5.515625 15.328125 5.515625 27.984375 
Q 5.515625 40.671875 11.671875 48.328125 
Q 17.828125 56 27.875 56 
Q 33.9375 56 38.28125 53.609375 
Q 42.625 51.21875 45.40625 46.390625 
L 45.40625 54.6875 
L 54.390625 54.6875 
z
" id="DejaVuSans-67"/>
      <path d="M 18.109375 8.203125 
L 18.109375 -20.796875 
L 9.078125 -20.796875 
L 9.078125 54.6875 
L 18.109375 54.6875 
L 18.109375 46.390625 
Q 20.953125 51.265625 25.265625 53.625 
Q 29.59375 56 35.59375 56 
Q 45.5625 56 51.78125 48.09375 
Q 58.015625 40.1875 58.015625 27.296875 
Q 58.015625 14.40625 51.78125 6.484375 
Q 45.5625 -1.421875 35.59375 -1.421875 
Q 29.59375 -1.421875 25.265625 0.953125 
Q 20.953125 3.328125 18.109375 8.203125 
z
M 48.6875 27.296875 
Q 48.6875 37.203125 44.609375 42.84375 
Q 40.53125 48.484375 33.40625 48.484375 
Q 26.265625 48.484375 22.1875 42.84375 
Q 18.109375 37.203125 18.109375 27.296875 
Q 18.109375 17.390625 22.1875 11.75 
Q 26.265625 6.109375 33.40625 6.109375 
Q 40.53125 6.109375 44.609375 11.75 
Q 48.6875 17.390625 48.6875 27.296875 
z
" id="DejaVuSans-70"/>
     </defs>
     <g style="fill:#262626;" transform="translate(22.396875 314.490625)rotate(-90)scale(0.2 -0.2)">
      <use xlink:href="#DejaVuSans-44"/>
      <use x="77.001953" xlink:href="#DejaVuSans-65"/>
      <use x="138.525391" xlink:href="#DejaVuSans-6e"/>
      <use x="201.904297" xlink:href="#DejaVuSans-73"/>
      <use x="254.003906" xlink:href="#DejaVuSans-69"/>
      <use x="281.787109" xlink:href="#DejaVuSans-74"/>
      <use x="320.996094" xlink:href="#DejaVuSans-79"/>
      <use x="380.175781" xlink:href="#DejaVuSans-20"/>
      <use x="411.962891" xlink:href="#DejaVuSans-63"/>
      <use x="466.943359" xlink:href="#DejaVuSans-68"/>
      <use x="530.322266" xlink:href="#DejaVuSans-61"/>
      <use x="591.601562" xlink:href="#DejaVuSans-6e"/>
      <use x="654.980469" xlink:href="#DejaVuSans-67"/>
      <use x="718.457031" xlink:href="#DejaVuSans-65"/>
      <use x="779.980469" xlink:href="#DejaVuSans-20"/>
      <use x="811.767578" xlink:href="#DejaVuSans-28"/>
      <use x="850.78125" xlink:href="#DejaVuSans-70"/>
      <use x="914.257812" xlink:href="#DejaVuSans-72"/>
      <use x="955.339844" xlink:href="#DejaVuSans-6f"/>
      <use x="1016.521484" xlink:href="#DejaVuSans-70"/>
      <use x="1079.998047" xlink:href="#DejaVuSans-6f"/>
      <use x="1141.179688" xlink:href="#DejaVuSans-72"/>
      <use x="1182.292969" xlink:href="#DejaVuSans-74"/>
      <use x="1221.501953" xlink:href="#DejaVuSans-69"/>
      <use x="1249.285156" xlink:href="#DejaVuSans-6f"/>
      <use x="1310.466797" xlink:href="#DejaVuSans-6e"/>
      <use x="1373.845703" xlink:href="#DejaVuSans-61"/>
      <use x="1435.125" xlink:href="#DejaVuSans-6c"/>
      <use x="1462.908203" xlink:href="#DejaVuSans-29"/>
     </g>
    </g>
   </g>
   <g id="line2d_16">
    <path clip-path="url(#pcc309fe3ae)" d="M 52.730526 181.039345 
L 56.788707 172.27234 
L 60.846889 151.462117 
L 64.905071 122.971945 
L 68.963253 113.890377 
L 73.021435 130.053681 
L 77.079616 155.990739 
L 81.137798 180.878891 
L 85.19598 198.428772 
L 89.254162 206.889559 
L 93.312344 209.86886 
L 97.370526 211.565493 
L 101.428707 211.128257 
L 105.486889 206.08209 
L 109.545071 199.062066 
L 113.603253 194.446862 
L 117.661435 192.606423 
L 121.719616 192.184556 
L 125.777798 192.450406 
L 129.83598 192.605933 
L 133.894162 192.083586 
L 137.952344 190.73657 
L 142.010526 188.638824 
L 146.068707 186.441467 
L 150.126889 184.103523 
L 154.185071 180.164864 
L 158.243253 174.851121 
L 162.301435 170.889295 
L 166.359616 169.654895 
L 170.417798 169.916509 
L 174.47598 169.928922 
L 178.534162 168.500313 
L 182.592344 165.019276 
L 186.650526 159.733362 
L 190.708707 154.271703 
L 194.766889 150.908129 
L 198.825071 150.215125 
L 202.883253 150.105902 
L 206.941435 147.943718 
L 210.999616 143.293109 
L 215.057798 138.115182 
L 219.11598 134.784026 
L 223.174162 135.236633 
L 227.232344 139.935762 
L 231.290526 146.365265 
L 235.348707 151.164939 
L 239.406889 153.254171 
L 243.465071 153.127574 
L 247.523253 151.522052 
L 251.581435 149.963342 
L 255.639616 149.649243 
L 259.697798 150.00116 
L 263.75598 151.234562 
L 267.814162 156.333924 
L 271.872344 166.472847 
L 275.930526 176.98293 
L 279.988707 182.319604 
L 284.046889 182.464858 
L 288.105071 181.036423 
L 292.163253 179.726567 
L 296.221435 178.592988 
L 300.279616 178.294752 
L 304.337798 178.642354 
L 308.39598 177.894941 
L 312.454162 176.12791 
L 316.512344 176.780283 
L 320.570526 180.956484 
L 324.628707 185.028815 
L 328.686889 188.180453 
L 332.745071 192.760445 
L 336.803253 194.317551 
L 340.861435 183.361281 
L 344.919616 160.898584 
L 348.977798 142.688958 
L 353.03598 139.498618 
L 357.094162 147.092573 
L 361.152344 160.922708 
L 365.210526 177.373671 
L 369.268707 191.118898 
L 373.326889 200.969829 
L 377.385071 204.93936 
L 381.443253 197.332595 
L 385.501435 178.45303 
L 389.559616 161.399365 
L 393.617798 163.210505 
L 397.67598 183.016506 
L 401.734162 199.017638 
L 405.792344 197.27974 
L 409.850526 189.597825 
L 413.908707 200.837741 
L 417.966889 229.079765 
L 422.025071 239.869938 
L 426.083253 213.935076 
L 430.141435 163.459538 
L 434.199616 117.935761 
L 438.257798 95.35291 
L 442.31598 92.655853 
L 446.374162 101.046437 
L 450.432344 114.283471 
L 454.490526 128.574535 
" style="fill:none;stroke:#4c72b0;stroke-linecap:square;stroke-width:1.75;"/>
   </g>
   <g id="line2d_17">
    <path clip-path="url(#pcc309fe3ae)" d="M 52.730526 178.337885 
L 56.788707 155.486603 
L 60.846889 114.283808 
L 64.905071 80.597253 
L 68.963253 83.943522 
L 73.021435 109.873267 
L 77.079616 140.399884 
L 81.137798 167.582728 
L 85.19598 186.766566 
L 89.254162 196.700093 
L 93.312344 201.300516 
L 97.370526 205.393449 
L 101.428707 208.024092 
L 105.486889 205.505087 
L 109.545071 199.808933 
L 113.603253 196.399915 
L 117.661435 196.766867 
L 121.719616 198.519628 
L 125.777798 198.937786 
L 129.83598 196.252053 
L 133.894162 190.804529 
L 137.952344 185.212139 
L 142.010526 181.470097 
L 146.068707 179.14069 
L 150.126889 176.48147 
L 154.185071 172.103518 
L 158.243253 166.346228 
L 162.301435 160.934962 
L 166.359616 157.234264 
L 170.417798 155.3582 
L 174.47598 154.215808 
L 178.534162 152.638661 
L 182.592344 150.629658 
L 186.650526 148.695907 
L 190.708707 147.008034 
L 194.766889 145.708585 
L 198.825071 144.743616 
L 202.883253 143.501318 
L 206.941435 141.625737 
L 210.999616 139.836892 
L 215.057798 139.031029 
L 219.11598 139.282215 
L 223.174162 140.856286 
L 227.232344 144.450452 
L 231.290526 149.523738 
L 235.348707 154.457584 
L 239.406889 158.468327 
L 243.465071 161.559133 
L 247.523253 163.304924 
L 251.581435 163.690348 
L 255.639616 164.398111 
L 259.697798 167.425052 
L 263.75598 173.077655 
L 267.814162 180.251207 
L 271.872344 187.347884 
L 275.930526 192.707506 
L 279.988707 195.920566 
L 284.046889 198.341169 
L 288.105071 200.957789 
L 292.163253 203.091773 
L 296.221435 204.058076 
L 300.279616 204.329144 
L 304.337798 204.266109 
L 308.39598 203.355054 
L 312.454162 201.873378 
L 316.512344 201.257035 
L 320.570526 202.240746 
L 324.628707 204.82305 
L 328.686889 208.956224 
L 332.745071 213.174701 
L 336.803253 214.540228 
L 340.861435 211.906173 
L 344.919616 207.630273 
L 348.977798 204.991313 
L 353.03598 205.06078 
L 357.094162 206.190322 
L 361.152344 207.145215 
L 365.210526 209.573409 
L 369.268707 216.351008 
L 373.326889 227.516936 
L 377.385071 236.737081 
L 381.443253 234.904832 
L 385.501435 218.776307 
L 389.559616 197.376381 
L 393.617798 188.063902 
L 397.67598 193.068458 
L 401.734162 196.479302 
L 405.792344 192.130843 
L 409.850526 191.689402 
L 413.908707 207.637219 
L 417.966889 235.027679 
L 422.025071 254.185981 
L 426.083253 248.728822 
L 430.141435 216.174695 
L 434.199616 164.926026 
L 438.257798 103.397763 
L 442.31598 38.004361 
L 444.964612 -1 
" style="fill:none;stroke:#55a868;stroke-linecap:square;stroke-width:1.75;"/>
   </g>
   <g id="line2d_18">
    <path clip-path="url(#pcc309fe3ae)" d="M 52.730526 135.472411 
L 56.788707 81.756111 
L 60.846889 6.872446 
L 61.772054 -1 
M 69.299817 -1 
L 73.021435 38.863917 
L 77.079616 82.844497 
L 81.137798 121.656464 
L 85.19598 151.875876 
L 89.254162 171.630945 
L 93.312344 183.001087 
L 97.370526 190.489391 
L 101.428707 195.950316 
L 105.486889 198.008955 
L 109.545071 197.220665 
L 113.603253 196.070683 
L 117.661435 195.039241 
L 121.719616 193.292511 
L 125.777798 190.945239 
L 129.83598 188.357138 
L 133.894162 185.077178 
L 137.952344 180.767525 
L 142.010526 175.732379 
L 146.068707 170.480877 
L 150.126889 165.382331 
L 154.185071 160.323553 
L 158.243253 155.292916 
L 162.301435 151.058738 
L 166.359616 148.339551 
L 170.417798 146.906103 
L 174.47598 145.846921 
L 178.534162 144.438443 
L 182.592344 142.648593 
L 186.650526 140.780809 
L 190.708707 138.894867 
L 194.766889 136.893206 
L 198.825071 135.130401 
L 202.883253 134.048603 
L 206.941435 133.235871 
L 210.999616 132.349703 
L 215.057798 132.350592 
L 219.11598 134.51378 
L 223.174162 139.056108 
L 227.232344 145.10866 
L 231.290526 151.571039 
L 235.348707 157.991698 
L 239.406889 164.361011 
L 243.465071 169.919678 
L 247.523253 173.678359 
L 251.581435 176.441577 
L 255.639616 180.312492 
L 259.697798 186.241446 
L 263.75598 193.404123 
L 267.814162 200.4118 
L 271.872344 206.193052 
L 275.930526 210.435938 
L 279.988707 213.876095 
L 284.046889 217.226788 
L 288.105071 219.853029 
L 292.163253 221.156606 
L 296.221435 222.196066 
L 300.279616 224.337082 
L 304.337798 227.390396 
L 308.39598 230.289343 
L 312.454162 233.424804 
L 316.512344 238.097621 
L 320.570526 243.495212 
L 324.628707 247.858956 
L 328.686889 252.038662 
L 332.745071 257.804965 
L 336.803253 263.936315 
L 340.861435 267.550149 
L 344.919616 267.894961 
L 348.977798 266.831857 
L 353.03598 266.173762 
L 357.094162 266.336829 
L 361.152344 268.560343 
L 365.210526 273.775919 
L 369.268707 280.095101 
L 373.326889 285.852137 
L 377.385071 289.818036 
L 381.443253 289.016098 
L 385.501435 281.918332 
L 389.559616 272.29137 
L 393.617798 267.307569 
L 397.67598 269.466664 
L 401.734162 272.925944 
L 405.792344 272.886962 
L 409.850526 274.020803 
L 413.908707 285.128181 
L 417.966889 305.633404 
L 422.025071 322.566639 
L 426.083253 320.823885 
L 430.141435 292.160387 
L 434.199616 243.224342 
L 438.257798 198.206435 
L 442.31598 176.395348 
L 446.374162 175.753498 
L 450.432344 185.773092 
L 454.490526 199.005611 
" style="fill:none;stroke:#c44e52;stroke-linecap:square;stroke-width:1.75;"/>
   </g>
   <g id="line2d_19">
    <path clip-path="url(#pcc309fe3ae)" d="M 70.992344 164.296875 
L 74.066724 164.296875 
L 77.141104 164.296875 
L 80.215484 164.296875 
L 83.289864 164.296875 
L 86.364245 164.296875 
L 89.438625 164.296875 
L 92.513005 164.296875 
L 95.587385 164.296875 
L 98.661765 164.296875 
L 101.736145 164.296875 
L 104.810526 164.296875 
L 107.884906 164.296875 
L 110.959286 164.296875 
L 114.033666 164.296875 
L 117.108046 164.296875 
L 120.182426 164.296875 
L 123.256807 164.296875 
L 126.331187 164.296875 
L 129.405567 164.296875 
L 132.479947 164.296875 
L 135.554327 164.296875 
L 138.628707 164.296875 
L 141.703088 164.296875 
L 144.777468 164.296875 
L 147.851848 164.296875 
L 150.926228 164.296875 
L 154.000608 164.296875 
L 157.074988 164.296875 
L 160.149369 164.296875 
L 163.223749 164.296875 
L 166.298129 164.296875 
L 169.372509 164.296875 
L 172.446889 164.296875 
L 175.521269 164.296875 
L 178.59565 164.296875 
L 181.67003 164.296875 
L 184.74441 164.296875 
L 187.81879 164.296875 
L 190.89317 164.296875 
L 193.96755 164.296875 
L 197.041931 164.296875 
L 200.116311 164.296875 
L 203.190691 164.296875 
L 206.265071 164.296875 
L 209.339451 164.296875 
L 212.413831 164.296875 
L 215.488212 164.296875 
L 218.562592 164.296875 
L 221.636972 164.296875 
L 224.711352 164.296875 
L 227.785732 164.296875 
L 230.860112 164.296875 
L 233.934493 164.296875 
L 237.008873 164.296875 
L 240.083253 164.296875 
L 243.157633 164.296875 
L 246.232013 164.296875 
L 249.306393 164.296875 
L 252.380774 164.296875 
L 255.455154 164.296875 
L 258.529534 164.296875 
L 261.603914 164.296875 
L 264.678294 164.296875 
L 267.752674 164.296875 
L 270.827054 164.296875 
L 273.901435 164.296875 
L 276.975815 164.296875 
L 280.050195 164.296875 
L 283.124575 164.296875 
L 286.198955 164.296875 
L 289.273335 164.296875 
L 292.347716 164.296875 
L 295.422096 164.296875 
L 298.496476 164.296875 
L 301.570856 164.296875 
L 304.645236 164.296875 
L 307.719616 164.296875 
L 310.793997 164.296875 
L 313.868377 164.296875 
L 316.942757 164.296875 
L 320.017137 164.296875 
L 323.091517 164.296875 
L 326.165897 164.296875 
L 329.240278 164.296875 
L 332.314658 164.296875 
L 335.389038 164.296875 
L 338.463418 164.296875 
L 341.537798 164.296875 
L 344.612178 164.296875 
L 347.686559 164.296875 
L 350.760939 164.296875 
L 353.835319 164.296875 
L 356.909699 164.296875 
L 359.984079 164.296875 
L 363.058459 164.296875 
L 366.13284 164.296875 
L 369.20722 164.296875 
L 372.2816 164.296875 
L 375.35598 164.296875 
" style="fill:none;stroke:#000000;stroke-dasharray:1.85,0.8;stroke-dashoffset:0;stroke-width:0.5;"/>
   </g>
   <g id="patch_3">
    <path d="M 70.992344 300.196875 
L 70.992344 28.396875 
" style="fill:none;stroke:#000000;stroke-linecap:square;stroke-linejoin:miter;stroke-width:0.8;"/>
   </g>
   <g id="patch_4">
    <path d="M 70.992344 300.196875 
L 375.35598 300.196875 
" style="fill:none;stroke:#000000;stroke-linecap:square;stroke-linejoin:miter;stroke-width:0.8;"/>
   </g>
   <g id="text_18">
    <!-- Treatment -->
    <defs>
     <path d="M -0.296875 72.90625 
L 61.375 72.90625 
L 61.375 64.59375 
L 35.5 64.59375 
L 35.5 0 
L 25.59375 0 
L 25.59375 64.59375 
L -0.296875 64.59375 
z
" id="DejaVuSans-54"/>
    </defs>
    <g style="fill:#262626;" transform="translate(170.627287 22.396875)scale(0.2 -0.2)">
     <use xlink:href="#DejaVuSans-54"/>
     <use x="60.865234" xlink:href="#DejaVuSans-72"/>
     <use x="101.947266" xlink:href="#DejaVuSans-65"/>
     <use x="163.470703" xlink:href="#DejaVuSans-61"/>
     <use x="224.75" xlink:href="#DejaVuSans-74"/>
     <use x="263.958984" xlink:href="#DejaVuSans-6d"/>
     <use x="361.371094" xlink:href="#DejaVuSans-65"/>
     <use x="422.894531" xlink:href="#DejaVuSans-6e"/>
     <use x="486.273438" xlink:href="#DejaVuSans-74"/>
    </g>
   </g>
   <g id="legend_1">
    <g id="line2d_20">
     <path d="M 209.615355 54.59375 
L 249.615355 54.59375 
" style="fill:none;stroke:#4c72b0;stroke-linecap:square;stroke-width:1.75;"/>
    </g>
    <g id="line2d_21"/>
    <g id="text_19">
     <!-- 90 days -->
     <defs>
      <path d="M 10.984375 1.515625 
L 10.984375 10.5 
Q 14.703125 8.734375 18.5 7.8125 
Q 22.3125 6.890625 25.984375 6.890625 
Q 35.75 6.890625 40.890625 13.453125 
Q 46.046875 20.015625 46.78125 33.40625 
Q 43.953125 29.203125 39.59375 26.953125 
Q 35.25 24.703125 29.984375 24.703125 
Q 19.046875 24.703125 12.671875 31.3125 
Q 6.296875 37.9375 6.296875 49.421875 
Q 6.296875 60.640625 12.9375 67.421875 
Q 19.578125 74.21875 30.609375 74.21875 
Q 43.265625 74.21875 49.921875 64.515625 
Q 56.59375 54.828125 56.59375 36.375 
Q 56.59375 19.140625 48.40625 8.859375 
Q 40.234375 -1.421875 26.421875 -1.421875 
Q 22.703125 -1.421875 18.890625 -0.6875 
Q 15.09375 0.046875 10.984375 1.515625 
z
M 30.609375 32.421875 
Q 37.25 32.421875 41.125 36.953125 
Q 45.015625 41.5 45.015625 49.421875 
Q 45.015625 57.28125 41.125 61.84375 
Q 37.25 66.40625 30.609375 66.40625 
Q 23.96875 66.40625 20.09375 61.84375 
Q 16.21875 57.28125 16.21875 49.421875 
Q 16.21875 41.5 20.09375 36.953125 
Q 23.96875 32.421875 30.609375 32.421875 
z
" id="DejaVuSans-39"/>
      <path d="M 45.40625 46.390625 
L 45.40625 75.984375 
L 54.390625 75.984375 
L 54.390625 0 
L 45.40625 0 
L 45.40625 8.203125 
Q 42.578125 3.328125 38.25 0.953125 
Q 33.9375 -1.421875 27.875 -1.421875 
Q 17.96875 -1.421875 11.734375 6.484375 
Q 5.515625 14.40625 5.515625 27.296875 
Q 5.515625 40.1875 11.734375 48.09375 
Q 17.96875 56 27.875 56 
Q 33.9375 56 38.25 53.625 
Q 42.578125 51.265625 45.40625 46.390625 
z
M 14.796875 27.296875 
Q 14.796875 17.390625 18.875 11.75 
Q 22.953125 6.109375 30.078125 6.109375 
Q 37.203125 6.109375 41.296875 11.75 
Q 45.40625 17.390625 45.40625 27.296875 
Q 45.40625 37.203125 41.296875 42.84375 
Q 37.203125 48.484375 30.078125 48.484375 
Q 22.953125 48.484375 18.875 42.84375 
Q 14.796875 37.203125 14.796875 27.296875 
z
" id="DejaVuSans-64"/>
     </defs>
     <g style="fill:#262626;" transform="translate(265.615355 61.59375)scale(0.2 -0.2)">
      <use xlink:href="#DejaVuSans-39"/>
      <use x="63.623047" xlink:href="#DejaVuSans-30"/>
      <use x="127.246094" xlink:href="#DejaVuSans-20"/>
      <use x="159.033203" xlink:href="#DejaVuSans-64"/>
      <use x="222.509766" xlink:href="#DejaVuSans-61"/>
      <use x="283.789062" xlink:href="#DejaVuSans-79"/>
      <use x="342.96875" xlink:href="#DejaVuSans-73"/>
     </g>
    </g>
    <g id="line2d_22">
     <path d="M 209.615355 83.95 
L 249.615355 83.95 
" style="fill:none;stroke:#55a868;stroke-linecap:square;stroke-width:1.75;"/>
    </g>
    <g id="line2d_23"/>
    <g id="text_20">
     <!-- 180 days -->
     <defs>
      <path d="M 31.78125 34.625 
Q 24.75 34.625 20.71875 30.859375 
Q 16.703125 27.09375 16.703125 20.515625 
Q 16.703125 13.921875 20.71875 10.15625 
Q 24.75 6.390625 31.78125 6.390625 
Q 38.8125 6.390625 42.859375 10.171875 
Q 46.921875 13.96875 46.921875 20.515625 
Q 46.921875 27.09375 42.890625 30.859375 
Q 38.875 34.625 31.78125 34.625 
z
M 21.921875 38.8125 
Q 15.578125 40.375 12.03125 44.71875 
Q 8.5 49.078125 8.5 55.328125 
Q 8.5 64.0625 14.71875 69.140625 
Q 20.953125 74.21875 31.78125 74.21875 
Q 42.671875 74.21875 48.875 69.140625 
Q 55.078125 64.0625 55.078125 55.328125 
Q 55.078125 49.078125 51.53125 44.71875 
Q 48 40.375 41.703125 38.8125 
Q 48.828125 37.15625 52.796875 32.3125 
Q 56.78125 27.484375 56.78125 20.515625 
Q 56.78125 9.90625 50.3125 4.234375 
Q 43.84375 -1.421875 31.78125 -1.421875 
Q 19.734375 -1.421875 13.25 4.234375 
Q 6.78125 9.90625 6.78125 20.515625 
Q 6.78125 27.484375 10.78125 32.3125 
Q 14.796875 37.15625 21.921875 38.8125 
z
M 18.3125 54.390625 
Q 18.3125 48.734375 21.84375 45.5625 
Q 25.390625 42.390625 31.78125 42.390625 
Q 38.140625 42.390625 41.71875 45.5625 
Q 45.3125 48.734375 45.3125 54.390625 
Q 45.3125 60.0625 41.71875 63.234375 
Q 38.140625 66.40625 31.78125 66.40625 
Q 25.390625 66.40625 21.84375 63.234375 
Q 18.3125 60.0625 18.3125 54.390625 
z
" id="DejaVuSans-38"/>
     </defs>
     <g style="fill:#262626;" transform="translate(265.615355 90.95)scale(0.2 -0.2)">
      <use xlink:href="#DejaVuSans-31"/>
      <use x="63.623047" xlink:href="#DejaVuSans-38"/>
      <use x="127.246094" xlink:href="#DejaVuSans-30"/>
      <use x="190.869141" xlink:href="#DejaVuSans-20"/>
      <use x="222.65625" xlink:href="#DejaVuSans-64"/>
      <use x="286.132812" xlink:href="#DejaVuSans-61"/>
      <use x="347.412109" xlink:href="#DejaVuSans-79"/>
      <use x="406.591797" xlink:href="#DejaVuSans-73"/>
     </g>
    </g>
    <g id="line2d_24">
     <path d="M 209.615355 113.30625 
L 249.615355 113.30625 
" style="fill:none;stroke:#c44e52;stroke-linecap:square;stroke-width:1.75;"/>
    </g>
    <g id="line2d_25"/>
    <g id="text_21">
     <!-- 360 days -->
     <defs>
      <path d="M 33.015625 40.375 
Q 26.375 40.375 22.484375 35.828125 
Q 18.609375 31.296875 18.609375 23.390625 
Q 18.609375 15.53125 22.484375 10.953125 
Q 26.375 6.390625 33.015625 6.390625 
Q 39.65625 6.390625 43.53125 10.953125 
Q 47.40625 15.53125 47.40625 23.390625 
Q 47.40625 31.296875 43.53125 35.828125 
Q 39.65625 40.375 33.015625 40.375 
z
M 52.59375 71.296875 
L 52.59375 62.3125 
Q 48.875 64.0625 45.09375 64.984375 
Q 41.3125 65.921875 37.59375 65.921875 
Q 27.828125 65.921875 22.671875 59.328125 
Q 17.53125 52.734375 16.796875 39.40625 
Q 19.671875 43.65625 24.015625 45.921875 
Q 28.375 48.1875 33.59375 48.1875 
Q 44.578125 48.1875 50.953125 41.515625 
Q 57.328125 34.859375 57.328125 23.390625 
Q 57.328125 12.15625 50.6875 5.359375 
Q 44.046875 -1.421875 33.015625 -1.421875 
Q 20.359375 -1.421875 13.671875 8.265625 
Q 6.984375 17.96875 6.984375 36.375 
Q 6.984375 53.65625 15.1875 63.9375 
Q 23.390625 74.21875 37.203125 74.21875 
Q 40.921875 74.21875 44.703125 73.484375 
Q 48.484375 72.75 52.59375 71.296875 
z
" id="DejaVuSans-36"/>
     </defs>
     <g style="fill:#262626;" transform="translate(265.615355 120.30625)scale(0.2 -0.2)">
      <use xlink:href="#DejaVuSans-33"/>
      <use x="63.623047" xlink:href="#DejaVuSans-36"/>
      <use x="127.246094" xlink:href="#DejaVuSans-30"/>
      <use x="190.869141" xlink:href="#DejaVuSans-20"/>
      <use x="222.65625" xlink:href="#DejaVuSans-64"/>
      <use x="286.132812" xlink:href="#DejaVuSans-61"/>
      <use x="347.412109" xlink:href="#DejaVuSans-79"/>
      <use x="406.591797" xlink:href="#DejaVuSans-73"/>
     </g>
    </g>
   </g>
  </g>
  <g id="axes_2">
   <g id="patch_5">
    <path d="M 436.228707 300.196875 
L 740.592344 300.196875 
L 740.592344 28.396875 
L 436.228707 28.396875 
z
" style="fill:#ffffff;"/>
   </g>
   <g id="matplotlib.axis_3">
    <g id="xtick_7">
     <g id="line2d_26">
      <g>
       <use style="fill:#262626;stroke:#262626;" x="436.228707" xlink:href="#m321c8c0c28" y="300.196875"/>
      </g>
     </g>
     <g id="text_22">
      <!-- 0 -->
      <g style="fill:#262626;" transform="translate(432.093082 323.074844)scale(0.13 -0.13)">
       <use xlink:href="#DejaVuSans-30"/>
      </g>
     </g>
    </g>
    <g id="xtick_8">
     <g id="line2d_27">
      <g>
       <use style="fill:#262626;stroke:#262626;" x="497.101435" xlink:href="#m321c8c0c28" y="300.196875"/>
      </g>
     </g>
     <g id="text_23">
      <!-- 10 -->
      <g style="fill:#262626;" transform="translate(488.830185 323.074844)scale(0.13 -0.13)">
       <use xlink:href="#DejaVuSans-31"/>
       <use x="63.623047" xlink:href="#DejaVuSans-30"/>
      </g>
     </g>
    </g>
    <g id="xtick_9">
     <g id="line2d_28">
      <g>
       <use style="fill:#262626;stroke:#262626;" x="557.974162" xlink:href="#m321c8c0c28" y="300.196875"/>
      </g>
     </g>
     <g id="text_24">
      <!-- 20 -->
      <g style="fill:#262626;" transform="translate(549.702912 323.074844)scale(0.13 -0.13)">
       <use xlink:href="#DejaVuSans-32"/>
       <use x="63.623047" xlink:href="#DejaVuSans-30"/>
      </g>
     </g>
    </g>
    <g id="xtick_10">
     <g id="line2d_29">
      <g>
       <use style="fill:#262626;stroke:#262626;" x="618.846889" xlink:href="#m321c8c0c28" y="300.196875"/>
      </g>
     </g>
     <g id="text_25">
      <!-- 30 -->
      <g style="fill:#262626;" transform="translate(610.575639 323.074844)scale(0.13 -0.13)">
       <use xlink:href="#DejaVuSans-33"/>
       <use x="63.623047" xlink:href="#DejaVuSans-30"/>
      </g>
     </g>
    </g>
    <g id="xtick_11">
     <g id="line2d_30">
      <g>
       <use style="fill:#262626;stroke:#262626;" x="679.719616" xlink:href="#m321c8c0c28" y="300.196875"/>
      </g>
     </g>
     <g id="text_26">
      <!-- 40 -->
      <g style="fill:#262626;" transform="translate(671.448366 323.074844)scale(0.13 -0.13)">
       <use xlink:href="#DejaVuSans-34"/>
       <use x="63.623047" xlink:href="#DejaVuSans-30"/>
      </g>
     </g>
    </g>
    <g id="xtick_12">
     <g id="line2d_31">
      <g>
       <use style="fill:#262626;stroke:#262626;" x="740.592344" xlink:href="#m321c8c0c28" y="300.196875"/>
      </g>
     </g>
     <g id="text_27">
      <!-- 50 -->
      <g style="fill:#262626;" transform="translate(732.321094 323.074844)scale(0.13 -0.13)">
       <use xlink:href="#DejaVuSans-35"/>
       <use x="63.623047" xlink:href="#DejaVuSans-30"/>
      </g>
     </g>
    </g>
    <g id="text_28">
     <!-- Document Similarity (%) -->
     <g style="fill:#262626;" transform="translate(465.663651 344.975312)scale(0.2 -0.2)">
      <use xlink:href="#DejaVuSans-44"/>
      <use x="77.001953" xlink:href="#DejaVuSans-6f"/>
      <use x="138.183594" xlink:href="#DejaVuSans-63"/>
      <use x="193.164062" xlink:href="#DejaVuSans-75"/>
      <use x="256.542969" xlink:href="#DejaVuSans-6d"/>
      <use x="353.955078" xlink:href="#DejaVuSans-65"/>
      <use x="415.478516" xlink:href="#DejaVuSans-6e"/>
      <use x="478.857422" xlink:href="#DejaVuSans-74"/>
      <use x="518.066406" xlink:href="#DejaVuSans-20"/>
      <use x="549.853516" xlink:href="#DejaVuSans-53"/>
      <use x="613.330078" xlink:href="#DejaVuSans-69"/>
      <use x="641.113281" xlink:href="#DejaVuSans-6d"/>
      <use x="738.525391" xlink:href="#DejaVuSans-69"/>
      <use x="766.308594" xlink:href="#DejaVuSans-6c"/>
      <use x="794.091797" xlink:href="#DejaVuSans-61"/>
      <use x="855.371094" xlink:href="#DejaVuSans-72"/>
      <use x="896.484375" xlink:href="#DejaVuSans-69"/>
      <use x="924.267578" xlink:href="#DejaVuSans-74"/>
      <use x="963.476562" xlink:href="#DejaVuSans-79"/>
      <use x="1022.65625" xlink:href="#DejaVuSans-20"/>
      <use x="1054.443359" xlink:href="#DejaVuSans-28"/>
      <use x="1093.457031" xlink:href="#DejaVuSans-25"/>
      <use x="1188.476562" xlink:href="#DejaVuSans-29"/>
     </g>
    </g>
   </g>
   <g id="matplotlib.axis_4">
    <g id="ytick_10">
     <g id="line2d_32">
      <g>
       <use style="fill:#262626;stroke:#262626;" x="436.228707" xlink:href="#m993581ef63" y="300.196875"/>
      </g>
     </g>
     <g id="text_29">
      <!-- −40 -->
      <g style="fill:#262626;" transform="translate(395.792614 305.135859)scale(0.13 -0.13)">
       <use xlink:href="#DejaVuSans-2212"/>
       <use x="83.789062" xlink:href="#DejaVuSans-34"/>
       <use x="147.412109" xlink:href="#DejaVuSans-30"/>
      </g>
     </g>
    </g>
    <g id="ytick_11">
     <g id="line2d_33">
      <g>
       <use style="fill:#262626;stroke:#262626;" x="436.228707" xlink:href="#m993581ef63" y="266.221875"/>
      </g>
     </g>
     <g id="text_30">
      <!-- −30 -->
      <g style="fill:#262626;" transform="translate(395.792614 271.160859)scale(0.13 -0.13)">
       <use xlink:href="#DejaVuSans-2212"/>
       <use x="83.789062" xlink:href="#DejaVuSans-33"/>
       <use x="147.412109" xlink:href="#DejaVuSans-30"/>
      </g>
     </g>
    </g>
    <g id="ytick_12">
     <g id="line2d_34">
      <g>
       <use style="fill:#262626;stroke:#262626;" x="436.228707" xlink:href="#m993581ef63" y="232.246875"/>
      </g>
     </g>
     <g id="text_31">
      <!-- −20 -->
      <g style="fill:#262626;" transform="translate(395.792614 237.185859)scale(0.13 -0.13)">
       <use xlink:href="#DejaVuSans-2212"/>
       <use x="83.789062" xlink:href="#DejaVuSans-32"/>
       <use x="147.412109" xlink:href="#DejaVuSans-30"/>
      </g>
     </g>
    </g>
    <g id="ytick_13">
     <g id="line2d_35">
      <g>
       <use style="fill:#262626;stroke:#262626;" x="436.228707" xlink:href="#m993581ef63" y="198.271875"/>
      </g>
     </g>
     <g id="text_32">
      <!-- −10 -->
      <g style="fill:#262626;" transform="translate(395.792614 203.210859)scale(0.13 -0.13)">
       <use xlink:href="#DejaVuSans-2212"/>
       <use x="83.789062" xlink:href="#DejaVuSans-31"/>
       <use x="147.412109" xlink:href="#DejaVuSans-30"/>
      </g>
     </g>
    </g>
    <g id="ytick_14">
     <g id="line2d_36">
      <g>
       <use style="fill:#262626;stroke:#262626;" x="436.228707" xlink:href="#m993581ef63" y="164.296875"/>
      </g>
     </g>
     <g id="text_33">
      <!-- 0 -->
      <g style="fill:#262626;" transform="translate(414.957457 169.235859)scale(0.13 -0.13)">
       <use xlink:href="#DejaVuSans-30"/>
      </g>
     </g>
    </g>
    <g id="ytick_15">
     <g id="line2d_37">
      <g>
       <use style="fill:#262626;stroke:#262626;" x="436.228707" xlink:href="#m993581ef63" y="130.321875"/>
      </g>
     </g>
     <g id="text_34">
      <!-- 10 -->
      <g style="fill:#262626;" transform="translate(406.686207 135.260859)scale(0.13 -0.13)">
       <use xlink:href="#DejaVuSans-31"/>
       <use x="63.623047" xlink:href="#DejaVuSans-30"/>
      </g>
     </g>
    </g>
    <g id="ytick_16">
     <g id="line2d_38">
      <g>
       <use style="fill:#262626;stroke:#262626;" x="436.228707" xlink:href="#m993581ef63" y="96.346875"/>
      </g>
     </g>
     <g id="text_35">
      <!-- 20 -->
      <g style="fill:#262626;" transform="translate(406.686207 101.285859)scale(0.13 -0.13)">
       <use xlink:href="#DejaVuSans-32"/>
       <use x="63.623047" xlink:href="#DejaVuSans-30"/>
      </g>
     </g>
    </g>
    <g id="ytick_17">
     <g id="line2d_39">
      <g>
       <use style="fill:#262626;stroke:#262626;" x="436.228707" xlink:href="#m993581ef63" y="62.371875"/>
      </g>
     </g>
     <g id="text_36">
      <!-- 30 -->
      <g style="fill:#262626;" transform="translate(406.686207 67.310859)scale(0.13 -0.13)">
       <use xlink:href="#DejaVuSans-33"/>
       <use x="63.623047" xlink:href="#DejaVuSans-30"/>
      </g>
     </g>
    </g>
    <g id="ytick_18">
     <g id="line2d_40">
      <g>
       <use style="fill:#262626;stroke:#262626;" x="436.228707" xlink:href="#m993581ef63" y="28.396875"/>
      </g>
     </g>
     <g id="text_37">
      <!-- 40 -->
      <g style="fill:#262626;" transform="translate(406.686207 33.335859)scale(0.13 -0.13)">
       <use xlink:href="#DejaVuSans-34"/>
       <use x="63.623047" xlink:href="#DejaVuSans-30"/>
      </g>
     </g>
    </g>
   </g>
   <g id="line2d_41">
    <path clip-path="url(#pcf5c69d289)" d="M 417.966889 237.53469 
L 422.025071 207.389362 
L 426.083253 169.934648 
L 430.141435 148.156658 
L 434.199616 159.832069 
L 438.257798 189.644064 
L 442.31598 216.09361 
L 446.374162 231.240336 
L 450.432344 235.500806 
L 454.490526 232.778419 
L 458.548707 228.528113 
L 462.606889 225.99984 
L 466.665071 224.005385 
L 470.723253 220.289436 
L 474.781435 214.567037 
L 478.839616 208.287116 
L 482.897798 203.526557 
L 486.95598 200.542136 
L 491.014162 196.860909 
L 495.072344 190.519023 
L 499.130526 182.799607 
L 503.188707 176.602138 
L 507.246889 173.34114 
L 511.305071 172.505371 
L 515.363253 172.20529 
L 519.421435 170.309742 
L 523.479616 166.350823 
L 527.537798 161.610177 
L 531.59598 157.767608 
L 535.654162 155.721021 
L 539.712344 154.80446 
L 543.770526 153.83096 
L 547.828707 152.582335 
L 551.886889 150.719305 
L 555.945071 147.186248 
L 560.003253 142.140476 
L 564.061435 136.869568 
L 568.119616 131.475311 
L 572.177798 125.788189 
L 576.23598 121.703377 
L 580.294162 120.895611 
L 584.352344 121.505387 
L 588.410526 120.420592 
L 592.468707 117.205453 
L 596.526889 114.841359 
L 600.585071 117.034855 
L 604.643253 124.373238 
L 608.701435 133.564483 
L 612.759616 141.250259 
L 616.817798 148.654274 
L 620.87598 159.069974 
L 624.934162 171.916525 
L 628.992344 183.767117 
L 633.050526 193.008506 
L 637.108707 200.955109 
L 641.166889 209.134287 
L 645.225071 216.859783 
L 649.283253 222.750192 
L 653.341435 227.612566 
L 657.399616 233.837958 
L 661.457798 242.433921 
L 665.51598 251.77776 
L 669.574162 258.698424 
L 673.632344 260.818146 
L 677.690526 259.648543 
L 681.748707 259.773715 
L 685.806889 262.197866 
L 689.865071 264.286527 
L 693.923253 266.731262 
L 697.981435 271.124223 
L 702.039616 274.42064 
L 706.097798 275.523621 
L 710.15598 278.917101 
L 714.214162 285.191222 
L 718.272344 288.668469 
L 722.330526 286.844245 
L 726.388707 282.213171 
L 730.446889 276.200535 
L 734.505071 268.465589 
L 738.563253 260.288032 
L 742.621435 255.235813 
L 746.679616 260.110659 
L 750.737798 279.45157 
L 754.79598 304.173761 
L 757.063594 313.55696 
" style="fill:none;stroke:#4c72b0;stroke-linecap:square;stroke-width:1.75;"/>
   </g>
   <g id="line2d_42">
    <path clip-path="url(#pcf5c69d289)" d="M 417.966889 161.356437 
L 422.025071 102.70825 
L 426.083253 38.193544 
L 430.141435 15.478213 
L 434.199616 49.160109 
L 438.257798 101.272257 
L 442.31598 144.062579 
L 446.374162 172.327544 
L 450.432344 189.563576 
L 454.490526 200.674622 
L 458.548707 208.982807 
L 462.606889 215.539429 
L 466.665071 220.10704 
L 470.723253 221.669485 
L 474.781435 219.169954 
L 478.839616 213.368435 
L 482.897798 206.950055 
L 486.95598 201.548683 
L 491.014162 196.460179 
L 495.072344 191.247775 
L 499.130526 186.629045 
L 503.188707 182.617523 
L 507.246889 178.545497 
L 511.305071 174.356089 
L 515.363253 170.29319 
L 519.421435 166.386883 
L 523.479616 162.67328 
L 527.537798 158.926011 
L 531.59598 154.99451 
L 535.654162 151.428707 
L 539.712344 148.630664 
L 543.770526 146.634963 
L 547.828707 145.566309 
L 551.886889 144.739939 
L 555.945071 142.566126 
L 560.003253 138.509928 
L 564.061435 133.753483 
L 568.119616 129.428976 
L 572.177798 125.85647 
L 576.23598 123.229962 
L 580.294162 121.370671 
L 584.352344 119.499574 
L 588.410526 117.077977 
L 592.468707 114.721183 
L 596.526889 114.525031 
L 600.585071 118.489479 
L 604.643253 126.321589 
L 608.701435 135.645406 
L 612.759616 144.559431 
L 616.817798 153.663116 
L 620.87598 164.717359 
L 624.934162 178.124791 
L 628.992344 191.976411 
L 633.050526 203.584201 
L 637.108707 212.609133 
L 641.166889 220.760086 
L 645.225071 228.665863 
L 649.283253 235.794397 
L 653.341435 241.927328 
L 657.399616 246.928883 
L 661.457798 251.213474 
L 665.51598 256.272011 
L 669.574162 262.378117 
L 673.632344 266.997249 
L 677.690526 268.272313 
L 681.748707 268.308514 
L 685.806889 269.124952 
L 689.865071 269.211325 
L 693.923253 268.030456 
L 697.981435 267.233795 
L 702.039616 266.740269 
L 706.097798 266.626167 
L 710.15598 268.944572 
L 714.214162 272.976314 
L 718.272344 275.257634 
L 722.330526 274.942703 
L 726.388707 273.591881 
L 730.446889 271.898771 
L 734.505071 269.624869 
L 738.563253 267.388934 
L 742.621435 267.632682 
L 746.679616 272.262666 
L 750.737798 280.564665 
L 754.79598 294.010832 
L 757.063594 305.045767 
" style="fill:none;stroke:#55a868;stroke-linecap:square;stroke-width:1.75;"/>
   </g>
   <g id="line2d_43">
    <path clip-path="url(#pcf5c69d289)" d="M 417.966889 74.011858 
L 421.480549 -1 
M 438.252826 -1 
L 438.257798 -0.924858 
L 442.31598 54.17948 
L 446.374162 98.73251 
L 450.432344 133.341438 
L 454.490526 158.983898 
L 458.548707 177.417663 
L 462.606889 190.748646 
L 466.665071 199.904999 
L 470.723253 204.267392 
L 474.781435 203.226393 
L 478.839616 198.553145 
L 482.897798 193.699533 
L 486.95598 189.619211 
L 491.014162 185.288707 
L 495.072344 181.56635 
L 499.130526 179.121872 
L 503.188707 175.967967 
L 507.246889 170.835499 
L 511.305071 165.169113 
L 515.363253 160.55188 
L 519.421435 157.098285 
L 523.479616 154.444058 
L 527.537798 152.050877 
L 531.59598 149.379097 
L 535.654162 146.759449 
L 539.712344 144.883392 
L 543.770526 143.908335 
L 547.828707 143.389817 
L 551.886889 142.293208 
L 555.945071 139.456414 
L 560.003253 134.739907 
L 564.061435 129.45151 
L 568.119616 124.83746 
L 572.177798 120.774028 
L 576.23598 116.969373 
L 580.294162 114.265785 
L 584.352344 113.887836 
L 588.410526 115.918737 
L 592.468707 119.123988 
L 596.526889 122.644315 
L 600.585071 127.138046 
L 604.643253 134.15759 
L 608.701435 144.307883 
L 612.759616 156.083173 
L 616.817798 167.621279 
L 620.87598 178.790623 
L 624.934162 190.460869 
L 628.992344 202.346482 
L 633.050526 212.995462 
L 637.108707 222.116537 
L 641.166889 230.81113 
L 645.225071 239.369686 
L 649.283253 246.919492 
L 653.341435 252.890106 
L 657.399616 257.676836 
L 661.457798 262.38266 
L 665.51598 267.824673 
L 669.574162 273.288432 
L 673.632344 276.871152 
L 677.690526 277.924025 
L 681.748707 278.500079 
L 685.806889 280.507566 
L 689.865071 282.762379 
L 693.923253 283.645269 
L 697.981435 283.764863 
L 702.039616 284.4088 
L 706.097798 286.957506 
L 710.15598 292.374539 
L 714.214162 298.91176 
L 718.272344 303.731505 
L 722.330526 306.002792 
L 726.388707 305.902453 
L 730.446889 304.291599 
L 734.505071 303.837326 
L 738.563253 306.314404 
L 742.621435 310.546752 
L 746.679616 315.129359 
L 750.737798 320.614252 
L 754.79598 329.169052 
L 757.063594 336.652572 
" style="fill:none;stroke:#c44e52;stroke-linecap:square;stroke-width:1.75;"/>
   </g>
   <g id="line2d_44">
    <path clip-path="url(#pcf5c69d289)" d="M 436.228707 164.296875 
L 439.303088 164.296875 
L 442.377468 164.296875 
L 445.451848 164.296875 
L 448.526228 164.296875 
L 451.600608 164.296875 
L 454.674988 164.296875 
L 457.749369 164.296875 
L 460.823749 164.296875 
L 463.898129 164.296875 
L 466.972509 164.296875 
L 470.046889 164.296875 
L 473.121269 164.296875 
L 476.19565 164.296875 
L 479.27003 164.296875 
L 482.34441 164.296875 
L 485.41879 164.296875 
L 488.49317 164.296875 
L 491.56755 164.296875 
L 494.641931 164.296875 
L 497.716311 164.296875 
L 500.790691 164.296875 
L 503.865071 164.296875 
L 506.939451 164.296875 
L 510.013831 164.296875 
L 513.088212 164.296875 
L 516.162592 164.296875 
L 519.236972 164.296875 
L 522.311352 164.296875 
L 525.385732 164.296875 
L 528.460112 164.296875 
L 531.534493 164.296875 
L 534.608873 164.296875 
L 537.683253 164.296875 
L 540.757633 164.296875 
L 543.832013 164.296875 
L 546.906393 164.296875 
L 549.980774 164.296875 
L 553.055154 164.296875 
L 556.129534 164.296875 
L 559.203914 164.296875 
L 562.278294 164.296875 
L 565.352674 164.296875 
L 568.427054 164.296875 
L 571.501435 164.296875 
L 574.575815 164.296875 
L 577.650195 164.296875 
L 580.724575 164.296875 
L 583.798955 164.296875 
L 586.873335 164.296875 
L 589.947716 164.296875 
L 593.022096 164.296875 
L 596.096476 164.296875 
L 599.170856 164.296875 
L 602.245236 164.296875 
L 605.319616 164.296875 
L 608.393997 164.296875 
L 611.468377 164.296875 
L 614.542757 164.296875 
L 617.617137 164.296875 
L 620.691517 164.296875 
L 623.765897 164.296875 
L 626.840278 164.296875 
L 629.914658 164.296875 
L 632.989038 164.296875 
L 636.063418 164.296875 
L 639.137798 164.296875 
L 642.212178 164.296875 
L 645.286559 164.296875 
L 648.360939 164.296875 
L 651.435319 164.296875 
L 654.509699 164.296875 
L 657.584079 164.296875 
L 660.658459 164.296875 
L 663.73284 164.296875 
L 666.80722 164.296875 
L 669.8816 164.296875 
L 672.95598 164.296875 
L 676.03036 164.296875 
L 679.10474 164.296875 
L 682.179121 164.296875 
L 685.253501 164.296875 
L 688.327881 164.296875 
L 691.402261 164.296875 
L 694.476641 164.296875 
L 697.551021 164.296875 
L 700.625402 164.296875 
L 703.699782 164.296875 
L 706.774162 164.296875 
L 709.848542 164.296875 
L 712.922922 164.296875 
L 715.997302 164.296875 
L 719.071683 164.296875 
L 722.146063 164.296875 
L 725.220443 164.296875 
L 728.294823 164.296875 
L 731.369203 164.296875 
L 734.443583 164.296875 
L 737.517964 164.296875 
L 740.592344 164.296875 
" style="fill:none;stroke:#000000;stroke-dasharray:1.85,0.8;stroke-dashoffset:0;stroke-width:0.5;"/>
   </g>
   <g id="patch_6">
    <path d="M 436.228707 300.196875 
L 436.228707 28.396875 
" style="fill:none;stroke:#000000;stroke-linecap:square;stroke-linejoin:miter;stroke-width:0.8;"/>
   </g>
   <g id="patch_7">
    <path d="M 436.228707 300.196875 
L 740.592344 300.196875 
" style="fill:none;stroke:#000000;stroke-linecap:square;stroke-linejoin:miter;stroke-width:0.8;"/>
   </g>
   <g id="text_38">
    <!-- Control -->
    <defs>
     <path d="M 64.40625 67.28125 
L 64.40625 56.890625 
Q 59.421875 61.53125 53.78125 63.8125 
Q 48.140625 66.109375 41.796875 66.109375 
Q 29.296875 66.109375 22.65625 58.46875 
Q 16.015625 50.828125 16.015625 36.375 
Q 16.015625 21.96875 22.65625 14.328125 
Q 29.296875 6.6875 41.796875 6.6875 
Q 48.140625 6.6875 53.78125 8.984375 
Q 59.421875 11.28125 64.40625 15.921875 
L 64.40625 5.609375 
Q 59.234375 2.09375 53.4375 0.328125 
Q 47.65625 -1.421875 41.21875 -1.421875 
Q 24.65625 -1.421875 15.125 8.703125 
Q 5.609375 18.84375 5.609375 36.375 
Q 5.609375 53.953125 15.125 64.078125 
Q 24.65625 74.21875 41.21875 74.21875 
Q 47.75 74.21875 53.53125 72.484375 
Q 59.328125 70.75 64.40625 67.28125 
z
" id="DejaVuSans-43"/>
    </defs>
    <g style="fill:#262626;" transform="translate(552.046463 22.396875)scale(0.2 -0.2)">
     <use xlink:href="#DejaVuSans-43"/>
     <use x="69.824219" xlink:href="#DejaVuSans-6f"/>
     <use x="131.005859" xlink:href="#DejaVuSans-6e"/>
     <use x="194.384766" xlink:href="#DejaVuSans-74"/>
     <use x="233.59375" xlink:href="#DejaVuSans-72"/>
     <use x="274.675781" xlink:href="#DejaVuSans-6f"/>
     <use x="335.857422" xlink:href="#DejaVuSans-6c"/>
    </g>
   </g>
   <g id="legend_2"/>
  </g>
 </g>
 <defs>
  <clipPath id="pcc309fe3ae">
   <rect height="271.8" width="304.363636" x="70.992344" y="28.396875"/>
  </clipPath>
  <clipPath id="pcf5c69d289">
   <rect height="271.8" width="304.363636" x="436.228707" y="28.396875"/>
  </clipPath>
 </defs>
</svg>
