<?xml version="1.0" encoding="utf-8" standalone="no"?>
<!DOCTYPE svg PUBLIC "-//W3C//DTD SVG 1.1//EN"
  "http://www.w3.org/Graphics/SVG/1.1/DTD/svg11.dtd">
<!-- Created with matplotlib (http://matplotlib.org/) -->
<svg height="345pt" version="1.1" viewBox="0 0 749 345" width="749pt" xmlns="http://www.w3.org/2000/svg" xmlns:xlink="http://www.w3.org/1999/xlink">
 <defs>
  <style type="text/css">
*{stroke-linecap:butt;stroke-linejoin:round;}
  </style>
 </defs>
 <g id="figure_1">
  <g id="patch_1">
   <path d="M 0 345.416875 
L 749.445625 345.416875 
L 749.445625 0 
L 0 0 
z
" style="fill:#ffffff;"/>
  </g>
  <g id="axes_1">
   <g id="patch_2">
    <path d="M 65.010625 294.118125 
L 369.374261 294.118125 
L 369.374261 22.318125 
L 65.010625 22.318125 
z
" style="fill:#ffffff;"/>
   </g>
   <g id="matplotlib.axis_1">
    <g id="xtick_1">
     <g id="line2d_1">
      <defs>
       <path d="M 0 0 
L 0 6 
" id="mb556e9bbc3" style="stroke:#262626;"/>
      </defs>
      <g>
       <use style="fill:#262626;stroke:#262626;" x="65.010625" xlink:href="#mb556e9bbc3" y="294.118125"/>
      </g>
     </g>
     <g id="text_1">
      <!-- 0 -->
      <defs>
       <path d="M 31.78125 66.40625 
Q 24.171875 66.40625 20.328125 58.90625 
Q 16.5 51.421875 16.5 36.375 
Q 16.5 21.390625 20.328125 13.890625 
Q 24.171875 6.390625 31.78125 6.390625 
Q 39.453125 6.390625 43.28125 13.890625 
Q 47.125 21.390625 47.125 36.375 
Q 47.125 51.421875 43.28125 58.90625 
Q 39.453125 66.40625 31.78125 66.40625 
z
M 31.78125 74.21875 
Q 44.046875 74.21875 50.515625 64.515625 
Q 56.984375 54.828125 56.984375 36.375 
Q 56.984375 17.96875 50.515625 8.265625 
Q 44.046875 -1.421875 31.78125 -1.421875 
Q 19.53125 -1.421875 13.0625 8.265625 
Q 6.59375 17.96875 6.59375 36.375 
Q 6.59375 54.828125 13.0625 64.515625 
Q 19.53125 74.21875 31.78125 74.21875 
z
" id="DejaVuSans-30"/>
      </defs>
      <g style="fill:#262626;" transform="translate(61.193125 316.23625)scale(0.12 -0.12)">
       <use xlink:href="#DejaVuSans-30"/>
      </g>
     </g>
    </g>
    <g id="xtick_2">
     <g id="line2d_2">
      <g>
       <use style="fill:#262626;stroke:#262626;" x="103.05608" xlink:href="#mb556e9bbc3" y="294.118125"/>
      </g>
     </g>
     <g id="text_2">
      <!-- 5 -->
      <defs>
       <path d="M 10.796875 72.90625 
L 49.515625 72.90625 
L 49.515625 64.59375 
L 19.828125 64.59375 
L 19.828125 46.734375 
Q 21.96875 47.46875 24.109375 47.828125 
Q 26.265625 48.1875 28.421875 48.1875 
Q 40.625 48.1875 47.75 41.5 
Q 54.890625 34.8125 54.890625 23.390625 
Q 54.890625 11.625 47.5625 5.09375 
Q 40.234375 -1.421875 26.90625 -1.421875 
Q 22.3125 -1.421875 17.546875 -0.640625 
Q 12.796875 0.140625 7.71875 1.703125 
L 7.71875 11.625 
Q 12.109375 9.234375 16.796875 8.0625 
Q 21.484375 6.890625 26.703125 6.890625 
Q 35.15625 6.890625 40.078125 11.328125 
Q 45.015625 15.765625 45.015625 23.390625 
Q 45.015625 31 40.078125 35.4375 
Q 35.15625 39.890625 26.703125 39.890625 
Q 22.75 39.890625 18.8125 39.015625 
Q 14.890625 38.140625 10.796875 36.28125 
z
" id="DejaVuSans-35"/>
      </defs>
      <g style="fill:#262626;" transform="translate(99.23858 316.23625)scale(0.12 -0.12)">
       <use xlink:href="#DejaVuSans-35"/>
      </g>
     </g>
    </g>
    <g id="xtick_3">
     <g id="line2d_3">
      <g>
       <use style="fill:#262626;stroke:#262626;" x="141.101534" xlink:href="#mb556e9bbc3" y="294.118125"/>
      </g>
     </g>
     <g id="text_3">
      <!-- 10 -->
      <defs>
       <path d="M 12.40625 8.296875 
L 28.515625 8.296875 
L 28.515625 63.921875 
L 10.984375 60.40625 
L 10.984375 69.390625 
L 28.421875 72.90625 
L 38.28125 72.90625 
L 38.28125 8.296875 
L 54.390625 8.296875 
L 54.390625 0 
L 12.40625 0 
z
" id="DejaVuSans-31"/>
      </defs>
      <g style="fill:#262626;" transform="translate(133.466534 316.23625)scale(0.12 -0.12)">
       <use xlink:href="#DejaVuSans-31"/>
       <use x="63.623047" xlink:href="#DejaVuSans-30"/>
      </g>
     </g>
    </g>
    <g id="xtick_4">
     <g id="line2d_4">
      <g>
       <use style="fill:#262626;stroke:#262626;" x="179.146989" xlink:href="#mb556e9bbc3" y="294.118125"/>
      </g>
     </g>
     <g id="text_4">
      <!-- 15 -->
      <g style="fill:#262626;" transform="translate(171.511989 316.23625)scale(0.12 -0.12)">
       <use xlink:href="#DejaVuSans-31"/>
       <use x="63.623047" xlink:href="#DejaVuSans-35"/>
      </g>
     </g>
    </g>
    <g id="xtick_5">
     <g id="line2d_5">
      <g>
       <use style="fill:#262626;stroke:#262626;" x="217.192443" xlink:href="#mb556e9bbc3" y="294.118125"/>
      </g>
     </g>
     <g id="text_5">
      <!-- 20 -->
      <defs>
       <path d="M 19.1875 8.296875 
L 53.609375 8.296875 
L 53.609375 0 
L 7.328125 0 
L 7.328125 8.296875 
Q 12.9375 14.109375 22.625 23.890625 
Q 32.328125 33.6875 34.8125 36.53125 
Q 39.546875 41.84375 41.421875 45.53125 
Q 43.3125 49.21875 43.3125 52.78125 
Q 43.3125 58.59375 39.234375 62.25 
Q 35.15625 65.921875 28.609375 65.921875 
Q 23.96875 65.921875 18.8125 64.3125 
Q 13.671875 62.703125 7.8125 59.421875 
L 7.8125 69.390625 
Q 13.765625 71.78125 18.9375 73 
Q 24.125 74.21875 28.421875 74.21875 
Q 39.75 74.21875 46.484375 68.546875 
Q 53.21875 62.890625 53.21875 53.421875 
Q 53.21875 48.921875 51.53125 44.890625 
Q 49.859375 40.875 45.40625 35.40625 
Q 44.1875 33.984375 37.640625 27.21875 
Q 31.109375 20.453125 19.1875 8.296875 
z
" id="DejaVuSans-32"/>
      </defs>
      <g style="fill:#262626;" transform="translate(209.557443 316.23625)scale(0.12 -0.12)">
       <use xlink:href="#DejaVuSans-32"/>
       <use x="63.623047" xlink:href="#DejaVuSans-30"/>
      </g>
     </g>
    </g>
    <g id="xtick_6">
     <g id="line2d_6">
      <g>
       <use style="fill:#262626;stroke:#262626;" x="255.237898" xlink:href="#mb556e9bbc3" y="294.118125"/>
      </g>
     </g>
     <g id="text_6">
      <!-- 25 -->
      <g style="fill:#262626;" transform="translate(247.602898 316.23625)scale(0.12 -0.12)">
       <use xlink:href="#DejaVuSans-32"/>
       <use x="63.623047" xlink:href="#DejaVuSans-35"/>
      </g>
     </g>
    </g>
    <g id="xtick_7">
     <g id="line2d_7">
      <g>
       <use style="fill:#262626;stroke:#262626;" x="293.283352" xlink:href="#mb556e9bbc3" y="294.118125"/>
      </g>
     </g>
     <g id="text_7">
      <!-- 30 -->
      <defs>
       <path d="M 40.578125 39.3125 
Q 47.65625 37.796875 51.625 33 
Q 55.609375 28.21875 55.609375 21.1875 
Q 55.609375 10.40625 48.1875 4.484375 
Q 40.765625 -1.421875 27.09375 -1.421875 
Q 22.515625 -1.421875 17.65625 -0.515625 
Q 12.796875 0.390625 7.625 2.203125 
L 7.625 11.71875 
Q 11.71875 9.328125 16.59375 8.109375 
Q 21.484375 6.890625 26.8125 6.890625 
Q 36.078125 6.890625 40.9375 10.546875 
Q 45.796875 14.203125 45.796875 21.1875 
Q 45.796875 27.640625 41.28125 31.265625 
Q 36.765625 34.90625 28.71875 34.90625 
L 20.21875 34.90625 
L 20.21875 43.015625 
L 29.109375 43.015625 
Q 36.375 43.015625 40.234375 45.921875 
Q 44.09375 48.828125 44.09375 54.296875 
Q 44.09375 59.90625 40.109375 62.90625 
Q 36.140625 65.921875 28.71875 65.921875 
Q 24.65625 65.921875 20.015625 65.03125 
Q 15.375 64.15625 9.8125 62.3125 
L 9.8125 71.09375 
Q 15.4375 72.65625 20.34375 73.4375 
Q 25.25 74.21875 29.59375 74.21875 
Q 40.828125 74.21875 47.359375 69.109375 
Q 53.90625 64.015625 53.90625 55.328125 
Q 53.90625 49.265625 50.4375 45.09375 
Q 46.96875 40.921875 40.578125 39.3125 
z
" id="DejaVuSans-33"/>
      </defs>
      <g style="fill:#262626;" transform="translate(285.648352 316.23625)scale(0.12 -0.12)">
       <use xlink:href="#DejaVuSans-33"/>
       <use x="63.623047" xlink:href="#DejaVuSans-30"/>
      </g>
     </g>
    </g>
    <g id="xtick_8">
     <g id="line2d_8">
      <g>
       <use style="fill:#262626;stroke:#262626;" x="331.328807" xlink:href="#mb556e9bbc3" y="294.118125"/>
      </g>
     </g>
     <g id="text_8">
      <!-- 35 -->
      <g style="fill:#262626;" transform="translate(323.693807 316.23625)scale(0.12 -0.12)">
       <use xlink:href="#DejaVuSans-33"/>
       <use x="63.623047" xlink:href="#DejaVuSans-35"/>
      </g>
     </g>
    </g>
    <g id="xtick_9">
     <g id="line2d_9">
      <g>
       <use style="fill:#262626;stroke:#262626;" x="369.374261" xlink:href="#mb556e9bbc3" y="294.118125"/>
      </g>
     </g>
     <g id="text_9">
      <!-- 40 -->
      <defs>
       <path d="M 37.796875 64.3125 
L 12.890625 25.390625 
L 37.796875 25.390625 
z
M 35.203125 72.90625 
L 47.609375 72.90625 
L 47.609375 25.390625 
L 58.015625 25.390625 
L 58.015625 17.1875 
L 47.609375 17.1875 
L 47.609375 0 
L 37.796875 0 
L 37.796875 17.1875 
L 4.890625 17.1875 
L 4.890625 26.703125 
z
" id="DejaVuSans-34"/>
      </defs>
      <g style="fill:#262626;" transform="translate(361.739261 316.23625)scale(0.12 -0.12)">
       <use xlink:href="#DejaVuSans-34"/>
       <use x="63.623047" xlink:href="#DejaVuSans-30"/>
      </g>
     </g>
    </g>
    <g id="text_10">
     <!-- Document Similarity (%) -->
     <defs>
      <path d="M 19.671875 64.796875 
L 19.671875 8.109375 
L 31.59375 8.109375 
Q 46.6875 8.109375 53.6875 14.9375 
Q 60.6875 21.78125 60.6875 36.53125 
Q 60.6875 51.171875 53.6875 57.984375 
Q 46.6875 64.796875 31.59375 64.796875 
z
M 9.8125 72.90625 
L 30.078125 72.90625 
Q 51.265625 72.90625 61.171875 64.09375 
Q 71.09375 55.28125 71.09375 36.53125 
Q 71.09375 17.671875 61.125 8.828125 
Q 51.171875 0 30.078125 0 
L 9.8125 0 
z
" id="DejaVuSans-44"/>
      <path d="M 30.609375 48.390625 
Q 23.390625 48.390625 19.1875 42.75 
Q 14.984375 37.109375 14.984375 27.296875 
Q 14.984375 17.484375 19.15625 11.84375 
Q 23.34375 6.203125 30.609375 6.203125 
Q 37.796875 6.203125 41.984375 11.859375 
Q 46.1875 17.53125 46.1875 27.296875 
Q 46.1875 37.015625 41.984375 42.703125 
Q 37.796875 48.390625 30.609375 48.390625 
z
M 30.609375 56 
Q 42.328125 56 49.015625 48.375 
Q 55.71875 40.765625 55.71875 27.296875 
Q 55.71875 13.875 49.015625 6.21875 
Q 42.328125 -1.421875 30.609375 -1.421875 
Q 18.84375 -1.421875 12.171875 6.21875 
Q 5.515625 13.875 5.515625 27.296875 
Q 5.515625 40.765625 12.171875 48.375 
Q 18.84375 56 30.609375 56 
z
" id="DejaVuSans-6f"/>
      <path d="M 48.78125 52.59375 
L 48.78125 44.1875 
Q 44.96875 46.296875 41.140625 47.34375 
Q 37.3125 48.390625 33.40625 48.390625 
Q 24.65625 48.390625 19.8125 42.84375 
Q 14.984375 37.3125 14.984375 27.296875 
Q 14.984375 17.28125 19.8125 11.734375 
Q 24.65625 6.203125 33.40625 6.203125 
Q 37.3125 6.203125 41.140625 7.25 
Q 44.96875 8.296875 48.78125 10.40625 
L 48.78125 2.09375 
Q 45.015625 0.34375 40.984375 -0.53125 
Q 36.96875 -1.421875 32.421875 -1.421875 
Q 20.0625 -1.421875 12.78125 6.34375 
Q 5.515625 14.109375 5.515625 27.296875 
Q 5.515625 40.671875 12.859375 48.328125 
Q 20.21875 56 33.015625 56 
Q 37.15625 56 41.109375 55.140625 
Q 45.0625 54.296875 48.78125 52.59375 
z
" id="DejaVuSans-63"/>
      <path d="M 8.5 21.578125 
L 8.5 54.6875 
L 17.484375 54.6875 
L 17.484375 21.921875 
Q 17.484375 14.15625 20.5 10.265625 
Q 23.53125 6.390625 29.59375 6.390625 
Q 36.859375 6.390625 41.078125 11.03125 
Q 45.3125 15.671875 45.3125 23.6875 
L 45.3125 54.6875 
L 54.296875 54.6875 
L 54.296875 0 
L 45.3125 0 
L 45.3125 8.40625 
Q 42.046875 3.421875 37.71875 1 
Q 33.40625 -1.421875 27.6875 -1.421875 
Q 18.265625 -1.421875 13.375 4.4375 
Q 8.5 10.296875 8.5 21.578125 
z
M 31.109375 56 
z
" id="DejaVuSans-75"/>
      <path d="M 52 44.1875 
Q 55.375 50.25 60.0625 53.125 
Q 64.75 56 71.09375 56 
Q 79.640625 56 84.28125 50.015625 
Q 88.921875 44.046875 88.921875 33.015625 
L 88.921875 0 
L 79.890625 0 
L 79.890625 32.71875 
Q 79.890625 40.578125 77.09375 44.375 
Q 74.3125 48.1875 68.609375 48.1875 
Q 61.625 48.1875 57.5625 43.546875 
Q 53.515625 38.921875 53.515625 30.90625 
L 53.515625 0 
L 44.484375 0 
L 44.484375 32.71875 
Q 44.484375 40.625 41.703125 44.40625 
Q 38.921875 48.1875 33.109375 48.1875 
Q 26.21875 48.1875 22.15625 43.53125 
Q 18.109375 38.875 18.109375 30.90625 
L 18.109375 0 
L 9.078125 0 
L 9.078125 54.6875 
L 18.109375 54.6875 
L 18.109375 46.1875 
Q 21.1875 51.21875 25.484375 53.609375 
Q 29.78125 56 35.6875 56 
Q 41.65625 56 45.828125 52.96875 
Q 50 49.953125 52 44.1875 
z
" id="DejaVuSans-6d"/>
      <path d="M 56.203125 29.59375 
L 56.203125 25.203125 
L 14.890625 25.203125 
Q 15.484375 15.921875 20.484375 11.0625 
Q 25.484375 6.203125 34.421875 6.203125 
Q 39.59375 6.203125 44.453125 7.46875 
Q 49.3125 8.734375 54.109375 11.28125 
L 54.109375 2.78125 
Q 49.265625 0.734375 44.1875 -0.34375 
Q 39.109375 -1.421875 33.890625 -1.421875 
Q 20.796875 -1.421875 13.15625 6.1875 
Q 5.515625 13.8125 5.515625 26.8125 
Q 5.515625 40.234375 12.765625 48.109375 
Q 20.015625 56 32.328125 56 
Q 43.359375 56 49.78125 48.890625 
Q 56.203125 41.796875 56.203125 29.59375 
z
M 47.21875 32.234375 
Q 47.125 39.59375 43.09375 43.984375 
Q 39.0625 48.390625 32.421875 48.390625 
Q 24.90625 48.390625 20.390625 44.140625 
Q 15.875 39.890625 15.1875 32.171875 
z
" id="DejaVuSans-65"/>
      <path d="M 54.890625 33.015625 
L 54.890625 0 
L 45.90625 0 
L 45.90625 32.71875 
Q 45.90625 40.484375 42.875 44.328125 
Q 39.84375 48.1875 33.796875 48.1875 
Q 26.515625 48.1875 22.3125 43.546875 
Q 18.109375 38.921875 18.109375 30.90625 
L 18.109375 0 
L 9.078125 0 
L 9.078125 54.6875 
L 18.109375 54.6875 
L 18.109375 46.1875 
Q 21.34375 51.125 25.703125 53.5625 
Q 30.078125 56 35.796875 56 
Q 45.21875 56 50.046875 50.171875 
Q 54.890625 44.34375 54.890625 33.015625 
z
" id="DejaVuSans-6e"/>
      <path d="M 18.3125 70.21875 
L 18.3125 54.6875 
L 36.8125 54.6875 
L 36.8125 47.703125 
L 18.3125 47.703125 
L 18.3125 18.015625 
Q 18.3125 11.328125 20.140625 9.421875 
Q 21.96875 7.515625 27.59375 7.515625 
L 36.8125 7.515625 
L 36.8125 0 
L 27.59375 0 
Q 17.1875 0 13.234375 3.875 
Q 9.28125 7.765625 9.28125 18.015625 
L 9.28125 47.703125 
L 2.6875 47.703125 
L 2.6875 54.6875 
L 9.28125 54.6875 
L 9.28125 70.21875 
z
" id="DejaVuSans-74"/>
      <path id="DejaVuSans-20"/>
      <path d="M 53.515625 70.515625 
L 53.515625 60.890625 
Q 47.90625 63.578125 42.921875 64.890625 
Q 37.9375 66.21875 33.296875 66.21875 
Q 25.25 66.21875 20.875 63.09375 
Q 16.5 59.96875 16.5 54.203125 
Q 16.5 49.359375 19.40625 46.890625 
Q 22.3125 44.4375 30.421875 42.921875 
L 36.375 41.703125 
Q 47.40625 39.59375 52.65625 34.296875 
Q 57.90625 29 57.90625 20.125 
Q 57.90625 9.515625 50.796875 4.046875 
Q 43.703125 -1.421875 29.984375 -1.421875 
Q 24.8125 -1.421875 18.96875 -0.25 
Q 13.140625 0.921875 6.890625 3.21875 
L 6.890625 13.375 
Q 12.890625 10.015625 18.65625 8.296875 
Q 24.421875 6.59375 29.984375 6.59375 
Q 38.421875 6.59375 43.015625 9.90625 
Q 47.609375 13.234375 47.609375 19.390625 
Q 47.609375 24.75 44.3125 27.78125 
Q 41.015625 30.8125 33.5 32.328125 
L 27.484375 33.5 
Q 16.453125 35.6875 11.515625 40.375 
Q 6.59375 45.0625 6.59375 53.421875 
Q 6.59375 63.09375 13.40625 68.65625 
Q 20.21875 74.21875 32.171875 74.21875 
Q 37.3125 74.21875 42.625 73.28125 
Q 47.953125 72.359375 53.515625 70.515625 
z
" id="DejaVuSans-53"/>
      <path d="M 9.421875 54.6875 
L 18.40625 54.6875 
L 18.40625 0 
L 9.421875 0 
z
M 9.421875 75.984375 
L 18.40625 75.984375 
L 18.40625 64.59375 
L 9.421875 64.59375 
z
" id="DejaVuSans-69"/>
      <path d="M 9.421875 75.984375 
L 18.40625 75.984375 
L 18.40625 0 
L 9.421875 0 
z
" id="DejaVuSans-6c"/>
      <path d="M 34.28125 27.484375 
Q 23.390625 27.484375 19.1875 25 
Q 14.984375 22.515625 14.984375 16.5 
Q 14.984375 11.71875 18.140625 8.90625 
Q 21.296875 6.109375 26.703125 6.109375 
Q 34.1875 6.109375 38.703125 11.40625 
Q 43.21875 16.703125 43.21875 25.484375 
L 43.21875 27.484375 
z
M 52.203125 31.203125 
L 52.203125 0 
L 43.21875 0 
L 43.21875 8.296875 
Q 40.140625 3.328125 35.546875 0.953125 
Q 30.953125 -1.421875 24.3125 -1.421875 
Q 15.921875 -1.421875 10.953125 3.296875 
Q 6 8.015625 6 15.921875 
Q 6 25.140625 12.171875 29.828125 
Q 18.359375 34.515625 30.609375 34.515625 
L 43.21875 34.515625 
L 43.21875 35.40625 
Q 43.21875 41.609375 39.140625 45 
Q 35.0625 48.390625 27.6875 48.390625 
Q 23 48.390625 18.546875 47.265625 
Q 14.109375 46.140625 10.015625 43.890625 
L 10.015625 52.203125 
Q 14.9375 54.109375 19.578125 55.046875 
Q 24.21875 56 28.609375 56 
Q 40.484375 56 46.34375 49.84375 
Q 52.203125 43.703125 52.203125 31.203125 
z
" id="DejaVuSans-61"/>
      <path d="M 41.109375 46.296875 
Q 39.59375 47.171875 37.8125 47.578125 
Q 36.03125 48 33.890625 48 
Q 26.265625 48 22.1875 43.046875 
Q 18.109375 38.09375 18.109375 28.8125 
L 18.109375 0 
L 9.078125 0 
L 9.078125 54.6875 
L 18.109375 54.6875 
L 18.109375 46.1875 
Q 20.953125 51.171875 25.484375 53.578125 
Q 30.03125 56 36.53125 56 
Q 37.453125 56 38.578125 55.875 
Q 39.703125 55.765625 41.0625 55.515625 
z
" id="DejaVuSans-72"/>
      <path d="M 32.171875 -5.078125 
Q 28.375 -14.84375 24.75 -17.8125 
Q 21.140625 -20.796875 15.09375 -20.796875 
L 7.90625 -20.796875 
L 7.90625 -13.28125 
L 13.1875 -13.28125 
Q 16.890625 -13.28125 18.9375 -11.515625 
Q 21 -9.765625 23.484375 -3.21875 
L 25.09375 0.875 
L 2.984375 54.6875 
L 12.5 54.6875 
L 29.59375 11.921875 
L 46.6875 54.6875 
L 56.203125 54.6875 
z
" id="DejaVuSans-79"/>
      <path d="M 31 75.875 
Q 24.46875 64.65625 21.28125 53.65625 
Q 18.109375 42.671875 18.109375 31.390625 
Q 18.109375 20.125 21.3125 9.0625 
Q 24.515625 -2 31 -13.1875 
L 23.1875 -13.1875 
Q 15.875 -1.703125 12.234375 9.375 
Q 8.59375 20.453125 8.59375 31.390625 
Q 8.59375 42.28125 12.203125 53.3125 
Q 15.828125 64.359375 23.1875 75.875 
z
" id="DejaVuSans-28"/>
      <path d="M 72.703125 32.078125 
Q 68.453125 32.078125 66.03125 28.46875 
Q 63.625 24.859375 63.625 18.40625 
Q 63.625 12.0625 66.03125 8.421875 
Q 68.453125 4.78125 72.703125 4.78125 
Q 76.859375 4.78125 79.265625 8.421875 
Q 81.6875 12.0625 81.6875 18.40625 
Q 81.6875 24.8125 79.265625 28.4375 
Q 76.859375 32.078125 72.703125 32.078125 
z
M 72.703125 38.28125 
Q 80.421875 38.28125 84.953125 32.90625 
Q 89.5 27.546875 89.5 18.40625 
Q 89.5 9.28125 84.9375 3.921875 
Q 80.375 -1.421875 72.703125 -1.421875 
Q 64.890625 -1.421875 60.34375 3.921875 
Q 55.8125 9.28125 55.8125 18.40625 
Q 55.8125 27.59375 60.375 32.9375 
Q 64.9375 38.28125 72.703125 38.28125 
z
M 22.3125 68.015625 
Q 18.109375 68.015625 15.6875 64.375 
Q 13.28125 60.75 13.28125 54.390625 
Q 13.28125 47.953125 15.671875 44.328125 
Q 18.0625 40.71875 22.3125 40.71875 
Q 26.5625 40.71875 28.96875 44.328125 
Q 31.390625 47.953125 31.390625 54.390625 
Q 31.390625 60.6875 28.953125 64.34375 
Q 26.515625 68.015625 22.3125 68.015625 
z
M 66.40625 74.21875 
L 74.21875 74.21875 
L 28.609375 -1.421875 
L 20.796875 -1.421875 
z
M 22.3125 74.21875 
Q 30.03125 74.21875 34.609375 68.875 
Q 39.203125 63.53125 39.203125 54.390625 
Q 39.203125 45.171875 34.640625 39.84375 
Q 30.078125 34.515625 22.3125 34.515625 
Q 14.546875 34.515625 10.03125 39.859375 
Q 5.515625 45.21875 5.515625 54.390625 
Q 5.515625 63.484375 10.046875 68.84375 
Q 14.59375 74.21875 22.3125 74.21875 
z
" id="DejaVuSans-25"/>
      <path d="M 8.015625 75.875 
L 15.828125 75.875 
Q 23.140625 64.359375 26.78125 53.3125 
Q 30.421875 42.28125 30.421875 31.390625 
Q 30.421875 20.453125 26.78125 9.375 
Q 23.140625 -1.703125 15.828125 -13.1875 
L 8.015625 -13.1875 
Q 14.5 -2 17.703125 9.0625 
Q 20.90625 20.125 20.90625 31.390625 
Q 20.90625 42.671875 17.703125 53.65625 
Q 14.5 64.65625 8.015625 75.875 
z
" id="DejaVuSans-29"/>
     </defs>
     <g style="fill:#262626;" transform="translate(118.994943 334.889375)scale(0.16 -0.16)">
      <use xlink:href="#DejaVuSans-44"/>
      <use x="77.001953" xlink:href="#DejaVuSans-6f"/>
      <use x="138.183594" xlink:href="#DejaVuSans-63"/>
      <use x="193.164062" xlink:href="#DejaVuSans-75"/>
      <use x="256.542969" xlink:href="#DejaVuSans-6d"/>
      <use x="353.955078" xlink:href="#DejaVuSans-65"/>
      <use x="415.478516" xlink:href="#DejaVuSans-6e"/>
      <use x="478.857422" xlink:href="#DejaVuSans-74"/>
      <use x="518.066406" xlink:href="#DejaVuSans-20"/>
      <use x="549.853516" xlink:href="#DejaVuSans-53"/>
      <use x="613.330078" xlink:href="#DejaVuSans-69"/>
      <use x="641.113281" xlink:href="#DejaVuSans-6d"/>
      <use x="738.525391" xlink:href="#DejaVuSans-69"/>
      <use x="766.308594" xlink:href="#DejaVuSans-6c"/>
      <use x="794.091797" xlink:href="#DejaVuSans-61"/>
      <use x="855.371094" xlink:href="#DejaVuSans-72"/>
      <use x="896.484375" xlink:href="#DejaVuSans-69"/>
      <use x="924.267578" xlink:href="#DejaVuSans-74"/>
      <use x="963.476562" xlink:href="#DejaVuSans-79"/>
      <use x="1022.65625" xlink:href="#DejaVuSans-20"/>
      <use x="1054.443359" xlink:href="#DejaVuSans-28"/>
      <use x="1093.457031" xlink:href="#DejaVuSans-25"/>
      <use x="1188.476562" xlink:href="#DejaVuSans-29"/>
     </g>
    </g>
   </g>
   <g id="matplotlib.axis_2">
    <g id="ytick_1">
     <g id="line2d_10">
      <defs>
       <path d="M 0 0 
L -6 0 
" id="m07947a6da3" style="stroke:#262626;"/>
      </defs>
      <g>
       <use style="fill:#262626;stroke:#262626;" x="65.010625" xlink:href="#m07947a6da3" y="294.118125"/>
      </g>
     </g>
     <g id="text_11">
      <!-- −20 -->
      <defs>
       <path d="M 10.59375 35.5 
L 73.1875 35.5 
L 73.1875 27.203125 
L 10.59375 27.203125 
z
" id="DejaVuSans-2212"/>
      </defs>
      <g style="fill:#262626;" transform="translate(26.685 298.677188)scale(0.12 -0.12)">
       <use xlink:href="#DejaVuSans-2212"/>
       <use x="83.789062" xlink:href="#DejaVuSans-32"/>
       <use x="147.412109" xlink:href="#DejaVuSans-30"/>
      </g>
     </g>
    </g>
    <g id="ytick_2">
     <g id="line2d_11">
      <g>
       <use style="fill:#262626;stroke:#262626;" x="65.010625" xlink:href="#m07947a6da3" y="260.143125"/>
      </g>
     </g>
     <g id="text_12">
      <!-- −15 -->
      <g style="fill:#262626;" transform="translate(26.685 264.702187)scale(0.12 -0.12)">
       <use xlink:href="#DejaVuSans-2212"/>
       <use x="83.789062" xlink:href="#DejaVuSans-31"/>
       <use x="147.412109" xlink:href="#DejaVuSans-35"/>
      </g>
     </g>
    </g>
    <g id="ytick_3">
     <g id="line2d_12">
      <g>
       <use style="fill:#262626;stroke:#262626;" x="65.010625" xlink:href="#m07947a6da3" y="226.168125"/>
      </g>
     </g>
     <g id="text_13">
      <!-- −10 -->
      <g style="fill:#262626;" transform="translate(26.685 230.727187)scale(0.12 -0.12)">
       <use xlink:href="#DejaVuSans-2212"/>
       <use x="83.789062" xlink:href="#DejaVuSans-31"/>
       <use x="147.412109" xlink:href="#DejaVuSans-30"/>
      </g>
     </g>
    </g>
    <g id="ytick_4">
     <g id="line2d_13">
      <g>
       <use style="fill:#262626;stroke:#262626;" x="65.010625" xlink:href="#m07947a6da3" y="192.193125"/>
      </g>
     </g>
     <g id="text_14">
      <!-- −5 -->
      <g style="fill:#262626;" transform="translate(34.32 196.752187)scale(0.12 -0.12)">
       <use xlink:href="#DejaVuSans-2212"/>
       <use x="83.789062" xlink:href="#DejaVuSans-35"/>
      </g>
     </g>
    </g>
    <g id="ytick_5">
     <g id="line2d_14">
      <g>
       <use style="fill:#262626;stroke:#262626;" x="65.010625" xlink:href="#m07947a6da3" y="158.218125"/>
      </g>
     </g>
     <g id="text_15">
      <!-- 0 -->
      <g style="fill:#262626;" transform="translate(44.375625 162.777187)scale(0.12 -0.12)">
       <use xlink:href="#DejaVuSans-30"/>
      </g>
     </g>
    </g>
    <g id="ytick_6">
     <g id="line2d_15">
      <g>
       <use style="fill:#262626;stroke:#262626;" x="65.010625" xlink:href="#m07947a6da3" y="124.243125"/>
      </g>
     </g>
     <g id="text_16">
      <!-- 5 -->
      <g style="fill:#262626;" transform="translate(44.375625 128.802188)scale(0.12 -0.12)">
       <use xlink:href="#DejaVuSans-35"/>
      </g>
     </g>
    </g>
    <g id="ytick_7">
     <g id="line2d_16">
      <g>
       <use style="fill:#262626;stroke:#262626;" x="65.010625" xlink:href="#m07947a6da3" y="90.268125"/>
      </g>
     </g>
     <g id="text_17">
      <!-- 10 -->
      <g style="fill:#262626;" transform="translate(36.740625 94.827188)scale(0.12 -0.12)">
       <use xlink:href="#DejaVuSans-31"/>
       <use x="63.623047" xlink:href="#DejaVuSans-30"/>
      </g>
     </g>
    </g>
    <g id="ytick_8">
     <g id="line2d_17">
      <g>
       <use style="fill:#262626;stroke:#262626;" x="65.010625" xlink:href="#m07947a6da3" y="56.293125"/>
      </g>
     </g>
     <g id="text_18">
      <!-- 15 -->
      <g style="fill:#262626;" transform="translate(36.740625 60.852187)scale(0.12 -0.12)">
       <use xlink:href="#DejaVuSans-31"/>
       <use x="63.623047" xlink:href="#DejaVuSans-35"/>
      </g>
     </g>
    </g>
    <g id="ytick_9">
     <g id="line2d_18">
      <g>
       <use style="fill:#262626;stroke:#262626;" x="65.010625" xlink:href="#m07947a6da3" y="22.318125"/>
      </g>
     </g>
     <g id="text_19">
      <!-- 20 -->
      <g style="fill:#262626;" transform="translate(36.740625 26.877187)scale(0.12 -0.12)">
       <use xlink:href="#DejaVuSans-32"/>
       <use x="63.623047" xlink:href="#DejaVuSans-30"/>
      </g>
     </g>
    </g>
    <g id="text_20">
     <!-- Density change (proportional) -->
     <defs>
      <path d="M 44.28125 53.078125 
L 44.28125 44.578125 
Q 40.484375 46.53125 36.375 47.5 
Q 32.28125 48.484375 27.875 48.484375 
Q 21.1875 48.484375 17.84375 46.4375 
Q 14.5 44.390625 14.5 40.28125 
Q 14.5 37.15625 16.890625 35.375 
Q 19.28125 33.59375 26.515625 31.984375 
L 29.59375 31.296875 
Q 39.15625 29.25 43.1875 25.515625 
Q 47.21875 21.78125 47.21875 15.09375 
Q 47.21875 7.46875 41.1875 3.015625 
Q 35.15625 -1.421875 24.609375 -1.421875 
Q 20.21875 -1.421875 15.453125 -0.5625 
Q 10.6875 0.296875 5.421875 2 
L 5.421875 11.28125 
Q 10.40625 8.6875 15.234375 7.390625 
Q 20.0625 6.109375 24.8125 6.109375 
Q 31.15625 6.109375 34.5625 8.28125 
Q 37.984375 10.453125 37.984375 14.40625 
Q 37.984375 18.0625 35.515625 20.015625 
Q 33.0625 21.96875 24.703125 23.78125 
L 21.578125 24.515625 
Q 13.234375 26.265625 9.515625 29.90625 
Q 5.8125 33.546875 5.8125 39.890625 
Q 5.8125 47.609375 11.28125 51.796875 
Q 16.75 56 26.8125 56 
Q 31.78125 56 36.171875 55.265625 
Q 40.578125 54.546875 44.28125 53.078125 
z
" id="DejaVuSans-73"/>
      <path d="M 54.890625 33.015625 
L 54.890625 0 
L 45.90625 0 
L 45.90625 32.71875 
Q 45.90625 40.484375 42.875 44.328125 
Q 39.84375 48.1875 33.796875 48.1875 
Q 26.515625 48.1875 22.3125 43.546875 
Q 18.109375 38.921875 18.109375 30.90625 
L 18.109375 0 
L 9.078125 0 
L 9.078125 75.984375 
L 18.109375 75.984375 
L 18.109375 46.1875 
Q 21.34375 51.125 25.703125 53.5625 
Q 30.078125 56 35.796875 56 
Q 45.21875 56 50.046875 50.171875 
Q 54.890625 44.34375 54.890625 33.015625 
z
" id="DejaVuSans-68"/>
      <path d="M 45.40625 27.984375 
Q 45.40625 37.75 41.375 43.109375 
Q 37.359375 48.484375 30.078125 48.484375 
Q 22.859375 48.484375 18.828125 43.109375 
Q 14.796875 37.75 14.796875 27.984375 
Q 14.796875 18.265625 18.828125 12.890625 
Q 22.859375 7.515625 30.078125 7.515625 
Q 37.359375 7.515625 41.375 12.890625 
Q 45.40625 18.265625 45.40625 27.984375 
z
M 54.390625 6.78125 
Q 54.390625 -7.171875 48.1875 -13.984375 
Q 42 -20.796875 29.203125 -20.796875 
Q 24.46875 -20.796875 20.265625 -20.09375 
Q 16.0625 -19.390625 12.109375 -17.921875 
L 12.109375 -9.1875 
Q 16.0625 -11.328125 19.921875 -12.34375 
Q 23.78125 -13.375 27.78125 -13.375 
Q 36.625 -13.375 41.015625 -8.765625 
Q 45.40625 -4.15625 45.40625 5.171875 
L 45.40625 9.625 
Q 42.625 4.78125 38.28125 2.390625 
Q 33.9375 0 27.875 0 
Q 17.828125 0 11.671875 7.65625 
Q 5.515625 15.328125 5.515625 27.984375 
Q 5.515625 40.671875 11.671875 48.328125 
Q 17.828125 56 27.875 56 
Q 33.9375 56 38.28125 53.609375 
Q 42.625 51.21875 45.40625 46.390625 
L 45.40625 54.6875 
L 54.390625 54.6875 
z
" id="DejaVuSans-67"/>
      <path d="M 18.109375 8.203125 
L 18.109375 -20.796875 
L 9.078125 -20.796875 
L 9.078125 54.6875 
L 18.109375 54.6875 
L 18.109375 46.390625 
Q 20.953125 51.265625 25.265625 53.625 
Q 29.59375 56 35.59375 56 
Q 45.5625 56 51.78125 48.09375 
Q 58.015625 40.1875 58.015625 27.296875 
Q 58.015625 14.40625 51.78125 6.484375 
Q 45.5625 -1.421875 35.59375 -1.421875 
Q 29.59375 -1.421875 25.265625 0.953125 
Q 20.953125 3.328125 18.109375 8.203125 
z
M 48.6875 27.296875 
Q 48.6875 37.203125 44.609375 42.84375 
Q 40.53125 48.484375 33.40625 48.484375 
Q 26.265625 48.484375 22.1875 42.84375 
Q 18.109375 37.203125 18.109375 27.296875 
Q 18.109375 17.390625 22.1875 11.75 
Q 26.265625 6.109375 33.40625 6.109375 
Q 40.53125 6.109375 44.609375 11.75 
Q 48.6875 17.390625 48.6875 27.296875 
z
" id="DejaVuSans-70"/>
     </defs>
     <g style="fill:#262626;" transform="translate(19.3575 278.373125)rotate(-90)scale(0.16 -0.16)">
      <use xlink:href="#DejaVuSans-44"/>
      <use x="77.001953" xlink:href="#DejaVuSans-65"/>
      <use x="138.525391" xlink:href="#DejaVuSans-6e"/>
      <use x="201.904297" xlink:href="#DejaVuSans-73"/>
      <use x="254.003906" xlink:href="#DejaVuSans-69"/>
      <use x="281.787109" xlink:href="#DejaVuSans-74"/>
      <use x="320.996094" xlink:href="#DejaVuSans-79"/>
      <use x="380.175781" xlink:href="#DejaVuSans-20"/>
      <use x="411.962891" xlink:href="#DejaVuSans-63"/>
      <use x="466.943359" xlink:href="#DejaVuSans-68"/>
      <use x="530.322266" xlink:href="#DejaVuSans-61"/>
      <use x="591.601562" xlink:href="#DejaVuSans-6e"/>
      <use x="654.980469" xlink:href="#DejaVuSans-67"/>
      <use x="718.457031" xlink:href="#DejaVuSans-65"/>
      <use x="779.980469" xlink:href="#DejaVuSans-20"/>
      <use x="811.767578" xlink:href="#DejaVuSans-28"/>
      <use x="850.78125" xlink:href="#DejaVuSans-70"/>
      <use x="914.257812" xlink:href="#DejaVuSans-72"/>
      <use x="955.339844" xlink:href="#DejaVuSans-6f"/>
      <use x="1016.521484" xlink:href="#DejaVuSans-70"/>
      <use x="1079.998047" xlink:href="#DejaVuSans-6f"/>
      <use x="1141.179688" xlink:href="#DejaVuSans-72"/>
      <use x="1182.292969" xlink:href="#DejaVuSans-74"/>
      <use x="1221.501953" xlink:href="#DejaVuSans-69"/>
      <use x="1249.285156" xlink:href="#DejaVuSans-6f"/>
      <use x="1310.466797" xlink:href="#DejaVuSans-6e"/>
      <use x="1373.845703" xlink:href="#DejaVuSans-61"/>
      <use x="1435.125" xlink:href="#DejaVuSans-6c"/>
      <use x="1462.908203" xlink:href="#DejaVuSans-29"/>
     </g>
    </g>
   </g>
   <g id="line2d_19">
    <path clip-path="url(#p9fc641ffc2)" d="M 42.183352 177.843126 
L 47.25608 170.15156 
L 52.328807 164.751675 
L 57.401534 163.232362 
L 62.474261 164.79166 
L 67.546989 166.703451 
L 72.619716 165.355776 
L 77.692443 160.261673 
L 82.76517 159.681084 
L 87.837898 171.948306 
L 92.910625 188.967321 
L 97.983352 198.143923 
L 103.05608 197.995417 
L 108.128807 193.559428 
L 113.201534 188.448706 
L 118.274261 183.407519 
L 123.346989 178.07884 
L 128.419716 171.692683 
L 133.492443 163.8407 
L 138.56517 156.006936 
L 143.637898 150.733562 
L 148.710625 148.97555 
L 153.783352 148.959485 
L 158.85608 147.348155 
L 163.928807 142.520919 
L 169.001534 137.538268 
L 174.074261 137.251931 
L 179.146989 141.157954 
L 184.219716 143.509316 
L 189.292443 142.02405 
L 194.36517 141.132302 
L 199.437898 144.246593 
L 204.510625 146.163382 
L 209.583352 138.499148 
L 214.65608 121.920599 
L 219.728807 105.92815 
L 224.801534 98.802495 
L 229.874261 102.387523 
L 234.946989 108.32475 
L 240.019716 103.626378 
L 245.092443 88.592755 
L 250.16517 77.020612 
L 255.237898 75.511415 
L 260.310625 77.339254 
L 265.383352 77.847043 
L 270.45608 82.599966 
L 275.528807 94.866749 
L 280.601534 107.347755 
L 285.674261 115.608306 
L 290.746989 123.729068 
L 295.819716 132.593062 
L 300.892443 143.721801 
L 305.96517 163.578127 
L 311.037898 182.179609 
L 316.110625 173.896848 
L 321.183352 135.518548 
L 326.25608 100.227023 
L 331.328807 96.215323 
L 336.401534 106.777727 
L 341.474261 107.943096 
L 346.546989 110.989717 
L 351.619716 129.720901 
L 356.692443 148.831669 
L 361.76517 153.867629 
L 366.837898 150.917952 
L 371.910625 151.819892 
L 376.983352 157.823619 
L 382.05608 175.611504 
L 387.128807 225.839008 
L 392.201534 301.717488 
L 395.766536 346.416875 
M 423.29331 346.416875 
L 427.710625 290.854185 
L 432.783352 171.436177 
L 437.85608 29.244522 
L 439.158417 -1 
M 452.850612 -1 
L 453.074261 4.572616 
L 458.146989 310.826405 
L 458.838148 346.416875 
M 474.872178 346.416875 
L 478.437898 138.559054 
L 480.751396 -1 
M 521.082854 -1 
L 524.092443 122.937506 
L 529.16517 178.448281 
L 534.237898 192.694533 
L 539.310625 196.319925 
L 544.383352 197.239784 
" style="fill:none;stroke:#4c72b0;stroke-linecap:square;stroke-width:1.75;"/>
   </g>
   <g id="line2d_20">
    <path clip-path="url(#p9fc641ffc2)" d="M 58.624954 -1 
L 62.474261 31.190461 
L 67.546989 66.084689 
L 72.619716 90.698367 
L 77.692443 107.565238 
L 82.76517 124.226088 
L 87.837898 143.91486 
L 92.910625 160.062206 
L 97.983352 167.802059 
L 103.05608 169.470834 
L 108.128807 169.205667 
L 113.201534 168.707303 
L 118.274261 167.549979 
L 123.346989 165.488638 
L 128.419716 163.103611 
L 133.492443 160.83291 
L 138.56517 158.767606 
L 143.637898 157.186085 
L 148.710625 156.699659 
L 153.783352 157.279243 
L 158.85608 157.168355 
L 163.928807 154.673346 
L 169.001534 151.191888 
L 174.074261 149.939836 
L 179.146989 151.552729 
L 184.219716 153.480307 
L 189.292443 154.217768 
L 194.36517 155.54419 
L 199.437898 159.093795 
L 204.510625 162.157608 
L 209.583352 159.775614 
L 214.65608 151.532562 
L 219.728807 142.240137 
L 224.801534 136.835137 
L 229.874261 136.58245 
L 234.946989 136.080321 
L 240.019716 127.990829 
L 245.092443 114.025691 
L 250.16517 103.224795 
L 255.237898 100.858702 
L 260.310625 105.361079 
L 265.383352 111.750281 
L 270.45608 117.673675 
L 275.528807 122.802455 
L 280.601534 124.740907 
L 285.674261 127.431561 
L 290.746989 138.415272 
L 295.819716 152.145139 
L 300.892443 158.725859 
L 305.96517 157.612095 
L 311.037898 150.165489 
L 316.110625 135.779527 
L 321.183352 121.786041 
L 326.25608 122.893234 
L 331.328807 140.3374 
L 336.401534 158.308131 
L 341.474261 169.566403 
L 346.546989 179.957711 
L 351.619716 186.965548 
L 356.692443 181.391428 
L 361.76517 167.556643 
L 366.837898 162.116406 
L 371.910625 174.061649 
L 376.983352 193.839216 
L 382.05608 212.046038 
L 387.128807 228.978747 
L 392.201534 234.455526 
L 397.274261 213.968776 
L 402.346989 191.356096 
L 407.419716 220.04361 
L 412.492443 298.122289 
L 415.762487 346.416875 
M 432.166258 346.416875 
L 432.783352 339.932211 
L 437.85608 291.78923 
L 442.928807 272.715367 
L 448.001534 290.675549 
L 452.234522 346.416875 
M 479.283028 346.416875 
L 483.510625 139.116308 
L 486.651625 -1 
M 518.801694 -1 
L 519.019716 18.98718 
L 524.092443 180.399063 
L 529.16517 225.710624 
L 534.237898 232.018712 
L 539.310625 226.69572 
L 544.383352 219.239958 
" style="fill:none;stroke:#55a868;stroke-linecap:square;stroke-width:1.75;"/>
   </g>
   <g id="line2d_21">
    <path clip-path="url(#p9fc641ffc2)" d="M 67.560365 -1 
L 72.619716 22.424513 
L 77.692443 38.333238 
L 82.76517 59.630547 
L 87.837898 88.145281 
L 92.910625 113.39035 
L 97.983352 129.456907 
L 103.05608 138.469079 
L 108.128807 144.166582 
L 113.201534 148.400692 
L 118.274261 151.402458 
L 123.346989 153.295842 
L 128.419716 154.498682 
L 133.492443 155.592051 
L 138.56517 157.338624 
L 143.637898 160.037599 
L 148.710625 162.980012 
L 153.783352 164.865039 
L 158.85608 164.693435 
L 163.928807 162.756114 
L 169.001534 160.912174 
L 174.074261 161.128478 
L 179.146989 163.299217 
L 184.219716 165.742439 
L 189.292443 168.387896 
L 194.36517 173.116233 
L 199.437898 179.920821 
L 204.510625 185.156097 
L 209.583352 185.506702 
L 214.65608 182.825719 
L 219.728807 181.690343 
L 224.801534 182.563095 
L 229.874261 181.896476 
L 234.946989 176.96505 
L 240.019716 168.826745 
L 245.092443 163.708482 
L 250.16517 167.361065 
L 255.237898 177.426555 
L 260.310625 186.579835 
L 265.383352 189.798954 
L 270.45608 186.631463 
L 275.528807 178.762653 
L 280.601534 170.226694 
L 285.674261 168.136397 
L 290.746989 172.776582 
L 295.819716 176.270644 
L 300.892443 177.563685 
L 305.96517 181.435884 
L 311.037898 185.773164 
L 316.110625 185.268838 
L 321.183352 183.434357 
L 326.25608 189.895211 
L 331.328807 205.004937 
L 336.401534 220.379612 
L 341.474261 234.22517 
L 346.546989 247.103831 
L 351.619716 250.811618 
L 356.692443 239.456574 
L 361.76517 221.253187 
L 366.837898 209.570764 
L 371.910625 208.860297 
L 376.983352 210.981725 
L 382.05608 210.340997 
L 387.128807 219.091497 
L 392.201534 243.030334 
L 397.274261 266.043521 
L 402.346989 286.54345 
L 407.419716 325.931562 
L 409.307007 346.416875 
M 477.883291 346.416875 
L 478.437898 327.851548 
L 483.510625 147.690079 
L 488.583352 45.962006 
L 493.119132 -1 
M 514.740356 -1 
L 519.019716 273.600799 
L 522.291989 346.416875 
" style="fill:none;stroke:#c44e52;stroke-linecap:square;stroke-width:1.75;"/>
   </g>
   <g id="line2d_22">
    <path clip-path="url(#p9fc641ffc2)" d="M 65.010625 158.218125 
L 68.085005 158.218125 
L 71.159385 158.218125 
L 74.233765 158.218125 
L 77.308146 158.218125 
L 80.382526 158.218125 
L 83.456906 158.218125 
L 86.531286 158.218125 
L 89.605666 158.218125 
L 92.680046 158.218125 
L 95.754427 158.218125 
L 98.828807 158.218125 
L 101.903187 158.218125 
L 104.977567 158.218125 
L 108.051947 158.218125 
L 111.126327 158.218125 
L 114.200708 158.218125 
L 117.275088 158.218125 
L 120.349468 158.218125 
L 123.423848 158.218125 
L 126.498228 158.218125 
L 129.572608 158.218125 
L 132.646989 158.218125 
L 135.721369 158.218125 
L 138.795749 158.218125 
L 141.870129 158.218125 
L 144.944509 158.218125 
L 148.018889 158.218125 
L 151.09327 158.218125 
L 154.16765 158.218125 
L 157.24203 158.218125 
L 160.31641 158.218125 
L 163.39079 158.218125 
L 166.46517 158.218125 
L 169.539551 158.218125 
L 172.613931 158.218125 
L 175.688311 158.218125 
L 178.762691 158.218125 
L 181.837071 158.218125 
L 184.911451 158.218125 
L 187.985832 158.218125 
L 191.060212 158.218125 
L 194.134592 158.218125 
L 197.208972 158.218125 
L 200.283352 158.218125 
L 203.357732 158.218125 
L 206.432113 158.218125 
L 209.506493 158.218125 
L 212.580873 158.218125 
L 215.655253 158.218125 
L 218.729633 158.218125 
L 221.804013 158.218125 
L 224.878394 158.218125 
L 227.952774 158.218125 
L 231.027154 158.218125 
L 234.101534 158.218125 
L 237.175914 158.218125 
L 240.250294 158.218125 
L 243.324675 158.218125 
L 246.399055 158.218125 
L 249.473435 158.218125 
L 252.547815 158.218125 
L 255.622195 158.218125 
L 258.696575 158.218125 
L 261.770956 158.218125 
L 264.845336 158.218125 
L 267.919716 158.218125 
L 270.994096 158.218125 
L 274.068476 158.218125 
L 277.142856 158.218125 
L 280.217237 158.218125 
L 283.291617 158.218125 
L 286.365997 158.218125 
L 289.440377 158.218125 
L 292.514757 158.218125 
L 295.589137 158.218125 
L 298.663518 158.218125 
L 301.737898 158.218125 
L 304.812278 158.218125 
L 307.886658 158.218125 
L 310.961038 158.218125 
L 314.035418 158.218125 
L 317.109799 158.218125 
L 320.184179 158.218125 
L 323.258559 158.218125 
L 326.332939 158.218125 
L 329.407319 158.218125 
L 332.481699 158.218125 
L 335.55608 158.218125 
L 338.63046 158.218125 
L 341.70484 158.218125 
L 344.77922 158.218125 
L 347.8536 158.218125 
L 350.92798 158.218125 
L 354.002361 158.218125 
L 357.076741 158.218125 
L 360.151121 158.218125 
L 363.225501 158.218125 
L 366.299881 158.218125 
L 369.374261 158.218125 
" style="fill:none;stroke:#000000;stroke-dasharray:1.85,0.8;stroke-dashoffset:0;stroke-width:0.5;"/>
   </g>
   <g id="patch_3">
    <path d="M 65.010625 294.118125 
L 65.010625 22.318125 
" style="fill:none;stroke:#000000;stroke-linecap:square;stroke-linejoin:miter;stroke-width:0.8;"/>
   </g>
   <g id="patch_4">
    <path d="M 65.010625 294.118125 
L 369.374261 294.118125 
" style="fill:none;stroke:#000000;stroke-linecap:square;stroke-linejoin:miter;stroke-width:0.8;"/>
   </g>
   <g id="text_21">
    <!-- Treatment -->
    <defs>
     <path d="M -0.296875 72.90625 
L 61.375 72.90625 
L 61.375 64.59375 
L 35.5 64.59375 
L 35.5 0 
L 25.59375 0 
L 25.59375 64.59375 
L -0.296875 64.59375 
z
" id="DejaVuSans-54"/>
    </defs>
    <g style="fill:#262626;" transform="translate(185.664318 16.318125)scale(0.12 -0.12)">
     <use xlink:href="#DejaVuSans-54"/>
     <use x="60.865234" xlink:href="#DejaVuSans-72"/>
     <use x="101.947266" xlink:href="#DejaVuSans-65"/>
     <use x="163.470703" xlink:href="#DejaVuSans-61"/>
     <use x="224.75" xlink:href="#DejaVuSans-74"/>
     <use x="263.958984" xlink:href="#DejaVuSans-6d"/>
     <use x="361.371094" xlink:href="#DejaVuSans-65"/>
     <use x="422.894531" xlink:href="#DejaVuSans-6e"/>
     <use x="486.273438" xlink:href="#DejaVuSans-74"/>
    </g>
   </g>
   <g id="legend_1">
    <g id="line2d_23">
     <path d="M 78.510625 228.214219 
L 108.510625 228.214219 
" style="fill:none;stroke:#4c72b0;stroke-linecap:square;stroke-width:1.75;"/>
    </g>
    <g id="line2d_24"/>
    <g id="text_22">
     <!-- 90 days -->
     <defs>
      <path d="M 10.984375 1.515625 
L 10.984375 10.5 
Q 14.703125 8.734375 18.5 7.8125 
Q 22.3125 6.890625 25.984375 6.890625 
Q 35.75 6.890625 40.890625 13.453125 
Q 46.046875 20.015625 46.78125 33.40625 
Q 43.953125 29.203125 39.59375 26.953125 
Q 35.25 24.703125 29.984375 24.703125 
Q 19.046875 24.703125 12.671875 31.3125 
Q 6.296875 37.9375 6.296875 49.421875 
Q 6.296875 60.640625 12.9375 67.421875 
Q 19.578125 74.21875 30.609375 74.21875 
Q 43.265625 74.21875 49.921875 64.515625 
Q 56.59375 54.828125 56.59375 36.375 
Q 56.59375 19.140625 48.40625 8.859375 
Q 40.234375 -1.421875 26.421875 -1.421875 
Q 22.703125 -1.421875 18.890625 -0.6875 
Q 15.09375 0.046875 10.984375 1.515625 
z
M 30.609375 32.421875 
Q 37.25 32.421875 41.125 36.953125 
Q 45.015625 41.5 45.015625 49.421875 
Q 45.015625 57.28125 41.125 61.84375 
Q 37.25 66.40625 30.609375 66.40625 
Q 23.96875 66.40625 20.09375 61.84375 
Q 16.21875 57.28125 16.21875 49.421875 
Q 16.21875 41.5 20.09375 36.953125 
Q 23.96875 32.421875 30.609375 32.421875 
z
" id="DejaVuSans-39"/>
      <path d="M 45.40625 46.390625 
L 45.40625 75.984375 
L 54.390625 75.984375 
L 54.390625 0 
L 45.40625 0 
L 45.40625 8.203125 
Q 42.578125 3.328125 38.25 0.953125 
Q 33.9375 -1.421875 27.875 -1.421875 
Q 17.96875 -1.421875 11.734375 6.484375 
Q 5.515625 14.40625 5.515625 27.296875 
Q 5.515625 40.1875 11.734375 48.09375 
Q 17.96875 56 27.875 56 
Q 33.9375 56 38.25 53.625 
Q 42.578125 51.265625 45.40625 46.390625 
z
M 14.796875 27.296875 
Q 14.796875 17.390625 18.875 11.75 
Q 22.953125 6.109375 30.078125 6.109375 
Q 37.203125 6.109375 41.296875 11.75 
Q 45.40625 17.390625 45.40625 27.296875 
Q 45.40625 37.203125 41.296875 42.84375 
Q 37.203125 48.484375 30.078125 48.484375 
Q 22.953125 48.484375 18.875 42.84375 
Q 14.796875 37.203125 14.796875 27.296875 
z
" id="DejaVuSans-64"/>
     </defs>
     <g style="fill:#262626;" transform="translate(120.510625 233.464219)scale(0.15 -0.15)">
      <use xlink:href="#DejaVuSans-39"/>
      <use x="63.623047" xlink:href="#DejaVuSans-30"/>
      <use x="127.246094" xlink:href="#DejaVuSans-20"/>
      <use x="159.033203" xlink:href="#DejaVuSans-64"/>
      <use x="222.509766" xlink:href="#DejaVuSans-61"/>
      <use x="283.789062" xlink:href="#DejaVuSans-79"/>
      <use x="342.96875" xlink:href="#DejaVuSans-73"/>
     </g>
    </g>
    <g id="line2d_25">
     <path d="M 78.510625 250.231406 
L 108.510625 250.231406 
" style="fill:none;stroke:#55a868;stroke-linecap:square;stroke-width:1.75;"/>
    </g>
    <g id="line2d_26"/>
    <g id="text_23">
     <!-- 180 days -->
     <defs>
      <path d="M 31.78125 34.625 
Q 24.75 34.625 20.71875 30.859375 
Q 16.703125 27.09375 16.703125 20.515625 
Q 16.703125 13.921875 20.71875 10.15625 
Q 24.75 6.390625 31.78125 6.390625 
Q 38.8125 6.390625 42.859375 10.171875 
Q 46.921875 13.96875 46.921875 20.515625 
Q 46.921875 27.09375 42.890625 30.859375 
Q 38.875 34.625 31.78125 34.625 
z
M 21.921875 38.8125 
Q 15.578125 40.375 12.03125 44.71875 
Q 8.5 49.078125 8.5 55.328125 
Q 8.5 64.0625 14.71875 69.140625 
Q 20.953125 74.21875 31.78125 74.21875 
Q 42.671875 74.21875 48.875 69.140625 
Q 55.078125 64.0625 55.078125 55.328125 
Q 55.078125 49.078125 51.53125 44.71875 
Q 48 40.375 41.703125 38.8125 
Q 48.828125 37.15625 52.796875 32.3125 
Q 56.78125 27.484375 56.78125 20.515625 
Q 56.78125 9.90625 50.3125 4.234375 
Q 43.84375 -1.421875 31.78125 -1.421875 
Q 19.734375 -1.421875 13.25 4.234375 
Q 6.78125 9.90625 6.78125 20.515625 
Q 6.78125 27.484375 10.78125 32.3125 
Q 14.796875 37.15625 21.921875 38.8125 
z
M 18.3125 54.390625 
Q 18.3125 48.734375 21.84375 45.5625 
Q 25.390625 42.390625 31.78125 42.390625 
Q 38.140625 42.390625 41.71875 45.5625 
Q 45.3125 48.734375 45.3125 54.390625 
Q 45.3125 60.0625 41.71875 63.234375 
Q 38.140625 66.40625 31.78125 66.40625 
Q 25.390625 66.40625 21.84375 63.234375 
Q 18.3125 60.0625 18.3125 54.390625 
z
" id="DejaVuSans-38"/>
     </defs>
     <g style="fill:#262626;" transform="translate(120.510625 255.481406)scale(0.15 -0.15)">
      <use xlink:href="#DejaVuSans-31"/>
      <use x="63.623047" xlink:href="#DejaVuSans-38"/>
      <use x="127.246094" xlink:href="#DejaVuSans-30"/>
      <use x="190.869141" xlink:href="#DejaVuSans-20"/>
      <use x="222.65625" xlink:href="#DejaVuSans-64"/>
      <use x="286.132812" xlink:href="#DejaVuSans-61"/>
      <use x="347.412109" xlink:href="#DejaVuSans-79"/>
      <use x="406.591797" xlink:href="#DejaVuSans-73"/>
     </g>
    </g>
    <g id="line2d_27">
     <path d="M 78.510625 272.248594 
L 108.510625 272.248594 
" style="fill:none;stroke:#c44e52;stroke-linecap:square;stroke-width:1.75;"/>
    </g>
    <g id="line2d_28"/>
    <g id="text_24">
     <!-- 360 days -->
     <defs>
      <path d="M 33.015625 40.375 
Q 26.375 40.375 22.484375 35.828125 
Q 18.609375 31.296875 18.609375 23.390625 
Q 18.609375 15.53125 22.484375 10.953125 
Q 26.375 6.390625 33.015625 6.390625 
Q 39.65625 6.390625 43.53125 10.953125 
Q 47.40625 15.53125 47.40625 23.390625 
Q 47.40625 31.296875 43.53125 35.828125 
Q 39.65625 40.375 33.015625 40.375 
z
M 52.59375 71.296875 
L 52.59375 62.3125 
Q 48.875 64.0625 45.09375 64.984375 
Q 41.3125 65.921875 37.59375 65.921875 
Q 27.828125 65.921875 22.671875 59.328125 
Q 17.53125 52.734375 16.796875 39.40625 
Q 19.671875 43.65625 24.015625 45.921875 
Q 28.375 48.1875 33.59375 48.1875 
Q 44.578125 48.1875 50.953125 41.515625 
Q 57.328125 34.859375 57.328125 23.390625 
Q 57.328125 12.15625 50.6875 5.359375 
Q 44.046875 -1.421875 33.015625 -1.421875 
Q 20.359375 -1.421875 13.671875 8.265625 
Q 6.984375 17.96875 6.984375 36.375 
Q 6.984375 53.65625 15.1875 63.9375 
Q 23.390625 74.21875 37.203125 74.21875 
Q 40.921875 74.21875 44.703125 73.484375 
Q 48.484375 72.75 52.59375 71.296875 
z
" id="DejaVuSans-36"/>
     </defs>
     <g style="fill:#262626;" transform="translate(120.510625 277.498594)scale(0.15 -0.15)">
      <use xlink:href="#DejaVuSans-33"/>
      <use x="63.623047" xlink:href="#DejaVuSans-36"/>
      <use x="127.246094" xlink:href="#DejaVuSans-30"/>
      <use x="190.869141" xlink:href="#DejaVuSans-20"/>
      <use x="222.65625" xlink:href="#DejaVuSans-64"/>
      <use x="286.132812" xlink:href="#DejaVuSans-61"/>
      <use x="347.412109" xlink:href="#DejaVuSans-79"/>
      <use x="406.591797" xlink:href="#DejaVuSans-73"/>
     </g>
    </g>
   </g>
  </g>
  <g id="axes_2">
   <g id="patch_5">
    <path d="M 430.246989 294.118125 
L 734.610625 294.118125 
L 734.610625 22.318125 
L 430.246989 22.318125 
z
" style="fill:#ffffff;"/>
   </g>
   <g id="matplotlib.axis_3">
    <g id="xtick_10">
     <g id="line2d_29">
      <g>
       <use style="fill:#262626;stroke:#262626;" x="430.246989" xlink:href="#mb556e9bbc3" y="294.118125"/>
      </g>
     </g>
     <g id="text_25">
      <!-- 0 -->
      <g style="fill:#262626;" transform="translate(426.429489 316.23625)scale(0.12 -0.12)">
       <use xlink:href="#DejaVuSans-30"/>
      </g>
     </g>
    </g>
    <g id="xtick_11">
     <g id="line2d_30">
      <g>
       <use style="fill:#262626;stroke:#262626;" x="468.292443" xlink:href="#mb556e9bbc3" y="294.118125"/>
      </g>
     </g>
     <g id="text_26">
      <!-- 5 -->
      <g style="fill:#262626;" transform="translate(464.474943 316.23625)scale(0.12 -0.12)">
       <use xlink:href="#DejaVuSans-35"/>
      </g>
     </g>
    </g>
    <g id="xtick_12">
     <g id="line2d_31">
      <g>
       <use style="fill:#262626;stroke:#262626;" x="506.337898" xlink:href="#mb556e9bbc3" y="294.118125"/>
      </g>
     </g>
     <g id="text_27">
      <!-- 10 -->
      <g style="fill:#262626;" transform="translate(498.702898 316.23625)scale(0.12 -0.12)">
       <use xlink:href="#DejaVuSans-31"/>
       <use x="63.623047" xlink:href="#DejaVuSans-30"/>
      </g>
     </g>
    </g>
    <g id="xtick_13">
     <g id="line2d_32">
      <g>
       <use style="fill:#262626;stroke:#262626;" x="544.383352" xlink:href="#mb556e9bbc3" y="294.118125"/>
      </g>
     </g>
     <g id="text_28">
      <!-- 15 -->
      <g style="fill:#262626;" transform="translate(536.748352 316.23625)scale(0.12 -0.12)">
       <use xlink:href="#DejaVuSans-31"/>
       <use x="63.623047" xlink:href="#DejaVuSans-35"/>
      </g>
     </g>
    </g>
    <g id="xtick_14">
     <g id="line2d_33">
      <g>
       <use style="fill:#262626;stroke:#262626;" x="582.428807" xlink:href="#mb556e9bbc3" y="294.118125"/>
      </g>
     </g>
     <g id="text_29">
      <!-- 20 -->
      <g style="fill:#262626;" transform="translate(574.793807 316.23625)scale(0.12 -0.12)">
       <use xlink:href="#DejaVuSans-32"/>
       <use x="63.623047" xlink:href="#DejaVuSans-30"/>
      </g>
     </g>
    </g>
    <g id="xtick_15">
     <g id="line2d_34">
      <g>
       <use style="fill:#262626;stroke:#262626;" x="620.474261" xlink:href="#mb556e9bbc3" y="294.118125"/>
      </g>
     </g>
     <g id="text_30">
      <!-- 25 -->
      <g style="fill:#262626;" transform="translate(612.839261 316.23625)scale(0.12 -0.12)">
       <use xlink:href="#DejaVuSans-32"/>
       <use x="63.623047" xlink:href="#DejaVuSans-35"/>
      </g>
     </g>
    </g>
    <g id="xtick_16">
     <g id="line2d_35">
      <g>
       <use style="fill:#262626;stroke:#262626;" x="658.519716" xlink:href="#mb556e9bbc3" y="294.118125"/>
      </g>
     </g>
     <g id="text_31">
      <!-- 30 -->
      <g style="fill:#262626;" transform="translate(650.884716 316.23625)scale(0.12 -0.12)">
       <use xlink:href="#DejaVuSans-33"/>
       <use x="63.623047" xlink:href="#DejaVuSans-30"/>
      </g>
     </g>
    </g>
    <g id="xtick_17">
     <g id="line2d_36">
      <g>
       <use style="fill:#262626;stroke:#262626;" x="696.56517" xlink:href="#mb556e9bbc3" y="294.118125"/>
      </g>
     </g>
     <g id="text_32">
      <!-- 35 -->
      <g style="fill:#262626;" transform="translate(688.93017 316.23625)scale(0.12 -0.12)">
       <use xlink:href="#DejaVuSans-33"/>
       <use x="63.623047" xlink:href="#DejaVuSans-35"/>
      </g>
     </g>
    </g>
    <g id="xtick_18">
     <g id="line2d_37">
      <g>
       <use style="fill:#262626;stroke:#262626;" x="734.610625" xlink:href="#mb556e9bbc3" y="294.118125"/>
      </g>
     </g>
     <g id="text_33">
      <!-- 40 -->
      <g style="fill:#262626;" transform="translate(726.975625 316.23625)scale(0.12 -0.12)">
       <use xlink:href="#DejaVuSans-34"/>
       <use x="63.623047" xlink:href="#DejaVuSans-30"/>
      </g>
     </g>
    </g>
    <g id="text_34">
     <!-- Document Similarity (%) -->
     <g style="fill:#262626;" transform="translate(484.231307 334.889375)scale(0.16 -0.16)">
      <use xlink:href="#DejaVuSans-44"/>
      <use x="77.001953" xlink:href="#DejaVuSans-6f"/>
      <use x="138.183594" xlink:href="#DejaVuSans-63"/>
      <use x="193.164062" xlink:href="#DejaVuSans-75"/>
      <use x="256.542969" xlink:href="#DejaVuSans-6d"/>
      <use x="353.955078" xlink:href="#DejaVuSans-65"/>
      <use x="415.478516" xlink:href="#DejaVuSans-6e"/>
      <use x="478.857422" xlink:href="#DejaVuSans-74"/>
      <use x="518.066406" xlink:href="#DejaVuSans-20"/>
      <use x="549.853516" xlink:href="#DejaVuSans-53"/>
      <use x="613.330078" xlink:href="#DejaVuSans-69"/>
      <use x="641.113281" xlink:href="#DejaVuSans-6d"/>
      <use x="738.525391" xlink:href="#DejaVuSans-69"/>
      <use x="766.308594" xlink:href="#DejaVuSans-6c"/>
      <use x="794.091797" xlink:href="#DejaVuSans-61"/>
      <use x="855.371094" xlink:href="#DejaVuSans-72"/>
      <use x="896.484375" xlink:href="#DejaVuSans-69"/>
      <use x="924.267578" xlink:href="#DejaVuSans-74"/>
      <use x="963.476562" xlink:href="#DejaVuSans-79"/>
      <use x="1022.65625" xlink:href="#DejaVuSans-20"/>
      <use x="1054.443359" xlink:href="#DejaVuSans-28"/>
      <use x="1093.457031" xlink:href="#DejaVuSans-25"/>
      <use x="1188.476562" xlink:href="#DejaVuSans-29"/>
     </g>
    </g>
   </g>
   <g id="matplotlib.axis_4">
    <g id="ytick_10">
     <g id="line2d_38">
      <g>
       <use style="fill:#262626;stroke:#262626;" x="430.246989" xlink:href="#m07947a6da3" y="294.118125"/>
      </g>
     </g>
     <g id="text_35">
      <!-- −20 -->
      <g style="fill:#262626;" transform="translate(391.921364 298.677188)scale(0.12 -0.12)">
       <use xlink:href="#DejaVuSans-2212"/>
       <use x="83.789062" xlink:href="#DejaVuSans-32"/>
       <use x="147.412109" xlink:href="#DejaVuSans-30"/>
      </g>
     </g>
    </g>
    <g id="ytick_11">
     <g id="line2d_39">
      <g>
       <use style="fill:#262626;stroke:#262626;" x="430.246989" xlink:href="#m07947a6da3" y="260.143125"/>
      </g>
     </g>
     <g id="text_36">
      <!-- −15 -->
      <g style="fill:#262626;" transform="translate(391.921364 264.702187)scale(0.12 -0.12)">
       <use xlink:href="#DejaVuSans-2212"/>
       <use x="83.789062" xlink:href="#DejaVuSans-31"/>
       <use x="147.412109" xlink:href="#DejaVuSans-35"/>
      </g>
     </g>
    </g>
    <g id="ytick_12">
     <g id="line2d_40">
      <g>
       <use style="fill:#262626;stroke:#262626;" x="430.246989" xlink:href="#m07947a6da3" y="226.168125"/>
      </g>
     </g>
     <g id="text_37">
      <!-- −10 -->
      <g style="fill:#262626;" transform="translate(391.921364 230.727187)scale(0.12 -0.12)">
       <use xlink:href="#DejaVuSans-2212"/>
       <use x="83.789062" xlink:href="#DejaVuSans-31"/>
       <use x="147.412109" xlink:href="#DejaVuSans-30"/>
      </g>
     </g>
    </g>
    <g id="ytick_13">
     <g id="line2d_41">
      <g>
       <use style="fill:#262626;stroke:#262626;" x="430.246989" xlink:href="#m07947a6da3" y="192.193125"/>
      </g>
     </g>
     <g id="text_38">
      <!-- −5 -->
      <g style="fill:#262626;" transform="translate(399.556364 196.752187)scale(0.12 -0.12)">
       <use xlink:href="#DejaVuSans-2212"/>
       <use x="83.789062" xlink:href="#DejaVuSans-35"/>
      </g>
     </g>
    </g>
    <g id="ytick_14">
     <g id="line2d_42">
      <g>
       <use style="fill:#262626;stroke:#262626;" x="430.246989" xlink:href="#m07947a6da3" y="158.218125"/>
      </g>
     </g>
     <g id="text_39">
      <!-- 0 -->
      <g style="fill:#262626;" transform="translate(409.611989 162.777187)scale(0.12 -0.12)">
       <use xlink:href="#DejaVuSans-30"/>
      </g>
     </g>
    </g>
    <g id="ytick_15">
     <g id="line2d_43">
      <g>
       <use style="fill:#262626;stroke:#262626;" x="430.246989" xlink:href="#m07947a6da3" y="124.243125"/>
      </g>
     </g>
     <g id="text_40">
      <!-- 5 -->
      <g style="fill:#262626;" transform="translate(409.611989 128.802188)scale(0.12 -0.12)">
       <use xlink:href="#DejaVuSans-35"/>
      </g>
     </g>
    </g>
    <g id="ytick_16">
     <g id="line2d_44">
      <g>
       <use style="fill:#262626;stroke:#262626;" x="430.246989" xlink:href="#m07947a6da3" y="90.268125"/>
      </g>
     </g>
     <g id="text_41">
      <!-- 10 -->
      <g style="fill:#262626;" transform="translate(401.976989 94.827188)scale(0.12 -0.12)">
       <use xlink:href="#DejaVuSans-31"/>
       <use x="63.623047" xlink:href="#DejaVuSans-30"/>
      </g>
     </g>
    </g>
    <g id="ytick_17">
     <g id="line2d_45">
      <g>
       <use style="fill:#262626;stroke:#262626;" x="430.246989" xlink:href="#m07947a6da3" y="56.293125"/>
      </g>
     </g>
     <g id="text_42">
      <!-- 15 -->
      <g style="fill:#262626;" transform="translate(401.976989 60.852187)scale(0.12 -0.12)">
       <use xlink:href="#DejaVuSans-31"/>
       <use x="63.623047" xlink:href="#DejaVuSans-35"/>
      </g>
     </g>
    </g>
    <g id="ytick_18">
     <g id="line2d_46">
      <g>
       <use style="fill:#262626;stroke:#262626;" x="430.246989" xlink:href="#m07947a6da3" y="22.318125"/>
      </g>
     </g>
     <g id="text_43">
      <!-- 20 -->
      <g style="fill:#262626;" transform="translate(401.976989 26.877187)scale(0.12 -0.12)">
       <use xlink:href="#DejaVuSans-32"/>
       <use x="63.623047" xlink:href="#DejaVuSans-30"/>
      </g>
     </g>
    </g>
   </g>
   <g id="line2d_47">
    <path clip-path="url(#p31f7345141)" d="M 418.446403 -1 
L 422.637898 54.833127 
L 427.710625 128.849556 
L 432.783352 191.232673 
L 437.85608 230.015879 
L 442.928807 238.778984 
L 448.001534 219.823088 
L 453.074261 187.71495 
L 458.146989 161.859145 
L 463.219716 149.927269 
L 468.292443 146.269713 
L 473.36517 143.493174 
L 478.437898 139.481496 
L 483.510625 136.635486 
L 488.583352 136.77221 
L 493.65608 139.02625 
L 498.728807 142.635304 
L 503.801534 147.310056 
L 508.874261 151.322733 
L 513.946989 153.990341 
L 519.019716 157.593397 
L 524.092443 163.611849 
L 529.16517 170.260302 
L 534.237898 175.325625 
L 539.310625 178.825567 
L 544.383352 182.111167 
L 549.45608 186.552263 
L 554.528807 192.686607 
L 559.601534 197.485353 
L 564.674261 194.908627 
L 569.746989 183.837482 
L 574.819716 170.987355 
L 579.892443 162.06029 
L 584.96517 156.203849 
L 590.037898 151.234236 
L 595.110625 149.404277 
L 600.183352 156.234766 
L 605.25608 173.35542 
L 610.328807 194.610558 
L 615.401534 212.143519 
L 620.474261 220.399849 
L 625.546989 214.728864 
L 630.619716 198.495465 
L 635.692443 186.343447 
L 640.76517 185.033216 
L 645.837898 187.237572 
L 650.910625 194.469325 
L 655.983352 211.650318 
L 661.05608 225.744663 
L 666.128807 220.016913 
L 671.201534 191.911452 
L 676.274261 156.986352 
L 681.346989 142.73163 
L 686.419716 161.774757 
L 691.492443 198.040021 
L 696.56517 221.812146 
L 701.637898 203.976323 
L 706.710625 146.126492 
L 711.783352 96.750279 
L 716.85608 116.549996 
L 721.928807 213.209853 
L 727.001534 312.538104 
L 732.074261 338.872511 
L 737.146989 295.704206 
L 742.219716 244.217011 
L 747.292443 224.849937 
L 750.445625 233.130721 
" style="fill:none;stroke:#4c72b0;stroke-linecap:square;stroke-width:1.75;"/>
   </g>
   <g id="line2d_48">
    <path clip-path="url(#p31f7345141)" d="M 425.258027 -1 
L 427.710625 33.626454 
L 432.783352 92.230365 
L 437.85608 132.248797 
L 442.928807 152.728931 
L 448.001534 158.146703 
L 453.074261 156.286816 
L 458.146989 153.595365 
L 463.219716 152.640175 
L 468.292443 152.363014 
L 473.36517 150.742953 
L 478.437898 147.725366 
L 483.510625 145.266015 
L 488.583352 144.713341 
L 493.65608 145.63809 
L 498.728807 147.750365 
L 503.801534 151.294451 
L 508.874261 154.932356 
L 513.946989 156.959924 
L 519.019716 157.990314 
L 524.092443 159.377423 
L 529.16517 161.259213 
L 534.237898 163.795747 
L 539.310625 167.508745 
L 544.383352 171.901592 
L 549.45608 176.166407 
L 554.528807 180.17241 
L 559.601534 182.704207 
L 564.674261 182.044163 
L 569.746989 179.547449 
L 574.819716 178.573805 
L 579.892443 179.977269 
L 584.96517 181.423668 
L 590.037898 180.834821 
L 595.110625 179.52172 
L 600.183352 179.859196 
L 605.25608 181.579277 
L 610.328807 183.957979 
L 615.401534 186.456914 
L 620.474261 186.631665 
L 625.546989 183.436829 
L 630.619716 180.970262 
L 635.692443 182.974868 
L 640.76517 183.668991 
L 645.837898 177.109083 
L 650.910625 171.808927 
L 655.983352 175.565418 
L 661.05608 179.048887 
L 666.128807 171.306542 
L 671.201534 150.163618 
L 676.274261 121.834498 
L 681.346989 104.119306 
L 686.419716 112.160215 
L 691.492443 141.854049 
L 696.56517 178.955598 
L 701.637898 205.445199 
L 706.710625 211.62438 
L 711.783352 206.252688 
L 716.85608 204.660586 
L 721.928807 214.03564 
L 727.001534 217.260393 
L 732.074261 192.964278 
L 737.146989 162.137811 
L 742.219716 158.736776 
L 747.292443 180.366165 
L 750.445625 209.240481 
" style="fill:none;stroke:#55a868;stroke-linecap:square;stroke-width:1.75;"/>
   </g>
   <g id="line2d_49">
    <path clip-path="url(#p31f7345141)" d="M 439.490365 -1 
L 442.928807 34.671323 
L 448.001534 73.001888 
L 453.074261 101.071856 
L 458.146989 119.682331 
L 463.219716 130.602678 
L 468.292443 136.826516 
L 473.36517 140.102264 
L 478.437898 141.74085 
L 483.510625 143.530716 
L 488.583352 146.142486 
L 493.65608 148.66869 
L 498.728807 150.975904 
L 503.801534 154.054207 
L 508.874261 157.530863 
L 513.946989 160.08015 
L 519.019716 161.820325 
L 524.092443 163.553535 
L 529.16517 165.29636 
L 534.237898 167.235104 
L 539.310625 169.935647 
L 544.383352 173.157995 
L 549.45608 176.407783 
L 554.528807 179.50542 
L 559.601534 181.329866 
L 564.674261 180.963579 
L 569.746989 180.596083 
L 574.819716 183.62798 
L 579.892443 189.642592 
L 584.96517 194.693434 
L 590.037898 197.155326 
L 595.110625 199.16891 
L 600.183352 200.637362 
L 605.25608 198.470211 
L 610.328807 194.046185 
L 615.401534 192.510018 
L 620.474261 194.915943 
L 625.546989 199.047747 
L 630.619716 202.659072 
L 635.692443 201.444836 
L 640.76517 192.370929 
L 645.837898 181.282002 
L 650.910625 179.848381 
L 655.983352 193.952565 
L 661.05608 216.177278 
L 666.128807 227.974462 
L 671.201534 214.731798 
L 676.274261 183.964497 
L 681.346989 162.607209 
L 686.419716 164.310336 
L 691.492443 176.899374 
L 696.56517 188.307587 
L 701.637898 194.242825 
L 706.710625 196.045107 
L 711.783352 204.052449 
L 716.85608 223.27597 
L 721.928807 241.079515 
L 727.001534 237.353504 
L 732.074261 203.968473 
L 737.146989 153.452295 
L 742.219716 105.59574 
L 747.292443 79.198405 
L 750.445625 93.57976 
" style="fill:none;stroke:#c44e52;stroke-linecap:square;stroke-width:1.75;"/>
   </g>
   <g id="line2d_50">
    <path clip-path="url(#p31f7345141)" d="M 430.246989 158.218125 
L 433.321369 158.218125 
L 436.395749 158.218125 
L 439.470129 158.218125 
L 442.544509 158.218125 
L 445.618889 158.218125 
L 448.69327 158.218125 
L 451.76765 158.218125 
L 454.84203 158.218125 
L 457.91641 158.218125 
L 460.99079 158.218125 
L 464.06517 158.218125 
L 467.139551 158.218125 
L 470.213931 158.218125 
L 473.288311 158.218125 
L 476.362691 158.218125 
L 479.437071 158.218125 
L 482.511451 158.218125 
L 485.585832 158.218125 
L 488.660212 158.218125 
L 491.734592 158.218125 
L 494.808972 158.218125 
L 497.883352 158.218125 
L 500.957732 158.218125 
L 504.032113 158.218125 
L 507.106493 158.218125 
L 510.180873 158.218125 
L 513.255253 158.218125 
L 516.329633 158.218125 
L 519.404013 158.218125 
L 522.478394 158.218125 
L 525.552774 158.218125 
L 528.627154 158.218125 
L 531.701534 158.218125 
L 534.775914 158.218125 
L 537.850294 158.218125 
L 540.924675 158.218125 
L 543.999055 158.218125 
L 547.073435 158.218125 
L 550.147815 158.218125 
L 553.222195 158.218125 
L 556.296575 158.218125 
L 559.370956 158.218125 
L 562.445336 158.218125 
L 565.519716 158.218125 
L 568.594096 158.218125 
L 571.668476 158.218125 
L 574.742856 158.218125 
L 577.817237 158.218125 
L 580.891617 158.218125 
L 583.965997 158.218125 
L 587.040377 158.218125 
L 590.114757 158.218125 
L 593.189137 158.218125 
L 596.263518 158.218125 
L 599.337898 158.218125 
L 602.412278 158.218125 
L 605.486658 158.218125 
L 608.561038 158.218125 
L 611.635418 158.218125 
L 614.709799 158.218125 
L 617.784179 158.218125 
L 620.858559 158.218125 
L 623.932939 158.218125 
L 627.007319 158.218125 
L 630.081699 158.218125 
L 633.15608 158.218125 
L 636.23046 158.218125 
L 639.30484 158.218125 
L 642.37922 158.218125 
L 645.4536 158.218125 
L 648.52798 158.218125 
L 651.602361 158.218125 
L 654.676741 158.218125 
L 657.751121 158.218125 
L 660.825501 158.218125 
L 663.899881 158.218125 
L 666.974261 158.218125 
L 670.048642 158.218125 
L 673.123022 158.218125 
L 676.197402 158.218125 
L 679.271782 158.218125 
L 682.346162 158.218125 
L 685.420542 158.218125 
L 688.494923 158.218125 
L 691.569303 158.218125 
L 694.643683 158.218125 
L 697.718063 158.218125 
L 700.792443 158.218125 
L 703.866823 158.218125 
L 706.941204 158.218125 
L 710.015584 158.218125 
L 713.089964 158.218125 
L 716.164344 158.218125 
L 719.238724 158.218125 
L 722.313104 158.218125 
L 725.387485 158.218125 
L 728.461865 158.218125 
L 731.536245 158.218125 
L 734.610625 158.218125 
" style="fill:none;stroke:#000000;stroke-dasharray:1.85,0.8;stroke-dashoffset:0;stroke-width:0.5;"/>
   </g>
   <g id="patch_6">
    <path d="M 430.246989 294.118125 
L 430.246989 22.318125 
" style="fill:none;stroke:#000000;stroke-linecap:square;stroke-linejoin:miter;stroke-width:0.8;"/>
   </g>
   <g id="patch_7">
    <path d="M 430.246989 294.118125 
L 734.610625 294.118125 
" style="fill:none;stroke:#000000;stroke-linecap:square;stroke-linejoin:miter;stroke-width:0.8;"/>
   </g>
   <g id="text_44">
    <!-- Control -->
    <defs>
     <path d="M 64.40625 67.28125 
L 64.40625 56.890625 
Q 59.421875 61.53125 53.78125 63.8125 
Q 48.140625 66.109375 41.796875 66.109375 
Q 29.296875 66.109375 22.65625 58.46875 
Q 16.015625 50.828125 16.015625 36.375 
Q 16.015625 21.96875 22.65625 14.328125 
Q 29.296875 6.6875 41.796875 6.6875 
Q 48.140625 6.6875 53.78125 8.984375 
Q 59.421875 11.28125 64.40625 15.921875 
L 64.40625 5.609375 
Q 59.234375 2.09375 53.4375 0.328125 
Q 47.65625 -1.421875 41.21875 -1.421875 
Q 24.65625 -1.421875 15.125 8.703125 
Q 5.609375 18.84375 5.609375 36.375 
Q 5.609375 53.953125 15.125 64.078125 
Q 24.65625 74.21875 41.21875 74.21875 
Q 47.75 74.21875 53.53125 72.484375 
Q 59.328125 70.75 64.40625 67.28125 
z
" id="DejaVuSans-43"/>
    </defs>
    <g style="fill:#262626;" transform="translate(560.610369 16.318125)scale(0.12 -0.12)">
     <use xlink:href="#DejaVuSans-43"/>
     <use x="69.824219" xlink:href="#DejaVuSans-6f"/>
     <use x="131.005859" xlink:href="#DejaVuSans-6e"/>
     <use x="194.384766" xlink:href="#DejaVuSans-74"/>
     <use x="233.59375" xlink:href="#DejaVuSans-72"/>
     <use x="274.675781" xlink:href="#DejaVuSans-6f"/>
     <use x="335.857422" xlink:href="#DejaVuSans-6c"/>
    </g>
   </g>
   <g id="legend_2"/>
  </g>
 </g>
 <defs>
  <clipPath id="p9fc641ffc2">
   <rect height="271.8" width="304.363636" x="65.010625" y="22.318125"/>
  </clipPath>
  <clipPath id="p31f7345141">
   <rect height="271.8" width="304.363636" x="430.246989" y="22.318125"/>
  </clipPath>
 </defs>
</svg>
