<?xml version="1.0" encoding="utf-8" standalone="no"?>
<!DOCTYPE svg PUBLIC "-//W3C//DTD SVG 1.1//EN"
  "http://www.w3.org/Graphics/SVG/1.1/DTD/svg11.dtd">
<!-- Created with matplotlib (http://matplotlib.org/) -->
<svg height="356pt" version="1.1" viewBox="0 0 527 356" width="527pt" xmlns="http://www.w3.org/2000/svg" xmlns:xlink="http://www.w3.org/1999/xlink">
 <defs>
  <style type="text/css">
*{stroke-linecap:butt;stroke-linejoin:round;}
  </style>
 </defs>
 <g id="figure_1">
  <g id="patch_1">
   <path d="M 0 356.334687 
L 527.34 356.334687 
L 527.34 0 
L 0 0 
z
" style="fill:#ffffff;"/>
  </g>
  <g id="axes_1">
   <g id="patch_2">
    <path d="M 68.37 300.196875 
L 458.97 300.196875 
L 458.97 28.396875 
L 68.37 28.396875 
z
" style="fill:#ffffff;"/>
   </g>
   <g id="matplotlib.axis_1">
    <g id="xtick_1">
     <g id="line2d_1">
      <defs>
       <path d="M 0 0 
L 0 6 
" id="maf37e4837a" style="stroke:#262626;"/>
      </defs>
      <g>
       <use style="fill:#262626;stroke:#262626;" x="68.37" xlink:href="#maf37e4837a" y="300.196875"/>
      </g>
     </g>
     <g id="text_1">
      <!-- 2001 -->
      <defs>
       <path d="M 19.1875 8.296875 
L 53.609375 8.296875 
L 53.609375 0 
L 7.328125 0 
L 7.328125 8.296875 
Q 12.9375 14.109375 22.625 23.890625 
Q 32.328125 33.6875 34.8125 36.53125 
Q 39.546875 41.84375 41.421875 45.53125 
Q 43.3125 49.21875 43.3125 52.78125 
Q 43.3125 58.59375 39.234375 62.25 
Q 35.15625 65.921875 28.609375 65.921875 
Q 23.96875 65.921875 18.8125 64.3125 
Q 13.671875 62.703125 7.8125 59.421875 
L 7.8125 69.390625 
Q 13.765625 71.78125 18.9375 73 
Q 24.125 74.21875 28.421875 74.21875 
Q 39.75 74.21875 46.484375 68.546875 
Q 53.21875 62.890625 53.21875 53.421875 
Q 53.21875 48.921875 51.53125 44.890625 
Q 49.859375 40.875 45.40625 35.40625 
Q 44.1875 33.984375 37.640625 27.21875 
Q 31.109375 20.453125 19.1875 8.296875 
z
" id="DejaVuSans-32"/>
       <path d="M 31.78125 66.40625 
Q 24.171875 66.40625 20.328125 58.90625 
Q 16.5 51.421875 16.5 36.375 
Q 16.5 21.390625 20.328125 13.890625 
Q 24.171875 6.390625 31.78125 6.390625 
Q 39.453125 6.390625 43.28125 13.890625 
Q 47.125 21.390625 47.125 36.375 
Q 47.125 51.421875 43.28125 58.90625 
Q 39.453125 66.40625 31.78125 66.40625 
z
M 31.78125 74.21875 
Q 44.046875 74.21875 50.515625 64.515625 
Q 56.984375 54.828125 56.984375 36.375 
Q 56.984375 17.96875 50.515625 8.265625 
Q 44.046875 -1.421875 31.78125 -1.421875 
Q 19.53125 -1.421875 13.0625 8.265625 
Q 6.59375 17.96875 6.59375 36.375 
Q 6.59375 54.828125 13.0625 64.515625 
Q 19.53125 74.21875 31.78125 74.21875 
z
" id="DejaVuSans-30"/>
       <path d="M 12.40625 8.296875 
L 28.515625 8.296875 
L 28.515625 63.921875 
L 10.984375 60.40625 
L 10.984375 69.390625 
L 28.421875 72.90625 
L 38.28125 72.90625 
L 38.28125 8.296875 
L 54.390625 8.296875 
L 54.390625 0 
L 12.40625 0 
z
" id="DejaVuSans-31"/>
      </defs>
      <g style="fill:#262626;" transform="translate(51.8275 323.074844)scale(0.13 -0.13)">
       <use xlink:href="#DejaVuSans-32"/>
       <use x="63.623047" xlink:href="#DejaVuSans-30"/>
       <use x="127.246094" xlink:href="#DejaVuSans-30"/>
       <use x="190.869141" xlink:href="#DejaVuSans-31"/>
      </g>
     </g>
    </g>
    <g id="xtick_2">
     <g id="line2d_2">
      <g>
       <use style="fill:#262626;stroke:#262626;" x="118.500481" xlink:href="#maf37e4837a" y="300.196875"/>
      </g>
     </g>
     <g id="text_2">
      <!-- 2003 -->
      <defs>
       <path d="M 40.578125 39.3125 
Q 47.65625 37.796875 51.625 33 
Q 55.609375 28.21875 55.609375 21.1875 
Q 55.609375 10.40625 48.1875 4.484375 
Q 40.765625 -1.421875 27.09375 -1.421875 
Q 22.515625 -1.421875 17.65625 -0.515625 
Q 12.796875 0.390625 7.625 2.203125 
L 7.625 11.71875 
Q 11.71875 9.328125 16.59375 8.109375 
Q 21.484375 6.890625 26.8125 6.890625 
Q 36.078125 6.890625 40.9375 10.546875 
Q 45.796875 14.203125 45.796875 21.1875 
Q 45.796875 27.640625 41.28125 31.265625 
Q 36.765625 34.90625 28.71875 34.90625 
L 20.21875 34.90625 
L 20.21875 43.015625 
L 29.109375 43.015625 
Q 36.375 43.015625 40.234375 45.921875 
Q 44.09375 48.828125 44.09375 54.296875 
Q 44.09375 59.90625 40.109375 62.90625 
Q 36.140625 65.921875 28.71875 65.921875 
Q 24.65625 65.921875 20.015625 65.03125 
Q 15.375 64.15625 9.8125 62.3125 
L 9.8125 71.09375 
Q 15.4375 72.65625 20.34375 73.4375 
Q 25.25 74.21875 29.59375 74.21875 
Q 40.828125 74.21875 47.359375 69.109375 
Q 53.90625 64.015625 53.90625 55.328125 
Q 53.90625 49.265625 50.4375 45.09375 
Q 46.96875 40.921875 40.578125 39.3125 
z
" id="DejaVuSans-33"/>
      </defs>
      <g style="fill:#262626;" transform="translate(101.957981 323.074844)scale(0.13 -0.13)">
       <use xlink:href="#DejaVuSans-32"/>
       <use x="63.623047" xlink:href="#DejaVuSans-30"/>
       <use x="127.246094" xlink:href="#DejaVuSans-30"/>
       <use x="190.869141" xlink:href="#DejaVuSans-33"/>
      </g>
     </g>
    </g>
    <g id="xtick_3">
     <g id="line2d_3">
      <g>
       <use style="fill:#262626;stroke:#262626;" x="168.630963" xlink:href="#maf37e4837a" y="300.196875"/>
      </g>
     </g>
     <g id="text_3">
      <!-- 2005 -->
      <defs>
       <path d="M 10.796875 72.90625 
L 49.515625 72.90625 
L 49.515625 64.59375 
L 19.828125 64.59375 
L 19.828125 46.734375 
Q 21.96875 47.46875 24.109375 47.828125 
Q 26.265625 48.1875 28.421875 48.1875 
Q 40.625 48.1875 47.75 41.5 
Q 54.890625 34.8125 54.890625 23.390625 
Q 54.890625 11.625 47.5625 5.09375 
Q 40.234375 -1.421875 26.90625 -1.421875 
Q 22.3125 -1.421875 17.546875 -0.640625 
Q 12.796875 0.140625 7.71875 1.703125 
L 7.71875 11.625 
Q 12.109375 9.234375 16.796875 8.0625 
Q 21.484375 6.890625 26.703125 6.890625 
Q 35.15625 6.890625 40.078125 11.328125 
Q 45.015625 15.765625 45.015625 23.390625 
Q 45.015625 31 40.078125 35.4375 
Q 35.15625 39.890625 26.703125 39.890625 
Q 22.75 39.890625 18.8125 39.015625 
Q 14.890625 38.140625 10.796875 36.28125 
z
" id="DejaVuSans-35"/>
      </defs>
      <g style="fill:#262626;" transform="translate(152.088463 323.074844)scale(0.13 -0.13)">
       <use xlink:href="#DejaVuSans-32"/>
       <use x="63.623047" xlink:href="#DejaVuSans-30"/>
       <use x="127.246094" xlink:href="#DejaVuSans-30"/>
       <use x="190.869141" xlink:href="#DejaVuSans-35"/>
      </g>
     </g>
    </g>
    <g id="xtick_4">
     <g id="line2d_4">
      <g>
       <use style="fill:#262626;stroke:#262626;" x="218.761444" xlink:href="#maf37e4837a" y="300.196875"/>
      </g>
     </g>
     <g id="text_4">
      <!-- 2007 -->
      <defs>
       <path d="M 8.203125 72.90625 
L 55.078125 72.90625 
L 55.078125 68.703125 
L 28.609375 0 
L 18.3125 0 
L 43.21875 64.59375 
L 8.203125 64.59375 
z
" id="DejaVuSans-37"/>
      </defs>
      <g style="fill:#262626;" transform="translate(202.218944 323.074844)scale(0.13 -0.13)">
       <use xlink:href="#DejaVuSans-32"/>
       <use x="63.623047" xlink:href="#DejaVuSans-30"/>
       <use x="127.246094" xlink:href="#DejaVuSans-30"/>
       <use x="190.869141" xlink:href="#DejaVuSans-37"/>
      </g>
     </g>
    </g>
    <g id="xtick_5">
     <g id="line2d_5">
      <g>
       <use style="fill:#262626;stroke:#262626;" x="268.891925" xlink:href="#maf37e4837a" y="300.196875"/>
      </g>
     </g>
     <g id="text_5">
      <!-- 2009 -->
      <defs>
       <path d="M 10.984375 1.515625 
L 10.984375 10.5 
Q 14.703125 8.734375 18.5 7.8125 
Q 22.3125 6.890625 25.984375 6.890625 
Q 35.75 6.890625 40.890625 13.453125 
Q 46.046875 20.015625 46.78125 33.40625 
Q 43.953125 29.203125 39.59375 26.953125 
Q 35.25 24.703125 29.984375 24.703125 
Q 19.046875 24.703125 12.671875 31.3125 
Q 6.296875 37.9375 6.296875 49.421875 
Q 6.296875 60.640625 12.9375 67.421875 
Q 19.578125 74.21875 30.609375 74.21875 
Q 43.265625 74.21875 49.921875 64.515625 
Q 56.59375 54.828125 56.59375 36.375 
Q 56.59375 19.140625 48.40625 8.859375 
Q 40.234375 -1.421875 26.421875 -1.421875 
Q 22.703125 -1.421875 18.890625 -0.6875 
Q 15.09375 0.046875 10.984375 1.515625 
z
M 30.609375 32.421875 
Q 37.25 32.421875 41.125 36.953125 
Q 45.015625 41.5 45.015625 49.421875 
Q 45.015625 57.28125 41.125 61.84375 
Q 37.25 66.40625 30.609375 66.40625 
Q 23.96875 66.40625 20.09375 61.84375 
Q 16.21875 57.28125 16.21875 49.421875 
Q 16.21875 41.5 20.09375 36.953125 
Q 23.96875 32.421875 30.609375 32.421875 
z
" id="DejaVuSans-39"/>
      </defs>
      <g style="fill:#262626;" transform="translate(252.349425 323.074844)scale(0.13 -0.13)">
       <use xlink:href="#DejaVuSans-32"/>
       <use x="63.623047" xlink:href="#DejaVuSans-30"/>
       <use x="127.246094" xlink:href="#DejaVuSans-30"/>
       <use x="190.869141" xlink:href="#DejaVuSans-39"/>
      </g>
     </g>
    </g>
    <g id="xtick_6">
     <g id="line2d_6">
      <g>
       <use style="fill:#262626;stroke:#262626;" x="319.022406" xlink:href="#maf37e4837a" y="300.196875"/>
      </g>
     </g>
     <g id="text_6">
      <!-- 2011 -->
      <g style="fill:#262626;" transform="translate(302.479906 323.074844)scale(0.13 -0.13)">
       <use xlink:href="#DejaVuSans-32"/>
       <use x="63.623047" xlink:href="#DejaVuSans-30"/>
       <use x="127.246094" xlink:href="#DejaVuSans-31"/>
       <use x="190.869141" xlink:href="#DejaVuSans-31"/>
      </g>
     </g>
    </g>
    <g id="xtick_7">
     <g id="line2d_7">
      <g>
       <use style="fill:#262626;stroke:#262626;" x="369.152888" xlink:href="#maf37e4837a" y="300.196875"/>
      </g>
     </g>
     <g id="text_7">
      <!-- 2013 -->
      <g style="fill:#262626;" transform="translate(352.610388 323.074844)scale(0.13 -0.13)">
       <use xlink:href="#DejaVuSans-32"/>
       <use x="63.623047" xlink:href="#DejaVuSans-30"/>
       <use x="127.246094" xlink:href="#DejaVuSans-31"/>
       <use x="190.869141" xlink:href="#DejaVuSans-33"/>
      </g>
     </g>
    </g>
    <g id="xtick_8">
     <g id="line2d_8">
      <g>
       <use style="fill:#262626;stroke:#262626;" x="419.283369" xlink:href="#maf37e4837a" y="300.196875"/>
      </g>
     </g>
     <g id="text_8">
      <!-- 2015 -->
      <g style="fill:#262626;" transform="translate(402.740869 323.074844)scale(0.13 -0.13)">
       <use xlink:href="#DejaVuSans-32"/>
       <use x="63.623047" xlink:href="#DejaVuSans-30"/>
       <use x="127.246094" xlink:href="#DejaVuSans-31"/>
       <use x="190.869141" xlink:href="#DejaVuSans-35"/>
      </g>
     </g>
    </g>
    <g id="xtick_9">
     <g id="line2d_9">
      <defs>
       <path d="M 0 0 
L 0 3 
" id="m780cbfb8e9" style="stroke:#262626;stroke-width:0.5;"/>
      </defs>
      <g>
       <use style="fill:#262626;stroke:#262626;stroke-width:0.5;" x="68.37" xlink:href="#m780cbfb8e9" y="300.196875"/>
      </g>
     </g>
    </g>
    <g id="xtick_10">
     <g id="line2d_10">
      <g>
       <use style="fill:#262626;stroke:#262626;stroke-width:0.5;" x="93.435241" xlink:href="#m780cbfb8e9" y="300.196875"/>
      </g>
     </g>
    </g>
    <g id="xtick_11">
     <g id="line2d_11">
      <g>
       <use style="fill:#262626;stroke:#262626;stroke-width:0.5;" x="118.500481" xlink:href="#m780cbfb8e9" y="300.196875"/>
      </g>
     </g>
    </g>
    <g id="xtick_12">
     <g id="line2d_12">
      <g>
       <use style="fill:#262626;stroke:#262626;stroke-width:0.5;" x="143.565722" xlink:href="#m780cbfb8e9" y="300.196875"/>
      </g>
     </g>
    </g>
    <g id="xtick_13">
     <g id="line2d_13">
      <g>
       <use style="fill:#262626;stroke:#262626;stroke-width:0.5;" x="168.630963" xlink:href="#m780cbfb8e9" y="300.196875"/>
      </g>
     </g>
    </g>
    <g id="xtick_14">
     <g id="line2d_14">
      <g>
       <use style="fill:#262626;stroke:#262626;stroke-width:0.5;" x="193.696203" xlink:href="#m780cbfb8e9" y="300.196875"/>
      </g>
     </g>
    </g>
    <g id="xtick_15">
     <g id="line2d_15">
      <g>
       <use style="fill:#262626;stroke:#262626;stroke-width:0.5;" x="218.761444" xlink:href="#m780cbfb8e9" y="300.196875"/>
      </g>
     </g>
    </g>
    <g id="xtick_16">
     <g id="line2d_16">
      <g>
       <use style="fill:#262626;stroke:#262626;stroke-width:0.5;" x="243.826684" xlink:href="#m780cbfb8e9" y="300.196875"/>
      </g>
     </g>
    </g>
    <g id="xtick_17">
     <g id="line2d_17">
      <g>
       <use style="fill:#262626;stroke:#262626;stroke-width:0.5;" x="268.891925" xlink:href="#m780cbfb8e9" y="300.196875"/>
      </g>
     </g>
    </g>
    <g id="xtick_18">
     <g id="line2d_18">
      <g>
       <use style="fill:#262626;stroke:#262626;stroke-width:0.5;" x="293.957166" xlink:href="#m780cbfb8e9" y="300.196875"/>
      </g>
     </g>
    </g>
    <g id="xtick_19">
     <g id="line2d_19">
      <g>
       <use style="fill:#262626;stroke:#262626;stroke-width:0.5;" x="319.022406" xlink:href="#m780cbfb8e9" y="300.196875"/>
      </g>
     </g>
    </g>
    <g id="xtick_20">
     <g id="line2d_20">
      <g>
       <use style="fill:#262626;stroke:#262626;stroke-width:0.5;" x="344.087647" xlink:href="#m780cbfb8e9" y="300.196875"/>
      </g>
     </g>
    </g>
    <g id="xtick_21">
     <g id="line2d_21">
      <g>
       <use style="fill:#262626;stroke:#262626;stroke-width:0.5;" x="369.152888" xlink:href="#m780cbfb8e9" y="300.196875"/>
      </g>
     </g>
    </g>
    <g id="xtick_22">
     <g id="line2d_22">
      <g>
       <use style="fill:#262626;stroke:#262626;stroke-width:0.5;" x="394.218128" xlink:href="#m780cbfb8e9" y="300.196875"/>
      </g>
     </g>
    </g>
    <g id="xtick_23">
     <g id="line2d_23">
      <g>
       <use style="fill:#262626;stroke:#262626;stroke-width:0.5;" x="419.283369" xlink:href="#m780cbfb8e9" y="300.196875"/>
      </g>
     </g>
    </g>
    <g id="xtick_24">
     <g id="line2d_24">
      <g>
       <use style="fill:#262626;stroke:#262626;stroke-width:0.5;" x="444.34861" xlink:href="#m780cbfb8e9" y="300.196875"/>
      </g>
     </g>
    </g>
    <g id="text_9">
     <!-- Year -->
     <defs>
      <path d="M -0.203125 72.90625 
L 10.40625 72.90625 
L 30.609375 42.921875 
L 50.6875 72.90625 
L 61.28125 72.90625 
L 35.5 34.71875 
L 35.5 0 
L 25.59375 0 
L 25.59375 34.71875 
z
" id="DejaVuSans-59"/>
      <path d="M 56.203125 29.59375 
L 56.203125 25.203125 
L 14.890625 25.203125 
Q 15.484375 15.921875 20.484375 11.0625 
Q 25.484375 6.203125 34.421875 6.203125 
Q 39.59375 6.203125 44.453125 7.46875 
Q 49.3125 8.734375 54.109375 11.28125 
L 54.109375 2.78125 
Q 49.265625 0.734375 44.1875 -0.34375 
Q 39.109375 -1.421875 33.890625 -1.421875 
Q 20.796875 -1.421875 13.15625 6.1875 
Q 5.515625 13.8125 5.515625 26.8125 
Q 5.515625 40.234375 12.765625 48.109375 
Q 20.015625 56 32.328125 56 
Q 43.359375 56 49.78125 48.890625 
Q 56.203125 41.796875 56.203125 29.59375 
z
M 47.21875 32.234375 
Q 47.125 39.59375 43.09375 43.984375 
Q 39.0625 48.390625 32.421875 48.390625 
Q 24.90625 48.390625 20.390625 44.140625 
Q 15.875 39.890625 15.1875 32.171875 
z
" id="DejaVuSans-65"/>
      <path d="M 34.28125 27.484375 
Q 23.390625 27.484375 19.1875 25 
Q 14.984375 22.515625 14.984375 16.5 
Q 14.984375 11.71875 18.140625 8.90625 
Q 21.296875 6.109375 26.703125 6.109375 
Q 34.1875 6.109375 38.703125 11.40625 
Q 43.21875 16.703125 43.21875 25.484375 
L 43.21875 27.484375 
z
M 52.203125 31.203125 
L 52.203125 0 
L 43.21875 0 
L 43.21875 8.296875 
Q 40.140625 3.328125 35.546875 0.953125 
Q 30.953125 -1.421875 24.3125 -1.421875 
Q 15.921875 -1.421875 10.953125 3.296875 
Q 6 8.015625 6 15.921875 
Q 6 25.140625 12.171875 29.828125 
Q 18.359375 34.515625 30.609375 34.515625 
L 43.21875 34.515625 
L 43.21875 35.40625 
Q 43.21875 41.609375 39.140625 45 
Q 35.0625 48.390625 27.6875 48.390625 
Q 23 48.390625 18.546875 47.265625 
Q 14.109375 46.140625 10.015625 43.890625 
L 10.015625 52.203125 
Q 14.9375 54.109375 19.578125 55.046875 
Q 24.21875 56 28.609375 56 
Q 40.484375 56 46.34375 49.84375 
Q 52.203125 43.703125 52.203125 31.203125 
z
" id="DejaVuSans-61"/>
      <path d="M 41.109375 46.296875 
Q 39.59375 47.171875 37.8125 47.578125 
Q 36.03125 48 33.890625 48 
Q 26.265625 48 22.1875 43.046875 
Q 18.109375 38.09375 18.109375 28.8125 
L 18.109375 0 
L 9.078125 0 
L 9.078125 54.6875 
L 18.109375 54.6875 
L 18.109375 46.1875 
Q 20.953125 51.171875 25.484375 53.578125 
Q 30.03125 56 36.53125 56 
Q 37.453125 56 38.578125 55.875 
Q 39.703125 55.765625 41.0625 55.515625 
z
" id="DejaVuSans-72"/>
     </defs>
     <g style="fill:#262626;" transform="translate(241.190313 344.975312)scale(0.2 -0.2)">
      <use xlink:href="#DejaVuSans-59"/>
      <use x="60.880859" xlink:href="#DejaVuSans-65"/>
      <use x="122.404297" xlink:href="#DejaVuSans-61"/>
      <use x="183.683594" xlink:href="#DejaVuSans-72"/>
     </g>
    </g>
   </g>
   <g id="matplotlib.axis_2">
    <g id="ytick_1">
     <g id="line2d_25">
      <defs>
       <path d="M 0 0 
L -6 0 
" id="mcc6183a0cf" style="stroke:#262626;"/>
      </defs>
      <g>
       <use style="fill:#262626;stroke:#262626;" x="68.37" xlink:href="#mcc6183a0cf" y="300.196875"/>
      </g>
     </g>
     <g id="text_10">
      <!-- 0 -->
      <g style="fill:#262626;" transform="translate(47.09875 305.135859)scale(0.13 -0.13)">
       <use xlink:href="#DejaVuSans-30"/>
      </g>
     </g>
    </g>
    <g id="ytick_2">
     <g id="line2d_26">
      <g>
       <use style="fill:#262626;stroke:#262626;" x="68.37" xlink:href="#mcc6183a0cf" y="264.433717"/>
      </g>
     </g>
     <g id="text_11">
      <!-- 25 -->
      <g style="fill:#262626;" transform="translate(38.8275 269.372701)scale(0.13 -0.13)">
       <use xlink:href="#DejaVuSans-32"/>
       <use x="63.623047" xlink:href="#DejaVuSans-35"/>
      </g>
     </g>
    </g>
    <g id="ytick_3">
     <g id="line2d_27">
      <g>
       <use style="fill:#262626;stroke:#262626;" x="68.37" xlink:href="#mcc6183a0cf" y="228.670559"/>
      </g>
     </g>
     <g id="text_12">
      <!-- 50 -->
      <g style="fill:#262626;" transform="translate(38.8275 233.609544)scale(0.13 -0.13)">
       <use xlink:href="#DejaVuSans-35"/>
       <use x="63.623047" xlink:href="#DejaVuSans-30"/>
      </g>
     </g>
    </g>
    <g id="ytick_4">
     <g id="line2d_28">
      <g>
       <use style="fill:#262626;stroke:#262626;" x="68.37" xlink:href="#mcc6183a0cf" y="192.907401"/>
      </g>
     </g>
     <g id="text_13">
      <!-- 75 -->
      <g style="fill:#262626;" transform="translate(38.8275 197.846386)scale(0.13 -0.13)">
       <use xlink:href="#DejaVuSans-37"/>
       <use x="63.623047" xlink:href="#DejaVuSans-35"/>
      </g>
     </g>
    </g>
    <g id="ytick_5">
     <g id="line2d_29">
      <g>
       <use style="fill:#262626;stroke:#262626;" x="68.37" xlink:href="#mcc6183a0cf" y="157.144243"/>
      </g>
     </g>
     <g id="text_14">
      <!-- 100 -->
      <g style="fill:#262626;" transform="translate(30.55625 162.083228)scale(0.13 -0.13)">
       <use xlink:href="#DejaVuSans-31"/>
       <use x="63.623047" xlink:href="#DejaVuSans-30"/>
       <use x="127.246094" xlink:href="#DejaVuSans-30"/>
      </g>
     </g>
    </g>
    <g id="ytick_6">
     <g id="line2d_30">
      <g>
       <use style="fill:#262626;stroke:#262626;" x="68.37" xlink:href="#mcc6183a0cf" y="121.381086"/>
      </g>
     </g>
     <g id="text_15">
      <!-- 125 -->
      <g style="fill:#262626;" transform="translate(30.55625 126.32007)scale(0.13 -0.13)">
       <use xlink:href="#DejaVuSans-31"/>
       <use x="63.623047" xlink:href="#DejaVuSans-32"/>
       <use x="127.246094" xlink:href="#DejaVuSans-35"/>
      </g>
     </g>
    </g>
    <g id="ytick_7">
     <g id="line2d_31">
      <g>
       <use style="fill:#262626;stroke:#262626;" x="68.37" xlink:href="#mcc6183a0cf" y="85.617928"/>
      </g>
     </g>
     <g id="text_16">
      <!-- 150 -->
      <g style="fill:#262626;" transform="translate(30.55625 90.556912)scale(0.13 -0.13)">
       <use xlink:href="#DejaVuSans-31"/>
       <use x="63.623047" xlink:href="#DejaVuSans-35"/>
       <use x="127.246094" xlink:href="#DejaVuSans-30"/>
      </g>
     </g>
    </g>
    <g id="ytick_8">
     <g id="line2d_32">
      <g>
       <use style="fill:#262626;stroke:#262626;" x="68.37" xlink:href="#mcc6183a0cf" y="49.85477"/>
      </g>
     </g>
     <g id="text_17">
      <!-- 175 -->
      <g style="fill:#262626;" transform="translate(30.55625 54.793754)scale(0.13 -0.13)">
       <use xlink:href="#DejaVuSans-31"/>
       <use x="63.623047" xlink:href="#DejaVuSans-37"/>
       <use x="127.246094" xlink:href="#DejaVuSans-35"/>
      </g>
     </g>
    </g>
    <g id="text_18">
     <!-- Articles (Thousands) -->
     <defs>
      <path d="M 34.1875 63.1875 
L 20.796875 26.90625 
L 47.609375 26.90625 
z
M 28.609375 72.90625 
L 39.796875 72.90625 
L 67.578125 0 
L 57.328125 0 
L 50.6875 18.703125 
L 17.828125 18.703125 
L 11.1875 0 
L 0.78125 0 
z
" id="DejaVuSans-41"/>
      <path d="M 18.3125 70.21875 
L 18.3125 54.6875 
L 36.8125 54.6875 
L 36.8125 47.703125 
L 18.3125 47.703125 
L 18.3125 18.015625 
Q 18.3125 11.328125 20.140625 9.421875 
Q 21.96875 7.515625 27.59375 7.515625 
L 36.8125 7.515625 
L 36.8125 0 
L 27.59375 0 
Q 17.1875 0 13.234375 3.875 
Q 9.28125 7.765625 9.28125 18.015625 
L 9.28125 47.703125 
L 2.6875 47.703125 
L 2.6875 54.6875 
L 9.28125 54.6875 
L 9.28125 70.21875 
z
" id="DejaVuSans-74"/>
      <path d="M 9.421875 54.6875 
L 18.40625 54.6875 
L 18.40625 0 
L 9.421875 0 
z
M 9.421875 75.984375 
L 18.40625 75.984375 
L 18.40625 64.59375 
L 9.421875 64.59375 
z
" id="DejaVuSans-69"/>
      <path d="M 48.78125 52.59375 
L 48.78125 44.1875 
Q 44.96875 46.296875 41.140625 47.34375 
Q 37.3125 48.390625 33.40625 48.390625 
Q 24.65625 48.390625 19.8125 42.84375 
Q 14.984375 37.3125 14.984375 27.296875 
Q 14.984375 17.28125 19.8125 11.734375 
Q 24.65625 6.203125 33.40625 6.203125 
Q 37.3125 6.203125 41.140625 7.25 
Q 44.96875 8.296875 48.78125 10.40625 
L 48.78125 2.09375 
Q 45.015625 0.34375 40.984375 -0.53125 
Q 36.96875 -1.421875 32.421875 -1.421875 
Q 20.0625 -1.421875 12.78125 6.34375 
Q 5.515625 14.109375 5.515625 27.296875 
Q 5.515625 40.671875 12.859375 48.328125 
Q 20.21875 56 33.015625 56 
Q 37.15625 56 41.109375 55.140625 
Q 45.0625 54.296875 48.78125 52.59375 
z
" id="DejaVuSans-63"/>
      <path d="M 9.421875 75.984375 
L 18.40625 75.984375 
L 18.40625 0 
L 9.421875 0 
z
" id="DejaVuSans-6c"/>
      <path d="M 44.28125 53.078125 
L 44.28125 44.578125 
Q 40.484375 46.53125 36.375 47.5 
Q 32.28125 48.484375 27.875 48.484375 
Q 21.1875 48.484375 17.84375 46.4375 
Q 14.5 44.390625 14.5 40.28125 
Q 14.5 37.15625 16.890625 35.375 
Q 19.28125 33.59375 26.515625 31.984375 
L 29.59375 31.296875 
Q 39.15625 29.25 43.1875 25.515625 
Q 47.21875 21.78125 47.21875 15.09375 
Q 47.21875 7.46875 41.1875 3.015625 
Q 35.15625 -1.421875 24.609375 -1.421875 
Q 20.21875 -1.421875 15.453125 -0.5625 
Q 10.6875 0.296875 5.421875 2 
L 5.421875 11.28125 
Q 10.40625 8.6875 15.234375 7.390625 
Q 20.0625 6.109375 24.8125 6.109375 
Q 31.15625 6.109375 34.5625 8.28125 
Q 37.984375 10.453125 37.984375 14.40625 
Q 37.984375 18.0625 35.515625 20.015625 
Q 33.0625 21.96875 24.703125 23.78125 
L 21.578125 24.515625 
Q 13.234375 26.265625 9.515625 29.90625 
Q 5.8125 33.546875 5.8125 39.890625 
Q 5.8125 47.609375 11.28125 51.796875 
Q 16.75 56 26.8125 56 
Q 31.78125 56 36.171875 55.265625 
Q 40.578125 54.546875 44.28125 53.078125 
z
" id="DejaVuSans-73"/>
      <path id="DejaVuSans-20"/>
      <path d="M 31 75.875 
Q 24.46875 64.65625 21.28125 53.65625 
Q 18.109375 42.671875 18.109375 31.390625 
Q 18.109375 20.125 21.3125 9.0625 
Q 24.515625 -2 31 -13.1875 
L 23.1875 -13.1875 
Q 15.875 -1.703125 12.234375 9.375 
Q 8.59375 20.453125 8.59375 31.390625 
Q 8.59375 42.28125 12.203125 53.3125 
Q 15.828125 64.359375 23.1875 75.875 
z
" id="DejaVuSans-28"/>
      <path d="M -0.296875 72.90625 
L 61.375 72.90625 
L 61.375 64.59375 
L 35.5 64.59375 
L 35.5 0 
L 25.59375 0 
L 25.59375 64.59375 
L -0.296875 64.59375 
z
" id="DejaVuSans-54"/>
      <path d="M 54.890625 33.015625 
L 54.890625 0 
L 45.90625 0 
L 45.90625 32.71875 
Q 45.90625 40.484375 42.875 44.328125 
Q 39.84375 48.1875 33.796875 48.1875 
Q 26.515625 48.1875 22.3125 43.546875 
Q 18.109375 38.921875 18.109375 30.90625 
L 18.109375 0 
L 9.078125 0 
L 9.078125 75.984375 
L 18.109375 75.984375 
L 18.109375 46.1875 
Q 21.34375 51.125 25.703125 53.5625 
Q 30.078125 56 35.796875 56 
Q 45.21875 56 50.046875 50.171875 
Q 54.890625 44.34375 54.890625 33.015625 
z
" id="DejaVuSans-68"/>
      <path d="M 30.609375 48.390625 
Q 23.390625 48.390625 19.1875 42.75 
Q 14.984375 37.109375 14.984375 27.296875 
Q 14.984375 17.484375 19.15625 11.84375 
Q 23.34375 6.203125 30.609375 6.203125 
Q 37.796875 6.203125 41.984375 11.859375 
Q 46.1875 17.53125 46.1875 27.296875 
Q 46.1875 37.015625 41.984375 42.703125 
Q 37.796875 48.390625 30.609375 48.390625 
z
M 30.609375 56 
Q 42.328125 56 49.015625 48.375 
Q 55.71875 40.765625 55.71875 27.296875 
Q 55.71875 13.875 49.015625 6.21875 
Q 42.328125 -1.421875 30.609375 -1.421875 
Q 18.84375 -1.421875 12.171875 6.21875 
Q 5.515625 13.875 5.515625 27.296875 
Q 5.515625 40.765625 12.171875 48.375 
Q 18.84375 56 30.609375 56 
z
" id="DejaVuSans-6f"/>
      <path d="M 8.5 21.578125 
L 8.5 54.6875 
L 17.484375 54.6875 
L 17.484375 21.921875 
Q 17.484375 14.15625 20.5 10.265625 
Q 23.53125 6.390625 29.59375 6.390625 
Q 36.859375 6.390625 41.078125 11.03125 
Q 45.3125 15.671875 45.3125 23.6875 
L 45.3125 54.6875 
L 54.296875 54.6875 
L 54.296875 0 
L 45.3125 0 
L 45.3125 8.40625 
Q 42.046875 3.421875 37.71875 1 
Q 33.40625 -1.421875 27.6875 -1.421875 
Q 18.265625 -1.421875 13.375 4.4375 
Q 8.5 10.296875 8.5 21.578125 
z
M 31.109375 56 
z
" id="DejaVuSans-75"/>
      <path d="M 54.890625 33.015625 
L 54.890625 0 
L 45.90625 0 
L 45.90625 32.71875 
Q 45.90625 40.484375 42.875 44.328125 
Q 39.84375 48.1875 33.796875 48.1875 
Q 26.515625 48.1875 22.3125 43.546875 
Q 18.109375 38.921875 18.109375 30.90625 
L 18.109375 0 
L 9.078125 0 
L 9.078125 54.6875 
L 18.109375 54.6875 
L 18.109375 46.1875 
Q 21.34375 51.125 25.703125 53.5625 
Q 30.078125 56 35.796875 56 
Q 45.21875 56 50.046875 50.171875 
Q 54.890625 44.34375 54.890625 33.015625 
z
" id="DejaVuSans-6e"/>
      <path d="M 45.40625 46.390625 
L 45.40625 75.984375 
L 54.390625 75.984375 
L 54.390625 0 
L 45.40625 0 
L 45.40625 8.203125 
Q 42.578125 3.328125 38.25 0.953125 
Q 33.9375 -1.421875 27.875 -1.421875 
Q 17.96875 -1.421875 11.734375 6.484375 
Q 5.515625 14.40625 5.515625 27.296875 
Q 5.515625 40.1875 11.734375 48.09375 
Q 17.96875 56 27.875 56 
Q 33.9375 56 38.25 53.625 
Q 42.578125 51.265625 45.40625 46.390625 
z
M 14.796875 27.296875 
Q 14.796875 17.390625 18.875 11.75 
Q 22.953125 6.109375 30.078125 6.109375 
Q 37.203125 6.109375 41.296875 11.75 
Q 45.40625 17.390625 45.40625 27.296875 
Q 45.40625 37.203125 41.296875 42.84375 
Q 37.203125 48.484375 30.078125 48.484375 
Q 22.953125 48.484375 18.875 42.84375 
Q 14.796875 37.203125 14.796875 27.296875 
z
" id="DejaVuSans-64"/>
      <path d="M 8.015625 75.875 
L 15.828125 75.875 
Q 23.140625 64.359375 26.78125 53.3125 
Q 30.421875 42.28125 30.421875 31.390625 
Q 30.421875 20.453125 26.78125 9.375 
Q 23.140625 -1.703125 15.828125 -13.1875 
L 8.015625 -13.1875 
Q 14.5 -2 17.703125 9.0625 
Q 20.90625 20.125 20.90625 31.390625 
Q 20.90625 42.671875 17.703125 53.65625 
Q 14.5 64.65625 8.015625 75.875 
z
" id="DejaVuSans-29"/>
     </defs>
     <g style="fill:#262626;" transform="translate(22.396875 266.701562)rotate(-90)scale(0.2 -0.2)">
      <use xlink:href="#DejaVuSans-41"/>
      <use x="68.408203" xlink:href="#DejaVuSans-72"/>
      <use x="109.521484" xlink:href="#DejaVuSans-74"/>
      <use x="148.730469" xlink:href="#DejaVuSans-69"/>
      <use x="176.513672" xlink:href="#DejaVuSans-63"/>
      <use x="231.494141" xlink:href="#DejaVuSans-6c"/>
      <use x="259.277344" xlink:href="#DejaVuSans-65"/>
      <use x="320.800781" xlink:href="#DejaVuSans-73"/>
      <use x="372.900391" xlink:href="#DejaVuSans-20"/>
      <use x="404.6875" xlink:href="#DejaVuSans-28"/>
      <use x="443.701172" xlink:href="#DejaVuSans-54"/>
      <use x="504.785156" xlink:href="#DejaVuSans-68"/>
      <use x="568.164062" xlink:href="#DejaVuSans-6f"/>
      <use x="629.345703" xlink:href="#DejaVuSans-75"/>
      <use x="692.724609" xlink:href="#DejaVuSans-73"/>
      <use x="744.824219" xlink:href="#DejaVuSans-61"/>
      <use x="806.103516" xlink:href="#DejaVuSans-6e"/>
      <use x="869.482422" xlink:href="#DejaVuSans-64"/>
      <use x="932.958984" xlink:href="#DejaVuSans-73"/>
      <use x="985.058594" xlink:href="#DejaVuSans-29"/>
     </g>
    </g>
   </g>
   <g id="line2d_33">
    <path clip-path="url(#p6c6ff46349)" d="M 68.37 299.929367 
L 72.54754 299.121119 
L 74.63631 299.184062 
L 76.72508 298.125473 
L 78.81385 299.420099 
L 80.90262 298.657629 
L 82.99139 297.544679 
L 85.08016 295.684995 
L 87.16893 293.554941 
L 89.257701 295.530498 
L 91.346471 296.951011 
L 93.435241 297.661982 
L 95.524011 285.018991 
L 97.612781 295.431792 
L 99.701551 296.292969 
L 101.790321 296.37737 
L 103.879091 293.622176 
L 105.967861 293.692272 
L 108.056631 289.143198 
L 110.145401 280.916241 
L 112.234171 242.499457 
L 114.322941 289.844156 
L 116.411711 290.904176 
L 118.500481 287.712672 
L 120.589251 289.449331 
L 122.678021 287.601091 
L 124.766791 287.430858 
L 126.855561 284.544056 
L 128.944332 286.030373 
L 131.033102 279.913442 
L 133.121872 280.502819 
L 135.210642 280.431293 
L 137.299412 282.695816 
L 139.388182 275.591822 
L 141.476952 272.719326 
L 143.565722 273.066943 
L 145.654492 263.418043 
L 147.743262 241.875748 
L 149.832032 253.222682 
L 151.920802 252.15694 
L 154.009572 250.57907 
L 156.098342 205.331522 
L 158.187112 247.145807 
L 160.275882 244.822632 
L 162.364652 240.621176 
L 164.453422 233.096608 
L 166.542193 216.08765 
L 168.630963 240.282141 
L 170.719733 245.735308 
L 172.808503 226.727904 
L 174.897273 208.767647 
L 176.986043 211.644435 
L 179.074813 187.610162 
L 181.163583 179.424691 
L 183.252353 167.665764 
L 185.341123 195.788481 
L 187.429893 179.850988 
L 189.518663 181.009714 
L 191.607433 167.757318 
L 193.696203 149.805643 
L 195.784973 167.793081 
L 197.873743 149.346444 
L 199.962513 150.985828 
L 202.051283 136.239962 
L 204.140053 131.004236 
L 206.228824 120.216637 
L 208.317594 112.237161 
L 210.406364 140.39278 
L 212.495134 135.832262 
L 214.583904 137.088264 
L 216.672674 134.632051 
L 218.761444 136.763535 
L 220.850214 141.813293 
L 222.938984 140.508653 
L 225.027754 144.00629 
L 227.116524 141.075141 
L 229.205294 126.273486 
L 231.294064 91.311422 
L 233.382834 122.771557 
L 235.471604 144.582792 
L 237.560374 142.178077 
L 239.649144 119.929101 
L 241.737914 125.249229 
L 243.826684 115.175462 
L 245.915455 137.690516 
L 247.584946 -1 
M 248.378924 -1 
L 250.092995 158.334441 
L 252.181765 160.09685 
L 254.270535 153.133048 
L 256.359305 147.126268 
L 258.448075 129.941355 
L 260.536845 173.736918 
L 262.625615 122.053433 
L 264.714385 179.560591 
L 266.803155 174.246186 
L 268.891925 161.281326 
L 270.980695 167.047777 
L 273.069465 136.795007 
L 275.158235 150.437936 
L 277.247005 168.76727 
L 279.335775 119.059341 
L 281.424545 157.809438 
L 283.513316 158.205694 
L 285.602086 187.600149 
L 287.690856 185.793394 
L 289.779626 190.921831 
L 291.868396 173.839916 
L 293.957166 174.629567 
L 296.045936 194.003184 
L 298.134706 186.764721 
L 300.223476 166.578564 
L 302.312246 165.58864 
L 304.401016 176.041496 
L 306.489786 195.798495 
L 308.578556 85.753828 
L 310.667326 193.28506 
L 312.756096 196.984401 
L 314.844866 145.721491 
L 316.933636 118.283996 
L 319.022406 189.733063 
L 321.111176 204.072659 
L 323.199947 201.46481 
L 325.288717 190.56706 
L 327.377487 203.570544 
L 329.466257 196.292027 
L 331.555027 197.90566 
L 333.643797 192.950317 
L 335.732567 197.027317 
L 337.821337 195.137592 
L 339.910107 204.105561 
L 341.998877 208.96649 
L 344.087647 202.82524 
L 346.176417 150.751221 
L 348.265187 205.92233 
L 350.353957 202.985459 
L 352.442727 193.336559 
L 354.531497 187.318335 
L 356.620267 191.834507 
L 358.709037 191.65283 
L 360.797807 201.707999 
L 362.886578 186.912066 
L 364.975348 212.878979 
L 367.064118 203.902427 
L 369.152888 186.208247 
L 371.241658 201.948328 
L 373.330428 199.894092 
L 375.419198 197.409268 
L 377.507968 205.724917 
L 379.596738 208.80341 
L 381.685508 211.1695 
L 383.774278 208.208311 
L 385.863048 209.378481 
L 387.951818 204.873754 
L 390.040588 211.610102 
L 392.129358 208.391418 
L 394.218128 203.763666 
L 396.306898 205.985273 
L 398.395668 211.38551 
L 400.484439 214.644249 
L 402.573209 204.288669 
L 404.661979 214.034844 
L 406.750749 203.31305 
L 408.839519 212.846077 
L 410.928289 168.891726 
L 413.017059 217.598286 
L 415.105829 214.823064 
L 417.194599 214.059163 
L 419.283369 209.308386 
L 421.372139 218.96873 
L 423.460909 207.3643 
L 425.549679 208.626024 
L 427.638449 211.74028 
L 429.727219 209.992177 
L 431.815989 195.672609 
L 433.904759 202.566315 
L 435.993529 215.359512 
L 438.082299 212.266714 
L 440.17107 219.194753 
L 444.34861 195.706941 
L 446.43738 191.358141 
L 448.52615 117.34414 
L 450.61492 197.725414 
L 452.70369 191.043426 
L 454.79246 177.122974 
L 456.88123 217.674103 
L 458.97 210.464251 
L 458.97 210.464251 
" style="fill:none;stroke:#4c72b0;stroke-linecap:square;stroke-width:1.75;"/>
   </g>
   <g id="patch_3">
    <path d="M 68.37 300.196875 
L 68.37 28.396875 
" style="fill:none;stroke:#000000;stroke-linecap:square;stroke-linejoin:miter;stroke-width:0.8;"/>
   </g>
   <g id="patch_4">
    <path d="M 458.97 300.196875 
L 458.97 28.396875 
" style="fill:none;stroke:#000000;stroke-linecap:square;stroke-linejoin:miter;stroke-width:0.8;"/>
   </g>
   <g id="patch_5">
    <path d="M 68.37 300.196875 
L 458.97 300.196875 
" style="fill:none;stroke:#000000;stroke-linecap:square;stroke-linejoin:miter;stroke-width:0.8;"/>
   </g>
   <g id="patch_6">
    <path d="M 68.37 28.396875 
L 458.97 28.396875 
" style="fill:none;stroke:#000000;stroke-linecap:square;stroke-linejoin:miter;stroke-width:0.8;"/>
   </g>
   <g id="text_19">
    <!-- Wikipedia Monthly Additions -->
    <defs>
     <path d="M 3.328125 72.90625 
L 13.28125 72.90625 
L 28.609375 11.28125 
L 43.890625 72.90625 
L 54.984375 72.90625 
L 70.3125 11.28125 
L 85.59375 72.90625 
L 95.609375 72.90625 
L 77.296875 0 
L 64.890625 0 
L 49.515625 63.28125 
L 33.984375 0 
L 21.578125 0 
z
" id="DejaVuSans-57"/>
     <path d="M 9.078125 75.984375 
L 18.109375 75.984375 
L 18.109375 31.109375 
L 44.921875 54.6875 
L 56.390625 54.6875 
L 27.390625 29.109375 
L 57.625 0 
L 45.90625 0 
L 18.109375 26.703125 
L 18.109375 0 
L 9.078125 0 
z
" id="DejaVuSans-6b"/>
     <path d="M 18.109375 8.203125 
L 18.109375 -20.796875 
L 9.078125 -20.796875 
L 9.078125 54.6875 
L 18.109375 54.6875 
L 18.109375 46.390625 
Q 20.953125 51.265625 25.265625 53.625 
Q 29.59375 56 35.59375 56 
Q 45.5625 56 51.78125 48.09375 
Q 58.015625 40.1875 58.015625 27.296875 
Q 58.015625 14.40625 51.78125 6.484375 
Q 45.5625 -1.421875 35.59375 -1.421875 
Q 29.59375 -1.421875 25.265625 0.953125 
Q 20.953125 3.328125 18.109375 8.203125 
z
M 48.6875 27.296875 
Q 48.6875 37.203125 44.609375 42.84375 
Q 40.53125 48.484375 33.40625 48.484375 
Q 26.265625 48.484375 22.1875 42.84375 
Q 18.109375 37.203125 18.109375 27.296875 
Q 18.109375 17.390625 22.1875 11.75 
Q 26.265625 6.109375 33.40625 6.109375 
Q 40.53125 6.109375 44.609375 11.75 
Q 48.6875 17.390625 48.6875 27.296875 
z
" id="DejaVuSans-70"/>
     <path d="M 9.8125 72.90625 
L 24.515625 72.90625 
L 43.109375 23.296875 
L 61.8125 72.90625 
L 76.515625 72.90625 
L 76.515625 0 
L 66.890625 0 
L 66.890625 64.015625 
L 48.09375 14.015625 
L 38.1875 14.015625 
L 19.390625 64.015625 
L 19.390625 0 
L 9.8125 0 
z
" id="DejaVuSans-4d"/>
     <path d="M 32.171875 -5.078125 
Q 28.375 -14.84375 24.75 -17.8125 
Q 21.140625 -20.796875 15.09375 -20.796875 
L 7.90625 -20.796875 
L 7.90625 -13.28125 
L 13.1875 -13.28125 
Q 16.890625 -13.28125 18.9375 -11.515625 
Q 21 -9.765625 23.484375 -3.21875 
L 25.09375 0.875 
L 2.984375 54.6875 
L 12.5 54.6875 
L 29.59375 11.921875 
L 46.6875 54.6875 
L 56.203125 54.6875 
z
" id="DejaVuSans-79"/>
    </defs>
    <g style="fill:#262626;" transform="translate(121.609063 22.396875)scale(0.2 -0.2)">
     <use xlink:href="#DejaVuSans-57"/>
     <use x="98.845703" xlink:href="#DejaVuSans-69"/>
     <use x="126.628906" xlink:href="#DejaVuSans-6b"/>
     <use x="184.539062" xlink:href="#DejaVuSans-69"/>
     <use x="212.322266" xlink:href="#DejaVuSans-70"/>
     <use x="275.798828" xlink:href="#DejaVuSans-65"/>
     <use x="337.322266" xlink:href="#DejaVuSans-64"/>
     <use x="400.798828" xlink:href="#DejaVuSans-69"/>
     <use x="428.582031" xlink:href="#DejaVuSans-61"/>
     <use x="489.861328" xlink:href="#DejaVuSans-20"/>
     <use x="521.648438" xlink:href="#DejaVuSans-4d"/>
     <use x="607.927734" xlink:href="#DejaVuSans-6f"/>
     <use x="669.109375" xlink:href="#DejaVuSans-6e"/>
     <use x="732.488281" xlink:href="#DejaVuSans-74"/>
     <use x="771.697266" xlink:href="#DejaVuSans-68"/>
     <use x="835.076172" xlink:href="#DejaVuSans-6c"/>
     <use x="862.859375" xlink:href="#DejaVuSans-79"/>
     <use x="922.039062" xlink:href="#DejaVuSans-20"/>
     <use x="953.826172" xlink:href="#DejaVuSans-41"/>
     <use x="1022.21875" xlink:href="#DejaVuSans-64"/>
     <use x="1085.695312" xlink:href="#DejaVuSans-64"/>
     <use x="1149.171875" xlink:href="#DejaVuSans-69"/>
     <use x="1176.955078" xlink:href="#DejaVuSans-74"/>
     <use x="1216.164062" xlink:href="#DejaVuSans-69"/>
     <use x="1243.947266" xlink:href="#DejaVuSans-6f"/>
     <use x="1305.128906" xlink:href="#DejaVuSans-6e"/>
     <use x="1368.507812" xlink:href="#DejaVuSans-73"/>
    </g>
   </g>
   <g id="legend_1">
    <g id="line2d_34">
     <path d="M 311.816875 54.59375 
L 351.816875 54.59375 
" style="fill:none;stroke:#4c72b0;stroke-linecap:square;stroke-width:1.75;"/>
    </g>
    <g id="line2d_35"/>
    <g id="text_20">
     <!-- articles -->
     <g style="fill:#262626;" transform="translate(367.816875 61.59375)scale(0.2 -0.2)">
      <use xlink:href="#DejaVuSans-61"/>
      <use x="61.279297" xlink:href="#DejaVuSans-72"/>
      <use x="102.392578" xlink:href="#DejaVuSans-74"/>
      <use x="141.601562" xlink:href="#DejaVuSans-69"/>
      <use x="169.384766" xlink:href="#DejaVuSans-63"/>
      <use x="224.365234" xlink:href="#DejaVuSans-6c"/>
      <use x="252.148438" xlink:href="#DejaVuSans-65"/>
      <use x="313.671875" xlink:href="#DejaVuSans-73"/>
     </g>
    </g>
    <g id="line2d_36">
     <path d="M 311.816875 83.95 
L 351.816875 83.95 
" style="fill:none;stroke:#55a868;stroke-linecap:square;stroke-width:1.75;"/>
    </g>
    <g id="line2d_37"/>
    <g id="text_21">
     <!-- words -->
     <defs>
      <path d="M 4.203125 54.6875 
L 13.1875 54.6875 
L 24.421875 12.015625 
L 35.59375 54.6875 
L 46.1875 54.6875 
L 57.421875 12.015625 
L 68.609375 54.6875 
L 77.59375 54.6875 
L 63.28125 0 
L 52.6875 0 
L 40.921875 44.828125 
L 29.109375 0 
L 18.5 0 
z
" id="DejaVuSans-77"/>
     </defs>
     <g style="fill:#262626;" transform="translate(367.816875 90.95)scale(0.2 -0.2)">
      <use xlink:href="#DejaVuSans-77"/>
      <use x="81.787109" xlink:href="#DejaVuSans-6f"/>
      <use x="142.96875" xlink:href="#DejaVuSans-72"/>
      <use x="184.066406" xlink:href="#DejaVuSans-64"/>
      <use x="247.542969" xlink:href="#DejaVuSans-73"/>
     </g>
    </g>
   </g>
  </g>
  <g id="axes_2">
   <g id="matplotlib.axis_3">
    <g id="ytick_9">
     <g id="line2d_38">
      <defs>
       <path d="M 0 0 
L 6 0 
" id="m79a139e49e" style="stroke:#262626;"/>
      </defs>
      <g>
       <use style="fill:#262626;stroke:#262626;" x="458.97" xlink:href="#m79a139e49e" y="300.196875"/>
      </g>
     </g>
     <g id="text_22">
      <!-- 0 -->
      <g style="fill:#262626;" transform="translate(471.97 305.135859)scale(0.13 -0.13)">
       <use xlink:href="#DejaVuSans-30"/>
      </g>
     </g>
    </g>
    <g id="ytick_10">
     <g id="line2d_39">
      <g>
       <use style="fill:#262626;stroke:#262626;" x="458.97" xlink:href="#m79a139e49e" y="253.334806"/>
      </g>
     </g>
     <g id="text_23">
      <!-- 50 -->
      <g style="fill:#262626;" transform="translate(471.97 258.27379)scale(0.13 -0.13)">
       <use xlink:href="#DejaVuSans-35"/>
       <use x="63.623047" xlink:href="#DejaVuSans-30"/>
      </g>
     </g>
    </g>
    <g id="ytick_11">
     <g id="line2d_40">
      <g>
       <use style="fill:#262626;stroke:#262626;" x="458.97" xlink:href="#m79a139e49e" y="206.472737"/>
      </g>
     </g>
     <g id="text_24">
      <!-- 100 -->
      <g style="fill:#262626;" transform="translate(471.97 211.411721)scale(0.13 -0.13)">
       <use xlink:href="#DejaVuSans-31"/>
       <use x="63.623047" xlink:href="#DejaVuSans-30"/>
       <use x="127.246094" xlink:href="#DejaVuSans-30"/>
      </g>
     </g>
    </g>
    <g id="ytick_12">
     <g id="line2d_41">
      <g>
       <use style="fill:#262626;stroke:#262626;" x="458.97" xlink:href="#m79a139e49e" y="159.610668"/>
      </g>
     </g>
     <g id="text_25">
      <!-- 150 -->
      <g style="fill:#262626;" transform="translate(471.97 164.549652)scale(0.13 -0.13)">
       <use xlink:href="#DejaVuSans-31"/>
       <use x="63.623047" xlink:href="#DejaVuSans-35"/>
       <use x="127.246094" xlink:href="#DejaVuSans-30"/>
      </g>
     </g>
    </g>
    <g id="ytick_13">
     <g id="line2d_42">
      <g>
       <use style="fill:#262626;stroke:#262626;" x="458.97" xlink:href="#m79a139e49e" y="112.748599"/>
      </g>
     </g>
     <g id="text_26">
      <!-- 200 -->
      <g style="fill:#262626;" transform="translate(471.97 117.687584)scale(0.13 -0.13)">
       <use xlink:href="#DejaVuSans-32"/>
       <use x="63.623047" xlink:href="#DejaVuSans-30"/>
       <use x="127.246094" xlink:href="#DejaVuSans-30"/>
      </g>
     </g>
    </g>
    <g id="ytick_14">
     <g id="line2d_43">
      <g>
       <use style="fill:#262626;stroke:#262626;" x="458.97" xlink:href="#m79a139e49e" y="65.88653"/>
      </g>
     </g>
     <g id="text_27">
      <!-- 250 -->
      <g style="fill:#262626;" transform="translate(471.97 70.825515)scale(0.13 -0.13)">
       <use xlink:href="#DejaVuSans-32"/>
       <use x="63.623047" xlink:href="#DejaVuSans-35"/>
       <use x="127.246094" xlink:href="#DejaVuSans-30"/>
      </g>
     </g>
    </g>
    <g id="text_28">
     <!-- Words (Millions) -->
     <g style="fill:#262626;" transform="translate(515.980625 244.35)rotate(-90)scale(0.2 -0.2)">
      <use xlink:href="#DejaVuSans-57"/>
      <use x="98.798828" xlink:href="#DejaVuSans-6f"/>
      <use x="159.980469" xlink:href="#DejaVuSans-72"/>
      <use x="201.078125" xlink:href="#DejaVuSans-64"/>
      <use x="264.554688" xlink:href="#DejaVuSans-73"/>
      <use x="316.654297" xlink:href="#DejaVuSans-20"/>
      <use x="348.441406" xlink:href="#DejaVuSans-28"/>
      <use x="387.455078" xlink:href="#DejaVuSans-4d"/>
      <use x="473.734375" xlink:href="#DejaVuSans-69"/>
      <use x="501.517578" xlink:href="#DejaVuSans-6c"/>
      <use x="529.300781" xlink:href="#DejaVuSans-6c"/>
      <use x="557.083984" xlink:href="#DejaVuSans-69"/>
      <use x="584.867188" xlink:href="#DejaVuSans-6f"/>
      <use x="646.048828" xlink:href="#DejaVuSans-6e"/>
      <use x="709.427734" xlink:href="#DejaVuSans-73"/>
      <use x="761.527344" xlink:href="#DejaVuSans-29"/>
     </g>
    </g>
   </g>
   <g id="line2d_44">
    <path clip-path="url(#p6c6ff46349)" d="M 68.37 300.150014 
L 70.45877 300.035466 
L 72.54754 299.983355 
L 80.90262 299.990217 
L 85.08016 299.368869 
L 87.16893 299.110785 
L 89.257701 298.997554 
L 93.435241 299.512046 
L 95.524011 298.008221 
L 97.612781 299.089688 
L 101.790321 299.514997 
L 103.879091 298.874849 
L 105.967861 299.042029 
L 108.056631 298.461387 
L 110.145401 296.741215 
L 112.234171 285.538306 
L 114.322941 297.775715 
L 116.411711 297.232346 
L 118.500481 297.086154 
L 120.589251 297.483079 
L 122.678021 297.190132 
L 124.766791 297.246764 
L 126.855561 296.339034 
L 128.944332 296.771737 
L 131.033102 295.074628 
L 135.210642 295.484408 
L 137.299412 295.355993 
L 139.388182 294.763212 
L 143.565722 292.7469 
L 145.654492 291.355865 
L 147.743262 287.686192 
L 149.832032 288.475637 
L 151.920802 288.574889 
L 154.009572 287.973855 
L 156.098342 286.223132 
L 158.187112 284.205369 
L 160.275882 282.418442 
L 162.364652 279.453729 
L 164.453422 272.985753 
L 166.542193 272.94853 
L 168.630963 274.332463 
L 170.719733 276.867847 
L 172.808503 267.555166 
L 174.897273 256.108652 
L 176.986043 254.25151 
L 179.074813 256.009386 
L 181.163583 244.308918 
L 183.252353 240.388723 
L 185.341123 236.71607 
L 187.429893 215.173397 
L 189.518663 201.853589 
L 191.607433 165.292789 
L 193.696203 151.738173 
L 195.784973 169.496899 
L 197.873743 158.354419 
L 199.962513 170.787631 
L 202.051283 143.070123 
L 204.140053 168.331443 
L 206.228824 172.000786 
L 208.317594 160.923813 
L 210.406364 138.282629 
L 212.495134 97.471634 
L 214.583904 98.484127 
L 216.672674 125.699938 
L 220.850214 75.24024 
L 222.938984 58.225523 
L 225.027754 73.155617 
L 227.116524 69.282059 
L 229.205294 135.042244 
L 231.294064 138.349192 
L 233.382834 146.696558 
L 235.471604 116.211017 
L 237.560374 89.159987 
L 239.649144 115.372311 
L 241.737914 129.699289 
L 243.826684 105.305575 
L 245.915455 98.026804 
L 248.004225 88.463544 
L 250.092995 76.675379 
L 252.181765 93.970252 
L 254.270535 142.5698 
L 256.359305 146.23758 
L 258.448075 132.814931 
L 260.536845 102.584701 
L 262.625615 90.60681 
L 264.714385 120.147841 
L 266.803155 129.981414 
L 268.891925 111.946694 
L 270.980695 109.883974 
L 273.069465 125.001776 
L 275.158235 174.333262 
L 277.247005 172.607564 
L 279.335775 187.174655 
L 281.424545 187.590647 
L 283.513316 188.982793 
L 285.602086 180.346314 
L 287.690856 170.88695 
L 289.779626 180.446037 
L 291.868396 188.611474 
L 293.957166 174.527917 
L 296.045936 178.907931 
L 298.134706 166.633146 
L 300.223476 175.119095 
L 302.312246 178.37396 
L 304.401016 194.271721 
L 306.489786 198.792245 
L 308.578556 195.525629 
L 310.667326 183.160386 
L 312.756096 183.35063 
L 314.844866 189.173451 
L 316.933636 199.294081 
L 319.022406 193.562139 
L 321.111176 198.808369 
L 323.199947 197.312466 
L 325.288717 199.326593 
L 327.377487 200.332069 
L 329.466257 207.132189 
L 333.643797 204.163875 
L 335.732567 203.622662 
L 337.821337 198.457049 
L 339.910107 198.676982 
L 341.998877 204.250314 
L 344.087647 200.349836 
L 346.176417 201.839372 
L 348.265187 195.175035 
L 350.353957 200.319948 
L 352.442727 192.46103 
L 354.531497 207.017018 
L 356.620267 204.556303 
L 358.709037 202.570448 
L 360.797807 205.373044 
L 362.886578 194.336882 
L 364.975348 198.16303 
L 367.064118 200.738782 
L 369.152888 196.272797 
L 371.241658 205.932162 
L 373.330428 199.144144 
L 375.419198 200.176125 
L 377.507968 195.007863 
L 379.596738 204.052578 
L 381.685508 212.367957 
L 383.774278 210.583766 
L 385.863048 212.470319 
L 387.951818 200.710511 
L 390.040588 204.854953 
L 392.129358 207.071764 
L 394.218128 199.516679 
L 396.306898 206.836535 
L 398.395668 200.199728 
L 400.484439 205.013956 
L 402.573209 203.470149 
L 404.661979 214.766972 
L 406.750749 211.5118 
L 408.839519 213.266691 
L 410.928289 211.266469 
L 413.017059 209.026053 
L 415.105829 209.665445 
L 417.194599 210.038448 
L 419.283369 203.794096 
L 421.372139 210.62826 
L 423.460909 199.378586 
L 425.549679 205.704957 
L 427.638449 203.609394 
L 429.727219 209.617634 
L 431.815989 205.454187 
L 433.904759 204.004374 
L 435.993529 205.438276 
L 438.082299 200.678621 
L 440.17107 203.168159 
L 442.25984 206.26913 
L 444.34861 198.097992 
L 446.43738 195.953876 
L 448.52615 193.494946 
L 450.61492 195.7537 
L 452.70369 195.670974 
L 454.79246 208.330452 
L 456.88123 205.439347 
L 458.97 208.017158 
L 458.97 208.017158 
" style="fill:none;stroke:#55a868;stroke-linecap:square;stroke-width:1.75;"/>
   </g>
   <g id="patch_7">
    <path d="M 68.37 300.196875 
L 68.37 28.396875 
" style="fill:none;stroke:#000000;stroke-linecap:square;stroke-linejoin:miter;stroke-width:0.8;"/>
   </g>
   <g id="patch_8">
    <path d="M 458.97 300.196875 
L 458.97 28.396875 
" style="fill:none;stroke:#000000;stroke-linecap:square;stroke-linejoin:miter;stroke-width:0.8;"/>
   </g>
   <g id="patch_9">
    <path d="M 68.37 300.196875 
L 458.97 300.196875 
" style="fill:none;stroke:#000000;stroke-linecap:square;stroke-linejoin:miter;stroke-width:0.8;"/>
   </g>
   <g id="patch_10">
    <path d="M 68.37 28.396875 
L 458.97 28.396875 
" style="fill:none;stroke:#000000;stroke-linecap:square;stroke-linejoin:miter;stroke-width:0.8;"/>
   </g>
  </g>
 </g>
 <defs>
  <clipPath id="p6c6ff46349">
   <rect height="271.8" width="390.6" x="68.37" y="28.396875"/>
  </clipPath>
 </defs>
</svg>
