<?xml version="1.0" encoding="utf-8" standalone="no"?>
<!DOCTYPE svg PUBLIC "-//W3C//DTD SVG 1.1//EN"
  "http://www.w3.org/Graphics/SVG/1.1/DTD/svg11.dtd">
<!-- Created with matplotlib (http://matplotlib.org/) -->
<svg height="360pt" version="1.1" viewBox="0 0 720 360" width="720pt" xmlns="http://www.w3.org/2000/svg" xmlns:xlink="http://www.w3.org/1999/xlink">
 <defs>
  <style type="text/css">
*{stroke-linecap:butt;stroke-linejoin:round;}
  </style>
 </defs>
 <g id="figure_1">
  <g id="patch_1">
   <path d="
M0 360
L720 360
L720 0
L0 0
z
" style="fill:#ffffff;"/>
  </g>
  <g id="axes_1">
   <g id="patch_2">
    <path d="
M51.3841 304.277
L351.017 304.277
L351.017 28.9034
L51.3841 28.9034
z
" style="fill:#ffffff;"/>
   </g>
   <g id="matplotlib.axis_1">
    <g id="xtick_1">
     <g id="line2d_1">
      <path clip-path="url(#pdd21bf0870)" d="
M51.3841 304.277
L51.3841 28.9034" style="fill:none;stroke:#cccccc;stroke-linecap:round;"/>
     </g>
     <g id="line2d_2">
      <defs>
       <path d="
M0 0
L0 0" id="m219da94a98" style="stroke:#262626;"/>
      </defs>
      <g>
       <use style="fill:#262626;stroke:#262626;" x="51.3840625" xlink:href="#m219da94a98" y="304.276875"/>
      </g>
     </g>
     <g id="line2d_3">
      <g>
       <use style="fill:#262626;stroke:#262626;" x="51.3840625" xlink:href="#m219da94a98" y="28.9034375"/>
      </g>
     </g>
     <g id="text_1">
      <!-- 0 -->
      <defs>
       <path d="
M4.15625 35.2969
Q4.15625 48 6.76562 55.7344
Q9.375 63.4844 14.5156 67.6719
Q19.6719 71.875 27.4844 71.875
Q33.25 71.875 37.5938 69.5469
Q41.9375 67.2344 44.7656 62.8594
Q47.6094 58.5 49.2188 52.2188
Q50.8281 45.9531 50.8281 35.2969
Q50.8281 22.7031 48.2344 14.9688
Q45.6562 7.23438 40.5 3
Q35.3594 -1.21875 27.4844 -1.21875
Q17.1406 -1.21875 11.2344 6.20312
Q4.15625 15.1406 4.15625 35.2969
M13.1875 35.2969
Q13.1875 17.6719 17.3125 11.8281
Q21.4375 6 27.4844 6
Q33.5469 6 37.6719 11.8594
Q41.7969 17.7188 41.7969 35.2969
Q41.7969 52.9844 37.6719 58.7812
Q33.5469 64.5938 27.3906 64.5938
Q21.3438 64.5938 17.7188 59.4688
Q13.1875 52.9375 13.1875 35.2969" id="ArialMT-30"/>
      </defs>
      <g style="fill:#262626;" transform="translate(47.18359375 324.1609375)scale(0.18 -0.18)">
       <use xlink:href="#ArialMT-30"/>
      </g>
     </g>
    </g>
    <g id="xtick_2">
     <g id="line2d_4">
      <path clip-path="url(#pdd21bf0870)" d="
M111.311 304.277
L111.311 28.9034" style="fill:none;stroke:#cccccc;stroke-linecap:round;"/>
     </g>
     <g id="line2d_5">
      <g>
       <use style="fill:#262626;stroke:#262626;" x="111.310625" xlink:href="#m219da94a98" y="304.276875"/>
      </g>
     </g>
     <g id="line2d_6">
      <g>
       <use style="fill:#262626;stroke:#262626;" x="111.310625" xlink:href="#m219da94a98" y="28.9034375"/>
      </g>
     </g>
     <g id="text_2">
      <!-- 2 -->
      <defs>
       <path d="
M50.3438 8.45312
L50.3438 0
L3.03125 0
Q2.9375 3.17188 4.04688 6.10938
Q5.85938 10.9375 9.82812 15.625
Q13.8125 20.3125 21.3438 26.4688
Q33.0156 36.0312 37.1094 41.625
Q41.2188 47.2188 41.2188 52.2031
Q41.2188 57.4219 37.4688 61
Q33.7344 64.5938 27.7344 64.5938
Q21.3906 64.5938 17.5781 60.7812
Q13.7656 56.9844 13.7188 50.25
L4.6875 51.1719
Q5.60938 61.2812 11.6562 66.5781
Q17.7188 71.875 27.9375 71.875
Q38.2344 71.875 44.2344 66.1562
Q50.25 60.4531 50.25 52
Q50.25 47.7031 48.4844 43.5469
Q46.7344 39.4062 42.6562 34.8125
Q38.5781 30.2188 29.1094 22.2188
Q21.1875 15.5781 18.9375 13.2031
Q16.7031 10.8438 15.2344 8.45312
z
" id="ArialMT-32"/>
      </defs>
      <g style="fill:#262626;" transform="translate(107.0440625 324.1609375)scale(0.18 -0.18)">
       <use xlink:href="#ArialMT-32"/>
      </g>
     </g>
    </g>
    <g id="xtick_3">
     <g id="line2d_7">
      <path clip-path="url(#pdd21bf0870)" d="
M171.237 304.277
L171.237 28.9034" style="fill:none;stroke:#cccccc;stroke-linecap:round;"/>
     </g>
     <g id="line2d_8">
      <g>
       <use style="fill:#262626;stroke:#262626;" x="171.2371875" xlink:href="#m219da94a98" y="304.276875"/>
      </g>
     </g>
     <g id="line2d_9">
      <g>
       <use style="fill:#262626;stroke:#262626;" x="171.2371875" xlink:href="#m219da94a98" y="28.9034375"/>
      </g>
     </g>
     <g id="text_3">
      <!-- 4 -->
      <defs>
       <path d="
M32.3281 0
L32.3281 17.1406
L1.26562 17.1406
L1.26562 25.2031
L33.9375 71.5781
L41.1094 71.5781
L41.1094 25.2031
L50.7812 25.2031
L50.7812 17.1406
L41.1094 17.1406
L41.1094 0
z

M32.3281 25.2031
L32.3281 57.4688
L9.90625 25.2031
z
" id="ArialMT-34"/>
      </defs>
      <g style="fill:#262626;" transform="translate(166.78078125 324.1609375)scale(0.18 -0.18)">
       <use xlink:href="#ArialMT-34"/>
      </g>
     </g>
    </g>
    <g id="xtick_4">
     <g id="line2d_10">
      <path clip-path="url(#pdd21bf0870)" d="
M231.164 304.277
L231.164 28.9034" style="fill:none;stroke:#cccccc;stroke-linecap:round;"/>
     </g>
     <g id="line2d_11">
      <g>
       <use style="fill:#262626;stroke:#262626;" x="231.16375" xlink:href="#m219da94a98" y="304.276875"/>
      </g>
     </g>
     <g id="line2d_12">
      <g>
       <use style="fill:#262626;stroke:#262626;" x="231.16375" xlink:href="#m219da94a98" y="28.9034375"/>
      </g>
     </g>
     <g id="text_4">
      <!-- 6 -->
      <defs>
       <path d="
M49.75 54.0469
L41.0156 53.375
Q39.8438 58.5469 37.7031 60.8906
Q34.125 64.6562 28.9062 64.6562
Q24.7031 64.6562 21.5312 62.3125
Q17.3906 59.2812 14.9844 53.4688
Q12.5938 47.6562 12.5 36.9219
Q15.6719 41.75 20.2656 44.0938
Q24.8594 46.4375 29.8906 46.4375
Q38.6719 46.4375 44.8438 39.9688
Q51.0312 33.5 51.0312 23.25
Q51.0312 16.5 48.125 10.7188
Q45.2188 4.9375 40.1406 1.85938
Q35.0625 -1.21875 28.6094 -1.21875
Q17.625 -1.21875 10.6875 6.85938
Q3.76562 14.9375 3.76562 33.5
Q3.76562 54.25 11.4219 63.6719
Q18.1094 71.875 29.4375 71.875
Q37.8906 71.875 43.2812 67.1406
Q48.6875 62.4062 49.75 54.0469
M13.875 23.1875
Q13.875 18.6562 15.7969 14.5
Q17.7188 10.3594 21.1875 8.17188
Q24.6562 6 28.4688 6
Q34.0312 6 38.0312 10.4844
Q42.0469 14.9844 42.0469 22.7031
Q42.0469 30.125 38.0781 34.3906
Q34.125 38.6719 28.125 38.6719
Q22.1719 38.6719 18.0156 34.3906
Q13.875 30.125 13.875 23.1875" id="ArialMT-36"/>
      </defs>
      <g style="fill:#262626;" transform="translate(226.90984375 324.1609375)scale(0.18 -0.18)">
       <use xlink:href="#ArialMT-36"/>
      </g>
     </g>
    </g>
    <g id="xtick_5">
     <g id="line2d_13">
      <path clip-path="url(#pdd21bf0870)" d="
M291.09 304.277
L291.09 28.9034" style="fill:none;stroke:#cccccc;stroke-linecap:round;"/>
     </g>
     <g id="line2d_14">
      <g>
       <use style="fill:#262626;stroke:#262626;" x="291.0903125" xlink:href="#m219da94a98" y="304.276875"/>
      </g>
     </g>
     <g id="line2d_15">
      <g>
       <use style="fill:#262626;stroke:#262626;" x="291.0903125" xlink:href="#m219da94a98" y="28.9034375"/>
      </g>
     </g>
     <g id="text_5">
      <!-- 8 -->
      <defs>
       <path d="
M17.6719 38.8125
Q12.2031 40.8281 9.5625 44.5312
Q6.9375 48.25 6.9375 53.4219
Q6.9375 61.2344 12.5469 66.5469
Q18.1719 71.875 27.4844 71.875
Q36.8594 71.875 42.5781 66.4219
Q48.2969 60.9844 48.2969 53.1719
Q48.2969 48.1875 45.6719 44.5
Q43.0625 40.8281 37.75 38.8125
Q44.3438 36.6719 47.7812 31.875
Q51.2188 27.0938 51.2188 20.4531
Q51.2188 11.2812 44.7188 5.03125
Q38.2344 -1.21875 27.6406 -1.21875
Q17.0469 -1.21875 10.5469 5.04688
Q4.04688 11.3281 4.04688 20.7031
Q4.04688 27.6875 7.59375 32.3906
Q11.1406 37.1094 17.6719 38.8125
M15.9219 53.7188
Q15.9219 48.6406 19.1875 45.4062
Q22.4688 42.1875 27.6875 42.1875
Q32.7656 42.1875 36.0156 45.375
Q39.2656 48.5781 39.2656 53.2188
Q39.2656 58.0625 35.9062 61.3594
Q32.5625 64.6562 27.5938 64.6562
Q22.5625 64.6562 19.2344 61.4219
Q15.9219 58.2031 15.9219 53.7188
M13.0938 20.6562
Q13.0938 16.8906 14.875 13.375
Q16.6562 9.85938 20.1719 7.92188
Q23.6875 6 27.7344 6
Q34.0312 6 38.125 10.0469
Q42.2344 14.1094 42.2344 20.3594
Q42.2344 26.7031 38.0156 30.8594
Q33.7969 35.0156 27.4375 35.0156
Q21.2344 35.0156 17.1562 30.9062
Q13.0938 26.8125 13.0938 20.6562" id="ArialMT-38"/>
      </defs>
      <g style="fill:#262626;" transform="translate(286.84484375 324.1609375)scale(0.18 -0.18)">
       <use xlink:href="#ArialMT-38"/>
      </g>
     </g>
    </g>
    <g id="xtick_6">
     <g id="line2d_16">
      <path clip-path="url(#pdd21bf0870)" d="
M351.017 304.277
L351.017 28.9034" style="fill:none;stroke:#cccccc;stroke-linecap:round;"/>
     </g>
     <g id="line2d_17">
      <g>
       <use style="fill:#262626;stroke:#262626;" x="351.016875" xlink:href="#m219da94a98" y="304.276875"/>
      </g>
     </g>
     <g id="line2d_18">
      <g>
       <use style="fill:#262626;stroke:#262626;" x="351.016875" xlink:href="#m219da94a98" y="28.9034375"/>
      </g>
     </g>
     <g id="text_6">
      <!-- 10 -->
      <defs>
       <path d="
M37.25 0
L28.4688 0
L28.4688 56
Q25.2969 52.9844 20.1406 49.9531
Q14.9844 46.9219 10.8906 45.4062
L10.8906 53.9062
Q18.2656 57.375 23.7812 62.2969
Q29.2969 67.2344 31.5938 71.875
L37.25 71.875
z
" id="ArialMT-31"/>
      </defs>
      <g style="fill:#262626;" transform="translate(342.41765625 324.1609375)scale(0.18 -0.18)">
       <use xlink:href="#ArialMT-31"/>
       <use x="55.615234375" xlink:href="#ArialMT-30"/>
      </g>
     </g>
    </g>
    <g id="text_7">
     <!-- Time -->
     <defs>
      <path d="
M6.64062 61.4688
L6.64062 71.5781
L15.4375 71.5781
L15.4375 61.4688
z

M6.64062 0
L6.64062 51.8594
L15.4375 51.8594
L15.4375 0
z
" id="ArialMT-69"/>
      <path d="
M42.0938 16.7031
L51.1719 15.5781
Q49.0312 7.625 43.2188 3.21875
Q37.4062 -1.17188 28.375 -1.17188
Q17 -1.17188 10.3281 5.82812
Q3.65625 12.8438 3.65625 25.4844
Q3.65625 38.5781 10.3906 45.7969
Q17.1406 53.0312 27.875 53.0312
Q38.2812 53.0312 44.875 45.9531
Q51.4688 38.875 51.4688 26.0312
Q51.4688 25.25 51.4219 23.6875
L12.75 23.6875
Q13.2344 15.1406 17.5781 10.5938
Q21.9219 6.0625 28.4219 6.0625
Q33.25 6.0625 36.6719 8.59375
Q40.0938 11.1406 42.0938 16.7031
M13.2344 30.9062
L42.1875 30.9062
Q41.6094 37.4531 38.875 40.7188
Q34.6719 45.7969 27.9844 45.7969
Q21.9219 45.7969 17.7969 41.75
Q13.6719 37.7031 13.2344 30.9062" id="ArialMT-65"/>
      <path d="
M25.9219 0
L25.9219 63.1406
L2.34375 63.1406
L2.34375 71.5781
L59.0781 71.5781
L59.0781 63.1406
L35.4062 63.1406
L35.4062 0
z
" id="ArialMT-54"/>
      <path d="
M6.59375 0
L6.59375 51.8594
L14.4531 51.8594
L14.4531 44.5781
Q16.8906 48.3906 20.9375 50.7031
Q25 53.0312 30.1719 53.0312
Q35.9375 53.0312 39.625 50.6406
Q43.3125 48.25 44.8281 43.9531
Q50.9844 53.0312 60.8438 53.0312
Q68.5625 53.0312 72.7031 48.75
Q76.8594 44.4844 76.8594 35.5938
L76.8594 0
L68.1094 0
L68.1094 32.6719
Q68.1094 37.9375 67.25 40.25
Q66.4062 42.5781 64.1562 43.9844
Q61.9219 45.4062 58.8906 45.4062
Q53.4219 45.4062 49.7969 41.7656
Q46.1875 38.1406 46.1875 30.125
L46.1875 0
L37.4062 0
L37.4062 33.6875
Q37.4062 39.5469 35.25 42.4688
Q33.1094 45.4062 28.2188 45.4062
Q24.5156 45.4062 21.3594 43.4531
Q18.2188 41.5 16.7969 37.7344
Q15.375 33.9844 15.375 26.9062
L15.375 0
z
" id="ArialMT-6d"/>
     </defs>
     <g style="fill:#262626;" transform="translate(182.12328125 345.6225)scale(0.18 -0.18)">
      <use xlink:href="#ArialMT-54"/>
      <use x="57.333984375" xlink:href="#ArialMT-69"/>
      <use x="79.55078125" xlink:href="#ArialMT-6d"/>
      <use x="162.8515625" xlink:href="#ArialMT-65"/>
     </g>
    </g>
   </g>
   <g id="matplotlib.axis_2">
    <g id="ytick_1">
     <g id="line2d_19">
      <path clip-path="url(#pdd21bf0870)" d="
M51.3841 304.277
L351.017 304.277" style="fill:none;stroke:#cccccc;stroke-linecap:round;"/>
     </g>
     <g id="line2d_20">
      <g>
       <use style="fill:#262626;stroke:#262626;" x="51.3840625" xlink:href="#m219da94a98" y="304.276875"/>
      </g>
     </g>
     <g id="line2d_21">
      <g>
       <use style="fill:#262626;stroke:#262626;" x="351.016875" xlink:href="#m219da94a98" y="304.276875"/>
      </g>
     </g>
     <g id="text_8">
      <!-- −0.2 -->
      <defs>
       <path d="
M52.8281 31.2031
L5.5625 31.2031
L5.5625 39.4062
L52.8281 39.4062
z
" id="ArialMT-2212"/>
       <path d="
M9.07812 0
L9.07812 10.0156
L19.0938 10.0156
L19.0938 0
z
" id="ArialMT-2e"/>
      </defs>
      <g style="fill:#262626;" transform="translate(10.8 308.93015625)scale(0.18 -0.18)">
       <use xlink:href="#ArialMT-2212"/>
       <use x="58.3984375" xlink:href="#ArialMT-30"/>
       <use x="114.013671875" xlink:href="#ArialMT-2e"/>
       <use x="141.796875" xlink:href="#ArialMT-32"/>
      </g>
     </g>
    </g>
    <g id="ytick_2">
     <g id="line2d_22">
      <path clip-path="url(#pdd21bf0870)" d="
M51.3841 264.938
L351.017 264.938" style="fill:none;stroke:#cccccc;stroke-linecap:round;"/>
     </g>
     <g id="line2d_23">
      <g>
       <use style="fill:#262626;stroke:#262626;" x="51.3840625" xlink:href="#m219da94a98" y="264.9378125"/>
      </g>
     </g>
     <g id="line2d_24">
      <g>
       <use style="fill:#262626;stroke:#262626;" x="351.016875" xlink:href="#m219da94a98" y="264.9378125"/>
      </g>
     </g>
     <g id="text_9">
      <!-- −0.1 -->
      <g style="fill:#262626;" transform="translate(13.156875 269.59109375)scale(0.18 -0.18)">
       <use xlink:href="#ArialMT-2212"/>
       <use x="58.3984375" xlink:href="#ArialMT-30"/>
       <use x="114.013671875" xlink:href="#ArialMT-2e"/>
       <use x="141.796875" xlink:href="#ArialMT-31"/>
      </g>
     </g>
    </g>
    <g id="ytick_3">
     <g id="line2d_25">
      <path clip-path="url(#pdd21bf0870)" d="
M51.3841 225.599
L351.017 225.599" style="fill:none;stroke:#cccccc;stroke-linecap:round;"/>
     </g>
     <g id="line2d_26">
      <g>
       <use style="fill:#262626;stroke:#262626;" x="51.3840625" xlink:href="#m219da94a98" y="225.59875"/>
      </g>
     </g>
     <g id="line2d_27">
      <g>
       <use style="fill:#262626;stroke:#262626;" x="351.016875" xlink:href="#m219da94a98" y="225.59875"/>
      </g>
     </g>
     <g id="text_10">
      <!-- 0.0 -->
      <g style="fill:#262626;" transform="translate(20.9728125 230.25203125)scale(0.18 -0.18)">
       <use xlink:href="#ArialMT-30"/>
       <use x="55.615234375" xlink:href="#ArialMT-2e"/>
       <use x="83.3984375" xlink:href="#ArialMT-30"/>
      </g>
     </g>
    </g>
    <g id="ytick_4">
     <g id="line2d_28">
      <path clip-path="url(#pdd21bf0870)" d="
M51.3841 186.26
L351.017 186.26" style="fill:none;stroke:#cccccc;stroke-linecap:round;"/>
     </g>
     <g id="line2d_29">
      <g>
       <use style="fill:#262626;stroke:#262626;" x="51.3840625" xlink:href="#m219da94a98" y="186.2596875"/>
      </g>
     </g>
     <g id="line2d_30">
      <g>
       <use style="fill:#262626;stroke:#262626;" x="351.016875" xlink:href="#m219da94a98" y="186.2596875"/>
      </g>
     </g>
     <g id="text_11">
      <!-- 0.1 -->
      <g style="fill:#262626;" transform="translate(23.416875 190.91296875)scale(0.18 -0.18)">
       <use xlink:href="#ArialMT-30"/>
       <use x="55.615234375" xlink:href="#ArialMT-2e"/>
       <use x="83.3984375" xlink:href="#ArialMT-31"/>
      </g>
     </g>
    </g>
    <g id="ytick_5">
     <g id="line2d_31">
      <path clip-path="url(#pdd21bf0870)" d="
M51.3841 146.921
L351.017 146.921" style="fill:none;stroke:#cccccc;stroke-linecap:round;"/>
     </g>
     <g id="line2d_32">
      <g>
       <use style="fill:#262626;stroke:#262626;" x="51.3840625" xlink:href="#m219da94a98" y="146.920625"/>
      </g>
     </g>
     <g id="line2d_33">
      <g>
       <use style="fill:#262626;stroke:#262626;" x="351.016875" xlink:href="#m219da94a98" y="146.920625"/>
      </g>
     </g>
     <g id="text_12">
      <!-- 0.2 -->
      <g style="fill:#262626;" transform="translate(21.06 151.57390625)scale(0.18 -0.18)">
       <use xlink:href="#ArialMT-30"/>
       <use x="55.615234375" xlink:href="#ArialMT-2e"/>
       <use x="83.3984375" xlink:href="#ArialMT-32"/>
      </g>
     </g>
    </g>
    <g id="ytick_6">
     <g id="line2d_34">
      <path clip-path="url(#pdd21bf0870)" d="
M51.3841 107.582
L351.017 107.582" style="fill:none;stroke:#cccccc;stroke-linecap:round;"/>
     </g>
     <g id="line2d_35">
      <g>
       <use style="fill:#262626;stroke:#262626;" x="51.3840625" xlink:href="#m219da94a98" y="107.5815625"/>
      </g>
     </g>
     <g id="line2d_36">
      <g>
       <use style="fill:#262626;stroke:#262626;" x="351.016875" xlink:href="#m219da94a98" y="107.5815625"/>
      </g>
     </g>
     <g id="text_13">
      <!-- 0.3 -->
      <defs>
       <path d="
M4.20312 18.8906
L12.9844 20.0625
Q14.5 12.5938 18.1406 9.29688
Q21.7812 6 27 6
Q33.2031 6 37.4688 10.2969
Q41.75 14.5938 41.75 20.9531
Q41.75 27 37.7969 30.9219
Q33.8438 34.8594 27.7344 34.8594
Q25.25 34.8594 21.5312 33.8906
L22.5156 41.6094
Q23.3906 41.5 23.9219 41.5
Q29.5469 41.5 34.0312 44.4219
Q38.5312 47.3594 38.5312 53.4688
Q38.5312 58.2969 35.25 61.4688
Q31.9844 64.6562 26.8125 64.6562
Q21.6875 64.6562 18.2656 61.4219
Q14.8438 58.2031 13.875 51.7656
L5.07812 53.3281
Q6.6875 62.1562 12.3906 67.0156
Q18.1094 71.875 26.6094 71.875
Q32.4688 71.875 37.3906 69.3594
Q42.3281 66.8438 44.9375 62.5
Q47.5625 58.1562 47.5625 53.2656
Q47.5625 48.6406 45.0625 44.8281
Q42.5781 41.0156 37.7031 38.7656
Q44.0469 37.3125 47.5625 32.6875
Q51.0781 28.0781 51.0781 21.1406
Q51.0781 11.7656 44.2344 5.25
Q37.4062 -1.26562 26.9531 -1.26562
Q17.5312 -1.26562 11.2969 4.34375
Q5.07812 9.96875 4.20312 18.8906" id="ArialMT-33"/>
      </defs>
      <g style="fill:#262626;" transform="translate(20.9278125 112.23484375)scale(0.18 -0.18)">
       <use xlink:href="#ArialMT-30"/>
       <use x="55.615234375" xlink:href="#ArialMT-2e"/>
       <use x="83.3984375" xlink:href="#ArialMT-33"/>
      </g>
     </g>
    </g>
    <g id="ytick_7">
     <g id="line2d_37">
      <path clip-path="url(#pdd21bf0870)" d="
M51.3841 68.2425
L351.017 68.2425" style="fill:none;stroke:#cccccc;stroke-linecap:round;"/>
     </g>
     <g id="line2d_38">
      <g>
       <use style="fill:#262626;stroke:#262626;" x="51.3840625" xlink:href="#m219da94a98" y="68.2425"/>
      </g>
     </g>
     <g id="line2d_39">
      <g>
       <use style="fill:#262626;stroke:#262626;" x="351.016875" xlink:href="#m219da94a98" y="68.2425"/>
      </g>
     </g>
     <g id="text_14">
      <!-- 0.4 -->
      <g style="fill:#262626;" transform="translate(20.98125 72.89578125)scale(0.18 -0.18)">
       <use xlink:href="#ArialMT-30"/>
       <use x="55.615234375" xlink:href="#ArialMT-2e"/>
       <use x="83.3984375" xlink:href="#ArialMT-34"/>
      </g>
     </g>
    </g>
    <g id="ytick_8">
     <g id="line2d_40">
      <path clip-path="url(#pdd21bf0870)" d="
M51.3841 28.9034
L351.017 28.9034" style="fill:none;stroke:#cccccc;stroke-linecap:round;"/>
     </g>
     <g id="line2d_41">
      <g>
       <use style="fill:#262626;stroke:#262626;" x="51.3840625" xlink:href="#m219da94a98" y="28.9034375"/>
      </g>
     </g>
     <g id="line2d_42">
      <g>
       <use style="fill:#262626;stroke:#262626;" x="351.016875" xlink:href="#m219da94a98" y="28.9034375"/>
      </g>
     </g>
     <g id="text_15">
      <!-- 0.5 -->
      <defs>
       <path d="
M4.15625 18.75
L13.375 19.5312
Q14.4062 12.7969 18.1406 9.39062
Q21.875 6 27.1562 6
Q33.5 6 37.8906 10.7812
Q42.2812 15.5781 42.2812 23.4844
Q42.2812 31 38.0625 35.3438
Q33.8438 39.7031 27 39.7031
Q22.75 39.7031 19.3281 37.7656
Q15.9219 35.8438 13.9688 32.7656
L5.71875 33.8438
L12.6406 70.6094
L48.25 70.6094
L48.25 62.2031
L19.6719 62.2031
L15.8281 42.9688
Q22.2656 47.4688 29.3438 47.4688
Q38.7188 47.4688 45.1562 40.9688
Q51.6094 34.4688 51.6094 24.2656
Q51.6094 14.5469 45.9531 7.46875
Q39.0625 -1.21875 27.1562 -1.21875
Q17.3906 -1.21875 11.2031 4.25
Q5.03125 9.71875 4.15625 18.75" id="ArialMT-35"/>
      </defs>
      <g style="fill:#262626;" transform="translate(20.8321875 33.55671875)scale(0.18 -0.18)">
       <use xlink:href="#ArialMT-30"/>
       <use x="55.615234375" xlink:href="#ArialMT-2e"/>
       <use x="83.3984375" xlink:href="#ArialMT-35"/>
      </g>
     </g>
    </g>
   </g>
   <g id="line2d_43">
    <path clip-path="url(#pdd21bf0870)" d="
M51.3841 225.599
L54.3804 225.645
L57.3767 225.619
L60.373 225.521
L63.3694 225.355
L66.3657 225.12
L69.362 224.819
L72.3584 224.453
L75.3547 224.023
L78.351 223.531
L81.3473 222.978
L84.3437 222.366
L87.34 221.697
L90.3363 220.97
L93.3327 220.189
L96.329 219.354
L99.3253 218.467
L102.322 217.528
L105.318 216.54
L108.314 215.504
L111.311 214.421
L114.307 213.292
L117.303 212.119
L120.3 210.902
L123.296 209.644
L126.292 208.345
L129.289 207.006
L132.285 205.629
L135.281 204.215
L138.278 202.764
L141.274 201.279
L144.27 199.76
L147.267 198.208
L150.263 196.624
L153.259 195.01
L156.256 193.365
L159.252 191.692
L162.248 189.991
L165.245 188.263
L168.241 186.509
L171.237 184.73
L174.234 182.926
L177.23 181.099
L180.226 179.249
L183.223 177.377
L186.219 175.484
L189.215 173.571
L192.211 171.638
L195.208 169.686
L198.204 167.715
L201.2 165.727
L204.197 163.722
L207.193 161.7
L210.189 159.662
L213.186 157.609
L216.182 155.541
L219.178 153.459
L222.175 151.363
L225.171 149.255
L228.167 147.133
L231.164 144.999
L234.16 142.853
L237.156 140.696
L240.153 138.528
L243.149 136.35
L246.145 134.161
L249.142 131.963
L252.138 129.755
L255.134 127.538
L258.131 125.313
L261.127 123.079
L264.123 120.837
L267.12 118.587
L270.116 116.33
L273.112 114.066
L276.109 111.795
L279.105 109.517
L282.101 107.233
L285.098 104.943
L288.094 102.646
L291.09 100.345
L294.087 98.0374
L297.083 95.7249
L300.079 93.4073
L303.076 91.085
L306.072 88.7579
L309.068 86.4264
L312.065 84.0906
L315.061 81.7507
L318.057 79.4068
L321.054 77.0591
L324.05 74.7077
L327.046 72.3528
L330.043 69.9945
L333.039 67.633
L336.035 65.2683
L339.032 62.9007
L342.028 60.5301
L345.024 58.1568
L348.021 55.7808" style="fill:none;stroke:#4c72b0;stroke-linecap:round;stroke-width:1.75;"/>
   </g>
   <g id="line2d_44">
    <path clip-path="url(#pdd21bf0870)" d="
M51.3841 225.599
L54.3804 226.583
L57.3767 227.472
L60.373 228.27
L63.3694 228.98
L66.3657 229.606
L69.362 230.153
L72.3584 230.621
L75.3547 231.015
L78.351 231.337
L81.3473 231.589
L84.3437 231.772
L87.34 231.89
L90.3363 231.943
L93.3327 231.933
L96.329 231.862
L99.3253 231.732
L102.322 231.543
L105.318 231.297
L108.314 230.996
L111.311 230.64
L114.307 230.23
L117.303 229.769
L120.3 229.256
L123.296 228.693
L126.292 228.08
L129.289 227.42
L132.285 226.713
L135.281 225.959
L138.278 225.16
L141.274 224.317
L144.27 223.431
L147.267 222.502
L150.263 221.531
L153.259 220.52
L156.256 219.469
L159.252 218.379
L162.248 217.251
L165.245 216.086
L168.241 214.885
L171.237 213.647
L174.234 212.375
L177.23 211.069
L180.226 209.73
L183.223 208.359
L186.219 206.956
L189.215 205.522
L192.211 204.058
L195.208 202.565
L198.204 201.043
L201.2 199.493
L204.197 197.917
L207.193 196.313
L210.189 194.684
L213.186 193.03
L216.182 191.352
L219.178 189.65
L222.175 187.925
L225.171 186.177
L228.167 184.407
L231.164 182.617
L234.16 180.805
L237.156 178.974
L240.153 177.123
L243.149 175.253
L246.145 173.365
L249.142 171.459
L252.138 169.536
L255.134 167.596
L258.131 165.639
L261.127 163.667
L264.123 161.68
L267.12 159.677
L270.116 157.66
L273.112 155.63
L276.109 153.585
L279.105 151.528
L282.101 149.458
L285.098 147.375
L288.094 145.281
L291.09 143.175
L294.087 141.058
L297.083 138.93
L300.079 136.791
L303.076 134.642
L306.072 132.484
L309.068 130.316
L312.065 128.138
L315.061 125.952
L318.057 123.757
L321.054 121.554
L324.05 119.343
L327.046 117.124
L330.043 114.897
L333.039 112.663
L336.035 110.422
L339.032 108.174
L342.028 105.92
L345.024 103.659
L348.021 101.392" style="fill:none;stroke:#55a868;stroke-linecap:round;stroke-width:1.75;"/>
   </g>
   <g id="line2d_45">
    <path clip-path="url(#pdd21bf0870)" d="
M51.3841 225.599
L54.3804 229.976
L57.3767 233.764
L60.373 237.071
L63.3694 239.978
L66.3657 242.545
L69.362 244.822
L72.3584 246.846
L75.3547 248.648
L78.351 250.252
L81.3473 251.681
L84.3437 252.951
L87.34 254.076
L90.3363 255.071
L93.3327 255.944
L96.329 256.706
L99.3253 257.364
L102.322 257.926
L105.318 258.398
L108.314 258.784
L111.311 259.091
L114.307 259.321
L117.303 259.48
L120.3 259.57
L123.296 259.594
L126.292 259.555
L129.289 259.456
L132.285 259.299
L135.281 259.086
L138.278 258.819
L141.274 258.499
L144.27 258.129
L147.267 257.709
L150.263 257.241
L153.259 256.727
L156.256 256.167
L159.252 255.563
L162.248 254.915
L165.245 254.225
L168.241 253.494
L171.237 252.722
L174.234 251.911
L177.23 251.061
L180.226 250.173
L183.223 249.248
L186.219 248.287
L189.215 247.29
L192.211 246.258
L195.208 245.191
L198.204 244.091
L201.2 242.958
L204.197 241.792
L207.193 240.595
L210.189 239.367
L213.186 238.108
L216.182 236.82
L219.178 235.502
L222.175 234.155
L225.171 232.78
L228.167 231.378
L231.164 229.949
L234.16 228.493
L237.156 227.012
L240.153 225.505
L243.149 223.973
L246.145 222.417
L249.142 220.838
L252.138 219.235
L255.134 217.61
L258.131 215.962
L261.127 214.292
L264.123 212.602
L267.12 210.891
L270.116 209.159
L273.112 207.408
L276.109 205.637
L279.105 203.848
L282.101 202.04
L285.098 200.214
L288.094 198.371
L291.09 196.511
L294.087 194.634
L297.083 192.741
L300.079 190.832
L303.076 188.908
L306.072 186.968
L309.068 185.014
L312.065 183.046
L315.061 181.064
L318.057 179.069
L321.054 177.06
L324.05 175.038
L327.046 173.004
L330.043 170.958
L333.039 168.9
L336.035 166.831
L339.032 164.751
L342.028 162.659
L345.024 160.558
L348.021 158.446" style="fill:none;stroke:#c44e52;stroke-linecap:round;stroke-width:1.75;"/>
   </g>
   <g id="line2d_46">
    <path clip-path="url(#pdd21bf0870)" d="
M51.3841 225.599
L54.3804 238.055
L57.3767 247.197
L60.373 254.321
L63.3694 260.075
L66.3657 264.835
L69.362 268.838
L72.3584 272.246
L75.3547 275.173
L78.351 277.703
L81.3473 279.898
L84.3437 281.809
L87.34 283.473
L90.3363 284.922
L93.3327 286.182
L96.329 287.273
L99.3253 288.213
L102.322 289.016
L105.318 289.696
L108.314 290.262
L111.311 290.724
L114.307 291.089
L117.303 291.366
L120.3 291.559
L123.296 291.675
L126.292 291.717
L129.289 291.691
L132.285 291.599
L135.281 291.446
L138.278 291.234
L141.274 290.965
L144.27 290.643
L147.267 290.27
L150.263 289.846
L153.259 289.375
L156.256 288.859
L159.252 288.297
L162.248 287.692
L165.245 287.046
L168.241 286.359
L171.237 285.632
L174.234 284.867
L177.23 284.065
L180.226 283.225
L183.223 282.35
L186.219 281.44
L189.215 280.496
L192.211 279.518
L195.208 278.508
L198.204 277.465
L201.2 276.391
L204.197 275.287
L207.193 274.151
L210.189 272.986
L213.186 271.792
L216.182 270.57
L219.178 269.319
L222.175 268.041
L225.171 266.735
L228.167 265.403
L231.164 264.045
L234.16 262.662
L237.156 261.253
L240.153 259.819
L243.149 258.362
L246.145 256.88
L249.142 255.375
L252.138 253.848
L255.134 252.298
L258.131 250.726
L261.127 249.132
L264.123 247.517
L267.12 245.882
L270.116 244.226
L273.112 242.55
L276.109 240.854
L279.105 239.14
L282.101 237.407
L285.098 235.655
L288.094 233.886
L291.09 232.099
L294.087 230.295
L297.083 228.474
L300.079 226.637
L303.076 224.783
L306.072 222.914
L309.068 221.03
L312.065 219.13
L315.061 217.216
L318.057 215.288
L321.054 213.345
L324.05 211.389
L327.046 209.42
L330.043 207.438
L333.039 205.443
L336.035 203.435
L339.032 201.416
L342.028 199.385
L345.024 197.342
L348.021 195.288" style="fill:none;stroke:#8172b2;stroke-linecap:round;stroke-width:1.75;"/>
   </g>
   <g id="line2d_47">
    <path clip-path="url(#pdd21bf0870)" d="
M51.3841 225.599
L54.3804 225.111
L57.3767 224.622
L60.373 224.134
L63.3694 223.646
L66.3657 223.158
L69.362 222.67
L72.3584 222.182
L75.3547 221.694
L78.351 221.206
L81.3473 220.717
L84.3437 220.229
L87.34 219.741
L90.3363 219.253
L93.3327 218.765
L96.329 218.277
L99.3253 217.789
L102.322 217.3
L105.318 216.812
L108.314 216.324
L111.311 215.836
L114.307 215.348
L117.303 214.86
L120.3 214.372
L123.296 213.884
L126.292 213.395
L129.289 212.907
L132.285 212.419
L135.281 211.931
L138.278 211.443
L141.274 210.955
L144.27 210.467
L147.267 209.978
L150.263 209.49
L153.259 209.002
L156.256 208.514
L159.252 208.026
L162.248 207.538
L165.245 207.05
L168.241 206.561
L171.237 206.073
L174.234 205.585
L177.23 205.097
L180.226 204.609
L183.223 204.121
L186.219 203.633
L189.215 203.145
L192.211 202.656
L195.208 202.168
L198.204 201.68
L201.2 201.192
L204.197 200.704
L207.193 200.216
L210.189 199.728
L213.186 199.239
L216.182 198.751
L219.178 198.263
L222.175 197.775
L225.171 197.287
L228.167 196.799
L231.164 196.311
L234.16 195.822
L237.156 195.334
L240.153 194.846
L243.149 194.358
L246.145 193.87
L249.142 193.382
L252.138 192.894
L255.134 192.406
L258.131 191.917
L261.127 191.429
L264.123 190.941
L267.12 190.453
L270.116 189.965
L273.112 189.477
L276.109 188.989
L279.105 188.5
L282.101 188.012
L285.098 187.524
L288.094 187.036
L291.09 186.548
L294.087 186.06
L297.083 185.572
L300.079 185.084
L303.076 184.595
L306.072 184.107
L309.068 183.619
L312.065 183.131
L315.061 182.643
L318.057 182.155
L321.054 181.667
L324.05 181.178
L327.046 180.69
L330.043 180.202
L333.039 179.714
L336.035 179.226
L339.032 178.738
L342.028 178.25
L345.024 177.761
L348.021 177.273" style="fill:none;stroke:#ccb974;stroke-linecap:round;stroke-width:1.75;"/>
   </g>
   <g id="patch_3">
    <path d="
M51.3841 28.9034
L351.017 28.9034" style="fill:none;stroke:#cccccc;"/>
   </g>
   <g id="patch_4">
    <path d="
M351.017 304.277
L351.017 28.9034" style="fill:none;stroke:#cccccc;"/>
   </g>
   <g id="patch_5">
    <path d="
M51.3841 304.277
L351.017 304.277" style="fill:none;stroke:#cccccc;"/>
   </g>
   <g id="patch_6">
    <path d="
M51.3841 304.277
L51.3841 28.9034" style="fill:none;stroke:#cccccc;"/>
   </g>
   <g id="text_16">
    <!-- Log Capital Change -->
    <defs>
     <path d="
M40.4375 6.39062
Q35.5469 2.25 31.0312 0.53125
Q26.5156 -1.17188 21.3438 -1.17188
Q12.7969 -1.17188 8.20312 3
Q3.60938 7.17188 3.60938 13.6719
Q3.60938 17.4844 5.34375 20.625
Q7.07812 23.7812 9.89062 25.6875
Q12.7031 27.5938 16.2188 28.5625
Q18.7969 29.25 24.0312 29.8906
Q34.6719 31.1562 39.7031 32.9062
Q39.75 34.7188 39.75 35.2031
Q39.75 40.5781 37.25 42.7812
Q33.8906 45.75 27.25 45.75
Q21.0469 45.75 18.0938 43.5781
Q15.1406 41.4062 13.7188 35.8906
L5.125 37.0625
Q6.29688 42.5781 8.98438 45.9688
Q11.6719 49.3594 16.75 51.1875
Q21.8281 53.0312 28.5156 53.0312
Q35.1562 53.0312 39.2969 51.4688
Q43.4531 49.9062 45.4062 47.5312
Q47.3594 45.1719 48.1406 41.5469
Q48.5781 39.3125 48.5781 33.4531
L48.5781 21.7344
Q48.5781 9.46875 49.1406 6.21875
Q49.7031 2.98438 51.375 0
L42.1875 0
Q40.8281 2.73438 40.4375 6.39062
M39.7031 26.0312
Q34.9062 24.0781 25.3438 22.7031
Q19.9219 21.9219 17.6719 20.9375
Q15.4375 19.9688 14.2031 18.0938
Q12.9844 16.2188 12.9844 13.9219
Q12.9844 10.4062 15.6406 8.0625
Q18.3125 5.71875 23.4375 5.71875
Q28.5156 5.71875 32.4688 7.9375
Q36.4219 10.1562 38.2812 14.0156
Q39.7031 17 39.7031 22.7969
z
" id="ArialMT-61"/>
     <path d="
M4.98438 -4.29688
L13.5312 -5.5625
Q14.0625 -9.51562 16.5 -11.3281
Q19.7812 -13.7656 25.4375 -13.7656
Q31.5469 -13.7656 34.8594 -11.3281
Q38.1875 -8.89062 39.3594 -4.5
Q40.0469 -1.8125 39.9844 6.78125
Q34.2344 0 25.6406 0
Q14.9375 0 9.07812 7.71875
Q3.21875 15.4375 3.21875 26.2188
Q3.21875 33.6406 5.90625 39.9062
Q8.59375 46.1875 13.6875 49.6094
Q18.7969 53.0312 25.6875 53.0312
Q34.8594 53.0312 40.8281 45.6094
L40.8281 51.8594
L48.9219 51.8594
L48.9219 7.03125
Q48.9219 -5.07812 46.4531 -10.125
Q44 -15.1875 38.6406 -18.1094
Q33.2969 -21.0469 25.4844 -21.0469
Q16.2188 -21.0469 10.5 -16.875
Q4.78125 -12.7031 4.98438 -4.29688
M12.25 26.8594
Q12.25 16.6562 16.2969 11.9688
Q20.3594 7.28125 26.4688 7.28125
Q32.5156 7.28125 36.6094 11.9375
Q40.7188 16.6094 40.7188 26.5625
Q40.7188 36.0781 36.5 40.9062
Q32.2812 45.75 26.3125 45.75
Q20.4531 45.75 16.3438 40.9844
Q12.25 36.2344 12.25 26.8594" id="ArialMT-67"/>
     <path d="
M25.7812 7.85938
L27.0469 0.09375
Q23.3438 -0.6875 20.4062 -0.6875
Q15.625 -0.6875 12.9844 0.828125
Q10.3594 2.34375 9.28125 4.8125
Q8.20312 7.28125 8.20312 15.1875
L8.20312 45.0156
L1.76562 45.0156
L1.76562 51.8594
L8.20312 51.8594
L8.20312 64.7031
L16.9375 69.9688
L16.9375 51.8594
L25.7812 51.8594
L25.7812 45.0156
L16.9375 45.0156
L16.9375 14.7031
Q16.9375 10.9375 17.4062 9.85938
Q17.875 8.79688 18.9219 8.15625
Q19.9688 7.51562 21.9219 7.51562
Q23.3906 7.51562 25.7812 7.85938" id="ArialMT-74"/>
     <path d="
M58.7969 25.0938
L68.2656 22.7031
Q65.2812 11.0312 57.5469 4.90625
Q49.8125 -1.21875 38.625 -1.21875
Q27.0469 -1.21875 19.7969 3.48438
Q12.5469 8.20312 8.76562 17.1406
Q4.98438 26.0781 4.98438 36.3281
Q4.98438 47.5156 9.25 55.8281
Q13.5312 64.1562 21.4062 68.4688
Q29.2969 72.7969 38.7656 72.7969
Q49.5156 72.7969 56.8281 67.3281
Q64.1562 61.8594 67.0469 51.9531
L57.7188 49.75
Q55.2188 57.5625 50.4844 61.125
Q45.75 64.7031 38.5781 64.7031
Q30.3281 64.7031 24.7812 60.7344
Q19.2344 56.7812 16.9844 50.1094
Q14.75 43.4531 14.75 36.375
Q14.75 27.25 17.4062 20.4375
Q20.0625 13.625 25.6719 10.25
Q31.2969 6.89062 37.8438 6.89062
Q45.7969 6.89062 51.3125 11.4688
Q56.8438 16.0625 58.7969 25.0938" id="ArialMT-43"/>
     <path d="
M6.59375 0
L6.59375 71.5781
L15.375 71.5781
L15.375 45.9062
Q21.5312 53.0312 30.9062 53.0312
Q36.6719 53.0312 40.9219 50.75
Q45.1719 48.4844 47 44.4844
Q48.8281 40.4844 48.8281 32.8594
L48.8281 0
L40.0469 0
L40.0469 32.8594
Q40.0469 39.4531 37.1875 42.4531
Q34.3281 45.4531 29.1094 45.4531
Q25.2031 45.4531 21.75 43.4219
Q18.3125 41.4062 16.8438 37.9375
Q15.375 34.4688 15.375 28.375
L15.375 0
z
" id="ArialMT-68"/>
     <path d="
M6.59375 -19.875
L6.59375 51.8594
L14.5938 51.8594
L14.5938 45.125
Q17.4375 49.0781 21 51.0469
Q24.5625 53.0312 29.6406 53.0312
Q36.2812 53.0312 41.3594 49.6094
Q46.4375 46.1875 49.0156 39.9531
Q51.6094 33.7344 51.6094 26.3125
Q51.6094 18.3594 48.75 11.9844
Q45.9062 5.60938 40.4531 2.21875
Q35.0156 -1.17188 29 -1.17188
Q24.6094 -1.17188 21.1094 0.6875
Q17.625 2.54688 15.375 5.375
L15.375 -19.875
z

M14.5469 25.6406
Q14.5469 15.625 18.5938 10.8438
Q22.6562 6.0625 28.4219 6.0625
Q34.2812 6.0625 38.4531 11.0156
Q42.625 15.9688 42.625 26.375
Q42.625 36.2812 38.5469 41.2031
Q34.4688 46.1406 28.8125 46.1406
Q23.1875 46.1406 18.8594 40.8906
Q14.5469 35.6406 14.5469 25.6406" id="ArialMT-70"/>
     <path d="
M6.39062 0
L6.39062 71.5781
L15.1875 71.5781
L15.1875 0
z
" id="ArialMT-6c"/>
     <path d="
M3.32812 25.9219
Q3.32812 40.3281 11.3281 47.2656
Q18.0156 53.0312 27.6406 53.0312
Q38.3281 53.0312 45.1094 46.0156
Q51.9062 39.0156 51.9062 26.6562
Q51.9062 16.6562 48.9062 10.9062
Q45.9062 5.17188 40.1562 2
Q34.4219 -1.17188 27.6406 -1.17188
Q16.75 -1.17188 10.0312 5.8125
Q3.32812 12.7969 3.32812 25.9219
M12.3594 25.9219
Q12.3594 15.9688 16.7031 11.0156
Q21.0469 6.0625 27.6406 6.0625
Q34.1875 6.0625 38.5312 11.0312
Q42.875 16.0156 42.875 26.2188
Q42.875 35.8438 38.5 40.7969
Q34.125 45.75 27.6406 45.75
Q21.0469 45.75 16.7031 40.8125
Q12.3594 35.8906 12.3594 25.9219" id="ArialMT-6f"/>
     <path d="
M6.59375 0
L6.59375 51.8594
L14.5 51.8594
L14.5 44.4844
Q20.2188 53.0312 31 53.0312
Q35.6875 53.0312 39.625 51.3438
Q43.5625 49.6562 45.5156 46.9219
Q47.4688 44.1875 48.25 40.4375
Q48.7344 37.9844 48.7344 31.8906
L48.7344 0
L39.9375 0
L39.9375 31.5469
Q39.9375 36.9219 38.9062 39.5781
Q37.8906 42.2344 35.2812 43.8125
Q32.6719 45.4062 29.1562 45.4062
Q23.5312 45.4062 19.4531 41.8438
Q15.375 38.2812 15.375 28.3281
L15.375 0
z
" id="ArialMT-6e"/>
     <path d="
M7.32812 0
L7.32812 71.5781
L16.7969 71.5781
L16.7969 8.45312
L52.0469 8.45312
L52.0469 0
z
" id="ArialMT-4c"/>
     <path id="ArialMT-20"/>
    </defs>
    <g style="fill:#262626;" transform="translate(122.02015625 23.9034375)scale(0.18 -0.18)">
     <use xlink:href="#ArialMT-4c"/>
     <use x="55.615234375" xlink:href="#ArialMT-6f"/>
     <use x="111.23046875" xlink:href="#ArialMT-67"/>
     <use x="166.845703125" xlink:href="#ArialMT-20"/>
     <use x="194.62890625" xlink:href="#ArialMT-43"/>
     <use x="266.845703125" xlink:href="#ArialMT-61"/>
     <use x="322.4609375" xlink:href="#ArialMT-70"/>
     <use x="378.076171875" xlink:href="#ArialMT-69"/>
     <use x="400.29296875" xlink:href="#ArialMT-74"/>
     <use x="428.076171875" xlink:href="#ArialMT-61"/>
     <use x="483.69140625" xlink:href="#ArialMT-6c"/>
     <use x="505.908203125" xlink:href="#ArialMT-20"/>
     <use x="533.69140625" xlink:href="#ArialMT-43"/>
     <use x="605.908203125" xlink:href="#ArialMT-68"/>
     <use x="661.5234375" xlink:href="#ArialMT-61"/>
     <use x="717.138671875" xlink:href="#ArialMT-6e"/>
     <use x="772.75390625" xlink:href="#ArialMT-67"/>
     <use x="828.369140625" xlink:href="#ArialMT-65"/>
    </g>
   </g>
  </g>
  <g id="axes_2">
   <g id="patch_7">
    <path d="
M400.968 304.277
L700.601 304.277
L700.601 28.9034
L400.968 28.9034
z
" style="fill:#ffffff;"/>
   </g>
   <g id="matplotlib.axis_3">
    <g id="xtick_7">
     <g id="line2d_48">
      <path clip-path="url(#p49c716941d)" d="
M400.968 304.277
L400.968 28.9034" style="fill:none;stroke:#cccccc;stroke-linecap:round;"/>
     </g>
     <g id="line2d_49">
      <g>
       <use style="fill:#262626;stroke:#262626;" x="400.96796875" xlink:href="#m219da94a98" y="304.276875"/>
      </g>
     </g>
     <g id="line2d_50">
      <g>
       <use style="fill:#262626;stroke:#262626;" x="400.96796875" xlink:href="#m219da94a98" y="28.9034375"/>
      </g>
     </g>
     <g id="text_17">
      <!-- 0 -->
      <g style="fill:#262626;" transform="translate(396.7675 324.1609375)scale(0.18 -0.18)">
       <use xlink:href="#ArialMT-30"/>
      </g>
     </g>
    </g>
    <g id="xtick_8">
     <g id="line2d_51">
      <path clip-path="url(#p49c716941d)" d="
M460.895 304.277
L460.895 28.9034" style="fill:none;stroke:#cccccc;stroke-linecap:round;"/>
     </g>
     <g id="line2d_52">
      <g>
       <use style="fill:#262626;stroke:#262626;" x="460.89453125" xlink:href="#m219da94a98" y="304.276875"/>
      </g>
     </g>
     <g id="line2d_53">
      <g>
       <use style="fill:#262626;stroke:#262626;" x="460.89453125" xlink:href="#m219da94a98" y="28.9034375"/>
      </g>
     </g>
     <g id="text_18">
      <!-- 2 -->
      <g style="fill:#262626;" transform="translate(456.62796875 324.1609375)scale(0.18 -0.18)">
       <use xlink:href="#ArialMT-32"/>
      </g>
     </g>
    </g>
    <g id="xtick_9">
     <g id="line2d_54">
      <path clip-path="url(#p49c716941d)" d="
M520.821 304.277
L520.821 28.9034" style="fill:none;stroke:#cccccc;stroke-linecap:round;"/>
     </g>
     <g id="line2d_55">
      <g>
       <use style="fill:#262626;stroke:#262626;" x="520.82109375" xlink:href="#m219da94a98" y="304.276875"/>
      </g>
     </g>
     <g id="line2d_56">
      <g>
       <use style="fill:#262626;stroke:#262626;" x="520.82109375" xlink:href="#m219da94a98" y="28.9034375"/>
      </g>
     </g>
     <g id="text_19">
      <!-- 4 -->
      <g style="fill:#262626;" transform="translate(516.3646875 324.1609375)scale(0.18 -0.18)">
       <use xlink:href="#ArialMT-34"/>
      </g>
     </g>
    </g>
    <g id="xtick_10">
     <g id="line2d_57">
      <path clip-path="url(#p49c716941d)" d="
M580.748 304.277
L580.748 28.9034" style="fill:none;stroke:#cccccc;stroke-linecap:round;"/>
     </g>
     <g id="line2d_58">
      <g>
       <use style="fill:#262626;stroke:#262626;" x="580.74765625" xlink:href="#m219da94a98" y="304.276875"/>
      </g>
     </g>
     <g id="line2d_59">
      <g>
       <use style="fill:#262626;stroke:#262626;" x="580.74765625" xlink:href="#m219da94a98" y="28.9034375"/>
      </g>
     </g>
     <g id="text_20">
      <!-- 6 -->
      <g style="fill:#262626;" transform="translate(576.49375 324.1609375)scale(0.18 -0.18)">
       <use xlink:href="#ArialMT-36"/>
      </g>
     </g>
    </g>
    <g id="xtick_11">
     <g id="line2d_60">
      <path clip-path="url(#p49c716941d)" d="
M640.674 304.277
L640.674 28.9034" style="fill:none;stroke:#cccccc;stroke-linecap:round;"/>
     </g>
     <g id="line2d_61">
      <g>
       <use style="fill:#262626;stroke:#262626;" x="640.67421875" xlink:href="#m219da94a98" y="304.276875"/>
      </g>
     </g>
     <g id="line2d_62">
      <g>
       <use style="fill:#262626;stroke:#262626;" x="640.67421875" xlink:href="#m219da94a98" y="28.9034375"/>
      </g>
     </g>
     <g id="text_21">
      <!-- 8 -->
      <g style="fill:#262626;" transform="translate(636.42875 324.1609375)scale(0.18 -0.18)">
       <use xlink:href="#ArialMT-38"/>
      </g>
     </g>
    </g>
    <g id="xtick_12">
     <g id="line2d_63">
      <path clip-path="url(#p49c716941d)" d="
M700.601 304.277
L700.601 28.9034" style="fill:none;stroke:#cccccc;stroke-linecap:round;"/>
     </g>
     <g id="line2d_64">
      <g>
       <use style="fill:#262626;stroke:#262626;" x="700.60078125" xlink:href="#m219da94a98" y="304.276875"/>
      </g>
     </g>
     <g id="line2d_65">
      <g>
       <use style="fill:#262626;stroke:#262626;" x="700.60078125" xlink:href="#m219da94a98" y="28.9034375"/>
      </g>
     </g>
     <g id="text_22">
      <!-- 10 -->
      <g style="fill:#262626;" transform="translate(692.0015625 324.1609375)scale(0.18 -0.18)">
       <use xlink:href="#ArialMT-31"/>
       <use x="55.615234375" xlink:href="#ArialMT-30"/>
      </g>
     </g>
    </g>
    <g id="text_23">
     <!-- Time -->
     <g style="fill:#262626;" transform="translate(531.7071875 345.6225)scale(0.18 -0.18)">
      <use xlink:href="#ArialMT-54"/>
      <use x="57.333984375" xlink:href="#ArialMT-69"/>
      <use x="79.55078125" xlink:href="#ArialMT-6d"/>
      <use x="162.8515625" xlink:href="#ArialMT-65"/>
     </g>
    </g>
   </g>
   <g id="matplotlib.axis_4">
    <g id="ytick_9">
     <g id="line2d_66">
      <path clip-path="url(#p49c716941d)" d="
M400.968 304.277
L700.601 304.277" style="fill:none;stroke:#cccccc;stroke-linecap:round;"/>
     </g>
     <g id="line2d_67">
      <g>
       <use style="fill:#262626;stroke:#262626;" x="400.96796875" xlink:href="#m219da94a98" y="304.276875"/>
      </g>
     </g>
     <g id="line2d_68">
      <g>
       <use style="fill:#262626;stroke:#262626;" x="700.60078125" xlink:href="#m219da94a98" y="304.276875"/>
      </g>
     </g>
     <g id="text_24">
      <!-- 0.0 -->
      <g style="fill:#262626;" transform="translate(370.55671875 308.93015625)scale(0.18 -0.18)">
       <use xlink:href="#ArialMT-30"/>
       <use x="55.615234375" xlink:href="#ArialMT-2e"/>
       <use x="83.3984375" xlink:href="#ArialMT-30"/>
      </g>
     </g>
    </g>
    <g id="ytick_10">
     <g id="line2d_69">
      <path clip-path="url(#p49c716941d)" d="
M400.968 258.381
L700.601 258.381" style="fill:none;stroke:#cccccc;stroke-linecap:round;"/>
     </g>
     <g id="line2d_70">
      <g>
       <use style="fill:#262626;stroke:#262626;" x="400.96796875" xlink:href="#m219da94a98" y="258.381302083"/>
      </g>
     </g>
     <g id="line2d_71">
      <g>
       <use style="fill:#262626;stroke:#262626;" x="700.60078125" xlink:href="#m219da94a98" y="258.381302083"/>
      </g>
     </g>
     <g id="text_25">
      <!-- 0.1 -->
      <g style="fill:#262626;" transform="translate(373.00078125 263.034583333)scale(0.18 -0.18)">
       <use xlink:href="#ArialMT-30"/>
       <use x="55.615234375" xlink:href="#ArialMT-2e"/>
       <use x="83.3984375" xlink:href="#ArialMT-31"/>
      </g>
     </g>
    </g>
    <g id="ytick_11">
     <g id="line2d_72">
      <path clip-path="url(#p49c716941d)" d="
M400.968 212.486
L700.601 212.486" style="fill:none;stroke:#cccccc;stroke-linecap:round;"/>
     </g>
     <g id="line2d_73">
      <g>
       <use style="fill:#262626;stroke:#262626;" x="400.96796875" xlink:href="#m219da94a98" y="212.485729167"/>
      </g>
     </g>
     <g id="line2d_74">
      <g>
       <use style="fill:#262626;stroke:#262626;" x="700.60078125" xlink:href="#m219da94a98" y="212.485729167"/>
      </g>
     </g>
     <g id="text_26">
      <!-- 0.2 -->
      <g style="fill:#262626;" transform="translate(370.64390625 217.139010417)scale(0.18 -0.18)">
       <use xlink:href="#ArialMT-30"/>
       <use x="55.615234375" xlink:href="#ArialMT-2e"/>
       <use x="83.3984375" xlink:href="#ArialMT-32"/>
      </g>
     </g>
    </g>
    <g id="ytick_12">
     <g id="line2d_75">
      <path clip-path="url(#p49c716941d)" d="
M400.968 166.59
L700.601 166.59" style="fill:none;stroke:#cccccc;stroke-linecap:round;"/>
     </g>
     <g id="line2d_76">
      <g>
       <use style="fill:#262626;stroke:#262626;" x="400.96796875" xlink:href="#m219da94a98" y="166.59015625"/>
      </g>
     </g>
     <g id="line2d_77">
      <g>
       <use style="fill:#262626;stroke:#262626;" x="700.60078125" xlink:href="#m219da94a98" y="166.59015625"/>
      </g>
     </g>
     <g id="text_27">
      <!-- 0.3 -->
      <g style="fill:#262626;" transform="translate(370.51171875 171.2434375)scale(0.18 -0.18)">
       <use xlink:href="#ArialMT-30"/>
       <use x="55.615234375" xlink:href="#ArialMT-2e"/>
       <use x="83.3984375" xlink:href="#ArialMT-33"/>
      </g>
     </g>
    </g>
    <g id="ytick_13">
     <g id="line2d_78">
      <path clip-path="url(#p49c716941d)" d="
M400.968 120.695
L700.601 120.695" style="fill:none;stroke:#cccccc;stroke-linecap:round;"/>
     </g>
     <g id="line2d_79">
      <g>
       <use style="fill:#262626;stroke:#262626;" x="400.96796875" xlink:href="#m219da94a98" y="120.694583333"/>
      </g>
     </g>
     <g id="line2d_80">
      <g>
       <use style="fill:#262626;stroke:#262626;" x="700.60078125" xlink:href="#m219da94a98" y="120.694583333"/>
      </g>
     </g>
     <g id="text_28">
      <!-- 0.4 -->
      <g style="fill:#262626;" transform="translate(370.56515625 125.347864583)scale(0.18 -0.18)">
       <use xlink:href="#ArialMT-30"/>
       <use x="55.615234375" xlink:href="#ArialMT-2e"/>
       <use x="83.3984375" xlink:href="#ArialMT-34"/>
      </g>
     </g>
    </g>
    <g id="ytick_14">
     <g id="line2d_81">
      <path clip-path="url(#p49c716941d)" d="
M400.968 74.799
L700.601 74.799" style="fill:none;stroke:#cccccc;stroke-linecap:round;"/>
     </g>
     <g id="line2d_82">
      <g>
       <use style="fill:#262626;stroke:#262626;" x="400.96796875" xlink:href="#m219da94a98" y="74.7990104167"/>
      </g>
     </g>
     <g id="line2d_83">
      <g>
       <use style="fill:#262626;stroke:#262626;" x="700.60078125" xlink:href="#m219da94a98" y="74.7990104167"/>
      </g>
     </g>
     <g id="text_29">
      <!-- 0.5 -->
      <g style="fill:#262626;" transform="translate(370.41609375 79.4522916667)scale(0.18 -0.18)">
       <use xlink:href="#ArialMT-30"/>
       <use x="55.615234375" xlink:href="#ArialMT-2e"/>
       <use x="83.3984375" xlink:href="#ArialMT-35"/>
      </g>
     </g>
    </g>
    <g id="ytick_15">
     <g id="line2d_84">
      <path clip-path="url(#p49c716941d)" d="
M400.968 28.9034
L700.601 28.9034" style="fill:none;stroke:#cccccc;stroke-linecap:round;"/>
     </g>
     <g id="line2d_85">
      <g>
       <use style="fill:#262626;stroke:#262626;" x="400.96796875" xlink:href="#m219da94a98" y="28.9034375"/>
      </g>
     </g>
     <g id="line2d_86">
      <g>
       <use style="fill:#262626;stroke:#262626;" x="700.60078125" xlink:href="#m219da94a98" y="28.9034375"/>
      </g>
     </g>
     <g id="text_30">
      <!-- 0.6 -->
      <g style="fill:#262626;" transform="translate(370.52015625 33.55671875)scale(0.18 -0.18)">
       <use xlink:href="#ArialMT-30"/>
       <use x="55.615234375" xlink:href="#ArialMT-2e"/>
       <use x="83.3984375" xlink:href="#ArialMT-36"/>
      </g>
     </g>
    </g>
   </g>
   <g id="line2d_87">
    <path clip-path="url(#p49c716941d)" d="
M400.968 290.398
L403.964 289.819
L406.961 289.168
L409.957 288.447
L412.953 287.659
L415.95 286.804
L418.946 285.886
L421.942 284.907
L424.939 283.867
L427.935 282.769
L430.931 281.614
L433.928 280.404
L436.924 279.141
L439.92 277.826
L442.917 276.46
L445.913 275.046
L448.909 273.584
L451.906 272.075
L454.902 270.522
L457.898 268.925
L460.895 267.285
L463.891 265.605
L466.887 263.884
L469.884 262.125
L472.88 260.328
L475.876 258.495
L478.873 256.627
L481.869 254.724
L484.865 252.788
L487.861 250.819
L490.858 248.82
L493.854 246.79
L496.85 244.732
L499.847 242.644
L502.843 240.53
L505.839 238.389
L508.836 236.222
L511.832 234.031
L514.828 231.816
L517.825 229.577
L520.821 227.316
L523.817 225.034
L526.814 222.73
L529.81 220.407
L532.806 218.064
L535.803 215.702
L538.799 213.322
L541.795 210.925
L544.792 208.51
L547.788 206.08
L550.784 203.634
L553.781 201.172
L556.777 198.696
L559.773 196.206
L562.77 193.702
L565.766 191.185
L568.762 188.656
L571.759 186.114
L574.755 183.561
L577.751 180.996
L580.748 178.421
L583.744 175.835
L586.74 173.239
L589.737 170.633
L592.733 168.018
L595.729 165.395
L598.726 162.762
L601.722 160.121
L604.718 157.472
L607.715 154.815
L610.711 152.151
L613.707 149.48
L616.704 146.802
L619.7 144.117
L622.696 141.426
L625.693 138.729
L628.689 136.026
L631.685 133.318
L634.682 130.604
L637.678 127.884
L640.674 125.16
L643.671 122.431
L646.667 119.697
L649.663 116.959
L652.66 114.216
L655.656 111.469
L658.652 108.719
L661.649 105.964
L664.645 103.206
L667.641 100.445
L670.638 97.6796
L673.634 94.9114
L676.63 92.14
L679.626 89.3656
L682.623 86.5883
L685.619 83.8083
L688.615 81.0256
L691.612 78.2403
L694.608 75.4526
L697.604 72.6625" style="fill:none;stroke:#4c72b0;stroke-linecap:round;stroke-width:1.75;"/>
   </g>
   <g id="line2d_88">
    <path clip-path="url(#p49c716941d)" d="
M400.968 271.211
L403.964 271.309
L406.961 271.252
L409.957 271.054
L412.953 270.729
L415.95 270.288
L418.946 269.741
L421.942 269.095
L424.939 268.36
L427.935 267.54
L430.931 266.643
L433.928 265.674
L436.924 264.637
L439.92 263.537
L442.917 262.377
L445.913 261.16
L448.909 259.89
L451.906 258.569
L454.902 257.2
L457.898 255.785
L460.895 254.327
L463.891 252.825
L466.887 251.284
L469.884 249.704
L472.88 248.086
L475.876 246.432
L478.873 244.744
L481.869 243.021
L484.865 241.266
L487.861 239.48
L490.858 237.663
L493.854 235.816
L496.85 233.94
L499.847 232.037
L502.843 230.106
L505.839 228.148
L508.836 226.165
L511.832 224.157
L514.828 222.124
L517.825 220.067
L520.821 217.987
L523.817 215.885
L526.814 213.761
L529.81 211.615
L532.806 209.448
L535.803 207.261
L538.799 205.055
L541.795 202.829
L544.792 200.584
L547.788 198.321
L550.784 196.04
L553.781 193.742
L556.777 191.428
L559.773 189.096
L562.77 186.749
L565.766 184.386
L568.762 182.009
L571.759 179.616
L574.755 177.21
L577.751 174.789
L580.748 172.355
L583.744 169.908
L586.74 167.448
L589.737 164.976
L592.733 162.492
L595.729 159.996
L598.726 157.489
L601.722 154.97
L604.718 152.442
L607.715 149.902
L610.711 147.353
L613.707 144.794
L616.704 142.226
L619.7 139.648
L622.696 137.062
L625.693 134.467
L628.689 131.864
L631.685 129.252
L634.682 126.633
L637.678 124.006
L640.674 121.372
L643.671 118.731
L646.667 116.083
L649.663 113.428
L652.66 110.767
L655.656 108.099
L658.652 105.425
L661.649 102.746
L664.645 100.061
L667.641 97.3699
L670.638 94.6739
L673.634 91.9728
L676.63 89.2667
L679.626 86.5558
L682.623 83.8403
L685.619 81.1202
L688.615 78.3958
L691.612 75.6672
L694.608 72.9345
L697.604 70.1979" style="fill:none;stroke:#55a868;stroke-linecap:round;stroke-width:1.75;"/>
   </g>
   <g id="line2d_89">
    <path clip-path="url(#p49c716941d)" d="
M400.968 224.417
L403.964 232.79
L406.961 239.351
L409.957 244.514
L412.953 248.576
L415.95 251.757
L418.946 254.223
L421.942 256.1
L424.939 257.487
L427.935 258.464
L430.931 259.092
L433.928 259.422
L436.924 259.497
L439.92 259.35
L442.917 259.009
L445.913 258.499
L448.909 257.839
L451.906 257.047
L454.902 256.137
L457.898 255.121
L460.895 254.01
L463.891 252.814
L466.887 251.54
L469.884 250.194
L472.88 248.785
L475.876 247.315
L478.873 245.792
L481.869 244.217
L484.865 242.596
L487.861 240.931
L490.858 239.226
L493.854 237.482
L496.85 235.703
L499.847 233.89
L502.843 232.045
L505.839 230.169
L508.836 228.265
L511.832 226.334
L514.828 224.377
L517.825 222.395
L520.821 220.388
L523.817 218.359
L526.814 216.308
L529.81 214.235
L532.806 212.142
L535.803 210.029
L538.799 207.896
L541.795 205.745
L544.792 203.576
L547.788 201.389
L550.784 199.186
L553.781 196.965
L556.777 194.728
L559.773 192.476
L562.77 190.208
L565.766 187.925
L568.762 185.628
L571.759 183.316
L574.755 180.99
L577.751 178.651
L580.748 176.298
L583.744 173.933
L586.74 171.554
L589.737 169.164
L592.733 166.761
L595.729 164.346
L598.726 161.92
L601.722 159.482
L604.718 157.034
L607.715 154.574
L610.711 152.104
L613.707 149.624
L616.704 147.134
L619.7 144.634
L622.696 142.124
L625.693 139.605
L628.689 137.077
L631.685 134.539
L634.682 131.993
L637.678 129.439
L640.674 126.876
L643.671 124.306
L646.667 121.727
L649.663 119.141
L652.66 116.547
L655.656 113.946
L658.652 111.338
L661.649 108.723
L664.645 106.101
L667.641 103.472
L670.638 100.837
L673.634 98.1962
L676.63 95.549
L679.626 92.8958
L682.623 90.237
L685.619 87.5725
L688.615 84.9026
L691.612 82.2274
L694.608 79.547
L697.604 76.8616" style="fill:none;stroke:#c44e52;stroke-linecap:round;stroke-width:1.75;"/>
   </g>
   <g id="line2d_90">
    <path clip-path="url(#p49c716941d)" d="
M400.968 156.703
L403.964 190.995
L406.961 213.247
L409.957 228.644
L412.953 239.709
L415.95 247.848
L418.946 253.914
L421.942 258.459
L424.939 261.852
L427.935 264.356
L430.931 266.156
L433.928 267.393
L436.924 268.171
L439.92 268.57
L442.917 268.653
L445.913 268.47
L448.909 268.061
L451.906 267.458
L454.902 266.687
L457.898 265.771
L460.895 264.727
L463.891 263.571
L466.887 262.315
L469.884 260.971
L472.88 259.548
L475.876 258.054
L478.873 256.495
L481.869 254.878
L484.865 253.209
L487.861 251.49
L490.858 249.728
L493.854 247.924
L496.85 246.082
L499.847 244.206
L502.843 242.296
L505.839 240.356
L508.836 238.388
L511.832 236.392
L514.828 234.371
L517.825 232.327
L520.821 230.259
L523.817 228.17
L526.814 226.06
L529.81 223.931
L532.806 221.783
L535.803 219.616
L538.799 217.433
L541.795 215.233
L544.792 213.016
L547.788 210.784
L550.784 208.537
L553.781 206.276
L556.777 204
L559.773 201.71
L562.77 199.407
L565.766 197.091
L568.762 194.763
L571.759 192.422
L574.755 190.068
L577.751 187.703
L580.748 185.327
L583.744 182.939
L586.74 180.541
L589.737 178.131
L592.733 175.711
L595.729 173.281
L598.726 170.84
L601.722 168.39
L604.718 165.93
L607.715 163.46
L610.711 160.981
L613.707 158.493
L616.704 155.996
L619.7 153.491
L622.696 150.976
L625.693 148.454
L628.689 145.923
L631.685 143.384
L634.682 140.837
L637.678 138.283
L640.674 135.721
L643.671 133.152
L646.667 130.575
L649.663 127.991
L652.66 125.401
L655.656 122.804
L658.652 120.2
L661.649 117.589
L664.645 114.972
L667.641 112.35
L670.638 109.721
L673.634 107.086
L676.63 104.445
L679.626 101.799
L682.623 99.1474
L685.619 96.4904
L688.615 93.8281
L691.612 91.1607
L694.608 88.4883
L697.604 85.8111" style="fill:none;stroke:#8172b2;stroke-linecap:round;stroke-width:1.75;"/>
   </g>
   <g id="line2d_91">
    <path clip-path="url(#p49c716941d)" d="
M400.968 304.277
L403.964 303.707
L406.961 303.138
L409.957 302.568
L412.953 301.999
L415.95 301.429
L418.946 300.86
L421.942 300.29
L424.939 299.721
L427.935 299.151
L430.931 298.582
L433.928 298.012
L436.924 297.443
L439.92 296.873
L442.917 296.304
L445.913 295.735
L448.909 295.165
L451.906 294.596
L454.902 294.026
L457.898 293.457
L460.895 292.887
L463.891 292.318
L466.887 291.748
L469.884 291.179
L472.88 290.609
L475.876 290.04
L478.873 289.47
L481.869 288.901
L484.865 288.331
L487.861 287.762
L490.858 287.192
L493.854 286.623
L496.85 286.053
L499.847 285.484
L502.843 284.914
L505.839 284.345
L508.836 283.775
L511.832 283.206
L514.828 282.636
L517.825 282.067
L520.821 281.497
L523.817 280.928
L526.814 280.358
L529.81 279.789
L532.806 279.219
L535.803 278.65
L538.799 278.08
L541.795 277.511
L544.792 276.941
L547.788 276.372
L550.784 275.802
L553.781 275.233
L556.777 274.663
L559.773 274.094
L562.77 273.524
L565.766 272.955
L568.762 272.385
L571.759 271.816
L574.755 271.246
L577.751 270.677
L580.748 270.107
L583.744 269.538
L586.74 268.968
L589.737 268.399
L592.733 267.829
L595.729 267.26
L598.726 266.69
L601.722 266.121
L604.718 265.551
L607.715 264.982
L610.711 264.412
L613.707 263.843
L616.704 263.274
L619.7 262.704
L622.696 262.135
L625.693 261.565
L628.689 260.996
L631.685 260.426
L634.682 259.857
L637.678 259.287
L640.674 258.718
L643.671 258.148
L646.667 257.579
L649.663 257.009
L652.66 256.44
L655.656 255.87
L658.652 255.301
L661.649 254.731
L664.645 254.162
L667.641 253.592
L670.638 253.023
L673.634 252.453
L676.63 251.884
L679.626 251.314
L682.623 250.745
L685.619 250.175
L688.615 249.606
L691.612 249.036
L694.608 248.467
L697.604 247.897" style="fill:none;stroke:#ccb974;stroke-linecap:round;stroke-width:1.75;"/>
   </g>
   <g id="patch_8">
    <path d="
M400.968 28.9034
L700.601 28.9034" style="fill:none;stroke:#cccccc;"/>
   </g>
   <g id="patch_9">
    <path d="
M700.601 304.277
L700.601 28.9034" style="fill:none;stroke:#cccccc;"/>
   </g>
   <g id="patch_10">
    <path d="
M400.968 304.277
L700.601 304.277" style="fill:none;stroke:#cccccc;"/>
   </g>
   <g id="patch_11">
    <path d="
M400.968 304.277
L400.968 28.9034" style="fill:none;stroke:#cccccc;"/>
   </g>
   <g id="text_31">
    <!-- Log Consumption Change -->
    <defs>
     <path d="
M40.5781 0
L40.5781 7.625
Q34.5156 -1.17188 24.125 -1.17188
Q19.5312 -1.17188 15.5469 0.578125
Q11.5781 2.34375 9.64062 5
Q7.71875 7.67188 6.9375 11.5312
Q6.39062 14.1094 6.39062 19.7344
L6.39062 51.8594
L15.1875 51.8594
L15.1875 23.0938
Q15.1875 16.2188 15.7188 13.8125
Q16.5469 10.3594 19.2344 8.375
Q21.9219 6.39062 25.875 6.39062
Q29.8281 6.39062 33.2969 8.42188
Q36.7656 10.4531 38.2031 13.9375
Q39.6562 17.4375 39.6562 24.0781
L39.6562 51.8594
L48.4375 51.8594
L48.4375 0
z
" id="ArialMT-75"/>
     <path d="
M3.07812 15.4844
L11.7656 16.8438
Q12.5 11.625 15.8438 8.84375
Q19.1875 6.0625 25.2031 6.0625
Q31.25 6.0625 34.1719 8.51562
Q37.1094 10.9844 37.1094 14.3125
Q37.1094 17.2812 34.5156 19
Q32.7188 20.1719 25.5312 21.9688
Q15.875 24.4219 12.1406 26.2031
Q8.40625 27.9844 6.46875 31.125
Q4.54688 34.2812 4.54688 38.0938
Q4.54688 41.5469 6.125 44.5
Q7.71875 47.4688 10.4531 49.4219
Q12.5 50.9219 16.0312 51.9688
Q19.5781 53.0312 23.6406 53.0312
Q29.7344 53.0312 34.3438 51.2656
Q38.9688 49.5156 41.1562 46.5
Q43.3594 43.5 44.1875 38.4844
L35.5938 37.3125
Q35.0156 41.3125 32.2031 43.5469
Q29.3906 45.7969 24.2656 45.7969
Q18.2188 45.7969 15.625 43.7969
Q13.0312 41.7969 13.0312 39.1094
Q13.0312 37.4062 14.1094 36.0312
Q15.1875 34.625 17.4844 33.6875
Q18.7969 33.2031 25.25 31.4531
Q34.5781 28.9531 38.25 27.3594
Q41.9375 25.7812 44.0312 22.75
Q46.1406 19.7344 46.1406 15.2344
Q46.1406 10.8438 43.5781 6.95312
Q41.0156 3.07812 36.1719 0.953125
Q31.3438 -1.17188 25.25 -1.17188
Q15.1406 -1.17188 9.84375 3.03125
Q4.54688 7.23438 3.07812 15.4844" id="ArialMT-73"/>
    </defs>
    <g style="fill:#262626;" transform="translate(446.5925 23.9034375)scale(0.18 -0.18)">
     <use xlink:href="#ArialMT-4c"/>
     <use x="55.615234375" xlink:href="#ArialMT-6f"/>
     <use x="111.23046875" xlink:href="#ArialMT-67"/>
     <use x="166.845703125" xlink:href="#ArialMT-20"/>
     <use x="194.62890625" xlink:href="#ArialMT-43"/>
     <use x="266.845703125" xlink:href="#ArialMT-6f"/>
     <use x="322.4609375" xlink:href="#ArialMT-6e"/>
     <use x="378.076171875" xlink:href="#ArialMT-73"/>
     <use x="428.076171875" xlink:href="#ArialMT-75"/>
     <use x="483.69140625" xlink:href="#ArialMT-6d"/>
     <use x="566.9921875" xlink:href="#ArialMT-70"/>
     <use x="622.607421875" xlink:href="#ArialMT-74"/>
     <use x="650.390625" xlink:href="#ArialMT-69"/>
     <use x="672.607421875" xlink:href="#ArialMT-6f"/>
     <use x="728.22265625" xlink:href="#ArialMT-6e"/>
     <use x="783.837890625" xlink:href="#ArialMT-20"/>
     <use x="811.62109375" xlink:href="#ArialMT-43"/>
     <use x="883.837890625" xlink:href="#ArialMT-68"/>
     <use x="939.453125" xlink:href="#ArialMT-61"/>
     <use x="995.068359375" xlink:href="#ArialMT-6e"/>
     <use x="1050.68359375" xlink:href="#ArialMT-67"/>
     <use x="1106.29882812" xlink:href="#ArialMT-65"/>
    </g>
   </g>
   <g id="legend_1">
    <g id="line2d_92">
     <path d="
M417.168 51.6875
L453.168 51.6875" style="fill:none;stroke:#4c72b0;stroke-linecap:round;stroke-width:1.75;"/>
    </g>
    <g id="line2d_93"/>
    <g id="text_32">
     <!-- $\theta = 0.5$ -->
     <defs>
      <path d="
M16.1094 -1.125
Q11.5781 -1.125 8.84375 2.1875
Q6.10938 5.51562 5.04688 10.2031
Q4 14.8906 4 19.4844
L4 19.5781
Q4 24.5625 4.95312 29.9219
Q5.90625 35.2969 7.70312 40.6406
Q9.51562 46 11.625 50.2031
Q13.0938 53.125 15.4062 56.7344
Q17.7188 60.3594 20.5781 63.5
Q23.4375 66.6562 26.7344 68.5781
Q30.0312 70.5156 33.4062 70.5156
L33.5 70.5156
Q37.1094 70.5156 39.5156 68.5
Q41.9375 66.5 43.2812 63.375
Q44.625 60.25 45.1562 56.6875
Q45.7031 53.125 45.7031 49.9062
Q45.7031 42.3281 43.6562 34.4375
Q41.6094 26.5625 37.9844 19.1875
Q36.625 16.4062 34.2031 12.6406
Q31.7812 8.89062 29.0781 5.90625
Q26.375 2.9375 23 0.90625
Q19.625 -1.125 16.2188 -1.125
z

M16.3125 1.51562
Q19.625 1.51562 22.6719 5.04688
Q25.7344 8.59375 28.0312 13.6406
Q30.3281 18.7031 32.0625 24
Q33.7969 29.2969 34.625 33.0156
L14.2031 33.0156
Q12.6406 26.7031 11.7656 22.1406
Q10.8906 17.5781 10.8906 13.1875
Q10.8906 1.51562 16.3125 1.51562
M14.9844 36.5312
L35.5 36.5312
Q36.5781 40.9219 37.2031 43.875
Q37.8438 46.8281 38.2812 50.0938
Q38.7188 53.375 38.7188 56.2031
Q38.7188 67.9219 33.4062 67.9219
Q27.0469 67.9219 22.4375 57.6875
Q17.8281 47.4688 14.9844 36.5312" id="Cmmi10-b5"/>
      <path d="
M25 -2.20312
Q12.75 -2.20312 8.32812 7.875
Q3.90625 17.9688 3.90625 31.8906
Q3.90625 40.5781 5.48438 48.2344
Q7.07812 55.9062 11.7812 61.25
Q16.5 66.6094 25 66.6094
Q31.5938 66.6094 35.7812 63.375
Q39.9844 60.1562 42.1875 55.0469
Q44.3906 49.9531 45.1875 44.1094
Q46 38.2812 46 31.8906
Q46 23.2969 44.4062 15.7969
Q42.8281 8.29688 38.1875 3.04688
Q33.5469 -2.20312 25 -2.20312
M25 0.390625
Q30.5625 0.390625 33.2969 6.09375
Q36.0312 11.8125 36.6719 18.75
Q37.3125 25.6875 37.3125 33.5
Q37.3125 41.0156 36.6719 47.3594
Q36.0312 53.7188 33.3125 58.8594
Q30.6094 64.0156 25 64.0156
Q19.3438 64.0156 16.6094 58.8281
Q13.875 53.6562 13.2344 47.3281
Q12.5938 41.0156 12.5938 33.5
Q12.5938 27.9375 12.8594 23
Q13.1406 18.0625 14.3125 12.8125
Q15.4844 7.5625 18.0938 3.96875
Q20.7031 0.390625 25 0.390625" id="Cmr10-30"/>
      <path d="
M8.40625 5.51562
Q8.40625 7.76562 10.0625 9.375
Q11.7188 10.9844 13.9219 10.9844
Q15.2812 10.9844 16.5938 10.25
Q17.9219 9.51562 18.6562 8.20312
Q19.3906 6.89062 19.3906 5.51562
Q19.3906 3.32812 17.7656 1.65625
Q16.1562 0 13.9219 0
Q11.7188 0 10.0625 1.65625
Q8.40625 3.32812 8.40625 5.51562" id="Cmmi10-3a"/>
      <path d="
M8.6875 11.375
Q9.71875 8.45312 11.8438 6.04688
Q13.9688 3.65625 16.875 2.3125
Q19.7812 0.984375 22.9062 0.984375
Q30.125 0.984375 32.8594 6.59375
Q35.5938 12.2031 35.5938 20.2188
Q35.5938 23.6875 35.4688 26.0469
Q35.3594 28.4219 34.8125 30.6094
Q33.8906 34.125 31.5625 36.7656
Q29.25 39.4062 25.875 39.4062
Q22.5156 39.4062 20.0938 38.375
Q17.6719 37.3594 16.1562 35.9844
Q14.6562 34.625 13.4844 33.1094
Q12.3125 31.5938 12.0156 31.5
L10.8906 31.5
Q10.6406 31.5 10.2656 31.8125
Q9.90625 32.125 9.90625 32.4219
L9.90625 65.8281
Q9.90625 66.0625 10.2188 66.3281
Q10.5469 66.6094 10.8906 66.6094
L11.1875 66.6094
Q17.9219 63.375 25.4844 63.375
Q32.9062 63.375 39.7969 66.6094
L40.0938 66.6094
Q40.4375 66.6094 40.7188 66.3594
Q41.0156 66.1094 41.0156 65.8281
L41.0156 64.8906
Q41.0156 64.4062 40.8281 64.4062
Q37.4062 59.8594 32.25 57.3125
Q27.0938 54.7812 21.5781 54.7812
Q17.5781 54.7812 13.375 55.9062
L13.375 37.0156
Q16.7031 39.7031 19.3125 40.8438
Q21.9219 42 25.9844 42
Q31.5 42 35.8594 38.8125
Q40.2344 35.6406 42.5781 30.5312
Q44.9219 25.4375 44.9219 20.125
Q44.9219 14.1094 41.9688 8.98438
Q39.0156 3.85938 33.9375 0.828125
Q28.8594 -2.20312 22.9062 -2.20312
Q17.9688 -2.20312 13.8438 0.328125
Q9.71875 2.875 7.34375 7.17188
Q4.98438 11.4688 4.98438 16.3125
Q4.98438 18.5625 6.4375 19.9688
Q7.90625 21.3906 10.1094 21.3906
Q12.3125 21.3906 13.7969 19.9375
Q15.2812 18.5 15.2812 16.3125
Q15.2812 14.1562 13.7969 12.6719
Q12.3125 11.1875 10.1094 11.1875
Q9.76562 11.1875 9.32812 11.25
Q8.89062 11.3281 8.6875 11.375" id="Cmr10-35"/>
      <path d="
M7.51562 13.2812
Q6.6875 13.2812 6.14062 13.9062
Q5.60938 14.5469 5.60938 15.2812
Q5.60938 16.1094 6.14062 16.6875
Q6.6875 17.2812 7.51562 17.2812
L70.3125 17.2812
Q71.0469 17.2812 71.5781 16.6875
Q72.125 16.1094 72.125 15.2812
Q72.125 14.5469 71.5781 13.9062
Q71.0469 13.2812 70.3125 13.2812
z

M7.51562 32.7188
Q6.6875 32.7188 6.14062 33.2969
Q5.60938 33.8906 5.60938 34.7188
Q5.60938 35.4531 6.14062 36.0781
Q6.6875 36.7188 7.51562 36.7188
L70.3125 36.7188
Q71.0469 36.7188 71.5781 36.0781
Q72.125 35.4531 72.125 34.7188
Q72.125 33.8906 71.5781 33.2969
Q71.0469 32.7188 70.3125 32.7188
z
" id="Cmr10-3d"/>
     </defs>
     <g style="fill:#262626;" transform="translate(467.56796875 57.9875)scale(0.18 -0.18)">
      <use transform="translate(0.0 0.484375)" xlink:href="#Cmmi10-b5"/>
      <use transform="translate(64.482421875 0.484375)" xlink:href="#Cmr10-3d"/>
      <use transform="translate(148.541015625 0.484375)" xlink:href="#Cmr10-30"/>
      <use transform="translate(198.541015625 0.484375)" xlink:href="#Cmmi10-3a"/>
      <use transform="translate(227.083984375 0.484375)" xlink:href="#Cmr10-35"/>
     </g>
    </g>
    <g id="line2d_94">
     <path d="
M417.168 77.1491
L453.168 77.1491" style="fill:none;stroke:#55a868;stroke-linecap:round;stroke-width:1.75;"/>
    </g>
    <g id="line2d_95"/>
    <g id="text_33">
     <!-- $\theta = 1.0$ -->
     <defs>
      <path d="
M9.28125 0
L9.28125 3.51562
Q21.7812 3.51562 21.7812 6.6875
L21.7812 59.1875
Q16.6094 56.6875 8.6875 56.6875
L8.6875 60.2031
Q20.9531 60.2031 27.2031 66.6094
L28.6094 66.6094
Q28.9531 66.6094 29.2656 66.3281
Q29.5938 66.0625 29.5938 65.7188
L29.5938 6.6875
Q29.5938 3.51562 42.0938 3.51562
L42.0938 0
z
" id="Cmr10-31"/>
     </defs>
     <g style="fill:#262626;" transform="translate(467.56796875 83.4490625)scale(0.18 -0.18)">
      <use transform="translate(0.0 0.484375)" xlink:href="#Cmmi10-b5"/>
      <use transform="translate(64.482421875 0.484375)" xlink:href="#Cmr10-3d"/>
      <use transform="translate(148.541015625 0.484375)" xlink:href="#Cmr10-31"/>
      <use transform="translate(198.541015625 0.484375)" xlink:href="#Cmmi10-3a"/>
      <use transform="translate(227.083984375 0.484375)" xlink:href="#Cmr10-30"/>
     </g>
    </g>
    <g id="line2d_96">
     <path d="
M417.168 102.611
L453.168 102.611" style="fill:none;stroke:#c44e52;stroke-linecap:round;stroke-width:1.75;"/>
    </g>
    <g id="line2d_97"/>
    <g id="text_34">
     <!-- $\theta = 2.0$ -->
     <defs>
      <path d="
M4.98438 0
L4.98438 2.6875
Q4.98438 2.9375 5.17188 3.21875
L20.7031 20.4062
Q24.2188 24.2188 26.4062 26.7969
Q28.6094 29.3906 30.75 32.7656
Q32.9062 36.1406 34.1562 39.625
Q35.4062 43.1094 35.4062 47.0156
Q35.4062 51.125 33.8906 54.8594
Q32.375 58.5938 29.375 60.8438
Q26.375 63.0938 22.125 63.0938
Q17.7812 63.0938 14.3125 60.4688
Q10.8438 57.8594 9.42188 53.7188
Q9.8125 53.8125 10.5 53.8125
Q12.75 53.8125 14.3281 52.2969
Q15.9219 50.7812 15.9219 48.3906
Q15.9219 46.0938 14.3281 44.5
Q12.75 42.9219 10.5 42.9219
Q8.15625 42.9219 6.5625 44.5469
Q4.98438 46.1875 4.98438 48.3906
Q4.98438 52.1562 6.39062 55.4375
Q7.8125 58.7344 10.4688 61.2969
Q13.1406 63.875 16.4844 65.2344
Q19.8281 66.6094 23.5781 66.6094
Q29.2969 66.6094 34.2188 64.1875
Q39.1562 61.7656 42.0312 57.3438
Q44.9219 52.9375 44.9219 47.0156
Q44.9219 42.6719 43.0156 38.7656
Q41.1094 34.8594 38.125 31.6562
Q35.1562 28.4688 30.5156 24.4062
Q25.875 20.3594 24.4219 19
L13.0938 8.10938
L22.7031 8.10938
Q29.7812 8.10938 34.5469 8.21875
Q39.3125 8.34375 39.5938 8.59375
Q40.7656 9.85938 42 17.8281
L44.9219 17.8281
L42.0938 0
z
" id="Cmr10-32"/>
     </defs>
     <g style="fill:#262626;" transform="translate(467.56796875 108.910625)scale(0.18 -0.18)">
      <use transform="translate(0.0 0.484375)" xlink:href="#Cmmi10-b5"/>
      <use transform="translate(64.482421875 0.484375)" xlink:href="#Cmr10-3d"/>
      <use transform="translate(148.541015625 0.484375)" xlink:href="#Cmr10-32"/>
      <use transform="translate(198.541015625 0.484375)" xlink:href="#Cmmi10-3a"/>
      <use transform="translate(227.083984375 0.484375)" xlink:href="#Cmr10-30"/>
     </g>
    </g>
    <g id="line2d_98">
     <path d="
M417.168 128.072
L453.168 128.072" style="fill:none;stroke:#8172b2;stroke-linecap:round;stroke-width:1.75;"/>
    </g>
    <g id="line2d_99"/>
    <g id="text_35">
     <!-- $\theta = 3.0$ -->
     <defs>
      <path d="
M9.51562 7.71875
Q11.8594 4.29688 15.8125 2.64062
Q19.7812 0.984375 24.3125 0.984375
Q30.125 0.984375 32.5625 5.9375
Q35.0156 10.8906 35.0156 17.1875
Q35.0156 20.0156 34.5 22.8438
Q33.9844 25.6875 32.7656 28.125
Q31.5469 30.5625 29.4219 32.0312
Q27.2969 33.5 24.2188 33.5
L17.5781 33.5
Q16.7031 33.5 16.7031 34.4219
L16.7031 35.2969
Q16.7031 36.0781 17.5781 36.0781
L23.0938 36.5312
Q26.6094 36.5312 28.9219 39.1562
Q31.25 41.7969 32.3281 45.5781
Q33.4062 49.3594 33.4062 52.7812
Q33.4062 57.5625 31.1562 60.6406
Q28.9062 63.7188 24.3125 63.7188
Q20.5156 63.7188 17.0469 62.2812
Q13.5781 60.8438 11.5312 57.9062
Q11.7188 57.9531 11.8594 57.9844
Q12.0156 58.0156 12.2031 58.0156
Q14.4531 58.0156 15.9688 56.4531
Q17.4844 54.8906 17.4844 52.6875
Q17.4844 50.5312 15.9688 48.9688
Q14.4531 47.4062 12.2031 47.4062
Q10.0156 47.4062 8.45312 48.9688
Q6.89062 50.5312 6.89062 52.6875
Q6.89062 56.9844 9.46875 60.1562
Q12.0625 63.3281 16.1406 64.9688
Q20.2188 66.6094 24.3125 66.6094
Q27.3438 66.6094 30.7031 65.7031
Q34.0781 64.7969 36.8125 63.1094
Q39.5469 61.4219 41.2812 58.7812
Q43.0156 56.1562 43.0156 52.7812
Q43.0156 48.5781 41.1406 45.0156
Q39.2656 41.4531 35.9844 38.8594
Q32.7188 36.2812 28.8125 35.0156
Q33.1562 34.1875 37.0625 31.7344
Q40.9688 29.2969 43.3281 25.4844
Q45.7031 21.6875 45.7031 17.2812
Q45.7031 11.7656 42.6719 7.29688
Q39.6562 2.82812 34.7188 0.3125
Q29.7812 -2.20312 24.3125 -2.20312
Q19.625 -2.20312 14.9062 -0.40625
Q10.2031 1.375 7.20312 4.9375
Q4.20312 8.5 4.20312 13.4844
Q4.20312 15.9688 5.85938 17.625
Q7.51562 19.2812 10.0156 19.2812
Q11.625 19.2812 12.9688 18.5312
Q14.3125 17.7812 15.0625 16.4062
Q15.8281 15.0469 15.8281 13.4844
Q15.8281 11.0312 14.1094 9.375
Q12.4062 7.71875 10.0156 7.71875
z
" id="Cmr10-33"/>
     </defs>
     <g style="fill:#262626;" transform="translate(467.56796875 134.3721875)scale(0.18 -0.18)">
      <use transform="translate(0.0 0.484375)" xlink:href="#Cmmi10-b5"/>
      <use transform="translate(64.482421875 0.484375)" xlink:href="#Cmr10-3d"/>
      <use transform="translate(148.541015625 0.484375)" xlink:href="#Cmr10-33"/>
      <use transform="translate(198.541015625 0.484375)" xlink:href="#Cmmi10-3a"/>
      <use transform="translate(227.083984375 0.484375)" xlink:href="#Cmr10-30"/>
     </g>
    </g>
    <g id="line2d_100">
     <path d="
M417.168 153.534
L453.168 153.534" style="fill:none;stroke:#ccb974;stroke-linecap:round;stroke-width:1.75;"/>
    </g>
    <g id="line2d_101"/>
    <g id="text_36">
     <!-- No change -->
     <defs>
      <path d="
M40.4375 19
L49.0781 17.875
Q47.6562 8.9375 41.8125 3.875
Q35.9844 -1.17188 27.4844 -1.17188
Q16.8438 -1.17188 10.375 5.78125
Q3.90625 12.75 3.90625 25.7344
Q3.90625 34.125 6.6875 40.4219
Q9.46875 46.7344 15.1562 49.875
Q20.8438 53.0312 27.5469 53.0312
Q35.9844 53.0312 41.3594 48.75
Q46.7344 44.4844 48.25 36.625
L39.7031 35.2969
Q38.4844 40.5312 35.375 43.1562
Q32.2812 45.7969 27.875 45.7969
Q21.2344 45.7969 17.0781 41.0312
Q12.9375 36.2812 12.9375 25.9844
Q12.9375 15.5312 16.9375 10.7969
Q20.9531 6.0625 27.3906 6.0625
Q32.5625 6.0625 36.0312 9.23438
Q39.5 12.4062 40.4375 19" id="ArialMT-63"/>
      <path d="
M7.625 0
L7.625 71.5781
L17.3281 71.5781
L54.9375 15.375
L54.9375 71.5781
L64.0156 71.5781
L64.0156 0
L54.2969 0
L16.7031 56.25
L16.7031 0
z
" id="ArialMT-4e"/>
     </defs>
     <g style="fill:#262626;" transform="translate(467.56796875 159.83375)scale(0.18 -0.18)">
      <use xlink:href="#ArialMT-4e"/>
      <use x="72.216796875" xlink:href="#ArialMT-6f"/>
      <use x="127.83203125" xlink:href="#ArialMT-20"/>
      <use x="155.615234375" xlink:href="#ArialMT-63"/>
      <use x="205.615234375" xlink:href="#ArialMT-68"/>
      <use x="261.23046875" xlink:href="#ArialMT-61"/>
      <use x="316.845703125" xlink:href="#ArialMT-6e"/>
      <use x="372.4609375" xlink:href="#ArialMT-67"/>
      <use x="428.076171875" xlink:href="#ArialMT-65"/>
     </g>
    </g>
   </g>
  </g>
 </g>
 <defs>
  <clipPath id="p49c716941d">
   <rect height="275.3734375" width="299.6328125" x="400.96796875" y="28.9034375"/>
  </clipPath>
  <clipPath id="pdd21bf0870">
   <rect height="275.3734375" width="299.6328125" x="51.3840625" y="28.9034375"/>
  </clipPath>
 </defs>
</svg>
