<?xml version="1.0" encoding="utf-8" standalone="no"?>
<!DOCTYPE svg PUBLIC "-//W3C//DTD SVG 1.1//EN"
  "http://www.w3.org/Graphics/SVG/1.1/DTD/svg11.dtd">
<!-- Created with matplotlib (http://matplotlib.org/) -->
<svg height="360pt" version="1.1" viewBox="0 0 504 360" width="504pt" xmlns="http://www.w3.org/2000/svg" xmlns:xlink="http://www.w3.org/1999/xlink">
 <defs>
  <style type="text/css">
*{stroke-linecap:butt;stroke-linejoin:round;}
  </style>
 </defs>
 <g id="figure_1">
  <g id="patch_1">
   <path d="
M0 360
L504 360
L504 0
L0 0
z
" style="fill:#ffffff;"/>
  </g>
  <g id="axes_1">
   <g id="patch_2">
    <path d="
M72.9778 304.058
L481.428 304.058
L481.428 28.6841
L72.9778 28.6841
z
" style="fill:#ffffff;"/>
   </g>
   <g id="matplotlib.axis_1">
    <g id="xtick_1">
     <g id="line2d_1">
      <path clip-path="url(#p51d9fffd7c)" d="
M72.9778 304.058
L72.9778 28.6841" style="fill:none;stroke:#cccccc;stroke-linecap:round;"/>
     </g>
     <g id="line2d_2">
      <defs>
       <path d="
M0 0
L0 0" id="m219da94a98" style="stroke:#262626;"/>
      </defs>
      <g>
       <use style="fill:#262626;stroke:#262626;" x="72.9778125" xlink:href="#m219da94a98" y="304.0575"/>
      </g>
     </g>
     <g id="line2d_3">
      <g>
       <use style="fill:#262626;stroke:#262626;" x="72.9778125" xlink:href="#m219da94a98" y="28.6840625"/>
      </g>
     </g>
     <g id="text_1">
      <!-- 0.0 -->
      <defs>
       <path d="
M4.15625 35.2969
Q4.15625 48 6.76562 55.7344
Q9.375 63.4844 14.5156 67.6719
Q19.6719 71.875 27.4844 71.875
Q33.25 71.875 37.5938 69.5469
Q41.9375 67.2344 44.7656 62.8594
Q47.6094 58.5 49.2188 52.2188
Q50.8281 45.9531 50.8281 35.2969
Q50.8281 22.7031 48.2344 14.9688
Q45.6562 7.23438 40.5 3
Q35.3594 -1.21875 27.4844 -1.21875
Q17.1406 -1.21875 11.2344 6.20312
Q4.15625 15.1406 4.15625 35.2969
M13.1875 35.2969
Q13.1875 17.6719 17.3125 11.8281
Q21.4375 6 27.4844 6
Q33.5469 6 37.6719 11.8594
Q41.7969 17.7188 41.7969 35.2969
Q41.7969 52.9844 37.6719 58.7812
Q33.5469 64.5938 27.3906 64.5938
Q21.3438 64.5938 17.7188 59.4688
Q13.1875 52.9375 13.1875 35.2969" id="ArialMT-30"/>
       <path d="
M9.07812 0
L9.07812 10.0156
L19.0938 10.0156
L19.0938 0
z
" id="ArialMT-2e"/>
      </defs>
      <g style="fill:#262626;" transform="translate(61.2721875 323.9415625)scale(0.18 -0.18)">
       <use xlink:href="#ArialMT-30"/>
       <use x="55.615234375" xlink:href="#ArialMT-2e"/>
       <use x="83.3984375" xlink:href="#ArialMT-30"/>
      </g>
     </g>
    </g>
    <g id="xtick_2">
     <g id="line2d_4">
      <path clip-path="url(#p51d9fffd7c)" d="
M131.328 304.058
L131.328 28.6841" style="fill:none;stroke:#cccccc;stroke-linecap:round;"/>
     </g>
     <g id="line2d_5">
      <g>
       <use style="fill:#262626;stroke:#262626;" x="131.327879464" xlink:href="#m219da94a98" y="304.0575"/>
      </g>
     </g>
     <g id="line2d_6">
      <g>
       <use style="fill:#262626;stroke:#262626;" x="131.327879464" xlink:href="#m219da94a98" y="28.6840625"/>
      </g>
     </g>
     <g id="text_2">
      <!-- 0.5 -->
      <defs>
       <path d="
M4.15625 18.75
L13.375 19.5312
Q14.4062 12.7969 18.1406 9.39062
Q21.875 6 27.1562 6
Q33.5 6 37.8906 10.7812
Q42.2812 15.5781 42.2812 23.4844
Q42.2812 31 38.0625 35.3438
Q33.8438 39.7031 27 39.7031
Q22.75 39.7031 19.3281 37.7656
Q15.9219 35.8438 13.9688 32.7656
L5.71875 33.8438
L12.6406 70.6094
L48.25 70.6094
L48.25 62.2031
L19.6719 62.2031
L15.8281 42.9688
Q22.2656 47.4688 29.3438 47.4688
Q38.7188 47.4688 45.1562 40.9688
Q51.6094 34.4688 51.6094 24.2656
Q51.6094 14.5469 45.9531 7.46875
Q39.0625 -1.21875 27.1562 -1.21875
Q17.3906 -1.21875 11.2031 4.25
Q5.03125 9.71875 4.15625 18.75" id="ArialMT-35"/>
      </defs>
      <g style="fill:#262626;" transform="translate(119.551941964 323.9415625)scale(0.18 -0.18)">
       <use xlink:href="#ArialMT-30"/>
       <use x="55.615234375" xlink:href="#ArialMT-2e"/>
       <use x="83.3984375" xlink:href="#ArialMT-35"/>
      </g>
     </g>
    </g>
    <g id="xtick_3">
     <g id="line2d_7">
      <path clip-path="url(#p51d9fffd7c)" d="
M189.678 304.058
L189.678 28.6841" style="fill:none;stroke:#cccccc;stroke-linecap:round;"/>
     </g>
     <g id="line2d_8">
      <g>
       <use style="fill:#262626;stroke:#262626;" x="189.677946429" xlink:href="#m219da94a98" y="304.0575"/>
      </g>
     </g>
     <g id="line2d_9">
      <g>
       <use style="fill:#262626;stroke:#262626;" x="189.677946429" xlink:href="#m219da94a98" y="28.6840625"/>
      </g>
     </g>
     <g id="text_3">
      <!-- 1.0 -->
      <defs>
       <path d="
M37.25 0
L28.4688 0
L28.4688 56
Q25.2969 52.9844 20.1406 49.9531
Q14.9844 46.9219 10.8906 45.4062
L10.8906 53.9062
Q18.2656 57.375 23.7812 62.2969
Q29.2969 67.2344 31.5938 71.875
L37.25 71.875
z
" id="ArialMT-31"/>
      </defs>
      <g style="fill:#262626;" transform="translate(178.578415179 323.9415625)scale(0.18 -0.18)">
       <use xlink:href="#ArialMT-31"/>
       <use x="55.615234375" xlink:href="#ArialMT-2e"/>
       <use x="83.3984375" xlink:href="#ArialMT-30"/>
      </g>
     </g>
    </g>
    <g id="xtick_4">
     <g id="line2d_10">
      <path clip-path="url(#p51d9fffd7c)" d="
M248.028 304.058
L248.028 28.6841" style="fill:none;stroke:#cccccc;stroke-linecap:round;"/>
     </g>
     <g id="line2d_11">
      <g>
       <use style="fill:#262626;stroke:#262626;" x="248.028013393" xlink:href="#m219da94a98" y="304.0575"/>
      </g>
     </g>
     <g id="line2d_12">
      <g>
       <use style="fill:#262626;stroke:#262626;" x="248.028013393" xlink:href="#m219da94a98" y="28.6840625"/>
      </g>
     </g>
     <g id="text_4">
      <!-- 1.5 -->
      <g style="fill:#262626;" transform="translate(236.858169643 323.9415625)scale(0.18 -0.18)">
       <use xlink:href="#ArialMT-31"/>
       <use x="55.615234375" xlink:href="#ArialMT-2e"/>
       <use x="83.3984375" xlink:href="#ArialMT-35"/>
      </g>
     </g>
    </g>
    <g id="xtick_5">
     <g id="line2d_13">
      <path clip-path="url(#p51d9fffd7c)" d="
M306.378 304.058
L306.378 28.6841" style="fill:none;stroke:#cccccc;stroke-linecap:round;"/>
     </g>
     <g id="line2d_14">
      <g>
       <use style="fill:#262626;stroke:#262626;" x="306.378080357" xlink:href="#m219da94a98" y="304.0575"/>
      </g>
     </g>
     <g id="line2d_15">
      <g>
       <use style="fill:#262626;stroke:#262626;" x="306.378080357" xlink:href="#m219da94a98" y="28.6840625"/>
      </g>
     </g>
     <g id="text_5">
      <!-- 2.0 -->
      <defs>
       <path d="
M50.3438 8.45312
L50.3438 0
L3.03125 0
Q2.9375 3.17188 4.04688 6.10938
Q5.85938 10.9375 9.82812 15.625
Q13.8125 20.3125 21.3438 26.4688
Q33.0156 36.0312 37.1094 41.625
Q41.2188 47.2188 41.2188 52.2031
Q41.2188 57.4219 37.4688 61
Q33.7344 64.5938 27.7344 64.5938
Q21.3906 64.5938 17.5781 60.7812
Q13.7656 56.9844 13.7188 50.25
L4.6875 51.1719
Q5.60938 61.2812 11.6562 66.5781
Q17.7188 71.875 27.9375 71.875
Q38.2344 71.875 44.2344 66.1562
Q50.25 60.4531 50.25 52
Q50.25 47.7031 48.4844 43.5469
Q46.7344 39.4062 42.6562 34.8125
Q38.5781 30.2188 29.1094 22.2188
Q21.1875 15.5781 18.9375 13.2031
Q16.7031 10.8438 15.2344 8.45312
z
" id="ArialMT-32"/>
      </defs>
      <g style="fill:#262626;" transform="translate(294.562767857 323.9415625)scale(0.18 -0.18)">
       <use xlink:href="#ArialMT-32"/>
       <use x="55.615234375" xlink:href="#ArialMT-2e"/>
       <use x="83.3984375" xlink:href="#ArialMT-30"/>
      </g>
     </g>
    </g>
    <g id="xtick_6">
     <g id="line2d_16">
      <path clip-path="url(#p51d9fffd7c)" d="
M364.728 304.058
L364.728 28.6841" style="fill:none;stroke:#cccccc;stroke-linecap:round;"/>
     </g>
     <g id="line2d_17">
      <g>
       <use style="fill:#262626;stroke:#262626;" x="364.728147321" xlink:href="#m219da94a98" y="304.0575"/>
      </g>
     </g>
     <g id="line2d_18">
      <g>
       <use style="fill:#262626;stroke:#262626;" x="364.728147321" xlink:href="#m219da94a98" y="28.6840625"/>
      </g>
     </g>
     <g id="text_6">
      <!-- 2.5 -->
      <g style="fill:#262626;" transform="translate(352.842522321 323.9415625)scale(0.18 -0.18)">
       <use xlink:href="#ArialMT-32"/>
       <use x="55.615234375" xlink:href="#ArialMT-2e"/>
       <use x="83.3984375" xlink:href="#ArialMT-35"/>
      </g>
     </g>
    </g>
    <g id="xtick_7">
     <g id="line2d_19">
      <path clip-path="url(#p51d9fffd7c)" d="
M423.078 304.058
L423.078 28.6841" style="fill:none;stroke:#cccccc;stroke-linecap:round;"/>
     </g>
     <g id="line2d_20">
      <g>
       <use style="fill:#262626;stroke:#262626;" x="423.078214286" xlink:href="#m219da94a98" y="304.0575"/>
      </g>
     </g>
     <g id="line2d_21">
      <g>
       <use style="fill:#262626;stroke:#262626;" x="423.078214286" xlink:href="#m219da94a98" y="28.6840625"/>
      </g>
     </g>
     <g id="text_7">
      <!-- 3.0 -->
      <defs>
       <path d="
M4.20312 18.8906
L12.9844 20.0625
Q14.5 12.5938 18.1406 9.29688
Q21.7812 6 27 6
Q33.2031 6 37.4688 10.2969
Q41.75 14.5938 41.75 20.9531
Q41.75 27 37.7969 30.9219
Q33.8438 34.8594 27.7344 34.8594
Q25.25 34.8594 21.5312 33.8906
L22.5156 41.6094
Q23.3906 41.5 23.9219 41.5
Q29.5469 41.5 34.0312 44.4219
Q38.5312 47.3594 38.5312 53.4688
Q38.5312 58.2969 35.25 61.4688
Q31.9844 64.6562 26.8125 64.6562
Q21.6875 64.6562 18.2656 61.4219
Q14.8438 58.2031 13.875 51.7656
L5.07812 53.3281
Q6.6875 62.1562 12.3906 67.0156
Q18.1094 71.875 26.6094 71.875
Q32.4688 71.875 37.3906 69.3594
Q42.3281 66.8438 44.9375 62.5
Q47.5625 58.1562 47.5625 53.2656
Q47.5625 48.6406 45.0625 44.8281
Q42.5781 41.0156 37.7031 38.7656
Q44.0469 37.3125 47.5625 32.6875
Q51.0781 28.0781 51.0781 21.1406
Q51.0781 11.7656 44.2344 5.25
Q37.4062 -1.26562 26.9531 -1.26562
Q17.5312 -1.26562 11.2969 4.34375
Q5.07812 9.96875 4.20312 18.8906" id="ArialMT-33"/>
      </defs>
      <g style="fill:#262626;" transform="translate(411.376808036 323.9415625)scale(0.18 -0.18)">
       <use xlink:href="#ArialMT-33"/>
       <use x="55.615234375" xlink:href="#ArialMT-2e"/>
       <use x="83.3984375" xlink:href="#ArialMT-30"/>
      </g>
     </g>
    </g>
    <g id="xtick_8">
     <g id="line2d_22">
      <path clip-path="url(#p51d9fffd7c)" d="
M481.428 304.058
L481.428 28.6841" style="fill:none;stroke:#cccccc;stroke-linecap:round;"/>
     </g>
     <g id="line2d_23">
      <g>
       <use style="fill:#262626;stroke:#262626;" x="481.42828125" xlink:href="#m219da94a98" y="304.0575"/>
      </g>
     </g>
     <g id="line2d_24">
      <g>
       <use style="fill:#262626;stroke:#262626;" x="481.42828125" xlink:href="#m219da94a98" y="28.6840625"/>
      </g>
     </g>
     <g id="text_8">
      <!-- 3.5 -->
      <g style="fill:#262626;" transform="translate(469.6565625 323.9415625)scale(0.18 -0.18)">
       <use xlink:href="#ArialMT-33"/>
       <use x="55.615234375" xlink:href="#ArialMT-2e"/>
       <use x="83.3984375" xlink:href="#ArialMT-35"/>
      </g>
     </g>
    </g>
    <g id="text_9">
     <!-- Capital -->
     <defs>
      <path d="
M40.4375 6.39062
Q35.5469 2.25 31.0312 0.53125
Q26.5156 -1.17188 21.3438 -1.17188
Q12.7969 -1.17188 8.20312 3
Q3.60938 7.17188 3.60938 13.6719
Q3.60938 17.4844 5.34375 20.625
Q7.07812 23.7812 9.89062 25.6875
Q12.7031 27.5938 16.2188 28.5625
Q18.7969 29.25 24.0312 29.8906
Q34.6719 31.1562 39.7031 32.9062
Q39.75 34.7188 39.75 35.2031
Q39.75 40.5781 37.25 42.7812
Q33.8906 45.75 27.25 45.75
Q21.0469 45.75 18.0938 43.5781
Q15.1406 41.4062 13.7188 35.8906
L5.125 37.0625
Q6.29688 42.5781 8.98438 45.9688
Q11.6719 49.3594 16.75 51.1875
Q21.8281 53.0312 28.5156 53.0312
Q35.1562 53.0312 39.2969 51.4688
Q43.4531 49.9062 45.4062 47.5312
Q47.3594 45.1719 48.1406 41.5469
Q48.5781 39.3125 48.5781 33.4531
L48.5781 21.7344
Q48.5781 9.46875 49.1406 6.21875
Q49.7031 2.98438 51.375 0
L42.1875 0
Q40.8281 2.73438 40.4375 6.39062
M39.7031 26.0312
Q34.9062 24.0781 25.3438 22.7031
Q19.9219 21.9219 17.6719 20.9375
Q15.4375 19.9688 14.2031 18.0938
Q12.9844 16.2188 12.9844 13.9219
Q12.9844 10.4062 15.6406 8.0625
Q18.3125 5.71875 23.4375 5.71875
Q28.5156 5.71875 32.4688 7.9375
Q36.4219 10.1562 38.2812 14.0156
Q39.7031 17 39.7031 22.7969
z
" id="ArialMT-61"/>
      <path d="
M25.7812 7.85938
L27.0469 0.09375
Q23.3438 -0.6875 20.4062 -0.6875
Q15.625 -0.6875 12.9844 0.828125
Q10.3594 2.34375 9.28125 4.8125
Q8.20312 7.28125 8.20312 15.1875
L8.20312 45.0156
L1.76562 45.0156
L1.76562 51.8594
L8.20312 51.8594
L8.20312 64.7031
L16.9375 69.9688
L16.9375 51.8594
L25.7812 51.8594
L25.7812 45.0156
L16.9375 45.0156
L16.9375 14.7031
Q16.9375 10.9375 17.4062 9.85938
Q17.875 8.79688 18.9219 8.15625
Q19.9688 7.51562 21.9219 7.51562
Q23.3906 7.51562 25.7812 7.85938" id="ArialMT-74"/>
      <path d="
M58.7969 25.0938
L68.2656 22.7031
Q65.2812 11.0312 57.5469 4.90625
Q49.8125 -1.21875 38.625 -1.21875
Q27.0469 -1.21875 19.7969 3.48438
Q12.5469 8.20312 8.76562 17.1406
Q4.98438 26.0781 4.98438 36.3281
Q4.98438 47.5156 9.25 55.8281
Q13.5312 64.1562 21.4062 68.4688
Q29.2969 72.7969 38.7656 72.7969
Q49.5156 72.7969 56.8281 67.3281
Q64.1562 61.8594 67.0469 51.9531
L57.7188 49.75
Q55.2188 57.5625 50.4844 61.125
Q45.75 64.7031 38.5781 64.7031
Q30.3281 64.7031 24.7812 60.7344
Q19.2344 56.7812 16.9844 50.1094
Q14.75 43.4531 14.75 36.375
Q14.75 27.25 17.4062 20.4375
Q20.0625 13.625 25.6719 10.25
Q31.2969 6.89062 37.8438 6.89062
Q45.7969 6.89062 51.3125 11.4688
Q56.8438 16.0625 58.7969 25.0938" id="ArialMT-43"/>
      <path d="
M6.59375 -19.875
L6.59375 51.8594
L14.5938 51.8594
L14.5938 45.125
Q17.4375 49.0781 21 51.0469
Q24.5625 53.0312 29.6406 53.0312
Q36.2812 53.0312 41.3594 49.6094
Q46.4375 46.1875 49.0156 39.9531
Q51.6094 33.7344 51.6094 26.3125
Q51.6094 18.3594 48.75 11.9844
Q45.9062 5.60938 40.4531 2.21875
Q35.0156 -1.17188 29 -1.17188
Q24.6094 -1.17188 21.1094 0.6875
Q17.625 2.54688 15.375 5.375
L15.375 -19.875
z

M14.5469 25.6406
Q14.5469 15.625 18.5938 10.8438
Q22.6562 6.0625 28.4219 6.0625
Q34.2812 6.0625 38.4531 11.0156
Q42.625 15.9688 42.625 26.375
Q42.625 36.2812 38.5469 41.2031
Q34.4688 46.1406 28.8125 46.1406
Q23.1875 46.1406 18.8594 40.8906
Q14.5469 35.6406 14.5469 25.6406" id="ArialMT-70"/>
      <path d="
M6.39062 0
L6.39062 71.5781
L15.1875 71.5781
L15.1875 0
z
" id="ArialMT-6c"/>
      <path d="
M6.64062 61.4688
L6.64062 71.5781
L15.4375 71.5781
L15.4375 61.4688
z

M6.64062 0
L6.64062 51.8594
L15.4375 51.8594
L15.4375 0
z
" id="ArialMT-69"/>
     </defs>
     <g style="fill:#262626;" transform="translate(250.270546875 345.6225)scale(0.18 -0.18)">
      <use xlink:href="#ArialMT-43"/>
      <use x="72.216796875" xlink:href="#ArialMT-61"/>
      <use x="127.83203125" xlink:href="#ArialMT-70"/>
      <use x="183.447265625" xlink:href="#ArialMT-69"/>
      <use x="205.6640625" xlink:href="#ArialMT-74"/>
      <use x="233.447265625" xlink:href="#ArialMT-61"/>
      <use x="289.0625" xlink:href="#ArialMT-6c"/>
     </g>
    </g>
   </g>
   <g id="matplotlib.axis_2">
    <g id="ytick_1">
     <g id="line2d_25">
      <path clip-path="url(#p51d9fffd7c)" d="
M72.9778 304.058
L481.428 304.058" style="fill:none;stroke:#cccccc;stroke-linecap:round;"/>
     </g>
     <g id="line2d_26">
      <g>
       <use style="fill:#262626;stroke:#262626;" x="72.9778125" xlink:href="#m219da94a98" y="304.0575"/>
      </g>
     </g>
     <g id="line2d_27">
      <g>
       <use style="fill:#262626;stroke:#262626;" x="481.42828125" xlink:href="#m219da94a98" y="304.0575"/>
      </g>
     </g>
     <g id="text_10">
      <!-- −0.3 -->
      <defs>
       <path d="
M52.8281 31.2031
L5.5625 31.2031
L5.5625 39.4062
L52.8281 39.4062
z
" id="ArialMT-2212"/>
      </defs>
      <g style="fill:#262626;" transform="translate(32.2615625 308.71078125)scale(0.18 -0.18)">
       <use xlink:href="#ArialMT-2212"/>
       <use x="58.3984375" xlink:href="#ArialMT-30"/>
       <use x="114.013671875" xlink:href="#ArialMT-2e"/>
       <use x="141.796875" xlink:href="#ArialMT-33"/>
      </g>
     </g>
    </g>
    <g id="ytick_2">
     <g id="line2d_28">
      <path clip-path="url(#p51d9fffd7c)" d="
M72.9778 248.983
L481.428 248.983" style="fill:none;stroke:#cccccc;stroke-linecap:round;"/>
     </g>
     <g id="line2d_29">
      <g>
       <use style="fill:#262626;stroke:#262626;" x="72.9778125" xlink:href="#m219da94a98" y="248.9828125"/>
      </g>
     </g>
     <g id="line2d_30">
      <g>
       <use style="fill:#262626;stroke:#262626;" x="481.42828125" xlink:href="#m219da94a98" y="248.9828125"/>
      </g>
     </g>
     <g id="text_11">
      <!-- −0.2 -->
      <g style="fill:#262626;" transform="translate(32.39375 253.63609375)scale(0.18 -0.18)">
       <use xlink:href="#ArialMT-2212"/>
       <use x="58.3984375" xlink:href="#ArialMT-30"/>
       <use x="114.013671875" xlink:href="#ArialMT-2e"/>
       <use x="141.796875" xlink:href="#ArialMT-32"/>
      </g>
     </g>
    </g>
    <g id="ytick_3">
     <g id="line2d_31">
      <path clip-path="url(#p51d9fffd7c)" d="
M72.9778 193.908
L481.428 193.908" style="fill:none;stroke:#cccccc;stroke-linecap:round;"/>
     </g>
     <g id="line2d_32">
      <g>
       <use style="fill:#262626;stroke:#262626;" x="72.9778125" xlink:href="#m219da94a98" y="193.908125"/>
      </g>
     </g>
     <g id="line2d_33">
      <g>
       <use style="fill:#262626;stroke:#262626;" x="481.42828125" xlink:href="#m219da94a98" y="193.908125"/>
      </g>
     </g>
     <g id="text_12">
      <!-- −0.1 -->
      <g style="fill:#262626;" transform="translate(34.750625 198.56140625)scale(0.18 -0.18)">
       <use xlink:href="#ArialMT-2212"/>
       <use x="58.3984375" xlink:href="#ArialMT-30"/>
       <use x="114.013671875" xlink:href="#ArialMT-2e"/>
       <use x="141.796875" xlink:href="#ArialMT-31"/>
      </g>
     </g>
    </g>
    <g id="ytick_4">
     <g id="line2d_34">
      <path clip-path="url(#p51d9fffd7c)" d="
M72.9778 138.833
L481.428 138.833" style="fill:none;stroke:#cccccc;stroke-linecap:round;"/>
     </g>
     <g id="line2d_35">
      <g>
       <use style="fill:#262626;stroke:#262626;" x="72.9778125" xlink:href="#m219da94a98" y="138.8334375"/>
      </g>
     </g>
     <g id="line2d_36">
      <g>
       <use style="fill:#262626;stroke:#262626;" x="481.42828125" xlink:href="#m219da94a98" y="138.8334375"/>
      </g>
     </g>
     <g id="text_13">
      <!-- 0.0 -->
      <g style="fill:#262626;" transform="translate(42.5665625 143.48671875)scale(0.18 -0.18)">
       <use xlink:href="#ArialMT-30"/>
       <use x="55.615234375" xlink:href="#ArialMT-2e"/>
       <use x="83.3984375" xlink:href="#ArialMT-30"/>
      </g>
     </g>
    </g>
    <g id="ytick_5">
     <g id="line2d_37">
      <path clip-path="url(#p51d9fffd7c)" d="
M72.9778 83.7588
L481.428 83.7588" style="fill:none;stroke:#cccccc;stroke-linecap:round;"/>
     </g>
     <g id="line2d_38">
      <g>
       <use style="fill:#262626;stroke:#262626;" x="72.9778125" xlink:href="#m219da94a98" y="83.75875"/>
      </g>
     </g>
     <g id="line2d_39">
      <g>
       <use style="fill:#262626;stroke:#262626;" x="481.42828125" xlink:href="#m219da94a98" y="83.75875"/>
      </g>
     </g>
     <g id="text_14">
      <!-- 0.1 -->
      <g style="fill:#262626;" transform="translate(45.010625 88.41203125)scale(0.18 -0.18)">
       <use xlink:href="#ArialMT-30"/>
       <use x="55.615234375" xlink:href="#ArialMT-2e"/>
       <use x="83.3984375" xlink:href="#ArialMT-31"/>
      </g>
     </g>
    </g>
    <g id="ytick_6">
     <g id="text_15">
      <!-- 0.2 -->
      <g style="fill:#262626;" transform="translate(42.65375 33.33734375)scale(0.18 -0.18)">
       <use xlink:href="#ArialMT-30"/>
       <use x="55.615234375" xlink:href="#ArialMT-2e"/>
       <use x="83.3984375" xlink:href="#ArialMT-32"/>
      </g>
     </g>
    </g>
    <g id="text_16">
     <!-- Investment -->
     <defs>
      <path d="
M9.32812 0
L9.32812 71.5781
L18.7969 71.5781
L18.7969 0
z
" id="ArialMT-49"/>
      <path d="
M42.0938 16.7031
L51.1719 15.5781
Q49.0312 7.625 43.2188 3.21875
Q37.4062 -1.17188 28.375 -1.17188
Q17 -1.17188 10.3281 5.82812
Q3.65625 12.8438 3.65625 25.4844
Q3.65625 38.5781 10.3906 45.7969
Q17.1406 53.0312 27.875 53.0312
Q38.2812 53.0312 44.875 45.9531
Q51.4688 38.875 51.4688 26.0312
Q51.4688 25.25 51.4219 23.6875
L12.75 23.6875
Q13.2344 15.1406 17.5781 10.5938
Q21.9219 6.0625 28.4219 6.0625
Q33.25 6.0625 36.6719 8.59375
Q40.0938 11.1406 42.0938 16.7031
M13.2344 30.9062
L42.1875 30.9062
Q41.6094 37.4531 38.875 40.7188
Q34.6719 45.7969 27.9844 45.7969
Q21.9219 45.7969 17.7969 41.75
Q13.6719 37.7031 13.2344 30.9062" id="ArialMT-65"/>
      <path d="
M21 0
L1.26562 51.8594
L10.5469 51.8594
L21.6875 20.7969
Q23.4844 15.7656 25 10.3594
Q26.1719 14.4531 28.2656 20.2188
L39.7969 51.8594
L48.8281 51.8594
L29.2031 0
z
" id="ArialMT-76"/>
      <path d="
M3.07812 15.4844
L11.7656 16.8438
Q12.5 11.625 15.8438 8.84375
Q19.1875 6.0625 25.2031 6.0625
Q31.25 6.0625 34.1719 8.51562
Q37.1094 10.9844 37.1094 14.3125
Q37.1094 17.2812 34.5156 19
Q32.7188 20.1719 25.5312 21.9688
Q15.875 24.4219 12.1406 26.2031
Q8.40625 27.9844 6.46875 31.125
Q4.54688 34.2812 4.54688 38.0938
Q4.54688 41.5469 6.125 44.5
Q7.71875 47.4688 10.4531 49.4219
Q12.5 50.9219 16.0312 51.9688
Q19.5781 53.0312 23.6406 53.0312
Q29.7344 53.0312 34.3438 51.2656
Q38.9688 49.5156 41.1562 46.5
Q43.3594 43.5 44.1875 38.4844
L35.5938 37.3125
Q35.0156 41.3125 32.2031 43.5469
Q29.3906 45.7969 24.2656 45.7969
Q18.2188 45.7969 15.625 43.7969
Q13.0312 41.7969 13.0312 39.1094
Q13.0312 37.4062 14.1094 36.0312
Q15.1875 34.625 17.4844 33.6875
Q18.7969 33.2031 25.25 31.4531
Q34.5781 28.9531 38.25 27.3594
Q41.9375 25.7812 44.0312 22.75
Q46.1406 19.7344 46.1406 15.2344
Q46.1406 10.8438 43.5781 6.95312
Q41.0156 3.07812 36.1719 0.953125
Q31.3438 -1.17188 25.25 -1.17188
Q15.1406 -1.17188 9.84375 3.03125
Q4.54688 7.23438 3.07812 15.4844" id="ArialMT-73"/>
      <path d="
M6.59375 0
L6.59375 51.8594
L14.5 51.8594
L14.5 44.4844
Q20.2188 53.0312 31 53.0312
Q35.6875 53.0312 39.625 51.3438
Q43.5625 49.6562 45.5156 46.9219
Q47.4688 44.1875 48.25 40.4375
Q48.7344 37.9844 48.7344 31.8906
L48.7344 0
L39.9375 0
L39.9375 31.5469
Q39.9375 36.9219 38.9062 39.5781
Q37.8906 42.2344 35.2812 43.8125
Q32.6719 45.4062 29.1562 45.4062
Q23.5312 45.4062 19.4531 41.8438
Q15.375 38.2812 15.375 28.3281
L15.375 0
z
" id="ArialMT-6e"/>
      <path d="
M6.59375 0
L6.59375 51.8594
L14.4531 51.8594
L14.4531 44.5781
Q16.8906 48.3906 20.9375 50.7031
Q25 53.0312 30.1719 53.0312
Q35.9375 53.0312 39.625 50.6406
Q43.3125 48.25 44.8281 43.9531
Q50.9844 53.0312 60.8438 53.0312
Q68.5625 53.0312 72.7031 48.75
Q76.8594 44.4844 76.8594 35.5938
L76.8594 0
L68.1094 0
L68.1094 32.6719
Q68.1094 37.9375 67.25 40.25
Q66.4062 42.5781 64.1562 43.9844
Q61.9219 45.4062 58.8906 45.4062
Q53.4219 45.4062 49.7969 41.7656
Q46.1875 38.1406 46.1875 30.125
L46.1875 0
L37.4062 0
L37.4062 33.6875
Q37.4062 39.5469 35.25 42.4688
Q33.1094 45.4062 28.2188 45.4062
Q24.5156 45.4062 21.3594 43.4531
Q18.2188 41.5 16.7969 37.7344
Q15.375 33.9844 15.375 26.9062
L15.375 0
z
" id="ArialMT-6d"/>
     </defs>
     <g style="fill:#262626;" transform="translate(23.6840625 209.4821875)rotate(-90.0)scale(0.18 -0.18)">
      <use xlink:href="#ArialMT-49"/>
      <use x="27.783203125" xlink:href="#ArialMT-6e"/>
      <use x="83.3984375" xlink:href="#ArialMT-76"/>
      <use x="133.3984375" xlink:href="#ArialMT-65"/>
      <use x="189.013671875" xlink:href="#ArialMT-73"/>
      <use x="239.013671875" xlink:href="#ArialMT-74"/>
      <use x="266.796875" xlink:href="#ArialMT-6d"/>
      <use x="350.09765625" xlink:href="#ArialMT-65"/>
      <use x="405.712890625" xlink:href="#ArialMT-6e"/>
      <use x="461.328125" xlink:href="#ArialMT-74"/>
     </g>
    </g>
   </g>
   <g id="LineCollection_1">
    <defs>
     <path d="
M271.066 -64.9022
L271.066 -325.343" id="C0_0_d294a6c6a7"/>
    </defs>
    <g clip-path="url(#p51d9fffd7c)">
     <use style="fill:none;stroke:#000000;stroke-width:1.75;" x="0.0" xlink:href="#C0_0_d294a6c6a7" y="360.0"/>
    </g>
   </g>
   <g id="line2d_40">
    <path clip-path="url(#p51d9fffd7c)" d="
M92.7866 101.33
L93.1546 101.33
L93.5225 101.33
L93.8904 100.983
L94.2583 100.983
L94.6262 100.635
L95.362 100.635
L95.7299 100.288
L96.4657 100.288
L96.8336 99.941
L97.9373 99.941
L98.3052 99.5937
L99.409 99.5937
L99.7769 99.2465
L101.248 99.2465
L101.616 98.8992
L103.456 98.8992
L103.824 98.5519
L106.399 98.5519
L106.767 98.2047
L121.483 98.2047
L121.851 98.5519
L125.53 98.5519
L125.898 98.8992
L128.474 98.8992
L128.841 99.2465
L131.049 99.2465
L131.417 99.5937
L133.256 99.5937
L133.624 99.941
L135.464 99.941
L135.832 100.288
L137.303 100.288
L137.671 100.635
L139.511 100.635
L139.879 100.983
L140.982 100.983
L141.35 101.33
L142.822 101.33
L143.19 101.677
L144.293 101.677
L144.661 102.024
L146.133 102.024
L146.501 102.372
L147.605 102.372
L147.973 102.719
L149.076 102.719
L149.444 103.066
L150.548 103.066
L150.916 103.414
L152.02 103.414
L152.387 103.761
L153.123 103.761
L153.491 104.108
L154.595 104.108
L154.963 104.455
L156.066 104.455
L156.434 104.803
L157.17 104.803
L157.538 105.15
L158.642 105.15
L159.01 105.497
L160.113 105.497
L160.481 105.844
L161.217 105.844
L161.585 106.192
L162.321 106.192
L162.689 106.539
L163.793 106.539
L164.16 106.886
L164.896 106.886
L165.264 107.233
L166 107.233
L166.368 107.581
L167.104 107.581
L167.472 107.928
L168.207 107.928
L168.575 108.275
L169.311 108.275
L169.679 108.622
L170.783 108.622
L171.151 108.97
L171.886 108.97
L172.254 109.317
L172.99 109.317
L173.358 109.664
L174.094 109.664
L174.462 110.011
L175.198 110.011
L175.565 110.359
L176.301 110.359
L176.669 110.706
L177.405 110.706
L177.773 111.053
L178.509 111.053
L178.877 111.4
L179.245 111.4
L179.612 111.748
L180.348 111.748
L180.716 112.095
L181.452 112.095
L181.82 112.442
L182.556 112.442
L182.924 112.789
L183.659 112.789
L184.027 113.137
L184.395 113.137
L184.763 113.484
L185.499 113.484
L185.867 113.831
L186.603 113.831
L186.971 114.178
L187.706 114.178
L188.074 114.526
L188.81 114.526
L189.178 114.873
L189.546 114.873
L189.914 115.22
L190.65 115.22
L191.018 115.567
L191.385 115.567
L191.753 115.915
L192.489 115.915
L192.857 116.262
L193.593 116.262
L193.961 116.609
L194.329 116.609
L194.697 116.956
L195.432 116.956
L195.8 117.304
L196.536 117.304
L196.904 117.651
L197.272 117.651
L197.64 117.998
L198.376 117.998
L198.744 118.345
L199.111 118.345
L199.479 118.693
L200.215 118.693
L200.583 119.04
L200.951 119.04
L201.319 119.387
L202.055 119.387
L202.423 119.734
L202.791 119.734
L203.158 120.082
L203.894 120.082
L204.262 120.429
L204.63 120.429
L204.998 120.776
L205.734 120.776
L206.102 121.123
L206.838 121.123
L207.205 121.471
L207.573 121.471
L207.941 121.818
L208.309 121.818
L208.677 122.165
L209.413 122.165
L209.781 122.512
L210.149 122.512
L210.517 122.86
L211.252 122.86
L211.62 123.207
L211.988 123.207
L212.356 123.554
L212.724 123.554
L213.092 123.902
L213.828 123.902
L214.196 124.249
L214.564 124.249
L214.931 124.596
L215.299 124.596
L215.667 124.943
L216.403 124.943
L216.771 125.291
L217.139 125.291
L217.507 125.638
L218.243 125.638
L218.611 125.985
L218.978 125.985
L219.346 126.332
L219.714 126.332
L220.082 126.68
L220.818 126.68
L221.186 127.027
L221.554 127.027
L221.922 127.374
L222.29 127.374
L222.657 127.721
L223.025 127.721
L223.393 128.069
L224.129 128.069
L224.497 128.416
L224.865 128.416
L225.233 128.763
L225.601 128.763
L225.969 129.11
L226.704 129.11
L227.072 129.458
L227.44 129.458
L227.808 129.805
L228.176 129.805
L228.544 130.152
L229.28 130.152
L229.648 130.499
L230.016 130.499
L230.383 130.847
L230.751 130.847
L231.119 131.194
L231.487 131.194
L231.855 131.541
L232.591 131.541
L232.959 131.888
L233.327 131.888
L233.695 132.236
L234.063 132.236
L234.43 132.583
L234.798 132.583
L235.166 132.93
L235.902 132.93
L236.27 133.277
L236.638 133.277
L237.006 133.625
L237.374 133.625
L237.742 133.972
L238.11 133.972
L238.477 134.319
L238.845 134.319
L239.213 134.666
L239.949 134.666
L240.317 135.014
L240.685 135.014
L241.053 135.361
L241.421 135.361
L241.789 135.708
L242.156 135.708
L242.524 136.055
L243.26 136.055
L243.628 136.403
L243.996 136.403
L244.364 136.75
L244.732 136.75
L245.1 137.097
L245.468 137.097
L245.836 137.444
L246.203 137.444
L246.571 137.792
L246.939 137.792
L247.307 138.139
L247.675 138.139
L248.043 138.486
L248.779 138.486
L249.515 139.181
L250.25 139.181
L250.618 139.528
L250.986 139.528
L251.354 139.875
L251.722 139.875
L252.09 140.222
L252.458 140.222
L252.826 140.57
L253.194 140.57
L253.562 140.917
L253.929 140.917
L254.297 141.264
L255.033 141.264
L255.401 141.611
L255.769 141.611
L256.137 141.959
L256.505 141.959
L256.873 142.306
L257.241 142.306
L257.609 142.653
L257.976 142.653
L258.344 143
L258.712 143
L259.08 143.348
L259.448 143.348
L259.816 143.695
L260.552 143.695
L261.288 144.39
L262.023 144.39
L262.391 144.737
L262.759 144.737
L263.127 145.084
L263.495 145.084
L263.863 145.431
L264.231 145.431
L264.599 145.779
L264.967 145.779
L265.335 146.126
L265.702 146.126
L266.07 146.473
L266.438 146.473
L266.806 146.82
L267.174 146.82
L267.542 147.168
L267.91 147.168
L268.278 147.515
L268.646 147.515
L269.014 147.862
L269.382 147.862
L269.749 148.209
L270.117 148.209
L270.485 148.557
L271.221 148.557
L271.957 149.251
L272.693 149.251
L273.428 149.946
L274.164 149.946
L274.9 150.64
L275.636 150.64
L276.004 150.987
L276.372 150.987
L276.74 151.335
L277.108 151.335
L277.475 151.682
L277.843 151.682
L278.211 152.029
L278.579 152.029
L278.947 152.376
L279.315 152.376
L279.683 152.724
L280.051 152.724
L280.419 153.071
L280.787 153.071
L281.155 153.418
L281.522 153.418
L281.89 153.765
L282.258 153.765
L282.626 154.113
L282.994 154.113
L283.362 154.46
L283.73 154.46
L284.098 154.807
L284.466 154.807
L284.834 155.154
L285.201 155.154
L285.569 155.502
L285.937 155.502
L286.305 155.849
L286.673 155.849
L287.041 156.196
L287.409 156.196
L287.777 156.543
L288.145 156.543
L288.513 156.891
L288.881 156.891
L289.248 157.238
L289.616 157.238
L289.984 157.585
L290.352 157.585
L290.72 157.932
L291.088 157.932
L291.456 158.28
L291.824 158.28
L292.192 158.627
L292.56 158.627
L292.928 158.974
L293.295 158.974
L293.663 159.321
L294.031 159.321
L294.767 160.016
L295.503 160.016
L296.239 160.71
L296.974 160.71
L297.71 161.405
L298.446 161.405
L299.182 162.099
L299.55 162.099
L299.918 162.447
L300.286 162.447
L300.654 162.794
L301.021 162.794
L301.389 163.141
L301.757 163.141
L302.125 163.488
L302.493 163.488
L302.861 163.836
L303.229 163.836
L303.597 164.183
L303.965 164.183
L304.333 164.53
L304.701 164.53
L305.068 164.878
L305.436 164.878
L305.804 165.225
L306.172 165.225
L306.54 165.572
L306.908 165.572
L307.276 165.919
L307.644 165.919
L308.012 166.267
L308.38 166.267
L308.747 166.614
L309.115 166.614
L309.851 167.308
L310.587 167.308
L311.323 168.003
L311.691 168.003
L312.059 168.35
L312.427 168.35
L312.794 168.697
L313.162 168.697
L313.53 169.045
L313.898 169.045
L314.266 169.392
L314.634 169.392
L315.002 169.739
L315.37 169.739
L315.738 170.086
L316.106 170.086
L316.474 170.434
L316.841 170.434
L317.209 170.781
L317.577 170.781
L317.945 171.128
L318.313 171.128
L319.049 171.823
L319.417 171.823
L319.785 172.17
L320.153 172.17
L320.52 172.517
L320.888 172.517
L321.256 172.864
L321.624 172.864
L321.992 173.212
L322.36 173.212
L322.728 173.559
L323.096 173.559
L323.464 173.906
L323.832 173.906
L324.2 174.253
L324.567 174.253
L325.303 174.948
L325.671 174.948
L326.039 175.295
L326.407 175.295
L326.775 175.642
L327.143 175.642
L327.511 175.99
L327.879 175.99
L328.246 176.337
L328.614 176.337
L328.982 176.684
L329.35 176.684
L329.718 177.031
L330.086 177.031
L330.454 177.379
L330.822 177.379
L331.558 178.073
L331.926 178.073
L332.293 178.42
L332.661 178.42
L333.029 178.768
L333.397 178.768
L333.765 179.115
L334.133 179.115
L334.501 179.462
L334.869 179.462
L335.237 179.809
L335.605 179.809
L335.973 180.157
L336.34 180.157
L336.708 180.504
L337.076 180.504
L337.812 181.198
L338.18 181.198
L338.548 181.546
L338.916 181.546
L339.284 181.893
L339.652 181.893
L340.019 182.24
L340.387 182.24
L341.123 182.935
L341.859 182.935
L342.595 183.629
L342.963 183.629
L343.331 183.976
L343.699 183.976
L344.066 184.324
L344.434 184.324
L344.802 184.671
L345.17 184.671
L345.906 185.366
L346.642 185.366
L347.378 186.06
L347.746 186.06
L348.113 186.407
L348.481 186.407
L348.849 186.755
L349.217 186.755
L349.585 187.102
L349.953 187.102
L350.689 187.796
L351.057 187.796
L351.425 188.144
L351.792 188.144
L352.16 188.491
L352.528 188.491
L352.896 188.838
L353.264 188.838
L354 189.533
L354.736 189.533
L355.472 190.227
L355.839 190.227
L356.207 190.574
L356.575 190.574
L356.943 190.922
L357.311 190.922
L357.679 191.269
L358.047 191.269
L358.783 191.963
L359.151 191.963
L359.519 192.311
L359.886 192.311
L360.254 192.658
L360.622 192.658
L360.99 193.005
L361.358 193.005
L361.726 193.352
L362.094 193.352
L362.83 194.047
L363.198 194.047
L363.565 194.394
L363.933 194.394
L364.301 194.741
L364.669 194.741
L365.037 195.089
L365.405 195.089
L366.141 195.783
L366.509 195.783
L366.877 196.13
L367.245 196.13
L367.612 196.478
L367.98 196.478
L368.348 196.825
L368.716 196.825
L369.452 197.519
L369.82 197.519
L370.188 197.867
L370.556 197.867
L370.924 198.214
L371.291 198.214
L371.659 198.561
L372.027 198.561
L372.763 199.256
L373.131 199.256
L373.499 199.603
L373.867 199.603
L374.235 199.95
L374.603 199.95
L374.971 200.297
L375.338 200.297
L376.074 200.992
L376.81 200.992
L377.546 201.686
L377.914 201.686
L378.282 202.034
L378.65 202.034
L379.385 202.728
L379.753 202.728
L380.121 203.075
L380.489 203.075
L380.857 203.423
L381.225 203.423
L381.593 203.77
L381.961 203.77
L382.697 204.464
L383.064 204.464
L383.432 204.812
L383.8 204.812
L384.168 205.159
L384.536 205.159
L385.272 205.854
L385.64 205.854
L386.008 206.201
L386.376 206.201
L386.744 206.548
L387.111 206.548
L387.479 206.895
L387.847 206.895
L388.583 207.59
L388.951 207.59
L389.319 207.937
L389.687 207.937
L390.055 208.284
L390.423 208.284
L390.791 208.632
L391.158 208.632
L391.894 209.326
L392.262 209.326
L392.63 209.673
L392.998 209.673
L393.366 210.021
L393.734 210.021
L394.102 210.368
L394.47 210.368
L395.205 211.062
L395.573 211.062
L395.941 211.41
L396.309 211.41
L397.045 212.104
L397.413 212.104
L397.781 212.451
L398.149 212.451
L398.517 212.799
L398.884 212.799
L399.252 213.146
L399.62 213.146
L400.356 213.84
L400.724 213.84
L401.092 214.188
L401.46 214.188
L401.828 214.535
L402.196 214.535
L402.931 215.229
L403.299 215.229
L403.667 215.577
L404.035 215.577
L404.403 215.924
L404.771 215.924
L405.139 216.271
L405.507 216.271
L406.243 216.966
L406.61 216.966
L406.978 217.313
L407.346 217.313
L408.082 218.007
L408.45 218.007
L408.818 218.355
L409.186 218.355
L409.554 218.702
L409.922 218.702
L410.29 219.049
L410.657 219.049
L411.393 219.744
L411.761 219.744
L412.129 220.091
L412.497 220.091
L413.233 220.785
L413.601 220.785
L413.969 221.133
L414.336 221.133
L414.704 221.48
L415.072 221.48
L415.44 221.827
L415.808 221.827
L416.544 222.522
L416.912 222.522
L417.28 222.869
L417.648 222.869
L418.383 223.563
L418.751 223.563
L419.119 223.911
L419.487 223.911
L419.855 224.258
L420.223 224.258
L420.959 224.952
L421.327 224.952
L421.695 225.3
L422.063 225.3
L422.43 225.647
L422.798 225.647
L423.166 225.994
L423.534 225.994
L424.27 226.689
L424.638 226.689
L425.006 227.036
L425.374 227.036
L426.109 227.731
L426.477 227.731
L426.845 228.078
L427.213 228.078
L427.949 228.772
L428.317 228.772
L428.685 229.12
L429.053 229.12
L429.421 229.467
L429.789 229.467
L430.156 229.814
L430.524 229.814
L431.26 230.509
L431.628 230.509
L432.364 231.203
L432.732 231.203
L433.1 231.55
L433.468 231.55
L433.836 231.898
L434.203 231.898
L434.571 232.245
L434.939 232.245
L435.675 232.939
L436.043 232.939
L436.411 233.287
L436.779 233.287
L437.515 233.981
L437.882 233.981
L438.25 234.328
L438.618 234.328
L439.354 235.023
L439.722 235.023
L440.09 235.37
L440.458 235.37
L440.826 235.717
L441.194 235.717
L441.562 236.065
L441.929 236.065
L442.665 236.759
L443.033 236.759
L443.769 237.454
L444.137 237.454
L444.505 237.801
L444.873 237.801
L445.241 238.148
L445.609 238.148
L445.976 238.495
L446.344 238.495
L447.08 239.19
L447.448 239.19
L447.816 239.537
L448.184 239.537
L448.92 240.232
L449.288 240.232
L449.655 240.579
L450.023 240.579
L450.759 241.273
L451.127 241.273
L451.495 241.621
L451.863 241.621
L452.231 241.968
L452.599 241.968
L453.335 242.662
L453.702 242.662
L454.07 243.01
L454.438 243.01
L455.174 243.704
L455.542 243.704
L455.91 244.051
L456.278 244.051
L457.014 244.746
L457.382 244.746
L457.749 245.093
L458.117 245.093
L458.853 245.788
L459.221 245.788
L459.589 246.135
L459.957 246.135
L460.325 246.482
L460.693 246.482
L461.061 246.83
L461.428 246.83
L462.164 247.524
L462.532 247.524
L463.268 248.219
L463.636 248.219
L464.004 248.566
L464.372 248.566
L464.74 248.913
L465.108 248.913
L465.843 249.608
L466.211 249.608
L466.579 249.955
L466.947 249.955
L467.315 250.302
L467.683 250.302
L468.419 250.997
L468.787 250.997
L469.154 251.344
L469.154 251.344" style="fill:none;stroke:#4c72b0;stroke-linecap:round;stroke-width:1.75;"/>
   </g>
   <g id="line2d_41">
    <path clip-path="url(#p51d9fffd7c)" d="
M92.7866 84.6618
L93.1546 84.6618
L93.5225 83.9673
L94.6262 83.9673
L94.9941 83.2728
L96.0978 83.2728
L96.4657 82.5782
L97.5694 82.5782
L97.9373 81.8837
L99.7769 81.8837
L100.145 81.1892
L102.352 81.1892
L102.72 80.4947
L106.767 80.4947
L107.135 79.8002
L122.587 79.8002
L122.955 80.4947
L127.738 80.4947
L128.106 81.1892
L131.785 81.1892
L132.153 81.8837
L135.096 81.8837
L135.464 82.5782
L138.039 82.5782
L138.407 83.2728
L140.982 83.2728
L141.35 83.9673
L143.558 83.9673
L143.926 84.6618
L145.765 84.6618
L146.133 85.3563
L147.973 85.3563
L148.34 86.0508
L150.548 86.0508
L150.916 86.7453
L152.755 86.7453
L153.123 87.4398
L154.963 87.4398
L155.331 88.1343
L156.802 88.1343
L157.17 88.8288
L158.642 88.8288
L159.01 89.5233
L160.849 89.5233
L161.217 90.2178
L162.689 90.2178
L163.057 90.9124
L164.528 90.9124
L164.896 91.6069
L166.368 91.6069
L166.736 92.3014
L168.207 92.3014
L168.575 92.9959
L170.047 92.9959
L170.415 93.6904
L171.519 93.6904
L171.886 94.3849
L172.99 94.3849
L173.358 95.0794
L174.83 95.0794
L175.198 95.7739
L176.669 95.7739
L177.037 96.4684
L178.141 96.4684
L178.509 97.1629
L179.98 97.1629
L180.348 97.8574
L181.452 97.8574
L181.82 98.5519
L182.924 98.5519
L183.292 99.2465
L184.763 99.2465
L185.131 99.941
L186.235 99.941
L186.603 100.635
L187.706 100.635
L188.074 101.33
L189.178 101.33
L189.546 102.024
L190.65 102.024
L191.018 102.719
L192.121 102.719
L192.489 103.414
L193.961 103.414
L194.329 104.108
L195.065 104.108
L195.432 104.803
L196.536 104.803
L196.904 105.497
L198.376 105.497
L198.744 106.192
L199.479 106.192
L199.847 106.886
L201.319 106.886
L201.687 107.581
L202.423 107.581
L202.791 108.275
L203.894 108.275
L204.262 108.97
L205.366 108.97
L205.734 109.664
L206.838 109.664
L207.205 110.359
L207.941 110.359
L208.309 111.053
L209.413 111.053
L209.781 111.748
L210.884 111.748
L211.252 112.442
L212.356 112.442
L212.724 113.137
L213.828 113.137
L214.196 113.831
L214.931 113.831
L215.299 114.526
L216.403 114.526
L216.771 115.22
L217.875 115.22
L218.243 115.915
L218.978 115.915
L219.346 116.609
L220.45 116.609
L220.818 117.304
L221.554 117.304
L221.922 117.998
L223.025 117.998
L223.393 118.693
L224.497 118.693
L224.865 119.387
L225.601 119.387
L225.969 120.082
L227.072 120.082
L227.44 120.776
L228.176 120.776
L228.544 121.471
L229.648 121.471
L230.016 122.165
L230.751 122.165
L231.119 122.86
L232.223 122.86
L232.591 123.554
L233.327 123.554
L233.695 124.249
L234.798 124.249
L235.166 124.943
L235.902 124.943
L236.27 125.638
L237.374 125.638
L237.742 126.332
L238.477 126.332
L238.845 127.027
L239.581 127.027
L239.949 127.721
L241.053 127.721
L241.421 128.416
L242.524 128.416
L242.892 129.11
L243.628 129.11
L243.996 129.805
L244.732 129.805
L245.1 130.499
L245.836 130.499
L246.203 131.194
L247.307 131.194
L247.675 131.888
L248.411 131.888
L248.779 132.583
L249.883 132.583
L250.25 133.277
L250.986 133.277
L251.354 133.972
L252.09 133.972
L252.458 134.666
L253.194 134.666
L253.562 135.361
L254.665 135.361
L255.033 136.055
L256.137 136.055
L256.505 136.75
L257.241 136.75
L257.609 137.444
L258.344 137.444
L258.712 138.139
L259.816 138.139
L260.184 138.833
L260.552 138.833
L260.92 139.528
L262.023 139.528
L262.391 140.222
L263.127 140.222
L263.495 140.917
L264.231 140.917
L264.599 141.611
L265.335 141.611
L265.702 142.306
L266.806 142.306
L267.174 143
L267.91 143
L268.278 143.695
L269.014 143.695
L269.382 144.39
L270.485 144.39
L270.853 145.084
L271.589 145.084
L271.957 145.779
L272.693 145.779
L273.061 146.473
L273.796 146.473
L274.164 147.168
L275.268 147.168
L275.636 147.862
L276.004 147.862
L276.372 148.557
L277.475 148.557
L277.843 149.251
L278.579 149.251
L278.947 149.946
L279.683 149.946
L280.051 150.64
L280.787 150.64
L281.155 151.335
L282.258 151.335
L282.626 152.029
L282.994 152.029
L283.362 152.724
L284.466 152.724
L284.834 153.418
L285.569 153.418
L285.937 154.113
L286.673 154.113
L287.041 154.807
L287.777 154.807
L288.145 155.502
L289.248 155.502
L289.616 156.196
L289.984 156.196
L290.352 156.891
L291.456 156.891
L291.824 157.585
L292.56 157.585
L292.928 158.28
L293.663 158.28
L294.031 158.974
L294.767 158.974
L295.135 159.669
L295.871 159.669
L296.239 160.363
L296.974 160.363
L297.342 161.058
L298.078 161.058
L298.446 161.752
L299.55 161.752
L299.918 162.447
L300.286 162.447
L300.654 163.141
L301.389 163.141
L301.757 163.836
L302.861 163.836
L303.229 164.53
L303.597 164.53
L303.965 165.225
L305.068 165.225
L305.436 165.919
L306.172 165.919
L306.54 166.614
L307.276 166.614
L307.644 167.308
L308.38 167.308
L308.747 168.003
L309.483 168.003
L309.851 168.697
L310.587 168.697
L310.955 169.392
L311.691 169.392
L312.059 170.086
L313.162 170.086
L313.53 170.781
L313.898 170.781
L314.266 171.475
L315.002 171.475
L315.37 172.17
L316.106 172.17
L316.474 172.864
L317.209 172.864
L317.577 173.559
L318.313 173.559
L318.681 174.253
L319.785 174.253
L320.153 174.948
L320.52 174.948
L320.888 175.642
L321.624 175.642
L321.992 176.337
L323.096 176.337
L323.464 177.031
L323.832 177.031
L324.2 177.726
L325.303 177.726
L325.671 178.42
L326.407 178.42
L326.775 179.115
L327.511 179.115
L327.879 179.809
L328.614 179.809
L328.982 180.504
L329.718 180.504
L330.086 181.198
L330.454 181.198
L330.822 181.893
L331.558 181.893
L331.926 182.587
L332.661 182.587
L333.029 183.282
L333.765 183.282
L334.133 183.976
L335.237 183.976
L335.605 184.671
L335.973 184.671
L336.34 185.366
L337.076 185.366
L337.444 186.06
L338.548 186.06
L338.916 186.755
L339.284 186.755
L339.652 187.449
L340.387 187.449
L340.755 188.144
L341.491 188.144
L341.859 188.838
L342.595 188.838
L342.963 189.533
L343.699 189.533
L344.066 190.227
L344.802 190.227
L345.17 190.922
L345.906 190.922
L346.274 191.616
L347.01 191.616
L347.378 192.311
L348.113 192.311
L348.481 193.005
L349.217 193.005
L349.585 193.7
L350.321 193.7
L350.689 194.394
L351.425 194.394
L351.792 195.089
L352.528 195.089
L352.896 195.783
L353.632 195.783
L354 196.478
L354.368 196.478
L354.736 197.172
L355.839 197.172
L356.207 197.867
L356.943 197.867
L357.311 198.561
L357.679 198.561
L358.047 199.256
L358.783 199.256
L359.151 199.95
L360.254 199.95
L360.622 200.645
L360.99 200.645
L361.358 201.339
L362.094 201.339
L362.462 202.034
L363.198 202.034
L363.565 202.728
L364.301 202.728
L364.669 203.423
L365.405 203.423
L365.773 204.117
L366.141 204.117
L366.509 204.812
L367.612 204.812
L367.98 205.506
L368.716 205.506
L369.084 206.201
L369.452 206.201
L369.82 206.895
L370.556 206.895
L370.924 207.59
L372.027 207.59
L372.395 208.284
L372.763 208.284
L373.131 208.979
L373.867 208.979
L374.235 209.673
L374.971 209.673
L375.338 210.368
L376.074 210.368
L376.442 211.062
L377.178 211.062
L377.546 211.757
L377.914 211.757
L378.282 212.451
L379.018 212.451
L379.385 213.146
L380.489 213.146
L380.857 213.84
L381.225 213.84
L381.593 214.535
L382.329 214.535
L382.697 215.229
L383.432 215.229
L383.8 215.924
L384.536 215.924
L384.904 216.618
L385.64 216.618
L386.008 217.313
L386.376 217.313
L386.744 218.007
L387.847 218.007
L388.215 218.702
L388.583 218.702
L388.951 219.396
L389.687 219.396
L390.055 220.091
L390.791 220.091
L391.158 220.785
L391.894 220.785
L392.262 221.48
L392.998 221.48
L393.366 222.174
L393.734 222.174
L394.102 222.869
L394.837 222.869
L395.205 223.563
L395.941 223.563
L396.309 224.258
L397.045 224.258
L397.413 224.952
L398.149 224.952
L398.517 225.647
L399.252 225.647
L399.62 226.342
L400.356 226.342
L400.724 227.036
L401.092 227.036
L401.46 227.731
L402.196 227.731
L402.564 228.425
L403.299 228.425
L403.667 229.12
L404.403 229.12
L404.771 229.814
L405.507 229.814
L405.875 230.509
L406.243 230.509
L406.61 231.203
L407.714 231.203
L408.082 231.898
L408.45 231.898
L408.818 232.592
L409.554 232.592
L409.922 233.287
L410.657 233.287
L411.025 233.981
L411.761 233.981
L412.129 234.676
L412.865 234.676
L413.233 235.37
L413.969 235.37
L414.336 236.065
L414.704 236.065
L415.072 236.759
L415.808 236.759
L416.176 237.454
L416.912 237.454
L417.28 238.148
L418.016 238.148
L418.383 238.843
L419.119 238.843
L419.487 239.537
L419.855 239.537
L420.223 240.232
L420.959 240.232
L421.327 240.926
L422.063 240.926
L422.43 241.621
L423.166 241.621
L423.534 242.315
L424.27 242.315
L424.638 243.01
L425.006 243.01
L425.374 243.704
L426.109 243.704
L426.477 244.399
L427.213 244.399
L427.581 245.093
L428.317 245.093
L428.685 245.788
L429.421 245.788
L429.789 246.482
L430.156 246.482
L430.524 247.177
L431.26 247.177
L431.628 247.871
L432.364 247.871
L432.732 248.566
L433.468 248.566
L433.836 249.26
L434.203 249.26
L434.571 249.955
L435.675 249.955
L436.043 250.649
L436.411 250.649
L436.779 251.344
L437.515 251.344
L437.882 252.038
L438.618 252.038
L438.986 252.733
L439.354 252.733
L439.722 253.427
L440.458 253.427
L440.826 254.122
L441.929 254.122
L442.297 254.816
L442.665 254.816
L443.033 255.511
L443.769 255.511
L444.137 256.205
L444.873 256.205
L445.241 256.9
L445.609 256.9
L445.976 257.594
L446.712 257.594
L447.08 258.289
L447.816 258.289
L448.184 258.983
L448.92 258.983
L449.288 259.678
L450.023 259.678
L450.391 260.372
L450.759 260.372
L451.127 261.067
L451.863 261.067
L452.231 261.761
L452.967 261.761
L453.335 262.456
L453.702 262.456
L454.07 263.15
L455.174 263.15
L455.542 263.845
L455.91 263.845
L456.278 264.539
L457.014 264.539
L457.382 265.234
L458.117 265.234
L458.485 265.928
L458.853 265.928
L459.221 266.623
L460.325 266.623
L460.693 267.318
L461.061 267.318
L461.428 268.012
L462.164 268.012
L462.532 268.707
L463.268 268.707
L463.636 269.401
L464.004 269.401
L464.372 270.096
L465.108 270.096
L465.475 270.79
L466.211 270.79
L466.579 271.485
L467.315 271.485
L467.683 272.179
L468.419 272.179
L468.787 272.874
L469.154 272.874
L469.154 272.874" style="fill:none;stroke:#55a868;stroke-linecap:round;stroke-width:1.75;"/>
   </g>
   <g id="line2d_42">
    <path clip-path="url(#p51d9fffd7c)" d="
M92.7866 64.1738
L94.6262 64.1738
L94.9941 62.4375
L98.3052 62.4375
L98.6731 60.7012
L105.663 60.7012
L106.031 58.965
L117.436 58.965
L117.804 60.7012
L126.634 60.7012
L127.002 62.4375
L133.256 62.4375
L133.624 64.1738
L138.407 64.1738
L138.775 65.91
L143.19 65.91
L143.558 67.6463
L147.605 67.6463
L147.973 69.3826
L151.652 69.3826
L152.02 71.1189
L155.699 71.1189
L156.066 72.8551
L159.378 72.8551
L159.746 74.5914
L163.057 74.5914
L163.425 76.3277
L166.736 76.3277
L167.104 78.0639
L170.047 78.0639
L170.415 79.8002
L173.358 79.8002
L173.726 81.5365
L176.669 81.5365
L177.037 83.2728
L179.98 83.2728
L180.348 85.009
L183.292 85.009
L183.659 86.7453
L185.867 86.7453
L186.235 88.4816
L189.178 88.4816
L189.546 90.2178
L192.121 90.2178
L192.489 91.9541
L195.432 91.9541
L195.8 93.6904
L198.376 93.6904
L198.744 95.4267
L201.319 95.4267
L201.687 97.1629
L204.262 97.1629
L204.63 98.8992
L206.47 98.8992
L206.838 100.635
L209.781 100.635
L210.149 102.372
L212.724 102.372
L213.092 104.108
L215.299 104.108
L215.667 105.844
L217.875 105.844
L218.243 107.581
L221.186 107.581
L221.554 109.317
L223.393 109.317
L223.761 111.053
L226.337 111.053
L226.704 112.789
L228.912 112.789
L229.28 114.526
L231.487 114.526
L231.855 116.262
L234.43 116.262
L234.798 117.998
L237.006 117.998
L237.374 119.734
L239.581 119.734
L239.949 121.471
L242.524 121.471
L242.892 123.207
L245.1 123.207
L245.468 124.943
L247.675 124.943
L248.043 126.68
L249.883 126.68
L250.25 128.416
L252.458 128.416
L252.826 130.152
L255.401 130.152
L255.769 131.888
L257.609 131.888
L257.976 133.625
L260.184 133.625
L260.552 135.361
L262.759 135.361
L263.127 137.097
L266.07 137.097
L266.438 138.833
L267.174 138.833
L267.542 140.57
L270.485 140.57
L270.853 142.306
L273.061 142.306
L273.428 144.042
L275.636 144.042
L276.004 145.779
L277.843 145.779
L278.211 147.515
L280.419 147.515
L280.787 149.251
L282.994 149.251
L283.362 150.987
L285.201 150.987
L285.569 152.724
L287.409 152.724
L287.777 154.46
L290.352 154.46
L290.72 156.196
L292.56 156.196
L292.928 157.932
L295.135 157.932
L295.503 159.669
L297.71 159.669
L298.078 161.405
L299.918 161.405
L300.286 163.141
L302.125 163.141
L302.493 164.878
L304.701 164.878
L305.068 166.614
L307.276 166.614
L307.644 168.35
L309.851 168.35
L310.219 170.086
L312.059 170.086
L312.427 171.823
L314.634 171.823
L315.002 173.559
L316.841 173.559
L317.209 175.295
L319.049 175.295
L319.417 177.031
L321.624 177.031
L321.992 178.768
L323.832 178.768
L324.2 180.504
L326.775 180.504
L327.143 182.24
L328.614 182.24
L328.982 183.976
L331.19 183.976
L331.558 185.713
L333.397 185.713
L333.765 187.449
L335.973 187.449
L336.34 189.185
L338.548 189.185
L338.916 190.922
L340.755 190.922
L341.123 192.658
L342.963 192.658
L343.331 194.394
L345.17 194.394
L345.538 196.13
L347.378 196.13
L347.746 197.867
L350.321 197.867
L350.689 199.603
L352.16 199.603
L352.528 201.339
L354.736 201.339
L355.104 203.075
L357.311 203.075
L357.679 204.812
L359.151 204.812
L359.519 206.548
L361.358 206.548
L361.726 208.284
L363.933 208.284
L364.301 210.021
L366.509 210.021
L366.877 211.757
L368.716 211.757
L369.084 213.493
L371.291 213.493
L371.659 215.229
L373.499 215.229
L373.867 216.966
L375.338 216.966
L375.706 218.702
L377.914 218.702
L378.282 220.438
L380.121 220.438
L380.489 222.174
L382.697 222.174
L383.064 223.911
L385.272 223.911
L385.64 225.647
L387.111 225.647
L387.479 227.383
L389.319 227.383
L389.687 229.12
L391.526 229.12
L391.894 230.856
L394.102 230.856
L394.47 232.592
L396.309 232.592
L396.677 234.328
L398.884 234.328
L399.252 236.065
L400.724 236.065
L401.092 237.801
L403.299 237.801
L403.667 239.537
L405.507 239.537
L405.875 241.273
L407.714 241.273
L408.082 243.01
L410.29 243.01
L410.657 244.746
L412.497 244.746
L412.865 246.482
L414.336 246.482
L414.704 248.219
L417.28 248.219
L417.648 249.955
L419.119 249.955
L419.487 251.691
L421.695 251.691
L422.063 253.427
L423.534 253.427
L423.902 255.164
L426.109 255.164
L426.477 256.9
L428.317 256.9
L428.685 258.636
L430.892 258.636
L431.26 260.372
L433.1 260.372
L433.468 262.109
L434.939 262.109
L435.307 263.845
L437.515 263.845
L437.882 265.581
L439.722 265.581
L440.09 267.318
L441.562 267.318
L441.929 269.054
L444.505 269.054
L444.873 270.79
L446.344 270.79
L446.712 272.526
L448.552 272.526
L448.92 274.263
L450.759 274.263
L451.127 275.999
L453.335 275.999
L453.702 277.735
L455.542 277.735
L455.91 279.471
L457.382 279.471
L457.749 281.208
L460.325 281.208
L460.693 282.944
L462.164 282.944
L462.532 284.68
L464.372 284.68
L464.74 286.416
L466.579 286.416
L466.947 288.153
L469.154 288.153
L469.154 288.153" style="fill:none;stroke:#c44e52;stroke-linecap:round;stroke-width:1.75;"/>
   </g>
   <g id="line2d_43">
    <path clip-path="url(#p51d9fffd7c)" d="
M92.7866 34.6572
L128.106 34.6572
L128.474 52.0199
L161.217 52.0199
L161.585 69.3826
L188.442 69.3826
L188.81 86.7453
L213.46 86.7453
L213.828 104.108
L237.374 104.108
L237.742 121.471
L266.806 121.471
L267.174 138.833
L274.164 138.833
L274.532 156.196
L302.493 156.196
L302.861 173.559
L324.935 173.559
L325.303 190.922
L346.642 190.922
L347.01 208.284
L368.348 208.284
L368.716 225.647
L389.687 225.647
L390.055 243.01
L411.025 243.01
L411.393 260.372
L431.996 260.372
L432.364 277.735
L452.967 277.735
L453.335 295.098
L469.154 295.098
L469.154 295.098" style="fill:none;stroke:#8172b2;stroke-linecap:round;stroke-width:1.75;"/>
   </g>
   <g id="patch_3">
    <path d="
M72.9778 28.6841
L481.428 28.6841" style="fill:none;stroke:#cccccc;"/>
   </g>
   <g id="patch_4">
    <path d="
M481.428 304.058
L481.428 28.6841" style="fill:none;stroke:#cccccc;"/>
   </g>
   <g id="patch_5">
    <path d="
M72.9778 304.058
L481.428 304.058" style="fill:none;stroke:#cccccc;"/>
   </g>
   <g id="patch_6">
    <path d="
M72.9778 304.058
L72.9778 28.6841" style="fill:none;stroke:#cccccc;"/>
   </g>
   <g id="text_17">
    <!-- Policy Functions -->
    <defs>
     <path d="
M40.4375 19
L49.0781 17.875
Q47.6562 8.9375 41.8125 3.875
Q35.9844 -1.17188 27.4844 -1.17188
Q16.8438 -1.17188 10.375 5.78125
Q3.90625 12.75 3.90625 25.7344
Q3.90625 34.125 6.6875 40.4219
Q9.46875 46.7344 15.1562 49.875
Q20.8438 53.0312 27.5469 53.0312
Q35.9844 53.0312 41.3594 48.75
Q46.7344 44.4844 48.25 36.625
L39.7031 35.2969
Q38.4844 40.5312 35.375 43.1562
Q32.2812 45.7969 27.875 45.7969
Q21.2344 45.7969 17.0781 41.0312
Q12.9375 36.2812 12.9375 25.9844
Q12.9375 15.5312 16.9375 10.7969
Q20.9531 6.0625 27.3906 6.0625
Q32.5625 6.0625 36.0312 9.23438
Q39.5 12.4062 40.4375 19" id="ArialMT-63"/>
     <path d="
M6.20312 -19.9688
L5.21875 -11.7188
Q8.10938 -12.5 10.25 -12.5
Q13.1875 -12.5 14.9375 -11.5156
Q16.7031 -10.5469 17.8281 -8.79688
Q18.6562 -7.46875 20.5156 -2.25
Q20.75 -1.51562 21.2969 -0.09375
L1.60938 51.8594
L11.0781 51.8594
L21.875 21.8281
Q23.9688 16.1094 25.6406 9.8125
Q27.1562 15.875 29.25 21.625
L40.3281 51.8594
L49.125 51.8594
L29.3906 -0.875
Q26.2188 -9.42188 24.4688 -12.6406
Q22.125 -17 19.0938 -19.0156
Q16.0625 -21.0469 11.8594 -21.0469
Q9.32812 -21.0469 6.20312 -19.9688" id="ArialMT-79"/>
     <path d="
M40.5781 0
L40.5781 7.625
Q34.5156 -1.17188 24.125 -1.17188
Q19.5312 -1.17188 15.5469 0.578125
Q11.5781 2.34375 9.64062 5
Q7.71875 7.67188 6.9375 11.5312
Q6.39062 14.1094 6.39062 19.7344
L6.39062 51.8594
L15.1875 51.8594
L15.1875 23.0938
Q15.1875 16.2188 15.7188 13.8125
Q16.5469 10.3594 19.2344 8.375
Q21.9219 6.39062 25.875 6.39062
Q29.8281 6.39062 33.2969 8.42188
Q36.7656 10.4531 38.2031 13.9375
Q39.6562 17.4375 39.6562 24.0781
L39.6562 51.8594
L48.4375 51.8594
L48.4375 0
z
" id="ArialMT-75"/>
     <path d="
M7.71875 0
L7.71875 71.5781
L34.7188 71.5781
Q41.8438 71.5781 45.6094 70.9062
Q50.875 70.0156 54.4375 67.5469
Q58.0156 65.0938 60.1875 60.6406
Q62.3594 56.2031 62.3594 50.875
Q62.3594 41.75 56.5469 35.4219
Q50.7344 29.1094 35.5469 29.1094
L17.1875 29.1094
L17.1875 0
z

M17.1875 37.5469
L35.6875 37.5469
Q44.875 37.5469 48.7344 40.9688
Q52.5938 44.3906 52.5938 50.5938
Q52.5938 55.0781 50.3125 58.2656
Q48.0469 61.4688 44.3438 62.5
Q41.9375 63.1406 35.5 63.1406
L17.1875 63.1406
z
" id="ArialMT-50"/>
     <path d="
M8.20312 0
L8.20312 71.5781
L56.5 71.5781
L56.5 63.1406
L17.6719 63.1406
L17.6719 40.9688
L51.2656 40.9688
L51.2656 32.5156
L17.6719 32.5156
L17.6719 0
z
" id="ArialMT-46"/>
     <path d="
M3.32812 25.9219
Q3.32812 40.3281 11.3281 47.2656
Q18.0156 53.0312 27.6406 53.0312
Q38.3281 53.0312 45.1094 46.0156
Q51.9062 39.0156 51.9062 26.6562
Q51.9062 16.6562 48.9062 10.9062
Q45.9062 5.17188 40.1562 2
Q34.4219 -1.17188 27.6406 -1.17188
Q16.75 -1.17188 10.0312 5.8125
Q3.32812 12.7969 3.32812 25.9219
M12.3594 25.9219
Q12.3594 15.9688 16.7031 11.0156
Q21.0469 6.0625 27.6406 6.0625
Q34.1875 6.0625 38.5312 11.0312
Q42.875 16.0156 42.875 26.2188
Q42.875 35.8438 38.5 40.7969
Q34.125 45.75 27.6406 45.75
Q21.0469 45.75 16.7031 40.8125
Q12.3594 35.8906 12.3594 25.9219" id="ArialMT-6f"/>
     <path id="ArialMT-20"/>
    </defs>
    <g style="fill:#262626;" transform="translate(212.026171875 23.6840625)scale(0.18 -0.18)">
     <use xlink:href="#ArialMT-50"/>
     <use x="66.69921875" xlink:href="#ArialMT-6f"/>
     <use x="122.314453125" xlink:href="#ArialMT-6c"/>
     <use x="144.53125" xlink:href="#ArialMT-69"/>
     <use x="166.748046875" xlink:href="#ArialMT-63"/>
     <use x="216.748046875" xlink:href="#ArialMT-79"/>
     <use x="266.748046875" xlink:href="#ArialMT-20"/>
     <use x="294.53125" xlink:href="#ArialMT-46"/>
     <use x="355.615234375" xlink:href="#ArialMT-75"/>
     <use x="411.23046875" xlink:href="#ArialMT-6e"/>
     <use x="466.845703125" xlink:href="#ArialMT-63"/>
     <use x="516.845703125" xlink:href="#ArialMT-74"/>
     <use x="544.62890625" xlink:href="#ArialMT-69"/>
     <use x="566.845703125" xlink:href="#ArialMT-6f"/>
     <use x="622.4609375" xlink:href="#ArialMT-6e"/>
     <use x="678.076171875" xlink:href="#ArialMT-73"/>
    </g>
   </g>
   <g id="legend_1">
    <g id="line2d_44">
     <path d="
M358.308 51.4681
L394.308 51.4681" style="fill:none;stroke:#4c72b0;stroke-linecap:round;stroke-width:1.75;"/>
    </g>
    <g id="line2d_45"/>
    <g id="text_18">
     <!-- $\Delta = 5.0$ -->
     <defs>
      <path d="
M25 -2.20312
Q12.75 -2.20312 8.32812 7.875
Q3.90625 17.9688 3.90625 31.8906
Q3.90625 40.5781 5.48438 48.2344
Q7.07812 55.9062 11.7812 61.25
Q16.5 66.6094 25 66.6094
Q31.5938 66.6094 35.7812 63.375
Q39.9844 60.1562 42.1875 55.0469
Q44.3906 49.9531 45.1875 44.1094
Q46 38.2812 46 31.8906
Q46 23.2969 44.4062 15.7969
Q42.8281 8.29688 38.1875 3.04688
Q33.5469 -2.20312 25 -2.20312
M25 0.390625
Q30.5625 0.390625 33.2969 6.09375
Q36.0312 11.8125 36.6719 18.75
Q37.3125 25.6875 37.3125 33.5
Q37.3125 41.0156 36.6719 47.3594
Q36.0312 53.7188 33.3125 58.8594
Q30.6094 64.0156 25 64.0156
Q19.3438 64.0156 16.6094 58.8281
Q13.875 53.6562 13.2344 47.3281
Q12.5938 41.0156 12.5938 33.5
Q12.5938 27.9375 12.8594 23
Q13.1406 18.0625 14.3125 12.8125
Q15.4844 7.5625 18.0938 3.96875
Q20.7031 0.390625 25 0.390625" id="Cmr10-30"/>
      <path d="
M5.42188 0
Q4.59375 0 4.59375 0.78125
Q4.64062 0.875 4.65625 0.921875
Q4.6875 0.984375 4.6875 1.125
L39.1094 70.5156
Q39.5469 71.5781 40.9219 71.5781
L42.2812 71.5781
Q43.6562 71.5781 44.0938 70.5156
L78.5156 1.125
Q78.5625 1.03125 78.5781 0.953125
Q78.6094 0.875 78.6094 0.78125
Q78.6094 0 77.7812 0
z

M12.0156 8.01562
L64.7031 8.01562
L38.375 61.0781
z
" id="Cmr10-a2"/>
      <path d="
M8.40625 5.51562
Q8.40625 7.76562 10.0625 9.375
Q11.7188 10.9844 13.9219 10.9844
Q15.2812 10.9844 16.5938 10.25
Q17.9219 9.51562 18.6562 8.20312
Q19.3906 6.89062 19.3906 5.51562
Q19.3906 3.32812 17.7656 1.65625
Q16.1562 0 13.9219 0
Q11.7188 0 10.0625 1.65625
Q8.40625 3.32812 8.40625 5.51562" id="Cmmi10-3a"/>
      <path d="
M8.6875 11.375
Q9.71875 8.45312 11.8438 6.04688
Q13.9688 3.65625 16.875 2.3125
Q19.7812 0.984375 22.9062 0.984375
Q30.125 0.984375 32.8594 6.59375
Q35.5938 12.2031 35.5938 20.2188
Q35.5938 23.6875 35.4688 26.0469
Q35.3594 28.4219 34.8125 30.6094
Q33.8906 34.125 31.5625 36.7656
Q29.25 39.4062 25.875 39.4062
Q22.5156 39.4062 20.0938 38.375
Q17.6719 37.3594 16.1562 35.9844
Q14.6562 34.625 13.4844 33.1094
Q12.3125 31.5938 12.0156 31.5
L10.8906 31.5
Q10.6406 31.5 10.2656 31.8125
Q9.90625 32.125 9.90625 32.4219
L9.90625 65.8281
Q9.90625 66.0625 10.2188 66.3281
Q10.5469 66.6094 10.8906 66.6094
L11.1875 66.6094
Q17.9219 63.375 25.4844 63.375
Q32.9062 63.375 39.7969 66.6094
L40.0938 66.6094
Q40.4375 66.6094 40.7188 66.3594
Q41.0156 66.1094 41.0156 65.8281
L41.0156 64.8906
Q41.0156 64.4062 40.8281 64.4062
Q37.4062 59.8594 32.25 57.3125
Q27.0938 54.7812 21.5781 54.7812
Q17.5781 54.7812 13.375 55.9062
L13.375 37.0156
Q16.7031 39.7031 19.3125 40.8438
Q21.9219 42 25.9844 42
Q31.5 42 35.8594 38.8125
Q40.2344 35.6406 42.5781 30.5312
Q44.9219 25.4375 44.9219 20.125
Q44.9219 14.1094 41.9688 8.98438
Q39.0156 3.85938 33.9375 0.828125
Q28.8594 -2.20312 22.9062 -2.20312
Q17.9688 -2.20312 13.8438 0.328125
Q9.71875 2.875 7.34375 7.17188
Q4.98438 11.4688 4.98438 16.3125
Q4.98438 18.5625 6.4375 19.9688
Q7.90625 21.3906 10.1094 21.3906
Q12.3125 21.3906 13.7969 19.9375
Q15.2812 18.5 15.2812 16.3125
Q15.2812 14.1562 13.7969 12.6719
Q12.3125 11.1875 10.1094 11.1875
Q9.76562 11.1875 9.32812 11.25
Q8.89062 11.3281 8.6875 11.375" id="Cmr10-35"/>
      <path d="
M7.51562 13.2812
Q6.6875 13.2812 6.14062 13.9062
Q5.60938 14.5469 5.60938 15.2812
Q5.60938 16.1094 6.14062 16.6875
Q6.6875 17.2812 7.51562 17.2812
L70.3125 17.2812
Q71.0469 17.2812 71.5781 16.6875
Q72.125 16.1094 72.125 15.2812
Q72.125 14.5469 71.5781 13.9062
Q71.0469 13.2812 70.3125 13.2812
z

M7.51562 32.7188
Q6.6875 32.7188 6.14062 33.2969
Q5.60938 33.8906 5.60938 34.7188
Q5.60938 35.4531 6.14062 36.0781
Q6.6875 36.7188 7.51562 36.7188
L70.3125 36.7188
Q71.0469 36.7188 71.5781 36.0781
Q72.125 35.4531 72.125 34.7188
Q72.125 33.8906 71.5781 33.2969
Q71.0469 32.7188 70.3125 32.7188
z
" id="Cmr10-3d"/>
     </defs>
     <g style="fill:#262626;" transform="translate(408.70828125 57.768125)scale(0.18 -0.18)">
      <use transform="translate(0.0 0.421875)" xlink:href="#Cmr10-a2"/>
      <use transform="translate(100.859375 0.421875)" xlink:href="#Cmr10-3d"/>
      <use transform="translate(184.91796875 0.421875)" xlink:href="#Cmr10-35"/>
      <use transform="translate(234.91796875 0.421875)" xlink:href="#Cmmi10-3a"/>
      <use transform="translate(263.4609375 0.421875)" xlink:href="#Cmr10-30"/>
     </g>
    </g>
    <g id="line2d_46">
     <path d="
M358.308 76.9297
L394.308 76.9297" style="fill:none;stroke:#55a868;stroke-linecap:round;stroke-width:1.75;"/>
    </g>
    <g id="line2d_47"/>
    <g id="text_19">
     <!-- $\Delta = 2.5$ -->
     <defs>
      <path d="
M4.98438 0
L4.98438 2.6875
Q4.98438 2.9375 5.17188 3.21875
L20.7031 20.4062
Q24.2188 24.2188 26.4062 26.7969
Q28.6094 29.3906 30.75 32.7656
Q32.9062 36.1406 34.1562 39.625
Q35.4062 43.1094 35.4062 47.0156
Q35.4062 51.125 33.8906 54.8594
Q32.375 58.5938 29.375 60.8438
Q26.375 63.0938 22.125 63.0938
Q17.7812 63.0938 14.3125 60.4688
Q10.8438 57.8594 9.42188 53.7188
Q9.8125 53.8125 10.5 53.8125
Q12.75 53.8125 14.3281 52.2969
Q15.9219 50.7812 15.9219 48.3906
Q15.9219 46.0938 14.3281 44.5
Q12.75 42.9219 10.5 42.9219
Q8.15625 42.9219 6.5625 44.5469
Q4.98438 46.1875 4.98438 48.3906
Q4.98438 52.1562 6.39062 55.4375
Q7.8125 58.7344 10.4688 61.2969
Q13.1406 63.875 16.4844 65.2344
Q19.8281 66.6094 23.5781 66.6094
Q29.2969 66.6094 34.2188 64.1875
Q39.1562 61.7656 42.0312 57.3438
Q44.9219 52.9375 44.9219 47.0156
Q44.9219 42.6719 43.0156 38.7656
Q41.1094 34.8594 38.125 31.6562
Q35.1562 28.4688 30.5156 24.4062
Q25.875 20.3594 24.4219 19
L13.0938 8.10938
L22.7031 8.10938
Q29.7812 8.10938 34.5469 8.21875
Q39.3125 8.34375 39.5938 8.59375
Q40.7656 9.85938 42 17.8281
L44.9219 17.8281
L42.0938 0
z
" id="Cmr10-32"/>
     </defs>
     <g style="fill:#262626;" transform="translate(408.70828125 83.2296875)scale(0.18 -0.18)">
      <use transform="translate(0.0 0.421875)" xlink:href="#Cmr10-a2"/>
      <use transform="translate(100.859375 0.421875)" xlink:href="#Cmr10-3d"/>
      <use transform="translate(184.91796875 0.421875)" xlink:href="#Cmr10-32"/>
      <use transform="translate(234.91796875 0.421875)" xlink:href="#Cmmi10-3a"/>
      <use transform="translate(263.4609375 0.421875)" xlink:href="#Cmr10-35"/>
     </g>
    </g>
    <g id="line2d_48">
     <path d="
M358.308 102.391
L394.308 102.391" style="fill:none;stroke:#c44e52;stroke-linecap:round;stroke-width:1.75;"/>
    </g>
    <g id="line2d_49"/>
    <g id="text_20">
     <!-- $\Delta = 1.0$ -->
     <defs>
      <path d="
M9.28125 0
L9.28125 3.51562
Q21.7812 3.51562 21.7812 6.6875
L21.7812 59.1875
Q16.6094 56.6875 8.6875 56.6875
L8.6875 60.2031
Q20.9531 60.2031 27.2031 66.6094
L28.6094 66.6094
Q28.9531 66.6094 29.2656 66.3281
Q29.5938 66.0625 29.5938 65.7188
L29.5938 6.6875
Q29.5938 3.51562 42.0938 3.51562
L42.0938 0
z
" id="Cmr10-31"/>
     </defs>
     <g style="fill:#262626;" transform="translate(408.70828125 108.69125)scale(0.18 -0.18)">
      <use transform="translate(0.0 0.421875)" xlink:href="#Cmr10-a2"/>
      <use transform="translate(100.859375 0.421875)" xlink:href="#Cmr10-3d"/>
      <use transform="translate(184.91796875 0.421875)" xlink:href="#Cmr10-31"/>
      <use transform="translate(234.91796875 0.421875)" xlink:href="#Cmmi10-3a"/>
      <use transform="translate(263.4609375 0.421875)" xlink:href="#Cmr10-30"/>
     </g>
    </g>
    <g id="line2d_50">
     <path d="
M358.308 127.853
L394.308 127.853" style="fill:none;stroke:#8172b2;stroke-linecap:round;stroke-width:1.75;"/>
    </g>
    <g id="line2d_51"/>
    <g id="text_21">
     <!-- $\Delta = 0.1$ -->
     <g style="fill:#262626;" transform="translate(408.70828125 134.1528125)scale(0.18 -0.18)">
      <use transform="translate(0.0 0.421875)" xlink:href="#Cmr10-a2"/>
      <use transform="translate(100.859375 0.421875)" xlink:href="#Cmr10-3d"/>
      <use transform="translate(184.91796875 0.421875)" xlink:href="#Cmr10-30"/>
      <use transform="translate(234.91796875 0.421875)" xlink:href="#Cmmi10-3a"/>
      <use transform="translate(263.4609375 0.421875)" xlink:href="#Cmr10-31"/>
     </g>
    </g>
   </g>
  </g>
 </g>
 <defs>
  <clipPath id="p51d9fffd7c">
   <rect height="275.3734375" width="408.45046875" x="72.9778125" y="28.6840625"/>
  </clipPath>
 </defs>
</svg>
