<?xml version="1.0" encoding="UTF-8" standalone="no"?>
<!DOCTYPE svg PUBLIC "-//W3C//DTD SVG 1.1//EN"
 "http://www.w3.org/Graphics/SVG/1.1/DTD/svg11.dtd">
<!-- Generated by graphviz version 2.40.1 (20161225.0304)
 -->
<!-- Title: G Pages: 1 -->
<svg width="246pt" height="220pt"
 viewBox="0.00 0.00 246.00 220.00" xmlns="http://www.w3.org/2000/svg" xmlns:xlink="http://www.w3.org/1999/xlink">
<g id="graph0" class="graph" transform="scale(1 1) rotate(0) translate(4 216)">
<title>G</title>
<polygon fill="#ffffff" stroke="transparent" points="-4,4 -4,-216 242,-216 242,4 -4,4"/>
<!-- Automated \n Sector -->
<g id="node1" class="node">
<title>Automated \n Sector</title>
<polygon fill="none" stroke="#000000" points="202.5,-125 121.5,-125 121.5,-87 202.5,-87 202.5,-125"/>
<text text-anchor="middle" x="162" y="-109.8" font-family="Times,serif" font-size="14.00" fill="#000000">Automated </text>
<text text-anchor="middle" x="162" y="-94.8" font-family="Times,serif" font-size="14.00" fill="#000000"> Sector</text>
</g>
<!-- Output (Q) -->
<g id="node2" class="node">
<title>Output (Q)</title>
<polygon fill="none" stroke="#000000" points="154.5,-36 77.5,-36 77.5,0 154.5,0 154.5,-36"/>
<text text-anchor="middle" x="116" y="-14.3" font-family="Times,serif" font-size="14.00" fill="#000000">Output (Q)</text>
</g>
<!-- Automated \n Sector&#45;&gt;Output (Q) -->
<g id="edge1" class="edge">
<title>Automated \n Sector&#45;&gt;Output (Q)</title>
<path fill="none" stroke="#000000" d="M152.0187,-86.9053C145.6208,-74.6659 137.219,-58.5929 130.1394,-45.0493"/>
<polygon fill="#000000" stroke="#000000" points="133.2246,-43.3961 125.4903,-36.1553 127.0211,-46.639 133.2246,-43.3961"/>
<text text-anchor="middle" x="159" y="-57.8" font-family="Times,serif" font-size="14.00" fill="#000000">sigma</text>
</g>
<!-- Manual \n Sector -->
<g id="node3" class="node">
<title>Manual \n Sector</title>
<polygon fill="none" stroke="#000000" points="103,-125 41,-125 41,-87 103,-87 103,-125"/>
<text text-anchor="middle" x="72" y="-109.8" font-family="Times,serif" font-size="14.00" fill="#000000">Manual </text>
<text text-anchor="middle" x="72" y="-94.8" font-family="Times,serif" font-size="14.00" fill="#000000"> Sector</text>
</g>
<!-- Manual \n Sector&#45;&gt;Output (Q) -->
<g id="edge2" class="edge">
<title>Manual \n Sector&#45;&gt;Output (Q)</title>
<path fill="none" stroke="#000000" d="M81.0895,-86.6538C85.7583,-76.8305 91.5896,-64.7338 97,-54 98.4175,-51.1878 99.9172,-48.2638 101.4276,-45.3521"/>
<polygon fill="#000000" stroke="#000000" points="104.6584,-46.7273 106.2009,-36.2454 98.4585,-43.4776 104.6584,-46.7273"/>
<text text-anchor="middle" x="114" y="-57.8" font-family="Times,serif" font-size="14.00" fill="#000000">sigma</text>
</g>
<!-- Labor -->
<g id="node4" class="node">
<title>Labor</title>
<polygon fill="none" stroke="#000000" points="54,-212 0,-212 0,-176 54,-176 54,-212"/>
<text text-anchor="middle" x="27" y="-190.3" font-family="Times,serif" font-size="14.00" fill="#000000">Labor</text>
</g>
<!-- Labor&#45;&gt;Manual \n Sector -->
<g id="edge3" class="edge">
<title>Labor&#45;&gt;Manual \n Sector</title>
<path fill="none" stroke="#000000" d="M35.11,-175.8984C39.6126,-166.0761 45.4179,-153.7739 51,-143 52.5291,-140.0488 54.1694,-136.9919 55.8347,-133.9576"/>
<polygon fill="#000000" stroke="#000000" points="58.9898,-135.4867 60.8191,-125.051 52.8813,-132.0682 58.9898,-135.4867"/>
<text text-anchor="middle" x="62" y="-146.8" font-family="Times,serif" font-size="14.00" fill="#000000">zeta</text>
</g>
<!-- Intermediates -->
<g id="node5" class="node">
<title>Intermediates</title>
<polygon fill="none" stroke="#000000" points="163.5,-212 72.5,-212 72.5,-176 163.5,-176 163.5,-212"/>
<text text-anchor="middle" x="118" y="-190.3" font-family="Times,serif" font-size="14.00" fill="#000000">Intermediates</text>
</g>
<!-- Intermediates&#45;&gt;Automated \n Sector -->
<g id="edge4" class="edge">
<title>Intermediates&#45;&gt;Automated \n Sector</title>
<path fill="none" stroke="#000000" d="M127.1168,-175.7663C133.1297,-163.7406 141.125,-147.75 147.9441,-134.1118"/>
<polygon fill="#000000" stroke="#000000" points="151.0966,-135.6331 152.4382,-125.1235 144.8356,-132.5025 151.0966,-135.6331"/>
<text text-anchor="middle" x="154" y="-146.8" font-family="Times,serif" font-size="14.00" fill="#000000">zeta</text>
</g>
<!-- Intermediates&#45;&gt;Manual \n Sector -->
<g id="edge5" class="edge">
<title>Intermediates&#45;&gt;Manual \n Sector</title>
<path fill="none" stroke="#000000" d="M108.4688,-175.7663C102.1826,-163.7406 93.8239,-147.75 86.6948,-134.1118"/>
<polygon fill="#000000" stroke="#000000" points="89.7308,-132.3644 81.9964,-125.1235 83.5272,-135.6072 89.7308,-132.3644"/>
<text text-anchor="middle" x="111" y="-146.8" font-family="Times,serif" font-size="14.00" fill="#000000">zeta</text>
</g>
<!-- Capital -->
<g id="node6" class="node">
<title>Capital</title>
<polygon fill="none" stroke="#000000" points="238,-212 182,-212 182,-176 238,-176 238,-212"/>
<text text-anchor="middle" x="210" y="-190.3" font-family="Times,serif" font-size="14.00" fill="#000000">Capital</text>
</g>
<!-- Capital&#45;&gt;Automated \n Sector -->
<g id="edge6" class="edge">
<title>Capital&#45;&gt;Automated \n Sector</title>
<path fill="none" stroke="#000000" d="M200.0544,-175.7663C193.4949,-163.7406 184.7727,-147.75 177.3337,-134.1118"/>
<polygon fill="#000000" stroke="#000000" points="180.2922,-132.2265 172.431,-125.1235 174.1469,-135.5785 180.2922,-132.2265"/>
<text text-anchor="middle" x="201" y="-146.8" font-family="Times,serif" font-size="14.00" fill="#000000">zeta</text>
</g>
</g>
</svg>
