<svg viewBox="0 0 800 284.39142663051933" xmlns="http://www.w3.org/2000/svg" stroke="black" fill="none" size="800">
<g>
<rect x="38.6794737148648" y="38.6794737148648" width="722.6410525702704" height="207.0324792007898" stroke-width="0" />
<g>
<g>
<rect x="51.8469427964156" y="38.6794737148648" width="334.9855881220334" height="207.0324792007897" stroke-width="0" />
<g>
<g>
<g font-family="IBMPlexSans">
<line x1="51.8469427964156" y1="245.7119529156545" x2="386.8325309184491" y2="245.7119529156545" />
<g>
<line x1="149.551072665342" y1="241.7617121911893" x2="149.551072665342" y2="249.6621936401198" />
<line x1="289.1284010495226" y1="241.7617121911893" x2="289.1284010495226" y2="249.6621936401198" />
</g>
<g>
<text x="147.4689666011249" y="259.7353074875062" font-size="11.8507221733958px" fill="black" font-weight="100">t</text>
<text x="279.9358616341775" y="259.7353074875062" font-size="11.8507221733958px" fill="black" font-weight="100">t+1</text>
</g>
</g>
<g font-family="IBMPlexSans">
<line x1="51.8469427964156" y1="245.7119529156545" x2="51.8469427964156" y2="38.6794737148648" />
<g>
</g>
<g>
</g>
</g>
</g>
<g>
<g>
<g>
<rect x="100.6990077308788" y="NaN" width="97.7041298689264" height="NaN" />
</g>
<g fill="lightgray" fill-opacity="0.4" stroke-dasharray="4">
<rect x="240.2763361150594" y="116.316653415161" width="97.7041298689265" height="129.3952995004936" />
</g>
</g>
<g>
<g>
<rect x="100.6990077308788" y="181.0143031654077" width="97.7041298689264" height="64.6976497502468" />
</g>
<g>
<rect x="240.2763361150594" y="161.6050082403337" width="97.7041298689265" height="84.1069446753208" />
</g>
</g>
<g>
<text x="261.2129353726865" y="115.2632614172905" font-size="14.6388458842007px" font-family="sans-serif" fill="black" font-weight="100">subsidy</text>
</g>
</g>
<g font-family="IBMPlexSans" font-weight="100">
<text x="-54.7217749764002" y="148.0420695874683" font-size="15.800962897861px" transform="rotate(-90 30.77899226593425 142.19571331525967)" fill="black" font-weight="100">R&amp;D Spending / Subsidy</text>
</g>
<g font-family="IBMPlexSans" font-weight="100">
<text x="169.5369235858629" y="35.9880514852546" font-size="20.703247920079px" fill="black" font-weight="100">Small Firm</text>
</g>
</g>
</g>
<g>
<rect x="413.1674690815508" y="38.6794737148648" width="334.9855881220336" height="207.0324792007897" stroke-width="0" />
<g>
<g>
<g font-family="IBMPlexSans">
<line x1="413.1674690815508" y1="245.7119529156545" x2="748.1530572035844" y2="245.7119529156545" />
<g>
<line x1="510.8715989504773" y1="241.7617121911893" x2="510.8715989504773" y2="249.6621936401198" />
<line x1="650.4489273346578" y1="241.7617121911893" x2="650.4489273346578" y2="249.6621936401198" />
</g>
<g>
<text x="508.7894928862602" y="259.7353074875062" font-size="11.8507221733958px" fill="black" font-weight="100">t</text>
<text x="641.2563879193128" y="259.7353074875062" font-size="11.8507221733958px" fill="black" font-weight="100">t+1</text>
</g>
</g>
<g font-family="IBMPlexSans">
<line x1="413.1674690815508" y1="245.7119529156545" x2="413.1674690815508" y2="38.6794737148648" />
<g>
</g>
<g>
</g>
</g>
</g>
<g>
<g>
<g>
<rect x="462.0195340160141" y="NaN" width="97.7041298689264" height="NaN" />
</g>
<g fill="lightgray" fill-opacity="0.4" stroke-dasharray="4">
<rect x="601.5968624001946" y="116.316653415161" width="97.7041298689265" height="129.3952995004936" />
</g>
</g>
<g>
<g>
<rect x="462.0195340160141" y="83.9678285400376" width="97.7041298689264" height="161.744124375617" />
</g>
<g>
<rect x="601.5968624001946" y="58.0887686399389" width="97.7041298689265" height="187.6231842757157" />
</g>
</g>
<g>
<text x="622.5334616578218" y="115.2632614172905" font-size="14.6388458842007px" font-family="sans-serif" fill="black" font-weight="100">subsidy</text>
</g>
</g>
<g font-family="IBMPlexSans" font-weight="100">
<text x="531.6625770565192" y="35.9880514852545" font-size="20.703247920079px" fill="black" font-weight="100">Large Firm</text>
</g>
</g>
</g>
</g>
</g>
</svg>