<?xml version="1.0" encoding="UTF-8" standalone="no"?>
<!DOCTYPE svg PUBLIC "-//W3C//DTD SVG 1.1//EN"
 "http://www.w3.org/Graphics/SVG/1.1/DTD/svg11.dtd">
<!-- Generated by graphviz version 2.38.0 (20140413.2041)
 -->
<!-- Title: G Pages: 1 -->
<svg width="265pt" height="222pt"
 viewBox="0.00 0.00 264.50 222.00" xmlns="http://www.w3.org/2000/svg" xmlns:xlink="http://www.w3.org/1999/xlink">
<g id="graph0" class="graph" transform="scale(1 1) rotate(0) translate(4 218)">
<title>G</title>
<polygon fill="white" stroke="none" points="-4,4 -4,-218 260.5,-218 260.5,4 -4,4"/>
<!-- Automated \n Sector -->
<g id="node1" class="node"><title>Automated \n Sector</title>
<polygon fill="none" stroke="black" points="161.5,-125 80.5,-125 80.5,-87 161.5,-87 161.5,-125"/>
<text text-anchor="middle" x="121" y="-109.8" font-family="Times,serif" font-size="14.00">Automated </text>
<text text-anchor="middle" x="121" y="-94.8" font-family="Times,serif" font-size="14.00"> Sector</text>
</g>
<!-- Output -->
<g id="node2" class="node"><title>Output</title>
<polygon fill="none" stroke="black" points="148,-36 94,-36 94,-0 148,-0 148,-36"/>
<text text-anchor="middle" x="121" y="-14.3" font-family="Times,serif" font-size="14.00">Output</text>
</g>
<!-- Automated \n Sector&#45;&gt;Output -->
<g id="edge1" class="edge"><title>Automated \n Sector&#45;&gt;Output</title>
<path fill="none" stroke="black" d="M121,-86.7616C121,-74.9344 121,-59.3159 121,-46.0547"/>
<polygon fill="black" stroke="black" points="124.5,-46.0422 121,-36.0422 117.5,-46.0423 124.5,-46.0422"/>
<text text-anchor="middle" x="138" y="-57.8" font-family="Times,serif" font-size="14.00">sigma</text>
</g>
<!-- Manual \n Sector -->
<g id="node3" class="node"><title>Manual \n Sector</title>
<polygon fill="none" stroke="black" points="62,-125 3.55271e-15,-125 3.55271e-15,-87 62,-87 62,-125"/>
<text text-anchor="middle" x="31" y="-109.8" font-family="Times,serif" font-size="14.00">Manual </text>
<text text-anchor="middle" x="31" y="-94.8" font-family="Times,serif" font-size="14.00"> Sector</text>
</g>
<!-- Manual \n Sector&#45;&gt;Output -->
<g id="edge2" class="edge"><title>Manual \n Sector&#45;&gt;Output</title>
<path fill="none" stroke="black" d="M49.1534,-86.921C59.0794,-77.1054 71.6348,-64.8023 83,-54 86.7239,-50.4605 90.6839,-46.7527 94.5878,-43.129"/>
<polygon fill="black" stroke="black" points="96.9773,-45.6865 101.949,-36.3308 92.2282,-40.544 96.9773,-45.6865"/>
<text text-anchor="middle" x="100" y="-57.8" font-family="Times,serif" font-size="14.00">sigma</text>
</g>
<!-- Low Skill \n Labor -->
<g id="node4" class="node"><title>Low Skill \n Labor</title>
<polygon fill="none" stroke="black" points="74,-214 0,-214 0,-176 74,-176 74,-214"/>
<text text-anchor="middle" x="37" y="-198.8" font-family="Times,serif" font-size="14.00">Low Skill </text>
<text text-anchor="middle" x="37" y="-183.8" font-family="Times,serif" font-size="14.00"> Labor</text>
</g>
<!-- Low Skill \n Labor&#45;&gt;Automated \n Sector -->
<g id="edge3" class="edge"><title>Low Skill \n Labor&#45;&gt;Automated \n Sector</title>
<path fill="none" stroke="black" d="M51.1018,-175.965C59.2093,-165.939 69.7856,-153.421 80,-143 83.6365,-139.29 87.5966,-135.517 91.5747,-131.879"/>
<polygon fill="black" stroke="black" points="94.0386,-134.371 99.1668,-125.1 89.3764,-129.15 94.0386,-134.371"/>
<text text-anchor="middle" x="100" y="-146.8" font-family="Times,serif" font-size="14.00">epsilon</text>
</g>
<!-- Low Skill \n Labor&#45;&gt;Manual \n Sector -->
<g id="edge4" class="edge"><title>Low Skill \n Labor&#45;&gt;Manual \n Sector</title>
<path fill="none" stroke="black" d="M35.7568,-175.974C34.9443,-164.192 33.8663,-148.561 32.9419,-135.158"/>
<polygon fill="black" stroke="black" points="36.4214,-134.739 32.2416,-125.003 29.438,-135.221 36.4214,-134.739"/>
</g>
<!-- Capital -->
<g id="node5" class="node"><title>Capital</title>
<polygon fill="none" stroke="black" points="155,-213 99,-213 99,-177 155,-177 155,-213"/>
<text text-anchor="middle" x="127" y="-191.3" font-family="Times,serif" font-size="14.00">Capital</text>
</g>
<!-- Capital&#45;&gt;Automated \n Sector -->
<g id="edge5" class="edge"><title>Capital&#45;&gt;Automated \n Sector</title>
<path fill="none" stroke="black" d="M125.815,-176.812C125.001,-165.011 123.902,-149.072 122.959,-135.404"/>
<polygon fill="black" stroke="black" points="126.425,-134.787 122.245,-125.051 119.441,-135.268 126.425,-134.787"/>
<text text-anchor="middle" x="145" y="-146.8" font-family="Times,serif" font-size="14.00">epsilon</text>
</g>
<!-- High Skill \n Labor -->
<g id="node6" class="node"><title>High Skill \n Labor</title>
<polygon fill="none" stroke="black" points="256.5,-125 179.5,-125 179.5,-87 256.5,-87 256.5,-125"/>
<text text-anchor="middle" x="218" y="-109.8" font-family="Times,serif" font-size="14.00">High Skill </text>
<text text-anchor="middle" x="218" y="-94.8" font-family="Times,serif" font-size="14.00"> Labor</text>
</g>
<!-- High Skill \n Labor&#45;&gt;Output -->
<g id="edge6" class="edge"><title>High Skill \n Labor&#45;&gt;Output</title>
<path fill="none" stroke="black" d="M197.429,-86.7616C183.032,-73.9976 163.655,-56.8179 148.014,-42.9509"/>
<polygon fill="black" stroke="black" points="150.027,-40.0574 140.222,-36.0422 145.383,-45.2952 150.027,-40.0574"/>
<text text-anchor="middle" x="186" y="-57.8" font-family="Times,serif" font-size="14.00">unit</text>
</g>
</g>
</svg>
