<?xml version="1.0" encoding="UTF-8" standalone="no"?>
<!DOCTYPE svg PUBLIC "-//W3C//DTD SVG 1.1//EN"
 "http://www.w3.org/Graphics/SVG/1.1/DTD/svg11.dtd">
<!-- Generated by graphviz version 2.38.0 (20140413.2041)
 -->
<!-- Title: G Pages: 1 -->
<svg width="379pt" height="220pt"
 viewBox="0.00 0.00 379.00 220.00" xmlns="http://www.w3.org/2000/svg" xmlns:xlink="http://www.w3.org/1999/xlink">
<g id="graph0" class="graph" transform="scale(1 1) rotate(0) translate(4 216)">
<title>G</title>
<polygon fill="white" stroke="none" points="-4,4 -4,-216 375,-216 375,4 -4,4"/>
<!-- K&#45;Composite (H) -->
<g id="node1" class="node"><title>K&#45;Composite (H)</title>
<polygon fill="none" stroke="black" points="313.5,-123 200.5,-123 200.5,-87 313.5,-87 313.5,-123"/>
<text text-anchor="middle" x="257" y="-101.3" font-family="Times,serif" font-size="14.00">K&#45;Composite (H)</text>
</g>
<!-- Output (Q) -->
<g id="node2" class="node"><title>Output (Q)</title>
<polygon fill="none" stroke="black" points="238.5,-36 161.5,-36 161.5,-0 238.5,-0 238.5,-36"/>
<text text-anchor="middle" x="200" y="-14.3" font-family="Times,serif" font-size="14.00">Output (Q)</text>
</g>
<!-- K&#45;Composite (H)&#45;&gt;Output (Q) -->
<g id="edge1" class="edge"><title>K&#45;Composite (H)&#45;&gt;Output (Q)</title>
<path fill="none" stroke="black" d="M245.465,-86.799C237.353,-74.7017 226.357,-58.3049 217.212,-44.6665"/>
<polygon fill="black" stroke="black" points="219.994,-42.5315 211.518,-36.1754 214.18,-46.4302 219.994,-42.5315"/>
<text text-anchor="middle" x="252" y="-57.8" font-family="Times,serif" font-size="14.00">sigma1</text>
</g>
<!-- R&#45;Composite (V) -->
<g id="node3" class="node"><title>R&#45;Composite (V)</title>
<polygon fill="none" stroke="black" points="182,-123 70,-123 70,-87 182,-87 182,-123"/>
<text text-anchor="middle" x="126" y="-101.3" font-family="Times,serif" font-size="14.00">R&#45;Composite (V)</text>
</g>
<!-- R&#45;Composite (V)&#45;&gt;Output (Q) -->
<g id="edge2" class="edge"><title>R&#45;Composite (V)&#45;&gt;Output (Q)</title>
<path fill="none" stroke="black" d="M140.975,-86.799C151.707,-74.4713 166.327,-57.6787 178.331,-43.8902"/>
<polygon fill="black" stroke="black" points="181.121,-46.0159 185.047,-36.1754 175.841,-41.4195 181.121,-46.0159"/>
<text text-anchor="middle" x="188" y="-57.8" font-family="Times,serif" font-size="14.00">sigma1</text>
</g>
<!-- Unskilled \n Labor (L1) -->
<g id="node4" class="node"><title>Unskilled \n Labor (L1)</title>
<polygon fill="none" stroke="black" points="80,-212 0,-212 0,-174 80,-174 80,-212"/>
<text text-anchor="middle" x="40" y="-196.8" font-family="Times,serif" font-size="14.00">Unskilled </text>
<text text-anchor="middle" x="40" y="-181.8" font-family="Times,serif" font-size="14.00"> Labor (L1)</text>
</g>
<!-- Unskilled \n Labor (L1)&#45;&gt;R&#45;Composite (V) -->
<g id="edge3" class="edge"><title>Unskilled \n Labor (L1)&#45;&gt;R&#45;Composite (V)</title>
<path fill="none" stroke="black" d="M56.1251,-173.67C65.0139,-163.781 76.3731,-151.487 87,-141 90.7092,-137.34 94.711,-133.565 98.6889,-129.91"/>
<polygon fill="black" stroke="black" points="101.158,-132.396 106.226,-123.092 96.4618,-127.205 101.158,-132.396"/>
<text text-anchor="middle" x="107" y="-144.8" font-family="Times,serif" font-size="14.00">sigma2</text>
</g>
<!-- Robots (Z) -->
<g id="node5" class="node"><title>Robots (Z)</title>
<polygon fill="none" stroke="black" points="174,-211 98,-211 98,-175 174,-175 174,-211"/>
<text text-anchor="middle" x="136" y="-189.3" font-family="Times,serif" font-size="14.00">Robots (Z)</text>
</g>
<!-- Robots (Z)&#45;&gt;R&#45;Composite (V) -->
<g id="edge4" class="edge"><title>Robots (Z)&#45;&gt;R&#45;Composite (V)</title>
<path fill="none" stroke="black" d="M133.976,-174.597C132.598,-162.746 130.746,-146.817 129.173,-133.292"/>
<polygon fill="black" stroke="black" points="132.618,-132.613 127.987,-123.084 125.665,-133.421 132.618,-132.613"/>
<text text-anchor="middle" x="152" y="-144.8" font-family="Times,serif" font-size="14.00">sigma2</text>
</g>
<!-- Skilled \n Labor (S) -->
<g id="node6" class="node"><title>Skilled \n Labor (S)</title>
<polygon fill="none" stroke="black" points="274.5,-212 201.5,-212 201.5,-174 274.5,-174 274.5,-212"/>
<text text-anchor="middle" x="238" y="-196.8" font-family="Times,serif" font-size="14.00">Skilled </text>
<text text-anchor="middle" x="238" y="-181.8" font-family="Times,serif" font-size="14.00"> Labor (S)</text>
</g>
<!-- Skilled \n Labor (S)&#45;&gt;K&#45;Composite (H) -->
<g id="edge5" class="edge"><title>Skilled \n Labor (S)&#45;&gt;K&#45;Composite (H)</title>
<path fill="none" stroke="black" d="M242.029,-173.762C244.642,-161.934 248.093,-146.316 251.023,-133.055"/>
<polygon fill="black" stroke="black" points="254.495,-133.562 253.235,-123.042 247.66,-132.052 254.495,-133.562"/>
<text text-anchor="middle" x="270" y="-144.8" font-family="Times,serif" font-size="14.00">sigma3</text>
</g>
<!-- Capital (K) -->
<g id="node7" class="node"><title>Capital (K)</title>
<polygon fill="none" stroke="black" points="371,-211 293,-211 293,-175 371,-175 371,-211"/>
<text text-anchor="middle" x="332" y="-189.3" font-family="Times,serif" font-size="14.00">Capital (K)</text>
</g>
<!-- Capital (K)&#45;&gt;K&#45;Composite (H) -->
<g id="edge6" class="edge"><title>Capital (K)&#45;&gt;K&#45;Composite (H)</title>
<path fill="none" stroke="black" d="M320.377,-174.894C313.188,-164.711 303.538,-151.727 294,-141 290.791,-137.39 287.266,-133.728 283.707,-130.199"/>
<polygon fill="black" stroke="black" points="286.075,-127.619 276.444,-123.203 281.219,-132.661 286.075,-127.619"/>
<text text-anchor="middle" x="327" y="-144.8" font-family="Times,serif" font-size="14.00">sigma3</text>
</g>
</g>
</svg>
