<?xml version="1.0" encoding="UTF-8" standalone="no"?>
<!DOCTYPE svg PUBLIC "-//W3C//DTD SVG 1.1//EN"
 "http://www.w3.org/Graphics/SVG/1.1/DTD/svg11.dtd">
<!-- Generated by graphviz version 2.38.0 (20140413.2041)
 -->
<!-- Title: G Pages: 1 -->
<svg width="242pt" height="218pt"
 viewBox="0.00 0.00 241.50 218.00" xmlns="http://www.w3.org/2000/svg" xmlns:xlink="http://www.w3.org/1999/xlink">
<g id="graph0" class="graph" transform="scale(1 1) rotate(0) translate(4 214)">
<title>G</title>
<polygon fill="white" stroke="none" points="-4,4 -4,-214 237.5,-214 237.5,4 -4,4"/>
<!-- Capital (K) -->
<g id="node1" class="node"><title>Capital (K)</title>
<polygon fill="none" stroke="black" points="78,-123 0,-123 0,-87 78,-87 78,-123"/>
<text text-anchor="middle" x="39" y="-101.3" font-family="Times,serif" font-size="14.00">Capital (K)</text>
</g>
<!-- Output (Q) -->
<g id="node2" class="node"><title>Output (Q)</title>
<polygon fill="none" stroke="black" points="119.5,-36 42.5,-36 42.5,-0 119.5,-0 119.5,-36"/>
<text text-anchor="middle" x="81" y="-14.3" font-family="Times,serif" font-size="14.00">Output (Q)</text>
</g>
<!-- Capital (K)&#45;&gt;Output (Q) -->
<g id="edge1" class="edge"><title>Capital (K)&#45;&gt;Output (Q)</title>
<path fill="none" stroke="black" d="M46.0973,-86.6693C50.2086,-76.95 55.6221,-64.6709 61,-54 62.4804,-51.0627 64.0913,-48.0241 65.7349,-45.0206"/>
<polygon fill="black" stroke="black" points="68.8155,-46.683 70.6662,-36.2511 62.714,-43.252 68.8155,-46.683"/>
<text text-anchor="middle" x="81" y="-57.8" font-family="Times,serif" font-size="14.00">sigma1</text>
</g>
<!-- Composite (V) -->
<g id="node3" class="node"><title>Composite (V)</title>
<polygon fill="none" stroke="black" points="194,-123 96,-123 96,-87 194,-87 194,-123"/>
<text text-anchor="middle" x="145" y="-101.3" font-family="Times,serif" font-size="14.00">Composite (V)</text>
</g>
<!-- Composite (V)&#45;&gt;Output (Q) -->
<g id="edge2" class="edge"><title>Composite (V)&#45;&gt;Output (Q)</title>
<path fill="none" stroke="black" d="M132.049,-86.799C122.853,-74.5865 110.359,-57.9921 100.033,-44.2776"/>
<polygon fill="black" stroke="black" points="102.743,-42.0589 93.9321,-36.1754 97.1511,-46.2694 102.743,-42.0589"/>
<text text-anchor="middle" x="137" y="-57.8" font-family="Times,serif" font-size="14.00">sigma1</text>
</g>
<!-- Labor (L) -->
<g id="node4" class="node"><title>Labor (L)</title>
<polygon fill="none" stroke="black" points="132,-210 62,-210 62,-174 132,-174 132,-210"/>
<text text-anchor="middle" x="97" y="-188.3" font-family="Times,serif" font-size="14.00">Labor (L)</text>
</g>
<!-- Labor (L)&#45;&gt;Composite (V) -->
<g id="edge3" class="edge"><title>Labor (L)&#45;&gt;Composite (V)</title>
<path fill="none" stroke="black" d="M104.583,-173.539C109.018,-163.779 114.927,-151.503 121,-141 122.788,-137.909 124.759,-134.733 126.78,-131.616"/>
<polygon fill="black" stroke="black" points="129.826,-133.359 132.496,-123.106 124.015,-129.456 129.826,-133.359"/>
<text text-anchor="middle" x="141" y="-144.8" font-family="Times,serif" font-size="14.00">sigma2</text>
</g>
<!-- Robots (bZ) -->
<g id="node5" class="node"><title>Robots (bZ)</title>
<polygon fill="none" stroke="black" points="233.5,-210 150.5,-210 150.5,-174 233.5,-174 233.5,-210"/>
<text text-anchor="middle" x="192" y="-188.3" font-family="Times,serif" font-size="14.00">Robots (bZ)</text>
</g>
<!-- Robots (bZ)&#45;&gt;Composite (V) -->
<g id="edge4" class="edge"><title>Robots (bZ)&#45;&gt;Composite (V)</title>
<path fill="none" stroke="black" d="M182.489,-173.799C175.863,-161.817 166.906,-145.617 159.408,-132.057"/>
<polygon fill="black" stroke="black" points="162.399,-130.233 154.497,-123.175 156.273,-133.62 162.399,-130.233"/>
<text text-anchor="middle" x="191" y="-144.8" font-family="Times,serif" font-size="14.00">sigma2</text>
</g>
</g>
</svg>
