<?xml version="1.0" encoding="UTF-8" standalone="no"?>
<!DOCTYPE svg PUBLIC "-//W3C//DTD SVG 1.1//EN"
 "http://www.w3.org/Graphics/SVG/1.1/DTD/svg11.dtd">
<!-- Generated by graphviz version 2.38.0 (20140413.2041)
 -->
<!-- Title: G Pages: 1 -->
<svg width="405pt" height="218pt"
 viewBox="0.00 0.00 405.00 218.00" xmlns="http://www.w3.org/2000/svg" xmlns:xlink="http://www.w3.org/1999/xlink">
<g id="graph0" class="graph" transform="scale(1 1) rotate(0) translate(4 214)">
<title>G</title>
<polygon fill="white" stroke="none" points="-4,4 -4,-214 401,-214 401,4 -4,4"/>
<!-- K&#45;Composite (H) -->
<g id="node1" class="node"><title>K&#45;Composite (H)</title>
<polygon fill="none" stroke="black" points="325.5,-123 212.5,-123 212.5,-87 325.5,-87 325.5,-123"/>
<text text-anchor="middle" x="269" y="-101.3" font-family="Times,serif" font-size="14.00">K&#45;Composite (H)</text>
</g>
<!-- Output (Q) -->
<g id="node2" class="node"><title>Output (Q)</title>
<polygon fill="none" stroke="black" points="250.5,-36 173.5,-36 173.5,-0 250.5,-0 250.5,-36"/>
<text text-anchor="middle" x="212" y="-14.3" font-family="Times,serif" font-size="14.00">Output (Q)</text>
</g>
<!-- K&#45;Composite (H)&#45;&gt;Output (Q) -->
<g id="edge1" class="edge"><title>K&#45;Composite (H)&#45;&gt;Output (Q)</title>
<path fill="none" stroke="black" d="M257.465,-86.799C249.353,-74.7017 238.357,-58.3049 229.212,-44.6665"/>
<polygon fill="black" stroke="black" points="231.994,-42.5315 223.518,-36.1754 226.18,-46.4302 231.994,-42.5315"/>
<text text-anchor="middle" x="264" y="-57.8" font-family="Times,serif" font-size="14.00">sigma1</text>
</g>
<!-- R&#45;Composite (V) -->
<g id="node3" class="node"><title>R&#45;Composite (V)</title>
<polygon fill="none" stroke="black" points="194,-123 82,-123 82,-87 194,-87 194,-123"/>
<text text-anchor="middle" x="138" y="-101.3" font-family="Times,serif" font-size="14.00">R&#45;Composite (V)</text>
</g>
<!-- R&#45;Composite (V)&#45;&gt;Output (Q) -->
<g id="edge2" class="edge"><title>R&#45;Composite (V)&#45;&gt;Output (Q)</title>
<path fill="none" stroke="black" d="M152.975,-86.799C163.707,-74.4713 178.327,-57.6787 190.331,-43.8902"/>
<polygon fill="black" stroke="black" points="193.121,-46.0159 197.047,-36.1754 187.841,-41.4195 193.121,-46.0159"/>
<text text-anchor="middle" x="200" y="-57.8" font-family="Times,serif" font-size="14.00">sigma1</text>
</g>
<!-- R&#45;Labor (L1) -->
<g id="node4" class="node"><title>R&#45;Labor (L1)</title>
<polygon fill="none" stroke="black" points="90,-210 0,-210 0,-174 90,-174 90,-210"/>
<text text-anchor="middle" x="45" y="-188.3" font-family="Times,serif" font-size="14.00">R&#45;Labor (L1)</text>
</g>
<!-- R&#45;Labor (L1)&#45;&gt;R&#45;Composite (V) -->
<g id="edge3" class="edge"><title>R&#45;Labor (L1)&#45;&gt;R&#45;Composite (V)</title>
<path fill="none" stroke="black" d="M62.995,-173.706C73.18,-163.998 86.2035,-151.719 98,-141 101.912,-137.445 106.076,-133.729 110.183,-130.102"/>
<polygon fill="black" stroke="black" points="112.724,-132.528 117.931,-123.301 108.107,-127.268 112.724,-132.528"/>
<text text-anchor="middle" x="118" y="-144.8" font-family="Times,serif" font-size="14.00">sigma2</text>
</g>
<!-- Robots (Z) -->
<g id="node5" class="node"><title>Robots (Z)</title>
<polygon fill="none" stroke="black" points="184,-210 108,-210 108,-174 184,-174 184,-210"/>
<text text-anchor="middle" x="146" y="-188.3" font-family="Times,serif" font-size="14.00">Robots (Z)</text>
</g>
<!-- Robots (Z)&#45;&gt;R&#45;Composite (V) -->
<g id="edge4" class="edge"><title>Robots (Z)&#45;&gt;R&#45;Composite (V)</title>
<path fill="none" stroke="black" d="M144.381,-173.799C143.286,-162.163 141.816,-146.548 140.563,-133.237"/>
<polygon fill="black" stroke="black" points="144.038,-132.803 139.617,-123.175 137.069,-133.459 144.038,-132.803"/>
<text text-anchor="middle" x="163" y="-144.8" font-family="Times,serif" font-size="14.00">sigma2</text>
</g>
<!-- K&#45;Labor (L2) -->
<g id="node6" class="node"><title>K&#45;Labor (L2)</title>
<polygon fill="none" stroke="black" points="300.5,-210 209.5,-210 209.5,-174 300.5,-174 300.5,-210"/>
<text text-anchor="middle" x="255" y="-188.3" font-family="Times,serif" font-size="14.00">K&#45;Labor (L2)</text>
</g>
<!-- K&#45;Labor (L2)&#45;&gt;K&#45;Composite (H) -->
<g id="edge5" class="edge"><title>K&#45;Labor (L2)&#45;&gt;K&#45;Composite (H)</title>
<path fill="none" stroke="black" d="M257.833,-173.799C259.75,-162.163 262.322,-146.548 264.514,-133.237"/>
<polygon fill="black" stroke="black" points="267.999,-133.611 266.171,-123.175 261.092,-132.474 267.999,-133.611"/>
<text text-anchor="middle" x="283" y="-144.8" font-family="Times,serif" font-size="14.00">sigma3</text>
</g>
<!-- Capital (K) -->
<g id="node7" class="node"><title>Capital (K)</title>
<polygon fill="none" stroke="black" points="397,-210 319,-210 319,-174 397,-174 397,-210"/>
<text text-anchor="middle" x="358" y="-188.3" font-family="Times,serif" font-size="14.00">Capital (K)</text>
</g>
<!-- Capital (K)&#45;&gt;K&#45;Composite (H) -->
<g id="edge6" class="edge"><title>Capital (K)&#45;&gt;K&#45;Composite (H)</title>
<path fill="none" stroke="black" d="M340.664,-173.74C330.857,-164.043 318.325,-151.762 307,-141 303.276,-137.461 299.316,-133.753 295.412,-130.13"/>
<polygon fill="black" stroke="black" points="297.771,-127.545 288.05,-123.331 293.022,-132.687 297.771,-127.545"/>
<text text-anchor="middle" x="343" y="-144.8" font-family="Times,serif" font-size="14.00">sigma3</text>
</g>
</g>
</svg>
