<?xml version="1.0" encoding="UTF-8" standalone="no"?>
<!DOCTYPE svg PUBLIC "-//W3C//DTD SVG 1.1//EN"
 "http://www.w3.org/Graphics/SVG/1.1/DTD/svg11.dtd">
<!-- Generated by graphviz version 2.38.0 (20140413.2041)
 -->
<!-- Title: G Pages: 1 -->
<svg width="336pt" height="220pt"
 viewBox="0.00 0.00 335.50 220.00" xmlns="http://www.w3.org/2000/svg" xmlns:xlink="http://www.w3.org/1999/xlink">
<g id="graph0" class="graph" transform="scale(1 1) rotate(0) translate(4 216)">
<title>G</title>
<polygon fill="white" stroke="none" points="-4,4 -4,-216 331.5,-216 331.5,4 -4,4"/>
<!-- Goods -->
<g id="node1" class="node"><title>Goods</title>
<polygon fill="none" stroke="black" points="243,-123 189,-123 189,-87 243,-87 243,-123"/>
<text text-anchor="middle" x="216" y="-101.3" font-family="Times,serif" font-size="14.00">Goods</text>
</g>
<!-- Utility -->
<g id="node2" class="node"><title>Utility</title>
<polygon fill="none" stroke="black" points="205,-36 151,-36 151,-0 205,-0 205,-36"/>
<text text-anchor="middle" x="178" y="-14.3" font-family="Times,serif" font-size="14.00">Utility</text>
</g>
<!-- Goods&#45;&gt;Utility -->
<g id="edge1" class="edge"><title>Goods&#45;&gt;Utility</title>
<path fill="none" stroke="black" d="M208.31,-86.799C203.005,-74.9322 195.85,-58.9279 189.824,-45.4488"/>
<polygon fill="black" stroke="black" points="192.955,-43.8762 185.678,-36.1754 186.565,-46.7332 192.955,-43.8762"/>
<text text-anchor="middle" x="211" y="-57.8" font-family="Times,serif" font-size="14.00">unit</text>
</g>
<!-- Services -->
<g id="node3" class="node"><title>Services</title>
<polygon fill="none" stroke="black" points="162,-123 100,-123 100,-87 162,-87 162,-123"/>
<text text-anchor="middle" x="131" y="-101.3" font-family="Times,serif" font-size="14.00">Services</text>
</g>
<!-- Services&#45;&gt;Utility -->
<g id="edge2" class="edge"><title>Services&#45;&gt;Utility</title>
<path fill="none" stroke="black" d="M140.511,-86.799C147.137,-74.8169 156.094,-58.6168 163.592,-45.0569"/>
<polygon fill="black" stroke="black" points="166.727,-46.6204 168.503,-36.1754 160.601,-43.2331 166.727,-46.6204"/>
<text text-anchor="middle" x="169" y="-57.8" font-family="Times,serif" font-size="14.00">unit</text>
</g>
<!-- Capital -->
<g id="node4" class="node"><title>Capital</title>
<polygon fill="none" stroke="black" points="244,-211 188,-211 188,-175 244,-175 244,-211"/>
<text text-anchor="middle" x="216" y="-189.3" font-family="Times,serif" font-size="14.00">Capital</text>
</g>
<!-- Capital&#45;&gt;Goods -->
<g id="edge3" class="edge"><title>Capital&#45;&gt;Goods</title>
<path fill="none" stroke="black" d="M216,-174.597C216,-162.746 216,-146.817 216,-133.292"/>
<polygon fill="black" stroke="black" points="219.5,-133.084 216,-123.084 212.5,-133.084 219.5,-133.084"/>
<text text-anchor="middle" x="239.5" y="-144.8" font-family="Times,serif" font-size="14.00">sigma_y</text>
</g>
<!-- Software -->
<g id="node5" class="node"><title>Software</title>
<polygon fill="none" stroke="black" points="327.5,-211 262.5,-211 262.5,-175 327.5,-175 327.5,-211"/>
<text text-anchor="middle" x="295" y="-189.3" font-family="Times,serif" font-size="14.00">Software</text>
</g>
<!-- Software&#45;&gt;Goods -->
<g id="edge4" class="edge"><title>Software&#45;&gt;Goods</title>
<path fill="none" stroke="black" d="M287.954,-174.652C283.113,-164.135 275.948,-150.884 267,-141 262.4,-135.919 256.923,-131.195 251.293,-126.967"/>
<polygon fill="black" stroke="black" points="253.211,-124.037 243.019,-121.144 249.182,-129.761 253.211,-124.037"/>
<text text-anchor="middle" x="301.5" y="-144.8" font-family="Times,serif" font-size="14.00">sigma_y</text>
</g>
<!-- Low Skill \n Labor -->
<g id="node6" class="node"><title>Low Skill \n Labor</title>
<polygon fill="none" stroke="black" points="74,-212 0,-212 0,-174 74,-174 74,-212"/>
<text text-anchor="middle" x="37" y="-196.8" font-family="Times,serif" font-size="14.00">Low Skill </text>
<text text-anchor="middle" x="37" y="-181.8" font-family="Times,serif" font-size="14.00"> Labor</text>
</g>
<!-- Low Skill \n Labor&#45;&gt;Services -->
<g id="edge5" class="edge"><title>Low Skill \n Labor&#45;&gt;Services</title>
<path fill="none" stroke="black" d="M51.0583,-173.545C59.2382,-163.388 70.068,-150.879 81,-141 85.4823,-136.949 90.4482,-132.967 95.4599,-129.223"/>
<polygon fill="black" stroke="black" points="97.7877,-131.86 103.86,-123.179 93.6991,-126.179 97.7877,-131.86"/>
<text text-anchor="middle" x="104" y="-144.8" font-family="Times,serif" font-size="14.00">sigma_s</text>
</g>
<!-- High Skill \n Labor -->
<g id="node7" class="node"><title>High Skill \n Labor</title>
<polygon fill="none" stroke="black" points="169.5,-212 92.5,-212 92.5,-174 169.5,-174 169.5,-212"/>
<text text-anchor="middle" x="131" y="-196.8" font-family="Times,serif" font-size="14.00">High Skill </text>
<text text-anchor="middle" x="131" y="-181.8" font-family="Times,serif" font-size="14.00"> Labor</text>
</g>
<!-- High Skill \n Labor&#45;&gt;Services -->
<g id="edge6" class="edge"><title>High Skill \n Labor&#45;&gt;Services</title>
<path fill="none" stroke="black" d="M131,-173.762C131,-161.934 131,-146.316 131,-133.055"/>
<polygon fill="black" stroke="black" points="134.5,-133.042 131,-123.042 127.5,-133.042 134.5,-133.042"/>
<text text-anchor="middle" x="154" y="-144.8" font-family="Times,serif" font-size="14.00">sigma_s</text>
</g>
</g>
</svg>
