<?xml version="1.0" encoding="utf-8" standalone="no"?>
<!DOCTYPE svg PUBLIC "-//W3C//DTD SVG 1.1//EN"
  "http://www.w3.org/Graphics/SVG/1.1/DTD/svg11.dtd">
<!-- Created with matplotlib (http://matplotlib.org/) -->
<svg height="341pt" version="1.1" viewBox="0 0 477 341" width="477pt" xmlns="http://www.w3.org/2000/svg" xmlns:xlink="http://www.w3.org/1999/xlink">
 <defs>
  <style type="text/css">
*{stroke-linecap:butt;stroke-linejoin:round;}
  </style>
 </defs>
 <g id="figure_1">
  <g id="patch_1">
   <path d="M 0 341.137812 
L 477.063594 341.137812 
L 477.063594 0 
L 0 0 
z
" style="fill:#ffffff;"/>
  </g>
  <g id="axes_1">
   <g id="patch_2">
    <path d="M 70.992344 285 
L 461.592344 285 
L 461.592344 13.2 
L 70.992344 13.2 
z
" style="fill:#ffffff;"/>
   </g>
   <g id="PolyCollection_1">
    <path clip-path="url(#pa79e96ecbe)" d="M -33.167656 -348.681114 
L -33.167656 32.657897 
L -24.487656 12.432294 
L -15.807656 17.456737 
L -7.127656 40.620005 
L 1.552344 72.237662 
L 10.232344 102.262984 
L 18.912344 122.262638 
L 27.592344 129.470191 
L 36.272344 132.89635 
L 44.952344 144.317916 
L 53.632344 160.541534 
L 62.312344 171.982595 
L 70.992344 174.45528 
L 79.672344 172.53816 
L 88.352344 169.716866 
L 97.032344 166.500568 
L 105.712344 163.222423 
L 114.392344 160.587644 
L 123.072344 158.380416 
L 131.752344 155.861164 
L 140.432344 153.346748 
L 149.112344 152.197055 
L 157.792344 152.69045 
L 166.472344 152.777023 
L 175.152344 150.584923 
L 183.832344 147.889292 
L 192.512344 147.694879 
L 201.192344 150.408088 
L 209.872344 154.293699 
L 218.552344 157.591579 
L 227.232344 161.743698 
L 235.912344 167.62579 
L 244.592344 170.273239 
L 253.272344 164.376796 
L 261.952344 152.283083 
L 270.632344 141.713362 
L 279.312344 138.508825 
L 287.992344 141.625514 
L 296.672344 141.721816 
L 305.352344 130.91662 
L 314.032344 114.882069 
L 322.712344 107.000509 
L 331.392344 112.310683 
L 340.072344 125.125659 
L 348.752344 135.973384 
L 357.432344 142.141542 
L 366.112344 148.785844 
L 374.792344 150.755146 
L 383.472344 150.584511 
L 392.152344 160.258473 
L 400.832344 167.870733 
L 409.512344 165.029472 
L 418.192344 160.691589 
L 426.872344 152.99535 
L 435.552344 140.285512 
L 444.232344 135.360096 
L 452.912344 146.271466 
L 461.592344 167.015209 
L 470.272344 183.653889 
L 478.952344 200.830856 
L 487.632344 223.489915 
L 496.312344 241.695717 
L 504.992344 261.309996 
L 513.672344 270.037581 
L 522.352344 277.518754 
L 531.032344 310.980823 
L 539.712344 360.851912 
L 548.392344 395.867048 
L 557.072344 422.242412 
L 565.752344 436.190815 
L 574.432344 404.382996 
L 583.112344 355.105195 
L 591.792344 382.311561 
L 600.472344 470.884368 
L 609.152344 538.492196 
L 617.832344 542.614673 
L 626.512344 506.020737 
L 635.192344 447.93293 
L 643.872344 385.003095 
L 652.552344 383.92061 
L 661.232344 441.022997 
L 669.912344 585.582623 
L 678.592344 808.155153 
L 687.272344 961.438289 
L 695.952344 977.392735 
L 704.632344 854.842143 
L 713.312344 654.103428 
L 721.992344 521.746573 
L 730.672344 757.491635 
L 739.352344 1983.844473 
L 748.032344 2916.341984 
L 756.712344 193.169057 
L 765.392344 -920.025875 
L 774.072344 42.829264 
L 782.752344 501.31699 
L 791.432344 528.97126 
L 800.112344 467.079074 
L 808.792344 397.571995 
L 817.472344 339.320359 
L 826.152344 295.663332 
L 826.152344 148.310487 
L 826.152344 148.310487 
L 817.472344 116.487921 
L 808.792344 53.533783 
L 800.112344 -75.72772 
L 791.432344 -357.964282 
L 782.752344 -1007.375069 
L 774.072344 -2281.243701 
L 765.392344 -3790.760451 
L 756.712344 -6853.654391 
L 748.032344 -10294.620089 
L 739.352344 -5565.306576 
L 730.672344 -1982.943053 
L 721.992344 -537.648735 
L 713.312344 204.012425 
L 704.632344 564.478945 
L 695.952344 643.152532 
L 687.272344 538.7536 
L 678.592344 369.81561 
L 669.912344 191.832008 
L 661.232344 6.756009 
L 652.552344 -61.130537 
L 643.872344 26.03887 
L 635.192344 175.243715 
L 626.512344 329.919394 
L 617.832344 387.594724 
L 609.152344 331.570453 
L 600.472344 220.622074 
L 591.792344 114.315589 
L 583.112344 70.928939 
L 574.432344 73.139555 
L 565.752344 88.469827 
L 557.072344 95.405153 
L 548.392344 89.023084 
L 539.712344 74.573308 
L 531.032344 59.727256 
L 522.352344 64.442041 
L 513.672344 104.713584 
L 504.992344 154.345756 
L 496.312344 171.40478 
L 487.632344 148.802739 
L 478.952344 126.895153 
L 470.272344 100.239479 
L 461.592344 59.830837 
L 452.912344 31.599739 
L 444.232344 40.957972 
L 435.552344 74.379401 
L 426.872344 95.412856 
L 418.192344 100.509712 
L 409.512344 102.518784 
L 400.832344 98.858393 
L 392.152344 90.587311 
L 383.472344 86.966944 
L 374.792344 88.81882 
L 366.112344 91.678259 
L 357.432344 89.514253 
L 348.752344 82.862591 
L 340.072344 77.012647 
L 331.392344 72.039224 
L 322.712344 70.116281 
L 314.032344 76.529714 
L 305.352344 88.956466 
L 296.672344 96.356286 
L 287.992344 96.541991 
L 279.312344 96.844397 
L 270.632344 101.620308 
L 261.952344 113.609067 
L 253.272344 130.000712 
L 244.592344 140.29023 
L 235.912344 141.090136 
L 227.232344 139.128801 
L 218.552344 138.598399 
L 209.872344 137.815613 
L 201.192344 134.938362 
L 192.512344 132.365502 
L 183.832344 134.224012 
L 175.152344 139.153143 
L 166.472344 142.554443 
L 157.792344 142.932441 
L 149.112344 142.417708 
L 140.432344 142.945228 
L 131.752344 144.350572 
L 123.072344 146.315304 
L 114.392344 148.811796 
L 105.712344 151.342023 
L 97.032344 153.361537 
L 88.352344 154.689381 
L 79.672344 155.41113 
L 70.992344 155.158358 
L 62.312344 151.574905 
L 53.632344 139.316752 
L 44.952344 114.091578 
L 36.272344 86.103718 
L 27.592344 63.90914 
L 18.912344 39.634931 
L 10.232344 -1.034475 
L 1.552344 -67.508934 
L -7.127656 -162.106095 
L -15.807656 -272.594106 
L -24.487656 -354.368785 
L -33.167656 -348.681114 
z
" style="fill:#7390d9;fill-opacity:0.25;stroke:#7390d9;stroke-opacity:0.25;"/>
   </g>
   <g id="PolyCollection_2">
    <path clip-path="url(#pa79e96ecbe)" d="M -33.167656 -565.53768 
L -33.167656 -87.044709 
L -24.487656 -67.55816 
L -15.807656 -20.432333 
L -7.127656 35.511298 
L 1.552344 90.130388 
L 10.232344 135.972967 
L 18.912344 166.853463 
L 27.592344 181.077568 
L 36.272344 181.842204 
L 44.952344 175.2194 
L 53.632344 169.472499 
L 62.312344 164.356568 
L 70.992344 156.816519 
L 79.672344 146.493618 
L 88.352344 136.435668 
L 97.032344 131.833259 
L 105.712344 133.55329 
L 114.392344 136.980159 
L 123.072344 140.343987 
L 131.752344 144.771259 
L 140.432344 149.308192 
L 149.112344 152.069082 
L 157.792344 154.707614 
L 166.472344 159.250544 
L 175.152344 164.209763 
L 183.832344 168.212741 
L 192.512344 172.23716 
L 201.192344 177.453936 
L 209.872344 183.576447 
L 218.552344 190.037065 
L 227.232344 194.48294 
L 235.912344 194.804973 
L 244.592344 194.073223 
L 253.272344 195.684826 
L 261.952344 198.369785 
L 270.632344 200.173502 
L 279.312344 199.1307 
L 287.992344 196.106972 
L 296.672344 197.443431 
L 305.352344 204.979574 
L 314.032344 211.606729 
L 322.712344 213.872624 
L 331.392344 213.194331 
L 340.072344 211.97882 
L 348.752344 220.472859 
L 357.432344 242.925729 
L 366.112344 255.425676 
L 374.792344 241.698542 
L 383.472344 221.141401 
L 392.152344 219.045463 
L 400.832344 229.866629 
L 409.512344 233.644019 
L 418.192344 221.337578 
L 426.872344 199.980416 
L 435.552344 188.825952 
L 444.232344 225.349866 
L 452.912344 302.244234 
L 461.592344 362.505107 
L 470.272344 374.645269 
L 478.952344 361.344786 
L 487.632344 363.738448 
L 496.312344 373.952989 
L 504.992344 365.036306 
L 513.672344 322.275414 
L 522.352344 278.245487 
L 531.032344 235.418059 
L 539.712344 211.004616 
L 548.392344 256.183822 
L 557.072344 355.2323 
L 565.752344 488.481407 
L 574.432344 596.147441 
L 583.112344 613.411703 
L 591.792344 546.191479 
L 600.472344 543.725364 
L 609.152344 645.596313 
L 617.832344 752.951136 
L 626.512344 803.180702 
L 635.192344 762.137157 
L 643.872344 613.249327 
L 652.552344 398.154091 
L 661.232344 267.212024 
L 669.912344 302.453159 
L 678.592344 417.657787 
L 687.272344 558.391404 
L 695.952344 607.378883 
L 704.632344 642.966933 
L 713.312344 653.413033 
L 721.992344 651.358838 
L 730.672344 686.667038 
L 739.352344 795.013179 
L 748.032344 855.393013 
L 756.712344 801.521598 
L 765.392344 679.025153 
L 774.072344 696.350833 
L 782.752344 642.039125 
L 791.432344 540.010101 
L 800.112344 441.974635 
L 808.792344 371.918731 
L 817.472344 329.922406 
L 826.152344 307.509942 
L 826.152344 -1.181675 
L 826.152344 -1.181675 
L 817.472344 -46.071016 
L 808.792344 -62.886142 
L 800.112344 -28.301733 
L 791.432344 69.953252 
L 782.752344 219.193442 
L 774.072344 385.479559 
L 765.392344 539.822099 
L 756.712344 517.885109 
L 748.032344 498.976679 
L 739.352344 525.997631 
L 730.672344 532.265344 
L 721.992344 421.283226 
L 713.312344 342.513665 
L 704.632344 362.73534 
L 695.952344 359.365095 
L 687.272344 166.788263 
L 678.592344 -156.533946 
L 669.912344 -543.472509 
L 661.232344 -602.042349 
L 652.552344 -69.270069 
L 643.872344 390.371835 
L 635.192344 558.727005 
L 626.512344 533.317776 
L 617.832344 361.781361 
L 609.152344 143.751795 
L 600.472344 33.401061 
L 591.792344 99.603869 
L 583.112344 236.366643 
L 574.432344 253.803787 
L 565.752344 106.171653 
L 557.072344 -85.352064 
L 548.392344 -151.585215 
L 539.712344 -126.319976 
L 531.032344 -84.803496 
L 522.352344 27.033494 
L 513.672344 105.566183 
L 504.992344 74.896239 
L 496.312344 44.937169 
L 487.632344 75.263266 
L 478.952344 124.704738 
L 470.272344 130.902292 
L 461.592344 98.119843 
L 452.912344 66.225052 
L 444.232344 55.237001 
L 435.552344 62.517884 
L 426.872344 93.220781 
L 418.192344 135.752381 
L 409.512344 165.077294 
L 400.832344 178.025352 
L 392.152344 172.074505 
L 383.472344 157.240054 
L 374.792344 154.03551 
L 366.112344 158.137157 
L 357.432344 156.76357 
L 348.752344 153.433617 
L 340.072344 154.75243 
L 331.392344 164.326462 
L 322.712344 174.380733 
L 314.032344 177.039875 
L 305.352344 174.439296 
L 296.672344 169.94271 
L 287.992344 167.265622 
L 279.312344 171.123811 
L 270.632344 176.599001 
L 261.952344 175.326793 
L 253.272344 169.622694 
L 244.592344 167.620997 
L 235.912344 169.859982 
L 227.232344 170.515684 
L 218.552344 166.558396 
L 209.872344 160.632463 
L 201.192344 156.351349 
L 192.512344 153.90162 
L 183.832344 151.654825 
L 175.152344 149.05077 
L 166.472344 146.146233 
L 157.792344 143.664272 
L 149.112344 141.540028 
L 140.432344 138.144415 
L 131.752344 132.542621 
L 123.072344 126.61214 
L 114.392344 122.662418 
L 105.712344 121.307677 
L 97.032344 122.438492 
L 88.352344 124.460662 
L 79.672344 126.36115 
L 70.992344 128.149454 
L 62.312344 130.828294 
L 53.632344 135.7587 
L 44.952344 139.923773 
L 36.272344 135.862727 
L 27.592344 117.060846 
L 18.912344 72.096541 
L 10.232344 -8.201287 
L 1.552344 -125.872749 
L -7.127656 -273.757905 
L -15.807656 -427.624352 
L -24.487656 -541.111937 
L -33.167656 -565.53768 
z
" style="fill:#57a773;fill-opacity:0.25;stroke:#57a773;stroke-opacity:0.25;"/>
   </g>
   <g id="matplotlib.axis_1">
    <g id="xtick_1">
     <g id="line2d_1">
      <defs>
       <path d="M 0 0 
L 0 6 
" id="m28238580d7" style="stroke:#262626;"/>
      </defs>
      <g>
       <use style="fill:#262626;stroke:#262626;" x="70.992344" xlink:href="#m28238580d7" y="285"/>
      </g>
     </g>
     <g id="text_1">
      <!-- 5 -->
      <defs>
       <path d="M 10.796875 72.90625 
L 49.515625 72.90625 
L 49.515625 64.59375 
L 19.828125 64.59375 
L 19.828125 46.734375 
Q 21.96875 47.46875 24.109375 47.828125 
Q 26.265625 48.1875 28.421875 48.1875 
Q 40.625 48.1875 47.75 41.5 
Q 54.890625 34.8125 54.890625 23.390625 
Q 54.890625 11.625 47.5625 5.09375 
Q 40.234375 -1.421875 26.90625 -1.421875 
Q 22.3125 -1.421875 17.546875 -0.640625 
Q 12.796875 0.140625 7.71875 1.703125 
L 7.71875 11.625 
Q 12.109375 9.234375 16.796875 8.0625 
Q 21.484375 6.890625 26.703125 6.890625 
Q 35.15625 6.890625 40.078125 11.328125 
Q 45.015625 15.765625 45.015625 23.390625 
Q 45.015625 31 40.078125 35.4375 
Q 35.15625 39.890625 26.703125 39.890625 
Q 22.75 39.890625 18.8125 39.015625 
Q 14.890625 38.140625 10.796875 36.28125 
z
" id="DejaVuSans-35"/>
      </defs>
      <g style="fill:#262626;" transform="translate(66.856719 307.877969)scale(0.13 -0.13)">
       <use xlink:href="#DejaVuSans-35"/>
      </g>
     </g>
    </g>
    <g id="xtick_2">
     <g id="line2d_2">
      <g>
       <use style="fill:#262626;stroke:#262626;" x="136.092344" xlink:href="#m28238580d7" y="285"/>
      </g>
     </g>
     <g id="text_2">
      <!-- 10 -->
      <defs>
       <path d="M 12.40625 8.296875 
L 28.515625 8.296875 
L 28.515625 63.921875 
L 10.984375 60.40625 
L 10.984375 69.390625 
L 28.421875 72.90625 
L 38.28125 72.90625 
L 38.28125 8.296875 
L 54.390625 8.296875 
L 54.390625 0 
L 12.40625 0 
z
" id="DejaVuSans-31"/>
       <path d="M 31.78125 66.40625 
Q 24.171875 66.40625 20.328125 58.90625 
Q 16.5 51.421875 16.5 36.375 
Q 16.5 21.390625 20.328125 13.890625 
Q 24.171875 6.390625 31.78125 6.390625 
Q 39.453125 6.390625 43.28125 13.890625 
Q 47.125 21.390625 47.125 36.375 
Q 47.125 51.421875 43.28125 58.90625 
Q 39.453125 66.40625 31.78125 66.40625 
z
M 31.78125 74.21875 
Q 44.046875 74.21875 50.515625 64.515625 
Q 56.984375 54.828125 56.984375 36.375 
Q 56.984375 17.96875 50.515625 8.265625 
Q 44.046875 -1.421875 31.78125 -1.421875 
Q 19.53125 -1.421875 13.0625 8.265625 
Q 6.59375 17.96875 6.59375 36.375 
Q 6.59375 54.828125 13.0625 64.515625 
Q 19.53125 74.21875 31.78125 74.21875 
z
" id="DejaVuSans-30"/>
      </defs>
      <g style="fill:#262626;" transform="translate(127.821094 307.877969)scale(0.13 -0.13)">
       <use xlink:href="#DejaVuSans-31"/>
       <use x="63.623047" xlink:href="#DejaVuSans-30"/>
      </g>
     </g>
    </g>
    <g id="xtick_3">
     <g id="line2d_3">
      <g>
       <use style="fill:#262626;stroke:#262626;" x="201.192344" xlink:href="#m28238580d7" y="285"/>
      </g>
     </g>
     <g id="text_3">
      <!-- 15 -->
      <g style="fill:#262626;" transform="translate(192.921094 307.877969)scale(0.13 -0.13)">
       <use xlink:href="#DejaVuSans-31"/>
       <use x="63.623047" xlink:href="#DejaVuSans-35"/>
      </g>
     </g>
    </g>
    <g id="xtick_4">
     <g id="line2d_4">
      <g>
       <use style="fill:#262626;stroke:#262626;" x="266.292344" xlink:href="#m28238580d7" y="285"/>
      </g>
     </g>
     <g id="text_4">
      <!-- 20 -->
      <defs>
       <path d="M 19.1875 8.296875 
L 53.609375 8.296875 
L 53.609375 0 
L 7.328125 0 
L 7.328125 8.296875 
Q 12.9375 14.109375 22.625 23.890625 
Q 32.328125 33.6875 34.8125 36.53125 
Q 39.546875 41.84375 41.421875 45.53125 
Q 43.3125 49.21875 43.3125 52.78125 
Q 43.3125 58.59375 39.234375 62.25 
Q 35.15625 65.921875 28.609375 65.921875 
Q 23.96875 65.921875 18.8125 64.3125 
Q 13.671875 62.703125 7.8125 59.421875 
L 7.8125 69.390625 
Q 13.765625 71.78125 18.9375 73 
Q 24.125 74.21875 28.421875 74.21875 
Q 39.75 74.21875 46.484375 68.546875 
Q 53.21875 62.890625 53.21875 53.421875 
Q 53.21875 48.921875 51.53125 44.890625 
Q 49.859375 40.875 45.40625 35.40625 
Q 44.1875 33.984375 37.640625 27.21875 
Q 31.109375 20.453125 19.1875 8.296875 
z
" id="DejaVuSans-32"/>
      </defs>
      <g style="fill:#262626;" transform="translate(258.021094 307.877969)scale(0.13 -0.13)">
       <use xlink:href="#DejaVuSans-32"/>
       <use x="63.623047" xlink:href="#DejaVuSans-30"/>
      </g>
     </g>
    </g>
    <g id="xtick_5">
     <g id="line2d_5">
      <g>
       <use style="fill:#262626;stroke:#262626;" x="331.392344" xlink:href="#m28238580d7" y="285"/>
      </g>
     </g>
     <g id="text_5">
      <!-- 25 -->
      <g style="fill:#262626;" transform="translate(323.121094 307.877969)scale(0.13 -0.13)">
       <use xlink:href="#DejaVuSans-32"/>
       <use x="63.623047" xlink:href="#DejaVuSans-35"/>
      </g>
     </g>
    </g>
    <g id="xtick_6">
     <g id="line2d_6">
      <g>
       <use style="fill:#262626;stroke:#262626;" x="396.492344" xlink:href="#m28238580d7" y="285"/>
      </g>
     </g>
     <g id="text_6">
      <!-- 30 -->
      <defs>
       <path d="M 40.578125 39.3125 
Q 47.65625 37.796875 51.625 33 
Q 55.609375 28.21875 55.609375 21.1875 
Q 55.609375 10.40625 48.1875 4.484375 
Q 40.765625 -1.421875 27.09375 -1.421875 
Q 22.515625 -1.421875 17.65625 -0.515625 
Q 12.796875 0.390625 7.625 2.203125 
L 7.625 11.71875 
Q 11.71875 9.328125 16.59375 8.109375 
Q 21.484375 6.890625 26.8125 6.890625 
Q 36.078125 6.890625 40.9375 10.546875 
Q 45.796875 14.203125 45.796875 21.1875 
Q 45.796875 27.640625 41.28125 31.265625 
Q 36.765625 34.90625 28.71875 34.90625 
L 20.21875 34.90625 
L 20.21875 43.015625 
L 29.109375 43.015625 
Q 36.375 43.015625 40.234375 45.921875 
Q 44.09375 48.828125 44.09375 54.296875 
Q 44.09375 59.90625 40.109375 62.90625 
Q 36.140625 65.921875 28.71875 65.921875 
Q 24.65625 65.921875 20.015625 65.03125 
Q 15.375 64.15625 9.8125 62.3125 
L 9.8125 71.09375 
Q 15.4375 72.65625 20.34375 73.4375 
Q 25.25 74.21875 29.59375 74.21875 
Q 40.828125 74.21875 47.359375 69.109375 
Q 53.90625 64.015625 53.90625 55.328125 
Q 53.90625 49.265625 50.4375 45.09375 
Q 46.96875 40.921875 40.578125 39.3125 
z
" id="DejaVuSans-33"/>
      </defs>
      <g style="fill:#262626;" transform="translate(388.221094 307.877969)scale(0.13 -0.13)">
       <use xlink:href="#DejaVuSans-33"/>
       <use x="63.623047" xlink:href="#DejaVuSans-30"/>
      </g>
     </g>
    </g>
    <g id="xtick_7">
     <g id="line2d_7">
      <g>
       <use style="fill:#262626;stroke:#262626;" x="461.592344" xlink:href="#m28238580d7" y="285"/>
      </g>
     </g>
     <g id="text_7">
      <!-- 35 -->
      <g style="fill:#262626;" transform="translate(453.321094 307.877969)scale(0.13 -0.13)">
       <use xlink:href="#DejaVuSans-33"/>
       <use x="63.623047" xlink:href="#DejaVuSans-35"/>
      </g>
     </g>
    </g>
    <g id="text_8">
     <!-- Document Similarity (%) -->
     <defs>
      <path d="M 19.671875 64.796875 
L 19.671875 8.109375 
L 31.59375 8.109375 
Q 46.6875 8.109375 53.6875 14.9375 
Q 60.6875 21.78125 60.6875 36.53125 
Q 60.6875 51.171875 53.6875 57.984375 
Q 46.6875 64.796875 31.59375 64.796875 
z
M 9.8125 72.90625 
L 30.078125 72.90625 
Q 51.265625 72.90625 61.171875 64.09375 
Q 71.09375 55.28125 71.09375 36.53125 
Q 71.09375 17.671875 61.125 8.828125 
Q 51.171875 0 30.078125 0 
L 9.8125 0 
z
" id="DejaVuSans-44"/>
      <path d="M 30.609375 48.390625 
Q 23.390625 48.390625 19.1875 42.75 
Q 14.984375 37.109375 14.984375 27.296875 
Q 14.984375 17.484375 19.15625 11.84375 
Q 23.34375 6.203125 30.609375 6.203125 
Q 37.796875 6.203125 41.984375 11.859375 
Q 46.1875 17.53125 46.1875 27.296875 
Q 46.1875 37.015625 41.984375 42.703125 
Q 37.796875 48.390625 30.609375 48.390625 
z
M 30.609375 56 
Q 42.328125 56 49.015625 48.375 
Q 55.71875 40.765625 55.71875 27.296875 
Q 55.71875 13.875 49.015625 6.21875 
Q 42.328125 -1.421875 30.609375 -1.421875 
Q 18.84375 -1.421875 12.171875 6.21875 
Q 5.515625 13.875 5.515625 27.296875 
Q 5.515625 40.765625 12.171875 48.375 
Q 18.84375 56 30.609375 56 
z
" id="DejaVuSans-6f"/>
      <path d="M 48.78125 52.59375 
L 48.78125 44.1875 
Q 44.96875 46.296875 41.140625 47.34375 
Q 37.3125 48.390625 33.40625 48.390625 
Q 24.65625 48.390625 19.8125 42.84375 
Q 14.984375 37.3125 14.984375 27.296875 
Q 14.984375 17.28125 19.8125 11.734375 
Q 24.65625 6.203125 33.40625 6.203125 
Q 37.3125 6.203125 41.140625 7.25 
Q 44.96875 8.296875 48.78125 10.40625 
L 48.78125 2.09375 
Q 45.015625 0.34375 40.984375 -0.53125 
Q 36.96875 -1.421875 32.421875 -1.421875 
Q 20.0625 -1.421875 12.78125 6.34375 
Q 5.515625 14.109375 5.515625 27.296875 
Q 5.515625 40.671875 12.859375 48.328125 
Q 20.21875 56 33.015625 56 
Q 37.15625 56 41.109375 55.140625 
Q 45.0625 54.296875 48.78125 52.59375 
z
" id="DejaVuSans-63"/>
      <path d="M 8.5 21.578125 
L 8.5 54.6875 
L 17.484375 54.6875 
L 17.484375 21.921875 
Q 17.484375 14.15625 20.5 10.265625 
Q 23.53125 6.390625 29.59375 6.390625 
Q 36.859375 6.390625 41.078125 11.03125 
Q 45.3125 15.671875 45.3125 23.6875 
L 45.3125 54.6875 
L 54.296875 54.6875 
L 54.296875 0 
L 45.3125 0 
L 45.3125 8.40625 
Q 42.046875 3.421875 37.71875 1 
Q 33.40625 -1.421875 27.6875 -1.421875 
Q 18.265625 -1.421875 13.375 4.4375 
Q 8.5 10.296875 8.5 21.578125 
z
M 31.109375 56 
z
" id="DejaVuSans-75"/>
      <path d="M 52 44.1875 
Q 55.375 50.25 60.0625 53.125 
Q 64.75 56 71.09375 56 
Q 79.640625 56 84.28125 50.015625 
Q 88.921875 44.046875 88.921875 33.015625 
L 88.921875 0 
L 79.890625 0 
L 79.890625 32.71875 
Q 79.890625 40.578125 77.09375 44.375 
Q 74.3125 48.1875 68.609375 48.1875 
Q 61.625 48.1875 57.5625 43.546875 
Q 53.515625 38.921875 53.515625 30.90625 
L 53.515625 0 
L 44.484375 0 
L 44.484375 32.71875 
Q 44.484375 40.625 41.703125 44.40625 
Q 38.921875 48.1875 33.109375 48.1875 
Q 26.21875 48.1875 22.15625 43.53125 
Q 18.109375 38.875 18.109375 30.90625 
L 18.109375 0 
L 9.078125 0 
L 9.078125 54.6875 
L 18.109375 54.6875 
L 18.109375 46.1875 
Q 21.1875 51.21875 25.484375 53.609375 
Q 29.78125 56 35.6875 56 
Q 41.65625 56 45.828125 52.96875 
Q 50 49.953125 52 44.1875 
z
" id="DejaVuSans-6d"/>
      <path d="M 56.203125 29.59375 
L 56.203125 25.203125 
L 14.890625 25.203125 
Q 15.484375 15.921875 20.484375 11.0625 
Q 25.484375 6.203125 34.421875 6.203125 
Q 39.59375 6.203125 44.453125 7.46875 
Q 49.3125 8.734375 54.109375 11.28125 
L 54.109375 2.78125 
Q 49.265625 0.734375 44.1875 -0.34375 
Q 39.109375 -1.421875 33.890625 -1.421875 
Q 20.796875 -1.421875 13.15625 6.1875 
Q 5.515625 13.8125 5.515625 26.8125 
Q 5.515625 40.234375 12.765625 48.109375 
Q 20.015625 56 32.328125 56 
Q 43.359375 56 49.78125 48.890625 
Q 56.203125 41.796875 56.203125 29.59375 
z
M 47.21875 32.234375 
Q 47.125 39.59375 43.09375 43.984375 
Q 39.0625 48.390625 32.421875 48.390625 
Q 24.90625 48.390625 20.390625 44.140625 
Q 15.875 39.890625 15.1875 32.171875 
z
" id="DejaVuSans-65"/>
      <path d="M 54.890625 33.015625 
L 54.890625 0 
L 45.90625 0 
L 45.90625 32.71875 
Q 45.90625 40.484375 42.875 44.328125 
Q 39.84375 48.1875 33.796875 48.1875 
Q 26.515625 48.1875 22.3125 43.546875 
Q 18.109375 38.921875 18.109375 30.90625 
L 18.109375 0 
L 9.078125 0 
L 9.078125 54.6875 
L 18.109375 54.6875 
L 18.109375 46.1875 
Q 21.34375 51.125 25.703125 53.5625 
Q 30.078125 56 35.796875 56 
Q 45.21875 56 50.046875 50.171875 
Q 54.890625 44.34375 54.890625 33.015625 
z
" id="DejaVuSans-6e"/>
      <path d="M 18.3125 70.21875 
L 18.3125 54.6875 
L 36.8125 54.6875 
L 36.8125 47.703125 
L 18.3125 47.703125 
L 18.3125 18.015625 
Q 18.3125 11.328125 20.140625 9.421875 
Q 21.96875 7.515625 27.59375 7.515625 
L 36.8125 7.515625 
L 36.8125 0 
L 27.59375 0 
Q 17.1875 0 13.234375 3.875 
Q 9.28125 7.765625 9.28125 18.015625 
L 9.28125 47.703125 
L 2.6875 47.703125 
L 2.6875 54.6875 
L 9.28125 54.6875 
L 9.28125 70.21875 
z
" id="DejaVuSans-74"/>
      <path id="DejaVuSans-20"/>
      <path d="M 53.515625 70.515625 
L 53.515625 60.890625 
Q 47.90625 63.578125 42.921875 64.890625 
Q 37.9375 66.21875 33.296875 66.21875 
Q 25.25 66.21875 20.875 63.09375 
Q 16.5 59.96875 16.5 54.203125 
Q 16.5 49.359375 19.40625 46.890625 
Q 22.3125 44.4375 30.421875 42.921875 
L 36.375 41.703125 
Q 47.40625 39.59375 52.65625 34.296875 
Q 57.90625 29 57.90625 20.125 
Q 57.90625 9.515625 50.796875 4.046875 
Q 43.703125 -1.421875 29.984375 -1.421875 
Q 24.8125 -1.421875 18.96875 -0.25 
Q 13.140625 0.921875 6.890625 3.21875 
L 6.890625 13.375 
Q 12.890625 10.015625 18.65625 8.296875 
Q 24.421875 6.59375 29.984375 6.59375 
Q 38.421875 6.59375 43.015625 9.90625 
Q 47.609375 13.234375 47.609375 19.390625 
Q 47.609375 24.75 44.3125 27.78125 
Q 41.015625 30.8125 33.5 32.328125 
L 27.484375 33.5 
Q 16.453125 35.6875 11.515625 40.375 
Q 6.59375 45.0625 6.59375 53.421875 
Q 6.59375 63.09375 13.40625 68.65625 
Q 20.21875 74.21875 32.171875 74.21875 
Q 37.3125 74.21875 42.625 73.28125 
Q 47.953125 72.359375 53.515625 70.515625 
z
" id="DejaVuSans-53"/>
      <path d="M 9.421875 54.6875 
L 18.40625 54.6875 
L 18.40625 0 
L 9.421875 0 
z
M 9.421875 75.984375 
L 18.40625 75.984375 
L 18.40625 64.59375 
L 9.421875 64.59375 
z
" id="DejaVuSans-69"/>
      <path d="M 9.421875 75.984375 
L 18.40625 75.984375 
L 18.40625 0 
L 9.421875 0 
z
" id="DejaVuSans-6c"/>
      <path d="M 34.28125 27.484375 
Q 23.390625 27.484375 19.1875 25 
Q 14.984375 22.515625 14.984375 16.5 
Q 14.984375 11.71875 18.140625 8.90625 
Q 21.296875 6.109375 26.703125 6.109375 
Q 34.1875 6.109375 38.703125 11.40625 
Q 43.21875 16.703125 43.21875 25.484375 
L 43.21875 27.484375 
z
M 52.203125 31.203125 
L 52.203125 0 
L 43.21875 0 
L 43.21875 8.296875 
Q 40.140625 3.328125 35.546875 0.953125 
Q 30.953125 -1.421875 24.3125 -1.421875 
Q 15.921875 -1.421875 10.953125 3.296875 
Q 6 8.015625 6 15.921875 
Q 6 25.140625 12.171875 29.828125 
Q 18.359375 34.515625 30.609375 34.515625 
L 43.21875 34.515625 
L 43.21875 35.40625 
Q 43.21875 41.609375 39.140625 45 
Q 35.0625 48.390625 27.6875 48.390625 
Q 23 48.390625 18.546875 47.265625 
Q 14.109375 46.140625 10.015625 43.890625 
L 10.015625 52.203125 
Q 14.9375 54.109375 19.578125 55.046875 
Q 24.21875 56 28.609375 56 
Q 40.484375 56 46.34375 49.84375 
Q 52.203125 43.703125 52.203125 31.203125 
z
" id="DejaVuSans-61"/>
      <path d="M 41.109375 46.296875 
Q 39.59375 47.171875 37.8125 47.578125 
Q 36.03125 48 33.890625 48 
Q 26.265625 48 22.1875 43.046875 
Q 18.109375 38.09375 18.109375 28.8125 
L 18.109375 0 
L 9.078125 0 
L 9.078125 54.6875 
L 18.109375 54.6875 
L 18.109375 46.1875 
Q 20.953125 51.171875 25.484375 53.578125 
Q 30.03125 56 36.53125 56 
Q 37.453125 56 38.578125 55.875 
Q 39.703125 55.765625 41.0625 55.515625 
z
" id="DejaVuSans-72"/>
      <path d="M 32.171875 -5.078125 
Q 28.375 -14.84375 24.75 -17.8125 
Q 21.140625 -20.796875 15.09375 -20.796875 
L 7.90625 -20.796875 
L 7.90625 -13.28125 
L 13.1875 -13.28125 
Q 16.890625 -13.28125 18.9375 -11.515625 
Q 21 -9.765625 23.484375 -3.21875 
L 25.09375 0.875 
L 2.984375 54.6875 
L 12.5 54.6875 
L 29.59375 11.921875 
L 46.6875 54.6875 
L 56.203125 54.6875 
z
" id="DejaVuSans-79"/>
      <path d="M 31 75.875 
Q 24.46875 64.65625 21.28125 53.65625 
Q 18.109375 42.671875 18.109375 31.390625 
Q 18.109375 20.125 21.3125 9.0625 
Q 24.515625 -2 31 -13.1875 
L 23.1875 -13.1875 
Q 15.875 -1.703125 12.234375 9.375 
Q 8.59375 20.453125 8.59375 31.390625 
Q 8.59375 42.28125 12.203125 53.3125 
Q 15.828125 64.359375 23.1875 75.875 
z
" id="DejaVuSans-28"/>
      <path d="M 72.703125 32.078125 
Q 68.453125 32.078125 66.03125 28.46875 
Q 63.625 24.859375 63.625 18.40625 
Q 63.625 12.0625 66.03125 8.421875 
Q 68.453125 4.78125 72.703125 4.78125 
Q 76.859375 4.78125 79.265625 8.421875 
Q 81.6875 12.0625 81.6875 18.40625 
Q 81.6875 24.8125 79.265625 28.4375 
Q 76.859375 32.078125 72.703125 32.078125 
z
M 72.703125 38.28125 
Q 80.421875 38.28125 84.953125 32.90625 
Q 89.5 27.546875 89.5 18.40625 
Q 89.5 9.28125 84.9375 3.921875 
Q 80.375 -1.421875 72.703125 -1.421875 
Q 64.890625 -1.421875 60.34375 3.921875 
Q 55.8125 9.28125 55.8125 18.40625 
Q 55.8125 27.59375 60.375 32.9375 
Q 64.9375 38.28125 72.703125 38.28125 
z
M 22.3125 68.015625 
Q 18.109375 68.015625 15.6875 64.375 
Q 13.28125 60.75 13.28125 54.390625 
Q 13.28125 47.953125 15.671875 44.328125 
Q 18.0625 40.71875 22.3125 40.71875 
Q 26.5625 40.71875 28.96875 44.328125 
Q 31.390625 47.953125 31.390625 54.390625 
Q 31.390625 60.6875 28.953125 64.34375 
Q 26.515625 68.015625 22.3125 68.015625 
z
M 66.40625 74.21875 
L 74.21875 74.21875 
L 28.609375 -1.421875 
L 20.796875 -1.421875 
z
M 22.3125 74.21875 
Q 30.03125 74.21875 34.609375 68.875 
Q 39.203125 63.53125 39.203125 54.390625 
Q 39.203125 45.171875 34.640625 39.84375 
Q 30.078125 34.515625 22.3125 34.515625 
Q 14.546875 34.515625 10.03125 39.859375 
Q 5.515625 45.21875 5.515625 54.390625 
Q 5.515625 63.484375 10.046875 68.84375 
Q 14.59375 74.21875 22.3125 74.21875 
z
" id="DejaVuSans-25"/>
      <path d="M 8.015625 75.875 
L 15.828125 75.875 
Q 23.140625 64.359375 26.78125 53.3125 
Q 30.421875 42.28125 30.421875 31.390625 
Q 30.421875 20.453125 26.78125 9.375 
Q 23.140625 -1.703125 15.828125 -13.1875 
L 8.015625 -13.1875 
Q 14.5 -2 17.703125 9.0625 
Q 20.90625 20.125 20.90625 31.390625 
Q 20.90625 42.671875 17.703125 53.65625 
Q 14.5 64.65625 8.015625 75.875 
z
" id="DejaVuSans-29"/>
     </defs>
     <g style="fill:#262626;" transform="translate(143.545469 329.778437)scale(0.2 -0.2)">
      <use xlink:href="#DejaVuSans-44"/>
      <use x="77.001953" xlink:href="#DejaVuSans-6f"/>
      <use x="138.183594" xlink:href="#DejaVuSans-63"/>
      <use x="193.164062" xlink:href="#DejaVuSans-75"/>
      <use x="256.542969" xlink:href="#DejaVuSans-6d"/>
      <use x="353.955078" xlink:href="#DejaVuSans-65"/>
      <use x="415.478516" xlink:href="#DejaVuSans-6e"/>
      <use x="478.857422" xlink:href="#DejaVuSans-74"/>
      <use x="518.066406" xlink:href="#DejaVuSans-20"/>
      <use x="549.853516" xlink:href="#DejaVuSans-53"/>
      <use x="613.330078" xlink:href="#DejaVuSans-69"/>
      <use x="641.113281" xlink:href="#DejaVuSans-6d"/>
      <use x="738.525391" xlink:href="#DejaVuSans-69"/>
      <use x="766.308594" xlink:href="#DejaVuSans-6c"/>
      <use x="794.091797" xlink:href="#DejaVuSans-61"/>
      <use x="855.371094" xlink:href="#DejaVuSans-72"/>
      <use x="896.484375" xlink:href="#DejaVuSans-69"/>
      <use x="924.267578" xlink:href="#DejaVuSans-74"/>
      <use x="963.476562" xlink:href="#DejaVuSans-79"/>
      <use x="1022.65625" xlink:href="#DejaVuSans-20"/>
      <use x="1054.443359" xlink:href="#DejaVuSans-28"/>
      <use x="1093.457031" xlink:href="#DejaVuSans-25"/>
      <use x="1188.476562" xlink:href="#DejaVuSans-29"/>
     </g>
    </g>
   </g>
   <g id="matplotlib.axis_2">
    <g id="ytick_1">
     <g id="line2d_8">
      <defs>
       <path d="M 0 0 
L -6 0 
" id="m9f3fd298a0" style="stroke:#262626;"/>
      </defs>
      <g>
       <use style="fill:#262626;stroke:#262626;" x="70.992344" xlink:href="#m9f3fd298a0" y="285"/>
      </g>
     </g>
     <g id="text_9">
      <!-- −15 -->
      <defs>
       <path d="M 10.59375 35.5 
L 73.1875 35.5 
L 73.1875 27.203125 
L 10.59375 27.203125 
z
" id="DejaVuSans-2212"/>
      </defs>
      <g style="fill:#262626;" transform="translate(30.55625 289.938984)scale(0.13 -0.13)">
       <use xlink:href="#DejaVuSans-2212"/>
       <use x="83.789062" xlink:href="#DejaVuSans-31"/>
       <use x="147.412109" xlink:href="#DejaVuSans-35"/>
      </g>
     </g>
    </g>
    <g id="ytick_2">
     <g id="line2d_9">
      <g>
       <use style="fill:#262626;stroke:#262626;" x="70.992344" xlink:href="#m9f3fd298a0" y="239.7"/>
      </g>
     </g>
     <g id="text_10">
      <!-- −10 -->
      <g style="fill:#262626;" transform="translate(30.55625 244.638984)scale(0.13 -0.13)">
       <use xlink:href="#DejaVuSans-2212"/>
       <use x="83.789062" xlink:href="#DejaVuSans-31"/>
       <use x="147.412109" xlink:href="#DejaVuSans-30"/>
      </g>
     </g>
    </g>
    <g id="ytick_3">
     <g id="line2d_10">
      <g>
       <use style="fill:#262626;stroke:#262626;" x="70.992344" xlink:href="#m9f3fd298a0" y="194.4"/>
      </g>
     </g>
     <g id="text_11">
      <!-- −5 -->
      <g style="fill:#262626;" transform="translate(38.8275 199.338984)scale(0.13 -0.13)">
       <use xlink:href="#DejaVuSans-2212"/>
       <use x="83.789062" xlink:href="#DejaVuSans-35"/>
      </g>
     </g>
    </g>
    <g id="ytick_4">
     <g id="line2d_11">
      <g>
       <use style="fill:#262626;stroke:#262626;" x="70.992344" xlink:href="#m9f3fd298a0" y="149.1"/>
      </g>
     </g>
     <g id="text_12">
      <!-- 0 -->
      <g style="fill:#262626;" transform="translate(49.721094 154.038984)scale(0.13 -0.13)">
       <use xlink:href="#DejaVuSans-30"/>
      </g>
     </g>
    </g>
    <g id="ytick_5">
     <g id="line2d_12">
      <g>
       <use style="fill:#262626;stroke:#262626;" x="70.992344" xlink:href="#m9f3fd298a0" y="103.8"/>
      </g>
     </g>
     <g id="text_13">
      <!-- 5 -->
      <g style="fill:#262626;" transform="translate(49.721094 108.738984)scale(0.13 -0.13)">
       <use xlink:href="#DejaVuSans-35"/>
      </g>
     </g>
    </g>
    <g id="ytick_6">
     <g id="line2d_13">
      <g>
       <use style="fill:#262626;stroke:#262626;" x="70.992344" xlink:href="#m9f3fd298a0" y="58.5"/>
      </g>
     </g>
     <g id="text_14">
      <!-- 10 -->
      <g style="fill:#262626;" transform="translate(41.449844 63.438984)scale(0.13 -0.13)">
       <use xlink:href="#DejaVuSans-31"/>
       <use x="63.623047" xlink:href="#DejaVuSans-30"/>
      </g>
     </g>
    </g>
    <g id="ytick_7">
     <g id="line2d_14">
      <g>
       <use style="fill:#262626;stroke:#262626;" x="70.992344" xlink:href="#m9f3fd298a0" y="13.2"/>
      </g>
     </g>
     <g id="text_15">
      <!-- 15 -->
      <g style="fill:#262626;" transform="translate(41.449844 18.138984)scale(0.13 -0.13)">
       <use xlink:href="#DejaVuSans-31"/>
       <use x="63.623047" xlink:href="#DejaVuSans-35"/>
      </g>
     </g>
    </g>
    <g id="text_16">
     <!-- Growth in # of Articles (%) -->
     <defs>
      <path d="M 59.515625 10.40625 
L 59.515625 29.984375 
L 43.40625 29.984375 
L 43.40625 38.09375 
L 69.28125 38.09375 
L 69.28125 6.78125 
Q 63.578125 2.734375 56.6875 0.65625 
Q 49.8125 -1.421875 42 -1.421875 
Q 24.90625 -1.421875 15.25 8.5625 
Q 5.609375 18.5625 5.609375 36.375 
Q 5.609375 54.25 15.25 64.234375 
Q 24.90625 74.21875 42 74.21875 
Q 49.125 74.21875 55.546875 72.453125 
Q 61.96875 70.703125 67.390625 67.28125 
L 67.390625 56.78125 
Q 61.921875 61.421875 55.765625 63.765625 
Q 49.609375 66.109375 42.828125 66.109375 
Q 29.4375 66.109375 22.71875 58.640625 
Q 16.015625 51.171875 16.015625 36.375 
Q 16.015625 21.625 22.71875 14.15625 
Q 29.4375 6.6875 42.828125 6.6875 
Q 48.046875 6.6875 52.140625 7.59375 
Q 56.25 8.5 59.515625 10.40625 
z
" id="DejaVuSans-47"/>
      <path d="M 4.203125 54.6875 
L 13.1875 54.6875 
L 24.421875 12.015625 
L 35.59375 54.6875 
L 46.1875 54.6875 
L 57.421875 12.015625 
L 68.609375 54.6875 
L 77.59375 54.6875 
L 63.28125 0 
L 52.6875 0 
L 40.921875 44.828125 
L 29.109375 0 
L 18.5 0 
z
" id="DejaVuSans-77"/>
      <path d="M 54.890625 33.015625 
L 54.890625 0 
L 45.90625 0 
L 45.90625 32.71875 
Q 45.90625 40.484375 42.875 44.328125 
Q 39.84375 48.1875 33.796875 48.1875 
Q 26.515625 48.1875 22.3125 43.546875 
Q 18.109375 38.921875 18.109375 30.90625 
L 18.109375 0 
L 9.078125 0 
L 9.078125 75.984375 
L 18.109375 75.984375 
L 18.109375 46.1875 
Q 21.34375 51.125 25.703125 53.5625 
Q 30.078125 56 35.796875 56 
Q 45.21875 56 50.046875 50.171875 
Q 54.890625 44.34375 54.890625 33.015625 
z
" id="DejaVuSans-68"/>
      <path d="M 51.125 44 
L 36.921875 44 
L 32.8125 27.6875 
L 47.125 27.6875 
z
M 43.796875 71.78125 
L 38.71875 51.515625 
L 52.984375 51.515625 
L 58.109375 71.78125 
L 65.921875 71.78125 
L 60.890625 51.515625 
L 76.125 51.515625 
L 76.125 44 
L 58.984375 44 
L 54.984375 27.6875 
L 70.515625 27.6875 
L 70.515625 20.21875 
L 53.078125 20.21875 
L 48 0 
L 40.1875 0 
L 45.21875 20.21875 
L 30.90625 20.21875 
L 25.875 0 
L 18.015625 0 
L 23.09375 20.21875 
L 7.71875 20.21875 
L 7.71875 27.6875 
L 24.90625 27.6875 
L 29 44 
L 13.28125 44 
L 13.28125 51.515625 
L 30.90625 51.515625 
L 35.890625 71.78125 
z
" id="DejaVuSans-23"/>
      <path d="M 37.109375 75.984375 
L 37.109375 68.5 
L 28.515625 68.5 
Q 23.6875 68.5 21.796875 66.546875 
Q 19.921875 64.59375 19.921875 59.515625 
L 19.921875 54.6875 
L 34.71875 54.6875 
L 34.71875 47.703125 
L 19.921875 47.703125 
L 19.921875 0 
L 10.890625 0 
L 10.890625 47.703125 
L 2.296875 47.703125 
L 2.296875 54.6875 
L 10.890625 54.6875 
L 10.890625 58.5 
Q 10.890625 67.625 15.140625 71.796875 
Q 19.390625 75.984375 28.609375 75.984375 
z
" id="DejaVuSans-66"/>
      <path d="M 34.1875 63.1875 
L 20.796875 26.90625 
L 47.609375 26.90625 
z
M 28.609375 72.90625 
L 39.796875 72.90625 
L 67.578125 0 
L 57.328125 0 
L 50.6875 18.703125 
L 17.828125 18.703125 
L 11.1875 0 
L 0.78125 0 
z
" id="DejaVuSans-41"/>
      <path d="M 44.28125 53.078125 
L 44.28125 44.578125 
Q 40.484375 46.53125 36.375 47.5 
Q 32.28125 48.484375 27.875 48.484375 
Q 21.1875 48.484375 17.84375 46.4375 
Q 14.5 44.390625 14.5 40.28125 
Q 14.5 37.15625 16.890625 35.375 
Q 19.28125 33.59375 26.515625 31.984375 
L 29.59375 31.296875 
Q 39.15625 29.25 43.1875 25.515625 
Q 47.21875 21.78125 47.21875 15.09375 
Q 47.21875 7.46875 41.1875 3.015625 
Q 35.15625 -1.421875 24.609375 -1.421875 
Q 20.21875 -1.421875 15.453125 -0.5625 
Q 10.6875 0.296875 5.421875 2 
L 5.421875 11.28125 
Q 10.40625 8.6875 15.234375 7.390625 
Q 20.0625 6.109375 24.8125 6.109375 
Q 31.15625 6.109375 34.5625 8.28125 
Q 37.984375 10.453125 37.984375 14.40625 
Q 37.984375 18.0625 35.515625 20.015625 
Q 33.0625 21.96875 24.703125 23.78125 
L 21.578125 24.515625 
Q 13.234375 26.265625 9.515625 29.90625 
Q 5.8125 33.546875 5.8125 39.890625 
Q 5.8125 47.609375 11.28125 51.796875 
Q 16.75 56 26.8125 56 
Q 31.78125 56 36.171875 55.265625 
Q 40.578125 54.546875 44.28125 53.078125 
z
" id="DejaVuSans-73"/>
     </defs>
     <g style="fill:#262626;" transform="translate(22.396875 283.129687)rotate(-90)scale(0.2 -0.2)">
      <use xlink:href="#DejaVuSans-47"/>
      <use x="77.490234" xlink:href="#DejaVuSans-72"/>
      <use x="118.572266" xlink:href="#DejaVuSans-6f"/>
      <use x="179.753906" xlink:href="#DejaVuSans-77"/>
      <use x="261.541016" xlink:href="#DejaVuSans-74"/>
      <use x="300.75" xlink:href="#DejaVuSans-68"/>
      <use x="364.128906" xlink:href="#DejaVuSans-20"/>
      <use x="395.916016" xlink:href="#DejaVuSans-69"/>
      <use x="423.699219" xlink:href="#DejaVuSans-6e"/>
      <use x="487.078125" xlink:href="#DejaVuSans-20"/>
      <use x="518.865234" xlink:href="#DejaVuSans-23"/>
      <use x="602.654297" xlink:href="#DejaVuSans-20"/>
      <use x="634.441406" xlink:href="#DejaVuSans-6f"/>
      <use x="695.623047" xlink:href="#DejaVuSans-66"/>
      <use x="730.828125" xlink:href="#DejaVuSans-20"/>
      <use x="762.615234" xlink:href="#DejaVuSans-41"/>
      <use x="831.023438" xlink:href="#DejaVuSans-72"/>
      <use x="872.136719" xlink:href="#DejaVuSans-74"/>
      <use x="911.345703" xlink:href="#DejaVuSans-69"/>
      <use x="939.128906" xlink:href="#DejaVuSans-63"/>
      <use x="994.109375" xlink:href="#DejaVuSans-6c"/>
      <use x="1021.892578" xlink:href="#DejaVuSans-65"/>
      <use x="1083.416016" xlink:href="#DejaVuSans-73"/>
      <use x="1135.515625" xlink:href="#DejaVuSans-20"/>
      <use x="1167.302734" xlink:href="#DejaVuSans-28"/>
      <use x="1206.316406" xlink:href="#DejaVuSans-25"/>
      <use x="1301.335938" xlink:href="#DejaVuSans-29"/>
     </g>
    </g>
   </g>
   <g id="line2d_15">
    <path clip-path="url(#pa79e96ecbe)" d="M 1.089598 -1 
L 1.552344 2.364364 
L 10.232344 50.614255 
L 18.912344 80.948784 
L 27.592344 96.689665 
L 36.272344 109.500034 
L 44.952344 129.204747 
L 53.632344 149.929143 
L 62.312344 161.77875 
L 70.992344 164.806819 
L 79.672344 163.974645 
L 88.352344 162.203124 
L 97.032344 159.931052 
L 105.712344 157.282223 
L 114.392344 154.69972 
L 123.072344 152.34786 
L 131.752344 150.105868 
L 140.432344 148.145988 
L 149.112344 147.307382 
L 157.792344 147.811445 
L 166.472344 147.665733 
L 175.152344 144.869033 
L 183.832344 141.056652 
L 192.512344 140.03019 
L 201.192344 142.673225 
L 209.872344 146.054656 
L 218.552344 148.094989 
L 227.232344 150.436249 
L 235.912344 154.357963 
L 244.592344 155.281734 
L 253.272344 147.188754 
L 261.952344 132.946075 
L 270.632344 121.666835 
L 279.312344 117.676611 
L 287.992344 119.083753 
L 296.672344 119.039051 
L 305.352344 109.936543 
L 314.032344 95.705892 
L 322.712344 88.558395 
L 331.392344 92.174954 
L 340.072344 101.069153 
L 348.752344 109.417987 
L 357.432344 115.827897 
L 366.112344 120.232052 
L 374.792344 119.786983 
L 383.472344 118.775728 
L 392.152344 125.422892 
L 400.832344 133.364563 
L 409.512344 133.774128 
L 418.192344 130.600651 
L 426.872344 124.204103 
L 435.552344 107.332457 
L 444.232344 88.159034 
L 452.912344 88.935603 
L 461.592344 113.423023 
L 470.272344 141.946684 
L 478.063594 161.618981 
" style="fill:none;stroke:#7390d9;stroke-linecap:square;stroke-width:1.7;"/>
   </g>
   <g id="line2d_16">
    <path clip-path="url(#pa79e96ecbe)" d="M 3.343528 -1 
L 10.232344 63.88584 
L 18.912344 119.475002 
L 27.592344 149.069207 
L 36.272344 158.852466 
L 44.952344 157.571586 
L 53.632344 152.615599 
L 62.312344 147.592431 
L 70.992344 142.482986 
L 79.672344 136.427384 
L 88.352344 130.448165 
L 97.032344 127.135876 
L 105.712344 127.430484 
L 114.392344 129.821289 
L 123.072344 133.478064 
L 131.752344 138.65694 
L 140.432344 143.726303 
L 149.112344 146.804555 
L 157.792344 149.185943 
L 166.472344 152.698388 
L 175.152344 156.630267 
L 183.832344 159.933783 
L 192.512344 163.06939 
L 201.192344 166.902642 
L 209.872344 172.104455 
L 218.552344 178.297731 
L 227.232344 182.499312 
L 235.912344 182.332477 
L 244.592344 180.84711 
L 253.272344 182.65376 
L 261.952344 186.848289 
L 270.632344 188.386251 
L 279.312344 185.127256 
L 287.992344 181.686297 
L 296.672344 183.693071 
L 305.352344 189.709435 
L 314.032344 194.323302 
L 322.712344 194.126679 
L 331.392344 188.760396 
L 340.072344 183.365625 
L 348.752344 186.953238 
L 357.432344 199.84465 
L 366.112344 206.781416 
L 374.792344 197.867026 
L 383.472344 189.190728 
L 392.152344 195.559984 
L 400.832344 203.94599 
L 409.512344 199.360657 
L 418.192344 178.544979 
L 426.872344 146.600598 
L 435.552344 125.671918 
L 444.232344 140.293434 
L 452.912344 184.234643 
L 461.592344 230.312475 
L 470.272344 252.77378 
L 478.063594 244.02297 
" style="fill:none;stroke:#57a773;stroke-linecap:square;stroke-width:1.7;"/>
   </g>
   <g id="line2d_17">
    <path clip-path="url(#pa79e96ecbe)" d="M -1 149.1 
L 1.552344 149.1 
L 10.232344 149.1 
L 18.912344 149.1 
L 27.592344 149.1 
L 36.272344 149.1 
L 44.952344 149.1 
L 53.632344 149.1 
L 62.312344 149.1 
L 70.992344 149.1 
L 79.672344 149.1 
L 88.352344 149.1 
L 97.032344 149.1 
L 105.712344 149.1 
L 114.392344 149.1 
L 123.072344 149.1 
L 131.752344 149.1 
L 140.432344 149.1 
L 149.112344 149.1 
L 157.792344 149.1 
L 166.472344 149.1 
L 175.152344 149.1 
L 183.832344 149.1 
L 192.512344 149.1 
L 201.192344 149.1 
L 209.872344 149.1 
L 218.552344 149.1 
L 227.232344 149.1 
L 235.912344 149.1 
L 244.592344 149.1 
L 253.272344 149.1 
L 261.952344 149.1 
L 270.632344 149.1 
L 279.312344 149.1 
L 287.992344 149.1 
L 296.672344 149.1 
L 305.352344 149.1 
L 314.032344 149.1 
L 322.712344 149.1 
L 331.392344 149.1 
L 340.072344 149.1 
L 348.752344 149.1 
L 357.432344 149.1 
L 366.112344 149.1 
L 374.792344 149.1 
L 383.472344 149.1 
L 392.152344 149.1 
L 400.832344 149.1 
L 409.512344 149.1 
L 418.192344 149.1 
L 426.872344 149.1 
L 435.552344 149.1 
L 444.232344 149.1 
L 452.912344 149.1 
L 461.592344 149.1 
L 470.272344 149.1 
L 478.063594 149.1 
" style="fill:none;stroke:#000000;stroke-dasharray:3.7,1.6;stroke-dashoffset:0;"/>
   </g>
   <g id="patch_3">
    <path d="M 70.992344 285 
L 70.992344 13.2 
" style="fill:none;stroke:#000000;stroke-linecap:square;stroke-linejoin:miter;stroke-width:0.8;"/>
   </g>
   <g id="patch_4">
    <path d="M 70.992344 285 
L 461.592344 285 
" style="fill:none;stroke:#000000;stroke-linecap:square;stroke-linejoin:miter;stroke-width:0.8;"/>
   </g>
   <g id="legend_1">
    <g id="line2d_18">
     <path d="M 88.992344 226.484375 
L 128.992344 226.484375 
" style="fill:none;stroke:#7390d9;stroke-linecap:square;stroke-width:1.7;"/>
    </g>
    <g id="line2d_19"/>
    <g id="text_17">
     <!-- Treatment -->
     <defs>
      <path d="M -0.296875 72.90625 
L 61.375 72.90625 
L 61.375 64.59375 
L 35.5 64.59375 
L 35.5 0 
L 25.59375 0 
L 25.59375 64.59375 
L -0.296875 64.59375 
z
" id="DejaVuSans-54"/>
     </defs>
     <g style="fill:#262626;" transform="translate(144.992344 233.484375)scale(0.2 -0.2)">
      <use xlink:href="#DejaVuSans-54"/>
      <use x="60.865234" xlink:href="#DejaVuSans-72"/>
      <use x="101.947266" xlink:href="#DejaVuSans-65"/>
      <use x="163.470703" xlink:href="#DejaVuSans-61"/>
      <use x="224.75" xlink:href="#DejaVuSans-74"/>
      <use x="263.958984" xlink:href="#DejaVuSans-6d"/>
      <use x="361.371094" xlink:href="#DejaVuSans-65"/>
      <use x="422.894531" xlink:href="#DejaVuSans-6e"/>
      <use x="486.273438" xlink:href="#DejaVuSans-74"/>
     </g>
    </g>
    <g id="line2d_20">
     <path d="M 88.992344 255.840625 
L 128.992344 255.840625 
" style="fill:none;stroke:#57a773;stroke-linecap:square;stroke-width:1.7;"/>
    </g>
    <g id="line2d_21"/>
    <g id="text_18">
     <!-- Control -->
     <defs>
      <path d="M 64.40625 67.28125 
L 64.40625 56.890625 
Q 59.421875 61.53125 53.78125 63.8125 
Q 48.140625 66.109375 41.796875 66.109375 
Q 29.296875 66.109375 22.65625 58.46875 
Q 16.015625 50.828125 16.015625 36.375 
Q 16.015625 21.96875 22.65625 14.328125 
Q 29.296875 6.6875 41.796875 6.6875 
Q 48.140625 6.6875 53.78125 8.984375 
Q 59.421875 11.28125 64.40625 15.921875 
L 64.40625 5.609375 
Q 59.234375 2.09375 53.4375 0.328125 
Q 47.65625 -1.421875 41.21875 -1.421875 
Q 24.65625 -1.421875 15.125 8.703125 
Q 5.609375 18.84375 5.609375 36.375 
Q 5.609375 53.953125 15.125 64.078125 
Q 24.65625 74.21875 41.21875 74.21875 
Q 47.75 74.21875 53.53125 72.484375 
Q 59.328125 70.75 64.40625 67.28125 
z
" id="DejaVuSans-43"/>
     </defs>
     <g style="fill:#262626;" transform="translate(144.992344 262.840625)scale(0.2 -0.2)">
      <use xlink:href="#DejaVuSans-43"/>
      <use x="69.824219" xlink:href="#DejaVuSans-6f"/>
      <use x="131.005859" xlink:href="#DejaVuSans-6e"/>
      <use x="194.384766" xlink:href="#DejaVuSans-74"/>
      <use x="233.59375" xlink:href="#DejaVuSans-72"/>
      <use x="274.675781" xlink:href="#DejaVuSans-6f"/>
      <use x="335.857422" xlink:href="#DejaVuSans-6c"/>
     </g>
    </g>
   </g>
  </g>
 </g>
 <defs>
  <clipPath id="pa79e96ecbe">
   <rect height="271.8" width="390.6" x="70.992344" y="13.2"/>
  </clipPath>
 </defs>
</svg>
