<?xml version="1.0" encoding="utf-8" standalone="no"?>
<!DOCTYPE svg PUBLIC "-//W3C//DTD SVG 1.1//EN"
  "http://www.w3.org/Graphics/SVG/1.1/DTD/svg11.dtd">
<!-- Created with matplotlib (http://matplotlib.org/) -->
<svg height="341pt" version="1.1" viewBox="0 0 477 341" width="477pt" xmlns="http://www.w3.org/2000/svg" xmlns:xlink="http://www.w3.org/1999/xlink">
 <defs>
  <style type="text/css">
*{stroke-linecap:butt;stroke-linejoin:round;}
  </style>
 </defs>
 <g id="figure_1">
  <g id="patch_1">
   <path d="M 0 341.137812 
L 477.063594 341.137812 
L 477.063594 0 
L 0 0 
z
" style="fill:#ffffff;"/>
  </g>
  <g id="axes_1">
   <g id="patch_2">
    <path d="M 70.992344 285 
L 461.592344 285 
L 461.592344 13.2 
L 70.992344 13.2 
z
" style="fill:#ffffff;"/>
   </g>
   <g id="line2d_1">
    <path clip-path="url(#pcac91a2954)" d="M 44.952344 224.6 
L 50.73901 224.6 
L 56.525677 224.6 
L 62.312344 224.6 
L 68.09901 224.6 
L 73.885677 224.6 
L 79.672344 224.6 
L 85.45901 224.6 
L 91.245677 224.6 
L 97.032344 224.6 
L 102.81901 224.6 
L 108.605677 224.6 
L 114.392344 224.6 
L 120.17901 224.6 
L 125.965677 224.6 
L 131.752344 224.6 
L 137.53901 224.6 
L 143.325677 224.6 
L 149.112344 224.6 
L 154.89901 224.6 
L 160.685677 224.6 
L 166.472344 224.6 
L 172.25901 224.6 
L 178.045677 224.6 
L 183.832344 224.6 
L 189.61901 224.6 
L 195.405677 224.6 
L 201.192344 224.6 
L 206.97901 224.6 
L 212.765677 224.6 
L 218.552344 224.6 
L 224.33901 224.6 
L 230.125677 224.6 
L 235.912344 224.6 
L 241.69901 224.6 
L 247.485677 224.6 
L 253.272344 224.6 
L 259.05901 224.6 
L 264.845677 224.6 
L 270.632344 224.6 
L 276.41901 224.6 
L 282.205677 224.6 
L 287.992344 224.6 
L 293.77901 224.6 
L 299.565677 224.6 
L 305.352344 224.6 
L 311.13901 224.6 
L 316.925677 224.6 
L 322.712344 224.6 
L 328.49901 224.6 
L 334.285677 224.6 
L 340.072344 224.6 
L 345.85901 224.6 
L 351.645677 224.6 
L 357.432344 224.6 
L 363.21901 224.6 
L 369.005677 224.6 
L 374.792344 224.6 
L 380.57901 224.6 
L 386.365677 224.6 
L 392.152344 224.6 
L 397.93901 224.6 
L 403.725677 224.6 
L 409.512344 224.6 
L 415.29901 224.6 
L 421.085677 224.6 
L 426.872344 224.6 
L 432.65901 224.6 
L 438.445677 224.6 
L 444.232344 224.6 
L 450.01901 224.6 
L 455.805677 224.6 
L 461.592344 224.6 
L 467.37901 224.6 
L 473.165677 224.6 
L 478.063594 224.6 
" style="fill:none;stroke:#000000;stroke-dasharray:3.7,1.6;stroke-dashoffset:0;"/>
   </g>
   <g id="PolyCollection_1">
    <path clip-path="url(#pcac91a2954)" d="M 44.952344 185.210628 
L 44.952344 359.439766 
L 50.73901 343.864695 
L 56.525677 325.006769 
L 62.312344 303.371177 
L 68.09901 280.40067 
L 73.885677 259.13971 
L 79.672344 242.779179 
L 85.45901 233.032833 
L 91.245677 229.671784 
L 97.032344 230.618707 
L 102.81901 232.30534 
L 108.605677 232.641335 
L 114.392344 232.615479 
L 120.17901 233.199145 
L 125.965677 233.853711 
L 131.752344 233.824461 
L 137.53901 233.406003 
L 143.325677 233.576346 
L 149.112344 234.515272 
L 154.89901 235.619639 
L 160.685677 236.021948 
L 166.472344 235.350168 
L 172.25901 234.320736 
L 178.045677 233.871414 
L 183.832344 233.833942 
L 189.61901 233.492202 
L 195.405677 232.625598 
L 201.192344 231.325288 
L 206.97901 229.655158 
L 212.765677 227.882834 
L 218.552344 226.289043 
L 224.33901 225.076255 
L 230.125677 224.35253 
L 235.912344 224.024775 
L 241.69901 223.742756 
L 247.485677 223.199334 
L 253.272344 222.076541 
L 259.05901 219.99827 
L 264.845677 216.631184 
L 270.632344 211.944496 
L 276.41901 206.579603 
L 282.205677 202.258451 
L 287.992344 200.255013 
L 293.77901 200.073942 
L 299.565677 199.382936 
L 305.352344 197.186535 
L 311.13901 195.219687 
L 316.925677 195.825827 
L 322.712344 200.419896 
L 328.49901 206.645825 
L 334.285677 209.970741 
L 340.072344 210.661833 
L 345.85901 211.198744 
L 351.645677 211.524467 
L 357.432344 209.372413 
L 363.21901 204.393333 
L 369.005677 203.789646 
L 374.792344 207.181974 
L 380.57901 205.209545 
L 386.365677 202.960389 
L 392.152344 212.080345 
L 397.93901 222.475975 
L 403.725677 222.553886 
L 409.512344 221.949686 
L 415.29901 228.99297 
L 421.085677 237.187058 
L 426.872344 236.613275 
L 432.65901 245.05623 
L 438.445677 270.189941 
L 444.232344 299.762147 
L 450.01901 324.499631 
L 455.805677 331.992899 
L 461.592344 324.783425 
L 467.37901 324.736027 
L 473.165677 331.407951 
L 478.952344 323.860645 
L 484.73901 349.278937 
L 490.525677 407.818251 
L 496.312344 425.288535 
L 502.09901 388.029361 
L 507.885677 409.220337 
L 513.672344 470.818084 
L 519.45901 486.633087 
L 525.245677 487.939528 
L 531.032344 544.365956 
L 536.81901 582.95351 
L 542.605677 526.287114 
L 548.392344 521.620303 
L 554.17901 617.654483 
L 559.965677 654.611024 
L 565.752344 1607.66408 
L 571.53901 3610.074164 
L 577.325677 2057.522727 
L 583.112344 894.098337 
L 588.89901 665.858926 
L 594.685677 560.659627 
L 600.472344 489.373828 
L 606.25901 440.992825 
L 612.045677 408.11545 
L 617.832344 383.809982 
L 617.832344 276.754139 
L 617.832344 276.754139 
L 612.045677 265.133303 
L 606.25901 243.43773 
L 600.472344 199.351139 
L 594.685677 112.92612 
L 588.89901 -54.076064 
L 583.112344 -453.312009 
L 577.325677 -2122.931458 
L 571.53901 -4429.770759 
L 565.752344 -2396.630206 
L 559.965677 -1346.721647 
L 554.17901 -826.472035 
L 548.392344 -376.523014 
L 542.605677 -305.436928 
L 536.81901 -478.544837 
L 531.032344 -611.641037 
L 525.245677 -584.531448 
L 519.45901 -465.721975 
L 513.672344 -340.960669 
L 507.885677 -218.355326 
L 502.09901 -195.358939 
L 496.312344 -291.062129 
L 490.525677 -351.319671 
L 484.73901 -313.941732 
L 478.952344 -224.35997 
L 473.165677 -138.566484 
L 467.37901 -55.265363 
L 461.592344 -10.410848 
L 455.805677 3.69801 
L 450.01901 10.924205 
L 444.232344 12.952392 
L 438.445677 2.640161 
L 432.65901 -16.815587 
L 426.872344 -35.836836 
L 421.085677 -31.519245 
L 415.29901 6.506031 
L 409.512344 50.167379 
L 403.725677 76.977468 
L 397.93901 86.088489 
L 392.152344 92.421095 
L 386.365677 99.271859 
L 380.57901 101.477726 
L 374.792344 102.530022 
L 369.005677 108.271155 
L 363.21901 118.512288 
L 357.432344 129.417779 
L 351.645677 139.05549 
L 345.85901 149.137888 
L 340.072344 160.627394 
L 334.285677 166.55562 
L 328.49901 163.987647 
L 322.712344 159.284373 
L 316.925677 157.2722 
L 311.13901 158.895533 
L 305.352344 163.270872 
L 299.565677 167.749033 
L 293.77901 170.761123 
L 287.992344 173.784743 
L 282.205677 178.911516 
L 276.41901 185.281294 
L 270.632344 190.86661 
L 264.845677 196.114382 
L 259.05901 201.298219 
L 253.272344 205.059506 
L 247.485677 206.799966 
L 241.69901 207.774735 
L 235.912344 209.206381 
L 230.125677 211.309779 
L 224.33901 213.765895 
L 218.552344 216.393081 
L 212.765677 219.205211 
L 206.97901 222.075076 
L 201.192344 224.5782 
L 195.405677 226.360683 
L 189.61901 227.258254 
L 183.832344 227.545086 
L 178.045677 227.753967 
L 172.25901 228.168586 
L 166.472344 228.635477 
L 160.685677 228.649823 
L 154.89901 227.672503 
L 149.112344 225.944924 
L 143.325677 224.467577 
L 137.53901 223.663042 
L 131.752344 222.966189 
L 125.965677 222.189469 
L 120.17901 221.640365 
L 114.392344 221.190874 
L 108.605677 219.644962 
L 102.81901 216.095565 
L 97.032344 211.04445 
L 91.245677 205.02346 
L 85.45901 198.889076 
L 79.672344 194.03946 
L 73.885677 190.94661 
L 68.09901 189.225394 
L 62.312344 188.486781 
L 56.525677 188.280044 
L 50.73901 187.491947 
L 44.952344 185.210628 
z
" style="fill:#4c72b0;fill-opacity:0.1;stroke:#4c72b0;stroke-opacity:0.1;"/>
   </g>
   <g id="matplotlib.axis_1">
    <g id="xtick_1">
     <g id="line2d_2">
      <defs>
       <path d="M 0 0 
L 0 6 
" id="m47c7972951" style="stroke:#262626;"/>
      </defs>
      <g>
       <use style="fill:#262626;stroke:#262626;" x="70.992344" xlink:href="#m47c7972951" y="285"/>
      </g>
     </g>
     <g id="text_1">
      <!-- 0 -->
      <defs>
       <path d="M 31.78125 66.40625 
Q 24.171875 66.40625 20.328125 58.90625 
Q 16.5 51.421875 16.5 36.375 
Q 16.5 21.390625 20.328125 13.890625 
Q 24.171875 6.390625 31.78125 6.390625 
Q 39.453125 6.390625 43.28125 13.890625 
Q 47.125 21.390625 47.125 36.375 
Q 47.125 51.421875 43.28125 58.90625 
Q 39.453125 66.40625 31.78125 66.40625 
z
M 31.78125 74.21875 
Q 44.046875 74.21875 50.515625 64.515625 
Q 56.984375 54.828125 56.984375 36.375 
Q 56.984375 17.96875 50.515625 8.265625 
Q 44.046875 -1.421875 31.78125 -1.421875 
Q 19.53125 -1.421875 13.0625 8.265625 
Q 6.59375 17.96875 6.59375 36.375 
Q 6.59375 54.828125 13.0625 64.515625 
Q 19.53125 74.21875 31.78125 74.21875 
z
" id="DejaVuSans-30"/>
      </defs>
      <g style="fill:#262626;" transform="translate(66.856719 307.877969)scale(0.13 -0.13)">
       <use xlink:href="#DejaVuSans-30"/>
      </g>
     </g>
    </g>
    <g id="xtick_2">
     <g id="line2d_3">
      <g>
       <use style="fill:#262626;stroke:#262626;" x="114.392344" xlink:href="#m47c7972951" y="285"/>
      </g>
     </g>
     <g id="text_2">
      <!-- 5 -->
      <defs>
       <path d="M 10.796875 72.90625 
L 49.515625 72.90625 
L 49.515625 64.59375 
L 19.828125 64.59375 
L 19.828125 46.734375 
Q 21.96875 47.46875 24.109375 47.828125 
Q 26.265625 48.1875 28.421875 48.1875 
Q 40.625 48.1875 47.75 41.5 
Q 54.890625 34.8125 54.890625 23.390625 
Q 54.890625 11.625 47.5625 5.09375 
Q 40.234375 -1.421875 26.90625 -1.421875 
Q 22.3125 -1.421875 17.546875 -0.640625 
Q 12.796875 0.140625 7.71875 1.703125 
L 7.71875 11.625 
Q 12.109375 9.234375 16.796875 8.0625 
Q 21.484375 6.890625 26.703125 6.890625 
Q 35.15625 6.890625 40.078125 11.328125 
Q 45.015625 15.765625 45.015625 23.390625 
Q 45.015625 31 40.078125 35.4375 
Q 35.15625 39.890625 26.703125 39.890625 
Q 22.75 39.890625 18.8125 39.015625 
Q 14.890625 38.140625 10.796875 36.28125 
z
" id="DejaVuSans-35"/>
      </defs>
      <g style="fill:#262626;" transform="translate(110.256719 307.877969)scale(0.13 -0.13)">
       <use xlink:href="#DejaVuSans-35"/>
      </g>
     </g>
    </g>
    <g id="xtick_3">
     <g id="line2d_4">
      <g>
       <use style="fill:#262626;stroke:#262626;" x="157.792344" xlink:href="#m47c7972951" y="285"/>
      </g>
     </g>
     <g id="text_3">
      <!-- 10 -->
      <defs>
       <path d="M 12.40625 8.296875 
L 28.515625 8.296875 
L 28.515625 63.921875 
L 10.984375 60.40625 
L 10.984375 69.390625 
L 28.421875 72.90625 
L 38.28125 72.90625 
L 38.28125 8.296875 
L 54.390625 8.296875 
L 54.390625 0 
L 12.40625 0 
z
" id="DejaVuSans-31"/>
      </defs>
      <g style="fill:#262626;" transform="translate(149.521094 307.877969)scale(0.13 -0.13)">
       <use xlink:href="#DejaVuSans-31"/>
       <use x="63.623047" xlink:href="#DejaVuSans-30"/>
      </g>
     </g>
    </g>
    <g id="xtick_4">
     <g id="line2d_5">
      <g>
       <use style="fill:#262626;stroke:#262626;" x="201.192344" xlink:href="#m47c7972951" y="285"/>
      </g>
     </g>
     <g id="text_4">
      <!-- 15 -->
      <g style="fill:#262626;" transform="translate(192.921094 307.877969)scale(0.13 -0.13)">
       <use xlink:href="#DejaVuSans-31"/>
       <use x="63.623047" xlink:href="#DejaVuSans-35"/>
      </g>
     </g>
    </g>
    <g id="xtick_5">
     <g id="line2d_6">
      <g>
       <use style="fill:#262626;stroke:#262626;" x="244.592344" xlink:href="#m47c7972951" y="285"/>
      </g>
     </g>
     <g id="text_5">
      <!-- 20 -->
      <defs>
       <path d="M 19.1875 8.296875 
L 53.609375 8.296875 
L 53.609375 0 
L 7.328125 0 
L 7.328125 8.296875 
Q 12.9375 14.109375 22.625 23.890625 
Q 32.328125 33.6875 34.8125 36.53125 
Q 39.546875 41.84375 41.421875 45.53125 
Q 43.3125 49.21875 43.3125 52.78125 
Q 43.3125 58.59375 39.234375 62.25 
Q 35.15625 65.921875 28.609375 65.921875 
Q 23.96875 65.921875 18.8125 64.3125 
Q 13.671875 62.703125 7.8125 59.421875 
L 7.8125 69.390625 
Q 13.765625 71.78125 18.9375 73 
Q 24.125 74.21875 28.421875 74.21875 
Q 39.75 74.21875 46.484375 68.546875 
Q 53.21875 62.890625 53.21875 53.421875 
Q 53.21875 48.921875 51.53125 44.890625 
Q 49.859375 40.875 45.40625 35.40625 
Q 44.1875 33.984375 37.640625 27.21875 
Q 31.109375 20.453125 19.1875 8.296875 
z
" id="DejaVuSans-32"/>
      </defs>
      <g style="fill:#262626;" transform="translate(236.321094 307.877969)scale(0.13 -0.13)">
       <use xlink:href="#DejaVuSans-32"/>
       <use x="63.623047" xlink:href="#DejaVuSans-30"/>
      </g>
     </g>
    </g>
    <g id="xtick_6">
     <g id="line2d_7">
      <g>
       <use style="fill:#262626;stroke:#262626;" x="287.992344" xlink:href="#m47c7972951" y="285"/>
      </g>
     </g>
     <g id="text_6">
      <!-- 25 -->
      <g style="fill:#262626;" transform="translate(279.721094 307.877969)scale(0.13 -0.13)">
       <use xlink:href="#DejaVuSans-32"/>
       <use x="63.623047" xlink:href="#DejaVuSans-35"/>
      </g>
     </g>
    </g>
    <g id="xtick_7">
     <g id="line2d_8">
      <g>
       <use style="fill:#262626;stroke:#262626;" x="331.392344" xlink:href="#m47c7972951" y="285"/>
      </g>
     </g>
     <g id="text_7">
      <!-- 30 -->
      <defs>
       <path d="M 40.578125 39.3125 
Q 47.65625 37.796875 51.625 33 
Q 55.609375 28.21875 55.609375 21.1875 
Q 55.609375 10.40625 48.1875 4.484375 
Q 40.765625 -1.421875 27.09375 -1.421875 
Q 22.515625 -1.421875 17.65625 -0.515625 
Q 12.796875 0.390625 7.625 2.203125 
L 7.625 11.71875 
Q 11.71875 9.328125 16.59375 8.109375 
Q 21.484375 6.890625 26.8125 6.890625 
Q 36.078125 6.890625 40.9375 10.546875 
Q 45.796875 14.203125 45.796875 21.1875 
Q 45.796875 27.640625 41.28125 31.265625 
Q 36.765625 34.90625 28.71875 34.90625 
L 20.21875 34.90625 
L 20.21875 43.015625 
L 29.109375 43.015625 
Q 36.375 43.015625 40.234375 45.921875 
Q 44.09375 48.828125 44.09375 54.296875 
Q 44.09375 59.90625 40.109375 62.90625 
Q 36.140625 65.921875 28.71875 65.921875 
Q 24.65625 65.921875 20.015625 65.03125 
Q 15.375 64.15625 9.8125 62.3125 
L 9.8125 71.09375 
Q 15.4375 72.65625 20.34375 73.4375 
Q 25.25 74.21875 29.59375 74.21875 
Q 40.828125 74.21875 47.359375 69.109375 
Q 53.90625 64.015625 53.90625 55.328125 
Q 53.90625 49.265625 50.4375 45.09375 
Q 46.96875 40.921875 40.578125 39.3125 
z
" id="DejaVuSans-33"/>
      </defs>
      <g style="fill:#262626;" transform="translate(323.121094 307.877969)scale(0.13 -0.13)">
       <use xlink:href="#DejaVuSans-33"/>
       <use x="63.623047" xlink:href="#DejaVuSans-30"/>
      </g>
     </g>
    </g>
    <g id="xtick_8">
     <g id="line2d_9">
      <g>
       <use style="fill:#262626;stroke:#262626;" x="374.792344" xlink:href="#m47c7972951" y="285"/>
      </g>
     </g>
     <g id="text_8">
      <!-- 35 -->
      <g style="fill:#262626;" transform="translate(366.521094 307.877969)scale(0.13 -0.13)">
       <use xlink:href="#DejaVuSans-33"/>
       <use x="63.623047" xlink:href="#DejaVuSans-35"/>
      </g>
     </g>
    </g>
    <g id="xtick_9">
     <g id="line2d_10">
      <g>
       <use style="fill:#262626;stroke:#262626;" x="418.192344" xlink:href="#m47c7972951" y="285"/>
      </g>
     </g>
     <g id="text_9">
      <!-- 40 -->
      <defs>
       <path d="M 37.796875 64.3125 
L 12.890625 25.390625 
L 37.796875 25.390625 
z
M 35.203125 72.90625 
L 47.609375 72.90625 
L 47.609375 25.390625 
L 58.015625 25.390625 
L 58.015625 17.1875 
L 47.609375 17.1875 
L 47.609375 0 
L 37.796875 0 
L 37.796875 17.1875 
L 4.890625 17.1875 
L 4.890625 26.703125 
z
" id="DejaVuSans-34"/>
      </defs>
      <g style="fill:#262626;" transform="translate(409.921094 307.877969)scale(0.13 -0.13)">
       <use xlink:href="#DejaVuSans-34"/>
       <use x="63.623047" xlink:href="#DejaVuSans-30"/>
      </g>
     </g>
    </g>
    <g id="xtick_10">
     <g id="line2d_11">
      <g>
       <use style="fill:#262626;stroke:#262626;" x="461.592344" xlink:href="#m47c7972951" y="285"/>
      </g>
     </g>
     <g id="text_10">
      <!-- 45 -->
      <g style="fill:#262626;" transform="translate(453.321094 307.877969)scale(0.13 -0.13)">
       <use xlink:href="#DejaVuSans-34"/>
       <use x="63.623047" xlink:href="#DejaVuSans-35"/>
      </g>
     </g>
    </g>
    <g id="text_11">
     <!-- Document Similarity (%) -->
     <defs>
      <path d="M 19.671875 64.796875 
L 19.671875 8.109375 
L 31.59375 8.109375 
Q 46.6875 8.109375 53.6875 14.9375 
Q 60.6875 21.78125 60.6875 36.53125 
Q 60.6875 51.171875 53.6875 57.984375 
Q 46.6875 64.796875 31.59375 64.796875 
z
M 9.8125 72.90625 
L 30.078125 72.90625 
Q 51.265625 72.90625 61.171875 64.09375 
Q 71.09375 55.28125 71.09375 36.53125 
Q 71.09375 17.671875 61.125 8.828125 
Q 51.171875 0 30.078125 0 
L 9.8125 0 
z
" id="DejaVuSans-44"/>
      <path d="M 30.609375 48.390625 
Q 23.390625 48.390625 19.1875 42.75 
Q 14.984375 37.109375 14.984375 27.296875 
Q 14.984375 17.484375 19.15625 11.84375 
Q 23.34375 6.203125 30.609375 6.203125 
Q 37.796875 6.203125 41.984375 11.859375 
Q 46.1875 17.53125 46.1875 27.296875 
Q 46.1875 37.015625 41.984375 42.703125 
Q 37.796875 48.390625 30.609375 48.390625 
z
M 30.609375 56 
Q 42.328125 56 49.015625 48.375 
Q 55.71875 40.765625 55.71875 27.296875 
Q 55.71875 13.875 49.015625 6.21875 
Q 42.328125 -1.421875 30.609375 -1.421875 
Q 18.84375 -1.421875 12.171875 6.21875 
Q 5.515625 13.875 5.515625 27.296875 
Q 5.515625 40.765625 12.171875 48.375 
Q 18.84375 56 30.609375 56 
z
" id="DejaVuSans-6f"/>
      <path d="M 48.78125 52.59375 
L 48.78125 44.1875 
Q 44.96875 46.296875 41.140625 47.34375 
Q 37.3125 48.390625 33.40625 48.390625 
Q 24.65625 48.390625 19.8125 42.84375 
Q 14.984375 37.3125 14.984375 27.296875 
Q 14.984375 17.28125 19.8125 11.734375 
Q 24.65625 6.203125 33.40625 6.203125 
Q 37.3125 6.203125 41.140625 7.25 
Q 44.96875 8.296875 48.78125 10.40625 
L 48.78125 2.09375 
Q 45.015625 0.34375 40.984375 -0.53125 
Q 36.96875 -1.421875 32.421875 -1.421875 
Q 20.0625 -1.421875 12.78125 6.34375 
Q 5.515625 14.109375 5.515625 27.296875 
Q 5.515625 40.671875 12.859375 48.328125 
Q 20.21875 56 33.015625 56 
Q 37.15625 56 41.109375 55.140625 
Q 45.0625 54.296875 48.78125 52.59375 
z
" id="DejaVuSans-63"/>
      <path d="M 8.5 21.578125 
L 8.5 54.6875 
L 17.484375 54.6875 
L 17.484375 21.921875 
Q 17.484375 14.15625 20.5 10.265625 
Q 23.53125 6.390625 29.59375 6.390625 
Q 36.859375 6.390625 41.078125 11.03125 
Q 45.3125 15.671875 45.3125 23.6875 
L 45.3125 54.6875 
L 54.296875 54.6875 
L 54.296875 0 
L 45.3125 0 
L 45.3125 8.40625 
Q 42.046875 3.421875 37.71875 1 
Q 33.40625 -1.421875 27.6875 -1.421875 
Q 18.265625 -1.421875 13.375 4.4375 
Q 8.5 10.296875 8.5 21.578125 
z
M 31.109375 56 
z
" id="DejaVuSans-75"/>
      <path d="M 52 44.1875 
Q 55.375 50.25 60.0625 53.125 
Q 64.75 56 71.09375 56 
Q 79.640625 56 84.28125 50.015625 
Q 88.921875 44.046875 88.921875 33.015625 
L 88.921875 0 
L 79.890625 0 
L 79.890625 32.71875 
Q 79.890625 40.578125 77.09375 44.375 
Q 74.3125 48.1875 68.609375 48.1875 
Q 61.625 48.1875 57.5625 43.546875 
Q 53.515625 38.921875 53.515625 30.90625 
L 53.515625 0 
L 44.484375 0 
L 44.484375 32.71875 
Q 44.484375 40.625 41.703125 44.40625 
Q 38.921875 48.1875 33.109375 48.1875 
Q 26.21875 48.1875 22.15625 43.53125 
Q 18.109375 38.875 18.109375 30.90625 
L 18.109375 0 
L 9.078125 0 
L 9.078125 54.6875 
L 18.109375 54.6875 
L 18.109375 46.1875 
Q 21.1875 51.21875 25.484375 53.609375 
Q 29.78125 56 35.6875 56 
Q 41.65625 56 45.828125 52.96875 
Q 50 49.953125 52 44.1875 
z
" id="DejaVuSans-6d"/>
      <path d="M 56.203125 29.59375 
L 56.203125 25.203125 
L 14.890625 25.203125 
Q 15.484375 15.921875 20.484375 11.0625 
Q 25.484375 6.203125 34.421875 6.203125 
Q 39.59375 6.203125 44.453125 7.46875 
Q 49.3125 8.734375 54.109375 11.28125 
L 54.109375 2.78125 
Q 49.265625 0.734375 44.1875 -0.34375 
Q 39.109375 -1.421875 33.890625 -1.421875 
Q 20.796875 -1.421875 13.15625 6.1875 
Q 5.515625 13.8125 5.515625 26.8125 
Q 5.515625 40.234375 12.765625 48.109375 
Q 20.015625 56 32.328125 56 
Q 43.359375 56 49.78125 48.890625 
Q 56.203125 41.796875 56.203125 29.59375 
z
M 47.21875 32.234375 
Q 47.125 39.59375 43.09375 43.984375 
Q 39.0625 48.390625 32.421875 48.390625 
Q 24.90625 48.390625 20.390625 44.140625 
Q 15.875 39.890625 15.1875 32.171875 
z
" id="DejaVuSans-65"/>
      <path d="M 54.890625 33.015625 
L 54.890625 0 
L 45.90625 0 
L 45.90625 32.71875 
Q 45.90625 40.484375 42.875 44.328125 
Q 39.84375 48.1875 33.796875 48.1875 
Q 26.515625 48.1875 22.3125 43.546875 
Q 18.109375 38.921875 18.109375 30.90625 
L 18.109375 0 
L 9.078125 0 
L 9.078125 54.6875 
L 18.109375 54.6875 
L 18.109375 46.1875 
Q 21.34375 51.125 25.703125 53.5625 
Q 30.078125 56 35.796875 56 
Q 45.21875 56 50.046875 50.171875 
Q 54.890625 44.34375 54.890625 33.015625 
z
" id="DejaVuSans-6e"/>
      <path d="M 18.3125 70.21875 
L 18.3125 54.6875 
L 36.8125 54.6875 
L 36.8125 47.703125 
L 18.3125 47.703125 
L 18.3125 18.015625 
Q 18.3125 11.328125 20.140625 9.421875 
Q 21.96875 7.515625 27.59375 7.515625 
L 36.8125 7.515625 
L 36.8125 0 
L 27.59375 0 
Q 17.1875 0 13.234375 3.875 
Q 9.28125 7.765625 9.28125 18.015625 
L 9.28125 47.703125 
L 2.6875 47.703125 
L 2.6875 54.6875 
L 9.28125 54.6875 
L 9.28125 70.21875 
z
" id="DejaVuSans-74"/>
      <path id="DejaVuSans-20"/>
      <path d="M 53.515625 70.515625 
L 53.515625 60.890625 
Q 47.90625 63.578125 42.921875 64.890625 
Q 37.9375 66.21875 33.296875 66.21875 
Q 25.25 66.21875 20.875 63.09375 
Q 16.5 59.96875 16.5 54.203125 
Q 16.5 49.359375 19.40625 46.890625 
Q 22.3125 44.4375 30.421875 42.921875 
L 36.375 41.703125 
Q 47.40625 39.59375 52.65625 34.296875 
Q 57.90625 29 57.90625 20.125 
Q 57.90625 9.515625 50.796875 4.046875 
Q 43.703125 -1.421875 29.984375 -1.421875 
Q 24.8125 -1.421875 18.96875 -0.25 
Q 13.140625 0.921875 6.890625 3.21875 
L 6.890625 13.375 
Q 12.890625 10.015625 18.65625 8.296875 
Q 24.421875 6.59375 29.984375 6.59375 
Q 38.421875 6.59375 43.015625 9.90625 
Q 47.609375 13.234375 47.609375 19.390625 
Q 47.609375 24.75 44.3125 27.78125 
Q 41.015625 30.8125 33.5 32.328125 
L 27.484375 33.5 
Q 16.453125 35.6875 11.515625 40.375 
Q 6.59375 45.0625 6.59375 53.421875 
Q 6.59375 63.09375 13.40625 68.65625 
Q 20.21875 74.21875 32.171875 74.21875 
Q 37.3125 74.21875 42.625 73.28125 
Q 47.953125 72.359375 53.515625 70.515625 
z
" id="DejaVuSans-53"/>
      <path d="M 9.421875 54.6875 
L 18.40625 54.6875 
L 18.40625 0 
L 9.421875 0 
z
M 9.421875 75.984375 
L 18.40625 75.984375 
L 18.40625 64.59375 
L 9.421875 64.59375 
z
" id="DejaVuSans-69"/>
      <path d="M 9.421875 75.984375 
L 18.40625 75.984375 
L 18.40625 0 
L 9.421875 0 
z
" id="DejaVuSans-6c"/>
      <path d="M 34.28125 27.484375 
Q 23.390625 27.484375 19.1875 25 
Q 14.984375 22.515625 14.984375 16.5 
Q 14.984375 11.71875 18.140625 8.90625 
Q 21.296875 6.109375 26.703125 6.109375 
Q 34.1875 6.109375 38.703125 11.40625 
Q 43.21875 16.703125 43.21875 25.484375 
L 43.21875 27.484375 
z
M 52.203125 31.203125 
L 52.203125 0 
L 43.21875 0 
L 43.21875 8.296875 
Q 40.140625 3.328125 35.546875 0.953125 
Q 30.953125 -1.421875 24.3125 -1.421875 
Q 15.921875 -1.421875 10.953125 3.296875 
Q 6 8.015625 6 15.921875 
Q 6 25.140625 12.171875 29.828125 
Q 18.359375 34.515625 30.609375 34.515625 
L 43.21875 34.515625 
L 43.21875 35.40625 
Q 43.21875 41.609375 39.140625 45 
Q 35.0625 48.390625 27.6875 48.390625 
Q 23 48.390625 18.546875 47.265625 
Q 14.109375 46.140625 10.015625 43.890625 
L 10.015625 52.203125 
Q 14.9375 54.109375 19.578125 55.046875 
Q 24.21875 56 28.609375 56 
Q 40.484375 56 46.34375 49.84375 
Q 52.203125 43.703125 52.203125 31.203125 
z
" id="DejaVuSans-61"/>
      <path d="M 41.109375 46.296875 
Q 39.59375 47.171875 37.8125 47.578125 
Q 36.03125 48 33.890625 48 
Q 26.265625 48 22.1875 43.046875 
Q 18.109375 38.09375 18.109375 28.8125 
L 18.109375 0 
L 9.078125 0 
L 9.078125 54.6875 
L 18.109375 54.6875 
L 18.109375 46.1875 
Q 20.953125 51.171875 25.484375 53.578125 
Q 30.03125 56 36.53125 56 
Q 37.453125 56 38.578125 55.875 
Q 39.703125 55.765625 41.0625 55.515625 
z
" id="DejaVuSans-72"/>
      <path d="M 32.171875 -5.078125 
Q 28.375 -14.84375 24.75 -17.8125 
Q 21.140625 -20.796875 15.09375 -20.796875 
L 7.90625 -20.796875 
L 7.90625 -13.28125 
L 13.1875 -13.28125 
Q 16.890625 -13.28125 18.9375 -11.515625 
Q 21 -9.765625 23.484375 -3.21875 
L 25.09375 0.875 
L 2.984375 54.6875 
L 12.5 54.6875 
L 29.59375 11.921875 
L 46.6875 54.6875 
L 56.203125 54.6875 
z
" id="DejaVuSans-79"/>
      <path d="M 31 75.875 
Q 24.46875 64.65625 21.28125 53.65625 
Q 18.109375 42.671875 18.109375 31.390625 
Q 18.109375 20.125 21.3125 9.0625 
Q 24.515625 -2 31 -13.1875 
L 23.1875 -13.1875 
Q 15.875 -1.703125 12.234375 9.375 
Q 8.59375 20.453125 8.59375 31.390625 
Q 8.59375 42.28125 12.203125 53.3125 
Q 15.828125 64.359375 23.1875 75.875 
z
" id="DejaVuSans-28"/>
      <path d="M 72.703125 32.078125 
Q 68.453125 32.078125 66.03125 28.46875 
Q 63.625 24.859375 63.625 18.40625 
Q 63.625 12.0625 66.03125 8.421875 
Q 68.453125 4.78125 72.703125 4.78125 
Q 76.859375 4.78125 79.265625 8.421875 
Q 81.6875 12.0625 81.6875 18.40625 
Q 81.6875 24.8125 79.265625 28.4375 
Q 76.859375 32.078125 72.703125 32.078125 
z
M 72.703125 38.28125 
Q 80.421875 38.28125 84.953125 32.90625 
Q 89.5 27.546875 89.5 18.40625 
Q 89.5 9.28125 84.9375 3.921875 
Q 80.375 -1.421875 72.703125 -1.421875 
Q 64.890625 -1.421875 60.34375 3.921875 
Q 55.8125 9.28125 55.8125 18.40625 
Q 55.8125 27.59375 60.375 32.9375 
Q 64.9375 38.28125 72.703125 38.28125 
z
M 22.3125 68.015625 
Q 18.109375 68.015625 15.6875 64.375 
Q 13.28125 60.75 13.28125 54.390625 
Q 13.28125 47.953125 15.671875 44.328125 
Q 18.0625 40.71875 22.3125 40.71875 
Q 26.5625 40.71875 28.96875 44.328125 
Q 31.390625 47.953125 31.390625 54.390625 
Q 31.390625 60.6875 28.953125 64.34375 
Q 26.515625 68.015625 22.3125 68.015625 
z
M 66.40625 74.21875 
L 74.21875 74.21875 
L 28.609375 -1.421875 
L 20.796875 -1.421875 
z
M 22.3125 74.21875 
Q 30.03125 74.21875 34.609375 68.875 
Q 39.203125 63.53125 39.203125 54.390625 
Q 39.203125 45.171875 34.640625 39.84375 
Q 30.078125 34.515625 22.3125 34.515625 
Q 14.546875 34.515625 10.03125 39.859375 
Q 5.515625 45.21875 5.515625 54.390625 
Q 5.515625 63.484375 10.046875 68.84375 
Q 14.59375 74.21875 22.3125 74.21875 
z
" id="DejaVuSans-25"/>
      <path d="M 8.015625 75.875 
L 15.828125 75.875 
Q 23.140625 64.359375 26.78125 53.3125 
Q 30.421875 42.28125 30.421875 31.390625 
Q 30.421875 20.453125 26.78125 9.375 
Q 23.140625 -1.703125 15.828125 -13.1875 
L 8.015625 -13.1875 
Q 14.5 -2 17.703125 9.0625 
Q 20.90625 20.125 20.90625 31.390625 
Q 20.90625 42.671875 17.703125 53.65625 
Q 14.5 64.65625 8.015625 75.875 
z
" id="DejaVuSans-29"/>
     </defs>
     <g style="fill:#262626;" transform="translate(143.545469 329.778437)scale(0.2 -0.2)">
      <use xlink:href="#DejaVuSans-44"/>
      <use x="77.001953" xlink:href="#DejaVuSans-6f"/>
      <use x="138.183594" xlink:href="#DejaVuSans-63"/>
      <use x="193.164062" xlink:href="#DejaVuSans-75"/>
      <use x="256.542969" xlink:href="#DejaVuSans-6d"/>
      <use x="353.955078" xlink:href="#DejaVuSans-65"/>
      <use x="415.478516" xlink:href="#DejaVuSans-6e"/>
      <use x="478.857422" xlink:href="#DejaVuSans-74"/>
      <use x="518.066406" xlink:href="#DejaVuSans-20"/>
      <use x="549.853516" xlink:href="#DejaVuSans-53"/>
      <use x="613.330078" xlink:href="#DejaVuSans-69"/>
      <use x="641.113281" xlink:href="#DejaVuSans-6d"/>
      <use x="738.525391" xlink:href="#DejaVuSans-69"/>
      <use x="766.308594" xlink:href="#DejaVuSans-6c"/>
      <use x="794.091797" xlink:href="#DejaVuSans-61"/>
      <use x="855.371094" xlink:href="#DejaVuSans-72"/>
      <use x="896.484375" xlink:href="#DejaVuSans-69"/>
      <use x="924.267578" xlink:href="#DejaVuSans-74"/>
      <use x="963.476562" xlink:href="#DejaVuSans-79"/>
      <use x="1022.65625" xlink:href="#DejaVuSans-20"/>
      <use x="1054.443359" xlink:href="#DejaVuSans-28"/>
      <use x="1093.457031" xlink:href="#DejaVuSans-25"/>
      <use x="1188.476562" xlink:href="#DejaVuSans-29"/>
     </g>
    </g>
   </g>
   <g id="matplotlib.axis_2">
    <g id="ytick_1">
     <g id="line2d_12">
      <defs>
       <path d="M 0 0 
L -6 0 
" id="m1261281c8c" style="stroke:#262626;"/>
      </defs>
      <g>
       <use style="fill:#262626;stroke:#262626;" x="70.992344" xlink:href="#m1261281c8c" y="285"/>
      </g>
     </g>
     <g id="text_12">
      <!-- −20 -->
      <defs>
       <path d="M 10.59375 35.5 
L 73.1875 35.5 
L 73.1875 27.203125 
L 10.59375 27.203125 
z
" id="DejaVuSans-2212"/>
      </defs>
      <g style="fill:#262626;" transform="translate(30.55625 289.938984)scale(0.13 -0.13)">
       <use xlink:href="#DejaVuSans-2212"/>
       <use x="83.789062" xlink:href="#DejaVuSans-32"/>
       <use x="147.412109" xlink:href="#DejaVuSans-30"/>
      </g>
     </g>
    </g>
    <g id="ytick_2">
     <g id="line2d_13">
      <g>
       <use style="fill:#262626;stroke:#262626;" x="70.992344" xlink:href="#m1261281c8c" y="254.8"/>
      </g>
     </g>
     <g id="text_13">
      <!-- −10 -->
      <g style="fill:#262626;" transform="translate(30.55625 259.738984)scale(0.13 -0.13)">
       <use xlink:href="#DejaVuSans-2212"/>
       <use x="83.789062" xlink:href="#DejaVuSans-31"/>
       <use x="147.412109" xlink:href="#DejaVuSans-30"/>
      </g>
     </g>
    </g>
    <g id="ytick_3">
     <g id="line2d_14">
      <g>
       <use style="fill:#262626;stroke:#262626;" x="70.992344" xlink:href="#m1261281c8c" y="224.6"/>
      </g>
     </g>
     <g id="text_14">
      <!-- 0 -->
      <g style="fill:#262626;" transform="translate(49.721094 229.538984)scale(0.13 -0.13)">
       <use xlink:href="#DejaVuSans-30"/>
      </g>
     </g>
    </g>
    <g id="ytick_4">
     <g id="line2d_15">
      <g>
       <use style="fill:#262626;stroke:#262626;" x="70.992344" xlink:href="#m1261281c8c" y="194.4"/>
      </g>
     </g>
     <g id="text_15">
      <!-- 10 -->
      <g style="fill:#262626;" transform="translate(41.449844 199.338984)scale(0.13 -0.13)">
       <use xlink:href="#DejaVuSans-31"/>
       <use x="63.623047" xlink:href="#DejaVuSans-30"/>
      </g>
     </g>
    </g>
    <g id="ytick_5">
     <g id="line2d_16">
      <g>
       <use style="fill:#262626;stroke:#262626;" x="70.992344" xlink:href="#m1261281c8c" y="164.2"/>
      </g>
     </g>
     <g id="text_16">
      <!-- 20 -->
      <g style="fill:#262626;" transform="translate(41.449844 169.138984)scale(0.13 -0.13)">
       <use xlink:href="#DejaVuSans-32"/>
       <use x="63.623047" xlink:href="#DejaVuSans-30"/>
      </g>
     </g>
    </g>
    <g id="ytick_6">
     <g id="line2d_17">
      <g>
       <use style="fill:#262626;stroke:#262626;" x="70.992344" xlink:href="#m1261281c8c" y="134"/>
      </g>
     </g>
     <g id="text_17">
      <!-- 30 -->
      <g style="fill:#262626;" transform="translate(41.449844 138.938984)scale(0.13 -0.13)">
       <use xlink:href="#DejaVuSans-33"/>
       <use x="63.623047" xlink:href="#DejaVuSans-30"/>
      </g>
     </g>
    </g>
    <g id="ytick_7">
     <g id="line2d_18">
      <g>
       <use style="fill:#262626;stroke:#262626;" x="70.992344" xlink:href="#m1261281c8c" y="103.8"/>
      </g>
     </g>
     <g id="text_18">
      <!-- 40 -->
      <g style="fill:#262626;" transform="translate(41.449844 108.738984)scale(0.13 -0.13)">
       <use xlink:href="#DejaVuSans-34"/>
       <use x="63.623047" xlink:href="#DejaVuSans-30"/>
      </g>
     </g>
    </g>
    <g id="ytick_8">
     <g id="line2d_19">
      <g>
       <use style="fill:#262626;stroke:#262626;" x="70.992344" xlink:href="#m1261281c8c" y="73.6"/>
      </g>
     </g>
     <g id="text_19">
      <!-- 50 -->
      <g style="fill:#262626;" transform="translate(41.449844 78.538984)scale(0.13 -0.13)">
       <use xlink:href="#DejaVuSans-35"/>
       <use x="63.623047" xlink:href="#DejaVuSans-30"/>
      </g>
     </g>
    </g>
    <g id="ytick_9">
     <g id="line2d_20">
      <g>
       <use style="fill:#262626;stroke:#262626;" x="70.992344" xlink:href="#m1261281c8c" y="43.4"/>
      </g>
     </g>
     <g id="text_20">
      <!-- 60 -->
      <defs>
       <path d="M 33.015625 40.375 
Q 26.375 40.375 22.484375 35.828125 
Q 18.609375 31.296875 18.609375 23.390625 
Q 18.609375 15.53125 22.484375 10.953125 
Q 26.375 6.390625 33.015625 6.390625 
Q 39.65625 6.390625 43.53125 10.953125 
Q 47.40625 15.53125 47.40625 23.390625 
Q 47.40625 31.296875 43.53125 35.828125 
Q 39.65625 40.375 33.015625 40.375 
z
M 52.59375 71.296875 
L 52.59375 62.3125 
Q 48.875 64.0625 45.09375 64.984375 
Q 41.3125 65.921875 37.59375 65.921875 
Q 27.828125 65.921875 22.671875 59.328125 
Q 17.53125 52.734375 16.796875 39.40625 
Q 19.671875 43.65625 24.015625 45.921875 
Q 28.375 48.1875 33.59375 48.1875 
Q 44.578125 48.1875 50.953125 41.515625 
Q 57.328125 34.859375 57.328125 23.390625 
Q 57.328125 12.15625 50.6875 5.359375 
Q 44.046875 -1.421875 33.015625 -1.421875 
Q 20.359375 -1.421875 13.671875 8.265625 
Q 6.984375 17.96875 6.984375 36.375 
Q 6.984375 53.65625 15.1875 63.9375 
Q 23.390625 74.21875 37.203125 74.21875 
Q 40.921875 74.21875 44.703125 73.484375 
Q 48.484375 72.75 52.59375 71.296875 
z
" id="DejaVuSans-36"/>
      </defs>
      <g style="fill:#262626;" transform="translate(41.449844 48.338984)scale(0.13 -0.13)">
       <use xlink:href="#DejaVuSans-36"/>
       <use x="63.623047" xlink:href="#DejaVuSans-30"/>
      </g>
     </g>
    </g>
    <g id="ytick_10">
     <g id="line2d_21">
      <g>
       <use style="fill:#262626;stroke:#262626;" x="70.992344" xlink:href="#m1261281c8c" y="13.2"/>
      </g>
     </g>
     <g id="text_21">
      <!-- 70 -->
      <defs>
       <path d="M 8.203125 72.90625 
L 55.078125 72.90625 
L 55.078125 68.703125 
L 28.609375 0 
L 18.3125 0 
L 43.21875 64.59375 
L 8.203125 64.59375 
z
" id="DejaVuSans-37"/>
      </defs>
      <g style="fill:#262626;" transform="translate(41.449844 18.138984)scale(0.13 -0.13)">
       <use xlink:href="#DejaVuSans-37"/>
       <use x="63.623047" xlink:href="#DejaVuSans-30"/>
      </g>
     </g>
    </g>
    <g id="text_22">
     <!-- Growth in # of Articles (%) -->
     <defs>
      <path d="M 59.515625 10.40625 
L 59.515625 29.984375 
L 43.40625 29.984375 
L 43.40625 38.09375 
L 69.28125 38.09375 
L 69.28125 6.78125 
Q 63.578125 2.734375 56.6875 0.65625 
Q 49.8125 -1.421875 42 -1.421875 
Q 24.90625 -1.421875 15.25 8.5625 
Q 5.609375 18.5625 5.609375 36.375 
Q 5.609375 54.25 15.25 64.234375 
Q 24.90625 74.21875 42 74.21875 
Q 49.125 74.21875 55.546875 72.453125 
Q 61.96875 70.703125 67.390625 67.28125 
L 67.390625 56.78125 
Q 61.921875 61.421875 55.765625 63.765625 
Q 49.609375 66.109375 42.828125 66.109375 
Q 29.4375 66.109375 22.71875 58.640625 
Q 16.015625 51.171875 16.015625 36.375 
Q 16.015625 21.625 22.71875 14.15625 
Q 29.4375 6.6875 42.828125 6.6875 
Q 48.046875 6.6875 52.140625 7.59375 
Q 56.25 8.5 59.515625 10.40625 
z
" id="DejaVuSans-47"/>
      <path d="M 4.203125 54.6875 
L 13.1875 54.6875 
L 24.421875 12.015625 
L 35.59375 54.6875 
L 46.1875 54.6875 
L 57.421875 12.015625 
L 68.609375 54.6875 
L 77.59375 54.6875 
L 63.28125 0 
L 52.6875 0 
L 40.921875 44.828125 
L 29.109375 0 
L 18.5 0 
z
" id="DejaVuSans-77"/>
      <path d="M 54.890625 33.015625 
L 54.890625 0 
L 45.90625 0 
L 45.90625 32.71875 
Q 45.90625 40.484375 42.875 44.328125 
Q 39.84375 48.1875 33.796875 48.1875 
Q 26.515625 48.1875 22.3125 43.546875 
Q 18.109375 38.921875 18.109375 30.90625 
L 18.109375 0 
L 9.078125 0 
L 9.078125 75.984375 
L 18.109375 75.984375 
L 18.109375 46.1875 
Q 21.34375 51.125 25.703125 53.5625 
Q 30.078125 56 35.796875 56 
Q 45.21875 56 50.046875 50.171875 
Q 54.890625 44.34375 54.890625 33.015625 
z
" id="DejaVuSans-68"/>
      <path d="M 51.125 44 
L 36.921875 44 
L 32.8125 27.6875 
L 47.125 27.6875 
z
M 43.796875 71.78125 
L 38.71875 51.515625 
L 52.984375 51.515625 
L 58.109375 71.78125 
L 65.921875 71.78125 
L 60.890625 51.515625 
L 76.125 51.515625 
L 76.125 44 
L 58.984375 44 
L 54.984375 27.6875 
L 70.515625 27.6875 
L 70.515625 20.21875 
L 53.078125 20.21875 
L 48 0 
L 40.1875 0 
L 45.21875 20.21875 
L 30.90625 20.21875 
L 25.875 0 
L 18.015625 0 
L 23.09375 20.21875 
L 7.71875 20.21875 
L 7.71875 27.6875 
L 24.90625 27.6875 
L 29 44 
L 13.28125 44 
L 13.28125 51.515625 
L 30.90625 51.515625 
L 35.890625 71.78125 
z
" id="DejaVuSans-23"/>
      <path d="M 37.109375 75.984375 
L 37.109375 68.5 
L 28.515625 68.5 
Q 23.6875 68.5 21.796875 66.546875 
Q 19.921875 64.59375 19.921875 59.515625 
L 19.921875 54.6875 
L 34.71875 54.6875 
L 34.71875 47.703125 
L 19.921875 47.703125 
L 19.921875 0 
L 10.890625 0 
L 10.890625 47.703125 
L 2.296875 47.703125 
L 2.296875 54.6875 
L 10.890625 54.6875 
L 10.890625 58.5 
Q 10.890625 67.625 15.140625 71.796875 
Q 19.390625 75.984375 28.609375 75.984375 
z
" id="DejaVuSans-66"/>
      <path d="M 34.1875 63.1875 
L 20.796875 26.90625 
L 47.609375 26.90625 
z
M 28.609375 72.90625 
L 39.796875 72.90625 
L 67.578125 0 
L 57.328125 0 
L 50.6875 18.703125 
L 17.828125 18.703125 
L 11.1875 0 
L 0.78125 0 
z
" id="DejaVuSans-41"/>
      <path d="M 44.28125 53.078125 
L 44.28125 44.578125 
Q 40.484375 46.53125 36.375 47.5 
Q 32.28125 48.484375 27.875 48.484375 
Q 21.1875 48.484375 17.84375 46.4375 
Q 14.5 44.390625 14.5 40.28125 
Q 14.5 37.15625 16.890625 35.375 
Q 19.28125 33.59375 26.515625 31.984375 
L 29.59375 31.296875 
Q 39.15625 29.25 43.1875 25.515625 
Q 47.21875 21.78125 47.21875 15.09375 
Q 47.21875 7.46875 41.1875 3.015625 
Q 35.15625 -1.421875 24.609375 -1.421875 
Q 20.21875 -1.421875 15.453125 -0.5625 
Q 10.6875 0.296875 5.421875 2 
L 5.421875 11.28125 
Q 10.40625 8.6875 15.234375 7.390625 
Q 20.0625 6.109375 24.8125 6.109375 
Q 31.15625 6.109375 34.5625 8.28125 
Q 37.984375 10.453125 37.984375 14.40625 
Q 37.984375 18.0625 35.515625 20.015625 
Q 33.0625 21.96875 24.703125 23.78125 
L 21.578125 24.515625 
Q 13.234375 26.265625 9.515625 29.90625 
Q 5.8125 33.546875 5.8125 39.890625 
Q 5.8125 47.609375 11.28125 51.796875 
Q 16.75 56 26.8125 56 
Q 31.78125 56 36.171875 55.265625 
Q 40.578125 54.546875 44.28125 53.078125 
z
" id="DejaVuSans-73"/>
     </defs>
     <g style="fill:#262626;" transform="translate(22.396875 283.129687)rotate(-90)scale(0.2 -0.2)">
      <use xlink:href="#DejaVuSans-47"/>
      <use x="77.490234" xlink:href="#DejaVuSans-72"/>
      <use x="118.572266" xlink:href="#DejaVuSans-6f"/>
      <use x="179.753906" xlink:href="#DejaVuSans-77"/>
      <use x="261.541016" xlink:href="#DejaVuSans-74"/>
      <use x="300.75" xlink:href="#DejaVuSans-68"/>
      <use x="364.128906" xlink:href="#DejaVuSans-20"/>
      <use x="395.916016" xlink:href="#DejaVuSans-69"/>
      <use x="423.699219" xlink:href="#DejaVuSans-6e"/>
      <use x="487.078125" xlink:href="#DejaVuSans-20"/>
      <use x="518.865234" xlink:href="#DejaVuSans-23"/>
      <use x="602.654297" xlink:href="#DejaVuSans-20"/>
      <use x="634.441406" xlink:href="#DejaVuSans-6f"/>
      <use x="695.623047" xlink:href="#DejaVuSans-66"/>
      <use x="730.828125" xlink:href="#DejaVuSans-20"/>
      <use x="762.615234" xlink:href="#DejaVuSans-41"/>
      <use x="831.023438" xlink:href="#DejaVuSans-72"/>
      <use x="872.136719" xlink:href="#DejaVuSans-74"/>
      <use x="911.345703" xlink:href="#DejaVuSans-69"/>
      <use x="939.128906" xlink:href="#DejaVuSans-63"/>
      <use x="994.109375" xlink:href="#DejaVuSans-6c"/>
      <use x="1021.892578" xlink:href="#DejaVuSans-65"/>
      <use x="1083.416016" xlink:href="#DejaVuSans-73"/>
      <use x="1135.515625" xlink:href="#DejaVuSans-20"/>
      <use x="1167.302734" xlink:href="#DejaVuSans-28"/>
      <use x="1206.316406" xlink:href="#DejaVuSans-25"/>
      <use x="1301.335938" xlink:href="#DejaVuSans-29"/>
     </g>
    </g>
   </g>
   <g id="PolyCollection_2">
    <path clip-path="url(#pcac91a2954)" d="M 44.952344 228.767912 
L 44.952344 315.882482 
L 50.73901 304.771508 
L 56.525677 290.825087 
L 62.312344 274.650078 
L 68.09901 257.606851 
L 73.885677 242.091435 
L 79.672344 230.594249 
L 85.45901 224.496894 
L 91.245677 223.509703 
L 97.032344 225.725142 
L 102.81901 228.252897 
L 108.605677 229.392242 
L 114.392344 229.759327 
L 120.17901 230.30945 
L 125.965677 230.937651 
L 131.752344 231.109893 
L 137.53901 230.970263 
L 143.325677 231.299154 
L 149.112344 232.372685 
L 154.89901 233.632855 
L 160.685677 234.178917 
L 166.472344 233.671495 
L 172.25901 232.782699 
L 178.045677 232.342052 
L 183.832344 232.261728 
L 189.61901 231.933715 
L 195.405677 231.05937 
L 201.192344 229.638516 
L 206.97901 227.760138 
L 212.765677 225.713428 
L 218.552344 223.815053 
L 224.33901 222.248665 
L 230.125677 221.091842 
L 235.912344 220.320177 
L 241.69901 219.750751 
L 247.485677 219.099492 
L 253.272344 217.822282 
L 259.05901 215.323257 
L 264.845677 211.501983 
L 270.632344 206.675024 
L 276.41901 201.255026 
L 282.205677 196.421718 
L 287.992344 193.637445 
L 293.77901 192.745737 
L 299.565677 191.47446 
L 305.352344 188.70762 
L 311.13901 186.138649 
L 316.925677 186.18742 
L 322.712344 190.136015 
L 328.49901 195.98128 
L 334.285677 199.116961 
L 340.072344 198.153223 
L 345.85901 195.68353 
L 351.645677 193.407223 
L 357.432344 189.383755 
L 363.21901 182.923072 
L 369.005677 179.910023 
L 374.792344 181.018986 
L 380.57901 179.27659 
L 386.365677 177.038257 
L 392.152344 182.165533 
L 397.93901 188.379104 
L 403.725677 186.159781 
L 409.512344 179.00411 
L 415.29901 173.371235 
L 421.085677 170.010482 
L 426.872344 168.500747 
L 432.65901 179.588275 
L 438.445677 203.302496 
L 444.232344 228.059708 
L 450.01901 246.105774 
L 455.805677 249.919177 
L 461.592344 240.984857 
L 467.37901 229.735679 
L 473.165677 213.914343 
L 478.952344 186.805491 
L 484.73901 183.47377 
L 490.525677 218.033771 
L 496.312344 246.200869 
L 502.09901 242.182286 
L 507.885677 252.326421 
L 513.672344 267.873396 
L 519.45901 248.544322 
L 525.245677 219.821784 
L 531.032344 255.364208 
L 536.81901 317.578923 
L 542.605677 318.356104 
L 548.392344 297.084474 
L 554.17901 256.622854 
L 559.965677 154.277856 
L 565.752344 606.590508 
L 571.53901 1600.112933 
L 577.325677 1012.40918 
L 583.112344 557.245751 
L 588.89901 485.875179 
L 594.685677 448.72625 
L 600.472344 416.868155 
L 606.25901 391.604052 
L 612.045677 372.369913 
L 617.832344 357.046021 
L 617.832344 303.5181 
L 617.832344 303.5181 
L 612.045677 300.87884 
L 606.25901 292.826504 
L 600.472344 271.856811 
L 594.685677 224.859497 
L 588.89901 125.907684 
L 583.112344 -116.459422 
L 577.325677 -1077.817912 
L 571.53901 -2419.809528 
L 565.752344 -1395.556634 
L 559.965677 -846.38848 
L 554.17901 -465.440406 
L 548.392344 -151.987185 
L 542.605677 -97.505918 
L 536.81901 -213.170251 
L 531.032344 -322.639289 
L 525.245677 -316.413704 
L 519.45901 -227.633209 
L 513.672344 -138.01598 
L 507.885677 -61.46141 
L 502.09901 -49.511864 
L 496.312344 -111.974463 
L 490.525677 -161.535191 
L 484.73901 -148.136564 
L 478.952344 -87.304816 
L 473.165677 -21.072875 
L 467.37901 39.734985 
L 461.592344 73.38772 
L 455.805677 85.771733 
L 450.01901 89.318061 
L 444.232344 84.654831 
L 438.445677 69.527606 
L 432.65901 48.652367 
L 426.872344 32.275692 
L 421.085677 35.657331 
L 415.29901 62.127766 
L 409.512344 93.112956 
L 403.725677 113.371573 
L 397.93901 120.185361 
L 392.152344 122.335907 
L 386.365677 125.193991 
L 380.57901 127.41068 
L 374.792344 128.69301 
L 369.005677 132.150778 
L 363.21901 139.982549 
L 357.432344 149.406438 
L 351.645677 157.172735 
L 345.85901 164.653102 
L 340.072344 173.136003 
L 334.285677 177.4094 
L 328.49901 174.652191 
L 322.712344 169.568254 
L 316.925677 166.910606 
L 311.13901 167.976572 
L 305.352344 171.749788 
L 299.565677 175.657509 
L 293.77901 178.089327 
L 287.992344 180.402311 
L 282.205677 184.74825 
L 276.41901 190.605872 
L 270.632344 196.136082 
L 264.845677 201.243583 
L 259.05901 205.973232 
L 253.272344 209.313764 
L 247.485677 210.899808 
L 241.69901 211.766741 
L 235.912344 212.91098 
L 230.125677 214.570467 
L 224.33901 216.593485 
L 218.552344 218.867072 
L 212.765677 221.374617 
L 206.97901 223.970097 
L 201.192344 226.264972 
L 195.405677 227.926912 
L 189.61901 228.816741 
L 183.832344 229.1173 
L 178.045677 229.283329 
L 172.25901 229.706624 
L 166.472344 230.314149 
L 160.685677 230.492854 
L 154.89901 229.659287 
L 149.112344 228.087511 
L 143.325677 226.744769 
L 137.53901 226.098782 
L 131.752344 225.680757 
L 125.965677 225.10553 
L 120.17901 224.53006 
L 114.392344 224.047025 
L 108.605677 222.894055 
L 102.81901 220.148009 
L 97.032344 215.938014 
L 91.245677 211.185541 
L 85.45901 207.425015 
L 79.672344 206.22439 
L 73.885677 207.994885 
L 68.09901 212.019213 
L 62.312344 217.20788 
L 56.525677 222.461725 
L 50.73901 226.585134 
L 44.952344 228.767912 
z
" style="fill:#4c72b0;fill-opacity:0.2;stroke:#4c72b0;stroke-opacity:0.2;"/>
   </g>
   <g id="patch_3">
    <path d="M 70.992344 285 
L 70.992344 13.2 
" style="fill:none;stroke:#000000;stroke-linecap:square;stroke-linejoin:miter;stroke-width:0.8;"/>
   </g>
   <g id="patch_4">
    <path d="M 70.992344 285 
L 461.592344 285 
" style="fill:none;stroke:#000000;stroke-linecap:square;stroke-linejoin:miter;stroke-width:0.8;"/>
   </g>
   <g id="line2d_22">
    <path clip-path="url(#pcac91a2954)" d="M 44.952344 272.325197 
L 50.73901 265.678321 
L 56.525677 256.643406 
L 62.312344 245.928979 
L 68.09901 234.813032 
L 73.885677 225.04316 
L 79.672344 218.40932 
L 85.45901 215.960954 
L 91.245677 217.347622 
L 97.032344 220.831578 
L 102.81901 224.200453 
L 108.605677 226.143148 
L 114.392344 226.903176 
L 120.17901 227.419755 
L 125.965677 228.02159 
L 131.752344 228.395325 
L 137.53901 228.534523 
L 143.325677 229.021962 
L 149.112344 230.230098 
L 154.89901 231.646071 
L 160.685677 232.335885 
L 166.472344 231.992822 
L 172.25901 231.244661 
L 178.045677 230.81269 
L 183.832344 230.689514 
L 189.61901 230.375228 
L 195.405677 229.493141 
L 201.192344 227.951744 
L 206.97901 225.865117 
L 212.765677 223.544023 
L 218.552344 221.341062 
L 224.33901 219.421075 
L 230.125677 217.831154 
L 235.912344 216.615578 
L 241.69901 215.758746 
L 247.485677 214.99965 
L 253.272344 213.568023 
L 259.05901 210.648244 
L 264.845677 206.372783 
L 270.632344 201.405553 
L 276.41901 195.930449 
L 282.205677 190.584984 
L 287.992344 187.019878 
L 293.77901 185.417532 
L 299.565677 183.565985 
L 305.352344 180.228704 
L 311.13901 177.05761 
L 316.925677 176.549013 
L 322.712344 179.852134 
L 328.49901 185.316736 
L 334.285677 188.26318 
L 340.072344 185.644613 
L 345.85901 180.168316 
L 351.645677 175.289979 
L 357.432344 169.395096 
L 363.21901 161.45281 
L 369.005677 156.0304 
L 374.792344 154.855998 
L 380.57901 153.343635 
L 386.365677 151.116124 
L 392.152344 152.25072 
L 397.93901 154.282232 
L 403.725677 149.765677 
L 409.512344 136.058533 
L 415.29901 117.7495 
L 421.085677 102.833907 
L 426.872344 100.38822 
L 432.65901 114.120321 
L 438.445677 136.415051 
L 444.232344 156.35727 
L 450.01901 167.711918 
L 455.805677 167.845455 
L 461.592344 157.186288 
L 467.37901 134.735332 
L 473.165677 96.420734 
L 478.063594 56.918249 
" style="fill:none;stroke:#4c72b0;stroke-linecap:square;stroke-width:1.5;"/>
   </g>
  </g>
 </g>
 <defs>
  <clipPath id="pcac91a2954">
   <rect height="271.8" width="390.6" x="70.992344" y="13.2"/>
  </clipPath>
 </defs>
</svg>
