<?xml version="1.0" encoding="utf-8" standalone="no"?>
<!DOCTYPE svg PUBLIC "-//W3C//DTD SVG 1.1//EN"
  "http://www.w3.org/Graphics/SVG/1.1/DTD/svg11.dtd">
<!-- Created with matplotlib (http://matplotlib.org/) -->
<svg height="341pt" version="1.1" viewBox="0 0 476 341" width="476pt" xmlns="http://www.w3.org/2000/svg" xmlns:xlink="http://www.w3.org/1999/xlink">
 <defs>
  <style type="text/css">
*{stroke-linecap:butt;stroke-linejoin:round;}
  </style>
 </defs>
 <g id="figure_1">
  <g id="patch_1">
   <path d="M 0 341.137812 
L 476.301562 341.137812 
L 476.301562 0 
L 0 0 
z
" style="fill:#ffffff;"/>
  </g>
  <g id="axes_1">
   <g id="patch_2">
    <path d="M 72.501563 285 
L 463.101562 285 
L 463.101562 13.2 
L 72.501563 13.2 
z
" style="fill:#ffffff;"/>
   </g>
   <g id="PolyCollection_1">
    <path clip-path="url(#p02dc2d603f)" d="M 69.407195 284.999909 
L 69.407195 285 
L 71.301971 285 
L 73.196747 285 
L 75.091522 285 
L 76.986298 285 
L 78.881074 285 
L 80.775849 285 
L 82.670625 285 
L 84.565401 285 
L 86.460177 285 
L 88.354952 285 
L 90.249728 285 
L 92.144504 285 
L 94.039279 285 
L 95.934055 285 
L 97.828831 285 
L 99.723606 285 
L 101.618382 285 
L 103.513158 285 
L 105.407933 285 
L 107.302709 285 
L 109.197485 285 
L 111.09226 285 
L 112.987036 285 
L 114.881812 285 
L 116.776587 285 
L 118.671363 285 
L 120.566139 285 
L 122.460914 285 
L 124.35569 285 
L 126.250466 285 
L 128.145242 285 
L 130.040017 285 
L 131.934793 285 
L 133.829569 285 
L 135.724344 285 
L 137.61912 285 
L 139.513896 285 
L 141.408671 285 
L 143.303447 285 
L 145.198223 285 
L 147.092998 285 
L 148.987774 285 
L 150.88255 285 
L 152.777325 285 
L 154.672101 285 
L 156.566877 285 
L 158.461652 285 
L 160.356428 285 
L 162.251204 285 
L 164.14598 285 
L 166.040755 285 
L 167.935531 285 
L 169.830307 285 
L 171.725082 285 
L 173.619858 285 
L 175.514634 285 
L 177.409409 285 
L 179.304185 285 
L 181.198961 285 
L 183.093736 285 
L 184.988512 285 
L 186.883288 285 
L 188.778063 285 
L 190.672839 285 
L 192.567615 285 
L 194.46239 285 
L 196.357166 285 
L 198.251942 285 
L 200.146718 285 
L 202.041493 285 
L 203.936269 285 
L 205.831045 285 
L 207.72582 285 
L 209.620596 285 
L 211.515372 285 
L 213.410147 285 
L 215.304923 285 
L 217.199699 285 
L 219.094474 285 
L 220.98925 285 
L 222.884026 285 
L 224.778801 285 
L 226.673577 285 
L 228.568353 285 
L 230.463128 285 
L 232.357904 285 
L 234.25268 285 
L 236.147455 285 
L 238.042231 285 
L 239.937007 285 
L 241.831783 285 
L 243.726558 285 
L 245.621334 285 
L 247.51611 285 
L 249.410885 285 
L 251.305661 285 
L 253.200437 285 
L 255.095212 285 
L 256.989988 285 
L 258.884764 285 
L 260.779539 285 
L 262.674315 285 
L 264.569091 285 
L 266.463866 285 
L 268.358642 285 
L 270.253418 285 
L 272.148193 285 
L 274.042969 285 
L 275.937745 285 
L 277.832521 285 
L 279.727296 285 
L 281.622072 285 
L 283.516848 285 
L 285.411623 285 
L 287.306399 285 
L 289.201175 285 
L 291.09595 285 
L 292.990726 285 
L 294.885502 285 
L 296.780277 285 
L 298.675053 285 
L 300.569829 285 
L 302.464604 285 
L 304.35938 285 
L 306.254156 285 
L 308.148931 285 
L 310.043707 285 
L 311.938483 285 
L 313.833259 285 
L 315.728034 285 
L 317.62281 285 
L 319.517586 285 
L 321.412361 285 
L 323.307137 285 
L 325.201913 285 
L 327.096688 285 
L 328.991464 285 
L 330.88624 285 
L 332.781015 285 
L 334.675791 285 
L 336.570567 285 
L 338.465342 285 
L 340.360118 285 
L 342.254894 285 
L 344.149669 285 
L 346.044445 285 
L 347.939221 285 
L 349.833996 285 
L 351.728772 285 
L 353.623548 285 
L 355.518324 285 
L 357.413099 285 
L 359.307875 285 
L 361.202651 285 
L 363.097426 285 
L 364.992202 285 
L 366.886978 285 
L 368.781753 285 
L 370.676529 285 
L 372.571305 285 
L 374.46608 285 
L 376.360856 285 
L 378.255632 285 
L 380.150407 285 
L 382.045183 285 
L 383.939959 285 
L 385.834734 285 
L 387.72951 285 
L 389.624286 285 
L 391.519062 285 
L 393.413837 285 
L 395.308613 285 
L 397.203389 285 
L 399.098164 285 
L 400.99294 285 
L 402.887716 285 
L 404.782491 285 
L 406.677267 285 
L 408.572043 285 
L 410.466818 285 
L 412.361594 285 
L 414.25637 285 
L 416.151145 285 
L 418.045921 285 
L 419.940697 285 
L 421.835472 285 
L 423.730248 285 
L 425.625024 285 
L 427.5198 285 
L 429.414575 285 
L 431.309351 285 
L 433.204127 285 
L 435.098902 285 
L 436.993678 285 
L 438.888454 285 
L 440.783229 285 
L 442.678005 285 
L 444.572781 285 
L 446.467556 285 
L 448.362332 285 
L 450.257108 285 
L 452.151883 285 
L 454.046659 285 
L 455.941435 285 
L 457.83621 285 
L 459.730986 285 
L 461.625762 285 
L 463.520537 285 
L 465.415313 285 
L 467.310089 285 
L 469.204865 285 
L 471.09964 285 
L 472.994416 285 
L 474.889192 285 
L 476.783967 285 
L 478.678743 285 
L 480.573519 285 
L 482.468294 285 
L 484.36307 285 
L 486.257846 285 
L 488.152621 285 
L 490.047397 285 
L 491.942173 285 
L 493.836948 285 
L 495.731724 285 
L 497.6265 285 
L 499.521275 285 
L 501.416051 285 
L 503.310827 285 
L 505.205603 285 
L 507.100378 285 
L 508.995154 285 
L 510.88993 285 
L 512.784705 285 
L 514.679481 285 
L 516.574257 285 
L 518.469032 285 
L 520.363808 285 
L 522.258584 285 
L 524.153359 285 
L 526.048135 285 
L 527.942911 285 
L 529.837686 285 
L 531.732462 285 
L 533.627238 285 
L 535.522013 285 
L 537.416789 285 
L 539.311565 285 
L 541.206341 285 
L 543.101116 285 
L 544.995892 285 
L 546.890668 285 
L 548.785443 285 
L 550.680219 285 
L 552.574995 285 
L 554.46977 285 
L 556.364546 285 
L 558.259322 285 
L 560.154097 285 
L 562.048873 285 
L 563.943649 285 
L 565.838424 285 
L 567.7332 285 
L 569.627976 285 
L 571.522751 285 
L 573.417527 285 
L 575.312303 285 
L 577.207078 285 
L 579.101854 285 
L 580.99663 285 
L 582.891406 285 
L 584.786181 285 
L 586.680957 285 
L 588.575733 285 
L 590.470508 285 
L 592.365284 285 
L 594.26006 285 
L 596.154835 285 
L 598.049611 285 
L 599.944387 285 
L 601.839162 285 
L 603.733938 285 
L 605.628714 285 
L 607.523489 285 
L 609.418265 285 
L 611.313041 285 
L 613.207816 285 
L 615.102592 285 
L 616.997368 285 
L 618.892144 285 
L 620.786919 285 
L 622.681695 285 
L 624.576471 285 
L 626.471246 285 
L 628.366022 285 
L 630.260798 285 
L 632.155573 285 
L 634.050349 285 
L 635.945125 285 
L 635.945125 284.999975 
L 635.945125 284.999975 
L 634.050349 284.999783 
L 632.155573 284.999002 
L 630.260798 284.997484 
L 628.366022 284.99631 
L 626.471246 284.996676 
L 624.576471 284.997955 
L 622.681695 284.998379 
L 620.786919 284.997864 
L 618.892144 284.997995 
L 616.997368 284.99863 
L 615.102592 284.998378 
L 613.207816 284.997819 
L 611.313041 284.998337 
L 609.418265 284.999356 
L 607.523489 284.999874 
L 605.628714 284.999982 
L 603.733938 284.999928 
L 601.839162 284.999558 
L 599.944387 284.998617 
L 598.049611 284.99775 
L 596.154835 284.997755 
L 594.26006 284.997768 
L 592.365284 284.997528 
L 590.470508 284.997656 
L 588.575733 284.997498 
L 586.680957 284.997094 
L 584.786181 284.996987 
L 582.891406 284.997122 
L 580.99663 284.997123 
L 579.101854 284.99619 
L 577.207078 284.995018 
L 575.312303 284.995153 
L 573.417527 284.996812 
L 571.522751 284.998227 
L 569.627976 284.997386 
L 567.7332 284.994319 
L 565.838424 284.991625 
L 563.943649 284.991989 
L 562.048873 284.994908 
L 560.154097 284.997623 
L 558.259322 284.997935 
L 556.364546 284.995472 
L 554.46977 284.992355 
L 552.574995 284.992044 
L 550.680219 284.994422 
L 548.785443 284.99661 
L 546.890668 284.997608 
L 544.995892 284.997037 
L 543.101116 284.9953 
L 541.206341 284.993382 
L 539.311565 284.99125 
L 537.416789 284.988841 
L 535.522013 284.988176 
L 533.627238 284.989912 
L 531.732462 284.990581 
L 529.837686 284.989218 
L 527.942911 284.988565 
L 526.048135 284.988691 
L 524.153359 284.989338 
L 522.258584 284.991437 
L 520.363808 284.993509 
L 518.469032 284.994026 
L 516.574257 284.993991 
L 514.679481 284.99333 
L 512.784705 284.991736 
L 510.88993 284.99087 
L 508.995154 284.991626 
L 507.100378 284.99296 
L 505.205603 284.992237 
L 503.310827 284.988565 
L 501.416051 284.983999 
L 499.521275 284.980079 
L 497.6265 284.978167 
L 495.731724 284.979178 
L 493.836948 284.981612 
L 491.942173 284.982773 
L 490.047397 284.981183 
L 488.152621 284.97952 
L 486.257846 284.981282 
L 484.36307 284.984267 
L 482.468294 284.983804 
L 480.573519 284.979067 
L 478.678743 284.972844 
L 476.783967 284.970522 
L 474.889192 284.973804 
L 472.994416 284.976372 
L 471.09964 284.973464 
L 469.204865 284.968773 
L 467.310089 284.968378 
L 465.415313 284.971363 
L 463.520537 284.971317 
L 461.625762 284.967074 
L 459.730986 284.962678 
L 457.83621 284.959201 
L 455.941435 284.954091 
L 454.046659 284.946326 
L 452.151883 284.942891 
L 450.257108 284.947035 
L 448.362332 284.951417 
L 446.467556 284.953111 
L 444.572781 284.95349 
L 442.678005 284.948358 
L 440.783229 284.934356 
L 438.888454 284.916868 
L 436.993678 284.908688 
L 435.098902 284.915725 
L 433.204127 284.923577 
L 431.309351 284.922871 
L 429.414575 284.920275 
L 427.5198 284.919357 
L 425.625024 284.9163 
L 423.730248 284.910413 
L 421.835472 284.904347 
L 419.940697 284.89553 
L 418.045921 284.883533 
L 416.151145 284.874528 
L 414.25637 284.868014 
L 412.361594 284.858507 
L 410.466818 284.849314 
L 408.572043 284.846321 
L 406.677267 284.842357 
L 404.782491 284.829258 
L 402.887716 284.811101 
L 400.99294 284.798822 
L 399.098164 284.791041 
L 397.203389 284.777384 
L 395.308613 284.760568 
L 393.413837 284.747995 
L 391.519062 284.737591 
L 389.624286 284.728109 
L 387.72951 284.721745 
L 385.834734 284.712096 
L 383.939959 284.68371 
L 382.045183 284.643626 
L 380.150407 284.615192 
L 378.255632 284.593035 
L 376.360856 284.565781 
L 374.46608 284.544116 
L 372.571305 284.520813 
L 370.676529 284.48524 
L 368.781753 284.453646 
L 366.886978 284.431973 
L 364.992202 284.408323 
L 363.097426 284.368081 
L 361.202651 284.315272 
L 359.307875 284.269019 
L 357.413099 284.226875 
L 355.518324 284.184516 
L 353.623548 284.134856 
L 351.728772 284.071841 
L 349.833996 284.001253 
L 347.939221 283.93448 
L 346.044445 283.887828 
L 344.149669 283.826614 
L 342.254894 283.71905 
L 340.360118 283.589995 
L 338.465342 283.456175 
L 336.570567 283.344243 
L 334.675791 283.293672 
L 332.781015 283.2526 
L 330.88624 283.146692 
L 328.991464 282.977751 
L 327.096688 282.796195 
L 325.201913 282.645703 
L 323.307137 282.505201 
L 321.412361 282.342991 
L 319.517586 282.161131 
L 317.62281 281.95621 
L 315.728034 281.728503 
L 313.833259 281.485529 
L 311.938483 281.22795 
L 310.043707 280.944156 
L 308.148931 280.631355 
L 306.254156 280.317809 
L 304.35938 280.01476 
L 302.464604 279.670208 
L 300.569829 279.269929 
L 298.675053 278.846474 
L 296.780277 278.411712 
L 294.885502 277.977734 
L 292.990726 277.508706 
L 291.09595 276.970338 
L 289.201175 276.394273 
L 287.306399 275.803341 
L 285.411623 275.238036 
L 283.516848 274.716917 
L 281.622072 274.131584 
L 279.727296 273.424622 
L 277.832521 272.67657 
L 275.937745 271.876783 
L 274.042969 270.963833 
L 272.148193 269.912518 
L 270.253418 268.723356 
L 268.358642 267.542349 
L 266.463866 266.495831 
L 264.569091 265.439587 
L 262.674315 264.189888 
L 260.779539 262.763914 
L 258.884764 261.297311 
L 256.989988 259.880174 
L 255.095212 258.413277 
L 253.200437 256.766374 
L 251.305661 254.99769 
L 249.410885 253.101575 
L 247.51611 250.922877 
L 245.621334 248.453312 
L 243.726558 245.885462 
L 241.831783 243.377882 
L 239.937007 240.861873 
L 238.042231 238.256798 
L 236.147455 235.695106 
L 234.25268 233.19233 
L 232.357904 230.483783 
L 230.463128 227.417125 
L 228.568353 223.952946 
L 226.673577 220.001234 
L 224.778801 215.859342 
L 222.884026 211.999388 
L 220.98925 208.206044 
L 219.094474 204.111629 
L 217.199699 199.832979 
L 215.304923 195.334385 
L 213.410147 190.437838 
L 211.515372 185.33934 
L 209.620596 180.119751 
L 207.72582 174.718306 
L 205.831045 169.271156 
L 203.936269 163.692503 
L 202.041493 157.844026 
L 200.146718 151.837953 
L 198.251942 145.871545 
L 196.357166 140.001922 
L 194.46239 133.964636 
L 192.567615 127.462558 
L 190.672839 120.716169 
L 188.778063 114.310005 
L 186.883288 108.323454 
L 184.988512 102.325041 
L 183.093736 95.861393 
L 181.198961 89.055258 
L 179.304185 82.68775 
L 177.409409 77.160078 
L 175.514634 71.809968 
L 173.619858 66.09245 
L 171.725082 60.590747 
L 169.830307 55.640766 
L 167.935531 50.98861 
L 166.040755 46.690673 
L 164.14598 43.014775 
L 162.251204 39.863058 
L 160.356428 37.110233 
L 158.461652 35.10385 
L 156.566877 33.990029 
L 154.672101 33.819139 
L 152.777325 34.615934 
L 150.88255 36.080614 
L 148.987774 37.91103 
L 147.092998 40.211455 
L 145.198223 43.261266 
L 143.303447 46.971206 
L 141.408671 51.378505 
L 139.513896 56.945355 
L 137.61912 63.619763 
L 135.724344 70.669255 
L 133.829569 77.571253 
L 131.934793 84.578363 
L 130.040017 92.247014 
L 128.145242 100.741229 
L 126.250466 109.754972 
L 124.35569 119.231791 
L 122.460914 128.980218 
L 120.566139 138.474168 
L 118.671363 147.760154 
L 116.776587 157.004687 
L 114.881812 166.026434 
L 112.987036 174.762858 
L 111.09226 183.313729 
L 109.197485 191.736063 
L 107.302709 199.963092 
L 105.407933 207.801732 
L 103.513158 215.31637 
L 101.618382 222.802734 
L 99.723606 230.288939 
L 97.828831 237.630044 
L 95.934055 244.893898 
L 94.039279 252.211177 
L 92.144504 259.536027 
L 90.249728 266.510404 
L 88.354952 272.625478 
L 86.460177 277.467961 
L 84.565401 280.837394 
L 82.670625 282.865872 
L 80.775849 283.961556 
L 78.881074 284.530635 
L 76.986298 284.81932 
L 75.091522 284.947587 
L 73.196747 284.989745 
L 71.301971 284.998748 
L 69.407195 284.999909 
z
" style="fill:#4c72b0;fill-opacity:0.1;"/>
   </g>
   <g id="matplotlib.axis_1">
    <g id="xtick_1">
     <g id="line2d_1">
      <defs>
       <path d="M 0 0 
L 0 6 
" id="m0563a6ebaf" style="stroke:#262626;"/>
      </defs>
      <g>
       <use style="fill:#262626;stroke:#262626;" x="72.501563" xlink:href="#m0563a6ebaf" y="285"/>
      </g>
     </g>
     <g id="text_1">
      <!-- 0 -->
      <defs>
       <path d="M 31.78125 66.40625 
Q 24.171875 66.40625 20.328125 58.90625 
Q 16.5 51.421875 16.5 36.375 
Q 16.5 21.390625 20.328125 13.890625 
Q 24.171875 6.390625 31.78125 6.390625 
Q 39.453125 6.390625 43.28125 13.890625 
Q 47.125 21.390625 47.125 36.375 
Q 47.125 51.421875 43.28125 58.90625 
Q 39.453125 66.40625 31.78125 66.40625 
z
M 31.78125 74.21875 
Q 44.046875 74.21875 50.515625 64.515625 
Q 56.984375 54.828125 56.984375 36.375 
Q 56.984375 17.96875 50.515625 8.265625 
Q 44.046875 -1.421875 31.78125 -1.421875 
Q 19.53125 -1.421875 13.0625 8.265625 
Q 6.59375 17.96875 6.59375 36.375 
Q 6.59375 54.828125 13.0625 64.515625 
Q 19.53125 74.21875 31.78125 74.21875 
z
" id="DejaVuSans-30"/>
      </defs>
      <g style="fill:#262626;" transform="translate(68.365938 307.877969)scale(0.13 -0.13)">
       <use xlink:href="#DejaVuSans-30"/>
      </g>
     </g>
    </g>
    <g id="xtick_2">
     <g id="line2d_2">
      <g>
       <use style="fill:#262626;stroke:#262626;" x="146.199676" xlink:href="#m0563a6ebaf" y="285"/>
      </g>
     </g>
     <g id="text_2">
      <!-- 10 -->
      <defs>
       <path d="M 12.40625 8.296875 
L 28.515625 8.296875 
L 28.515625 63.921875 
L 10.984375 60.40625 
L 10.984375 69.390625 
L 28.421875 72.90625 
L 38.28125 72.90625 
L 38.28125 8.296875 
L 54.390625 8.296875 
L 54.390625 0 
L 12.40625 0 
z
" id="DejaVuSans-31"/>
      </defs>
      <g style="fill:#262626;" transform="translate(137.928426 307.877969)scale(0.13 -0.13)">
       <use xlink:href="#DejaVuSans-31"/>
       <use x="63.623047" xlink:href="#DejaVuSans-30"/>
      </g>
     </g>
    </g>
    <g id="xtick_3">
     <g id="line2d_3">
      <g>
       <use style="fill:#262626;stroke:#262626;" x="219.897789" xlink:href="#m0563a6ebaf" y="285"/>
      </g>
     </g>
     <g id="text_3">
      <!-- 20 -->
      <defs>
       <path d="M 19.1875 8.296875 
L 53.609375 8.296875 
L 53.609375 0 
L 7.328125 0 
L 7.328125 8.296875 
Q 12.9375 14.109375 22.625 23.890625 
Q 32.328125 33.6875 34.8125 36.53125 
Q 39.546875 41.84375 41.421875 45.53125 
Q 43.3125 49.21875 43.3125 52.78125 
Q 43.3125 58.59375 39.234375 62.25 
Q 35.15625 65.921875 28.609375 65.921875 
Q 23.96875 65.921875 18.8125 64.3125 
Q 13.671875 62.703125 7.8125 59.421875 
L 7.8125 69.390625 
Q 13.765625 71.78125 18.9375 73 
Q 24.125 74.21875 28.421875 74.21875 
Q 39.75 74.21875 46.484375 68.546875 
Q 53.21875 62.890625 53.21875 53.421875 
Q 53.21875 48.921875 51.53125 44.890625 
Q 49.859375 40.875 45.40625 35.40625 
Q 44.1875 33.984375 37.640625 27.21875 
Q 31.109375 20.453125 19.1875 8.296875 
z
" id="DejaVuSans-32"/>
      </defs>
      <g style="fill:#262626;" transform="translate(211.626539 307.877969)scale(0.13 -0.13)">
       <use xlink:href="#DejaVuSans-32"/>
       <use x="63.623047" xlink:href="#DejaVuSans-30"/>
      </g>
     </g>
    </g>
    <g id="xtick_4">
     <g id="line2d_4">
      <g>
       <use style="fill:#262626;stroke:#262626;" x="293.595902" xlink:href="#m0563a6ebaf" y="285"/>
      </g>
     </g>
     <g id="text_4">
      <!-- 30 -->
      <defs>
       <path d="M 40.578125 39.3125 
Q 47.65625 37.796875 51.625 33 
Q 55.609375 28.21875 55.609375 21.1875 
Q 55.609375 10.40625 48.1875 4.484375 
Q 40.765625 -1.421875 27.09375 -1.421875 
Q 22.515625 -1.421875 17.65625 -0.515625 
Q 12.796875 0.390625 7.625 2.203125 
L 7.625 11.71875 
Q 11.71875 9.328125 16.59375 8.109375 
Q 21.484375 6.890625 26.8125 6.890625 
Q 36.078125 6.890625 40.9375 10.546875 
Q 45.796875 14.203125 45.796875 21.1875 
Q 45.796875 27.640625 41.28125 31.265625 
Q 36.765625 34.90625 28.71875 34.90625 
L 20.21875 34.90625 
L 20.21875 43.015625 
L 29.109375 43.015625 
Q 36.375 43.015625 40.234375 45.921875 
Q 44.09375 48.828125 44.09375 54.296875 
Q 44.09375 59.90625 40.109375 62.90625 
Q 36.140625 65.921875 28.71875 65.921875 
Q 24.65625 65.921875 20.015625 65.03125 
Q 15.375 64.15625 9.8125 62.3125 
L 9.8125 71.09375 
Q 15.4375 72.65625 20.34375 73.4375 
Q 25.25 74.21875 29.59375 74.21875 
Q 40.828125 74.21875 47.359375 69.109375 
Q 53.90625 64.015625 53.90625 55.328125 
Q 53.90625 49.265625 50.4375 45.09375 
Q 46.96875 40.921875 40.578125 39.3125 
z
" id="DejaVuSans-33"/>
      </defs>
      <g style="fill:#262626;" transform="translate(285.324652 307.877969)scale(0.13 -0.13)">
       <use xlink:href="#DejaVuSans-33"/>
       <use x="63.623047" xlink:href="#DejaVuSans-30"/>
      </g>
     </g>
    </g>
    <g id="xtick_5">
     <g id="line2d_5">
      <g>
       <use style="fill:#262626;stroke:#262626;" x="367.294015" xlink:href="#m0563a6ebaf" y="285"/>
      </g>
     </g>
     <g id="text_5">
      <!-- 40 -->
      <defs>
       <path d="M 37.796875 64.3125 
L 12.890625 25.390625 
L 37.796875 25.390625 
z
M 35.203125 72.90625 
L 47.609375 72.90625 
L 47.609375 25.390625 
L 58.015625 25.390625 
L 58.015625 17.1875 
L 47.609375 17.1875 
L 47.609375 0 
L 37.796875 0 
L 37.796875 17.1875 
L 4.890625 17.1875 
L 4.890625 26.703125 
z
" id="DejaVuSans-34"/>
      </defs>
      <g style="fill:#262626;" transform="translate(359.022765 307.877969)scale(0.13 -0.13)">
       <use xlink:href="#DejaVuSans-34"/>
       <use x="63.623047" xlink:href="#DejaVuSans-30"/>
      </g>
     </g>
    </g>
    <g id="xtick_6">
     <g id="line2d_6">
      <g>
       <use style="fill:#262626;stroke:#262626;" x="440.992129" xlink:href="#m0563a6ebaf" y="285"/>
      </g>
     </g>
     <g id="text_6">
      <!-- 50 -->
      <defs>
       <path d="M 10.796875 72.90625 
L 49.515625 72.90625 
L 49.515625 64.59375 
L 19.828125 64.59375 
L 19.828125 46.734375 
Q 21.96875 47.46875 24.109375 47.828125 
Q 26.265625 48.1875 28.421875 48.1875 
Q 40.625 48.1875 47.75 41.5 
Q 54.890625 34.8125 54.890625 23.390625 
Q 54.890625 11.625 47.5625 5.09375 
Q 40.234375 -1.421875 26.90625 -1.421875 
Q 22.3125 -1.421875 17.546875 -0.640625 
Q 12.796875 0.140625 7.71875 1.703125 
L 7.71875 11.625 
Q 12.109375 9.234375 16.796875 8.0625 
Q 21.484375 6.890625 26.703125 6.890625 
Q 35.15625 6.890625 40.078125 11.328125 
Q 45.015625 15.765625 45.015625 23.390625 
Q 45.015625 31 40.078125 35.4375 
Q 35.15625 39.890625 26.703125 39.890625 
Q 22.75 39.890625 18.8125 39.015625 
Q 14.890625 38.140625 10.796875 36.28125 
z
" id="DejaVuSans-35"/>
      </defs>
      <g style="fill:#262626;" transform="translate(432.720879 307.877969)scale(0.13 -0.13)">
       <use xlink:href="#DejaVuSans-35"/>
       <use x="63.623047" xlink:href="#DejaVuSans-30"/>
      </g>
     </g>
    </g>
    <g id="text_7">
     <!-- Document Similarity -->
     <defs>
      <path d="M 19.671875 64.796875 
L 19.671875 8.109375 
L 31.59375 8.109375 
Q 46.6875 8.109375 53.6875 14.9375 
Q 60.6875 21.78125 60.6875 36.53125 
Q 60.6875 51.171875 53.6875 57.984375 
Q 46.6875 64.796875 31.59375 64.796875 
z
M 9.8125 72.90625 
L 30.078125 72.90625 
Q 51.265625 72.90625 61.171875 64.09375 
Q 71.09375 55.28125 71.09375 36.53125 
Q 71.09375 17.671875 61.125 8.828125 
Q 51.171875 0 30.078125 0 
L 9.8125 0 
z
" id="DejaVuSans-44"/>
      <path d="M 30.609375 48.390625 
Q 23.390625 48.390625 19.1875 42.75 
Q 14.984375 37.109375 14.984375 27.296875 
Q 14.984375 17.484375 19.15625 11.84375 
Q 23.34375 6.203125 30.609375 6.203125 
Q 37.796875 6.203125 41.984375 11.859375 
Q 46.1875 17.53125 46.1875 27.296875 
Q 46.1875 37.015625 41.984375 42.703125 
Q 37.796875 48.390625 30.609375 48.390625 
z
M 30.609375 56 
Q 42.328125 56 49.015625 48.375 
Q 55.71875 40.765625 55.71875 27.296875 
Q 55.71875 13.875 49.015625 6.21875 
Q 42.328125 -1.421875 30.609375 -1.421875 
Q 18.84375 -1.421875 12.171875 6.21875 
Q 5.515625 13.875 5.515625 27.296875 
Q 5.515625 40.765625 12.171875 48.375 
Q 18.84375 56 30.609375 56 
z
" id="DejaVuSans-6f"/>
      <path d="M 48.78125 52.59375 
L 48.78125 44.1875 
Q 44.96875 46.296875 41.140625 47.34375 
Q 37.3125 48.390625 33.40625 48.390625 
Q 24.65625 48.390625 19.8125 42.84375 
Q 14.984375 37.3125 14.984375 27.296875 
Q 14.984375 17.28125 19.8125 11.734375 
Q 24.65625 6.203125 33.40625 6.203125 
Q 37.3125 6.203125 41.140625 7.25 
Q 44.96875 8.296875 48.78125 10.40625 
L 48.78125 2.09375 
Q 45.015625 0.34375 40.984375 -0.53125 
Q 36.96875 -1.421875 32.421875 -1.421875 
Q 20.0625 -1.421875 12.78125 6.34375 
Q 5.515625 14.109375 5.515625 27.296875 
Q 5.515625 40.671875 12.859375 48.328125 
Q 20.21875 56 33.015625 56 
Q 37.15625 56 41.109375 55.140625 
Q 45.0625 54.296875 48.78125 52.59375 
z
" id="DejaVuSans-63"/>
      <path d="M 8.5 21.578125 
L 8.5 54.6875 
L 17.484375 54.6875 
L 17.484375 21.921875 
Q 17.484375 14.15625 20.5 10.265625 
Q 23.53125 6.390625 29.59375 6.390625 
Q 36.859375 6.390625 41.078125 11.03125 
Q 45.3125 15.671875 45.3125 23.6875 
L 45.3125 54.6875 
L 54.296875 54.6875 
L 54.296875 0 
L 45.3125 0 
L 45.3125 8.40625 
Q 42.046875 3.421875 37.71875 1 
Q 33.40625 -1.421875 27.6875 -1.421875 
Q 18.265625 -1.421875 13.375 4.4375 
Q 8.5 10.296875 8.5 21.578125 
z
M 31.109375 56 
z
" id="DejaVuSans-75"/>
      <path d="M 52 44.1875 
Q 55.375 50.25 60.0625 53.125 
Q 64.75 56 71.09375 56 
Q 79.640625 56 84.28125 50.015625 
Q 88.921875 44.046875 88.921875 33.015625 
L 88.921875 0 
L 79.890625 0 
L 79.890625 32.71875 
Q 79.890625 40.578125 77.09375 44.375 
Q 74.3125 48.1875 68.609375 48.1875 
Q 61.625 48.1875 57.5625 43.546875 
Q 53.515625 38.921875 53.515625 30.90625 
L 53.515625 0 
L 44.484375 0 
L 44.484375 32.71875 
Q 44.484375 40.625 41.703125 44.40625 
Q 38.921875 48.1875 33.109375 48.1875 
Q 26.21875 48.1875 22.15625 43.53125 
Q 18.109375 38.875 18.109375 30.90625 
L 18.109375 0 
L 9.078125 0 
L 9.078125 54.6875 
L 18.109375 54.6875 
L 18.109375 46.1875 
Q 21.1875 51.21875 25.484375 53.609375 
Q 29.78125 56 35.6875 56 
Q 41.65625 56 45.828125 52.96875 
Q 50 49.953125 52 44.1875 
z
" id="DejaVuSans-6d"/>
      <path d="M 56.203125 29.59375 
L 56.203125 25.203125 
L 14.890625 25.203125 
Q 15.484375 15.921875 20.484375 11.0625 
Q 25.484375 6.203125 34.421875 6.203125 
Q 39.59375 6.203125 44.453125 7.46875 
Q 49.3125 8.734375 54.109375 11.28125 
L 54.109375 2.78125 
Q 49.265625 0.734375 44.1875 -0.34375 
Q 39.109375 -1.421875 33.890625 -1.421875 
Q 20.796875 -1.421875 13.15625 6.1875 
Q 5.515625 13.8125 5.515625 26.8125 
Q 5.515625 40.234375 12.765625 48.109375 
Q 20.015625 56 32.328125 56 
Q 43.359375 56 49.78125 48.890625 
Q 56.203125 41.796875 56.203125 29.59375 
z
M 47.21875 32.234375 
Q 47.125 39.59375 43.09375 43.984375 
Q 39.0625 48.390625 32.421875 48.390625 
Q 24.90625 48.390625 20.390625 44.140625 
Q 15.875 39.890625 15.1875 32.171875 
z
" id="DejaVuSans-65"/>
      <path d="M 54.890625 33.015625 
L 54.890625 0 
L 45.90625 0 
L 45.90625 32.71875 
Q 45.90625 40.484375 42.875 44.328125 
Q 39.84375 48.1875 33.796875 48.1875 
Q 26.515625 48.1875 22.3125 43.546875 
Q 18.109375 38.921875 18.109375 30.90625 
L 18.109375 0 
L 9.078125 0 
L 9.078125 54.6875 
L 18.109375 54.6875 
L 18.109375 46.1875 
Q 21.34375 51.125 25.703125 53.5625 
Q 30.078125 56 35.796875 56 
Q 45.21875 56 50.046875 50.171875 
Q 54.890625 44.34375 54.890625 33.015625 
z
" id="DejaVuSans-6e"/>
      <path d="M 18.3125 70.21875 
L 18.3125 54.6875 
L 36.8125 54.6875 
L 36.8125 47.703125 
L 18.3125 47.703125 
L 18.3125 18.015625 
Q 18.3125 11.328125 20.140625 9.421875 
Q 21.96875 7.515625 27.59375 7.515625 
L 36.8125 7.515625 
L 36.8125 0 
L 27.59375 0 
Q 17.1875 0 13.234375 3.875 
Q 9.28125 7.765625 9.28125 18.015625 
L 9.28125 47.703125 
L 2.6875 47.703125 
L 2.6875 54.6875 
L 9.28125 54.6875 
L 9.28125 70.21875 
z
" id="DejaVuSans-74"/>
      <path id="DejaVuSans-20"/>
      <path d="M 53.515625 70.515625 
L 53.515625 60.890625 
Q 47.90625 63.578125 42.921875 64.890625 
Q 37.9375 66.21875 33.296875 66.21875 
Q 25.25 66.21875 20.875 63.09375 
Q 16.5 59.96875 16.5 54.203125 
Q 16.5 49.359375 19.40625 46.890625 
Q 22.3125 44.4375 30.421875 42.921875 
L 36.375 41.703125 
Q 47.40625 39.59375 52.65625 34.296875 
Q 57.90625 29 57.90625 20.125 
Q 57.90625 9.515625 50.796875 4.046875 
Q 43.703125 -1.421875 29.984375 -1.421875 
Q 24.8125 -1.421875 18.96875 -0.25 
Q 13.140625 0.921875 6.890625 3.21875 
L 6.890625 13.375 
Q 12.890625 10.015625 18.65625 8.296875 
Q 24.421875 6.59375 29.984375 6.59375 
Q 38.421875 6.59375 43.015625 9.90625 
Q 47.609375 13.234375 47.609375 19.390625 
Q 47.609375 24.75 44.3125 27.78125 
Q 41.015625 30.8125 33.5 32.328125 
L 27.484375 33.5 
Q 16.453125 35.6875 11.515625 40.375 
Q 6.59375 45.0625 6.59375 53.421875 
Q 6.59375 63.09375 13.40625 68.65625 
Q 20.21875 74.21875 32.171875 74.21875 
Q 37.3125 74.21875 42.625 73.28125 
Q 47.953125 72.359375 53.515625 70.515625 
z
" id="DejaVuSans-53"/>
      <path d="M 9.421875 54.6875 
L 18.40625 54.6875 
L 18.40625 0 
L 9.421875 0 
z
M 9.421875 75.984375 
L 18.40625 75.984375 
L 18.40625 64.59375 
L 9.421875 64.59375 
z
" id="DejaVuSans-69"/>
      <path d="M 9.421875 75.984375 
L 18.40625 75.984375 
L 18.40625 0 
L 9.421875 0 
z
" id="DejaVuSans-6c"/>
      <path d="M 34.28125 27.484375 
Q 23.390625 27.484375 19.1875 25 
Q 14.984375 22.515625 14.984375 16.5 
Q 14.984375 11.71875 18.140625 8.90625 
Q 21.296875 6.109375 26.703125 6.109375 
Q 34.1875 6.109375 38.703125 11.40625 
Q 43.21875 16.703125 43.21875 25.484375 
L 43.21875 27.484375 
z
M 52.203125 31.203125 
L 52.203125 0 
L 43.21875 0 
L 43.21875 8.296875 
Q 40.140625 3.328125 35.546875 0.953125 
Q 30.953125 -1.421875 24.3125 -1.421875 
Q 15.921875 -1.421875 10.953125 3.296875 
Q 6 8.015625 6 15.921875 
Q 6 25.140625 12.171875 29.828125 
Q 18.359375 34.515625 30.609375 34.515625 
L 43.21875 34.515625 
L 43.21875 35.40625 
Q 43.21875 41.609375 39.140625 45 
Q 35.0625 48.390625 27.6875 48.390625 
Q 23 48.390625 18.546875 47.265625 
Q 14.109375 46.140625 10.015625 43.890625 
L 10.015625 52.203125 
Q 14.9375 54.109375 19.578125 55.046875 
Q 24.21875 56 28.609375 56 
Q 40.484375 56 46.34375 49.84375 
Q 52.203125 43.703125 52.203125 31.203125 
z
" id="DejaVuSans-61"/>
      <path d="M 41.109375 46.296875 
Q 39.59375 47.171875 37.8125 47.578125 
Q 36.03125 48 33.890625 48 
Q 26.265625 48 22.1875 43.046875 
Q 18.109375 38.09375 18.109375 28.8125 
L 18.109375 0 
L 9.078125 0 
L 9.078125 54.6875 
L 18.109375 54.6875 
L 18.109375 46.1875 
Q 20.953125 51.171875 25.484375 53.578125 
Q 30.03125 56 36.53125 56 
Q 37.453125 56 38.578125 55.875 
Q 39.703125 55.765625 41.0625 55.515625 
z
" id="DejaVuSans-72"/>
      <path d="M 32.171875 -5.078125 
Q 28.375 -14.84375 24.75 -17.8125 
Q 21.140625 -20.796875 15.09375 -20.796875 
L 7.90625 -20.796875 
L 7.90625 -13.28125 
L 13.1875 -13.28125 
Q 16.890625 -13.28125 18.9375 -11.515625 
Q 21 -9.765625 23.484375 -3.21875 
L 25.09375 0.875 
L 2.984375 54.6875 
L 12.5 54.6875 
L 29.59375 11.921875 
L 46.6875 54.6875 
L 56.203125 54.6875 
z
" id="DejaVuSans-79"/>
     </defs>
     <g style="fill:#262626;" transform="translate(165.5375 329.778437)scale(0.2 -0.2)">
      <use xlink:href="#DejaVuSans-44"/>
      <use x="77.001953" xlink:href="#DejaVuSans-6f"/>
      <use x="138.183594" xlink:href="#DejaVuSans-63"/>
      <use x="193.164062" xlink:href="#DejaVuSans-75"/>
      <use x="256.542969" xlink:href="#DejaVuSans-6d"/>
      <use x="353.955078" xlink:href="#DejaVuSans-65"/>
      <use x="415.478516" xlink:href="#DejaVuSans-6e"/>
      <use x="478.857422" xlink:href="#DejaVuSans-74"/>
      <use x="518.066406" xlink:href="#DejaVuSans-20"/>
      <use x="549.853516" xlink:href="#DejaVuSans-53"/>
      <use x="613.330078" xlink:href="#DejaVuSans-69"/>
      <use x="641.113281" xlink:href="#DejaVuSans-6d"/>
      <use x="738.525391" xlink:href="#DejaVuSans-69"/>
      <use x="766.308594" xlink:href="#DejaVuSans-6c"/>
      <use x="794.091797" xlink:href="#DejaVuSans-61"/>
      <use x="855.371094" xlink:href="#DejaVuSans-72"/>
      <use x="896.484375" xlink:href="#DejaVuSans-69"/>
      <use x="924.267578" xlink:href="#DejaVuSans-74"/>
      <use x="963.476562" xlink:href="#DejaVuSans-79"/>
     </g>
    </g>
   </g>
   <g id="matplotlib.axis_2">
    <g id="ytick_1">
     <g id="line2d_7">
      <defs>
       <path d="M 0 0 
L -6 0 
" id="me50b615ce2" style="stroke:#262626;"/>
      </defs>
      <g>
       <use style="fill:#262626;stroke:#262626;" x="72.501563" xlink:href="#me50b615ce2" y="285"/>
      </g>
     </g>
     <g id="text_8">
      <!-- 0.00 -->
      <defs>
       <path d="M 10.6875 12.40625 
L 21 12.40625 
L 21 0 
L 10.6875 0 
z
" id="DejaVuSans-2e"/>
      </defs>
      <g style="fill:#262626;" transform="translate(30.55625 289.938984)scale(0.13 -0.13)">
       <use xlink:href="#DejaVuSans-30"/>
       <use x="63.623047" xlink:href="#DejaVuSans-2e"/>
       <use x="95.410156" xlink:href="#DejaVuSans-30"/>
       <use x="159.033203" xlink:href="#DejaVuSans-30"/>
      </g>
     </g>
    </g>
    <g id="ytick_2">
     <g id="line2d_8">
      <g>
       <use style="fill:#262626;stroke:#262626;" x="72.501563" xlink:href="#me50b615ce2" y="253.023529"/>
      </g>
     </g>
     <g id="text_9">
      <!-- 0.01 -->
      <g style="fill:#262626;" transform="translate(30.55625 257.962514)scale(0.13 -0.13)">
       <use xlink:href="#DejaVuSans-30"/>
       <use x="63.623047" xlink:href="#DejaVuSans-2e"/>
       <use x="95.410156" xlink:href="#DejaVuSans-30"/>
       <use x="159.033203" xlink:href="#DejaVuSans-31"/>
      </g>
     </g>
    </g>
    <g id="ytick_3">
     <g id="line2d_9">
      <g>
       <use style="fill:#262626;stroke:#262626;" x="72.501563" xlink:href="#me50b615ce2" y="221.047059"/>
      </g>
     </g>
     <g id="text_10">
      <!-- 0.02 -->
      <g style="fill:#262626;" transform="translate(30.55625 225.986043)scale(0.13 -0.13)">
       <use xlink:href="#DejaVuSans-30"/>
       <use x="63.623047" xlink:href="#DejaVuSans-2e"/>
       <use x="95.410156" xlink:href="#DejaVuSans-30"/>
       <use x="159.033203" xlink:href="#DejaVuSans-32"/>
      </g>
     </g>
    </g>
    <g id="ytick_4">
     <g id="line2d_10">
      <g>
       <use style="fill:#262626;stroke:#262626;" x="72.501563" xlink:href="#me50b615ce2" y="189.070588"/>
      </g>
     </g>
     <g id="text_11">
      <!-- 0.03 -->
      <g style="fill:#262626;" transform="translate(30.55625 194.009573)scale(0.13 -0.13)">
       <use xlink:href="#DejaVuSans-30"/>
       <use x="63.623047" xlink:href="#DejaVuSans-2e"/>
       <use x="95.410156" xlink:href="#DejaVuSans-30"/>
       <use x="159.033203" xlink:href="#DejaVuSans-33"/>
      </g>
     </g>
    </g>
    <g id="ytick_5">
     <g id="line2d_11">
      <g>
       <use style="fill:#262626;stroke:#262626;" x="72.501563" xlink:href="#me50b615ce2" y="157.094118"/>
      </g>
     </g>
     <g id="text_12">
      <!-- 0.04 -->
      <g style="fill:#262626;" transform="translate(30.55625 162.033102)scale(0.13 -0.13)">
       <use xlink:href="#DejaVuSans-30"/>
       <use x="63.623047" xlink:href="#DejaVuSans-2e"/>
       <use x="95.410156" xlink:href="#DejaVuSans-30"/>
       <use x="159.033203" xlink:href="#DejaVuSans-34"/>
      </g>
     </g>
    </g>
    <g id="ytick_6">
     <g id="line2d_12">
      <g>
       <use style="fill:#262626;stroke:#262626;" x="72.501563" xlink:href="#me50b615ce2" y="125.117647"/>
      </g>
     </g>
     <g id="text_13">
      <!-- 0.05 -->
      <g style="fill:#262626;" transform="translate(30.55625 130.056631)scale(0.13 -0.13)">
       <use xlink:href="#DejaVuSans-30"/>
       <use x="63.623047" xlink:href="#DejaVuSans-2e"/>
       <use x="95.410156" xlink:href="#DejaVuSans-30"/>
       <use x="159.033203" xlink:href="#DejaVuSans-35"/>
      </g>
     </g>
    </g>
    <g id="ytick_7">
     <g id="line2d_13">
      <g>
       <use style="fill:#262626;stroke:#262626;" x="72.501563" xlink:href="#me50b615ce2" y="93.141176"/>
      </g>
     </g>
     <g id="text_14">
      <!-- 0.06 -->
      <defs>
       <path d="M 33.015625 40.375 
Q 26.375 40.375 22.484375 35.828125 
Q 18.609375 31.296875 18.609375 23.390625 
Q 18.609375 15.53125 22.484375 10.953125 
Q 26.375 6.390625 33.015625 6.390625 
Q 39.65625 6.390625 43.53125 10.953125 
Q 47.40625 15.53125 47.40625 23.390625 
Q 47.40625 31.296875 43.53125 35.828125 
Q 39.65625 40.375 33.015625 40.375 
z
M 52.59375 71.296875 
L 52.59375 62.3125 
Q 48.875 64.0625 45.09375 64.984375 
Q 41.3125 65.921875 37.59375 65.921875 
Q 27.828125 65.921875 22.671875 59.328125 
Q 17.53125 52.734375 16.796875 39.40625 
Q 19.671875 43.65625 24.015625 45.921875 
Q 28.375 48.1875 33.59375 48.1875 
Q 44.578125 48.1875 50.953125 41.515625 
Q 57.328125 34.859375 57.328125 23.390625 
Q 57.328125 12.15625 50.6875 5.359375 
Q 44.046875 -1.421875 33.015625 -1.421875 
Q 20.359375 -1.421875 13.671875 8.265625 
Q 6.984375 17.96875 6.984375 36.375 
Q 6.984375 53.65625 15.1875 63.9375 
Q 23.390625 74.21875 37.203125 74.21875 
Q 40.921875 74.21875 44.703125 73.484375 
Q 48.484375 72.75 52.59375 71.296875 
z
" id="DejaVuSans-36"/>
      </defs>
      <g style="fill:#262626;" transform="translate(30.55625 98.080161)scale(0.13 -0.13)">
       <use xlink:href="#DejaVuSans-30"/>
       <use x="63.623047" xlink:href="#DejaVuSans-2e"/>
       <use x="95.410156" xlink:href="#DejaVuSans-30"/>
       <use x="159.033203" xlink:href="#DejaVuSans-36"/>
      </g>
     </g>
    </g>
    <g id="ytick_8">
     <g id="line2d_14">
      <g>
       <use style="fill:#262626;stroke:#262626;" x="72.501563" xlink:href="#me50b615ce2" y="61.164706"/>
      </g>
     </g>
     <g id="text_15">
      <!-- 0.07 -->
      <defs>
       <path d="M 8.203125 72.90625 
L 55.078125 72.90625 
L 55.078125 68.703125 
L 28.609375 0 
L 18.3125 0 
L 43.21875 64.59375 
L 8.203125 64.59375 
z
" id="DejaVuSans-37"/>
      </defs>
      <g style="fill:#262626;" transform="translate(30.55625 66.10369)scale(0.13 -0.13)">
       <use xlink:href="#DejaVuSans-30"/>
       <use x="63.623047" xlink:href="#DejaVuSans-2e"/>
       <use x="95.410156" xlink:href="#DejaVuSans-30"/>
       <use x="159.033203" xlink:href="#DejaVuSans-37"/>
      </g>
     </g>
    </g>
    <g id="ytick_9">
     <g id="line2d_15">
      <g>
       <use style="fill:#262626;stroke:#262626;" x="72.501563" xlink:href="#me50b615ce2" y="29.188235"/>
      </g>
     </g>
     <g id="text_16">
      <!-- 0.08 -->
      <defs>
       <path d="M 31.78125 34.625 
Q 24.75 34.625 20.71875 30.859375 
Q 16.703125 27.09375 16.703125 20.515625 
Q 16.703125 13.921875 20.71875 10.15625 
Q 24.75 6.390625 31.78125 6.390625 
Q 38.8125 6.390625 42.859375 10.171875 
Q 46.921875 13.96875 46.921875 20.515625 
Q 46.921875 27.09375 42.890625 30.859375 
Q 38.875 34.625 31.78125 34.625 
z
M 21.921875 38.8125 
Q 15.578125 40.375 12.03125 44.71875 
Q 8.5 49.078125 8.5 55.328125 
Q 8.5 64.0625 14.71875 69.140625 
Q 20.953125 74.21875 31.78125 74.21875 
Q 42.671875 74.21875 48.875 69.140625 
Q 55.078125 64.0625 55.078125 55.328125 
Q 55.078125 49.078125 51.53125 44.71875 
Q 48 40.375 41.703125 38.8125 
Q 48.828125 37.15625 52.796875 32.3125 
Q 56.78125 27.484375 56.78125 20.515625 
Q 56.78125 9.90625 50.3125 4.234375 
Q 43.84375 -1.421875 31.78125 -1.421875 
Q 19.734375 -1.421875 13.25 4.234375 
Q 6.78125 9.90625 6.78125 20.515625 
Q 6.78125 27.484375 10.78125 32.3125 
Q 14.796875 37.15625 21.921875 38.8125 
z
M 18.3125 54.390625 
Q 18.3125 48.734375 21.84375 45.5625 
Q 25.390625 42.390625 31.78125 42.390625 
Q 38.140625 42.390625 41.71875 45.5625 
Q 45.3125 48.734375 45.3125 54.390625 
Q 45.3125 60.0625 41.71875 63.234375 
Q 38.140625 66.40625 31.78125 66.40625 
Q 25.390625 66.40625 21.84375 63.234375 
Q 18.3125 60.0625 18.3125 54.390625 
z
" id="DejaVuSans-38"/>
      </defs>
      <g style="fill:#262626;" transform="translate(30.55625 34.12722)scale(0.13 -0.13)">
       <use xlink:href="#DejaVuSans-30"/>
       <use x="63.623047" xlink:href="#DejaVuSans-2e"/>
       <use x="95.410156" xlink:href="#DejaVuSans-30"/>
       <use x="159.033203" xlink:href="#DejaVuSans-38"/>
      </g>
     </g>
    </g>
    <g id="text_17">
     <!-- Density -->
     <defs>
      <path d="M 44.28125 53.078125 
L 44.28125 44.578125 
Q 40.484375 46.53125 36.375 47.5 
Q 32.28125 48.484375 27.875 48.484375 
Q 21.1875 48.484375 17.84375 46.4375 
Q 14.5 44.390625 14.5 40.28125 
Q 14.5 37.15625 16.890625 35.375 
Q 19.28125 33.59375 26.515625 31.984375 
L 29.59375 31.296875 
Q 39.15625 29.25 43.1875 25.515625 
Q 47.21875 21.78125 47.21875 15.09375 
Q 47.21875 7.46875 41.1875 3.015625 
Q 35.15625 -1.421875 24.609375 -1.421875 
Q 20.21875 -1.421875 15.453125 -0.5625 
Q 10.6875 0.296875 5.421875 2 
L 5.421875 11.28125 
Q 10.40625 8.6875 15.234375 7.390625 
Q 20.0625 6.109375 24.8125 6.109375 
Q 31.15625 6.109375 34.5625 8.28125 
Q 37.984375 10.453125 37.984375 14.40625 
Q 37.984375 18.0625 35.515625 20.015625 
Q 33.0625 21.96875 24.703125 23.78125 
L 21.578125 24.515625 
Q 13.234375 26.265625 9.515625 29.90625 
Q 5.8125 33.546875 5.8125 39.890625 
Q 5.8125 47.609375 11.28125 51.796875 
Q 16.75 56 26.8125 56 
Q 31.78125 56 36.171875 55.265625 
Q 40.578125 54.546875 44.28125 53.078125 
z
" id="DejaVuSans-73"/>
     </defs>
     <g style="fill:#262626;" transform="translate(22.396875 187.117188)rotate(-90)scale(0.2 -0.2)">
      <use xlink:href="#DejaVuSans-44"/>
      <use x="77.001953" xlink:href="#DejaVuSans-65"/>
      <use x="138.525391" xlink:href="#DejaVuSans-6e"/>
      <use x="201.904297" xlink:href="#DejaVuSans-73"/>
      <use x="254.003906" xlink:href="#DejaVuSans-69"/>
      <use x="281.787109" xlink:href="#DejaVuSans-74"/>
      <use x="320.996094" xlink:href="#DejaVuSans-79"/>
     </g>
    </g>
   </g>
   <g id="line2d_16">
    <path clip-path="url(#p02dc2d603f)" d="M 69.407195 284.999909 
L 75.091522 284.947587 
L 76.986298 284.81932 
L 78.881074 284.530635 
L 80.775849 283.961556 
L 82.670625 282.865872 
L 84.565401 280.837394 
L 86.460177 277.467961 
L 88.354952 272.625478 
L 90.249728 266.510404 
L 94.039279 252.211177 
L 103.513158 215.31637 
L 107.302709 199.963092 
L 111.09226 183.313729 
L 114.881812 166.026434 
L 120.566139 138.474168 
L 128.145242 100.741229 
L 130.040017 92.247014 
L 131.934793 84.578363 
L 139.513896 56.945355 
L 141.408671 51.378505 
L 143.303447 46.971206 
L 145.198223 43.261266 
L 147.092998 40.211455 
L 148.987774 37.91103 
L 150.88255 36.080614 
L 152.777325 34.615934 
L 154.672101 33.819139 
L 156.566877 33.990029 
L 158.461652 35.10385 
L 160.356428 37.110233 
L 162.251204 39.863058 
L 164.14598 43.014775 
L 166.040755 46.690673 
L 167.935531 50.98861 
L 169.830307 55.640766 
L 171.725082 60.590747 
L 179.304185 82.68775 
L 181.198961 89.055258 
L 184.988512 102.325041 
L 188.778063 114.310005 
L 192.567615 127.462558 
L 194.46239 133.964636 
L 202.041493 157.844026 
L 205.831045 169.271156 
L 211.515372 185.33934 
L 215.304923 195.334385 
L 219.094474 204.111629 
L 220.98925 208.206044 
L 224.778801 215.859342 
L 228.568353 223.952946 
L 230.463128 227.417125 
L 232.357904 230.483783 
L 234.25268 233.19233 
L 243.726558 245.885462 
L 247.51611 250.922877 
L 249.410885 253.101575 
L 253.200437 256.766374 
L 255.095212 258.413277 
L 262.674315 264.189888 
L 264.569091 265.439587 
L 270.253418 268.723356 
L 272.148193 269.912518 
L 274.042969 270.963833 
L 277.832521 272.67657 
L 281.622072 274.131584 
L 291.09595 276.970338 
L 294.885502 277.977734 
L 302.464604 279.670208 
L 310.043707 280.944156 
L 315.728034 281.728503 
L 321.412361 282.342991 
L 332.781015 283.2526 
L 338.465342 283.456175 
L 346.044445 283.887828 
L 378.255632 284.593035 
L 408.572043 284.846321 
L 477.301562 284.971156 
L 477.301562 284.971156 
" style="fill:none;stroke:#4c72b0;stroke-linecap:square;stroke-width:1.75;"/>
   </g>
   <g id="patch_3">
    <path d="M 72.501563 285 
L 72.501563 13.2 
" style="fill:none;stroke:#000000;stroke-linecap:square;stroke-linejoin:miter;stroke-width:0.8;"/>
   </g>
   <g id="patch_4">
    <path d="M 72.501563 285 
L 463.101562 285 
" style="fill:none;stroke:#000000;stroke-linecap:square;stroke-linejoin:miter;stroke-width:0.8;"/>
   </g>
  </g>
 </g>
 <defs>
  <clipPath id="p02dc2d603f">
   <rect height="271.8" width="390.6" x="72.501563" y="13.2"/>
  </clipPath>
 </defs>
</svg>
