<?xml version="1.0" encoding="utf-8" standalone="no"?>
<!DOCTYPE svg PUBLIC "-//W3C//DTD SVG 1.1//EN"
  "http://www.w3.org/Graphics/SVG/1.1/DTD/svg11.dtd">
<!-- Created with matplotlib (http://matplotlib.org/) -->
<svg height="356pt" version="1.1" viewBox="0 0 1032 356" width="1032pt" xmlns="http://www.w3.org/2000/svg" xmlns:xlink="http://www.w3.org/1999/xlink">
 <defs>
  <style type="text/css">
*{stroke-linecap:butt;stroke-linejoin:round;}
  </style>
 </defs>
 <g id="figure_1">
  <g id="patch_1">
   <path d="M 0 356.334687 
L 1032.792344 356.334687 
L 1032.792344 0 
L 0 0 
z
" style="fill:#ffffff;"/>
  </g>
  <g id="axes_1">
   <g id="patch_2">
    <path d="M 70.992344 300.196875 
L 349.992344 300.196875 
L 349.992344 28.396875 
L 70.992344 28.396875 
z
" style="fill:#ffffff;"/>
   </g>
   <g id="matplotlib.axis_1">
    <g id="xtick_1">
     <g id="line2d_1">
      <defs>
       <path d="M 0 0 
L 0 6 
" id="m68e24ccbf9" style="stroke:#262626;"/>
      </defs>
      <g>
       <use style="fill:#262626;stroke:#262626;" x="70.992344" xlink:href="#m68e24ccbf9" y="300.196875"/>
      </g>
     </g>
     <g id="text_1">
      <!-- 0 -->
      <defs>
       <path d="M 31.78125 66.40625 
Q 24.171875 66.40625 20.328125 58.90625 
Q 16.5 51.421875 16.5 36.375 
Q 16.5 21.390625 20.328125 13.890625 
Q 24.171875 6.390625 31.78125 6.390625 
Q 39.453125 6.390625 43.28125 13.890625 
Q 47.125 21.390625 47.125 36.375 
Q 47.125 51.421875 43.28125 58.90625 
Q 39.453125 66.40625 31.78125 66.40625 
z
M 31.78125 74.21875 
Q 44.046875 74.21875 50.515625 64.515625 
Q 56.984375 54.828125 56.984375 36.375 
Q 56.984375 17.96875 50.515625 8.265625 
Q 44.046875 -1.421875 31.78125 -1.421875 
Q 19.53125 -1.421875 13.0625 8.265625 
Q 6.59375 17.96875 6.59375 36.375 
Q 6.59375 54.828125 13.0625 64.515625 
Q 19.53125 74.21875 31.78125 74.21875 
z
" id="DejaVuSans-30"/>
      </defs>
      <g style="fill:#262626;" transform="translate(66.856719 323.074844)scale(0.13 -0.13)">
       <use xlink:href="#DejaVuSans-30"/>
      </g>
     </g>
    </g>
    <g id="xtick_2">
     <g id="line2d_2">
      <g>
       <use style="fill:#262626;stroke:#262626;" x="132.992344" xlink:href="#m68e24ccbf9" y="300.196875"/>
      </g>
     </g>
     <g id="text_2">
      <!-- 10 -->
      <defs>
       <path d="M 12.40625 8.296875 
L 28.515625 8.296875 
L 28.515625 63.921875 
L 10.984375 60.40625 
L 10.984375 69.390625 
L 28.421875 72.90625 
L 38.28125 72.90625 
L 38.28125 8.296875 
L 54.390625 8.296875 
L 54.390625 0 
L 12.40625 0 
z
" id="DejaVuSans-31"/>
      </defs>
      <g style="fill:#262626;" transform="translate(124.721094 323.074844)scale(0.13 -0.13)">
       <use xlink:href="#DejaVuSans-31"/>
       <use x="63.623047" xlink:href="#DejaVuSans-30"/>
      </g>
     </g>
    </g>
    <g id="xtick_3">
     <g id="line2d_3">
      <g>
       <use style="fill:#262626;stroke:#262626;" x="194.992344" xlink:href="#m68e24ccbf9" y="300.196875"/>
      </g>
     </g>
     <g id="text_3">
      <!-- 20 -->
      <defs>
       <path d="M 19.1875 8.296875 
L 53.609375 8.296875 
L 53.609375 0 
L 7.328125 0 
L 7.328125 8.296875 
Q 12.9375 14.109375 22.625 23.890625 
Q 32.328125 33.6875 34.8125 36.53125 
Q 39.546875 41.84375 41.421875 45.53125 
Q 43.3125 49.21875 43.3125 52.78125 
Q 43.3125 58.59375 39.234375 62.25 
Q 35.15625 65.921875 28.609375 65.921875 
Q 23.96875 65.921875 18.8125 64.3125 
Q 13.671875 62.703125 7.8125 59.421875 
L 7.8125 69.390625 
Q 13.765625 71.78125 18.9375 73 
Q 24.125 74.21875 28.421875 74.21875 
Q 39.75 74.21875 46.484375 68.546875 
Q 53.21875 62.890625 53.21875 53.421875 
Q 53.21875 48.921875 51.53125 44.890625 
Q 49.859375 40.875 45.40625 35.40625 
Q 44.1875 33.984375 37.640625 27.21875 
Q 31.109375 20.453125 19.1875 8.296875 
z
" id="DejaVuSans-32"/>
      </defs>
      <g style="fill:#262626;" transform="translate(186.721094 323.074844)scale(0.13 -0.13)">
       <use xlink:href="#DejaVuSans-32"/>
       <use x="63.623047" xlink:href="#DejaVuSans-30"/>
      </g>
     </g>
    </g>
    <g id="xtick_4">
     <g id="line2d_4">
      <g>
       <use style="fill:#262626;stroke:#262626;" x="256.992344" xlink:href="#m68e24ccbf9" y="300.196875"/>
      </g>
     </g>
     <g id="text_4">
      <!-- 30 -->
      <defs>
       <path d="M 40.578125 39.3125 
Q 47.65625 37.796875 51.625 33 
Q 55.609375 28.21875 55.609375 21.1875 
Q 55.609375 10.40625 48.1875 4.484375 
Q 40.765625 -1.421875 27.09375 -1.421875 
Q 22.515625 -1.421875 17.65625 -0.515625 
Q 12.796875 0.390625 7.625 2.203125 
L 7.625 11.71875 
Q 11.71875 9.328125 16.59375 8.109375 
Q 21.484375 6.890625 26.8125 6.890625 
Q 36.078125 6.890625 40.9375 10.546875 
Q 45.796875 14.203125 45.796875 21.1875 
Q 45.796875 27.640625 41.28125 31.265625 
Q 36.765625 34.90625 28.71875 34.90625 
L 20.21875 34.90625 
L 20.21875 43.015625 
L 29.109375 43.015625 
Q 36.375 43.015625 40.234375 45.921875 
Q 44.09375 48.828125 44.09375 54.296875 
Q 44.09375 59.90625 40.109375 62.90625 
Q 36.140625 65.921875 28.71875 65.921875 
Q 24.65625 65.921875 20.015625 65.03125 
Q 15.375 64.15625 9.8125 62.3125 
L 9.8125 71.09375 
Q 15.4375 72.65625 20.34375 73.4375 
Q 25.25 74.21875 29.59375 74.21875 
Q 40.828125 74.21875 47.359375 69.109375 
Q 53.90625 64.015625 53.90625 55.328125 
Q 53.90625 49.265625 50.4375 45.09375 
Q 46.96875 40.921875 40.578125 39.3125 
z
" id="DejaVuSans-33"/>
      </defs>
      <g style="fill:#262626;" transform="translate(248.721094 323.074844)scale(0.13 -0.13)">
       <use xlink:href="#DejaVuSans-33"/>
       <use x="63.623047" xlink:href="#DejaVuSans-30"/>
      </g>
     </g>
    </g>
    <g id="xtick_5">
     <g id="line2d_5">
      <g>
       <use style="fill:#262626;stroke:#262626;" x="318.992344" xlink:href="#m68e24ccbf9" y="300.196875"/>
      </g>
     </g>
     <g id="text_5">
      <!-- 40 -->
      <defs>
       <path d="M 37.796875 64.3125 
L 12.890625 25.390625 
L 37.796875 25.390625 
z
M 35.203125 72.90625 
L 47.609375 72.90625 
L 47.609375 25.390625 
L 58.015625 25.390625 
L 58.015625 17.1875 
L 47.609375 17.1875 
L 47.609375 0 
L 37.796875 0 
L 37.796875 17.1875 
L 4.890625 17.1875 
L 4.890625 26.703125 
z
" id="DejaVuSans-34"/>
      </defs>
      <g style="fill:#262626;" transform="translate(310.721094 323.074844)scale(0.13 -0.13)">
       <use xlink:href="#DejaVuSans-34"/>
       <use x="63.623047" xlink:href="#DejaVuSans-30"/>
      </g>
     </g>
    </g>
    <g id="text_6">
     <!-- Similarity -->
     <defs>
      <path d="M 53.515625 70.515625 
L 53.515625 60.890625 
Q 47.90625 63.578125 42.921875 64.890625 
Q 37.9375 66.21875 33.296875 66.21875 
Q 25.25 66.21875 20.875 63.09375 
Q 16.5 59.96875 16.5 54.203125 
Q 16.5 49.359375 19.40625 46.890625 
Q 22.3125 44.4375 30.421875 42.921875 
L 36.375 41.703125 
Q 47.40625 39.59375 52.65625 34.296875 
Q 57.90625 29 57.90625 20.125 
Q 57.90625 9.515625 50.796875 4.046875 
Q 43.703125 -1.421875 29.984375 -1.421875 
Q 24.8125 -1.421875 18.96875 -0.25 
Q 13.140625 0.921875 6.890625 3.21875 
L 6.890625 13.375 
Q 12.890625 10.015625 18.65625 8.296875 
Q 24.421875 6.59375 29.984375 6.59375 
Q 38.421875 6.59375 43.015625 9.90625 
Q 47.609375 13.234375 47.609375 19.390625 
Q 47.609375 24.75 44.3125 27.78125 
Q 41.015625 30.8125 33.5 32.328125 
L 27.484375 33.5 
Q 16.453125 35.6875 11.515625 40.375 
Q 6.59375 45.0625 6.59375 53.421875 
Q 6.59375 63.09375 13.40625 68.65625 
Q 20.21875 74.21875 32.171875 74.21875 
Q 37.3125 74.21875 42.625 73.28125 
Q 47.953125 72.359375 53.515625 70.515625 
z
" id="DejaVuSans-53"/>
      <path d="M 9.421875 54.6875 
L 18.40625 54.6875 
L 18.40625 0 
L 9.421875 0 
z
M 9.421875 75.984375 
L 18.40625 75.984375 
L 18.40625 64.59375 
L 9.421875 64.59375 
z
" id="DejaVuSans-69"/>
      <path d="M 52 44.1875 
Q 55.375 50.25 60.0625 53.125 
Q 64.75 56 71.09375 56 
Q 79.640625 56 84.28125 50.015625 
Q 88.921875 44.046875 88.921875 33.015625 
L 88.921875 0 
L 79.890625 0 
L 79.890625 32.71875 
Q 79.890625 40.578125 77.09375 44.375 
Q 74.3125 48.1875 68.609375 48.1875 
Q 61.625 48.1875 57.5625 43.546875 
Q 53.515625 38.921875 53.515625 30.90625 
L 53.515625 0 
L 44.484375 0 
L 44.484375 32.71875 
Q 44.484375 40.625 41.703125 44.40625 
Q 38.921875 48.1875 33.109375 48.1875 
Q 26.21875 48.1875 22.15625 43.53125 
Q 18.109375 38.875 18.109375 30.90625 
L 18.109375 0 
L 9.078125 0 
L 9.078125 54.6875 
L 18.109375 54.6875 
L 18.109375 46.1875 
Q 21.1875 51.21875 25.484375 53.609375 
Q 29.78125 56 35.6875 56 
Q 41.65625 56 45.828125 52.96875 
Q 50 49.953125 52 44.1875 
z
" id="DejaVuSans-6d"/>
      <path d="M 9.421875 75.984375 
L 18.40625 75.984375 
L 18.40625 0 
L 9.421875 0 
z
" id="DejaVuSans-6c"/>
      <path d="M 34.28125 27.484375 
Q 23.390625 27.484375 19.1875 25 
Q 14.984375 22.515625 14.984375 16.5 
Q 14.984375 11.71875 18.140625 8.90625 
Q 21.296875 6.109375 26.703125 6.109375 
Q 34.1875 6.109375 38.703125 11.40625 
Q 43.21875 16.703125 43.21875 25.484375 
L 43.21875 27.484375 
z
M 52.203125 31.203125 
L 52.203125 0 
L 43.21875 0 
L 43.21875 8.296875 
Q 40.140625 3.328125 35.546875 0.953125 
Q 30.953125 -1.421875 24.3125 -1.421875 
Q 15.921875 -1.421875 10.953125 3.296875 
Q 6 8.015625 6 15.921875 
Q 6 25.140625 12.171875 29.828125 
Q 18.359375 34.515625 30.609375 34.515625 
L 43.21875 34.515625 
L 43.21875 35.40625 
Q 43.21875 41.609375 39.140625 45 
Q 35.0625 48.390625 27.6875 48.390625 
Q 23 48.390625 18.546875 47.265625 
Q 14.109375 46.140625 10.015625 43.890625 
L 10.015625 52.203125 
Q 14.9375 54.109375 19.578125 55.046875 
Q 24.21875 56 28.609375 56 
Q 40.484375 56 46.34375 49.84375 
Q 52.203125 43.703125 52.203125 31.203125 
z
" id="DejaVuSans-61"/>
      <path d="M 41.109375 46.296875 
Q 39.59375 47.171875 37.8125 47.578125 
Q 36.03125 48 33.890625 48 
Q 26.265625 48 22.1875 43.046875 
Q 18.109375 38.09375 18.109375 28.8125 
L 18.109375 0 
L 9.078125 0 
L 9.078125 54.6875 
L 18.109375 54.6875 
L 18.109375 46.1875 
Q 20.953125 51.171875 25.484375 53.578125 
Q 30.03125 56 36.53125 56 
Q 37.453125 56 38.578125 55.875 
Q 39.703125 55.765625 41.0625 55.515625 
z
" id="DejaVuSans-72"/>
      <path d="M 18.3125 70.21875 
L 18.3125 54.6875 
L 36.8125 54.6875 
L 36.8125 47.703125 
L 18.3125 47.703125 
L 18.3125 18.015625 
Q 18.3125 11.328125 20.140625 9.421875 
Q 21.96875 7.515625 27.59375 7.515625 
L 36.8125 7.515625 
L 36.8125 0 
L 27.59375 0 
Q 17.1875 0 13.234375 3.875 
Q 9.28125 7.765625 9.28125 18.015625 
L 9.28125 47.703125 
L 2.6875 47.703125 
L 2.6875 54.6875 
L 9.28125 54.6875 
L 9.28125 70.21875 
z
" id="DejaVuSans-74"/>
      <path d="M 32.171875 -5.078125 
Q 28.375 -14.84375 24.75 -17.8125 
Q 21.140625 -20.796875 15.09375 -20.796875 
L 7.90625 -20.796875 
L 7.90625 -13.28125 
L 13.1875 -13.28125 
Q 16.890625 -13.28125 18.9375 -11.515625 
Q 21 -9.765625 23.484375 -3.21875 
L 25.09375 0.875 
L 2.984375 54.6875 
L 12.5 54.6875 
L 29.59375 11.921875 
L 46.6875 54.6875 
L 56.203125 54.6875 
z
" id="DejaVuSans-79"/>
     </defs>
     <g style="fill:#262626;" transform="translate(163.212656 344.975312)scale(0.2 -0.2)">
      <use xlink:href="#DejaVuSans-53"/>
      <use x="63.476562" xlink:href="#DejaVuSans-69"/>
      <use x="91.259766" xlink:href="#DejaVuSans-6d"/>
      <use x="188.671875" xlink:href="#DejaVuSans-69"/>
      <use x="216.455078" xlink:href="#DejaVuSans-6c"/>
      <use x="244.238281" xlink:href="#DejaVuSans-61"/>
      <use x="305.517578" xlink:href="#DejaVuSans-72"/>
      <use x="346.630859" xlink:href="#DejaVuSans-69"/>
      <use x="374.414062" xlink:href="#DejaVuSans-74"/>
      <use x="413.623047" xlink:href="#DejaVuSans-79"/>
     </g>
    </g>
   </g>
   <g id="matplotlib.axis_2">
    <g id="ytick_1">
     <g id="line2d_6">
      <defs>
       <path d="M 0 0 
L -6 0 
" id="m175f56845e" style="stroke:#262626;"/>
      </defs>
      <g>
       <use style="fill:#262626;stroke:#262626;" x="70.992344" xlink:href="#m175f56845e" y="300.196875"/>
      </g>
     </g>
     <g id="text_7">
      <!-- −40 -->
      <defs>
       <path d="M 10.59375 35.5 
L 73.1875 35.5 
L 73.1875 27.203125 
L 10.59375 27.203125 
z
" id="DejaVuSans-2212"/>
      </defs>
      <g style="fill:#262626;" transform="translate(30.55625 305.135859)scale(0.13 -0.13)">
       <use xlink:href="#DejaVuSans-2212"/>
       <use x="83.789062" xlink:href="#DejaVuSans-34"/>
       <use x="147.412109" xlink:href="#DejaVuSans-30"/>
      </g>
     </g>
    </g>
    <g id="ytick_2">
     <g id="line2d_7">
      <g>
       <use style="fill:#262626;stroke:#262626;" x="70.992344" xlink:href="#m175f56845e" y="266.221875"/>
      </g>
     </g>
     <g id="text_8">
      <!-- −30 -->
      <g style="fill:#262626;" transform="translate(30.55625 271.160859)scale(0.13 -0.13)">
       <use xlink:href="#DejaVuSans-2212"/>
       <use x="83.789062" xlink:href="#DejaVuSans-33"/>
       <use x="147.412109" xlink:href="#DejaVuSans-30"/>
      </g>
     </g>
    </g>
    <g id="ytick_3">
     <g id="line2d_8">
      <g>
       <use style="fill:#262626;stroke:#262626;" x="70.992344" xlink:href="#m175f56845e" y="232.246875"/>
      </g>
     </g>
     <g id="text_9">
      <!-- −20 -->
      <g style="fill:#262626;" transform="translate(30.55625 237.185859)scale(0.13 -0.13)">
       <use xlink:href="#DejaVuSans-2212"/>
       <use x="83.789062" xlink:href="#DejaVuSans-32"/>
       <use x="147.412109" xlink:href="#DejaVuSans-30"/>
      </g>
     </g>
    </g>
    <g id="ytick_4">
     <g id="line2d_9">
      <g>
       <use style="fill:#262626;stroke:#262626;" x="70.992344" xlink:href="#m175f56845e" y="198.271875"/>
      </g>
     </g>
     <g id="text_10">
      <!-- −10 -->
      <g style="fill:#262626;" transform="translate(30.55625 203.210859)scale(0.13 -0.13)">
       <use xlink:href="#DejaVuSans-2212"/>
       <use x="83.789062" xlink:href="#DejaVuSans-31"/>
       <use x="147.412109" xlink:href="#DejaVuSans-30"/>
      </g>
     </g>
    </g>
    <g id="ytick_5">
     <g id="line2d_10">
      <g>
       <use style="fill:#262626;stroke:#262626;" x="70.992344" xlink:href="#m175f56845e" y="164.296875"/>
      </g>
     </g>
     <g id="text_11">
      <!-- 0 -->
      <g style="fill:#262626;" transform="translate(49.721094 169.235859)scale(0.13 -0.13)">
       <use xlink:href="#DejaVuSans-30"/>
      </g>
     </g>
    </g>
    <g id="ytick_6">
     <g id="line2d_11">
      <g>
       <use style="fill:#262626;stroke:#262626;" x="70.992344" xlink:href="#m175f56845e" y="130.321875"/>
      </g>
     </g>
     <g id="text_12">
      <!-- 10 -->
      <g style="fill:#262626;" transform="translate(41.449844 135.260859)scale(0.13 -0.13)">
       <use xlink:href="#DejaVuSans-31"/>
       <use x="63.623047" xlink:href="#DejaVuSans-30"/>
      </g>
     </g>
    </g>
    <g id="ytick_7">
     <g id="line2d_12">
      <g>
       <use style="fill:#262626;stroke:#262626;" x="70.992344" xlink:href="#m175f56845e" y="96.346875"/>
      </g>
     </g>
     <g id="text_13">
      <!-- 20 -->
      <g style="fill:#262626;" transform="translate(41.449844 101.285859)scale(0.13 -0.13)">
       <use xlink:href="#DejaVuSans-32"/>
       <use x="63.623047" xlink:href="#DejaVuSans-30"/>
      </g>
     </g>
    </g>
    <g id="ytick_8">
     <g id="line2d_13">
      <g>
       <use style="fill:#262626;stroke:#262626;" x="70.992344" xlink:href="#m175f56845e" y="62.371875"/>
      </g>
     </g>
     <g id="text_14">
      <!-- 30 -->
      <g style="fill:#262626;" transform="translate(41.449844 67.310859)scale(0.13 -0.13)">
       <use xlink:href="#DejaVuSans-33"/>
       <use x="63.623047" xlink:href="#DejaVuSans-30"/>
      </g>
     </g>
    </g>
    <g id="ytick_9">
     <g id="line2d_14">
      <g>
       <use style="fill:#262626;stroke:#262626;" x="70.992344" xlink:href="#m175f56845e" y="28.396875"/>
      </g>
     </g>
     <g id="text_15">
      <!-- 40 -->
      <g style="fill:#262626;" transform="translate(41.449844 33.335859)scale(0.13 -0.13)">
       <use xlink:href="#DejaVuSans-34"/>
       <use x="63.623047" xlink:href="#DejaVuSans-30"/>
      </g>
     </g>
    </g>
    <g id="text_16">
     <!-- Density change (proportional) -->
     <defs>
      <path d="M 19.671875 64.796875 
L 19.671875 8.109375 
L 31.59375 8.109375 
Q 46.6875 8.109375 53.6875 14.9375 
Q 60.6875 21.78125 60.6875 36.53125 
Q 60.6875 51.171875 53.6875 57.984375 
Q 46.6875 64.796875 31.59375 64.796875 
z
M 9.8125 72.90625 
L 30.078125 72.90625 
Q 51.265625 72.90625 61.171875 64.09375 
Q 71.09375 55.28125 71.09375 36.53125 
Q 71.09375 17.671875 61.125 8.828125 
Q 51.171875 0 30.078125 0 
L 9.8125 0 
z
" id="DejaVuSans-44"/>
      <path d="M 56.203125 29.59375 
L 56.203125 25.203125 
L 14.890625 25.203125 
Q 15.484375 15.921875 20.484375 11.0625 
Q 25.484375 6.203125 34.421875 6.203125 
Q 39.59375 6.203125 44.453125 7.46875 
Q 49.3125 8.734375 54.109375 11.28125 
L 54.109375 2.78125 
Q 49.265625 0.734375 44.1875 -0.34375 
Q 39.109375 -1.421875 33.890625 -1.421875 
Q 20.796875 -1.421875 13.15625 6.1875 
Q 5.515625 13.8125 5.515625 26.8125 
Q 5.515625 40.234375 12.765625 48.109375 
Q 20.015625 56 32.328125 56 
Q 43.359375 56 49.78125 48.890625 
Q 56.203125 41.796875 56.203125 29.59375 
z
M 47.21875 32.234375 
Q 47.125 39.59375 43.09375 43.984375 
Q 39.0625 48.390625 32.421875 48.390625 
Q 24.90625 48.390625 20.390625 44.140625 
Q 15.875 39.890625 15.1875 32.171875 
z
" id="DejaVuSans-65"/>
      <path d="M 54.890625 33.015625 
L 54.890625 0 
L 45.90625 0 
L 45.90625 32.71875 
Q 45.90625 40.484375 42.875 44.328125 
Q 39.84375 48.1875 33.796875 48.1875 
Q 26.515625 48.1875 22.3125 43.546875 
Q 18.109375 38.921875 18.109375 30.90625 
L 18.109375 0 
L 9.078125 0 
L 9.078125 54.6875 
L 18.109375 54.6875 
L 18.109375 46.1875 
Q 21.34375 51.125 25.703125 53.5625 
Q 30.078125 56 35.796875 56 
Q 45.21875 56 50.046875 50.171875 
Q 54.890625 44.34375 54.890625 33.015625 
z
" id="DejaVuSans-6e"/>
      <path d="M 44.28125 53.078125 
L 44.28125 44.578125 
Q 40.484375 46.53125 36.375 47.5 
Q 32.28125 48.484375 27.875 48.484375 
Q 21.1875 48.484375 17.84375 46.4375 
Q 14.5 44.390625 14.5 40.28125 
Q 14.5 37.15625 16.890625 35.375 
Q 19.28125 33.59375 26.515625 31.984375 
L 29.59375 31.296875 
Q 39.15625 29.25 43.1875 25.515625 
Q 47.21875 21.78125 47.21875 15.09375 
Q 47.21875 7.46875 41.1875 3.015625 
Q 35.15625 -1.421875 24.609375 -1.421875 
Q 20.21875 -1.421875 15.453125 -0.5625 
Q 10.6875 0.296875 5.421875 2 
L 5.421875 11.28125 
Q 10.40625 8.6875 15.234375 7.390625 
Q 20.0625 6.109375 24.8125 6.109375 
Q 31.15625 6.109375 34.5625 8.28125 
Q 37.984375 10.453125 37.984375 14.40625 
Q 37.984375 18.0625 35.515625 20.015625 
Q 33.0625 21.96875 24.703125 23.78125 
L 21.578125 24.515625 
Q 13.234375 26.265625 9.515625 29.90625 
Q 5.8125 33.546875 5.8125 39.890625 
Q 5.8125 47.609375 11.28125 51.796875 
Q 16.75 56 26.8125 56 
Q 31.78125 56 36.171875 55.265625 
Q 40.578125 54.546875 44.28125 53.078125 
z
" id="DejaVuSans-73"/>
      <path id="DejaVuSans-20"/>
      <path d="M 48.78125 52.59375 
L 48.78125 44.1875 
Q 44.96875 46.296875 41.140625 47.34375 
Q 37.3125 48.390625 33.40625 48.390625 
Q 24.65625 48.390625 19.8125 42.84375 
Q 14.984375 37.3125 14.984375 27.296875 
Q 14.984375 17.28125 19.8125 11.734375 
Q 24.65625 6.203125 33.40625 6.203125 
Q 37.3125 6.203125 41.140625 7.25 
Q 44.96875 8.296875 48.78125 10.40625 
L 48.78125 2.09375 
Q 45.015625 0.34375 40.984375 -0.53125 
Q 36.96875 -1.421875 32.421875 -1.421875 
Q 20.0625 -1.421875 12.78125 6.34375 
Q 5.515625 14.109375 5.515625 27.296875 
Q 5.515625 40.671875 12.859375 48.328125 
Q 20.21875 56 33.015625 56 
Q 37.15625 56 41.109375 55.140625 
Q 45.0625 54.296875 48.78125 52.59375 
z
" id="DejaVuSans-63"/>
      <path d="M 54.890625 33.015625 
L 54.890625 0 
L 45.90625 0 
L 45.90625 32.71875 
Q 45.90625 40.484375 42.875 44.328125 
Q 39.84375 48.1875 33.796875 48.1875 
Q 26.515625 48.1875 22.3125 43.546875 
Q 18.109375 38.921875 18.109375 30.90625 
L 18.109375 0 
L 9.078125 0 
L 9.078125 75.984375 
L 18.109375 75.984375 
L 18.109375 46.1875 
Q 21.34375 51.125 25.703125 53.5625 
Q 30.078125 56 35.796875 56 
Q 45.21875 56 50.046875 50.171875 
Q 54.890625 44.34375 54.890625 33.015625 
z
" id="DejaVuSans-68"/>
      <path d="M 45.40625 27.984375 
Q 45.40625 37.75 41.375 43.109375 
Q 37.359375 48.484375 30.078125 48.484375 
Q 22.859375 48.484375 18.828125 43.109375 
Q 14.796875 37.75 14.796875 27.984375 
Q 14.796875 18.265625 18.828125 12.890625 
Q 22.859375 7.515625 30.078125 7.515625 
Q 37.359375 7.515625 41.375 12.890625 
Q 45.40625 18.265625 45.40625 27.984375 
z
M 54.390625 6.78125 
Q 54.390625 -7.171875 48.1875 -13.984375 
Q 42 -20.796875 29.203125 -20.796875 
Q 24.46875 -20.796875 20.265625 -20.09375 
Q 16.0625 -19.390625 12.109375 -17.921875 
L 12.109375 -9.1875 
Q 16.0625 -11.328125 19.921875 -12.34375 
Q 23.78125 -13.375 27.78125 -13.375 
Q 36.625 -13.375 41.015625 -8.765625 
Q 45.40625 -4.15625 45.40625 5.171875 
L 45.40625 9.625 
Q 42.625 4.78125 38.28125 2.390625 
Q 33.9375 0 27.875 0 
Q 17.828125 0 11.671875 7.65625 
Q 5.515625 15.328125 5.515625 27.984375 
Q 5.515625 40.671875 11.671875 48.328125 
Q 17.828125 56 27.875 56 
Q 33.9375 56 38.28125 53.609375 
Q 42.625 51.21875 45.40625 46.390625 
L 45.40625 54.6875 
L 54.390625 54.6875 
z
" id="DejaVuSans-67"/>
      <path d="M 31 75.875 
Q 24.46875 64.65625 21.28125 53.65625 
Q 18.109375 42.671875 18.109375 31.390625 
Q 18.109375 20.125 21.3125 9.0625 
Q 24.515625 -2 31 -13.1875 
L 23.1875 -13.1875 
Q 15.875 -1.703125 12.234375 9.375 
Q 8.59375 20.453125 8.59375 31.390625 
Q 8.59375 42.28125 12.203125 53.3125 
Q 15.828125 64.359375 23.1875 75.875 
z
" id="DejaVuSans-28"/>
      <path d="M 18.109375 8.203125 
L 18.109375 -20.796875 
L 9.078125 -20.796875 
L 9.078125 54.6875 
L 18.109375 54.6875 
L 18.109375 46.390625 
Q 20.953125 51.265625 25.265625 53.625 
Q 29.59375 56 35.59375 56 
Q 45.5625 56 51.78125 48.09375 
Q 58.015625 40.1875 58.015625 27.296875 
Q 58.015625 14.40625 51.78125 6.484375 
Q 45.5625 -1.421875 35.59375 -1.421875 
Q 29.59375 -1.421875 25.265625 0.953125 
Q 20.953125 3.328125 18.109375 8.203125 
z
M 48.6875 27.296875 
Q 48.6875 37.203125 44.609375 42.84375 
Q 40.53125 48.484375 33.40625 48.484375 
Q 26.265625 48.484375 22.1875 42.84375 
Q 18.109375 37.203125 18.109375 27.296875 
Q 18.109375 17.390625 22.1875 11.75 
Q 26.265625 6.109375 33.40625 6.109375 
Q 40.53125 6.109375 44.609375 11.75 
Q 48.6875 17.390625 48.6875 27.296875 
z
" id="DejaVuSans-70"/>
      <path d="M 30.609375 48.390625 
Q 23.390625 48.390625 19.1875 42.75 
Q 14.984375 37.109375 14.984375 27.296875 
Q 14.984375 17.484375 19.15625 11.84375 
Q 23.34375 6.203125 30.609375 6.203125 
Q 37.796875 6.203125 41.984375 11.859375 
Q 46.1875 17.53125 46.1875 27.296875 
Q 46.1875 37.015625 41.984375 42.703125 
Q 37.796875 48.390625 30.609375 48.390625 
z
M 30.609375 56 
Q 42.328125 56 49.015625 48.375 
Q 55.71875 40.765625 55.71875 27.296875 
Q 55.71875 13.875 49.015625 6.21875 
Q 42.328125 -1.421875 30.609375 -1.421875 
Q 18.84375 -1.421875 12.171875 6.21875 
Q 5.515625 13.875 5.515625 27.296875 
Q 5.515625 40.765625 12.171875 48.375 
Q 18.84375 56 30.609375 56 
z
" id="DejaVuSans-6f"/>
      <path d="M 8.015625 75.875 
L 15.828125 75.875 
Q 23.140625 64.359375 26.78125 53.3125 
Q 30.421875 42.28125 30.421875 31.390625 
Q 30.421875 20.453125 26.78125 9.375 
Q 23.140625 -1.703125 15.828125 -13.1875 
L 8.015625 -13.1875 
Q 14.5 -2 17.703125 9.0625 
Q 20.90625 20.125 20.90625 31.390625 
Q 20.90625 42.671875 17.703125 53.65625 
Q 14.5 64.65625 8.015625 75.875 
z
" id="DejaVuSans-29"/>
     </defs>
     <g style="fill:#262626;" transform="translate(22.396875 314.490625)rotate(-90)scale(0.2 -0.2)">
      <use xlink:href="#DejaVuSans-44"/>
      <use x="77.001953" xlink:href="#DejaVuSans-65"/>
      <use x="138.525391" xlink:href="#DejaVuSans-6e"/>
      <use x="201.904297" xlink:href="#DejaVuSans-73"/>
      <use x="254.003906" xlink:href="#DejaVuSans-69"/>
      <use x="281.787109" xlink:href="#DejaVuSans-74"/>
      <use x="320.996094" xlink:href="#DejaVuSans-79"/>
      <use x="380.175781" xlink:href="#DejaVuSans-20"/>
      <use x="411.962891" xlink:href="#DejaVuSans-63"/>
      <use x="466.943359" xlink:href="#DejaVuSans-68"/>
      <use x="530.322266" xlink:href="#DejaVuSans-61"/>
      <use x="591.601562" xlink:href="#DejaVuSans-6e"/>
      <use x="654.980469" xlink:href="#DejaVuSans-67"/>
      <use x="718.457031" xlink:href="#DejaVuSans-65"/>
      <use x="779.980469" xlink:href="#DejaVuSans-20"/>
      <use x="811.767578" xlink:href="#DejaVuSans-28"/>
      <use x="850.78125" xlink:href="#DejaVuSans-70"/>
      <use x="914.257812" xlink:href="#DejaVuSans-72"/>
      <use x="955.339844" xlink:href="#DejaVuSans-6f"/>
      <use x="1016.521484" xlink:href="#DejaVuSans-70"/>
      <use x="1079.998047" xlink:href="#DejaVuSans-6f"/>
      <use x="1141.179688" xlink:href="#DejaVuSans-72"/>
      <use x="1182.292969" xlink:href="#DejaVuSans-74"/>
      <use x="1221.501953" xlink:href="#DejaVuSans-69"/>
      <use x="1249.285156" xlink:href="#DejaVuSans-6f"/>
      <use x="1310.466797" xlink:href="#DejaVuSans-6e"/>
      <use x="1373.845703" xlink:href="#DejaVuSans-61"/>
      <use x="1435.125" xlink:href="#DejaVuSans-6c"/>
      <use x="1462.908203" xlink:href="#DejaVuSans-29"/>
     </g>
    </g>
   </g>
   <g id="line2d_15">
    <path clip-path="url(#p6ace001f98)" d="M 52.392344 237.53469 
L 56.525677 207.389362 
L 60.65901 169.934648 
L 64.792344 148.156658 
L 68.925677 159.832069 
L 73.05901 189.644064 
L 77.192344 216.09361 
L 81.325677 231.240336 
L 85.45901 235.500806 
L 89.592344 232.778419 
L 93.725677 228.528113 
L 97.85901 225.99984 
L 101.992344 224.005385 
L 106.125677 220.289436 
L 110.25901 214.567037 
L 114.392344 208.287116 
L 118.525677 203.526557 
L 122.65901 200.542136 
L 126.792344 196.860909 
L 130.925677 190.519023 
L 135.05901 182.799607 
L 139.192344 176.602138 
L 143.325677 173.34114 
L 147.45901 172.505371 
L 151.592344 172.20529 
L 155.725677 170.309742 
L 159.85901 166.350823 
L 163.992344 161.610177 
L 168.125677 157.767608 
L 172.25901 155.721021 
L 176.392344 154.80446 
L 180.525677 153.83096 
L 184.65901 152.582335 
L 188.792344 150.719305 
L 192.925677 147.186248 
L 197.05901 142.140476 
L 201.192344 136.869568 
L 205.325677 131.475311 
L 209.45901 125.788189 
L 213.592344 121.703377 
L 217.725677 120.895611 
L 221.85901 121.505387 
L 225.992344 120.420592 
L 230.125677 117.205453 
L 234.25901 114.841359 
L 238.392344 117.034855 
L 242.525677 124.373238 
L 246.65901 133.564483 
L 250.792344 141.250259 
L 254.925677 148.654274 
L 259.05901 159.069974 
L 263.192344 171.916525 
L 267.325677 183.767117 
L 271.45901 193.008506 
L 275.592344 200.955109 
L 279.725677 209.134287 
L 283.85901 216.859783 
L 287.992344 222.750192 
L 292.125677 227.612566 
L 296.25901 233.837958 
L 300.392344 242.433921 
L 304.525677 251.77776 
L 308.65901 258.698424 
L 312.792344 260.818146 
L 316.925677 259.648543 
L 321.05901 259.773715 
L 325.192344 262.197866 
L 329.325677 264.286527 
L 333.45901 266.731262 
L 337.592344 271.124223 
L 341.725677 274.42064 
L 345.85901 275.523621 
L 349.992344 278.917101 
L 354.125677 285.191222 
L 358.25901 288.668469 
L 362.392344 286.844245 
L 366.525677 282.213171 
L 370.65901 276.200535 
L 374.792344 268.465589 
L 378.925677 260.288032 
L 383.05901 255.235813 
L 387.192344 260.110659 
L 391.325677 279.45157 
L 395.45901 304.173761 
L 399.592344 320.966185 
L 403.725677 329.628898 
L 407.85901 334.260925 
L 411.992344 337.059312 
L 416.125677 336.252264 
L 420.25901 329.084435 
L 424.392344 334.738415 
L 427.287065 357.334687 
" style="fill:none;stroke:#4c72b0;stroke-linecap:square;stroke-width:1.75;"/>
   </g>
   <g id="line2d_16">
    <path clip-path="url(#p6ace001f98)" d="M 52.392344 181.039345 
L 56.525677 172.27234 
L 60.65901 151.462117 
L 64.792344 122.971945 
L 68.925677 113.890377 
L 73.05901 130.053681 
L 77.192344 155.990739 
L 81.325677 180.878891 
L 85.45901 198.428772 
L 89.592344 206.889559 
L 93.725677 209.86886 
L 97.85901 211.565493 
L 101.992344 211.128257 
L 106.125677 206.08209 
L 110.25901 199.062066 
L 114.392344 194.446862 
L 118.525677 192.606423 
L 122.65901 192.184556 
L 126.792344 192.450406 
L 130.925677 192.605933 
L 135.05901 192.083586 
L 139.192344 190.73657 
L 143.325677 188.638824 
L 147.45901 186.441467 
L 151.592344 184.103523 
L 155.725677 180.164864 
L 159.85901 174.851121 
L 163.992344 170.889295 
L 168.125677 169.654895 
L 172.25901 169.916509 
L 176.392344 169.928922 
L 180.525677 168.500313 
L 184.65901 165.019276 
L 188.792344 159.733362 
L 192.925677 154.271703 
L 197.05901 150.908129 
L 201.192344 150.215125 
L 205.325677 150.105902 
L 209.45901 147.943718 
L 213.592344 143.293109 
L 217.725677 138.115182 
L 221.85901 134.784026 
L 225.992344 135.236633 
L 230.125677 139.935762 
L 234.25901 146.365265 
L 238.392344 151.164939 
L 242.525677 153.254171 
L 246.65901 153.127574 
L 250.792344 151.522052 
L 254.925677 149.963342 
L 259.05901 149.649243 
L 263.192344 150.00116 
L 267.325677 151.234562 
L 271.45901 156.333924 
L 275.592344 166.472847 
L 279.725677 176.98293 
L 283.85901 182.319604 
L 287.992344 182.464858 
L 292.125677 181.036423 
L 296.25901 179.726567 
L 300.392344 178.592988 
L 304.525677 178.294752 
L 308.65901 178.642354 
L 312.792344 177.894941 
L 316.925677 176.12791 
L 321.05901 176.780283 
L 325.192344 180.956484 
L 329.325677 185.028815 
L 333.45901 188.180453 
L 337.592344 192.760445 
L 341.725677 194.317551 
L 345.85901 183.361281 
L 349.992344 160.898584 
L 354.125677 142.688958 
L 358.25901 139.498618 
L 362.392344 147.092573 
L 366.525677 160.922708 
L 370.65901 177.373671 
L 374.792344 191.118898 
L 378.925677 200.969829 
L 383.05901 204.93936 
L 387.192344 197.332595 
L 391.325677 178.45303 
L 395.45901 161.399365 
L 399.592344 163.210505 
L 403.725677 183.016506 
L 407.85901 199.017638 
L 411.992344 197.27974 
L 416.125677 189.597825 
L 420.25901 200.837741 
L 424.392344 229.079765 
L 428.525677 239.869938 
L 432.65901 213.935076 
L 436.792344 163.459538 
L 440.925677 117.935761 
L 445.05901 95.35291 
L 449.192344 92.655853 
L 453.325677 101.046437 
L 457.45901 114.283471 
L 461.592344 128.574535 
" style="fill:none;stroke:#55a868;stroke-linecap:square;stroke-width:1.75;"/>
   </g>
   <g id="line2d_17">
    <path clip-path="url(#p6ace001f98)" d="M 70.992344 164.296875 
L 101.992344 164.296875 
L 132.992344 164.296875 
L 163.992344 164.296875 
L 194.992344 164.296875 
L 225.992344 164.296875 
L 256.992344 164.296875 
L 287.992344 164.296875 
L 318.992344 164.296875 
L 349.992344 164.296875 
" style="fill:none;stroke:#000000;stroke-dasharray:3.7,1.6;stroke-dashoffset:0;"/>
   </g>
   <g id="patch_3">
    <path d="M 70.992344 300.196875 
L 70.992344 28.396875 
" style="fill:none;stroke:#000000;stroke-linecap:square;stroke-linejoin:miter;stroke-width:0.8;"/>
   </g>
   <g id="patch_4">
    <path d="M 70.992344 300.196875 
L 349.992344 300.196875 
" style="fill:none;stroke:#000000;stroke-linecap:square;stroke-linejoin:miter;stroke-width:0.8;"/>
   </g>
   <g id="text_17">
    <!-- 90 -->
    <defs>
     <path d="M 10.984375 1.515625 
L 10.984375 10.5 
Q 14.703125 8.734375 18.5 7.8125 
Q 22.3125 6.890625 25.984375 6.890625 
Q 35.75 6.890625 40.890625 13.453125 
Q 46.046875 20.015625 46.78125 33.40625 
Q 43.953125 29.203125 39.59375 26.953125 
Q 35.25 24.703125 29.984375 24.703125 
Q 19.046875 24.703125 12.671875 31.3125 
Q 6.296875 37.9375 6.296875 49.421875 
Q 6.296875 60.640625 12.9375 67.421875 
Q 19.578125 74.21875 30.609375 74.21875 
Q 43.265625 74.21875 49.921875 64.515625 
Q 56.59375 54.828125 56.59375 36.375 
Q 56.59375 19.140625 48.40625 8.859375 
Q 40.234375 -1.421875 26.421875 -1.421875 
Q 22.703125 -1.421875 18.890625 -0.6875 
Q 15.09375 0.046875 10.984375 1.515625 
z
M 30.609375 32.421875 
Q 37.25 32.421875 41.125 36.953125 
Q 45.015625 41.5 45.015625 49.421875 
Q 45.015625 57.28125 41.125 61.84375 
Q 37.25 66.40625 30.609375 66.40625 
Q 23.96875 66.40625 20.09375 61.84375 
Q 16.21875 57.28125 16.21875 49.421875 
Q 16.21875 41.5 20.09375 36.953125 
Q 23.96875 32.421875 30.609375 32.421875 
z
" id="DejaVuSans-39"/>
    </defs>
    <g style="fill:#262626;" transform="translate(197.767344 22.396875)scale(0.2 -0.2)">
     <use xlink:href="#DejaVuSans-39"/>
     <use x="63.623047" xlink:href="#DejaVuSans-30"/>
    </g>
   </g>
   <g id="legend_1">
    <g id="line2d_18">
     <path d="M 170.898594 54.59375 
L 210.898594 54.59375 
" style="fill:none;stroke:#4c72b0;stroke-linecap:square;stroke-width:1.75;"/>
    </g>
    <g id="line2d_19"/>
    <g id="text_18">
     <!-- Control -->
     <defs>
      <path d="M 64.40625 67.28125 
L 64.40625 56.890625 
Q 59.421875 61.53125 53.78125 63.8125 
Q 48.140625 66.109375 41.796875 66.109375 
Q 29.296875 66.109375 22.65625 58.46875 
Q 16.015625 50.828125 16.015625 36.375 
Q 16.015625 21.96875 22.65625 14.328125 
Q 29.296875 6.6875 41.796875 6.6875 
Q 48.140625 6.6875 53.78125 8.984375 
Q 59.421875 11.28125 64.40625 15.921875 
L 64.40625 5.609375 
Q 59.234375 2.09375 53.4375 0.328125 
Q 47.65625 -1.421875 41.21875 -1.421875 
Q 24.65625 -1.421875 15.125 8.703125 
Q 5.609375 18.84375 5.609375 36.375 
Q 5.609375 53.953125 15.125 64.078125 
Q 24.65625 74.21875 41.21875 74.21875 
Q 47.75 74.21875 53.53125 72.484375 
Q 59.328125 70.75 64.40625 67.28125 
z
" id="DejaVuSans-43"/>
     </defs>
     <g style="fill:#262626;" transform="translate(226.898594 61.59375)scale(0.2 -0.2)">
      <use xlink:href="#DejaVuSans-43"/>
      <use x="69.824219" xlink:href="#DejaVuSans-6f"/>
      <use x="131.005859" xlink:href="#DejaVuSans-6e"/>
      <use x="194.384766" xlink:href="#DejaVuSans-74"/>
      <use x="233.59375" xlink:href="#DejaVuSans-72"/>
      <use x="274.675781" xlink:href="#DejaVuSans-6f"/>
      <use x="335.857422" xlink:href="#DejaVuSans-6c"/>
     </g>
    </g>
    <g id="line2d_20">
     <path d="M 170.898594 83.95 
L 210.898594 83.95 
" style="fill:none;stroke:#55a868;stroke-linecap:square;stroke-width:1.75;"/>
    </g>
    <g id="line2d_21"/>
    <g id="text_19">
     <!-- Treatment -->
     <defs>
      <path d="M -0.296875 72.90625 
L 61.375 72.90625 
L 61.375 64.59375 
L 35.5 64.59375 
L 35.5 0 
L 25.59375 0 
L 25.59375 64.59375 
L -0.296875 64.59375 
z
" id="DejaVuSans-54"/>
     </defs>
     <g style="fill:#262626;" transform="translate(226.898594 90.95)scale(0.2 -0.2)">
      <use xlink:href="#DejaVuSans-54"/>
      <use x="60.865234" xlink:href="#DejaVuSans-72"/>
      <use x="101.947266" xlink:href="#DejaVuSans-65"/>
      <use x="163.470703" xlink:href="#DejaVuSans-61"/>
      <use x="224.75" xlink:href="#DejaVuSans-74"/>
      <use x="263.958984" xlink:href="#DejaVuSans-6d"/>
      <use x="361.371094" xlink:href="#DejaVuSans-65"/>
      <use x="422.894531" xlink:href="#DejaVuSans-6e"/>
      <use x="486.273438" xlink:href="#DejaVuSans-74"/>
     </g>
    </g>
   </g>
  </g>
  <g id="axes_2">
   <g id="patch_5">
    <path d="M 405.792344 300.196875 
L 684.792344 300.196875 
L 684.792344 28.396875 
L 405.792344 28.396875 
z
" style="fill:#ffffff;"/>
   </g>
   <g id="matplotlib.axis_3">
    <g id="xtick_6">
     <g id="line2d_22">
      <g>
       <use style="fill:#262626;stroke:#262626;" x="405.792344" xlink:href="#m68e24ccbf9" y="300.196875"/>
      </g>
     </g>
     <g id="text_20">
      <!-- 0 -->
      <g style="fill:#262626;" transform="translate(401.656719 323.074844)scale(0.13 -0.13)">
       <use xlink:href="#DejaVuSans-30"/>
      </g>
     </g>
    </g>
    <g id="xtick_7">
     <g id="line2d_23">
      <g>
       <use style="fill:#262626;stroke:#262626;" x="467.792344" xlink:href="#m68e24ccbf9" y="300.196875"/>
      </g>
     </g>
     <g id="text_21">
      <!-- 10 -->
      <g style="fill:#262626;" transform="translate(459.521094 323.074844)scale(0.13 -0.13)">
       <use xlink:href="#DejaVuSans-31"/>
       <use x="63.623047" xlink:href="#DejaVuSans-30"/>
      </g>
     </g>
    </g>
    <g id="xtick_8">
     <g id="line2d_24">
      <g>
       <use style="fill:#262626;stroke:#262626;" x="529.792344" xlink:href="#m68e24ccbf9" y="300.196875"/>
      </g>
     </g>
     <g id="text_22">
      <!-- 20 -->
      <g style="fill:#262626;" transform="translate(521.521094 323.074844)scale(0.13 -0.13)">
       <use xlink:href="#DejaVuSans-32"/>
       <use x="63.623047" xlink:href="#DejaVuSans-30"/>
      </g>
     </g>
    </g>
    <g id="xtick_9">
     <g id="line2d_25">
      <g>
       <use style="fill:#262626;stroke:#262626;" x="591.792344" xlink:href="#m68e24ccbf9" y="300.196875"/>
      </g>
     </g>
     <g id="text_23">
      <!-- 30 -->
      <g style="fill:#262626;" transform="translate(583.521094 323.074844)scale(0.13 -0.13)">
       <use xlink:href="#DejaVuSans-33"/>
       <use x="63.623047" xlink:href="#DejaVuSans-30"/>
      </g>
     </g>
    </g>
    <g id="xtick_10">
     <g id="line2d_26">
      <g>
       <use style="fill:#262626;stroke:#262626;" x="653.792344" xlink:href="#m68e24ccbf9" y="300.196875"/>
      </g>
     </g>
     <g id="text_24">
      <!-- 40 -->
      <g style="fill:#262626;" transform="translate(645.521094 323.074844)scale(0.13 -0.13)">
       <use xlink:href="#DejaVuSans-34"/>
       <use x="63.623047" xlink:href="#DejaVuSans-30"/>
      </g>
     </g>
    </g>
    <g id="text_25">
     <!-- Similarity -->
     <g style="fill:#262626;" transform="translate(498.012656 344.975312)scale(0.2 -0.2)">
      <use xlink:href="#DejaVuSans-53"/>
      <use x="63.476562" xlink:href="#DejaVuSans-69"/>
      <use x="91.259766" xlink:href="#DejaVuSans-6d"/>
      <use x="188.671875" xlink:href="#DejaVuSans-69"/>
      <use x="216.455078" xlink:href="#DejaVuSans-6c"/>
      <use x="244.238281" xlink:href="#DejaVuSans-61"/>
      <use x="305.517578" xlink:href="#DejaVuSans-72"/>
      <use x="346.630859" xlink:href="#DejaVuSans-69"/>
      <use x="374.414062" xlink:href="#DejaVuSans-74"/>
      <use x="413.623047" xlink:href="#DejaVuSans-79"/>
     </g>
    </g>
   </g>
   <g id="matplotlib.axis_4">
    <g id="ytick_10">
     <g id="line2d_27">
      <g>
       <use style="fill:#262626;stroke:#262626;" x="405.792344" xlink:href="#m175f56845e" y="300.196875"/>
      </g>
     </g>
     <g id="text_26">
      <!-- −40 -->
      <g style="fill:#262626;" transform="translate(365.35625 305.135859)scale(0.13 -0.13)">
       <use xlink:href="#DejaVuSans-2212"/>
       <use x="83.789062" xlink:href="#DejaVuSans-34"/>
       <use x="147.412109" xlink:href="#DejaVuSans-30"/>
      </g>
     </g>
    </g>
    <g id="ytick_11">
     <g id="line2d_28">
      <g>
       <use style="fill:#262626;stroke:#262626;" x="405.792344" xlink:href="#m175f56845e" y="266.221875"/>
      </g>
     </g>
     <g id="text_27">
      <!-- −30 -->
      <g style="fill:#262626;" transform="translate(365.35625 271.160859)scale(0.13 -0.13)">
       <use xlink:href="#DejaVuSans-2212"/>
       <use x="83.789062" xlink:href="#DejaVuSans-33"/>
       <use x="147.412109" xlink:href="#DejaVuSans-30"/>
      </g>
     </g>
    </g>
    <g id="ytick_12">
     <g id="line2d_29">
      <g>
       <use style="fill:#262626;stroke:#262626;" x="405.792344" xlink:href="#m175f56845e" y="232.246875"/>
      </g>
     </g>
     <g id="text_28">
      <!-- −20 -->
      <g style="fill:#262626;" transform="translate(365.35625 237.185859)scale(0.13 -0.13)">
       <use xlink:href="#DejaVuSans-2212"/>
       <use x="83.789062" xlink:href="#DejaVuSans-32"/>
       <use x="147.412109" xlink:href="#DejaVuSans-30"/>
      </g>
     </g>
    </g>
    <g id="ytick_13">
     <g id="line2d_30">
      <g>
       <use style="fill:#262626;stroke:#262626;" x="405.792344" xlink:href="#m175f56845e" y="198.271875"/>
      </g>
     </g>
     <g id="text_29">
      <!-- −10 -->
      <g style="fill:#262626;" transform="translate(365.35625 203.210859)scale(0.13 -0.13)">
       <use xlink:href="#DejaVuSans-2212"/>
       <use x="83.789062" xlink:href="#DejaVuSans-31"/>
       <use x="147.412109" xlink:href="#DejaVuSans-30"/>
      </g>
     </g>
    </g>
    <g id="ytick_14">
     <g id="line2d_31">
      <g>
       <use style="fill:#262626;stroke:#262626;" x="405.792344" xlink:href="#m175f56845e" y="164.296875"/>
      </g>
     </g>
     <g id="text_30">
      <!-- 0 -->
      <g style="fill:#262626;" transform="translate(384.521094 169.235859)scale(0.13 -0.13)">
       <use xlink:href="#DejaVuSans-30"/>
      </g>
     </g>
    </g>
    <g id="ytick_15">
     <g id="line2d_32">
      <g>
       <use style="fill:#262626;stroke:#262626;" x="405.792344" xlink:href="#m175f56845e" y="130.321875"/>
      </g>
     </g>
     <g id="text_31">
      <!-- 10 -->
      <g style="fill:#262626;" transform="translate(376.249844 135.260859)scale(0.13 -0.13)">
       <use xlink:href="#DejaVuSans-31"/>
       <use x="63.623047" xlink:href="#DejaVuSans-30"/>
      </g>
     </g>
    </g>
    <g id="ytick_16">
     <g id="line2d_33">
      <g>
       <use style="fill:#262626;stroke:#262626;" x="405.792344" xlink:href="#m175f56845e" y="96.346875"/>
      </g>
     </g>
     <g id="text_32">
      <!-- 20 -->
      <g style="fill:#262626;" transform="translate(376.249844 101.285859)scale(0.13 -0.13)">
       <use xlink:href="#DejaVuSans-32"/>
       <use x="63.623047" xlink:href="#DejaVuSans-30"/>
      </g>
     </g>
    </g>
    <g id="ytick_17">
     <g id="line2d_34">
      <g>
       <use style="fill:#262626;stroke:#262626;" x="405.792344" xlink:href="#m175f56845e" y="62.371875"/>
      </g>
     </g>
     <g id="text_33">
      <!-- 30 -->
      <g style="fill:#262626;" transform="translate(376.249844 67.310859)scale(0.13 -0.13)">
       <use xlink:href="#DejaVuSans-33"/>
       <use x="63.623047" xlink:href="#DejaVuSans-30"/>
      </g>
     </g>
    </g>
    <g id="ytick_18">
     <g id="line2d_35">
      <g>
       <use style="fill:#262626;stroke:#262626;" x="405.792344" xlink:href="#m175f56845e" y="28.396875"/>
      </g>
     </g>
     <g id="text_34">
      <!-- 40 -->
      <g style="fill:#262626;" transform="translate(376.249844 33.335859)scale(0.13 -0.13)">
       <use xlink:href="#DejaVuSans-34"/>
       <use x="63.623047" xlink:href="#DejaVuSans-30"/>
      </g>
     </g>
    </g>
   </g>
   <g id="line2d_36">
    <path clip-path="url(#p61ec671942)" d="M 387.192344 161.356437 
L 391.325677 102.70825 
L 395.45901 38.193544 
L 399.592344 15.478213 
L 403.725677 49.160109 
L 407.85901 101.272257 
L 411.992344 144.062579 
L 416.125677 172.327544 
L 420.25901 189.563576 
L 424.392344 200.674622 
L 428.525677 208.982807 
L 432.65901 215.539429 
L 436.792344 220.10704 
L 440.925677 221.669485 
L 445.05901 219.169954 
L 449.192344 213.368435 
L 453.325677 206.950055 
L 457.45901 201.548683 
L 461.592344 196.460179 
L 465.725677 191.247775 
L 469.85901 186.629045 
L 473.992344 182.617523 
L 478.125677 178.545497 
L 482.25901 174.356089 
L 486.392344 170.29319 
L 490.525677 166.386883 
L 494.65901 162.67328 
L 498.792344 158.926011 
L 502.925677 154.99451 
L 507.05901 151.428707 
L 511.192344 148.630664 
L 515.325677 146.634963 
L 519.45901 145.566309 
L 523.592344 144.739939 
L 527.725677 142.566126 
L 531.85901 138.509928 
L 535.992344 133.753483 
L 540.125677 129.428976 
L 544.25901 125.85647 
L 548.392344 123.229962 
L 552.525677 121.370671 
L 556.65901 119.499574 
L 560.792344 117.077977 
L 564.925677 114.721183 
L 569.05901 114.525031 
L 573.192344 118.489479 
L 577.325677 126.321589 
L 581.45901 135.645406 
L 585.592344 144.559431 
L 589.725677 153.663116 
L 593.85901 164.717359 
L 597.992344 178.124791 
L 602.125677 191.976411 
L 606.25901 203.584201 
L 610.392344 212.609133 
L 614.525677 220.760086 
L 618.65901 228.665863 
L 622.792344 235.794397 
L 626.925677 241.927328 
L 631.05901 246.928883 
L 635.192344 251.213474 
L 639.325677 256.272011 
L 643.45901 262.378117 
L 647.592344 266.997249 
L 651.725677 268.272313 
L 655.85901 268.308514 
L 659.992344 269.124952 
L 664.125677 269.211325 
L 668.25901 268.030456 
L 672.392344 267.233795 
L 676.525677 266.740269 
L 680.65901 266.626167 
L 684.792344 268.944572 
L 688.925677 272.976314 
L 693.05901 275.257634 
L 697.192344 274.942703 
L 701.325677 273.591881 
L 705.45901 271.898771 
L 709.592344 269.624869 
L 713.725677 267.388934 
L 717.85901 267.632682 
L 721.992344 272.262666 
L 726.125677 280.564665 
L 730.25901 294.010832 
L 734.392344 313.759245 
L 738.525677 331.864747 
L 742.65901 343.537238 
L 746.792344 354.795564 
L 747.695261 357.334687 
" style="fill:none;stroke:#4c72b0;stroke-linecap:square;stroke-width:1.75;"/>
   </g>
   <g id="line2d_37">
    <path clip-path="url(#p61ec671942)" d="M 387.192344 178.337885 
L 391.325677 155.486603 
L 395.45901 114.283808 
L 399.592344 80.597253 
L 403.725677 83.943522 
L 407.85901 109.873267 
L 411.992344 140.399884 
L 416.125677 167.582728 
L 420.25901 186.766566 
L 424.392344 196.700093 
L 428.525677 201.300516 
L 432.65901 205.393449 
L 436.792344 208.024092 
L 440.925677 205.505087 
L 445.05901 199.808933 
L 449.192344 196.399915 
L 453.325677 196.766867 
L 457.45901 198.519628 
L 461.592344 198.937786 
L 465.725677 196.252053 
L 469.85901 190.804529 
L 473.992344 185.212139 
L 478.125677 181.470097 
L 482.25901 179.14069 
L 486.392344 176.48147 
L 490.525677 172.103518 
L 494.65901 166.346228 
L 498.792344 160.934962 
L 502.925677 157.234264 
L 507.05901 155.3582 
L 511.192344 154.215808 
L 515.325677 152.638661 
L 519.45901 150.629658 
L 523.592344 148.695907 
L 527.725677 147.008034 
L 531.85901 145.708585 
L 535.992344 144.743616 
L 540.125677 143.501318 
L 544.25901 141.625737 
L 548.392344 139.836892 
L 552.525677 139.031029 
L 556.65901 139.282215 
L 560.792344 140.856286 
L 564.925677 144.450452 
L 569.05901 149.523738 
L 573.192344 154.457584 
L 577.325677 158.468327 
L 581.45901 161.559133 
L 585.592344 163.304924 
L 589.725677 163.690348 
L 593.85901 164.398111 
L 597.992344 167.425052 
L 602.125677 173.077655 
L 606.25901 180.251207 
L 610.392344 187.347884 
L 614.525677 192.707506 
L 618.65901 195.920566 
L 622.792344 198.341169 
L 626.925677 200.957789 
L 631.05901 203.091773 
L 635.192344 204.058076 
L 639.325677 204.329144 
L 643.45901 204.266109 
L 647.592344 203.355054 
L 651.725677 201.873378 
L 655.85901 201.257035 
L 659.992344 202.240746 
L 664.125677 204.82305 
L 668.25901 208.956224 
L 672.392344 213.174701 
L 676.525677 214.540228 
L 680.65901 211.906173 
L 684.792344 207.630273 
L 688.925677 204.991313 
L 693.05901 205.06078 
L 697.192344 206.190322 
L 701.325677 207.145215 
L 705.45901 209.573409 
L 709.592344 216.351008 
L 713.725677 227.516936 
L 717.85901 236.737081 
L 721.992344 234.904832 
L 726.125677 218.776307 
L 730.25901 197.376381 
L 734.392344 188.063902 
L 738.525677 193.068458 
L 742.65901 196.479302 
L 746.792344 192.130843 
L 750.925677 191.689402 
L 755.05901 207.637219 
L 759.192344 235.027679 
L 763.325677 254.185981 
L 767.45901 248.728822 
L 771.592344 216.174695 
L 775.725677 164.926026 
L 779.85901 103.397763 
L 783.992344 38.004361 
L 786.690024 -1 
" style="fill:none;stroke:#55a868;stroke-linecap:square;stroke-width:1.75;"/>
   </g>
   <g id="line2d_38">
    <path clip-path="url(#p61ec671942)" d="M 405.792344 164.296875 
L 436.792344 164.296875 
L 467.792344 164.296875 
L 498.792344 164.296875 
L 529.792344 164.296875 
L 560.792344 164.296875 
L 591.792344 164.296875 
L 622.792344 164.296875 
L 653.792344 164.296875 
L 684.792344 164.296875 
" style="fill:none;stroke:#000000;stroke-dasharray:3.7,1.6;stroke-dashoffset:0;"/>
   </g>
   <g id="patch_6">
    <path d="M 405.792344 300.196875 
L 405.792344 28.396875 
" style="fill:none;stroke:#000000;stroke-linecap:square;stroke-linejoin:miter;stroke-width:0.8;"/>
   </g>
   <g id="patch_7">
    <path d="M 405.792344 300.196875 
L 684.792344 300.196875 
" style="fill:none;stroke:#000000;stroke-linecap:square;stroke-linejoin:miter;stroke-width:0.8;"/>
   </g>
   <g id="text_35">
    <!-- 180 -->
    <defs>
     <path d="M 31.78125 34.625 
Q 24.75 34.625 20.71875 30.859375 
Q 16.703125 27.09375 16.703125 20.515625 
Q 16.703125 13.921875 20.71875 10.15625 
Q 24.75 6.390625 31.78125 6.390625 
Q 38.8125 6.390625 42.859375 10.171875 
Q 46.921875 13.96875 46.921875 20.515625 
Q 46.921875 27.09375 42.890625 30.859375 
Q 38.875 34.625 31.78125 34.625 
z
M 21.921875 38.8125 
Q 15.578125 40.375 12.03125 44.71875 
Q 8.5 49.078125 8.5 55.328125 
Q 8.5 64.0625 14.71875 69.140625 
Q 20.953125 74.21875 31.78125 74.21875 
Q 42.671875 74.21875 48.875 69.140625 
Q 55.078125 64.0625 55.078125 55.328125 
Q 55.078125 49.078125 51.53125 44.71875 
Q 48 40.375 41.703125 38.8125 
Q 48.828125 37.15625 52.796875 32.3125 
Q 56.78125 27.484375 56.78125 20.515625 
Q 56.78125 9.90625 50.3125 4.234375 
Q 43.84375 -1.421875 31.78125 -1.421875 
Q 19.734375 -1.421875 13.25 4.234375 
Q 6.78125 9.90625 6.78125 20.515625 
Q 6.78125 27.484375 10.78125 32.3125 
Q 14.796875 37.15625 21.921875 38.8125 
z
M 18.3125 54.390625 
Q 18.3125 48.734375 21.84375 45.5625 
Q 25.390625 42.390625 31.78125 42.390625 
Q 38.140625 42.390625 41.71875 45.5625 
Q 45.3125 48.734375 45.3125 54.390625 
Q 45.3125 60.0625 41.71875 63.234375 
Q 38.140625 66.40625 31.78125 66.40625 
Q 25.390625 66.40625 21.84375 63.234375 
Q 18.3125 60.0625 18.3125 54.390625 
z
" id="DejaVuSans-38"/>
    </defs>
    <g style="fill:#262626;" transform="translate(526.204844 22.396875)scale(0.2 -0.2)">
     <use xlink:href="#DejaVuSans-31"/>
     <use x="63.623047" xlink:href="#DejaVuSans-38"/>
     <use x="127.246094" xlink:href="#DejaVuSans-30"/>
    </g>
   </g>
   <g id="legend_2"/>
  </g>
  <g id="axes_3">
   <g id="patch_8">
    <path d="M 740.592344 300.196875 
L 1019.592344 300.196875 
L 1019.592344 28.396875 
L 740.592344 28.396875 
z
" style="fill:#ffffff;"/>
   </g>
   <g id="matplotlib.axis_5">
    <g id="xtick_11">
     <g id="line2d_39">
      <g>
       <use style="fill:#262626;stroke:#262626;" x="740.592344" xlink:href="#m68e24ccbf9" y="300.196875"/>
      </g>
     </g>
     <g id="text_36">
      <!-- 0 -->
      <g style="fill:#262626;" transform="translate(736.456719 323.074844)scale(0.13 -0.13)">
       <use xlink:href="#DejaVuSans-30"/>
      </g>
     </g>
    </g>
    <g id="xtick_12">
     <g id="line2d_40">
      <g>
       <use style="fill:#262626;stroke:#262626;" x="802.592344" xlink:href="#m68e24ccbf9" y="300.196875"/>
      </g>
     </g>
     <g id="text_37">
      <!-- 10 -->
      <g style="fill:#262626;" transform="translate(794.321094 323.074844)scale(0.13 -0.13)">
       <use xlink:href="#DejaVuSans-31"/>
       <use x="63.623047" xlink:href="#DejaVuSans-30"/>
      </g>
     </g>
    </g>
    <g id="xtick_13">
     <g id="line2d_41">
      <g>
       <use style="fill:#262626;stroke:#262626;" x="864.592344" xlink:href="#m68e24ccbf9" y="300.196875"/>
      </g>
     </g>
     <g id="text_38">
      <!-- 20 -->
      <g style="fill:#262626;" transform="translate(856.321094 323.074844)scale(0.13 -0.13)">
       <use xlink:href="#DejaVuSans-32"/>
       <use x="63.623047" xlink:href="#DejaVuSans-30"/>
      </g>
     </g>
    </g>
    <g id="xtick_14">
     <g id="line2d_42">
      <g>
       <use style="fill:#262626;stroke:#262626;" x="926.592344" xlink:href="#m68e24ccbf9" y="300.196875"/>
      </g>
     </g>
     <g id="text_39">
      <!-- 30 -->
      <g style="fill:#262626;" transform="translate(918.321094 323.074844)scale(0.13 -0.13)">
       <use xlink:href="#DejaVuSans-33"/>
       <use x="63.623047" xlink:href="#DejaVuSans-30"/>
      </g>
     </g>
    </g>
    <g id="xtick_15">
     <g id="line2d_43">
      <g>
       <use style="fill:#262626;stroke:#262626;" x="988.592344" xlink:href="#m68e24ccbf9" y="300.196875"/>
      </g>
     </g>
     <g id="text_40">
      <!-- 40 -->
      <g style="fill:#262626;" transform="translate(980.321094 323.074844)scale(0.13 -0.13)">
       <use xlink:href="#DejaVuSans-34"/>
       <use x="63.623047" xlink:href="#DejaVuSans-30"/>
      </g>
     </g>
    </g>
    <g id="text_41">
     <!-- Similarity -->
     <g style="fill:#262626;" transform="translate(832.812656 344.975312)scale(0.2 -0.2)">
      <use xlink:href="#DejaVuSans-53"/>
      <use x="63.476562" xlink:href="#DejaVuSans-69"/>
      <use x="91.259766" xlink:href="#DejaVuSans-6d"/>
      <use x="188.671875" xlink:href="#DejaVuSans-69"/>
      <use x="216.455078" xlink:href="#DejaVuSans-6c"/>
      <use x="244.238281" xlink:href="#DejaVuSans-61"/>
      <use x="305.517578" xlink:href="#DejaVuSans-72"/>
      <use x="346.630859" xlink:href="#DejaVuSans-69"/>
      <use x="374.414062" xlink:href="#DejaVuSans-74"/>
      <use x="413.623047" xlink:href="#DejaVuSans-79"/>
     </g>
    </g>
   </g>
   <g id="matplotlib.axis_6">
    <g id="ytick_19">
     <g id="line2d_44">
      <g>
       <use style="fill:#262626;stroke:#262626;" x="740.592344" xlink:href="#m175f56845e" y="300.196875"/>
      </g>
     </g>
     <g id="text_42">
      <!-- −40 -->
      <g style="fill:#262626;" transform="translate(700.15625 305.135859)scale(0.13 -0.13)">
       <use xlink:href="#DejaVuSans-2212"/>
       <use x="83.789062" xlink:href="#DejaVuSans-34"/>
       <use x="147.412109" xlink:href="#DejaVuSans-30"/>
      </g>
     </g>
    </g>
    <g id="ytick_20">
     <g id="line2d_45">
      <g>
       <use style="fill:#262626;stroke:#262626;" x="740.592344" xlink:href="#m175f56845e" y="266.221875"/>
      </g>
     </g>
     <g id="text_43">
      <!-- −30 -->
      <g style="fill:#262626;" transform="translate(700.15625 271.160859)scale(0.13 -0.13)">
       <use xlink:href="#DejaVuSans-2212"/>
       <use x="83.789062" xlink:href="#DejaVuSans-33"/>
       <use x="147.412109" xlink:href="#DejaVuSans-30"/>
      </g>
     </g>
    </g>
    <g id="ytick_21">
     <g id="line2d_46">
      <g>
       <use style="fill:#262626;stroke:#262626;" x="740.592344" xlink:href="#m175f56845e" y="232.246875"/>
      </g>
     </g>
     <g id="text_44">
      <!-- −20 -->
      <g style="fill:#262626;" transform="translate(700.15625 237.185859)scale(0.13 -0.13)">
       <use xlink:href="#DejaVuSans-2212"/>
       <use x="83.789062" xlink:href="#DejaVuSans-32"/>
       <use x="147.412109" xlink:href="#DejaVuSans-30"/>
      </g>
     </g>
    </g>
    <g id="ytick_22">
     <g id="line2d_47">
      <g>
       <use style="fill:#262626;stroke:#262626;" x="740.592344" xlink:href="#m175f56845e" y="198.271875"/>
      </g>
     </g>
     <g id="text_45">
      <!-- −10 -->
      <g style="fill:#262626;" transform="translate(700.15625 203.210859)scale(0.13 -0.13)">
       <use xlink:href="#DejaVuSans-2212"/>
       <use x="83.789062" xlink:href="#DejaVuSans-31"/>
       <use x="147.412109" xlink:href="#DejaVuSans-30"/>
      </g>
     </g>
    </g>
    <g id="ytick_23">
     <g id="line2d_48">
      <g>
       <use style="fill:#262626;stroke:#262626;" x="740.592344" xlink:href="#m175f56845e" y="164.296875"/>
      </g>
     </g>
     <g id="text_46">
      <!-- 0 -->
      <g style="fill:#262626;" transform="translate(719.321094 169.235859)scale(0.13 -0.13)">
       <use xlink:href="#DejaVuSans-30"/>
      </g>
     </g>
    </g>
    <g id="ytick_24">
     <g id="line2d_49">
      <g>
       <use style="fill:#262626;stroke:#262626;" x="740.592344" xlink:href="#m175f56845e" y="130.321875"/>
      </g>
     </g>
     <g id="text_47">
      <!-- 10 -->
      <g style="fill:#262626;" transform="translate(711.049844 135.260859)scale(0.13 -0.13)">
       <use xlink:href="#DejaVuSans-31"/>
       <use x="63.623047" xlink:href="#DejaVuSans-30"/>
      </g>
     </g>
    </g>
    <g id="ytick_25">
     <g id="line2d_50">
      <g>
       <use style="fill:#262626;stroke:#262626;" x="740.592344" xlink:href="#m175f56845e" y="96.346875"/>
      </g>
     </g>
     <g id="text_48">
      <!-- 20 -->
      <g style="fill:#262626;" transform="translate(711.049844 101.285859)scale(0.13 -0.13)">
       <use xlink:href="#DejaVuSans-32"/>
       <use x="63.623047" xlink:href="#DejaVuSans-30"/>
      </g>
     </g>
    </g>
    <g id="ytick_26">
     <g id="line2d_51">
      <g>
       <use style="fill:#262626;stroke:#262626;" x="740.592344" xlink:href="#m175f56845e" y="62.371875"/>
      </g>
     </g>
     <g id="text_49">
      <!-- 30 -->
      <g style="fill:#262626;" transform="translate(711.049844 67.310859)scale(0.13 -0.13)">
       <use xlink:href="#DejaVuSans-33"/>
       <use x="63.623047" xlink:href="#DejaVuSans-30"/>
      </g>
     </g>
    </g>
    <g id="ytick_27">
     <g id="line2d_52">
      <g>
       <use style="fill:#262626;stroke:#262626;" x="740.592344" xlink:href="#m175f56845e" y="28.396875"/>
      </g>
     </g>
     <g id="text_50">
      <!-- 40 -->
      <g style="fill:#262626;" transform="translate(711.049844 33.335859)scale(0.13 -0.13)">
       <use xlink:href="#DejaVuSans-34"/>
       <use x="63.623047" xlink:href="#DejaVuSans-30"/>
      </g>
     </g>
    </g>
   </g>
   <g id="line2d_53">
    <path clip-path="url(#p2156580d97)" d="M 721.992344 74.011858 
L 725.571072 -1 
M 742.653946 -1 
L 742.65901 -0.924858 
L 746.792344 54.17948 
L 750.925677 98.73251 
L 755.05901 133.341438 
L 759.192344 158.983898 
L 763.325677 177.417663 
L 767.45901 190.748646 
L 771.592344 199.904999 
L 775.725677 204.267392 
L 779.85901 203.226393 
L 783.992344 198.553145 
L 788.125677 193.699533 
L 792.25901 189.619211 
L 796.392344 185.288707 
L 800.525677 181.56635 
L 804.65901 179.121872 
L 808.792344 175.967967 
L 812.925677 170.835499 
L 817.05901 165.169113 
L 821.192344 160.55188 
L 825.325677 157.098285 
L 829.45901 154.444058 
L 833.592344 152.050877 
L 837.725677 149.379097 
L 841.85901 146.759449 
L 845.992344 144.883392 
L 850.125677 143.908335 
L 854.25901 143.389817 
L 858.392344 142.293208 
L 862.525677 139.456414 
L 866.65901 134.739907 
L 870.792344 129.45151 
L 874.925677 124.83746 
L 879.05901 120.774028 
L 883.192344 116.969373 
L 887.325677 114.265785 
L 891.45901 113.887836 
L 895.592344 115.918737 
L 899.725677 119.123988 
L 903.85901 122.644315 
L 907.992344 127.138046 
L 912.125677 134.15759 
L 916.25901 144.307883 
L 920.392344 156.083173 
L 924.525677 167.621279 
L 928.65901 178.790623 
L 932.792344 190.460869 
L 936.925677 202.346482 
L 941.05901 212.995462 
L 945.192344 222.116537 
L 949.325677 230.81113 
L 953.45901 239.369686 
L 957.592344 246.919492 
L 961.725677 252.890106 
L 965.85901 257.676836 
L 969.992344 262.38266 
L 974.125677 267.824673 
L 978.25901 273.288432 
L 982.392344 276.871152 
L 986.525677 277.924025 
L 990.65901 278.500079 
L 994.792344 280.507566 
L 998.925677 282.762379 
L 1003.05901 283.645269 
L 1007.192344 283.764863 
L 1011.325677 284.4088 
L 1015.45901 286.957506 
L 1019.592344 292.374539 
L 1023.725677 298.91176 
L 1027.85901 303.731505 
L 1031.992344 306.002792 
L 1033.792344 305.959096 
" style="fill:none;stroke:#4c72b0;stroke-linecap:square;stroke-width:1.75;"/>
   </g>
   <g id="line2d_54">
    <path clip-path="url(#p2156580d97)" d="M 721.992344 135.472411 
L 726.125677 81.756111 
L 730.25901 6.872446 
L 731.201308 -1 
M 738.868474 -1 
L 742.65901 38.863917 
L 746.792344 82.844497 
L 750.925677 121.656464 
L 755.05901 151.875876 
L 759.192344 171.630945 
L 763.325677 183.001087 
L 767.45901 190.489391 
L 771.592344 195.950316 
L 775.725677 198.008955 
L 779.85901 197.220665 
L 783.992344 196.070683 
L 788.125677 195.039241 
L 792.25901 193.292511 
L 796.392344 190.945239 
L 800.525677 188.357138 
L 804.65901 185.077178 
L 808.792344 180.767525 
L 812.925677 175.732379 
L 817.05901 170.480877 
L 821.192344 165.382331 
L 825.325677 160.323553 
L 829.45901 155.292916 
L 833.592344 151.058738 
L 837.725677 148.339551 
L 841.85901 146.906103 
L 845.992344 145.846921 
L 850.125677 144.438443 
L 854.25901 142.648593 
L 858.392344 140.780809 
L 862.525677 138.894867 
L 866.65901 136.893206 
L 870.792344 135.130401 
L 874.925677 134.048603 
L 879.05901 133.235871 
L 883.192344 132.349703 
L 887.325677 132.350592 
L 891.45901 134.51378 
L 895.592344 139.056108 
L 899.725677 145.10866 
L 903.85901 151.571039 
L 907.992344 157.991698 
L 912.125677 164.361011 
L 916.25901 169.919678 
L 920.392344 173.678359 
L 924.525677 176.441577 
L 928.65901 180.312492 
L 932.792344 186.241446 
L 936.925677 193.404123 
L 941.05901 200.4118 
L 945.192344 206.193052 
L 949.325677 210.435938 
L 953.45901 213.876095 
L 957.592344 217.226788 
L 961.725677 219.853029 
L 965.85901 221.156606 
L 969.992344 222.196066 
L 974.125677 224.337082 
L 978.25901 227.390396 
L 982.392344 230.289343 
L 986.525677 233.424804 
L 990.65901 238.097621 
L 994.792344 243.495212 
L 998.925677 247.858956 
L 1003.05901 252.038662 
L 1007.192344 257.804965 
L 1011.325677 263.936315 
L 1015.45901 267.550149 
L 1019.592344 267.894961 
L 1023.725677 266.831857 
L 1027.85901 266.173762 
L 1031.992344 266.336829 
L 1033.792344 267.305134 
" style="fill:none;stroke:#55a868;stroke-linecap:square;stroke-width:1.75;"/>
   </g>
   <g id="line2d_55">
    <path clip-path="url(#p2156580d97)" d="M 740.592344 164.296875 
L 771.592344 164.296875 
L 802.592344 164.296875 
L 833.592344 164.296875 
L 864.592344 164.296875 
L 895.592344 164.296875 
L 926.592344 164.296875 
L 957.592344 164.296875 
L 988.592344 164.296875 
L 1019.592344 164.296875 
" style="fill:none;stroke:#000000;stroke-dasharray:3.7,1.6;stroke-dashoffset:0;"/>
   </g>
   <g id="patch_9">
    <path d="M 740.592344 300.196875 
L 740.592344 28.396875 
" style="fill:none;stroke:#000000;stroke-linecap:square;stroke-linejoin:miter;stroke-width:0.8;"/>
   </g>
   <g id="patch_10">
    <path d="M 740.592344 300.196875 
L 1019.592344 300.196875 
" style="fill:none;stroke:#000000;stroke-linecap:square;stroke-linejoin:miter;stroke-width:0.8;"/>
   </g>
   <g id="text_51">
    <!-- 360 -->
    <defs>
     <path d="M 33.015625 40.375 
Q 26.375 40.375 22.484375 35.828125 
Q 18.609375 31.296875 18.609375 23.390625 
Q 18.609375 15.53125 22.484375 10.953125 
Q 26.375 6.390625 33.015625 6.390625 
Q 39.65625 6.390625 43.53125 10.953125 
Q 47.40625 15.53125 47.40625 23.390625 
Q 47.40625 31.296875 43.53125 35.828125 
Q 39.65625 40.375 33.015625 40.375 
z
M 52.59375 71.296875 
L 52.59375 62.3125 
Q 48.875 64.0625 45.09375 64.984375 
Q 41.3125 65.921875 37.59375 65.921875 
Q 27.828125 65.921875 22.671875 59.328125 
Q 17.53125 52.734375 16.796875 39.40625 
Q 19.671875 43.65625 24.015625 45.921875 
Q 28.375 48.1875 33.59375 48.1875 
Q 44.578125 48.1875 50.953125 41.515625 
Q 57.328125 34.859375 57.328125 23.390625 
Q 57.328125 12.15625 50.6875 5.359375 
Q 44.046875 -1.421875 33.015625 -1.421875 
Q 20.359375 -1.421875 13.671875 8.265625 
Q 6.984375 17.96875 6.984375 36.375 
Q 6.984375 53.65625 15.1875 63.9375 
Q 23.390625 74.21875 37.203125 74.21875 
Q 40.921875 74.21875 44.703125 73.484375 
Q 48.484375 72.75 52.59375 71.296875 
z
" id="DejaVuSans-36"/>
    </defs>
    <g style="fill:#262626;" transform="translate(861.004844 22.396875)scale(0.2 -0.2)">
     <use xlink:href="#DejaVuSans-33"/>
     <use x="63.623047" xlink:href="#DejaVuSans-36"/>
     <use x="127.246094" xlink:href="#DejaVuSans-30"/>
    </g>
   </g>
   <g id="legend_3"/>
  </g>
 </g>
 <defs>
  <clipPath id="p6ace001f98">
   <rect height="271.8" width="279" x="70.992344" y="28.396875"/>
  </clipPath>
  <clipPath id="p61ec671942">
   <rect height="271.8" width="279" x="405.792344" y="28.396875"/>
  </clipPath>
  <clipPath id="p2156580d97">
   <rect height="271.8" width="279" x="740.592344" y="28.396875"/>
  </clipPath>
 </defs>
</svg>
